<svg width="32" height="33" viewBox="0 0 32 33" fill="none" xmlns="http://www.w3.org/2000/svg">
<path d="M16 3.10742C13.4288 3.10742 10.9154 3.86986 8.77759 5.29832C6.63975 6.72678 4.97351 8.7571 3.98957 11.1325C3.00563 13.508 2.74819 16.1218 3.2498 18.6436C3.75141 21.1653 4.98953 23.4817 6.80762 25.2998C8.6257 27.1179 10.9421 28.356 13.4638 28.8576C15.9856 29.3592 18.5995 29.1018 20.9749 28.1179C23.3503 27.1339 25.3807 25.4677 26.8091 23.3298C28.2376 21.192 29 18.6786 29 16.1074C28.9964 12.6607 27.6256 9.35624 25.1884 6.91905C22.7512 4.48187 19.4467 3.11106 16 3.10742ZM23 17.1074H16C15.7348 17.1074 15.4804 17.0021 15.2929 16.8145C15.1054 16.627 15 16.3726 15 16.1074V9.10742C15 8.84221 15.1054 8.58785 15.2929 8.40032C15.4804 8.21278 15.7348 8.10742 16 8.10742C16.2652 8.10742 16.5196 8.21278 16.7071 8.40032C16.8946 8.58785 17 8.84221 17 9.10742V15.1074H23C23.2652 15.1074 23.5196 15.2128 23.7071 15.4003C23.8946 15.5879 24 15.8422 24 16.1074C24 16.3726 23.8946 16.627 23.7071 16.8145C23.5196 17.0021 23.2652 17.1074 23 17.1074Z" fill="#D7B56D"/>
</svg>
