<svg width="66" height="66" viewBox="0 0 66 66" fill="none" xmlns="http://www.w3.org/2000/svg">
<path fill-rule="evenodd" clip-rule="evenodd" d="M38.1948 11.327L56.5354 18.7525C59.5665 19.9799 62 23.5978 62 26.8744V39.125C62 42.4029 59.5665 46.0208 56.5354 47.2483L38.1935 54.6737C35.2885 55.8494 30.714 55.8494 27.8077 54.6737L9.46587 47.2483C6.43474 46.0221 4 42.4016 4 39.125V26.8744C4 23.5978 6.436 19.9799 9.46587 18.7525L27.8077 11.327C30.714 10.1501 35.2872 10.1501 38.1948 11.327Z" fill="black" stroke="#C5C6C6" stroke-width="0.288"/>
<path d="M29.6023 17.0071C29.8671 16.9957 29.8053 17.1853 29.8091 17.3749C29.7586 17.4293 29.7069 17.4837 29.6565 17.5367C29.6086 17.5342 29.5607 17.5304 29.5128 17.5279C29.4686 17.5367 29.4472 17.5734 29.3879 17.5823C29.3552 17.5582 29.3224 17.5342 29.2896 17.5102C29.1723 17.2928 29.4825 17.0918 29.6023 17.0071ZM36.2723 17.0071C36.5119 17.0008 36.7439 17.2612 36.7376 17.5014C36.7048 17.5304 36.672 17.5608 36.6392 17.5911C36.5358 17.586 36.5434 17.5405 36.4513 17.5279C36.4249 17.5405 36.3971 17.5519 36.3706 17.5633C36.3719 17.6316 36.3618 17.6632 36.3353 17.6986C36.2029 17.6859 36.0945 17.5241 36.0302 17.4381C36.0353 17.3939 36.0277 17.4027 36.0567 17.3838C36.0806 17.3711 36.0945 17.3661 36.1197 17.3749C36.2168 17.3977 36.2584 17.514 36.3353 17.5633C36.3442 17.5633 36.353 17.5633 36.3618 17.5633C36.358 17.5544 36.3555 17.5456 36.353 17.5367C36.3013 17.4799 36.2509 17.423 36.2004 17.3661C36.2029 17.2144 36.1878 17.0867 36.2723 17.0071ZM29.5846 17.0968C29.5304 17.1942 29.3854 17.246 29.3703 17.3749C29.3791 17.3749 29.3879 17.3749 29.3968 17.3749C29.4409 17.2536 29.5783 17.1651 29.7019 17.1145C29.6767 17.0943 29.6338 17.0943 29.5846 17.0968ZM36.3253 17.0968C36.3227 17.1032 36.3202 17.1082 36.3164 17.1145C36.3164 17.1171 36.3164 17.1209 36.3164 17.1234C36.3467 17.1234 36.3769 17.1234 36.4059 17.1234C36.4059 17.1209 36.4059 17.1171 36.4059 17.1145C36.4034 17.1082 36.4009 17.1032 36.3971 17.0968C36.3732 17.0968 36.3492 17.0968 36.3253 17.0968ZM36.4249 17.1499C36.4375 17.1929 36.4413 17.1878 36.4778 17.2043C36.4715 17.1651 36.4728 17.1714 36.4513 17.1499C36.4425 17.1499 36.4337 17.1499 36.4249 17.1499ZM36.4866 17.2043C36.4967 17.2371 36.4942 17.2308 36.5144 17.2498C36.5194 17.246 36.5257 17.2435 36.532 17.2409C36.532 17.2371 36.532 17.2346 36.532 17.2308C36.5295 17.2258 36.5257 17.2195 36.5232 17.2131C36.5106 17.2106 36.4993 17.2068 36.4866 17.2043ZM36.5409 17.2675C36.5497 17.2827 36.5585 17.2978 36.5673 17.3117C36.5711 17.3117 36.5736 17.3117 36.5762 17.3117C36.5762 17.2978 36.5762 17.2827 36.5762 17.2675C36.5648 17.2675 36.5535 17.2675 36.5409 17.2675ZM36.6127 17.3484C36.6153 17.3636 36.619 17.3787 36.6216 17.3926C36.6279 17.3901 36.6342 17.3876 36.6392 17.3838C36.6392 17.3813 36.6392 17.3787 36.6392 17.3749C36.6392 17.3661 36.6392 17.3572 36.6392 17.3484C36.6304 17.3484 36.6216 17.3484 36.6127 17.3484ZM29.8809 17.3661C29.9011 17.3749 29.9226 17.3838 29.944 17.3926C29.9616 17.4116 29.9553 17.4027 29.9616 17.4381C29.8986 17.5418 29.8003 17.648 29.7019 17.7163C29.683 17.7074 29.6653 17.6986 29.6477 17.6897C29.6477 17.6543 29.6477 17.6176 29.6477 17.5823C29.7259 17.5102 29.8028 17.4381 29.8809 17.3661ZM30.0058 17.4925C30.0386 17.5014 30.0726 17.5102 30.1054 17.519C30.1054 17.5367 30.1054 17.5544 30.1054 17.5734C30.036 17.648 29.9679 17.7226 29.8986 17.7972C29.9049 17.8035 29.9112 17.8098 29.9163 17.8161C30.0045 17.7668 30.0486 17.6783 30.123 17.6176C30.1773 17.6176 30.1987 17.6265 30.2302 17.6442C30.2327 17.6783 30.2365 17.7112 30.239 17.7441C30.3248 17.7656 30.935 18.3698 31.0283 18.4722C31.4873 18.9728 32.0269 19.4203 32.5162 19.8918C32.6536 20.0245 32.8024 20.1421 32.9196 20.2963C32.9108 20.3406 32.9133 20.3292 32.8831 20.3494C32.6851 20.2053 32.5073 20.0144 32.3283 19.8463C32.2501 19.7742 32.1669 19.6478 32.0585 19.6124C32.0799 19.6807 32.7242 20.2938 32.8125 20.3494C32.8099 20.3899 32.8062 20.3987 32.7936 20.4215C32.7595 20.4379 32.7507 20.4543 32.7318 20.4847C32.7103 20.4847 32.6889 20.4847 32.6687 20.4847C32.5489 20.3798 32.4292 20.2748 32.3094 20.1699C32.2526 20.1231 32.211 20.0435 32.1581 19.9904C31.8681 19.7072 31.5718 19.4342 31.2616 19.1725C31.0435 18.9513 30.8253 18.7288 30.6072 18.5076C30.4471 18.3926 30.1457 18.141 30.0423 17.9779C30.0575 17.9476 30.0726 17.9172 30.0865 17.8869C30.0259 17.9122 30.0562 17.9463 29.9793 17.959C29.9768 17.959 29.973 17.959 29.9705 17.959C29.9314 17.9122 29.9062 17.9008 29.8898 17.825C29.8545 17.825 29.8179 17.825 29.7826 17.825C29.7788 17.8186 29.7763 17.8123 29.7738 17.806C29.7738 17.7769 29.7738 17.7466 29.7738 17.7163C29.8507 17.6417 29.9289 17.5671 30.0058 17.4925ZM35.9495 17.4925C35.9735 17.495 35.9974 17.4976 36.0214 17.5014C36.0933 17.5734 36.1639 17.6442 36.2357 17.7163C36.2357 17.7719 36.2269 17.7921 36.2093 17.825C36.1828 17.8275 36.155 17.83 36.1286 17.8338C36.0643 17.7719 36.0201 17.6606 35.923 17.6353C35.923 17.6391 35.923 17.6417 35.923 17.6442C35.9609 17.7289 36.034 17.7782 36.0933 17.8427C36.0895 17.8629 36.0869 17.8844 36.0832 17.9059C36.0693 17.9236 36.0542 17.9413 36.039 17.959C36.0239 17.959 36.0088 17.959 35.9936 17.959C35.9546 17.8856 35.8877 17.8212 35.8234 17.7706C35.6835 17.9172 35.4174 18.1461 35.3128 18.3003C35.3128 18.3041 35.3128 18.3066 35.3128 18.3104C35.3254 18.3104 35.3367 18.3104 35.3493 18.3104C35.5044 18.16 35.6595 18.0108 35.8146 17.8604C35.8234 17.8629 35.8323 17.8667 35.8423 17.8692C35.8953 17.8882 35.9155 17.9223 35.9495 17.959C35.9495 17.9716 35.9495 17.983 35.9495 17.9956C35.8978 18.0879 35.7995 18.1397 35.7163 18.2017C35.5586 18.3205 35.4275 18.5013 35.2775 18.6327C34.8185 19.036 34.3911 19.4784 33.9409 19.8918C33.8956 19.9335 33.8741 20.0043 33.8249 20.0448C33.5425 20.2748 33.3067 20.5428 33.0356 20.7817C32.9272 20.8766 32.8024 20.9726 32.7217 21.0952C32.7103 21.0952 32.699 21.0952 32.6864 21.0952C32.6536 21.0624 32.6208 21.0295 32.588 20.9966C32.588 20.9701 32.588 20.9436 32.588 20.9157C32.7003 20.8386 32.9133 20.6718 32.9739 20.5479C32.9739 20.5441 32.9739 20.5416 32.9739 20.539C32.9613 20.5416 32.9499 20.5441 32.9373 20.5479C32.8793 20.5833 32.5136 20.9031 32.4985 20.9524C32.5477 21.0333 32.6183 21.0712 32.6599 21.1673C32.6473 21.1863 32.6359 21.204 32.6233 21.2217C32.6032 21.2217 32.5817 21.2217 32.5616 21.2217C32.5199 21.1597 32.4456 21.051 32.3636 21.0333C32.3863 21.1332 32.4695 21.1635 32.5162 21.2394C32.4292 21.3809 32.2703 21.4795 32.148 21.5895C31.7596 21.9435 31.4003 22.3429 30.9653 22.6501C30.9678 22.6564 30.9716 22.6628 30.9741 22.6691C30.9779 22.6691 30.9804 22.6691 30.9829 22.6691C31.1885 22.5945 31.3499 22.3733 31.5125 22.2456C31.6626 22.128 31.8176 22.0282 31.9513 21.8954C32.0232 21.8246 32.1266 21.6831 32.2287 21.6527C32.2388 21.6616 32.2476 21.6704 32.2564 21.6805C32.2526 21.7008 32.2501 21.7223 32.2476 21.7425C32.0812 22.0117 31.9387 22.286 31.7634 22.5427C31.3322 23.1735 30.7661 23.7044 30.239 24.2416C30.0776 24.406 29.7082 24.9293 29.3879 24.7802C29.3224 24.7207 29.2568 24.6601 29.19 24.6007C29.1433 24.5703 29.0954 24.5412 29.0475 24.5109C28.9378 24.3883 28.5457 23.9901 28.5986 23.7562C28.6377 23.5843 28.9958 23.3037 29.137 23.2076C29.2808 23.0673 29.4233 22.9257 29.567 22.7854C29.9654 22.5123 30.2958 22.171 30.7144 21.9131C30.877 21.8145 31.0435 21.6755 31.1986 21.563C31.2818 21.5023 31.423 21.4745 31.5213 21.4277C31.6109 21.3847 31.7849 21.2255 31.8883 21.2672C31.8883 21.2697 31.8883 21.2722 31.8883 21.276C31.8857 21.2874 31.8832 21.3 31.8794 21.3114C31.805 21.4264 31.6726 21.4972 31.5844 21.5996C31.3246 21.8967 30.9766 22.1773 30.7774 22.525C30.7774 22.5275 30.7774 22.5313 30.7774 22.5338C30.901 22.487 31.1141 22.1862 31.1986 22.0749C31.3587 21.8651 31.6159 21.6527 31.8265 21.4909C32.0131 21.3481 32.1404 21.137 32.3459 21.0055C32.3485 20.9676 32.3523 20.9284 32.3548 20.8892C32.3901 20.8892 32.4266 20.8892 32.4619 20.8892C32.4947 20.735 33.168 20.2078 33.3143 20.0713C33.9258 19.4987 34.5184 18.8969 35.1161 18.3104C35.3266 18.1018 35.5813 17.9375 35.7881 17.7251C35.7881 17.696 35.7881 17.6657 35.7881 17.6353C35.8285 17.6202 35.8701 17.6227 35.9129 17.6176C35.8978 17.5481 35.9054 17.5254 35.9495 17.4925ZM30.176 17.7706C30.1419 17.8022 30.118 17.8136 30.1054 17.8692C30.3172 17.8654 30.4786 18.1726 30.616 18.2914C30.9628 18.5923 31.3045 18.902 31.6285 19.2269C31.7559 19.3533 31.8719 19.5126 32.032 19.6036C32.0383 19.5985 32.0446 19.5922 32.0496 19.5859C31.9097 19.4102 31.7155 19.2762 31.5566 19.1182C31.3448 18.9071 31.1393 18.6959 30.9023 18.5076C30.6551 18.3104 30.4269 17.9463 30.176 17.7706ZM35.2775 18.3192C35.198 18.4292 35.0757 18.4924 34.9723 18.5796C34.6849 18.8198 34.4718 19.17 34.1566 19.3798C34.1679 19.419 34.1503 19.3975 34.183 19.4152C34.4566 19.2547 34.7542 18.8451 34.9988 18.6239C35.0896 18.543 35.2623 18.4406 35.3039 18.3192C35.2951 18.3192 35.2863 18.3192 35.2775 18.3192ZM34.1023 19.4329C34.0229 19.5429 33.9019 19.5998 33.8073 19.6933C33.5324 19.9664 33.2576 20.2394 32.9827 20.5112C32.9827 20.515 32.9827 20.5175 32.9827 20.5201C32.994 20.5175 33.0066 20.515 33.018 20.5112C33.3433 20.3165 33.5602 19.9639 33.8426 19.7211C33.9283 19.6466 34.1011 19.5467 34.1389 19.4329C34.1263 19.4329 34.1149 19.4329 34.1023 19.4329ZM33.2954 20.6553C33.4353 20.6844 33.4492 20.8247 33.5476 20.8803C33.5841 20.9006 33.6358 20.8917 33.6636 20.9069C33.6812 21.0978 33.9624 21.2634 34.0935 21.3835C34.4705 21.7665 34.8463 22.1508 35.2233 22.5338C35.1728 22.3733 34.9736 22.2456 34.8652 22.1116C34.6306 21.8246 34.352 21.5845 34.1213 21.3026C34.1326 21.2697 34.1288 21.2735 34.1566 21.2571C34.2133 21.2482 34.3053 21.3367 34.3533 21.3658C34.3835 21.3683 34.4138 21.3708 34.4428 21.3746C34.526 21.4201 34.6369 21.4871 34.7126 21.5453C34.7454 21.5516 34.7782 21.5567 34.8109 21.563C34.9043 21.6224 35.0001 21.7273 35.0972 21.788C35.5498 22.0699 35.9167 22.4099 36.3253 22.7222C36.3971 22.7702 36.469 22.8182 36.5409 22.8663C36.7514 23.0685 36.9733 23.2683 37.1776 23.4769C37.2545 23.5641 37.3327 23.6513 37.4109 23.7385C37.4146 24.0786 36.9242 24.5488 36.7199 24.7081C36.6379 24.7738 36.4513 24.8535 36.3164 24.7802C36.0844 24.655 35.9003 24.3655 35.7074 24.1873C35.3355 23.8434 34.8072 23.3429 34.5512 22.9017C34.473 22.8182 34.3961 22.7348 34.3179 22.6501C34.1843 22.4327 33.9737 22.214 33.8792 21.9763C33.8489 21.9018 33.7279 21.7248 33.7796 21.6805C33.801 21.6805 33.8224 21.6805 33.8426 21.6805C33.893 21.8133 34.4201 22.2001 34.56 22.3C34.6458 22.3606 34.6811 22.4693 34.8109 22.4883C34.8109 22.4858 34.8109 22.4833 34.8109 22.4795C34.7113 22.3303 34.5323 22.2481 34.3986 22.1293C34.2019 21.9346 34.004 21.7399 33.8073 21.5453C33.7127 21.4568 33.5186 21.3784 33.5022 21.2217C33.5526 21.1585 33.6043 21.0952 33.6547 21.0333C33.6547 21.0295 33.6547 21.027 33.6547 21.0245C33.6421 21.0245 33.6308 21.0245 33.6182 21.0245C33.5614 21.0902 33.5047 21.1559 33.4479 21.2217C33.4215 21.2191 33.395 21.2153 33.3673 21.2128C33.3559 21.2065 33.3433 21.2002 33.3319 21.1951C33.3319 21.1762 33.3319 21.1585 33.3319 21.1408C33.3597 21.1003 33.3887 21.0877 33.4038 21.0333C33.3887 21.0358 33.3736 21.0384 33.3584 21.0422C33.3496 21.0599 33.3408 21.0775 33.3319 21.0952C33.3143 21.0927 33.2954 21.0902 33.2777 21.0864C33.25 21.0131 33.1529 20.9309 33.0899 20.8892C33.0962 20.8677 33.1012 20.8475 33.1075 20.826C33.1315 20.8058 33.1554 20.7843 33.1794 20.7628C33.2096 20.7603 33.2386 20.7577 33.2689 20.7539C33.2702 20.6996 33.2777 20.6869 33.2954 20.6553ZM33.2866 20.7817C33.308 20.8399 33.3559 20.874 33.4126 20.898C33.4026 20.8424 33.342 20.7919 33.2866 20.7817ZM33.4303 20.898C33.4278 20.9334 33.424 20.9701 33.4215 21.0055C33.4328 21.0055 33.4454 21.0055 33.4568 21.0055C33.4858 20.9701 33.5034 20.9676 33.511 20.9069C33.4845 20.9044 33.4568 20.9006 33.4303 20.898ZM31.1897 21.7159C31.1355 21.7817 31.0674 21.7943 30.9918 21.8411C30.8216 21.9485 30.6715 22.0863 30.4988 22.2014C30.0625 22.4934 29.6868 22.9055 29.2896 23.2443C29.161 23.353 28.7953 23.6425 28.7777 23.8283C28.9315 24.0596 29.2581 24.6221 29.5846 24.6361C29.5846 24.6247 29.5846 24.6133 29.5846 24.6007C29.3388 24.5122 28.9088 24.0634 28.9126 23.7196C28.963 23.6576 29.0147 23.5944 29.0652 23.5312C29.3375 23.2822 29.6086 23.0344 29.8809 22.7854C30.2088 22.5768 30.4685 22.2823 30.7774 22.0572C30.9275 21.9485 31.1027 21.8613 31.225 21.7248C31.225 21.7223 31.225 21.7185 31.225 21.7159C31.2137 21.7159 31.2011 21.7159 31.1897 21.7159ZM34.7756 21.7159C34.792 21.7349 34.7782 21.7248 34.8109 21.7336C34.7983 21.7273 34.787 21.7223 34.7756 21.7159ZM34.8374 21.7614C34.8437 21.7753 34.85 21.7905 34.8551 21.8057C34.9194 21.8259 34.9232 21.8588 34.9988 21.8689C34.9938 21.8562 34.9875 21.8449 34.9812 21.8322C34.9194 21.8095 34.9156 21.7728 34.8374 21.7614ZM35.0165 21.8777C35.0139 21.8841 35.0114 21.8891 35.0076 21.8954C35.2775 22.166 35.6154 22.3745 35.9129 22.6147C36.3404 22.9586 36.73 23.3504 37.1057 23.7474C37.1057 24.0406 36.7678 24.3542 36.5951 24.4932C36.5358 24.5412 36.4463 24.5602 36.416 24.6361C36.4387 24.6361 36.4627 24.6361 36.4866 24.6361C36.6669 24.5172 37.3264 24.023 37.1864 23.7019C37.0818 23.5502 36.9141 23.4174 36.7741 23.2973C36.4135 22.9889 36.0781 22.6665 35.6898 22.3809C35.4767 22.2241 35.28 21.9751 35.0165 21.8777ZM34.8198 22.4883C34.8425 22.5743 34.9522 22.6236 35.0165 22.6691C35.0266 22.6691 35.0354 22.6691 35.0442 22.6691C35.0354 22.6539 35.0266 22.6387 35.0165 22.6236C34.9446 22.597 34.8954 22.525 34.8198 22.4883ZM30.9023 22.6956C30.8997 22.6982 30.8972 22.7019 30.8934 22.7045C30.906 22.7108 30.9174 22.7159 30.93 22.7222C30.9325 22.7133 30.935 22.7045 30.9388 22.6956C30.9262 22.6956 30.9149 22.6956 30.9023 22.6956ZM35.0707 22.6956C35.0795 22.7019 35.0883 22.707 35.0972 22.7133C35.082 22.6956 35.0972 22.707 35.0707 22.6956Z" fill="#F7F3E5"/>
<path d="M15.451 39.5765L19.6195 38.6865L19.4001 37.6499L16.6678 38.2327L16.3967 36.9572L18.3561 36.5388L18.1354 35.5022L16.1773 35.9206L15.9087 34.654L18.6398 34.0712L18.4204 33.0359L14.252 33.9246L14.4726 34.9611L14.8748 34.8752L15.6339 38.4539L15.2316 38.5399L15.451 39.5765Z" fill="#D7B56D"/>
<path d="M13.2134 34.1544L12.1417 34.4515L11.5907 37.9367L9.34253 35.2264L8.26953 35.5235L8.55197 36.5449L8.95923 36.4324L12.2753 40.4207L13.0772 35.2921L13.4958 35.1758L13.2134 34.1544ZM23.6143 36.8002C23.4933 36.9051 23.3432 36.9949 23.1654 37.0695C22.9889 37.1441 22.7998 37.1934 22.6018 37.2186C22.3661 37.2477 22.1366 37.2389 21.9147 37.1921C21.6915 37.1441 21.5099 37.0657 21.3687 36.9557C21.2363 36.8533 21.1632 36.7383 21.1468 36.6131L20.0965 36.7332C20.1494 37.1542 20.3575 37.5056 20.7219 37.79C20.9778 37.991 21.2817 38.1326 21.6322 38.216C21.9828 38.2995 22.3497 38.3172 22.7317 38.2704C23.3798 38.1895 23.9081 37.9619 24.3179 37.589C24.5474 37.388 24.7151 37.1605 24.8222 36.9077C24.9294 36.6548 24.966 36.3982 24.9344 36.1403C24.8575 35.5209 24.565 35.0962 24.0581 34.8674C23.8602 34.7789 23.6484 34.722 23.4201 34.6942C23.1932 34.6664 22.9536 34.6411 22.7052 34.6196C22.651 34.612 22.6006 34.6082 22.5527 34.6108C22.5035 34.6133 22.4568 34.6095 22.4114 34.6006C22.3648 34.5918 22.3219 34.5867 22.2803 34.5893C22.24 34.5905 22.1996 34.5855 22.1605 34.5754C21.9878 34.5602 21.8226 34.545 21.6675 34.5299C21.5124 34.5159 21.3801 34.4894 21.2716 34.4502C21.2073 34.4211 21.167 34.3946 21.1493 34.3706C21.1304 34.3466 21.1191 34.3086 21.1128 34.2568C21.109 34.167 21.138 34.0849 21.1998 34.0103C21.2615 33.9344 21.3422 33.8687 21.4444 33.8106C21.5452 33.7537 21.6625 33.7044 21.7961 33.6652C21.9298 33.626 22.0622 33.5982 22.1946 33.5818C22.4304 33.5527 22.6296 33.5615 22.7922 33.6083C22.9549 33.6563 23.081 33.7107 23.1718 33.7752C23.197 33.7941 23.2222 33.8207 23.2487 33.8548C23.2751 33.8889 23.2915 33.9243 23.2953 33.9623L24.3444 33.8308L24.3418 33.808C24.3002 33.4693 24.125 33.1798 23.8198 32.9409C23.371 32.5768 22.7859 32.4403 22.0634 32.53C21.7987 32.5641 21.5503 32.6223 21.3183 32.7083C21.0863 32.7929 20.8808 32.9029 20.703 33.0382C20.2301 33.382 20.0145 33.8169 20.0574 34.344C20.0688 34.4325 20.0889 34.5273 20.1154 34.6285C20.1431 34.7296 20.1873 34.8307 20.2491 34.9318C20.3096 35.033 20.3928 35.1278 20.4974 35.2163C20.6021 35.3048 20.732 35.3793 20.8896 35.4425C21.0699 35.5095 21.259 35.5551 21.4557 35.5791C21.6537 35.6044 21.8617 35.6246 22.0811 35.6423L22.3181 35.6574L22.6245 35.6865C22.8881 35.7067 23.0999 35.727 23.26 35.7485C23.4189 35.7687 23.5424 35.799 23.6294 35.837C23.7164 35.8749 23.777 35.9267 23.8123 35.9937C23.8463 36.0607 23.8703 36.1492 23.8841 36.2604C23.898 36.378 23.8703 36.4842 23.8009 36.5803C23.7303 36.6751 23.6685 36.7484 23.6143 36.8002ZM26.0226 36.8293L26.0957 37.8861L30.6134 37.5764L30.5125 36.1075L29.4584 36.1795L29.4862 36.5916L27.4877 36.7282L27.2381 33.0786L27.6378 33.0508L27.5659 31.994L25.7011 32.1217L25.7729 33.1785L26.184 33.1507L26.4336 36.8015L26.0226 36.8293ZM35.3454 37.5928L36.4588 37.608L36.4727 36.5487L36.0389 36.5423L33.9673 31.7842L31.7671 36.4842L31.3434 36.4779L31.3296 37.5385L32.4417 37.5536L32.8439 36.689L34.9571 36.718L35.3454 37.5928ZM33.932 34.3605L34.4931 35.6511L33.3356 35.636L33.932 34.3605ZM45.0289 35.2643C45.3076 35.0064 45.4702 34.6904 45.5169 34.3137C45.5446 34.0849 45.5219 33.8611 45.4488 33.6424C45.3744 33.4225 45.2609 33.2253 45.1071 33.0483C44.9533 32.8726 44.7679 32.7247 44.5511 32.6084C44.3342 32.4908 44.0971 32.4162 43.8387 32.3846L41.2224 32.0572L41.0912 33.109L41.4998 33.1608L41.0496 36.7914L40.6411 36.7395L40.51 37.7913L43.5134 38.1667C43.7706 38.1983 44.019 38.1844 44.2585 38.125C44.4981 38.0643 44.7112 37.9683 44.9003 37.8343C45.0882 37.7003 45.2445 37.5385 45.3694 37.3476C45.4942 37.1567 45.5711 36.9431 45.6001 36.7079C45.6354 36.4273 45.6014 36.1618 45.498 35.9128C45.3933 35.6638 45.237 35.4476 45.0289 35.2643ZM43.5487 34.7195L42.3899 34.5754L42.5488 33.291L43.7088 33.4364C43.937 33.4642 44.1249 33.5539 44.2749 33.7031C44.425 33.8535 44.4893 34.0128 44.4678 34.1822C44.4451 34.3605 44.3443 34.5008 44.1627 34.6057C43.9811 34.7106 43.7769 34.7485 43.5487 34.7195ZM43.6432 37.115L42.0987 36.9216L42.2575 35.6385L43.8034 35.8306C44.024 35.8584 44.2094 35.9457 44.3594 36.091C44.5095 36.2377 44.5738 36.3995 44.5511 36.5765C44.5309 36.7459 44.4288 36.8849 44.2472 36.9936C44.0656 37.1023 43.8651 37.1428 43.6432 37.115ZM50.051 39.2159L51.1454 39.4157L51.3358 38.374L50.9084 38.2957L49.6538 33.2581L46.7059 37.5258L46.2898 37.45L46.0994 38.4929L47.1938 38.6926L47.7335 37.9076L49.8127 38.2881L50.051 39.2159ZM49.1923 35.7927L49.5315 37.1592L48.3929 36.9506L49.1923 35.7927ZM52.5198 38.6787L52.1226 38.5687L51.8414 39.5901L53.6432 40.0895L53.9244 39.068L53.5385 38.9606L53.6785 38.4549C53.9723 38.6446 54.2661 38.7798 54.5586 38.862L54.7414 38.9126C54.8057 38.9303 54.8688 38.9391 54.9293 38.9404L55.938 40.7253L57.0538 41.0338L57.335 40.0123L56.6378 39.8189L56.1031 38.8721C56.1624 38.8506 56.2179 38.8317 56.2683 38.814C56.32 38.7975 56.3717 38.7773 56.4247 38.7533C56.7222 38.6205 56.9731 38.4448 57.1749 38.2261C57.3779 38.0087 57.5204 37.7496 57.6036 37.4487C57.6868 37.1466 57.6969 36.8508 57.6351 36.56C57.5721 36.2693 57.4472 35.9899 57.2594 35.7207C57.0828 35.4716 56.8609 35.2555 56.5949 35.0747C56.3301 34.8927 56.0363 34.7574 55.7148 34.6676L53.3771 34.0204L53.0947 35.0418L53.4919 35.1518L52.5198 38.6787ZM53.9861 37.3375L54.5107 35.4337L55.4336 35.6891C55.8485 35.8041 56.1687 36.0203 56.3969 36.3388C56.5936 36.6017 56.6529 36.8761 56.5735 37.163C56.4953 37.45 56.3036 37.6548 55.9998 37.7799C55.6417 37.9341 55.2546 37.9544 54.841 37.8406C54.4968 37.7445 54.2131 37.5776 53.9861 37.3375Z" fill="#F7F3E5"/>
<path fill-rule="evenodd" clip-rule="evenodd" d="M29.0388 49.7031C28.948 49.6146 28.8408 49.5463 28.7248 49.4958C28.6113 49.4465 28.4916 49.4174 28.3667 49.4174C28.054 49.4174 27.7893 49.5261 27.5926 49.7789C27.4009 50.028 27.3328 50.3313 27.3328 50.6436C27.3328 50.7245 27.3404 50.8067 27.3517 50.8876C27.3631 50.9685 27.3769 51.0494 27.3971 51.129C27.4324 51.2643 27.4967 51.3869 27.5825 51.4969C27.672 51.6106 27.7829 51.6979 27.9128 51.7585C28.0477 51.823 28.1915 51.8521 28.3403 51.8521C28.4739 51.8521 28.605 51.8268 28.7311 51.78C28.8597 51.732 28.9795 51.6637 29.088 51.579C29.1106 51.6764 29.1359 51.7686 29.1649 51.8533C29.0413 51.9368 28.9064 51.9949 28.7626 52.0291C28.6063 52.0657 28.4449 52.0809 28.2848 52.0809C27.8977 52.0809 27.532 51.9772 27.2546 51.689C26.9773 51.4008 26.8789 51.0228 26.8789 50.6271C26.8789 50.4211 26.9193 50.2188 26.9987 50.0292C27.0743 49.8447 27.1853 49.6816 27.3353 49.5514C27.4778 49.4275 27.6405 49.334 27.8183 49.2758C28.0011 49.2164 28.1915 49.1886 28.3819 49.1886C28.5269 49.1886 28.6706 49.2063 28.8118 49.2379C28.953 49.2682 29.0917 49.3125 29.2241 49.3706C29.175 49.4856 29.1333 49.6171 29.098 49.7612L29.0842 49.7498C29.0678 49.7359 29.0526 49.7195 29.0388 49.7031ZM36.0265 50.9963C36.0303 50.6714 36.145 50.2504 36.5359 50.2504C36.9621 50.2504 37.0604 50.7485 37.0566 51.0949C37.0541 51.3502 36.9671 51.7358 36.6746 51.8015C36.6229 51.8142 36.5687 51.8167 36.5157 51.8167C36.1072 51.8167 36.0227 51.3199 36.0265 50.9963ZM35.6256 50.0596C35.7844 50.0596 35.9572 50.1063 36.0202 50.3402C36.198 50.1202 36.3594 50.0254 36.6443 50.0254C37.1726 50.0254 37.4563 50.4957 37.4563 51.0001C37.4563 51.1379 37.4463 51.2782 37.4122 51.4122C37.3113 51.8078 36.9911 52.0493 36.5851 52.0493C36.3468 52.0493 36.1614 51.9608 36.0177 51.7661V52.311V52.7698H35.6256V52.7686V50.0596ZM34.8804 51.7623C34.7329 51.9557 34.5311 52.0455 34.289 52.0455C34.0104 52.0455 33.699 51.89 33.6473 51.5866C33.6283 51.4741 33.6258 51.3591 33.6258 51.2453V50.0596H34.0369L33.9978 51.1505C33.9978 51.3629 34.0028 51.5955 34.2058 51.7168C34.2739 51.7573 34.3508 51.7737 34.429 51.7737C34.6723 51.7737 34.8136 51.6106 34.859 51.3844C34.8716 51.3161 34.8779 51.2453 34.8791 51.1758L34.8804 50.0596H35.2687L35.2448 52.0291C34.9497 52.0265 34.8779 51.8306 34.8804 51.7623ZM30.7334 51.7623C30.5846 51.9557 30.3841 52.0455 30.142 52.0455C29.8634 52.0455 29.552 51.89 29.5003 51.5866C29.4801 51.4741 29.4776 51.3591 29.4776 51.2453V50.0596H29.8886L29.8495 51.1505C29.8495 51.3629 29.8546 51.5955 30.0588 51.7168C30.1269 51.7573 30.2038 51.7737 30.282 51.7737C30.5253 51.7737 30.6666 51.6106 30.7107 51.3844C30.7246 51.3161 30.7309 51.2453 30.7321 51.1758L30.7334 50.0596H31.1217L31.0978 52.0291C30.8015 52.0265 30.7309 51.8306 30.7334 51.7623ZM32.3864 51.8609C31.9678 51.8609 31.8266 51.3806 31.8266 51.0279C31.8266 50.6866 31.964 50.2429 32.3725 50.2429C32.8643 50.2429 32.9513 50.6904 32.9513 51.0949C32.9513 51.469 32.8163 51.8609 32.3864 51.8609ZM31.703 50.3478C31.8934 50.1379 32.1506 50.033 32.4293 50.033C33.0156 50.033 33.3699 50.4679 33.3699 51.0468C33.3699 51.3148 33.2917 51.555 33.1152 51.7547C32.9147 51.9798 32.6524 52.0695 32.3599 52.0695C32.0976 52.0695 31.8606 51.9899 31.6715 51.8002C31.4773 51.6043 31.4042 51.349 31.4042 51.0746C31.4042 50.6499 31.4584 50.1544 31.6904 49.789C31.8493 49.5362 32.0913 49.3681 32.3599 49.2556C32.5049 49.1936 32.6537 49.138 32.8025 49.0874C32.897 49.0558 32.9954 49.028 33.0862 48.9863L33.1215 48.9724C33.1845 49.1393 33.0849 49.4288 32.892 49.4578C32.5478 49.5703 32.138 49.6753 31.8946 49.9673C31.8013 50.0785 31.7396 50.2075 31.703 50.3478ZM38.1145 51.0999C38.2003 51.0999 38.286 51.0999 38.3717 51.0999C38.6 51.0999 38.7954 51.2048 38.7954 51.4602C38.7954 51.7168 38.6365 51.8129 38.4033 51.8129H38.1145V51.0999ZM38.1145 50.885H38.4953C38.8521 50.885 39.1951 51.0253 39.1951 51.4488C39.1951 51.8508 38.8193 52.0253 38.4713 52.0253H37.7312V50.0596H38.1145V50.885Z" fill="#D7B56D"/>
<path d="M32.9959 47.6795C31.3769 47.6795 29.7441 47.792 28.1428 48.0435C26.8164 48.2521 25.4673 48.5606 24.2064 49.0295C24.0841 49.0751 23.9466 49.1281 23.8004 49.1888L23.3301 48.9474C25.6463 47.9234 29.1175 47.2737 32.9959 47.2737C36.8756 47.2737 40.3468 47.9234 42.663 48.9474L42.1927 49.1888C42.0464 49.1281 41.909 49.0751 41.7867 49.0295C40.5258 48.5606 39.1767 48.2521 37.8503 48.0435C36.2489 47.792 34.6161 47.6795 32.9959 47.6795Z" fill="#D7B56D"/>
<path d="M33.0016 46.0383C36.5143 46.0383 40.4823 46.5718 43.7202 47.9965C44.1754 48.1974 44.6633 48.4389 45.145 48.7221L44.7163 48.942C41.9815 47.42 37.7512 46.4441 33.0016 46.4441C28.2531 46.4441 24.0216 47.42 21.2881 48.942L20.8594 48.7221C21.341 48.4389 21.829 48.1974 22.2842 47.9965C25.5221 46.5718 29.49 46.0383 33.0016 46.0383Z" fill="#D7B56D"/>
<path d="M37.467 25.8023C37.4897 25.8086 37.5124 25.815 37.5351 25.8213C37.5818 26.1714 37.9663 26.6 37.554 26.8465C37.5414 26.8427 37.5288 26.8402 37.5162 26.8364C37.409 26.4015 37.1417 26.2018 37.467 25.8023ZM37.873 25.3864C37.892 25.3965 37.9109 25.4066 37.9298 25.4155C37.9626 25.6671 38.2765 25.9667 38.1908 26.1891C38.1555 26.27 38.0899 26.3762 38.0168 26.4205C38.0016 26.4116 37.7066 25.8794 37.699 25.8504C37.7028 25.7505 37.7053 25.6506 37.7091 25.5508C37.7734 25.5217 37.8251 25.437 37.873 25.3864ZM36.1469 26.8566C36.1721 26.8654 36.1986 26.8756 36.2238 26.8857C36.2213 27.3698 36.3486 27.6707 35.9641 27.8805C35.9477 27.8704 35.9313 27.8616 35.9149 27.8515C35.9124 27.5759 35.8254 27.2434 35.9149 27.05C35.9565 26.9615 36.0776 26.9185 36.1469 26.8566ZM36.6197 26.5469C36.645 26.5494 36.6702 26.5532 36.6966 26.557C36.684 26.8364 36.9375 27.6315 36.4747 27.5519C36.4621 27.4204 36.4483 27.2877 36.4356 27.1562C36.336 26.782 36.3953 26.7593 36.6197 26.5469ZM37.0724 26.1891C37.0913 26.1929 37.1115 26.1955 37.1304 26.1993C37.1392 26.2991 37.1493 26.399 37.1594 26.4988C37.254 26.7137 37.3977 27.2017 37.0144 27.2333C36.9476 27.1663 37.0068 27.031 36.9665 26.9236C36.8215 26.5444 36.8026 26.4685 37.0724 26.1891ZM32.7627 27.7162C32.8371 27.72 32.9103 27.7225 32.9846 27.7263C32.9872 27.7516 32.991 27.7781 32.9947 27.8034C32.7867 27.9753 32.706 28.706 32.2231 28.4507C32.2231 28.438 32.2231 28.4254 32.2231 28.4127C32.3252 28.3053 32.3933 28.165 32.474 28.0348C32.4828 27.9968 32.4929 27.9576 32.503 27.9197C32.5686 27.8363 32.7136 27.7845 32.7627 27.7162ZM33.3314 27.7061C33.4234 27.7036 33.5104 27.7061 33.5634 27.7352C33.5634 27.7389 33.5634 27.7427 33.5634 27.7453C33.5445 27.8199 33.4789 27.8199 33.4575 27.8805C33.3831 28.0828 33.3692 28.3407 33.2154 28.4608C33.1423 28.5189 32.9292 28.5771 32.8686 28.4987C32.8876 28.3811 32.9796 28.3078 33.0136 28.2092C33.1183 27.902 33.0729 27.8641 33.3314 27.7061ZM32.184 27.658C32.2697 27.6555 32.3618 27.677 32.3971 27.7263C32.4034 27.7352 32.4097 27.7453 32.416 27.7554C32.3681 27.8097 32.3189 27.8641 32.271 27.9197C32.1714 28.103 32.0377 28.5632 31.6544 28.4026C31.6443 28.3963 31.6343 28.39 31.6254 28.3837C31.6254 28.3634 31.6254 28.3445 31.6254 28.3255C31.7755 28.2155 31.8007 28.0297 31.9053 27.8704C31.9709 27.7706 32.1033 27.7427 32.184 27.658ZM33.977 27.6391C34.0337 27.6378 34.0715 27.6429 34.103 27.658C34.0955 27.7617 34.011 27.8552 33.987 27.9488C33.9177 28.2143 33.953 28.4481 33.6592 28.4797C33.5722 28.4898 33.552 28.5265 33.4953 28.4608C33.5949 28.2155 33.629 27.7769 33.8622 27.658C33.9 27.6517 33.9391 27.6454 33.977 27.6391ZM31.5775 27.5809C31.6872 27.5771 31.7919 27.5797 31.8562 27.6201C31.8562 27.6227 31.8562 27.6264 31.8562 27.629C31.8335 27.7263 31.4439 28.2231 31.3556 28.2674C31.2825 28.3027 31.0606 28.2863 31.0278 28.2383C31.0126 28.194 31.0341 28.1548 31.0568 28.122C31.1866 28.0575 31.2308 27.8944 31.3165 27.7845C31.3846 27.6947 31.483 27.6454 31.5775 27.5809ZM34.5078 27.5139C34.5683 27.5114 34.6175 27.5152 34.6528 27.5329C34.6553 27.5417 34.6591 27.5519 34.6616 27.562C34.6326 27.61 34.6036 27.658 34.5759 27.7061C34.5759 27.8135 34.5759 27.9197 34.5759 28.0259C34.5418 28.2079 34.3703 28.5189 34.132 28.4127C34.1346 28.3129 34.1825 28.2964 34.1989 28.2193C34.2417 28.0246 34.1585 27.7073 34.325 27.6492C34.3666 27.5809 34.4498 27.5645 34.5078 27.5139ZM30.9698 27.4457C31.106 27.4419 31.2194 27.4469 31.2976 27.4937C31.3039 27.5101 31.3102 27.5266 31.3165 27.5417C31.314 27.5582 31.3102 27.5746 31.3064 27.591C31.0341 27.7175 30.966 28.1182 30.584 28.0841C30.536 28.0777 30.4881 28.0701 30.439 28.0638C30.3557 27.9905 30.8702 27.5177 30.9698 27.4457ZM35.1243 27.3294C35.1445 27.3395 35.1634 27.3496 35.1823 27.3584C35.1647 27.6543 35.1924 28.0322 35.0184 28.1902C34.9793 28.2256 34.8205 28.3571 34.7486 28.2572C34.7398 28.2079 34.7864 28.146 34.7877 28.0449C34.789 27.5493 34.8079 27.5139 35.1243 27.3294ZM30.468 27.2422C30.6029 27.2358 30.7907 27.2763 30.8059 27.3875C30.7958 27.3938 30.787 27.4002 30.7769 27.4065C30.7441 27.4141 30.7126 27.4204 30.6798 27.4267C30.42 27.5455 30.3166 28.0575 29.8413 27.7845C29.8451 27.7617 29.8476 27.7389 29.8514 27.7162C29.8842 27.6568 29.9094 27.6821 29.9674 27.6492C30.1174 27.5607 30.1969 27.3521 30.352 27.2624C30.391 27.2561 30.4301 27.2497 30.468 27.2422ZM35.6073 27.117C35.6325 27.1208 35.6577 27.1233 35.6842 27.1271C35.7094 27.1992 35.6716 27.2712 35.6842 27.3686C35.727 27.7048 35.6943 28.17 35.3463 28.1131C35.3437 28.103 35.34 28.0929 35.3374 28.0841C35.519 27.6403 35.1193 27.4608 35.6073 27.117ZM29.8993 26.9919C30.0317 26.9868 30.1553 27.0171 30.2271 27.0778C30.3507 27.1928 30.0884 27.2396 30.0254 27.2915C29.8085 27.4646 29.608 27.7099 29.2626 27.4558C29.2626 27.4419 29.2626 27.4292 29.2626 27.4166C29.2726 27.4103 29.2827 27.404 29.2916 27.3976C29.4769 27.2952 29.5841 27.1891 29.7354 27.069C29.7909 27.0247 29.8552 27.0475 29.8993 26.9919ZM29.4656 26.7011C29.6005 26.696 29.7732 26.758 29.7543 26.8756C29.4151 27.0285 29.1945 27.4014 28.7708 27.1271C28.7708 27.1107 28.7708 27.0942 28.7708 27.0778C28.7809 27.0715 28.791 27.0652 28.7998 27.0589C28.9953 26.9653 29.1213 26.8389 29.2916 26.7302C29.3496 26.7213 29.4076 26.7112 29.4656 26.7011ZM28.9448 26.3535C29.0848 26.356 29.2184 26.4142 29.2916 26.4887C29.2777 26.6328 29.1314 26.5785 29.0419 26.643C28.8376 26.7909 28.4581 27.026 28.2703 26.7011C28.2728 26.6986 28.7771 26.4015 28.7998 26.3927C28.854 26.3712 28.9057 26.3838 28.9448 26.3535ZM26.3222 19.172C26.3676 19.1783 26.9022 19.5955 26.9199 19.6359C26.9753 19.7586 26.9741 20.0367 26.853 20.0708C26.8089 20.0164 26.7799 19.9216 26.7181 19.8875C26.466 19.7459 26.2352 19.6208 26.2932 19.191C26.3033 19.1846 26.3134 19.1783 26.3222 19.172ZM26.592 18.5728C26.6084 18.5753 26.6248 18.5791 26.6412 18.5817C26.7257 18.8383 27.0485 18.899 27.1229 19.1429C27.1758 19.3186 27.0838 19.55 26.959 19.5007C26.8909 19.2125 26.2075 18.9874 26.592 18.5728ZM26.843 18.0027C26.8694 18.0115 26.8946 18.0217 26.9199 18.0318C26.9905 18.3124 27.5478 18.5387 27.2679 18.9495C27.2326 18.9596 27.2149 18.9723 27.1809 18.9596C27.1317 18.9192 27.1166 18.8143 27.075 18.7662C26.8556 18.5109 26.6273 18.4325 26.843 18.0027ZM27.1708 17.4705C27.1935 17.4743 27.2162 17.4768 27.2389 17.4806C27.2931 17.8649 27.8126 17.961 27.5566 18.4274C27.4999 18.4439 27.4709 18.4603 27.4217 18.4375C27.3662 18.0444 26.8354 17.9951 27.1708 17.4705ZM32.9456 14.4063C33.0237 14.4037 33.0767 14.4101 33.1196 14.4353C33.1196 14.4543 33.1196 14.4745 33.1196 14.4935C32.9229 14.7375 32.9493 15.3088 32.4538 15.2178C32.4374 15.1799 32.4374 15.1609 32.445 15.1116C32.5761 15.0358 32.5635 14.8335 32.6177 14.6768C32.6682 14.5365 32.8043 14.4657 32.9456 14.4063ZM32.358 14.4164C32.4059 14.4227 32.4538 14.429 32.503 14.4353C32.508 14.5213 32.4198 14.5832 32.3971 14.6679C32.3265 14.917 32.3517 15.1357 32.155 15.2469C32.0592 15.2608 31.9621 15.2735 31.8663 15.2861C31.8663 15.2823 31.8663 15.2798 31.8663 15.276C31.8852 15.2077 31.9306 15.1761 31.9533 15.1319C31.9558 15.0737 31.9596 15.0156 31.9621 14.9574C32.0327 14.6844 32.1109 14.5213 32.358 14.4164ZM33.4953 14.4164C33.5848 14.4138 33.6731 14.4189 33.7361 14.4353C33.7399 14.4417 33.7424 14.448 33.7462 14.4543C33.7286 14.5478 33.6453 14.606 33.6012 14.6768C33.5445 14.7703 33.5609 14.879 33.5142 14.9764C33.4575 15.0472 33.3995 15.118 33.3415 15.19C33.2015 15.1925 33.146 15.2166 33.0326 15.19C33.02 15.1508 33.02 15.147 33.0237 15.1028C33.1927 15.0232 33.1788 14.7008 33.2936 14.5605C33.3604 14.5125 33.4285 14.4644 33.4953 14.4164ZM31.7313 14.4935C31.7893 14.491 31.8335 14.496 31.8663 14.5125C31.865 14.5984 31.8284 14.587 31.8083 14.6389C31.8083 14.697 31.8083 14.7539 31.8083 14.812C31.7616 15.0687 31.7389 15.2229 31.5573 15.3442C31.5044 15.3796 31.3997 15.434 31.3354 15.4024C31.3947 15.2178 31.3972 14.8171 31.4993 14.6578C31.5523 14.5782 31.662 14.5554 31.7313 14.4935ZM34.1131 14.4935C34.18 14.4973 34.248 14.4998 34.3149 14.5036C34.3275 14.5162 34.3413 14.5289 34.354 14.5415C34.3262 14.6477 34.2455 14.7147 34.19 14.7931C34.0703 14.9625 33.9543 15.458 33.5634 15.2178C33.5634 15.2153 33.5634 15.2115 33.5634 15.209C33.5634 15.2027 33.5634 15.1963 33.5634 15.19C33.7311 15.0598 33.7538 14.8095 33.8912 14.6477C33.9505 14.5769 34.0425 14.5542 34.1131 14.4935ZM31.1425 14.6186C31.2068 14.6186 31.2295 14.6262 31.2585 14.6578C31.2484 14.7109 31.2232 14.7033 31.2106 14.7349C31.2106 14.8184 31.2106 14.9031 31.2106 14.9865C31.2522 15.2659 31.1337 15.4365 30.9597 15.5377C30.9181 15.5617 30.8765 15.6034 30.8059 15.5756C30.7958 15.5693 30.787 15.5629 30.7769 15.5566C30.787 15.4858 30.8147 15.5098 30.8349 15.4694C30.9181 15.3025 30.7945 14.9486 30.9118 14.7741C30.9597 14.7008 31.0858 14.6856 31.1425 14.6186ZM34.7877 14.6287C34.881 14.6262 34.939 14.6566 34.9705 14.716C34.9743 14.7324 34.9768 14.7476 34.9806 14.764C34.6175 14.9056 34.76 15.4631 34.132 15.3051C34.1283 15.2861 34.1257 15.2671 34.122 15.2469C34.3086 15.1028 34.3741 14.8487 34.5557 14.7059C34.6326 14.6806 34.7108 14.654 34.7877 14.6287ZM30.5739 14.812C30.6306 14.8133 30.6331 14.8184 30.6609 14.8411C30.5587 15.1331 30.7529 15.9005 30.2851 15.7791C30.2876 15.6653 30.2561 15.0813 30.3141 14.9865C30.362 14.9069 30.4856 14.8538 30.5739 14.812ZM35.3173 14.812C35.4131 14.8222 35.5278 14.8601 35.5783 14.9182C35.5745 14.9321 35.572 14.9448 35.5682 14.9574C35.5215 15.0156 35.4282 15.0573 35.3753 15.1116C35.1395 15.3544 35.1533 15.5478 34.6818 15.4403C34.6755 15.4214 34.6679 15.4024 34.6616 15.3822C34.9075 15.1989 35.0222 14.9549 35.3173 14.812ZM30.0153 15.0535C30.0594 15.0611 30.0569 15.0649 30.0821 15.0826C30.0884 15.3417 30.1691 16.2241 29.7644 16.0307C29.7707 15.9371 29.777 15.8436 29.7833 15.75C29.7568 15.5806 29.6799 15.3758 29.7934 15.2178C29.8678 15.1635 29.9409 15.1091 30.0153 15.0535ZM29.4265 15.3531C29.4555 15.3569 29.4845 15.3607 29.5135 15.3632C29.511 15.4251 29.5072 15.4858 29.5046 15.5465C29.5853 15.9055 29.7177 16.1874 29.3596 16.3783C29.2159 16.3442 29.3407 16.2961 29.3206 16.195C29.2298 15.7134 29.0835 15.7298 29.4265 15.3531ZM28.9158 15.6919C28.9347 15.6919 28.9549 15.6919 28.9738 15.6919C28.9801 15.6982 28.9864 15.7045 28.9927 15.7108C28.97 16.1267 29.3256 16.4023 28.9259 16.7171C28.907 16.7133 28.8868 16.7108 28.8679 16.707C28.849 16.6539 28.8767 16.6122 28.8578 16.5426C28.7582 16.1596 28.588 15.9991 28.9158 15.6919ZM35.8002 15.0737C35.9868 15.0674 36.0586 15.099 36.157 15.1698C36.1545 15.214 36.1494 15.2216 36.1368 15.2469C35.8279 15.2924 35.6615 15.9118 35.2214 15.6047C35.2214 15.5895 35.2214 15.573 35.2214 15.5566C35.2794 15.453 35.6791 15.1395 35.8002 15.0737ZM36.3587 15.3442C36.5315 15.3392 36.5958 15.3822 36.6966 15.4403C36.6929 15.4669 36.6903 15.4921 36.6866 15.5174C36.505 15.5756 35.9716 16.2152 35.722 15.8082C35.7195 15.7981 35.7157 15.7892 35.7132 15.7791C35.7775 15.7462 35.8418 15.7146 35.9061 15.6818C35.9704 15.6173 36.0347 15.5528 36.099 15.4896C36.1847 15.4365 36.2843 15.4074 36.3587 15.3442ZM36.9085 15.6729C37.0333 15.6691 37.1443 15.7159 37.2073 15.7791C37.2073 15.7955 37.2073 15.8107 37.2073 15.8271C37.1468 15.8916 36.6613 16.2203 36.5806 16.243C36.4773 16.2721 36.4293 16.2051 36.3776 16.1849C36.2843 16.1482 36.2453 16.1672 36.2339 16.0496C36.2427 16.0433 36.2528 16.037 36.2629 16.0307C36.2906 16.0104 36.3423 16.0205 36.3776 16.0016C36.4911 15.9422 36.5756 15.8158 36.6765 15.75C36.7509 15.702 36.8215 15.7096 36.9085 15.6729ZM37.3523 16.0597C37.5263 16.0547 37.5793 16.1052 37.6801 16.1659C37.689 16.2114 37.6877 16.2367 37.67 16.2721C37.38 16.3265 36.9223 16.8485 36.6866 16.3884C36.703 16.3631 36.6992 16.3644 36.7256 16.3492C36.969 16.2544 37.1127 16.1634 37.3523 16.0597ZM37.7659 16.4655C37.9853 16.4605 38.0344 16.5489 38.1618 16.6299C38.1618 16.6463 38.1618 16.6615 38.1618 16.6779C38.1517 16.6842 38.1429 16.6905 38.1328 16.6969C38.0937 16.7006 38.0559 16.7032 38.0168 16.707C37.6284 16.8397 37.5919 17.109 37.1304 16.803C37.1329 16.7714 37.1367 16.7386 37.1392 16.707C37.3889 16.6273 37.549 16.5629 37.7659 16.4655ZM38.0849 16.9294C38.3509 16.9219 38.424 16.9775 38.5476 17.1026C38.5476 17.1292 38.5476 17.1545 38.5476 17.181C38.5413 17.181 38.535 17.181 38.5287 17.181C38.4266 17.2202 38.3446 17.1987 38.2299 17.248C37.8478 17.4123 37.7747 17.4199 37.5162 17.1229C37.5187 17.1127 37.5225 17.1026 37.525 17.0938C37.7608 17.0382 37.926 17.0457 38.0849 16.9294ZM38.4795 17.4022C38.7115 17.3972 38.82 17.4958 38.9233 17.6159C38.917 17.6449 38.9107 17.674 38.9044 17.7031C38.7632 17.7183 38.2702 17.8662 38.1618 17.8282C38.0596 17.7916 37.9777 17.674 37.902 17.6058C37.9046 17.5362 37.9121 17.5413 37.9588 17.5185C38.1151 17.5653 38.3812 17.4705 38.4795 17.4022ZM38.7405 17.9243C39.028 17.9167 39.1604 18.0115 39.2613 18.186C39.2474 18.2113 39.2348 18.2378 39.2222 18.2631C39.1478 18.2568 39.0973 18.2163 39.0003 18.234C38.7292 18.2833 38.2753 18.4009 38.2299 18.0318C38.2324 18.028 38.2362 18.0242 38.2387 18.0217C38.2526 18.0027 38.24 18.0153 38.2576 18.0027C38.3522 17.9509 38.6195 17.9837 38.7405 17.9243ZM38.5287 18.4565C38.6106 18.459 38.6296 18.4919 38.6825 18.5045C38.7973 18.5324 38.9473 18.4704 39.0393 18.4565C39.2663 18.4211 39.5311 18.6196 39.5021 18.8143C39.4189 18.8143 39.3344 18.8143 39.2512 18.8143C38.8653 18.8661 38.5438 18.8067 38.4997 18.4856C38.5085 18.4755 38.5186 18.4666 38.5287 18.4565ZM38.7884 18.9887C38.8401 19.0077 38.8918 19.0266 38.9423 19.0456C39.323 19.1164 39.7126 18.904 39.7328 19.3945C39.7265 19.3945 39.7202 19.3945 39.7139 19.3945C39.6433 19.4198 39.5979 19.3667 39.5021 19.3654C39.1276 19.3616 38.7758 19.3882 38.7493 19.0456C38.7632 19.0266 38.7758 19.0077 38.7884 18.9887ZM39.0003 19.5095C39.3104 19.6789 39.7051 19.4741 39.8488 19.8483C39.8715 19.9077 39.9081 19.933 39.8778 20.0025C39.8009 20.0126 39.7883 19.9722 39.7328 19.9545C39.666 19.9545 39.5979 19.9545 39.5311 19.9545C39.1024 19.8888 39.1831 19.9229 38.9523 19.665C38.9473 19.5727 38.9536 19.5474 39.0003 19.5095ZM39.1062 20.0607C39.207 20.0695 39.3041 20.1441 39.3962 20.1669C39.4756 20.1707 39.5563 20.1732 39.637 20.177C39.7744 20.2212 40.0733 20.378 39.9736 20.6118C39.9673 20.6219 39.961 20.6308 39.9547 20.6409C39.8816 20.6118 39.8072 20.5828 39.7328 20.5537C39.4189 20.4829 39.2562 20.5423 39.1453 20.2731C39.1163 20.2035 39.0671 20.1669 39.1062 20.0607ZM39.2411 20.6308C39.3331 20.6472 39.4378 20.7243 39.521 20.7572C39.5853 20.7635 39.6496 20.7698 39.7139 20.7762C39.8791 20.8356 40.0859 21.005 40.0417 21.2401C40.0291 21.2527 40.0165 21.2654 40.0026 21.2793C39.9295 21.2401 39.8551 21.2009 39.782 21.163C39.7038 21.1529 39.6269 21.144 39.55 21.1339C39.4113 21.0859 39.2915 20.9936 39.2121 20.8824C39.207 20.7838 39.1831 20.6839 39.2411 20.6308ZM39.2512 21.1731C39.3331 21.1933 39.3823 21.2742 39.4542 21.2983C39.7379 21.3956 40.1186 21.4765 40.0316 21.9076C40.0127 21.9101 39.9938 21.9139 39.9736 21.9164C39.7719 21.7533 39.0267 21.5978 39.2512 21.1731ZM39.2613 21.7521C39.3218 21.7976 39.3836 21.8431 39.4441 21.8873C39.632 21.9923 39.8564 22.0251 39.9648 22.2072C40.0165 22.2944 40.0077 22.5194 39.9068 22.5358C39.7618 22.3235 39.0419 22.2426 39.2222 21.8014C39.2348 21.7849 39.2474 21.7685 39.2613 21.7521ZM28.4443 16.0686C28.5401 16.1103 28.4758 16.1672 28.5111 16.2721C28.6132 16.573 28.8213 16.7019 28.5792 17.0255C28.535 17.0837 28.5565 17.1216 28.4531 17.0938C28.4115 16.7803 28.2009 16.621 28.2703 16.243C28.322 16.1798 28.3825 16.1217 28.4443 16.0686ZM27.9714 16.4946C27.9903 16.5009 28.0093 16.5072 28.0294 16.5136C28.1013 16.8448 28.5313 17.2746 28.1253 17.5286C28.1089 17.5223 28.0937 17.516 28.0773 17.5097C27.9929 17.0761 27.5894 16.9231 27.9714 16.4946ZM27.5377 16.9876C27.5667 16.9901 27.5957 16.9939 27.6247 16.9964C27.6764 17.2594 28.187 17.7423 27.7886 17.9926C27.713 17.9445 27.7155 17.8611 27.6726 17.7802C27.5717 17.5881 27.201 17.248 27.5377 16.9876ZM26.1873 19.7712C26.1974 19.7712 26.2075 19.7712 26.2163 19.7712C26.2856 19.8268 26.3361 19.9343 26.4193 19.9735C26.6236 20.0721 27.0018 20.2642 26.8051 20.5929C26.7786 20.5954 26.7534 20.5992 26.727 20.6017C26.5492 20.3464 26.1432 20.34 26.1003 19.9444C26.1394 19.8989 26.1482 19.8154 26.1873 19.7712ZM26.0524 20.3893C26.0751 20.3957 26.0978 20.402 26.1205 20.4096C26.2302 20.67 26.9602 20.6245 26.766 21.163C26.7433 21.163 26.7206 21.163 26.6992 21.163C26.5214 20.9582 25.7838 20.8621 26.0524 20.3893ZM26.0045 21.0088C26.0877 21.0593 26.1722 21.1112 26.2554 21.163C26.4886 21.2426 26.9047 21.3855 26.708 21.7432C26.6891 21.7394 26.6702 21.7369 26.65 21.7331C26.4269 21.5726 26.1268 21.5068 25.9654 21.2793C25.9616 21.1984 25.9414 21.0973 25.9755 21.0378C25.9881 21.0201 25.9906 21.0214 26.0045 21.0088ZM25.9944 21.6269C26.0738 21.6484 26.1406 21.7369 26.2264 21.7622C26.471 21.8342 26.964 21.9379 26.766 22.3222C26.7232 22.3209 26.7143 22.3159 26.6891 22.3032C26.679 22.2779 26.6702 22.2514 26.6601 22.2261C26.3399 22.2109 26.1369 22.0542 25.9654 21.8873C25.9603 21.814 25.9402 21.7104 25.9755 21.656C25.9818 21.6459 25.9881 21.637 25.9944 21.6269ZM26.0436 22.2843C26.1268 22.2919 26.1243 22.3348 26.1785 22.3513C26.2554 22.3551 26.3323 22.3576 26.4092 22.3614C26.6778 22.4296 26.8669 22.5282 26.911 22.8253C26.901 22.838 26.8909 22.8506 26.882 22.8645C26.8013 22.8544 26.7749 22.7975 26.708 22.7861C26.4647 22.7469 25.8544 22.6724 26.0234 22.2944C26.0297 22.2906 26.036 22.2868 26.0436 22.2843ZM26.1293 22.8835C26.1886 22.8974 26.1974 22.9378 26.2453 22.9505C26.5189 23.0288 26.8631 22.9138 26.9779 23.1439C26.9816 23.1868 26.9842 23.2286 26.988 23.2703C27.0043 23.3183 27.0346 23.3183 27.027 23.3866C27.0195 23.3891 27.0132 23.3929 27.0069 23.3954C26.9337 23.3891 26.9047 23.3537 26.8631 23.3373C26.8177 23.3373 26.7723 23.3373 26.727 23.3373C26.4042 23.2855 26.2693 23.3196 26.1495 23.0668C26.1205 23.0061 26.0726 22.9783 26.1104 22.8936C26.1167 22.8898 26.123 22.886 26.1293 22.8835ZM26.3033 23.5016C26.3714 23.5143 26.3676 23.5534 26.4092 23.5699C26.5857 23.5598 26.7635 23.5509 26.94 23.5408C27.0813 23.585 27.1556 23.7329 27.2389 23.8404C27.2389 23.9087 27.2351 23.9049 27.1897 23.9276C26.7421 23.7481 26.4823 24.1349 26.2642 23.5408C26.2781 23.5282 26.2907 23.5155 26.3033 23.5016ZM26.5063 24.0818C26.6147 24.0844 26.737 24.1488 26.853 24.121C27.2136 24.0325 27.3776 24.1438 27.4696 24.4586C27.0649 24.4333 26.7295 24.5344 26.5441 24.2462C26.5088 24.1918 26.466 24.1678 26.5063 24.0818ZM27.2767 24.6039C27.5793 24.5976 27.6285 24.7202 27.7684 24.8643C27.7659 24.8972 27.7621 24.9288 27.7596 24.9617C27.7394 24.9617 27.7205 24.9617 27.7016 24.9617C27.4671 24.815 27.1128 25.1399 26.8631 24.8643C26.8039 24.8011 26.7459 24.7834 26.756 24.6722C26.9526 24.652 27.1216 24.6798 27.2767 24.6039ZM27.6436 25.107C27.8933 25.1007 27.9727 25.1955 28.0874 25.3194C28.0836 25.3422 28.0799 25.3649 28.0773 25.3864C28.0673 25.3902 28.0584 25.3927 28.0483 25.3965C28.003 25.3927 27.9588 25.3902 27.9134 25.3864C27.6423 25.4357 27.4406 25.6165 27.1809 25.3965C27.114 25.3409 27.0775 25.3485 27.0649 25.2322C27.075 25.2259 27.0838 25.2196 27.0939 25.2132C27.2048 25.1488 27.5175 25.1842 27.6436 25.107ZM28.0773 25.5419C28.2602 25.5457 28.3711 25.6557 28.4531 25.7644C28.4506 25.777 28.4468 25.7897 28.4443 25.8023C28.3989 25.8541 28.3295 25.8074 28.2513 25.8314C27.8479 25.9565 27.7886 26.1171 27.4116 25.8023C27.4141 25.7518 27.4103 25.7555 27.4406 25.7353C27.6196 25.6696 27.9525 25.643 28.0773 25.5419ZM28.4531 25.9856C28.6599 25.978 28.8326 26.0412 28.8679 26.1993C28.767 26.2561 28.646 26.2435 28.53 26.3054C28.2627 26.447 28.0231 26.5305 27.8163 26.2473C27.829 26.2182 27.8226 26.2258 27.8453 26.2081C27.9134 26.1993 27.9803 26.1891 28.0483 26.179C28.1757 26.1183 28.3056 26.0513 28.4531 25.9856ZM39.1743 22.3222C39.2978 22.3386 39.3218 22.4385 39.405 22.4865C39.6748 22.6433 39.9446 22.7153 39.8387 23.135C39.8173 23.1375 39.7946 23.1413 39.7719 23.1439C39.5954 22.8443 39.0154 22.8759 39.1743 22.3222ZM39.1163 22.8733C39.1263 22.8733 39.1352 22.8733 39.1453 22.8733C39.2121 22.929 39.2499 23.0212 39.3193 23.0769C39.4403 23.1742 39.98 23.494 39.6269 23.7342C39.5286 23.7102 39.4743 23.5737 39.3962 23.5218C39.2083 23.3967 38.8275 23.1679 39.1163 22.8733ZM38.9233 23.4245C38.9561 23.4283 38.9876 23.4308 39.0204 23.4346C39.178 23.7911 39.6912 23.8366 39.4252 24.3524C39.4214 24.3524 39.4189 24.3524 39.4151 24.3524C39.4025 24.3524 39.3899 24.3524 39.376 24.3524C39.2348 24.1059 38.6762 23.8265 38.9233 23.4245ZM38.7203 23.9466C38.7405 23.9504 38.7594 23.9529 38.7783 23.9567C38.859 24.0111 38.878 24.1274 38.9423 24.1981C39.2108 24.4914 39.2915 24.4257 39.1743 24.9035C39.1616 24.9073 39.1478 24.9098 39.1352 24.9136C39.12 24.9073 39.1036 24.8997 39.0873 24.8934C38.9523 24.5761 38.4543 24.3878 38.7203 23.9466ZM38.4505 24.4687C38.4707 24.4687 38.4896 24.4687 38.5085 24.4687C38.6359 24.6684 39.1793 25.15 38.8174 25.4446C38.8048 25.4446 38.7922 25.4446 38.7783 25.4446C38.6258 25.1298 38.2084 24.8959 38.4505 24.4687ZM38.1807 24.9326C38.2248 24.9351 38.2324 24.9389 38.2576 24.9516C38.303 25.2992 38.8515 25.5735 38.4316 25.9477C38.3837 25.9426 38.3938 25.949 38.3736 25.9186C38.3648 25.8706 38.3547 25.8213 38.3446 25.7732C38.2601 25.6329 38.0029 25.4307 38.0269 25.2132C38.0382 25.1058 38.1479 25.0224 38.1807 24.9326ZM34.9516 14.1357C34.9541 14.1421 34.9579 14.1484 34.9604 14.1547C34.9642 14.1484 34.968 14.1421 34.9705 14.1357C34.9642 14.1357 34.9579 14.1357 34.9516 14.1357Z" fill="#D7B56D"/>
<path fill-rule="evenodd" clip-rule="evenodd" d="M14.8003 31.5339L15.1079 31.7109L15.4143 31.8892V32.2444V32.5996L15.1079 32.7766L14.8003 32.9548L14.4939 32.7766L14.1875 32.5996V32.2444V31.8892L14.4939 31.7109L14.8003 31.5339Z" fill="#D7B56D"/>
<path fill-rule="evenodd" clip-rule="evenodd" d="M16.784 31.0791L17.0904 31.2573L17.3967 31.4343V31.7895V32.1448L17.0904 32.323L16.784 32.5L16.4763 32.323L16.1699 32.1448V31.7895V31.4343L16.4763 31.2573L16.784 31.0791Z" fill="#D7B56D"/>
<path d="M37.7106 12.73C36.4334 12.213 34.7514 11.9538 33.063 11.9538C31.376 11.9538 29.694 12.213 28.4155 12.73L10.0774 20.1542C8.83922 20.656 7.70318 21.6749 6.87227 22.9087C6.04388 24.1412 5.52692 25.5798 5.52692 26.9198V39.1678C5.52692 40.5078 6.04388 41.9476 6.87227 43.1802C7.70318 44.4139 8.83922 45.4328 10.0774 45.9347L28.4155 53.3589C29.6927 53.8759 31.376 54.1338 33.063 54.1338C34.7514 54.1338 36.4334 53.8759 37.7106 53.3589L56.0487 45.9347C57.2869 45.4328 58.4242 44.4139 59.2538 43.1802C60.0822 41.9476 60.5992 40.5091 60.5992 39.1678V26.9198C60.5992 25.5798 60.0822 24.1412 59.2538 22.9087C58.4242 21.6749 57.2869 20.656 56.0487 20.1542L37.7106 12.73ZM33.063 11.3218C34.8245 11.3218 36.5897 11.5961 37.9451 12.1447L56.282 19.5689C57.6424 20.1201 58.8793 21.2249 59.7758 22.556C60.671 23.8871 61.2296 25.4509 61.2296 26.9198V39.1678C61.2296 40.6367 60.671 42.2017 59.7758 43.5329C58.8806 44.864 57.6424 45.9688 56.282 46.52L37.9451 53.9429C36.5897 54.4915 34.8245 54.7658 33.063 54.7658C31.3029 54.7658 29.5364 54.4915 28.1822 53.9429L9.84414 46.52C8.48366 45.9688 7.24675 44.864 6.35027 43.5329C5.45505 42.2017 4.89648 40.6367 4.89648 39.1678V26.9198C4.89648 25.4509 5.45505 23.8871 6.35027 22.556C7.24675 21.2249 8.48492 20.1201 9.84414 19.5689L28.1822 12.1447C29.5364 11.5961 31.3029 11.3218 33.063 11.3218Z" fill="#FEFEFE"/>
</svg>
