<?xml version="1.0" encoding="utf-8"?>
<!-- Generator: Adobe Illustrator 19.2.1, SVG Export Plug-In . SVG Version: 6.00 Build 0)  -->
<svg version="1.1" id="Слой_1" xmlns="http://www.w3.org/2000/svg" xmlns:xlink="http://www.w3.org/1999/xlink" x="0px" y="0px"
	 viewBox="0 0 1163.3 749.5" style="enable-background:new 0 0 1163.3 749.5;" xml:space="preserve">
<style type="text/css">
	.st0{fill:#627856;stroke:#9CBE99;stroke-width:9.6228;}
	.st1{fill:#0195A8;}
	.st2{fill:none;stroke:#9CBE99;stroke-width:5.142;}
	.st3{fill:none;stroke:#9CBE99;stroke-width:5.7737;stroke-linecap:round;stroke-linejoin:round;}
	.st4{fill:#1B2615;}
	.st5{fill:none;stroke:#1B2615;stroke-width:10.2841;stroke-linejoin:round;}
	.st6{fill:none;stroke:#1B2615;stroke-width:1.714;stroke-linejoin:round;}
	.st7{fill:#1B2615;stroke:#1B2615;stroke-width:10.2841;stroke-linejoin:round;}
</style>
<path class="st0" d="M24.6,348.8c10.8,7.9,23.3,13.6,33.4,22.4C256.8,544.2,674.7,839,813.8,715.1l235.5-167.2
	c22.2-15.7,28.6-36.9,32.4-63.8c5-35.1,44.5-76.2,39.6-111.4c-5.2-37.9-2.1-74.1,25.3-78.7C1214,282.8,974.7,103,925.5,55.7
	l-26.4-25.3c-14-13.4-31.5-22.2-50.8-23.6C645.3-7.8,117.4,55.3,18.8,258.9C6.5,277.4-7.8,325,24.6,348.8z"/>
<path class="st1" d="M692.5,648.4c16,7.4,34.1,8.7,51,3.6l8.3-2.5c5-1.5,9.7-4.2,13.5-7.9l4.5-4.3c7.4-7,9.8-17.8,6.1-27.3
	c-1.7-4.4-4.7-8.2-8.5-11c-14.2-10.4-32.3-23.9-49.3-37.1c-33.5-26.1-78.2-61.6-115.6-81.8l-64.2-34.7c-1.6-0.8-3.2-1.5-4.9-2.1
	l-23.7-7.6c-9.8-3.1-12.7-15.6-5.2-22.7c0.7-0.7,1.4-1.5,2-2.3l16.5-24.8c5.8-8.7,10.2-18.3,12.9-28.5l6.5-24.2
	c2.6-9.8,3.7-20,3.1-30.1l-0.7-12.9c-0.5-9.9-2.5-19.7-6.4-28.9c-14.5-33.7-41.1-82.9-68.2-95.5c-4.9-2.3-10.3-3.6-15.6-5
	c-10.8-2.8-27.8-5.5-46-3.8c-8.8,0.8-17.1,4-24.8,8.1l-83,43.3c-4.3,2.2-9.1,3.3-14,3.1c-7.1-0.3-13.8-3.4-18.7-8.6l-3-3.2
	c-6.9-7.3-16.4-11.8-26.5-11.2c-57.2,3-155.3,30.5-180.5,110.9c-5.4,17.1,4.7,34.5,20.5,42.9c7.3,3.9,15.5,5.7,23.8,5.2l28.2-1.6
	c15.3-0.9,30.6,1.9,44.6,8.1l16.6,7.3c9.2,4.1,19,6.7,29,7.7l31.4,3.3c7.3,0.8,14.6,0.7,21.8-0.2l22.5-2.8c1.2-0.2,2.4-0.6,3.4-1.2
	l2.9-1.8c5.4-3.4,12.2,1.6,10.6,7.8c-0.6,2.4,0,5,1.7,6.7c41,42.4,123.6,137.4,161,151.8c16.5,6.3,31.7,16.3,44.9,23.4
	c21,11.4,56.8,13,75.3,28l32.4,29.6c7.2,6.6,15.4,12.1,24.3,16.2L692.5,648.4z"/>
<path class="st2" d="M807,426.3l-8.6-24.2"/>
<path class="st3" d="M847.3,421.5l21.5-35.7l32.4-73.2"/>
<path class="st3" d="M972.7,404.8l-70.7-92.7l-18.2-22.7"/>
<path class="st3" d="M790.5,193.8L790.5,193.8c-2.8,2.2-5.9,4-9.2,5.4l-1.5,0.6c-6.9,2.8-13.1,7.2-17.9,13
	c-11,13.4-25.4,32.7-32.5,47.5c-2.9,6.1-6,12.3-10.5,17.3l0,0 M718.9,277.7l-12.2,5c-3.7,1.5-7.2,3.4-10.5,5.6l-10.2,6.9
	c-5.3,3.6-9.9,8-13.7,13.1l-3.3,4.4c-3.6,4.8-6.3,10.1-8.1,15.8l-0.9,2.9c-2.1,6.9-2.3,14.3-0.6,21.4l0,0c1.4,5.6,4,10.9,7.6,15.4
	l1.4,1.8c2.6,3.2,5.6,6,9.1,8.2l0,0c6.5,4.2,14.2,6.3,21.9,6l0,0c7-0.2,13.9-2.4,19.7-6.2l3.1-2c3.4-2.2,6.4-4.9,9-8l1.1-1.4
	c5.3-6.5,8.1-14.6,7.9-23l0,0c-0.1-2.8-0.5-5.7-1.3-8.4l-11.5-40.7C725.9,288.4,722.9,282.7,718.9,277.7L718.9,277.7z"/>
<path class="st3" d="M543.4,178.1l122.5-37.5c16.1-4.9,33.3-5.2,49.5-0.7l0,0c12.4,3.4,23.9,9.4,33.7,17.7l67.3,56.7
	c3.7,3.1,7.1,6.5,10.3,10.1l57.2,65"/>
<path class="st3" d="M775.3,177.8l16.6-28c1.2-2,2.5-3.9,4-5.7l0,0c2.8-3.4,6-6.5,9.6-9l54.9-39.3"/>
<path class="st3" d="M837.4,198.6l-42-52.5"/>
<path class="st3" d="M882,288.5l231.5,53.7"/>
<path class="st3" d="M81.3,358.6c12.2,7.2,46.3,12.8,66.9,15.7c10.8,1.5,21.3,4.5,31.1,9.1l98.6,47.2L655,665.9
	c4.1,2.6,8.1,5.4,12.8,6.8c15.8,4.8,52.7,7.6,72.7,1.4l14.6-4.5c11.7-3.6,22.6-9.5,31.9-17.4l0,0c6.7-5.6,13.5-11.3,18.6-18.4
	c2-2.8,3.2-5.9,2.3-9l-3.2-10.5c-2.4-8-5.9-15.6-10.3-22.7l-3.8-6.1c-3-4.9-6.4-9.4-10.3-13.6c-37.3-40.3-111.6-113.6-136.4-128.1
	c-32.6-19-52.7-61-51-58.8c1.2,1.5-4-26.7-5.2-44.9c-0.4-5.4-0.6-10.8-1.4-16.2l-9.7-69.4c-1.3-9.3-4-18.4-7.9-27l-11.8-25.7
	c-3.2-7-7.2-13.6-12.3-19.4c-24.7-28.1-69.2-66.6-117.4-69.4c-56.8-3.3-52.6-3.8-99.2,19.6c-6,3-11.7,6.6-16.9,10.8l-31.8,25.2"/>
<path class="st3" d="M801,640.7l-5.3-17.2c-2.5-8.2-6-16-11.1-22.8c-28.1-37.6-76.3-72.7-109.2-94.8c-36-24.1-81.4-65.7-118.1-75.8
	c-13.4-2.4-46.8-7.4-24.9-32.8c24.8-28.7,23.6-56.6,28.4-68.3c1.8-4.5,0.8-13-0.6-21.5c-2.5-14.9-4.8-30.3-9.2-44.7l0,0
	c-1.4-4.5-3.1-8.8-5.2-13l-18.6-37.8c-3.8-7.7-8.6-14.9-14.3-21.3c-24-26.5-55.5-55.2-117.5-47.8c-8.2,1-16.1,3.7-23.6,7.2
	l-47.7,22.4c-13.7,6.4-29.6,6.1-43-1.1l0,0c-4.4-2.3-9-4-13.9-4.7c-57.2-7.7-162,7.7-221.7,106.1c-3.7,6.2-6,13.1-7.2,20.2l-2,12.4
	c-1.4,9,0.9,18.2,6.3,25.5l0,0c2.3,3.1,5.1,5.7,8.3,7.8l30,19.8"/>
<path class="st3" d="M757.7,550.7l53.4-55.4l34.9-27.9c3.7-2.9,7.2-6,10-9.9c7.9-10.9,13-26.4-4.5-33.6c-8.3-3.4-17.6-2.5-26.4-0.9
	c-33.5,6.2-95.1,20.6-151.3,43"/>
<path class="st4" d="M618.1,306.7c-1.3,3.5,0.4,7.5,4,8.8l15.6,5.9c3.5,1.3,7.5-0.4,8.8-4l8.9-23.6c1.3-3.5-0.4-7.5-3.9-8.8l-15.5-6
	c-3.5-1.4-7.5,0.4-8.9,4L618.1,306.7z"/>
<path class="st4" d="M562.8,435.4c-1.9-1-4.2-0.3-5.2,1.6l-4.4,8.3c-1,1.9-0.3,4.2,1.6,5.2l12.5,6.7c1.9,1,4.2,0.3,5.2-1.6l4.5-8.2
	c1-1.9,0.3-4.2-1.6-5.2L562.8,435.4z"/>
<path class="st4" d="M624.7,282.1c1.9-4.9,7.3-7.3,12.2-5.4l15.5,6c4.8,1.9,7.3,7.3,5.4,12.1l-8.9,23.6c-1.8,4.9-7.3,7.3-12.2,5.5
	l-15.6-5.9c-4.9-1.8-7.3-7.3-5.5-12.2L624.7,282.1z M635.1,281.5c-2.2-0.9-4.7,0.3-5.5,2.5l-9,23.7c-0.8,2.2,0.3,4.7,2.5,5.5
	l15.6,5.9c2.2,0.8,4.7-0.3,5.5-2.5l8.9-23.6c0.8-2.2-0.3-4.7-2.5-5.5L635.1,281.5z"/>
<path class="st4" d="M608.5,370.4l34.3,12.3c1.4,0.5,2.7-0.7,2.3-2.1l-13.8-38.9c-0.2-0.5-0.1-1.1,0.3-1.5l5.5-6.7
	c0.8-1,0.2-2.4-1.1-2.7l-20.2-4c-0.7-0.1-1.5,0.2-1.8,0.7l-6.8,10.4c-0.2,0.3-0.3,0.6-0.3,1L608.5,370.4z"/>
<path class="st4" d="M611.9,325.9c0.9-1.2,2.5-1.8,4.1-1.6l0.3,0.1l20.2,4c3.2,0.6,4.6,4.2,2.6,6.6l-5.2,6.4l13.7,38.5
	c1.2,3.3-2.2,6.4-5.7,5.2l-34.3-12.3c-1-0.4-1.7-1.2-1.7-2.2l-1.7-31.5c0-0.8,0.2-1.7,0.6-2.4l6.8-10.4L611.9,325.9z M609.5,339.1
	l1.6,29.6l30.9,11.1l-13.2-37.2l-0.1-0.2c-0.4-1.3-0.1-2.6,0.8-3.6l4.6-5.7l-18.2-3.6L609.5,339.1z"/>
<path class="st4" d="M608.5,370l6.8,22.1c0.5,1.6,1.6,3,3.1,3.9l71.4,41.4c1.2,0.7,2.6,1,4,1l23.5-0.9l-1.6-33.1l-34-3.3
	c-1-0.1-2.1-0.4-3-0.9l-36.2-20.7c-1.3-0.7-1.8-2.2-1.3-3.5c0.7-1.8-0.6-3.8-2.7-4L608.5,370z"/>
<path class="st4" d="M606.4,368.4c0.5-0.6,1.4-1,2.2-0.9l30.2,2c3.8,0.3,6.4,4,5,7.4c-0.1,0.2,0,0.4,0.2,0.5l36.2,20.7
	c0.6,0.3,1.2,0.5,1.8,0.6l34,3.3c1.3,0.1,2.3,1.2,2.4,2.4l1.6,33.1c0.1,1.4-1.1,2.5-2.5,2.6l-23.5,0.9c-1.9,0.1-3.8-0.4-5.5-1.4
	L617,398.1c-2.1-1.2-3.6-3.1-4.3-5.3l-6.8-22.1C605.7,369.9,605.9,369,606.4,368.4z M617.8,391.4c0.3,1,1,1.9,2,2.4l71.4,41.4
	c0.8,0.4,1.6,0.7,2.5,0.6l20.9-0.8l-1.4-28.5l-31.7-3.1c-1.4-0.1-2.8-0.6-4.1-1.3l-36.2-20.7c-2.4-1.4-3.4-4.1-2.4-6.6
	c0.1-0.3-0.1-0.5-0.4-0.6l-26.4-1.7L617.8,391.4z"/>
<path class="st4" d="M681.2,451.3l41,27.1c23.9-15.9,29.6,5.7,27.7,15.5l13.8,3.1c11.8-11.8,81-38.2,81.2-42.5l-20.1-13.4l-75,25.4
	l-31.5-8l-16-10.2L681.2,451.3z"/>
<path class="st4" d="M749.8,493.9c1.9-9.7-3.7-31.3-27.7-15.5C720.1,488.7,725.5,511.1,749.8,493.9z"/>
<path class="st5" d="M722.2,478.4l-41-27.1l21.1-3.1l16,10.2l31.5,8l75-25.4l20.1,13.4c-0.3,4.3-69.4,30.7-81.2,42.5l-13.8-3.1
	 M722.2,478.4c23.9-15.9,29.6,5.7,27.7,15.5 M722.2,478.4c-2.1,10.3,3.3,32.7,27.7,15.5"/>
<path class="st1" d="M757.2,527.5c5.1,3.5,11.4-2.1,16.3-6c7.9-6.3,17.7-20,7.7-20.2c-2.3-0.1-5.4,0.4-9.5,1.5
	c-3.1,1.2-16.8,15.5-16.9,18.9c0,0.1,0,0.2,0,0.3C754.8,524.8,755.7,526.5,757.2,527.5z"/>
<path class="st4" d="M718.3,439l-2.9-35.9l29.8-5.7l7.3,24l2.1,7L718.3,439z"/>
<path class="st4" d="M754.6,428.3l25.6-6.8c3.5-0.9,5.6-4.2,4.9-7.7l-4.1-19.7c-0.8-3.9-5-6.4-9-5.2l-7.4,2.1l-19.5,6.2L754.6,428.3
	z"/>
<path class="st6" d="M754.6,428.3l25.6-6.8c3.5-0.9,5.6-4.2,4.9-7.7l-4.1-19.7c-0.8-3.9-5-6.4-9-5.2l-7.4,2.1l-19.5,6.2
	 M754.6,428.3l-9.5-30.9 M754.6,428.3l-2.1-7l-7.3-24 M754.6,428.3L718.3,439l-2.9-35.9l29.8-5.7"/>
<path class="st7" d="M852.4,191.6l12.3-9.9L831,139.7l-10.3,0.5l-2,9.4L852.4,191.6z"/>
<path class="st7" d="M977.5,391.6l12.3-9.9L973,360.7l-12.3,9.9L977.5,391.6z"/>
<path class="st4" d="M819.5,604.4l2.9-5.4c0.9-1.7,3-2.3,4.6-1.4l6.8,3.7c1.7,0.9,2.3,3,1.4,4.6l-2.9,5.4c-0.9,1.7-3,2.3-4.6,1.4
	l-6.8-3.7C819.2,608.1,818.6,606.1,819.5,604.4z"/>
<path class="st4" d="M841.6,615.2l2.6-5.2c0.8-1.7,2.9-2.4,4.6-1.6l6.6,3.2c1.7,0.8,2.4,2.9,1.6,4.6l-2.6,5.2
	c-0.8,1.7-2.9,2.4-4.6,1.6l-6.6-3.2C841.5,619,840.8,616.9,841.6,615.2z"/>
<path class="st4" d="M826.5,589.3l2.9-5.4c0.9-1.7,3-2.3,4.6-1.4l6.8,3.7c1.7,0.9,2.3,3,1.4,4.6l-2.9,5.4c-0.9,1.7-3,2.3-4.6,1.4
	l-6.8-3.7C826.2,593.1,825.6,591,826.5,589.3z"/>
<path class="st4" d="M861.7,606.8l2.6-5.2c0.8-1.7,2.9-2.4,4.6-1.6l1.6,0.8c1.7,0.8,2.4,2.9,1.6,4.6l-2.6,5.2
	c-0.8,1.7-2.9,2.4-4.6,1.6l-1.6-0.8C861.6,610.6,860.9,608.5,861.7,606.8z"/>
<path class="st4" d="M821.5,633.6l2-3.6c0.9-1.7,3-2.3,4.6-1.4l6.3,3.4c1.7,0.9,2.3,3,1.4,4.6l-2,3.6c-0.9,1.7-3,2.3-4.6,1.4
	l-6.3-3.4C821.2,637.3,820.6,635.2,821.5,633.6z"/>
<path class="st4" d="M835.1,643.8l5-9.2c0.9-1.7,3-2.3,4.6-1.4l5.5,3c1.7,0.9,2.3,3,1.4,4.6l-5,9.2c-0.9,1.7-3,2.3-4.6,1.4l-5.5-3
	C834.8,647.5,834.2,645.4,835.1,643.8z"/>
<path class="st4" d="M846.8,654.9l5-9.2c0.9-1.7,3-2.3,4.6-1.4l2.8,1.5c1.7,0.9,2.3,3,1.4,4.6l-5,9.2c-0.9,1.7-3,2.3-4.6,1.4
	l-2.8-1.5C846.5,658.7,845.9,656.6,846.8,654.9z"/>
<path class="st3" d="M803.5,613.5l6-0.1c5.7,1.6,14.1,4.4,22.9,8 M870,644.2c-7.6-8.9-23.2-17-37.6-22.8 M832.4,621.3l16.4-33.4
	c0.7-0.9,2.3-2.3,3.6-0.3c9.9,4.4,18.2,7.3,21.1,8.3"/>
</svg>
