<svg width="66" height="66" viewBox="0 0 66 66" fill="none" xmlns="http://www.w3.org/2000/svg">
<path fill-rule="evenodd" clip-rule="evenodd" d="M61.9628 21.895V44.0896C61.9628 45.9907 62.2476 47.7957 61.2413 49.5394C60.2312 51.2945 58.5262 51.9359 56.8743 52.873C50.5669 56.4524 44.3012 60.1086 38.0811 63.8454C36.4445 64.8286 35.028 66.0038 33.004 66C31.0028 65.9923 29.594 64.8248 27.9611 63.8723L9.0768 52.8461C7.45532 51.9013 5.77309 51.2599 4.76678 49.5278C3.76048 47.7881 4.03389 45.9868 4.03389 44.0896V21.895C4.03389 19.9939 3.76048 18.1966 4.76678 16.4568C5.77309 14.7247 7.45532 14.0833 9.0768 13.1385L27.9611 2.11231C29.5902 1.15985 31.0028 0 33.0002 0C34.9939 0 36.4065 1.15985 38.0394 2.11231L56.9199 13.1385C58.5414 14.0833 60.2274 14.7247 61.2299 16.4568C62.2362 18.1966 61.9628 19.9939 61.9628 21.895Z" fill="#898989"/>
<path fill-rule="evenodd" clip-rule="evenodd" d="M59.6788 21.895C59.6788 20.6161 59.9294 18.7765 59.261 17.6243C58.5965 16.4798 56.8725 15.777 55.7789 15.1395L36.8983 4.11323C35.7971 3.47186 34.3237 2.31201 33.0022 2.31201C31.6769 2.31201 30.2036 3.47186 29.1023 4.11323L10.2218 15.1395C9.12815 15.777 7.40414 16.4798 6.7434 17.6243C6.07506 18.7765 6.32189 20.6161 6.32189 21.895V44.0896C6.32189 45.3685 6.07506 47.2081 6.7434 48.3603C7.40414 49.5048 9.12815 50.2076 10.2218 50.8451L29.1023 61.8714C30.2074 62.5166 31.6845 63.6841 33.0136 63.688C34.3541 63.6918 35.8123 62.5204 36.9173 61.8599C43.1526 58.1115 49.4334 54.4437 55.7599 50.8567C56.8725 50.2268 58.6003 49.5394 59.2686 48.3757C59.9332 47.2197 59.6788 45.3723 59.6788 44.0896V21.895Z" fill="#3A2F1B"/>
<path d="M17.6804 37.6145H24.3942V35.1489H14.9805V47.5577H20.6613C23.498 47.5577 25.2334 46.1559 25.2334 43.6212C25.2334 41.3015 23.6916 39.7768 20.9234 39.7768H17.6804V37.6145ZM20.6423 42.0427C21.9221 42.0427 22.5372 42.5573 22.5372 43.5136C22.5372 44.5967 21.9221 45.0921 20.6613 45.0921H17.6804V42.0427H20.6423ZM26.4106 47.5577H29.1599L30.2839 44.7733H35.4711L36.5913 47.5577H39.4128L34.1572 35.0605H31.6661L26.4106 47.5577ZM31.2446 42.3614L32.8775 38.3404L34.5065 42.3614H31.2446ZM41.3076 47.5577H44.0038V43.8362H46.0544C48.8074 43.8362 51.0175 42.3461 51.0175 39.4733C51.0175 36.904 49.2441 35.1489 46.3202 35.1489H41.3076V47.5577ZM44.0038 41.4051V37.6145H46.0923C47.4404 37.6145 48.2834 38.2674 48.2834 39.4926C48.2834 40.591 47.4936 41.4051 46.1455 41.4051H44.0038Z" fill="#D4B26F"/>
<path fill-rule="evenodd" clip-rule="evenodd" d="M33.0014 9.86621C37.1899 9.86621 40.581 13.2958 40.581 17.532C40.581 21.7643 37.1899 25.1977 33.0014 25.1977C28.8129 25.1977 25.4219 21.7643 25.4219 17.532C25.4219 13.2958 28.8129 9.86621 33.0014 9.86621ZM33.0014 12.5162L30.2825 15.266L30.4192 15.4043C30.9964 15.0049 31.6572 14.7744 32.3293 14.7168L29.3787 17.6971L29.9104 18.2386C30.5635 17.6702 31.323 17.29 32.1166 17.1018L28.6534 20.6083L28.8661 20.8272C31.247 19.1911 34.4672 19.337 36.6963 21.2727L37.3494 20.6083L33.7647 16.9789C34.6457 17.0519 35.5115 17.3515 36.271 17.8776L36.4456 17.6971L33.5824 14.8013C34.2052 14.9434 34.7976 15.2392 35.3102 15.6808L35.7203 15.266L33.0014 12.5162Z" fill="#D7B56D"/>
</svg>
