<svg width="66" height="66" viewBox="0 0 66 66" fill="none" xmlns="http://www.w3.org/2000/svg">
<path fill-rule="evenodd" clip-rule="evenodd" d="M61.9628 21.895V44.0896C61.9628 45.9907 62.2476 47.7957 61.2413 49.5394C60.2312 51.2945 58.5262 51.9359 56.8743 52.873C50.5669 56.4524 44.3012 60.1086 38.0811 63.8454C36.4445 64.8286 35.0242 66.0038 33.004 66C31.0028 65.9923 29.594 64.8248 27.9611 63.8723L9.0768 52.8461C7.45532 51.9013 5.77309 51.2599 4.76678 49.5278C3.76048 47.7881 4.03389 45.9868 4.03389 44.0896V21.895C4.03389 19.9939 3.76048 18.1966 4.76678 16.4568C5.77309 14.7247 7.45532 14.0833 9.0768 13.1385L27.9611 2.11231C29.5902 1.15985 31.0028 0 33.0002 0C34.9939 0 36.4065 1.15985 38.0394 2.11231L56.9199 13.1385C58.5414 14.0833 60.2274 14.7247 61.2299 16.4568C62.2362 18.1966 61.9628 19.9939 61.9628 21.895Z" fill="#898989"/>
<path fill-rule="evenodd" clip-rule="evenodd" d="M59.6767 21.895C59.6767 20.6161 59.9235 18.7765 59.259 17.6243C58.5945 16.4798 56.8705 15.777 55.7768 15.1395L36.8963 4.11323C35.795 3.47186 34.3217 2.31201 33.0002 2.31201C31.6749 2.31201 30.2015 3.47186 29.1003 4.11323L10.2197 15.1395C9.1261 15.777 7.40209 16.4798 6.74135 17.6243C6.07301 18.7765 6.31984 20.6161 6.31984 21.895V44.0896C6.31984 45.3685 6.07301 47.2081 6.74135 48.3603C7.40209 49.5048 9.1261 50.2076 10.2197 50.8451L29.1003 61.8714C30.2053 62.5166 31.6825 63.6841 33.0116 63.688C34.352 63.6918 35.8102 62.5204 36.9153 61.8599C43.1505 58.1115 49.4314 54.4437 55.7578 50.8567C56.8704 50.2268 58.5945 49.5394 59.2666 48.3757C59.9311 47.2197 59.6767 45.3723 59.6767 44.0896V21.895Z" fill="#3A2F1B"/>
<path d="M21.2244 43.2485C21.5358 43.0603 21.8814 42.9451 22.2611 42.899C22.9028 42.8222 23.5294 42.8299 24.175 42.8299C24.6496 42.8299 24.8889 42.6225 24.8889 42.2077C24.8889 41.7814 24.5547 41.6086 24.175 41.6086H21.2244V43.2485ZM21.2244 45.9254H24.175C24.7446 45.9254 25.2876 45.7795 25.2876 45.092C25.2876 44.4122 24.737 44.2893 24.175 44.2893C23.6623 44.2893 23.1421 44.2778 22.6294 44.3085C22.0219 44.3469 21.7598 44.4161 21.2244 44.7041V45.9254ZM26.7002 45.1227C26.7002 46.6935 25.6256 47.3694 24.175 47.3694H19.808V40.1799H24.175C25.3332 40.1799 26.3319 40.9864 26.3319 42.2077C26.3319 42.6724 26.218 43.1218 25.8648 43.4406C26.4344 43.7785 26.7002 44.4737 26.7002 45.1227ZM33.5279 44.9845L32.1419 42.3153L30.452 45.6066C30.6799 45.4876 31.033 45.3532 31.5077 45.2034C32.1608 45.0037 32.8482 44.9845 33.5279 44.9845ZM30.9457 40.0109H32.4684L36.3152 47.3694H34.762L34.2 46.2864C33.4595 46.2864 32.7798 46.271 32.0431 46.3978C31.3596 46.5168 30.6077 46.705 29.9774 47.0046C29.7343 47.1198 29.5862 47.212 29.5331 47.2888L29.4913 47.3694H28.0065L31.4128 40.9135L30.9457 40.0109ZM43.2644 45.2034C43.6517 45.9062 44.2669 45.8447 44.9504 45.8447V47.3694C43.6859 47.3694 43.0137 47.4578 42.2618 46.2326L41.1606 44.4276C40.2758 44.4276 39.8695 44.4429 39.0759 44.8424V47.3694H37.6329V40.1799H42.2201C43.4808 40.1799 44.4567 41.0479 44.4567 42.3498C44.4567 43.4713 43.8605 44.1357 42.8239 44.4506L43.2644 45.2034ZM42.2201 42.9989C42.6416 42.9989 43.0137 42.7685 43.0137 42.3038C43.0137 41.6777 42.4631 41.6086 41.9732 41.6086H39.0759V43.4137C39.672 43.0719 40.3897 42.9989 41.0657 42.9989H42.2201Z" fill="#D7B56D"/>
<path d="M54.3326 32.5553C54.3326 33.6157 54.1433 34.5321 53.7648 35.3044C53.3863 36.0768 52.8671 36.6725 52.2071 37.0914C51.5472 37.5103 50.7934 37.7198 49.9458 37.7198C49.0982 37.7198 48.3445 37.5103 47.6845 37.0914C47.0246 36.6725 46.5053 36.0768 46.1268 35.3044C45.7483 34.5321 45.5591 33.6157 45.5591 32.5553C45.5591 31.4949 45.7483 30.5785 46.1268 29.8062C46.5053 29.0338 47.0246 28.4381 47.6845 28.0192C48.3445 27.6003 49.0982 27.3908 49.9458 27.3908C50.7934 27.3908 51.5472 27.6003 52.2071 28.0192C52.8671 28.4381 53.3863 29.0338 53.7648 29.8062C54.1433 30.5785 54.3326 31.4949 54.3326 32.5553ZM53.1679 32.5553C53.1679 31.6847 53.024 30.95 52.7361 30.3511C52.4514 29.7522 52.0648 29.2989 51.5763 28.9912C51.091 28.6836 50.5475 28.5298 49.9458 28.5298C49.3441 28.5298 48.799 28.6836 48.3105 28.9912C47.8253 29.2989 47.4387 29.7522 47.1507 30.3511C46.8661 30.95 46.7237 31.6847 46.7237 32.5553C46.7237 33.4259 46.8661 34.1606 47.1507 34.7595C47.4387 35.3584 47.8253 35.8117 48.3105 36.1194C48.799 36.427 49.3441 36.5808 49.9458 36.5808C50.5475 36.5808 51.091 36.427 51.5763 36.1194C52.0648 35.8117 52.4514 35.3584 52.7361 34.7595C53.024 34.1606 53.1679 33.4259 53.1679 32.5553Z" fill="#E51A4B"/>
<path d="M44.0028 30.6702H42.7994C42.7282 30.32 42.6036 30.0123 42.4257 29.7472C42.251 29.4822 42.0375 29.2596 41.7852 29.0796C41.5361 28.8963 41.2595 28.7589 40.9554 28.6672C40.6513 28.5756 40.3342 28.5298 40.0043 28.5298C39.4025 28.5298 38.8574 28.6836 38.3689 28.9912C37.8837 29.2989 37.4971 29.7522 37.2092 30.3511C36.9245 30.95 36.7822 31.6847 36.7822 32.5553C36.7822 33.4259 36.9245 34.1606 37.2092 34.7595C37.4971 35.3584 37.8837 35.8117 38.3689 36.1194C38.8574 36.427 39.4025 36.5808 40.0043 36.5808C40.3342 36.5808 40.6513 36.535 40.9554 36.4434C41.2595 36.3517 41.5361 36.2159 41.7852 36.0359C42.0375 35.8526 42.251 35.6285 42.4257 35.3634C42.6036 35.095 42.7282 34.7873 42.7994 34.4404H44.0028C43.9122 34.9543 43.7472 35.4141 43.5078 35.8199C43.2684 36.2257 42.9708 36.571 42.615 36.8557C42.2591 37.1372 41.8596 37.3516 41.4164 37.4989C40.9764 37.6461 40.5057 37.7198 40.0043 37.7198C39.1567 37.7198 38.4029 37.5103 37.743 37.0914C37.083 36.6725 36.5638 36.0768 36.1853 35.3044C35.8068 34.5321 35.6175 33.6157 35.6175 32.5553C35.6175 31.4949 35.8068 30.5785 36.1853 29.8062C36.5638 29.0338 37.083 28.4381 37.743 28.0192C38.4029 27.6003 39.1567 27.3908 40.0043 27.3908C40.5057 27.3908 40.9764 27.4645 41.4164 27.6117C41.8596 27.759 42.2591 27.975 42.615 28.2598C42.9708 28.5412 43.2684 28.8849 43.5078 29.2907C43.7472 29.6932 43.9122 30.1531 44.0028 30.6702Z" fill="#E51A4B"/>
<path d="M32.7265 30.0418C32.6683 29.5443 32.4321 29.1581 32.0181 28.8832C31.604 28.6083 31.0961 28.4709 30.4943 28.4709C30.0544 28.4709 29.6694 28.5429 29.3394 28.6869C29.0127 28.8309 28.7571 29.0289 28.5727 29.2809C28.3916 29.5329 28.301 29.8192 28.301 30.14C28.301 30.4083 28.3641 30.6391 28.4902 30.8322C28.6196 31.022 28.7846 31.1807 28.9852 31.3084C29.1858 31.4327 29.396 31.5358 29.616 31.6176C29.836 31.6962 30.0382 31.76 30.2226 31.8091L31.2319 32.084C31.4907 32.1527 31.7787 32.2477 32.0957 32.3688C32.416 32.4898 32.7217 32.6551 33.0128 32.8646C33.3072 33.0708 33.5499 33.3359 33.7407 33.6599C33.9316 33.9839 34.027 34.3815 34.027 34.8528C34.027 35.3961 33.8863 35.887 33.6049 36.3256C33.3266 36.7641 32.919 37.1127 32.382 37.3712C31.8482 37.6298 31.1996 37.759 30.4361 37.759C29.7244 37.759 29.1081 37.6429 28.5873 37.4105C28.0697 37.1781 27.6621 36.8541 27.3644 36.4385C27.07 36.0228 26.9034 35.5401 26.8646 34.9903H28.1069C28.1392 35.3699 28.2654 35.6841 28.4854 35.9328C28.7086 36.1783 28.99 36.3616 29.3297 36.4826C29.6726 36.6005 30.0414 36.6594 30.4361 36.6594C30.8955 36.6594 31.308 36.5841 31.6735 36.4336C32.0391 36.2797 32.3286 36.067 32.5421 35.7954C32.7557 35.5205 32.8624 35.1997 32.8624 34.8332C32.8624 34.4993 32.7702 34.2277 32.5858 34.0182C32.4014 33.8088 32.1588 33.6386 31.8579 33.5077C31.5571 33.3768 31.2319 33.2622 30.8826 33.164L29.6597 32.8106C28.8833 32.5848 28.2686 32.2624 27.8157 31.8435C27.3628 31.4246 27.1364 30.8764 27.1364 30.1989C27.1364 29.636 27.2868 29.1451 27.5877 28.7261C27.8917 28.3039 28.2994 27.9767 28.8105 27.7443C29.3249 27.5087 29.8991 27.3908 30.5332 27.3908C31.1737 27.3908 31.7431 27.507 32.2413 27.7394C32.7395 27.9685 33.1342 28.2827 33.4253 28.682C33.7197 29.0812 33.875 29.5345 33.8912 30.0418H32.7265Z" fill="#E51A4B"/>
<path d="M24.8787 27.5283V37.5823H23.6753V27.5283H24.8787Z" fill="#E51A4B"/>
<path d="M16.9204 37.5823H13.8535V27.5283H17.0562C18.0203 27.5283 18.8452 27.7296 19.531 28.1321C20.2169 28.5314 20.7426 29.1058 21.1081 29.8553C21.4737 30.6015 21.6565 31.4949 21.6565 32.5357C21.6565 33.583 21.4721 34.4846 21.1033 35.2406C20.7345 35.9934 20.1975 36.5727 19.4922 36.9785C18.787 37.381 17.9297 37.5823 16.9204 37.5823ZM15.057 36.5023H16.8427C17.6644 36.5023 18.3454 36.3419 18.8857 36.0212C19.4259 35.7005 19.8287 35.2439 20.0939 34.6515C20.3592 34.0592 20.4919 33.3539 20.4919 32.5357C20.4919 31.724 20.3608 31.0253 20.0988 30.4394C19.8368 29.8503 19.4453 29.3987 18.9245 29.0845C18.4036 28.7671 17.755 28.6083 16.9786 28.6083H15.057V36.5023Z" fill="#E51A4B"/>
<path fill-rule="evenodd" clip-rule="evenodd" d="M33.1748 9.00995C37.462 9.00995 40.9404 12.5279 40.9404 16.8639C40.9404 21.2037 37.462 24.7178 33.1748 24.7178C28.8838 24.7178 25.4092 21.2037 25.4092 16.8639C25.4092 12.5279 28.8838 9.00995 33.1748 9.00995Z" fill="#D7B56D"/>
<path fill-rule="evenodd" clip-rule="evenodd" d="M33.1749 11.7291L30.3915 14.5442L30.5282 14.6863C31.1205 14.2754 31.7965 14.0411 32.4838 13.9796L29.4649 17.0367L30.0079 17.5859C30.68 17.006 31.4547 16.6181 32.2711 16.4261L28.7168 20.017L28.9409 20.2397C31.3788 18.5614 34.6787 18.715 36.9609 20.6968L37.6292 20.017L33.9534 16.2993C34.8572 16.3761 35.7457 16.6795 36.5242 17.2172L36.7065 17.0367L33.7711 14.068C34.4091 14.2139 35.0166 14.5135 35.5407 14.9705L35.9584 14.5442L33.1749 11.7291Z" fill="#FEFEFE"/>
</svg>
