<svg width="66" height="66" viewBox="0 0 66 66" fill="none" xmlns="http://www.w3.org/2000/svg">
<path fill-rule="evenodd" clip-rule="evenodd" d="M21.3703 16.8886C24.6485 14.5629 28.662 13.1951 33 13.1951C37.3379 13.1951 41.3515 14.5629 44.6297 16.8886C46.8512 18.4645 48.4053 20.5485 50.1973 22.4059C52.2705 24.548 54.5909 26.4605 57.4581 28.0946C58.1966 28.5169 59.176 28.8352 59.831 29.3676C61.1256 30.0714 62 31.4332 62 32.9999C62 34.5667 61.1256 35.9284 59.831 36.6323C59.176 37.1647 58.1966 37.483 57.4581 37.9053C54.5909 39.5394 52.2705 41.4519 50.1973 43.594C48.4053 45.4514 46.8512 47.5354 44.6297 49.1113C41.3515 51.437 37.3379 52.8048 33 52.8048C28.662 52.8048 24.6485 51.437 21.3703 49.1113C19.1488 47.5354 17.5947 45.4514 15.8027 43.594C13.7295 41.4519 11.4091 39.5394 8.54187 37.9053C7.80034 37.483 6.82399 37.1647 6.16898 36.6323C4.87439 35.9284 4 34.5667 4 32.9999C4 31.4332 4.87439 30.0714 6.16898 29.3676C6.82399 28.8352 7.80034 28.5169 8.54187 28.0946C11.4091 26.4605 13.7295 24.548 15.8027 22.4059C17.5947 20.5485 19.1488 18.4645 21.3703 16.8886Z" fill="#D7B56D"/>
<path fill-rule="evenodd" clip-rule="evenodd" d="M21.7264 17.3808C19.5883 18.8956 18.0403 20.9642 16.2421 22.8247C14.033 25.1106 11.6168 27.0415 8.84228 28.6205C8.46842 28.8347 8.06985 29.0092 7.68055 29.1928C7.30051 29.3703 6.88031 29.5722 6.55589 29.8354L6.50955 29.8721L6.4632 29.8997C5.32001 30.5208 4.60938 31.7051 4.60938 32.9995C4.60938 34.2939 5.32001 35.4782 6.4632 36.0994L6.50955 36.1269L6.55589 36.1636C6.88031 36.4268 7.30051 36.6288 7.68055 36.8063C8.06985 36.9899 8.46842 37.1643 8.84228 37.3785C11.6168 38.9575 14.033 40.8884 16.2421 43.1743C18.0403 45.0348 19.5883 47.1035 21.7264 48.6182C25.0231 50.9561 28.9408 52.1954 32.9976 52.1954C37.0544 52.1954 40.9722 50.9561 44.2689 48.6182C46.407 47.1035 47.9549 45.0348 49.7531 43.1743C51.9622 40.8884 54.3784 38.9575 57.1499 37.3785C57.5268 37.1643 57.9254 36.9899 58.3147 36.8063C58.6947 36.6288 59.1149 36.4268 59.4393 36.1636L59.4826 36.1269L59.532 36.0994C60.6752 35.4782 61.3859 34.2939 61.3859 32.9995C61.3859 31.7051 60.6752 30.5208 59.532 29.8997L59.4826 29.8721L59.4393 29.8354C59.1149 29.5722 58.6947 29.3703 58.3147 29.1928C57.9254 29.0092 57.5268 28.8347 57.1499 28.6205C54.3784 27.0415 51.9622 25.1106 49.7531 22.8247C47.9549 20.9642 46.407 18.8956 44.2689 17.3808C40.9722 15.0399 37.0544 13.8005 32.9976 13.8005C28.9408 13.8005 25.0231 15.0399 21.7264 17.3808Z" fill="#FEFEFE"/>
<path fill-rule="evenodd" clip-rule="evenodd" d="M59.2085 35.7233L59.2981 35.6743C60.2837 35.1388 60.8955 34.1167 60.8955 32.9998C60.8955 31.8828 60.2837 30.8608 59.2981 30.3222L59.2085 30.2763L59.1313 30.212C58.8316 29.9672 58.4546 29.7959 58.1055 29.6306C57.7038 29.4409 57.2929 29.2634 56.9067 29.0431C54.1136 27.4488 51.6264 25.4628 49.3987 23.1585C47.6314 21.3286 46.0834 19.2631 43.9855 17.7759C40.7722 15.4961 36.9503 14.2874 32.9985 14.2874C29.0468 14.2874 25.2248 15.4961 22.0115 17.7759C19.9136 19.2631 18.3657 21.3286 16.5953 23.1585C14.3707 25.4628 11.8835 27.4488 9.09038 29.0431C8.70416 29.2634 8.29323 29.4409 7.89157 29.6306C7.54243 29.7959 7.16549 29.9672 6.86579 30.212L6.78854 30.2763L6.69894 30.3222C5.71332 30.8608 5.10156 31.8828 5.10156 32.9998C5.10156 34.1167 5.71332 35.1388 6.69894 35.6743L6.78854 35.7233L6.86579 35.7875C7.16549 36.0323 7.54243 36.2037 7.89157 36.3689C8.29323 36.5556 8.70416 36.7361 9.09038 36.9565C11.8835 38.5508 14.3707 40.5368 16.5953 42.841C18.3657 44.6709 19.9136 46.7365 22.0115 48.2237C25.2248 50.5035 29.0468 51.7122 32.9985 51.7122C36.9503 51.7122 40.7722 50.5035 43.9855 48.2237C46.0834 46.7365 47.6314 44.6709 49.3987 42.841C51.6264 40.5368 54.1136 38.5508 56.9067 36.9565C57.2929 36.7361 57.7038 36.5556 58.1055 36.3689C58.4546 36.2037 58.8316 36.0323 59.1313 35.7875L59.2085 35.7233ZM7.27054 33.6852C7.65366 33.6852 7.96263 33.3792 7.96263 32.9998C7.96263 32.6203 7.65366 32.3143 7.27054 32.3143C6.8905 32.3143 6.57844 32.6203 6.57844 32.9998C6.57844 33.3792 6.8905 33.6852 7.27054 33.6852ZM58.7265 33.6852C58.3434 33.6852 58.0344 33.3792 58.0344 32.9998C58.0344 32.6203 58.3434 32.3143 58.7265 32.3143C59.1066 32.3143 59.4186 32.6203 59.4186 32.9998C59.4186 33.3792 59.1066 33.6852 58.7265 33.6852Z" fill="#5A6A23"/>
<path fill-rule="evenodd" clip-rule="evenodd" d="M15.1704 25.2947L19.1932 27.7825C19.1191 27.8958 19.0449 28.0151 18.9739 28.1344L14.9078 25.6221C14.9974 25.515 15.0839 25.4048 15.1704 25.2947ZM50.8257 25.2947L46.7998 27.7825C46.877 27.8958 46.9512 28.0151 47.0222 28.1344L51.0883 25.6221C50.9987 25.515 50.9091 25.4048 50.8257 25.2947ZM51.6135 26.1821L47.2292 28.4986C47.2941 28.621 47.3559 28.7434 47.4146 28.8689L51.9349 26.482C51.8267 26.3841 51.7186 26.2861 51.6135 26.1821ZM52.5899 26.99L47.5784 29.2299C47.634 29.3554 47.6865 29.4809 47.736 29.6094L53.0039 27.2562C52.8618 27.1736 52.7258 27.0848 52.5899 26.99ZM50.8257 40.7053L46.7998 38.2174C46.877 38.1011 46.9512 37.9849 47.0222 37.8655L51.0883 40.3778C50.9987 40.4849 50.9091 40.5951 50.8257 40.7053ZM51.6135 39.8178L47.2292 37.5014C47.2941 37.379 47.3559 37.2566 47.4146 37.1311L51.9349 39.518C51.8267 39.6159 51.7186 39.7138 51.6135 39.8178ZM52.5899 39.01L47.5784 36.77C47.634 36.6445 47.6865 36.5191 47.736 36.3906L53.0039 38.7438C52.8618 38.8264 52.7258 38.9151 52.5899 39.01ZM15.1704 40.7053L19.1932 38.2174C19.1191 38.1011 19.0449 37.9849 18.9739 37.8655L14.9078 40.3778C14.9974 40.4849 15.0839 40.5951 15.1704 40.7053ZM14.3826 39.8178L18.7669 37.5014C18.702 37.379 18.6402 37.2566 18.5815 37.1311L14.0612 39.518C14.1694 39.6159 14.2775 39.7138 14.3826 39.8178ZM13.4062 39.01L18.4146 36.77C18.3621 36.6445 18.3096 36.5191 18.2601 36.3906L12.9922 38.7438C13.1312 38.8264 13.2703 38.9151 13.4062 39.01ZM14.3826 26.1821L18.7669 28.4986C18.702 28.621 18.6402 28.7434 18.5815 28.8689L14.0612 26.482C14.1694 26.3841 14.2775 26.2861 14.3826 26.1821ZM13.4062 26.99L18.4146 29.2299C18.3621 29.3554 18.3096 29.4809 18.2601 29.6094L12.9922 27.2562C13.1312 27.1736 13.2703 27.0848 13.4062 26.99Z" fill="#5F361C"/>
<path fill-rule="evenodd" clip-rule="evenodd" d="M53.9085 29.6523C55.7747 29.6523 57.2887 31.1518 57.2887 33.0001C57.2887 34.8484 55.7747 36.3478 53.9085 36.3478C52.0423 36.3478 50.5315 34.8484 50.5315 33.0001C50.5315 31.1518 52.0423 29.6523 53.9085 29.6523ZM12.1419 29.6523C14.008 29.6523 15.5189 31.1518 15.5189 33.0001C15.5189 34.8484 14.008 36.3478 12.1419 36.3478C10.2757 36.3478 8.76172 34.8484 8.76172 33.0001C8.76172 31.1518 10.2757 29.6523 12.1419 29.6523Z" fill="#AF4323"/>
<path d="M45.8021 34.6313C46.0338 35.2023 46.386 36.2709 46.0647 37.1751C45.626 38.3606 44.2202 40.9477 43.6918 42.1374C43.6918 42.8729 43.6918 43.7339 43.1635 43.8593C43.1944 44.4737 42.9904 45.088 42.7247 45.4168L42.6969 45.4557V45.499C42.6969 45.91 42.4899 46.1955 42.2273 46.1955C42.1995 46.1955 42.1408 46.1955 42.1099 46.1566C41.8164 46.6065 41.2602 47.0175 40.735 47.0175C40.7628 47.1819 40.5588 47.4675 40.1757 47.5108C39.6783 47.5497 38.8008 47.9996 38.6247 48.1251C37.6576 48.8216 36.7214 50.2969 36.0479 50.5002C35.4021 50.6646 34.5834 50.2147 33.9963 50.2969C33.8202 50.7468 33.4402 51.0756 33.0292 51.0756C32.6214 51.0756 32.2383 50.7468 32.0652 50.2969C31.506 50.258 30.6872 50.7079 30.0724 50.5002C29.371 50.2969 28.4626 48.8216 27.4956 48.1251C27.3194 47.9996 26.4698 47.5497 25.9414 47.5108C25.5614 47.4675 25.3266 47.1819 25.3853 47.0175C24.86 47.0175 24.3008 46.6455 24.0104 46.1566C23.9795 46.1566 23.9208 46.1955 23.893 46.1955C23.5407 46.2388 23.3059 45.91 23.3059 45.499V45.4557L23.2781 45.4168C22.9846 45.088 22.7807 44.4737 22.8394 43.8593C22.311 43.7339 22.311 42.8729 22.311 42.1374C21.7827 40.9477 20.3491 38.3606 19.9381 37.1751C19.6168 36.232 19.9659 35.2023 20.2008 34.6313C19.9659 34.4236 19.8207 33.9347 19.8207 33.3161C19.8207 32.6628 20.0246 32.1263 20.2904 31.9662C20.0834 31.4298 19.5859 30.24 19.9659 29.2147C20.4078 28.025 21.8136 25.4421 22.3388 24.2524C22.3388 23.5169 22.3388 22.656 22.8672 22.5305C22.8394 21.9162 23.0433 21.3018 23.3059 20.973L23.3368 20.9341V20.8908C23.3368 20.4798 23.5407 20.1943 23.8034 20.1943C23.8343 20.1943 23.893 20.1943 23.9208 20.2332C24.2143 19.7833 24.7704 19.3723 25.2988 19.3723C25.2679 19.2079 25.4749 18.9224 25.8549 18.8834C26.3524 18.8402 27.2298 18.3902 27.406 18.2648C28.373 17.5682 29.3092 16.0929 29.9859 15.8896C30.6007 15.7252 31.4195 16.1319 31.9756 16.0929C32.1518 15.643 32.5318 15.3142 32.9427 15.3142C33.3536 15.3142 33.7337 15.643 33.9098 16.0929C34.4659 16.1319 35.3156 15.6819 35.9583 15.8896C36.6627 16.0929 37.5711 17.5682 38.5382 18.2648C38.7112 18.3902 39.5609 18.8402 40.0892 18.8834C40.4692 18.9224 40.7041 19.2079 40.6454 19.3723C41.1737 19.3723 41.7298 19.7444 42.0234 20.2332C42.0512 20.2332 42.1099 20.1943 42.1408 20.1943C42.4034 20.1943 42.6073 20.5231 42.6073 20.8908V20.9341L42.6382 20.973C42.9317 21.3018 43.1357 21.9162 43.077 22.5305C43.6053 22.656 43.6053 23.5169 43.6053 24.2524C44.1306 25.4421 45.5673 28.025 45.9751 29.2147C46.3582 30.24 45.8608 31.4298 45.6538 31.9662C45.9195 32.1263 46.1234 32.6628 46.1234 33.3161C46.1821 33.9347 46.006 34.4236 45.8021 34.6313ZM23.6736 42.2629L24.2452 42.3927L24.1494 43.3964C24.134 43.5651 24.1927 43.8031 24.2915 43.9112L24.3224 43.9502L24.5974 44.3352V44.3828H24.8662L25.0887 44.7549C25.2432 45.0188 25.5769 45.1962 25.8148 45.1962H27.0197L26.822 45.7456C26.9271 45.7759 27.029 45.8105 27.131 45.8494C27.3349 45.923 27.5326 46.0138 27.7304 46.1133C27.8725 46.1869 28.0115 46.2604 28.1444 46.3556C28.4596 46.5806 28.75 46.8618 29.0311 47.1603C29.3247 47.4718 29.6058 47.8049 29.9024 48.1121C30.0137 48.2246 30.2547 48.4669 30.3906 48.5058L30.3999 48.5101H30.4092C30.5791 48.5664 30.8448 48.5101 31.0147 48.4712C31.3948 48.389 31.7655 48.2635 32.1548 48.2895L32.572 48.3198L32.7697 48.8346C32.816 48.9471 32.9365 49.025 33.0292 49.025C33.1188 49.025 33.2424 48.9471 33.2888 48.8346L33.4772 48.3501L33.8665 48.2938C34.2837 48.2376 34.6884 48.3587 35.0962 48.4496C35.2847 48.4885 35.5381 48.5447 35.7265 48.5058C35.8594 48.4539 36.0911 48.2203 36.1962 48.1121C36.4959 47.8049 36.7801 47.4718 37.0737 47.1603C37.3579 46.8618 37.6514 46.5806 37.9666 46.3556C38.0994 46.2604 38.2354 46.1912 38.3744 46.122C38.5629 46.0268 38.7545 45.9403 38.946 45.8667C39.1067 45.8062 39.2704 45.7456 39.4342 45.7067L39.3446 45.1962H40.2962C40.5434 45.1962 40.8802 44.9755 41.047 44.7203L41.5754 43.9069L41.6433 44.0021L41.665 43.9718L41.6804 43.9502C41.7886 43.8161 41.8596 43.5262 41.8473 43.3272L41.804 42.3841L42.3293 42.2629C42.3478 42.0639 42.3447 41.7567 42.3447 41.6313V41.3328L42.4559 41.0818C42.6197 40.7184 42.7927 40.3637 42.9688 40.0132C43.1789 39.5892 43.3952 39.1653 43.6053 38.7413C43.8216 38.313 44.0379 37.8847 44.2418 37.4477C44.3901 37.1319 44.5415 36.8117 44.6651 36.4743C44.8072 36.0849 44.5693 35.4057 44.4333 35.0639L44.0997 34.2506L44.6249 33.7227C44.6465 33.6535 44.6496 33.5107 44.6465 33.4502L44.6373 33.381V33.3117C44.6373 33.2339 44.6187 33.0478 44.5878 32.957L43.905 32.5287L44.285 31.5379C44.4364 31.1486 44.7516 30.3742 44.5847 29.9199L44.5786 29.9069L44.5755 29.8939C44.4611 29.5608 44.3098 29.245 44.1645 28.9378C43.9575 28.4965 43.7443 28.0639 43.525 27.6356C43.3118 27.2159 43.0986 26.7963 42.8885 26.3766C42.7124 26.0262 42.5363 25.6714 42.3725 25.308L42.2613 25.0571V24.7586C42.2613 24.6634 42.2613 24.5682 42.2613 24.473C42.2582 24.3995 42.2551 24.2481 42.2458 24.1269L41.6742 23.9972L41.77 22.9978C41.7886 22.8247 41.7268 22.5868 41.631 22.4786L41.597 22.4397L41.322 22.0546V22.007H41.1644L40.942 21.635C40.7875 21.3711 40.4538 21.1937 40.2159 21.1937H39.014L39.2086 20.6442C39.1036 20.614 38.9985 20.5794 38.8966 20.5404C38.6958 20.4669 38.4949 20.376 38.3003 20.2765C38.1581 20.203 38.0191 20.1294 37.8863 20.0342C37.5711 19.8093 37.2807 19.5281 37.0026 19.2339C36.706 18.918 36.4248 18.5849 36.1282 18.2777C36.0139 18.1653 35.776 17.923 35.64 17.884L35.6277 17.8797C35.3805 17.8018 35.0066 17.9057 34.7564 17.9662C34.4505 18.0398 34.1323 18.122 33.8202 18.1004L33.4031 18.0658L33.2053 17.5552C33.159 17.4428 33.0385 17.3649 32.9458 17.3649C32.8562 17.3649 32.7326 17.4428 32.6863 17.5552L32.4885 18.0658L32.0745 18.1004C31.6852 18.1263 31.3083 18.0095 30.9282 17.9316C30.7428 17.8927 30.4895 17.8408 30.3041 17.884C30.1743 17.9316 29.9395 18.1696 29.8345 18.2777C29.5348 18.5849 29.2505 18.918 28.957 19.2252C28.6727 19.5237 28.3792 19.8093 28.0641 20.0342C27.9312 20.1294 27.7953 20.1986 27.6562 20.2679C27.4678 20.363 27.2762 20.4496 27.0846 20.5231C26.924 20.5837 26.7571 20.6442 26.5934 20.6832L26.6861 21.1937H25.7313C25.4873 21.1937 25.1505 21.4143 24.9836 21.6653L24.4584 22.4743L24.3935 22.3834L24.3626 22.4224L24.3471 22.4397C24.2421 22.5738 24.171 22.868 24.1803 23.0627L24.2267 24.0058L23.7014 24.1269C23.6829 24.326 23.686 24.6331 23.686 24.7586V25.0571L23.5747 25.308C23.411 25.6714 23.2379 26.0262 23.0618 26.3766C22.8517 26.8049 22.6385 27.2246 22.4254 27.6486C22.2091 28.0769 21.9959 28.5095 21.7889 28.9465C21.6406 29.2623 21.4892 29.5824 21.3625 29.9199C21.1956 30.3742 21.5108 31.1442 21.6622 31.5379L22.0422 32.5287L21.3594 32.957C21.3285 33.0478 21.31 33.2339 21.31 33.3117C21.31 33.3939 21.3223 33.6016 21.3532 33.6968L21.9248 34.1943L21.5695 35.0682C21.4181 35.4403 21.1987 36.0676 21.347 36.4959C21.4583 36.829 21.6097 37.1449 21.7549 37.452C21.9588 37.8933 22.1751 38.326 22.3945 38.7543C22.6046 39.1739 22.8208 39.5936 23.0309 40.0132C23.207 40.3637 23.3832 40.7184 23.5469 41.0818L23.6581 41.3328V41.6313C23.6581 41.7264 23.6581 41.8216 23.6581 41.9168C23.6612 41.9947 23.6643 42.1418 23.6736 42.2629ZM41.7577 44.9582C41.7886 44.9279 41.8009 44.8674 41.8009 44.8025V44.5645L41.9369 44.3742L41.9461 44.3655C42.147 44.1146 42.2644 43.6603 42.2458 43.2883L42.2242 42.8513L42.5332 42.7777C42.5702 42.7691 42.6011 42.7561 42.6259 42.7172C42.7525 42.5355 42.7433 41.8865 42.7433 41.6313V41.4928L42.7927 41.376C42.9503 41.0213 43.1233 40.6708 43.2963 40.329C43.5064 39.9051 43.7196 39.4854 43.9328 39.0614C44.1491 38.6288 44.3654 38.1962 44.5755 37.7549C44.73 37.4261 44.8906 37.08 45.0173 36.7295C45.2367 36.1239 44.9957 35.3278 44.7763 34.7913L44.6218 34.4106L44.8783 34.1554C45.0266 34.004 45.0606 33.6103 45.0389 33.3766L45.0358 33.342V33.3117C45.0358 33.0824 44.971 32.5849 44.801 32.4768L44.4581 32.2648L44.6342 31.8018C44.869 31.1962 45.1903 30.3525 44.937 29.6646L44.9339 29.6603L44.9308 29.6517C44.8134 29.3056 44.6496 28.9551 44.4982 28.6306C44.2881 28.185 44.0688 27.7481 43.8494 27.3154C43.6393 26.8958 43.423 26.4761 43.2129 26.0565C43.0399 25.7147 42.8669 25.3686 42.7124 25.0138L42.6598 24.897V24.7586C42.6598 24.6591 42.6598 24.5596 42.6568 24.4601C42.6537 24.2697 42.6444 23.8198 42.5455 23.6727C42.5208 23.6337 42.4868 23.6208 42.4528 23.6121L42.1192 23.5342L42.1655 23.0713C42.1995 22.7036 42.0852 22.2753 41.8782 22.0417L41.8627 22.0243L41.7206 21.8253V21.5874C41.7206 21.5268 41.6928 21.4446 41.6495 21.4187C41.6063 21.436 41.5692 21.4533 41.5136 21.4533H41.3529L41.2479 21.2759C41.0161 20.8865 40.5712 20.6399 40.2159 20.6399H39.6567L39.808 20.2116C39.7555 20.19 39.6999 20.177 39.669 20.1727C39.4466 20.1554 39.2148 20.0861 39.0016 20.0039C38.8101 19.9304 38.6216 19.8482 38.4362 19.753C38.3157 19.6925 38.1798 19.6232 38.0655 19.541C37.775 19.3334 37.5031 19.0651 37.2405 18.7883C36.9439 18.4768 36.6596 18.1393 36.363 17.8321C36.1931 17.6548 35.9305 17.3995 35.7235 17.3389H35.7173C35.1735 17.1659 34.4196 17.5855 33.8387 17.5423L33.6472 17.5293L33.5545 17.2913C33.4371 16.9928 33.1837 16.8068 32.9458 16.8068C32.7079 16.8068 32.4545 16.9928 32.3402 17.2913L32.2444 17.5293L32.0529 17.5423C31.7068 17.5682 31.3299 17.4514 30.9869 17.3822C30.749 17.3303 30.4617 17.2784 30.2238 17.3389C30.026 17.4038 29.7634 17.6634 29.5997 17.8278C29.3 18.135 29.0157 18.4681 28.716 18.7839C28.4534 19.0608 28.1753 19.329 27.8818 19.541C27.7705 19.6189 27.6377 19.6881 27.5234 19.7444C27.3442 19.8352 27.1619 19.9174 26.9765 19.9866C26.754 20.0732 26.5099 20.1554 26.2844 20.1727C26.2411 20.177 26.1639 20.1986 26.1052 20.2289L26.1763 20.6399H25.7313C25.3729 20.6399 24.9311 20.9255 24.6901 21.2932L24.446 21.6696L24.2761 21.4316C24.2421 21.4576 24.2267 21.5182 24.2267 21.5874V21.8253L24.0907 22.0157L24.0845 22.0243C23.8837 22.2753 23.7663 22.7295 23.7848 23.1016L23.8065 23.5386L23.4975 23.6121C23.4604 23.6208 23.4264 23.6337 23.4017 23.6727C23.2781 23.8544 23.2874 24.5033 23.2874 24.7586V24.897L23.2349 25.0138C23.0773 25.3686 22.9073 25.719 22.7374 26.0608C22.5242 26.4848 22.311 26.9044 22.1009 27.3284C21.8816 27.7611 21.6653 28.198 21.4583 28.6393C21.3038 28.9681 21.14 29.3142 21.0103 29.6646C20.7569 30.3525 21.0782 31.1962 21.3131 31.8018L21.4892 32.2648L21.1462 32.4768C20.9763 32.5849 20.9114 33.0824 20.9114 33.3117C20.9114 33.5367 20.9516 34.004 21.1091 34.1381L21.3903 34.3847L21.2265 34.7913C20.9948 35.3538 20.7693 36.1022 20.9886 36.7382C21.106 37.0843 21.2698 37.4391 21.4212 37.7592C21.6313 38.2048 21.8507 38.6418 22.07 39.0744C22.2801 39.4941 22.4964 39.9137 22.7065 40.3334C22.8795 40.6752 23.0526 41.0213 23.207 41.376L23.2596 41.4928V41.6313C23.2596 41.7308 23.2596 41.8303 23.2627 41.9298C23.2658 42.1201 23.275 42.5701 23.3739 42.7172C23.4017 42.7561 23.4326 42.7691 23.4697 42.7777L23.8003 42.8556L23.7539 43.3229C23.7199 43.6863 23.8343 44.1146 24.0413 44.3482L24.0567 44.3655L24.1988 44.5645V44.8025C24.1988 44.9366 24.2761 44.9842 24.3595 44.9798C24.412 44.9582 24.4522 44.9366 24.5171 44.9366H24.6777L24.7828 45.114C25.0145 45.5033 25.4594 45.7499 25.8148 45.7499H26.3771L26.2226 46.1782C26.2751 46.1999 26.3307 46.2129 26.3647 46.2172C26.5841 46.2345 26.8158 46.3037 27.029 46.3859C27.2206 46.4595 27.409 46.5417 27.5944 46.6368C27.7149 46.6974 27.8509 46.7666 27.9652 46.8488C28.2556 47.0608 28.5275 47.3247 28.7901 47.6016C29.0868 47.9174 29.371 48.2549 29.6676 48.5577C29.8376 48.7351 30.1002 48.9904 30.3072 49.0509H30.3134L30.3165 49.0552C30.5482 49.1288 30.8448 49.0726 31.0765 49.0206C31.4164 48.9471 31.7903 48.8216 32.1363 48.8476L32.3279 48.8606L32.4206 49.0985C32.538 49.397 32.7913 49.5831 33.0292 49.5831C33.2671 49.5831 33.5205 49.397 33.6379 49.0985L33.7244 48.8735L33.9067 48.8476C34.2713 48.7957 34.673 48.9211 35.0345 48.999C35.2754 49.0509 35.5659 49.1072 35.8069 49.0509C36.0077 48.986 36.2672 48.7264 36.431 48.562C36.7307 48.2549 37.015 47.9174 37.3147 47.6059C37.5773 47.329 37.8554 47.0608 38.1489 46.8488C38.2601 46.7709 38.393 46.7017 38.5073 46.6455C38.6865 46.5546 38.8688 46.4724 39.0511 46.4032C39.2766 46.3167 39.5207 46.2345 39.7463 46.2172C39.7895 46.2129 39.8668 46.1955 39.9255 46.1609L39.8544 45.7499H40.2962C40.6577 45.7499 41.0995 45.4644 41.3405 45.0967L41.5877 44.7159L41.7577 44.9582Z" fill="#5F361C"/>
<path fill-rule="evenodd" clip-rule="evenodd" d="M33.8491 47.4222C33.8151 47.3916 33.7873 47.3549 33.7657 47.312C33.7471 47.2722 33.7317 47.2325 33.7255 47.1896L33.6946 47.0489L34.1921 47.0121L34.2013 47.1376C34.2013 47.1437 34.2044 47.1498 34.2044 47.1529C34.2106 47.1529 34.2199 47.1529 34.223 47.1529C34.2291 47.1529 34.2353 47.1529 34.2415 47.1498C34.2415 47.1468 34.2415 47.1407 34.2415 47.1345L34.2322 47.0091L34.7297 46.9693L34.7204 47.1162C34.7204 47.159 34.7111 47.2019 34.6988 47.2416C34.6833 47.2845 34.6617 47.3273 34.6339 47.364L34.9954 47.3365L35.1252 49.0196L34.6555 49.0532L34.5906 48.2025L34.0005 49.1052L33.5988 49.1358L33.4691 47.4497L33.8491 47.4222ZM33.9418 47.4865L34.0036 48.2668L34.535 47.4528C34.5134 47.4681 34.4918 47.4803 34.4701 47.4895C34.4022 47.5232 34.328 47.5354 34.2539 47.5415C34.1797 47.5477 34.1025 47.5446 34.0314 47.5232C34.0005 47.514 33.9696 47.5018 33.9418 47.4865ZM31.365 17.1671C31.331 17.1365 31.3001 17.0998 31.2816 17.057C31.263 17.0172 31.2476 16.9774 31.2383 16.9376L31.2074 16.7938L31.7048 16.7571L31.7172 16.8825C31.7172 16.8886 31.7172 16.8948 31.7172 16.8978C31.7234 16.9009 31.7327 16.8978 31.7357 16.8978C31.7419 16.8978 31.7512 16.8978 31.7574 16.8978C31.7574 16.8917 31.7574 16.8856 31.7574 16.8795L31.7481 16.754L32.2455 16.7173L32.2363 16.8611C32.2332 16.904 32.2239 16.9468 32.2116 16.9866C32.1992 17.0325 32.1776 17.0723 32.1467 17.109L32.5082 17.0814L32.6379 18.7645L32.1714 18.8012L32.1034 17.9474L31.5164 18.8502L31.1116 18.8808L30.9819 17.1977L31.365 17.1671ZM31.4577 17.2344L31.5164 18.0117L32.0478 17.1977C32.0293 17.213 32.0076 17.2253 31.986 17.2344C31.918 17.2681 31.8408 17.2834 31.7666 17.2865C31.6925 17.2926 31.6152 17.2895 31.5442 17.2681C31.5133 17.2589 31.4855 17.2467 31.4577 17.2344ZM30.0024 18.2045L29.8109 17.3752L30.265 17.2712L30.6482 18.9175L30.194 19.0215L30.1353 18.7737C30.1136 18.841 30.0735 18.9052 30.021 18.9573C29.9684 19.0123 29.9066 19.0521 29.8387 19.0827C29.7769 19.1103 29.712 19.1317 29.6471 19.147L28.8623 19.3245L28.4792 17.6812L28.9365 17.5772L29.0693 18.1402C29.0786 18.1402 29.0879 18.1402 29.0971 18.1372C29.1373 18.1372 29.1744 18.131 29.2145 18.1219L29.3999 18.079C29.5544 18.0454 29.7182 18.0392 29.8665 18.1066C29.919 18.131 29.9653 18.1647 30.0024 18.2045ZM24.6758 19.1531C24.6294 19.1409 24.5892 19.1195 24.5522 19.0889C24.5182 19.0644 24.4873 19.0338 24.4595 19.0001L24.373 18.8838L24.8024 18.636L24.8673 18.7492C24.8704 18.7522 24.8735 18.7553 24.8766 18.7614C24.8828 18.7584 24.8889 18.7553 24.8951 18.7522C24.8982 18.7492 24.9044 18.7461 24.9106 18.7431C24.9075 18.7369 24.9075 18.7308 24.9044 18.7278L24.8395 18.6176L25.2721 18.3697L25.3277 18.5044C25.3431 18.5442 25.3555 18.587 25.3617 18.6298C25.3679 18.6757 25.3648 18.7216 25.3555 18.7675L25.6706 18.587L26.5203 20.0497L26.1125 20.2823L25.683 19.5417L25.544 20.6067L25.1917 20.8056L24.3421 19.3428L24.6758 19.1531ZM24.787 19.1745L25.1794 19.8508L25.3061 18.8899C25.2937 18.9114 25.2783 18.9297 25.2628 18.9511C25.2165 19.0093 25.1547 19.0521 25.0898 19.0889C25.0249 19.1256 24.9538 19.1562 24.8797 19.1684C24.8488 19.1715 24.8179 19.1745 24.787 19.1745ZM20.6344 42.5352C20.6468 42.474 20.6468 42.4159 20.6375 42.3547C20.6252 42.2935 20.6004 42.2384 20.5664 42.1864C20.5356 42.1344 20.4923 42.0885 20.4429 42.0548C20.3996 42.0211 20.3502 41.9997 20.2946 41.9875C20.242 41.9752 20.1864 41.9722 20.1339 41.9814C20.0721 41.9936 20.0196 42.015 19.9701 42.0487C19.9207 42.0793 19.8836 42.116 19.8527 42.165C19.8249 42.2109 19.8033 42.2598 19.794 42.3118C19.7878 42.37 19.7878 42.4251 19.8002 42.4802C19.8126 42.5383 19.8342 42.5903 19.8651 42.6393C19.9053 42.6974 19.9516 42.7464 20.0134 42.78C20.0752 42.8137 20.137 42.8351 20.208 42.8412L20.378 42.8565L20.2019 43.3156L20.0968 43.2972C19.9701 43.2758 19.8527 43.2329 19.7446 43.1656C19.6334 43.0922 19.5407 43.0004 19.4696 42.8902C19.4016 42.7892 19.3553 42.676 19.3337 42.5567C19.3151 42.4434 19.3151 42.3271 19.3398 42.2139C19.3646 42.1007 19.4109 41.9936 19.4758 41.8987C19.5468 41.7978 19.6334 41.7151 19.7353 41.6478C19.8373 41.5835 19.9516 41.5407 20.0721 41.5223C20.1864 41.507 20.3007 41.5101 20.412 41.5407C20.5232 41.5682 20.6282 41.6172 20.7209 41.6815C20.8198 41.7488 20.9001 41.8345 20.965 41.9324C21.0299 42.0364 21.0762 42.1497 21.0979 42.269C21.1195 42.3853 21.1164 42.5016 21.0917 42.6148L21.067 42.7311L20.6035 42.6699L20.6344 42.5352ZM19.5561 24.3859C19.4974 24.4042 19.4449 24.4348 19.3985 24.4746C19.3491 24.5144 19.312 24.5633 19.2842 24.6184C19.2564 24.6704 19.2379 24.7286 19.2317 24.7898C19.2255 24.8449 19.2286 24.8969 19.2441 24.9489C19.2626 25.004 19.2873 25.0499 19.3244 25.0927C19.3615 25.1386 19.4078 25.1723 19.4634 25.1998C19.5129 25.2243 19.5654 25.2396 19.621 25.2427C19.6766 25.2427 19.7291 25.2366 19.7817 25.2151C19.8342 25.1968 19.8805 25.1662 19.9238 25.1295C19.967 25.0897 20.0041 25.0468 20.0288 24.9948C20.0628 24.9306 20.0814 24.8663 20.0814 24.7959C20.0814 24.7255 20.0659 24.6613 20.0381 24.6001L19.967 24.4471L20.4521 24.3675L20.4923 24.4654C20.5356 24.5848 20.5572 24.7072 20.551 24.8357C20.5448 24.9673 20.5077 25.0927 20.449 25.209C20.3934 25.3161 20.3193 25.4141 20.2235 25.4906C20.1339 25.564 20.0319 25.6221 19.9207 25.6589C19.8095 25.6925 19.6952 25.7048 19.5777 25.6956C19.4542 25.6895 19.3367 25.6527 19.2286 25.5977C19.1205 25.5426 19.0247 25.4691 18.9505 25.3743C18.8795 25.2855 18.8269 25.1845 18.796 25.0744C18.7651 24.9642 18.7559 24.851 18.7651 24.7347C18.7775 24.6184 18.8115 24.5083 18.864 24.4042C18.9227 24.2941 18.9969 24.1992 19.0927 24.1196C19.1823 24.0462 19.2842 23.988 19.3985 23.9513L19.5098 23.9146L19.689 24.343L19.5561 24.3859ZM20.9341 23.783L21.4501 23.0608L21.8363 23.3332L21.0454 24.4318L19.6581 23.4525L20.3965 22.4243L20.7796 22.6936L20.3131 23.3454L20.4243 23.4219C20.4459 23.3791 20.4707 23.3393 20.4985 23.2995L20.758 22.9415L21.1411 23.2108L20.8847 23.5719C20.86 23.6025 20.8414 23.6361 20.8229 23.6729C20.8198 23.679 20.8136 23.6882 20.8105 23.6943L20.9341 23.783ZM21.929 22.2407L22.4852 22.764L22.1638 23.0976L21.2029 22.1918L20.7117 22.1581L21.1319 21.7205L21.9599 21.7756L21.8703 20.9524L22.2905 20.5179L22.3461 21.0014L23.307 21.9072L22.9857 22.2407L22.4295 21.7175L22.4944 22.2775L21.929 22.2407ZM23.8601 21.1116L24.5614 20.5669L24.8519 20.931L23.7828 21.7664L22.7292 20.4383L23.7334 19.658L24.0238 20.0252L23.3904 20.5179L23.4739 20.622C23.5079 20.5883 23.5449 20.5577 23.582 20.5271L23.9311 20.2547L24.2216 20.622L23.8724 20.8943C23.8415 20.9188 23.8106 20.9463 23.7859 20.9739C23.7797 20.98 23.7736 20.9861 23.7674 20.9953L23.8601 21.1116ZM26.9838 18.7339C27.0023 18.7247 27.0178 18.7186 27.0363 18.7125C27.0672 18.7002 27.1012 18.688 27.1352 18.6819C27.1753 18.6696 27.2186 18.6574 27.2588 18.6482C27.302 18.636 27.3484 18.6237 27.3916 18.6115C27.4225 18.6023 27.4565 18.5931 27.4905 18.5809C27.509 18.5717 27.5307 18.5625 27.5492 18.5503L27.3329 18.0056L27.7686 17.8342L28.3927 19.404L27.957 19.5754L27.7222 18.9879C27.7037 18.997 27.682 19.0062 27.6635 19.0123C27.6233 19.0307 27.5801 19.043 27.5399 19.0552C27.4936 19.0674 27.4503 19.0797 27.4071 19.0889C27.3638 19.1011 27.3236 19.1133 27.2804 19.1225C27.2588 19.1286 27.2309 19.1378 27.2093 19.1439C27.1908 19.1531 27.1753 19.1592 27.1599 19.1684L27.4071 19.7896L26.9714 19.961L26.3442 18.3912L26.7829 18.2198L26.9838 18.7339ZM35.0294 18.3575L34.9243 18.942L34.464 18.8593L34.7637 17.1977L35.6226 17.3507C35.6967 17.363 35.7647 17.3874 35.8296 17.4242C35.8914 17.4578 35.947 17.5037 35.9872 17.5619C36.0304 17.62 36.0582 17.6843 36.0706 17.7547C36.0861 17.8281 36.083 17.9015 36.0706 17.975C36.0582 18.0484 36.0335 18.1188 35.9934 18.1831C35.9563 18.2443 35.9099 18.2963 35.8512 18.3361C35.7894 18.3759 35.7246 18.4034 35.6535 18.4156C35.5793 18.4279 35.5052 18.4248 35.431 18.4126L35.1777 18.3697C35.1406 18.3606 35.1004 18.3575 35.0603 18.3575C35.051 18.3575 35.0417 18.3575 35.0294 18.3575ZM36.7905 18.8502L37.6494 19.0919L37.5197 19.5417L36.2096 19.1745L36.6762 17.5496L37.9028 17.8954L37.7761 18.3422L37.0006 18.1249L36.9635 18.2534C37.0099 18.2596 37.0562 18.2718 37.1026 18.284L37.532 18.4065L37.4023 18.8532L36.9759 18.7339C36.9357 18.7216 36.8986 18.7155 36.8585 18.7094C36.8492 18.7094 36.8399 18.7094 36.8338 18.7094L36.7905 18.8502ZM39.389 19.1164C39.3673 19.0583 39.3333 19.0093 39.2932 18.9634C39.2499 18.9175 39.2005 18.8838 39.1418 18.8563C39.0862 18.8318 39.0275 18.8165 38.9657 18.8134C38.9131 18.8104 38.8575 18.8165 38.805 18.8349C38.7525 18.8532 38.7061 18.8838 38.666 18.9205C38.6227 18.9603 38.5887 19.0093 38.564 19.0613C38.5424 19.1133 38.53 19.1654 38.53 19.2204C38.53 19.2755 38.5424 19.3275 38.564 19.3765C38.5856 19.4285 38.6165 19.4744 38.6567 19.5173C38.6969 19.557 38.7463 19.5907 38.7988 19.6121C38.8637 19.6427 38.9317 19.658 39.0027 19.655C39.0707 19.6519 39.1356 19.6335 39.1974 19.5999L39.3488 19.5234L39.4507 20.0008L39.355 20.0436C39.2376 20.0956 39.114 20.1201 38.9842 20.1201C38.8513 20.1201 38.7247 20.0926 38.6042 20.0375C38.4898 19.9885 38.391 19.9181 38.3076 19.8294C38.2272 19.7437 38.1654 19.6458 38.1253 19.5387C38.082 19.4285 38.0666 19.3153 38.0696 19.199C38.0727 19.0766 38.1005 18.9603 38.15 18.8502C38.1994 18.74 38.2705 18.6451 38.3632 18.5656C38.4497 18.4891 38.5485 18.434 38.6598 18.3973C38.7679 18.3606 38.8822 18.3453 38.9966 18.3514C39.1171 18.3575 39.2314 18.385 39.3395 18.4309C39.4507 18.483 39.5527 18.5533 39.6361 18.6421C39.7165 18.7278 39.7783 18.8287 39.8184 18.9358L39.8617 19.046L39.4384 19.2449L39.389 19.1164ZM40.9678 19.8019L40.3035 20.83L39.9142 20.5822L40.5785 19.554L40.1428 19.2786L40.3993 18.8869L41.6537 19.6825L41.3973 20.0742L40.9678 19.8019ZM42.9019 21.6348C42.8247 21.7266 42.7289 21.8001 42.6177 21.8521C42.5096 21.898 42.3983 21.9256 42.284 21.9317C42.1666 21.9378 42.0554 21.9194 41.9441 21.8827C41.8298 21.846 41.7279 21.7848 41.6383 21.7083C41.5456 21.6287 41.4683 21.5339 41.4127 21.4237C41.3633 21.3197 41.3293 21.2095 41.3231 21.0932C41.3138 20.9769 41.3293 20.8637 41.3664 20.7535C41.4034 20.6373 41.4652 20.5332 41.5456 20.4414C41.6259 20.3496 41.7186 20.2762 41.8298 20.2272C41.9349 20.1813 42.0492 20.1538 42.1635 20.1507C42.2778 20.1446 42.3921 20.1629 42.5003 20.2027C42.6146 20.2394 42.7135 20.3006 42.8031 20.3771C42.8958 20.4537 42.973 20.5485 43.0255 20.6556C43.0781 20.7597 43.109 20.8698 43.1182 20.9861C43.1275 21.0993 43.1151 21.2156 43.0812 21.3258C43.0441 21.439 42.9823 21.5461 42.9019 21.6348ZM43.4396 22.2928L43.0039 22.7028L42.6826 22.3662L43.9154 21.2003L44.5179 21.8246C44.5673 21.8797 44.6106 21.9378 44.6415 22.0051C44.6693 22.0694 44.6878 22.1398 44.6878 22.2101C44.6847 22.2805 44.6693 22.3478 44.6384 22.4121C44.6075 22.4825 44.5611 22.5406 44.5055 22.5927C44.453 22.6447 44.3912 22.6875 44.3201 22.7151C44.2552 22.7426 44.1842 22.7548 44.1131 22.7518C44.042 22.7518 43.971 22.7334 43.9061 22.7028C43.8381 22.6692 43.7794 22.6233 43.73 22.5712L43.5508 22.3876C43.523 22.357 43.4952 22.3325 43.4612 22.3081C43.455 22.3019 43.4457 22.2958 43.4396 22.2928ZM44.7002 24.1319L44.4931 23.8442C44.4653 23.8044 44.4314 23.7616 44.3943 23.7279C44.3696 23.7035 44.3418 23.6759 44.3109 23.6576C44.2954 23.6484 44.2738 23.6361 44.2552 23.63C44.2521 23.627 44.246 23.627 44.2429 23.627L44.0915 23.6453L43.7949 23.2322L45.3552 22.969L45.5251 22.6845L45.8217 23.1006L44.8855 24.7531L44.5827 24.3308L44.7002 24.1319ZM46.2944 24.7225C46.3037 24.7378 46.313 24.7531 46.3223 24.7684C46.3377 24.799 46.3501 24.8326 46.3624 24.8632C46.3779 24.903 46.3933 24.9428 46.4088 24.9826C46.4242 25.0254 46.4397 25.0683 46.4582 25.108C46.4706 25.1417 46.4829 25.1723 46.4984 25.2029C46.5107 25.2213 46.52 25.2427 46.5354 25.261L47.0607 24.9918L47.2739 25.4049L45.7568 26.176L45.5436 25.7629L46.1122 25.4722C46.1029 25.4538 46.0905 25.4355 46.0813 25.4171C46.0596 25.3773 46.0442 25.3375 46.0287 25.2978C46.0102 25.2549 45.9947 25.2121 45.9793 25.1692C45.9638 25.1325 45.9484 25.0927 45.933 25.0499C45.9237 25.0285 45.9144 25.004 45.9051 24.9826C45.8959 24.9673 45.8866 24.952 45.8742 24.9367L45.2748 25.2396L45.0617 24.8265L46.5787 24.0584L46.7919 24.4715L46.2944 24.7225ZM21.1967 44.3896L20.965 44.1204C20.931 44.0836 20.897 44.0469 20.8569 44.0133C20.8291 43.9918 20.7982 43.9674 20.7673 43.9521C20.7487 43.9429 20.7271 43.9337 20.7086 43.9276C20.7055 43.9276 20.6993 43.9276 20.6962 43.9276L20.5448 43.9582L20.2142 43.5726L21.7436 43.1748L21.8858 42.8749L22.2194 43.2605L21.4408 44.9925L21.0979 44.5977L21.1967 44.3896ZM22.9486 44.6467C22.9641 44.6559 22.9764 44.6681 22.9919 44.6804C23.0166 44.7018 23.0413 44.7263 23.066 44.7507C23.0938 44.7844 23.1247 44.815 23.1525 44.8456C23.1834 44.8793 23.2143 44.9099 23.2452 44.9435C23.2699 44.968 23.2947 44.9925 23.3225 45.0139C23.3379 45.0292 23.3565 45.0414 23.375 45.0537L23.7612 44.6069L24.1165 44.9099L23.0104 46.192L22.652 45.8921L23.0691 45.4087C23.0506 45.3964 23.032 45.3842 23.0166 45.3689C22.9826 45.3413 22.9517 45.3107 22.9208 45.2801C22.8899 45.2465 22.859 45.2128 22.8281 45.1822C22.7972 45.1485 22.7694 45.1179 22.7385 45.0873C22.7231 45.069 22.7045 45.0506 22.686 45.0353C22.6705 45.0231 22.6582 45.0108 22.6427 45.0017L22.204 45.5096L21.8456 45.2067L22.9548 43.9245L23.3101 44.2275L22.9486 44.6467ZM24.6016 46.8285L24.3019 46.6357C24.2586 46.6082 24.2123 46.5837 24.166 46.5654C24.132 46.5501 24.098 46.5378 24.0609 46.5286C24.0424 46.5256 24.0177 46.5225 23.9991 46.5225C23.996 46.5225 23.9898 46.5256 23.9868 46.5256L23.8508 46.599L23.4213 46.3236L24.7777 45.5096L24.8272 45.1822L25.2597 45.4607L25.0033 47.3365L24.5645 47.055L24.6016 46.8285ZM26.6655 46.7061L26.1001 47.7925L25.6892 47.5813L26.2546 46.495L25.7973 46.2624L26.0136 45.8462L27.336 46.5225L27.1197 46.9387L26.6655 46.7061ZM28.9983 47.8904C28.9612 48.0067 28.8994 48.1107 28.8191 48.1995C28.7387 48.2851 28.646 48.3525 28.541 48.4014C28.439 48.4504 28.3278 48.4779 28.2104 48.4871C28.0899 48.4932 27.9725 48.481 27.8582 48.4412C27.7408 48.4045 27.6357 48.3463 27.543 48.2668C27.4534 48.1903 27.3823 48.1015 27.3267 47.9975C27.2742 47.8934 27.2433 47.7833 27.234 47.667C27.2248 47.5446 27.2402 47.4252 27.2773 47.309C27.3175 47.1957 27.3762 47.0917 27.4596 47.003C27.5368 46.9203 27.6295 46.853 27.7346 46.8041C27.8396 46.7551 27.9509 46.7306 28.0652 46.7214C28.1857 46.7153 28.3031 46.7306 28.4143 46.7673C28.5286 46.8041 28.6368 46.8622 28.7295 46.9418C28.816 47.0152 28.8901 47.107 28.9426 47.208C28.9952 47.312 29.0292 47.4222 29.0415 47.5354C29.0508 47.6578 29.0353 47.7772 28.9983 47.8904ZM29.9159 48.2729L29.8047 48.8543L29.3443 48.7686L29.6564 47.1101L30.5122 47.2692C30.5864 47.2814 30.6574 47.3059 30.7192 47.3426C30.781 47.3763 30.8366 47.4222 30.8768 47.4803C30.9201 47.5385 30.9448 47.6027 30.9602 47.6731C30.9726 47.7466 30.9726 47.8231 30.9571 47.8965C30.9448 47.9699 30.9201 48.0403 30.8799 48.1015C30.8428 48.1627 30.7934 48.2148 30.7347 48.2545C30.676 48.2943 30.608 48.3188 30.5369 48.331C30.4628 48.3433 30.3886 48.3433 30.3145 48.328L30.0611 48.2821C30.024 48.276 29.9839 48.2729 29.9437 48.2698C29.9344 48.2698 29.9252 48.2698 29.9159 48.2729ZM32.4711 48.2974L31.7512 49.1022L31.3495 49.0716L31.4793 47.3855L31.9458 47.4222L31.881 48.2729L32.6009 47.4712L33.0025 47.5018L32.8758 49.1848L32.4062 49.1511L32.4711 48.2974ZM37.8843 47.2263C37.8286 47.2019 37.7699 47.1866 37.7081 47.1804C37.6464 47.1774 37.5846 47.1866 37.5259 47.208C37.4672 47.2263 37.4146 47.2569 37.3683 47.2967C37.325 47.3304 37.291 47.3732 37.2663 47.4222C37.2416 47.4712 37.2262 47.5232 37.2231 47.5783C37.22 47.6364 37.2292 47.6945 37.2478 47.7496C37.2663 47.8016 37.2941 47.8506 37.3343 47.8904C37.3745 47.9302 37.4177 47.9608 37.4672 47.9791C37.5197 48.0036 37.5753 48.0128 37.6309 48.0158C37.6896 48.0189 37.7483 48.0097 37.8039 47.9914C37.8688 47.9669 37.9275 47.9332 37.977 47.8812C38.0264 47.8322 38.0604 47.7741 38.082 47.7098L38.1376 47.5507L38.5455 47.8261L38.5053 47.924C38.4559 48.0403 38.3817 48.1444 38.289 48.2301C38.1932 48.3219 38.082 48.3892 37.9553 48.432C37.841 48.4718 37.7174 48.4902 37.5969 48.481C37.4795 48.4749 37.3683 48.4473 37.2601 48.3953C37.1551 48.3463 37.0624 48.276 36.9852 48.1903C36.9017 48.0985 36.843 47.9944 36.8029 47.8781C36.7627 47.7649 36.7442 47.6486 36.7565 47.5262C36.7689 47.413 36.7998 47.3059 36.8554 47.2019C36.9079 47.1039 36.9821 47.0152 37.0686 46.9387C37.1582 46.8622 37.2601 46.8041 37.3714 46.7673C37.4888 46.7245 37.6093 46.7092 37.7329 46.7153C37.8534 46.7245 37.9646 46.752 38.0727 46.8041L38.1778 46.8561L38.0079 47.2875L37.8843 47.2263ZM39.7999 46.7888L39.5558 47.8353L39.1881 48.0005L38.4837 46.4613L38.9131 46.2716L39.2685 47.0489L39.5125 46.0023L39.8802 45.8371L40.5816 47.3763L40.1552 47.566L39.7999 46.7888ZM41.0234 45.9503C41.0296 45.9472 41.0389 45.9442 41.0481 45.9411C41.0852 45.9258 41.1192 45.9074 41.1532 45.886L41.3633 45.7514C41.4282 45.7085 41.4992 45.6749 41.5765 45.6535C41.6506 45.629 41.7279 45.6229 41.8051 45.632C41.8854 45.6412 41.9596 45.6688 42.0245 45.7147C42.0986 45.7636 42.1573 45.8279 42.2037 45.9013C42.25 45.9717 42.2809 46.0543 42.2871 46.14C42.2902 46.2165 42.2747 46.29 42.2438 46.3603C42.216 46.4277 42.1728 46.4858 42.1233 46.5409C42.0739 46.5898 42.0183 46.6357 41.9596 46.6725L41.2335 47.1345L40.3128 45.7147L41.3509 45.0537L41.6074 45.4454L40.9616 45.8554L41.0234 45.9503ZM43.1986 44.6865L43.2696 45.7575L42.9668 46.0207L41.8453 44.7477L42.2006 44.4417L42.766 45.0843L42.6949 44.0133L43.0008 43.7501L44.1193 45.0261L43.7671 45.3291L43.1986 44.6865ZM44.5704 43.9735L45.0246 44.3621L44.7156 44.711L43.4303 43.6063L44.0019 42.9514C44.0513 42.8963 44.1069 42.8504 44.1718 42.8137C44.2336 42.777 44.3016 42.7556 44.3726 42.7494C44.4437 42.7433 44.5148 42.7525 44.5797 42.777C44.6507 42.8015 44.7156 42.8412 44.7743 42.8902C44.8299 42.9392 44.8794 42.9973 44.9133 43.0646C44.9473 43.1258 44.9659 43.1932 44.9721 43.2635C44.9751 43.337 44.9659 43.4074 44.9381 43.4716C44.9133 43.542 44.8732 43.6032 44.8237 43.6613L44.6569 43.8511C44.6291 43.8817 44.6075 43.9123 44.5858 43.9459C44.5797 43.9551 44.5766 43.9643 44.5704 43.9735ZM45.3799 42.3149C45.3892 42.3088 45.3953 42.2996 45.4015 42.2935C45.4262 42.2659 45.451 42.2353 45.4726 42.2017L45.6085 41.9967C45.695 41.862 45.8094 41.7457 45.9638 41.6937C46.1245 41.6386 46.279 41.6784 46.418 41.7672C46.4984 41.8192 46.5694 41.8834 46.6158 41.9691C46.6529 42.0395 46.6745 42.116 46.6714 42.1986C46.6714 42.2721 46.6559 42.3455 46.6281 42.4159C46.6034 42.4771 46.5725 42.5352 46.5354 42.5903L46.0658 43.3064L44.6353 42.3883L44.8917 41.9997L45.3799 42.3149ZM29.1775 18.5992L29.2145 18.7675L29.5637 18.688C29.5822 18.6819 29.6038 18.6757 29.6224 18.6666C29.6378 18.6604 29.6502 18.6513 29.6625 18.639C29.6687 18.6329 29.6749 18.6237 29.678 18.6115C29.6811 18.6023 29.678 18.587 29.678 18.5778C29.6749 18.5686 29.6687 18.5503 29.6625 18.5442C29.6564 18.538 29.6471 18.5319 29.6378 18.5289C29.6224 18.5227 29.6008 18.5227 29.5853 18.5227C29.5575 18.5258 29.5297 18.5289 29.505 18.535L29.3196 18.5778C29.2732 18.587 29.2238 18.5962 29.1775 18.5992ZM35.1437 17.7394L35.1159 17.8924C35.1653 17.8954 35.2117 17.9015 35.2611 17.9107L35.5114 17.9536C35.5763 17.9658 35.5979 17.9597 35.6102 17.8924C35.6102 17.8832 35.6164 17.8465 35.6133 17.8373C35.5979 17.822 35.5577 17.8128 35.5392 17.8097L35.1437 17.7394ZM42.5559 21.3227C42.593 21.2799 42.6239 21.2309 42.6393 21.1789C42.6548 21.1269 42.661 21.0718 42.6548 21.0167C42.6486 20.9616 42.6301 20.9127 42.6053 20.8637C42.5775 20.8117 42.5374 20.7658 42.4941 20.726C42.4478 20.6862 42.3952 20.6556 42.3396 20.6342C42.2871 20.6158 42.2315 20.6067 42.1759 20.6128C42.1203 20.6158 42.0677 20.6281 42.0183 20.6526C41.9658 20.677 41.9194 20.7168 41.8823 20.7597C41.8453 20.8025 41.8175 20.8484 41.802 20.9035C41.7866 20.9555 41.7804 21.0106 41.7897 21.0626C41.7958 21.1177 41.8144 21.1728 41.8391 21.2217C41.8669 21.2738 41.904 21.3166 41.9472 21.3564C41.9905 21.3931 42.043 21.4237 42.0986 21.4421C42.1511 21.4604 42.2068 21.4696 42.2624 21.4635C42.318 21.4604 42.3705 21.4482 42.423 21.4237C42.4756 21.3992 42.5188 21.3656 42.5559 21.3227ZM43.8968 21.8582L43.7856 21.9653C43.8227 21.9959 43.8598 22.0296 43.8937 22.0633L44.0699 22.2469C44.1162 22.2958 44.1347 22.3019 44.1842 22.256C44.1904 22.2469 44.2151 22.2224 44.2182 22.2132C44.2151 22.1918 44.1904 22.1612 44.1749 22.1459L43.8968 21.8582ZM44.9535 23.682L45.0524 23.4954L44.8423 23.5321C44.8701 23.5658 44.8979 23.6025 44.9226 23.6361L44.9535 23.682ZM21.4099 43.9184L21.4903 43.7225L21.2833 43.7807C21.3172 43.8113 21.3451 43.8449 21.3729 43.8755L21.4099 43.9184ZM24.6696 46.3175L24.6881 46.1064L24.5089 46.2196C24.5491 46.241 24.5862 46.2655 24.6232 46.2869L24.6696 46.3175ZM28.5564 47.7343C28.575 47.6823 28.5812 47.6272 28.575 47.5691C28.5688 47.5171 28.5533 47.465 28.5255 47.4161C28.4977 47.3671 28.4637 47.3273 28.4205 47.2937C28.3741 47.2539 28.3216 47.2294 28.266 47.211C28.2073 47.1927 28.1455 47.1804 28.0868 47.1866C28.0312 47.1896 27.9787 47.2019 27.9261 47.2233C27.8767 47.2478 27.8365 47.2814 27.7995 47.3243C27.7593 47.3671 27.7315 47.4191 27.7129 47.4773C27.6944 47.5293 27.6882 47.5844 27.6944 47.6395C27.7037 47.6915 27.7191 47.7435 27.7469 47.7894C27.7747 47.8384 27.8118 47.8812 27.8551 47.9179C27.9014 47.9546 27.9509 47.9822 28.0065 48.0005C28.0621 48.0189 28.1208 48.025 28.1795 48.022C28.2351 48.0158 28.2907 48.0036 28.3402 47.9791C28.3896 47.9546 28.4359 47.921 28.473 47.8812C28.5101 47.8384 28.5379 47.7894 28.5564 47.7343ZM30.0302 47.6548L30.0024 47.8078C30.0519 47.8078 30.1013 47.8139 30.1476 47.8231L30.401 47.869C30.4659 47.8812 30.4844 47.8751 30.4968 47.8108C30.4999 47.7986 30.5029 47.7649 30.4999 47.7557C30.4875 47.7404 30.4442 47.7282 30.4257 47.7251L30.0302 47.6548ZM41.3725 46.4919L41.7217 46.2685C41.7402 46.2563 41.7588 46.2441 41.7742 46.2288C41.7835 46.2165 41.7958 46.2043 41.802 46.189C41.8051 46.1798 41.8082 46.1706 41.8082 46.1614C41.8082 46.1523 41.7989 46.137 41.7927 46.1278C41.7897 46.1217 41.7773 46.1064 41.768 46.1002C41.7588 46.0972 41.7495 46.0941 41.7402 46.0972C41.7217 46.0972 41.7031 46.1002 41.6877 46.1094C41.663 46.1186 41.6383 46.1308 41.6166 46.1461L41.4096 46.2777C41.3664 46.3053 41.3262 46.3267 41.2799 46.3481L41.3725 46.4919ZM44.0915 43.5604L44.212 43.6613C44.2367 43.6216 44.2676 43.5818 44.2985 43.5451L44.4684 43.3553C44.5117 43.3064 44.5148 43.285 44.4653 43.2421C44.4561 43.2329 44.4283 43.2115 44.419 43.2115C44.3974 43.2146 44.3696 43.2452 44.3572 43.2605L44.0915 43.5604ZM45.7816 42.572L45.9268 42.6638L46.1523 42.318C46.1647 42.3027 46.1739 42.2812 46.1801 42.2629C46.1863 42.2476 46.1894 42.2323 46.1894 42.217C46.1894 42.2047 46.1894 42.1956 46.1832 42.1864C46.1801 42.1772 46.1647 42.168 46.1585 42.1619C46.1492 42.1588 46.1338 42.1466 46.1245 42.1466C46.1152 42.1466 46.106 42.1497 46.0967 42.1527C46.0813 42.1619 46.0658 42.1741 46.0534 42.1864C46.0349 42.2078 46.0195 42.2262 46.004 42.2506L45.8681 42.4557C45.8433 42.4955 45.8125 42.5352 45.7816 42.572Z" fill="#AF4323"/>
<path d="M20.7577 42.4064C20.7763 42.3329 20.7763 42.2564 20.7639 42.1799C20.7485 42.1034 20.7207 42.03 20.6743 41.9627C20.6311 41.8954 20.5785 41.8403 20.5198 41.7974C20.458 41.7546 20.3932 41.724 20.3221 41.7087C20.2541 41.6934 20.1831 41.6903 20.1089 41.7026C20.0378 41.7148 19.9668 41.7423 19.8988 41.7883C19.8339 41.828 19.7814 41.8801 19.7443 41.9413C19.7041 42.0055 19.6794 42.0698 19.6671 42.1402C19.6578 42.2105 19.6578 42.2809 19.6732 42.3513C19.6887 42.4217 19.7165 42.4921 19.7567 42.5533C19.8092 42.6328 19.871 42.694 19.9482 42.7369C20.0255 42.7797 20.1089 42.8073 20.1954 42.8134L20.1182 43.0184C20.01 43 19.9081 42.9633 19.8154 42.9021C19.7196 42.844 19.6424 42.7644 19.5775 42.6665C19.5157 42.5747 19.4786 42.4798 19.4601 42.3788C19.4415 42.2809 19.4446 42.183 19.4662 42.0881C19.4848 41.9902 19.5249 41.9015 19.5836 41.8158C19.6393 41.7332 19.7165 41.6597 19.8061 41.6016C19.8957 41.5434 19.9884 41.5098 20.0904 41.4945C20.1892 41.4822 20.285 41.4853 20.3808 41.5098C20.4766 41.5343 20.5631 41.574 20.6465 41.6322C20.7299 41.6903 20.7979 41.7638 20.8566 41.8495C20.9153 41.9413 20.9524 42.0361 20.9709 42.1371C20.9895 42.2381 20.9864 42.336 20.9647 42.4339L20.7577 42.4064ZM19.5157 24.1132C19.4446 24.1346 19.3766 24.1713 19.3148 24.2203C19.2561 24.2723 19.2067 24.3335 19.1696 24.407C19.1326 24.4773 19.1109 24.5477 19.1017 24.6212C19.0955 24.6977 19.1017 24.768 19.1202 24.8354C19.1418 24.9027 19.1758 24.9639 19.2222 25.019C19.2716 25.0771 19.3303 25.123 19.4014 25.1597C19.4724 25.1934 19.5435 25.2118 19.6176 25.2148C19.6887 25.2179 19.7598 25.2056 19.8277 25.1812C19.8926 25.1567 19.9544 25.12 20.01 25.071C20.0656 25.0251 20.1089 24.967 20.1429 24.8996C20.1861 24.817 20.2078 24.7313 20.2078 24.6426C20.2078 24.5538 20.1892 24.4712 20.1552 24.3917L20.3715 24.358C20.4086 24.459 20.4271 24.5661 20.421 24.6762C20.4148 24.7864 20.387 24.8935 20.3344 24.9976C20.2819 25.0924 20.2201 25.175 20.1398 25.2393C20.0626 25.3036 19.976 25.3525 19.8803 25.3831C19.7876 25.4137 19.6887 25.4229 19.5867 25.4168C19.4817 25.4076 19.3828 25.3801 19.287 25.3311C19.1913 25.2821 19.114 25.2209 19.0522 25.1414C18.9904 25.0649 18.9472 24.9792 18.9194 24.8843C18.8916 24.7925 18.8854 24.6946 18.8946 24.5936C18.9039 24.4957 18.9317 24.3978 18.9781 24.309C19.0306 24.2111 19.0955 24.1285 19.1727 24.0642C19.253 24 19.3396 23.951 19.4353 23.9204L19.5157 24.1132ZM20.9647 23.8072L21.4807 23.085L21.6568 23.2074L21.0173 24.1009L19.837 23.2686L20.4271 22.4485L20.6002 22.5709L20.1336 23.2196L20.492 23.4736C20.4951 23.4247 20.5106 23.3788 20.5322 23.339C20.5538 23.2992 20.5785 23.2594 20.6033 23.2196L20.7886 22.9657L20.9617 23.0881L20.7794 23.342C20.7516 23.3818 20.7268 23.4186 20.7083 23.4614C20.6867 23.5012 20.6712 23.5471 20.665 23.596L20.9647 23.8072ZM22.3489 21.9864L21.5827 21.9344L22.3026 22.6137L22.1574 22.7637L21.2583 21.913L20.9956 21.8946L21.1841 21.6988L22.1048 21.76L22.006 20.845L22.1945 20.6492L22.2253 20.9093L23.1245 21.76L22.9823 21.9069L22.2624 21.2275L22.3489 21.9864ZM23.8382 21.1388L24.5395 20.591L24.6724 20.7563L23.8042 21.4326L22.9113 20.3064L23.7115 19.6822L23.8444 19.8505L23.2079 20.3432L23.4798 20.6859C23.4983 20.64 23.523 20.6002 23.557 20.5665C23.5879 20.5359 23.6219 20.5053 23.6621 20.4747L23.9092 20.282L24.0421 20.4472L23.7918 20.64C23.7548 20.6706 23.7208 20.7012 23.6899 20.7349C23.659 20.7685 23.6312 20.8083 23.6126 20.8511L23.8382 21.1388ZM25.4386 18.7121L25.6209 18.6081L26.3439 19.8505L26.1585 19.9545L25.6055 18.9967L25.4232 20.3738L25.2409 20.4778L24.5179 19.2354L24.7033 19.1314L25.2594 20.0892L25.4386 18.7121ZM24.9597 18.7091C24.9845 18.6938 25.0061 18.6785 25.0184 18.6601C25.0308 18.6418 25.037 18.6234 25.0401 18.605C25.0401 18.5897 25.0401 18.5714 25.0339 18.5561C25.0308 18.5377 25.0215 18.5255 25.0154 18.5102L25.21 18.4C25.2193 18.4275 25.2285 18.4581 25.2347 18.4949C25.2378 18.5285 25.2347 18.5653 25.2255 18.602C25.2131 18.6418 25.1946 18.6785 25.1637 18.7183C25.1328 18.755 25.0864 18.7917 25.0246 18.8254C24.9659 18.859 24.9103 18.8804 24.8609 18.8896C24.8145 18.8957 24.7682 18.8927 24.7311 18.8835C24.6909 18.8743 24.66 18.859 24.6322 18.8376C24.6044 18.8131 24.5797 18.7917 24.5643 18.7672L24.7558 18.6571C24.7651 18.6724 24.7744 18.6846 24.7867 18.6968C24.796 18.7091 24.8114 18.7183 24.8269 18.7274C24.8454 18.7336 24.864 18.7366 24.8856 18.7366C24.9072 18.7336 24.9319 18.7244 24.9597 18.7091ZM27.2399 19.5659L27.0422 19.6424L26.5139 18.3082L26.7085 18.2317L26.9248 18.7795C26.9464 18.755 26.9711 18.7366 26.9989 18.7183C27.0268 18.703 27.0546 18.6877 27.0824 18.6754C27.1009 18.6693 27.1287 18.6601 27.1689 18.6509C27.206 18.6387 27.2492 18.6295 27.2925 18.6173C27.3388 18.605 27.3821 18.5928 27.4253 18.5806C27.4686 18.5683 27.5057 18.5561 27.5366 18.5438C27.5644 18.5347 27.5922 18.5194 27.6231 18.5041C27.654 18.4857 27.6818 18.4643 27.7034 18.4398L27.4995 17.9226L27.6972 17.8461L28.2256 19.1803L28.0309 19.2568L27.7837 18.6356C27.759 18.6601 27.7312 18.6815 27.7034 18.6999C27.6725 18.7152 27.6416 18.7305 27.6138 18.7427C27.586 18.7519 27.5489 18.7642 27.5057 18.7764C27.4593 18.7886 27.4161 18.8009 27.3728 18.8131C27.3265 18.8254 27.2863 18.8376 27.2492 18.8468C27.209 18.856 27.1812 18.8651 27.1627 18.8743C27.1318 18.8835 27.104 18.8988 27.0793 18.9141C27.0515 18.9325 27.0268 18.9508 27.0051 18.9753L27.2399 19.5659ZM29.5912 18.6571C29.619 18.6509 29.6468 18.6418 29.6777 18.6295C29.7055 18.6142 29.7302 18.5989 29.7519 18.5775C29.7735 18.5561 29.789 18.5285 29.8013 18.501C29.8106 18.4704 29.8106 18.4367 29.8013 18.3969C29.792 18.3541 29.7766 18.3235 29.755 18.299C29.7302 18.2776 29.7055 18.2623 29.6746 18.2531C29.6468 18.2439 29.6128 18.2409 29.5789 18.2439C29.5449 18.2439 29.5109 18.2501 29.4769 18.2562L29.2915 18.299C29.2452 18.3082 29.1988 18.3174 29.1525 18.3204C29.1061 18.3235 29.0598 18.3204 29.0103 18.3051L29.1185 18.7672L29.5912 18.6571ZM28.9609 18.0971C29.0103 18.1093 29.0567 18.1154 29.1061 18.1124C29.1525 18.1093 29.1988 18.1032 29.2421 18.094L29.4275 18.0512C29.5789 18.0144 29.7086 18.0236 29.8106 18.0695C29.9156 18.1185 29.9836 18.2103 30.0145 18.348C30.0361 18.4306 30.0361 18.5041 30.0176 18.5622C29.9991 18.6234 29.9712 18.6724 29.9311 18.7152C29.8878 18.755 29.8415 18.7886 29.7859 18.8131C29.7272 18.8376 29.6715 18.856 29.619 18.8682L28.9609 19.0181L28.6334 17.6227L28.8404 17.5768L28.9609 18.0971ZM30.2895 18.7152L29.9651 17.3198L30.1659 17.2708L30.4934 18.6693L30.2895 18.7152ZM32.1804 17.0811L32.3905 17.0658L32.4986 18.4949L32.2885 18.5102L32.2051 17.4085L31.4419 18.5744L31.2318 18.5897L31.1206 17.1607L31.3307 17.1454L31.4172 18.247L32.1804 17.0811ZM31.7478 16.873C31.7787 16.87 31.8034 16.8638 31.822 16.8547C31.8405 16.8424 31.856 16.8302 31.8652 16.8149C31.8745 16.7996 31.8807 16.7843 31.8838 16.7659C31.8838 16.7506 31.8869 16.7323 31.8838 16.717L32.1062 16.7017C32.1062 16.7292 32.1001 16.7629 32.0877 16.7965C32.0784 16.8302 32.0599 16.8608 32.0352 16.8914C32.0074 16.9189 31.9734 16.9465 31.927 16.9679C31.8838 16.9893 31.8282 17.0015 31.7571 17.0077C31.686 17.0107 31.6304 17.0077 31.581 16.9924C31.5346 16.9771 31.4976 16.9587 31.4667 16.9342C31.4358 16.9067 31.411 16.8791 31.3956 16.8485C31.3802 16.8149 31.3709 16.7873 31.3647 16.7567L31.5872 16.7414C31.5872 16.7567 31.5903 16.772 31.5964 16.7873C31.6026 16.8026 31.6088 16.8179 31.6211 16.8332C31.6335 16.8455 31.649 16.8577 31.6706 16.8638C31.6891 16.873 31.7169 16.8761 31.7478 16.873ZM35.4895 17.9257C35.6285 17.9502 35.7119 17.8951 35.7366 17.7635C35.749 17.6901 35.7397 17.638 35.7088 17.6013C35.6779 17.5677 35.6285 17.5432 35.5605 17.5309L35.0384 17.4391L34.958 17.889C35.0044 17.8737 35.0507 17.8645 35.0971 17.8676C35.1434 17.8676 35.1898 17.8737 35.2392 17.8829L35.4895 17.9257ZM34.612 18.605L34.8684 17.1943L35.6007 17.3229C35.6625 17.3351 35.7181 17.3535 35.7644 17.381C35.8139 17.4085 35.854 17.4422 35.8819 17.482C35.9128 17.5248 35.9344 17.5707 35.9437 17.6258C35.956 17.6778 35.956 17.736 35.9437 17.8002C35.9313 17.8614 35.9128 17.9165 35.8849 17.9624C35.854 18.0083 35.8201 18.0481 35.7768 18.0756C35.7336 18.1062 35.6841 18.1277 35.6285 18.1368C35.576 18.146 35.5173 18.146 35.4524 18.1338L35.2021 18.0909C35.1558 18.0818 35.1094 18.0756 35.06 18.0756C35.0136 18.0756 34.9673 18.0818 34.9179 18.0971L34.8221 18.6418L34.612 18.605ZM36.6327 18.7856L37.4885 19.0273L37.4329 19.2293L36.37 18.9325L36.7655 17.5524L37.745 17.8278L37.6862 18.0328L36.9107 17.8125L36.7902 18.2317C36.8397 18.2195 36.886 18.2164 36.9324 18.2256C36.9756 18.2317 37.022 18.2409 37.0683 18.2531L37.3711 18.3388L37.3155 18.5438L37.0096 18.4581C36.9663 18.4459 36.92 18.4367 36.8737 18.4306C36.8273 18.4245 36.781 18.4275 36.7315 18.4367L36.6327 18.7856ZM39.5092 18.9172C39.4814 18.8468 39.4412 18.7825 39.3887 18.7244C39.3362 18.6662 39.2713 18.6203 39.194 18.5867C39.123 18.553 39.0488 18.5347 38.9747 18.5316C38.8974 18.5285 38.8294 18.5377 38.7615 18.5622C38.6935 18.5867 38.6317 18.6234 38.5792 18.6724C38.5236 18.7213 38.4803 18.7825 38.4463 18.856C38.4154 18.9263 38.4 18.9967 38.4 19.0702C38.4 19.1405 38.4154 19.2109 38.4432 19.2752C38.4741 19.3395 38.5143 19.3976 38.5637 19.4496C38.6162 19.5047 38.675 19.5445 38.746 19.5751C38.8325 19.6149 38.919 19.6332 39.0086 19.6271C39.0952 19.624 39.1786 19.6026 39.2558 19.5598L39.3022 19.774C39.2033 19.8168 39.0952 19.8382 38.9839 19.8382C38.8727 19.8413 38.7646 19.8168 38.6564 19.7679C38.5575 19.722 38.471 19.6638 38.4031 19.5904C38.332 19.5139 38.2795 19.4313 38.2455 19.3395C38.2115 19.2477 38.193 19.1528 38.196 19.0487C38.1991 18.9478 38.2239 18.8468 38.2671 18.7489C38.3104 18.654 38.3722 18.5744 38.4463 18.5071C38.5236 18.4428 38.607 18.3939 38.6997 18.3633C38.7924 18.3327 38.8912 18.3204 38.9901 18.3235C39.0921 18.3296 39.1909 18.3541 39.2836 18.3939C39.3856 18.4398 39.469 18.501 39.5401 18.5744C39.6111 18.6509 39.6637 18.7366 39.6976 18.8284L39.5092 18.9172ZM40.9304 19.4741L40.2631 20.5023L40.09 20.3921L40.7574 19.3639L40.3218 19.0885L40.4361 18.908L41.4742 19.5659L41.3599 19.7464L40.9304 19.4741ZM42.6545 21.252C42.707 21.1939 42.741 21.1296 42.7626 21.0592C42.7843 20.9919 42.7904 20.9215 42.7812 20.8511C42.775 20.7808 42.7534 20.7134 42.7163 20.6492C42.6823 20.5849 42.636 20.5268 42.5773 20.4778C42.5186 20.4258 42.4506 20.386 42.3826 20.3615C42.3115 20.337 42.2405 20.3248 42.1694 20.3309C42.0983 20.334 42.0304 20.3523 41.9624 20.3829C41.8975 20.4166 41.8357 20.4625 41.7832 20.5237C41.7338 20.5819 41.6967 20.6461 41.6781 20.7165C41.6565 20.7838 41.6503 20.8542 41.6596 20.9246C41.6689 20.995 41.6905 21.0623 41.7245 21.1265C41.7585 21.1908 41.8048 21.2489 41.8635 21.2979C41.9222 21.3499 41.984 21.3867 42.0551 21.4081C42.1262 21.4326 42.1972 21.4417 42.2683 21.4387C42.3393 21.4356 42.4104 21.4173 42.4753 21.3867C42.5433 21.3561 42.602 21.3132 42.6545 21.252ZM42.8059 21.3989C42.7348 21.4785 42.6545 21.5397 42.5618 21.5825C42.4691 21.6223 42.3764 21.6468 42.2776 21.6498C42.1787 21.6559 42.0829 21.6406 41.9871 21.607C41.8882 21.5764 41.8017 21.5244 41.7214 21.457C41.638 21.3867 41.5731 21.304 41.5298 21.2153C41.4835 21.1235 41.4588 21.0286 41.4495 20.9307C41.4433 20.8328 41.4557 20.7349 41.4866 20.6369C41.5206 20.5421 41.57 20.4533 41.6411 20.3707C41.7121 20.2911 41.7925 20.2299 41.8852 20.1902C41.9748 20.1504 42.0705 20.1259 42.1663 20.1228C42.2652 20.1198 42.3641 20.1351 42.4598 20.1687C42.5556 20.2024 42.6421 20.2514 42.7194 20.3187C42.7997 20.3891 42.8646 20.4686 42.9109 20.5604C42.9573 20.6522 42.982 20.744 42.9913 20.842C42.9975 20.9399 42.9882 21.0378 42.9573 21.1327C42.9264 21.2306 42.877 21.3193 42.8059 21.3989ZM43.9769 22.1823C44.0727 22.2833 44.1715 22.2894 44.2704 22.1945C44.326 22.1456 44.3507 22.0966 44.3477 22.0507C44.3415 22.0048 44.3168 21.9558 44.2673 21.9038L43.9027 21.5244L43.566 21.8426C43.6154 21.8548 43.6587 21.8763 43.6957 21.9038C43.7328 21.9344 43.7668 21.965 43.7977 21.9987L43.9769 22.1823ZM42.8646 22.2159L43.912 21.2275L44.4249 21.76C44.4682 21.8059 44.5021 21.8548 44.5238 21.9038C44.5454 21.9558 44.5578 22.0048 44.5578 22.0568C44.5578 22.1058 44.5454 22.1578 44.5207 22.2068C44.4991 22.2557 44.4651 22.3016 44.4187 22.3475C44.3693 22.3904 44.3229 22.424 44.2704 22.4424C44.221 22.4638 44.1685 22.473 44.1159 22.473C44.0634 22.4699 44.014 22.4577 43.9614 22.4332C43.912 22.4087 43.8657 22.3751 43.8224 22.3292L43.6463 22.1456C43.6123 22.1119 43.5783 22.0813 43.5412 22.0538C43.5011 22.0232 43.4609 22.0017 43.4115 21.9864L43.0098 22.3659L42.8646 22.2159ZM45.5341 22.7668L45.6701 22.9534L44.8729 24.3611L44.737 24.1713L44.8544 23.9724L44.5979 23.6175C44.5608 23.5624 44.5238 23.5195 44.4867 23.4828C44.4496 23.4461 44.4125 23.4186 44.3816 23.3971C44.3477 23.3757 44.3199 23.3604 44.292 23.3543C44.2673 23.3451 44.2457 23.342 44.2272 23.3451L44.1499 23.3543L44.0171 23.1707L45.4352 22.932L45.5341 22.7668ZM44.9718 23.7735L45.2869 23.1676L44.5361 23.3053C44.5701 23.3145 44.6103 23.339 44.6566 23.3757C44.7061 23.4155 44.7586 23.4767 44.8173 23.5563L44.9718 23.7735ZM45.3302 24.9149L45.2344 24.7283L46.5228 24.0765L46.6186 24.2631L46.0903 24.5294C46.115 24.5477 46.1366 24.5691 46.1582 24.5936C46.1768 24.6212 46.1922 24.6456 46.2077 24.6732C46.2169 24.6915 46.2293 24.7191 46.2416 24.7558C46.2571 24.7925 46.2725 24.8323 46.288 24.8752C46.3034 24.918 46.322 24.9608 46.3374 25.0006C46.3529 25.0435 46.3683 25.0802 46.3838 25.1077C46.3992 25.1353 46.4147 25.1597 46.4363 25.1903C46.4548 25.2179 46.4796 25.2424 46.5074 25.2638L47.0048 25.0098L47.1006 25.1965L45.8153 25.8513L45.7164 25.6647L46.3158 25.3586C46.2911 25.3403 46.2664 25.3158 46.2447 25.2852C46.2262 25.2577 46.2077 25.2301 46.1953 25.2056C46.1799 25.175 46.1644 25.1414 46.149 25.0985C46.1304 25.0588 46.115 25.0159 46.0995 24.9731C46.081 24.9302 46.0686 24.8905 46.0532 24.8537C46.0377 24.817 46.0285 24.7895 46.0192 24.7711C46.0037 24.7436 45.9883 24.716 45.9667 24.6915C45.9481 24.6671 45.9265 24.6456 45.8987 24.6273L45.3302 24.9149ZM21.9195 42.9541L22.0709 43.1286L21.4066 44.6005L21.2521 44.423L21.351 44.2149L21.0636 43.8844C21.0204 43.8354 20.9802 43.7926 20.94 43.762C20.8999 43.7283 20.8628 43.7039 20.8257 43.6855C20.7917 43.6671 20.7608 43.6549 20.7361 43.6488C20.7083 43.6457 20.6867 43.6427 20.6681 43.6488L20.594 43.6641L20.4457 43.4927L21.833 43.1286L21.9195 42.9541ZM21.4498 44.0068L21.7094 43.3764L20.974 43.5815C21.008 43.5876 21.0513 43.6059 21.1007 43.6396C21.1501 43.6733 21.2088 43.7283 21.2768 43.8048L21.4498 44.0068ZM22.1883 45.1758L22.0276 45.0411L22.9669 43.9517L23.1275 44.0864L22.7413 44.5331C22.7722 44.5423 22.8031 44.5546 22.8309 44.5699C22.8587 44.5852 22.8835 44.6035 22.9082 44.6219C22.9236 44.6372 22.9452 44.6556 22.97 44.6862C22.9978 44.7137 23.0287 44.7443 23.0596 44.778C23.0905 44.8116 23.1214 44.8453 23.1523 44.8789C23.1862 44.9095 23.2141 44.9371 23.2388 44.9585C23.2604 44.9769 23.2851 44.9952 23.316 45.0136C23.3469 45.0319 23.3778 45.0472 23.4087 45.0564L23.7733 44.6341L23.934 44.7718L22.9947 45.8582L22.834 45.7235L23.2728 45.2155C23.2388 45.2064 23.2079 45.1941 23.177 45.1758C23.1492 45.1574 23.1214 45.139 23.0997 45.1176C23.075 45.0993 23.0472 45.0717 23.0163 45.0381C22.9854 45.0075 22.9514 44.9738 22.9205 44.9401C22.8896 44.9065 22.8618 44.8759 22.834 44.8483C22.8062 44.8177 22.7846 44.7963 22.7691 44.7841C22.7444 44.7627 22.7197 44.7474 22.6919 44.7321C22.6672 44.7168 22.6363 44.7045 22.6054 44.6953L22.1883 45.1758ZM24.9258 45.2431L25.1204 45.3686L24.9041 46.969L24.7033 46.8405L24.7404 46.614L24.3696 46.3753C24.314 46.3417 24.2646 46.3141 24.2151 46.2927C24.1688 46.2743 24.1255 46.259 24.0884 46.2499C24.0483 46.2437 24.0174 46.2407 23.9896 46.2437C23.9618 46.2437 23.9401 46.2499 23.9247 46.259L23.8567 46.2958L23.6652 46.1734L24.8949 45.4359L24.9258 45.2431ZM24.7774 46.3845L24.8423 45.7082L24.1997 46.1091C24.2306 46.106 24.2769 46.1122 24.3356 46.1305C24.3943 46.1489 24.4685 46.1856 24.5519 46.2407L24.7774 46.3845ZM26.6096 46.3814L26.0442 47.4678L25.8619 47.3729L26.4274 46.2866L25.9701 46.054L26.0689 45.8643L27.1627 46.4243L27.0638 46.614L26.6096 46.3814ZM28.6797 47.6208C28.7045 47.5473 28.7106 47.4739 28.7014 47.4004C28.6952 47.3301 28.6736 47.2627 28.6396 47.2015C28.6025 47.1403 28.5592 47.0853 28.5005 47.0394C28.4449 46.9935 28.38 46.9598 28.3059 46.9353C28.2287 46.9108 28.1545 46.9017 28.0773 46.9047C28.0031 46.9078 27.9351 46.9261 27.8702 46.9567C27.8054 46.9873 27.7497 47.0302 27.7003 47.0853C27.654 47.1403 27.6169 47.2046 27.5891 47.2842C27.5675 47.3545 27.5582 47.428 27.5675 47.5014C27.5767 47.5718 27.5984 47.6391 27.6354 47.7003C27.6694 47.7615 27.7158 47.8166 27.7714 47.8625C27.8301 47.9084 27.895 47.9451 27.966 47.9666C28.0402 47.991 28.1143 48.0002 28.1885 47.9941C28.2626 47.988 28.3337 47.9727 28.3955 47.939C28.4604 47.9084 28.516 47.8656 28.5685 47.8136C28.618 47.7585 28.655 47.6942 28.6797 47.6208ZM28.8744 47.6973C28.8435 47.7983 28.791 47.887 28.723 47.9604C28.655 48.0339 28.5747 48.089 28.4882 48.1318C28.3986 48.1747 28.3028 48.1991 28.2008 48.2053C28.0989 48.2114 28 48.1991 27.8981 48.1685C27.793 48.1349 27.7034 48.0828 27.6262 48.0155C27.5489 47.9513 27.4871 47.8717 27.4439 47.786C27.3975 47.6973 27.3728 47.6024 27.3635 47.5014C27.3543 47.4004 27.3666 47.2995 27.4006 47.1954C27.4346 47.0975 27.484 47.0088 27.552 46.9384C27.62 46.8649 27.7003 46.8068 27.7899 46.767C27.8764 46.7272 27.9722 46.7027 28.0742 46.6966C28.1761 46.6905 28.275 46.7027 28.3739 46.7364C28.4758 46.767 28.5654 46.819 28.6427 46.8833C28.7199 46.9506 28.7817 47.0271 28.8281 47.1128C28.8744 47.2015 28.9022 47.2933 28.9115 47.3943C28.9207 47.4953 28.9084 47.5963 28.8744 47.6973ZM30.376 47.8411C30.515 47.8686 30.5985 47.8136 30.6232 47.6789C30.6355 47.6085 30.6294 47.5535 30.5985 47.5198C30.5676 47.4831 30.5181 47.4586 30.4502 47.4464L29.928 47.3515L29.8415 47.8013C29.8909 47.786 29.9373 47.7768 29.9836 47.7799C30.03 47.783 30.0763 47.786 30.1257 47.7952L30.376 47.8411ZM29.4954 48.5143L29.7581 47.1067L30.4903 47.2383C30.5521 47.2505 30.6077 47.2719 30.6541 47.2995C30.7035 47.327 30.7437 47.3607 30.7715 47.4004C30.8024 47.4433 30.824 47.4892 30.8333 47.5443C30.8425 47.5963 30.8425 47.6544 30.8302 47.7187C30.8178 47.7799 30.7993 47.835 30.7684 47.8809C30.7406 47.9268 30.7035 47.9666 30.6603 47.9941C30.617 48.0247 30.5706 48.0431 30.515 48.0522C30.4594 48.0614 30.4007 48.0614 30.3389 48.0492L30.0856 48.0033C30.0392 47.9941 29.9929 47.991 29.9465 47.991C29.9002 47.988 29.8507 47.9972 29.8044 48.0094L29.7024 48.551L29.4954 48.5143ZM32.6531 47.4494L32.8663 47.4647L32.7551 48.8938L32.545 48.8785L32.6284 47.7768L31.6984 48.8142L31.4883 48.7989L31.5964 47.3698L31.8065 47.3851L31.7231 48.4868L32.6531 47.4494ZM34.6645 47.3362L34.8746 47.3209L34.9858 48.7469L34.7757 48.7652L34.6892 47.6636L33.9292 48.8295L33.716 48.8448L33.6078 47.4157L33.8179 47.4004L33.9014 48.499L34.6645 47.3362ZM34.232 47.1281C34.2629 47.125 34.2876 47.1189 34.3092 47.1067C34.3277 47.0975 34.3401 47.0853 34.3494 47.07C34.3586 47.0547 34.3648 47.0363 34.3679 47.021C34.371 47.0026 34.371 46.9873 34.371 46.972L34.5934 46.9567C34.5904 46.9843 34.5842 47.0179 34.5749 47.0516C34.5656 47.0853 34.5471 47.1159 34.5193 47.1434C34.4946 47.174 34.4575 47.1985 34.4142 47.2199C34.371 47.2413 34.3123 47.2566 34.2443 47.2597C34.1732 47.2658 34.1145 47.2627 34.0682 47.2474C34.0219 47.2321 33.9817 47.2138 33.9508 47.1893C33.9199 47.1618 33.8983 47.1342 33.8828 47.1036C33.8674 47.07 33.855 47.0394 33.8488 47.0118L34.0713 46.9935C34.0744 47.0088 34.0775 47.0271 34.0836 47.0424C34.0867 47.0577 34.096 47.073 34.1084 47.0883C34.1176 47.1006 34.1331 47.1128 34.1547 47.1189C34.1763 47.1281 34.2011 47.1281 34.232 47.1281ZM37.9396 46.9598C37.8716 46.9261 37.7975 46.9078 37.7171 46.9017C37.6399 46.8955 37.5596 46.9078 37.4823 46.9323C37.4082 46.9598 37.3402 46.9965 37.2846 47.0455C37.2259 47.0914 37.1826 47.1495 37.1517 47.2107C37.1177 47.275 37.0992 47.3423 37.0961 47.4157C37.0899 47.4892 37.0992 47.5626 37.127 47.6391C37.1517 47.7126 37.1919 47.7738 37.2413 47.8258C37.2939 47.8778 37.3526 47.9176 37.4174 47.9451C37.4823 47.9727 37.5534 47.988 37.6275 47.991C37.6986 47.9941 37.7728 47.9819 37.8438 47.9574C37.9334 47.9268 38.0107 47.8809 38.0694 47.8166C38.1312 47.7524 38.1775 47.6789 38.2053 47.5963L38.3845 47.7187C38.3444 47.8197 38.2826 47.9084 38.2022 47.9849C38.1188 48.0614 38.023 48.1196 37.9149 48.1563C37.8098 48.193 37.7079 48.2083 37.6028 48.2022C37.5009 48.1961 37.4051 48.1685 37.3186 48.1287C37.229 48.0859 37.1486 48.0247 37.0807 47.9513C37.0127 47.8748 36.9602 47.786 36.9231 47.685C36.8891 47.5841 36.8767 47.4861 36.886 47.3851C36.8953 47.2872 36.9231 47.1954 36.9694 47.1097C37.0158 47.0241 37.0745 46.9476 37.1517 46.8833C37.229 46.816 37.3155 46.767 37.4144 46.7334C37.5194 46.6966 37.6214 46.6844 37.7233 46.6905C37.8284 46.6966 37.9242 46.7211 38.0168 46.767L37.9396 46.9598ZM39.6235 45.9408L39.8151 45.852L40.4114 47.1587L40.2198 47.2444L39.7594 46.2376L39.4443 47.5902L39.2527 47.6789L38.6564 46.3723L38.848 46.2866L39.3083 47.2933L39.6235 45.9408ZM40.9613 45.9377C41.0108 45.9347 41.0571 45.9224 41.1004 45.9041C41.1436 45.8857 41.1838 45.8643 41.224 45.8398L41.431 45.7052C41.4928 45.6684 41.5515 45.6409 41.6133 45.6225C41.672 45.6042 41.7307 45.5981 41.7894 45.6042C41.8481 45.6103 41.9006 45.6317 41.9531 45.6654C42.0057 45.7021 42.052 45.7511 42.0953 45.8153C42.1323 45.8765 42.154 45.9347 42.1571 45.9928C42.1601 46.0479 42.1478 46.103 42.1262 46.155C42.1045 46.207 42.0705 46.2529 42.0273 46.2988C41.9871 46.3417 41.9408 46.3784 41.8913 46.412L41.2734 46.8068L40.4886 45.6011L41.3136 45.0748L41.4279 45.2523L40.7821 45.6654L40.9613 45.9377ZM41.3352 46.513L41.7925 46.2223C41.8172 46.207 41.8388 46.1887 41.8635 46.1672C41.8852 46.1458 41.9037 46.1213 41.9161 46.0938C41.9315 46.0663 41.9377 46.0387 41.9346 46.005C41.9346 45.9744 41.9253 45.9408 41.9006 45.9071C41.879 45.8704 41.8512 45.8459 41.8234 45.8337C41.7956 45.8184 41.7647 45.8123 41.7338 45.8153C41.7029 45.8153 41.672 45.8245 41.638 45.8367C41.6071 45.849 41.5762 45.8643 41.5453 45.8826L41.3383 46.0173C41.2981 46.0418 41.2579 46.0632 41.2147 46.0846C41.1714 46.103 41.1282 46.1122 41.0757 46.1152L41.3352 46.513ZM42.8275 43.915L42.9882 43.7773L43.9367 44.8575L43.7792 44.9952L43.0469 44.1629L43.1365 45.5491L42.9789 45.6868L42.0273 44.6066L42.188 44.4689L42.9202 45.3012L42.8275 43.915ZM44.5639 43.2846C44.6566 43.1775 44.6535 43.0827 44.5485 42.9909C44.4929 42.945 44.4434 42.9235 44.3971 42.9327C44.3507 42.9388 44.3044 42.9694 44.2581 43.0215L43.9089 43.4193L44.2611 43.7192C44.2704 43.6702 44.2859 43.6274 44.3106 43.5876C44.3384 43.5509 44.3662 43.5111 44.3971 43.4774L44.5639 43.2846ZM44.703 44.3771L43.6092 43.4376L44.0974 42.8838C44.1406 42.8348 44.1839 42.7981 44.2333 42.7705C44.2828 42.743 44.3322 42.7277 44.3816 42.7246C44.4342 42.7185 44.4867 42.7246 44.5361 42.743C44.5887 42.7614 44.6381 42.792 44.6875 42.8348C44.737 42.8776 44.774 42.9205 44.7988 42.9694C44.8235 43.0184 44.8389 43.0674 44.842 43.1194C44.8451 43.1714 44.8389 43.2234 44.8173 43.2755C44.7988 43.3275 44.7679 43.3764 44.7277 43.4223L44.5578 43.6151C44.5269 43.6488 44.4991 43.6886 44.4743 43.7283C44.4496 43.7681 44.4311 43.811 44.4218 43.8599L44.842 44.221L44.703 44.3771ZM45.7597 42.232C45.7349 42.2717 45.7071 42.3085 45.6762 42.3421C45.6453 42.3788 45.6083 42.4064 45.5619 42.4278L45.9636 42.6879L46.2602 42.235C46.2756 42.2105 46.288 42.1861 46.3004 42.1555C46.3127 42.1249 46.3189 42.0943 46.3189 42.0667C46.3189 42.0361 46.3127 42.0055 46.3004 41.978C46.2849 41.9504 46.2633 41.9229 46.2262 41.9015C46.1922 41.8801 46.1582 41.8678 46.1273 41.8678C46.0933 41.8648 46.0655 41.8739 46.0377 41.8862C46.0099 41.9015 45.9821 41.9198 45.9605 41.9443C45.9358 41.9719 45.9141 41.9963 45.8956 42.0269L45.7597 42.232ZM46.0285 42.9786L44.8142 42.1983L44.9285 42.0239L45.3827 42.3146C45.426 42.2901 45.463 42.2626 45.497 42.2258C45.5279 42.1922 45.5557 42.1555 45.5805 42.1157L45.7164 41.9107C45.7998 41.7821 45.8987 41.6995 46.0068 41.6597C46.115 41.623 46.2293 41.6444 46.3498 41.7209C46.4209 41.7668 46.4703 41.8189 46.5012 41.8739C46.529 41.929 46.5444 41.9841 46.5444 42.0422C46.5414 42.1004 46.5321 42.1585 46.5074 42.2136C46.4857 42.2687 46.4579 42.3207 46.427 42.3697L46.0285 42.9786Z" fill="#D7B56D"/>
<path fill-rule="evenodd" clip-rule="evenodd" d="M12.1391 30.1909C13.7025 30.1909 14.9723 31.4486 14.9723 33.0001C14.9723 34.5515 13.7025 35.8062 12.1391 35.8062C10.5726 35.8062 9.30273 34.5515 9.30273 33.0001C9.30273 31.4486 10.5726 30.1909 12.1391 30.1909ZM53.9058 30.1909C55.4722 30.1909 56.7421 31.4486 56.7421 33.0001C56.7421 34.5515 55.4722 35.8062 53.9058 35.8062C52.3393 35.8062 51.0725 34.5515 51.0725 33.0001C51.0725 31.4486 52.3393 30.1909 53.9058 30.1909Z" fill="#5A6A23"/>
<path fill-rule="evenodd" clip-rule="evenodd" d="M12.1456 30.3838C13.6039 30.3838 14.7873 31.5558 14.7873 33.0002C14.7873 34.4445 13.6039 35.6165 12.1456 35.6165C10.6873 35.6165 9.50391 34.4445 9.50391 33.0002C9.50391 31.5558 10.6873 30.3838 12.1456 30.3838ZM53.9123 30.3838C55.3706 30.3838 56.554 31.5558 56.554 33.0002C56.554 34.4445 55.3706 35.6165 53.9123 35.6165C52.4539 35.6165 51.2706 34.4445 51.2706 33.0002C51.2706 31.5558 52.4539 30.3838 53.9123 30.3838Z" fill="#D7B56D"/>
<path d="M11.4789 34.2818C11.2657 34.2818 11.1915 34.1074 11.1915 33.9942V31.9133C11.1915 31.7481 11.312 31.641 11.4325 31.641H11.5221V31.5063H11.1297C10.7373 31.5369 10.5519 31.9195 10.209 31.9195C10.209 32.0113 10.2522 32.0541 10.3758 32.0541C10.5427 32.0541 10.7466 31.8736 10.8486 31.8736C10.864 31.8736 10.864 31.9286 10.864 32.0021V33.9942C10.864 34.0768 10.7898 34.2818 10.5828 34.2818H10.3882V34.4165H11.6735V34.2818H11.4789Z" fill="#5F361C"/>
<path d="M13.0156 31.5186C12.3914 31.5186 12.0176 32.0388 12.0176 32.4855C12.0176 32.9752 12.3544 33.428 12.9414 33.428C13.2133 33.428 13.4852 33.3791 13.4852 33.171C13.4852 33.1037 13.445 33.0639 13.4172 33.0425C13.3091 33.171 13.1422 33.2353 12.9476 33.2353C12.6324 33.2353 12.342 32.9476 12.342 32.4855C12.342 32.0602 12.5984 31.7113 13.0156 31.7113C13.4574 31.7113 13.72 32.1153 13.72 32.9629C13.72 33.835 13.3863 34.3002 12.9105 34.3002C12.6046 34.3002 12.4007 34.086 12.4007 33.8167C12.4007 33.8167 12.1659 33.8534 12.1659 34.0492C12.1659 34.2696 12.3883 34.493 12.9568 34.493C13.5161 34.493 14.0444 33.9605 14.0444 32.917C14.0444 31.8949 13.6397 31.5186 13.0156 31.5186Z" fill="#5F361C"/>
<path d="M52.8144 31.5464C52.1903 31.5464 51.8164 32.0666 51.8164 32.5134C51.8164 33.003 52.1532 33.4528 52.7433 33.4528C53.0121 33.4528 53.284 33.4039 53.284 33.1988C53.284 33.1315 53.2439 33.0917 53.216 33.0703C53.1079 33.1988 52.9411 33.2631 52.7464 33.2631C52.4313 33.2631 52.1408 32.9754 52.1408 32.5134C52.1408 32.088 52.3973 31.7392 52.8144 31.7392C53.2562 31.7392 53.5188 32.1431 53.5188 32.9877C53.5188 33.8629 53.1851 34.328 52.7093 34.328C52.4035 34.328 52.1995 34.1107 52.1995 33.8445C52.1995 33.8445 51.9647 33.8782 51.9647 34.0771C51.9647 34.2943 52.1872 34.5208 52.7557 34.5208C53.3149 34.5208 53.8463 33.9883 53.8463 32.9448C53.8463 31.9228 53.4385 31.5464 52.8144 31.5464Z" fill="#5F361C"/>
<path d="M55.8446 32.2134C55.8446 31.7299 55.5325 31.479 54.9918 31.479C54.3121 31.479 54.0773 31.8952 54.0773 32.1339C54.0773 32.3572 54.204 32.5317 54.3492 32.5317C54.3492 32.1614 54.516 31.7085 54.9918 31.7085C55.3224 31.7085 55.48 31.9625 55.48 32.2134C55.48 33.0519 54.0371 33.6058 54.0371 34.3861C54.0371 34.435 54.0464 34.4748 54.068 34.5146C54.068 34.5146 54.3121 34.4442 54.757 34.4442C55.0258 34.4442 55.2792 34.4962 55.5325 34.4962C55.9373 34.4962 56.0392 34.1964 56.0392 34.0678C56.0392 33.9118 55.9373 33.7802 55.7581 33.7802C55.7581 34.126 55.5603 34.2545 55.2297 34.2545C54.9269 34.2545 54.7076 34.2117 54.4171 34.2055C54.5531 33.8873 54.8188 33.6333 55.0691 33.413C55.3966 33.1192 55.8446 32.7214 55.8446 32.2134Z" fill="#5F361C"/>
<path fill-rule="evenodd" clip-rule="evenodd" d="M44.9399 31.6902V30.7416H49.5436V32.6266H48.0296V34.4504H48.3479V36.011H46.1264V34.4504H46.4446V32.6266H45.3107C45.3169 32.6878 45.3199 32.752 45.3199 32.8132C45.3199 33.1131 45.2551 33.3977 45.116 33.6609C44.977 33.924 44.7885 34.1474 44.5568 34.331C44.3312 34.5146 44.0748 34.6523 43.7967 34.7472C43.5125 34.8421 43.2159 34.888 42.9162 34.888C42.8914 34.888 42.8667 34.888 42.842 34.888V36.011H39.6905L39.3692 35.3256H38.1611L37.8521 36.011H36.3598V35.3898C36.159 35.5581 35.9334 35.6958 35.6893 35.7999C35.3587 35.9437 35.0096 36.011 34.6481 36.011H31.2093L29.4636 33.7925V34.4504H29.7818V36.011H26.6303L26.3121 35.3256H25.104L24.7919 36.011H21.5416V34.4504H21.8598V32.6266H20.8309V32.7061H20.1265C20.1944 32.7367 20.2624 32.7704 20.3273 32.8102C20.8402 33.1192 21.0719 33.6119 21.0719 34.1995C21.0719 34.4749 20.9978 34.7319 20.8587 34.9706C20.7166 35.2154 20.5158 35.4143 20.2871 35.5673C19.8329 35.8825 19.3046 36.011 18.7546 36.011C18.4148 36.011 18.0811 35.9559 17.7628 35.8397C17.46 35.7264 17.1851 35.5612 16.9564 35.3347C16.6382 35.0196 16.459 34.637 16.459 34.1903V33.8231L18.0347 33.8384V34.1903C18.0409 34.2025 18.0595 34.2239 18.0687 34.2301C18.1398 34.3035 18.2417 34.3494 18.3344 34.3831C18.4704 34.429 18.6125 34.4504 18.7546 34.4504C18.8782 34.4504 18.9987 34.4351 19.1161 34.4014C19.2088 34.3769 19.3046 34.3402 19.3849 34.2882C19.422 34.2576 19.4591 34.2209 19.4962 34.1842C19.4962 34.1719 19.4931 34.1535 19.4931 34.1382C19.4436 34.1138 19.3757 34.0954 19.3262 34.0832C19.1717 34.0434 19.0111 34.0097 18.8504 33.9791L18.8442 33.9761L18.6094 33.924L18.424 33.8904C18.2572 33.8567 18.0904 33.8169 17.9235 33.7772C17.7443 33.7313 17.5713 33.667 17.4075 33.5844L17.4013 33.5813C17.2623 33.5048 17.1295 33.4099 17.0213 33.2937C16.9255 33.1927 16.8452 33.0764 16.7865 32.9509C16.7371 32.8408 16.7 32.7214 16.6845 32.6021C16.6691 32.5103 16.6629 32.4154 16.6629 32.3236V32.3144V32.3083C16.6876 31.7422 16.9935 31.3199 17.4817 31.0506C17.6763 30.9405 17.8864 30.864 18.1027 30.815C18.3283 30.763 18.56 30.7416 18.7917 30.7416C19.3757 30.7416 19.9349 30.8915 20.3551 31.2954V30.7416H24.9588V31.8493L25.7065 30.2122L27.6437 34.4504H27.8878V32.3022H27.5603V30.7416H29.0557L30.8014 32.9571V32.3022H30.4832V30.7416H34.6481C35.0096 30.7416 35.3587 30.8089 35.6893 30.9496C36.0045 31.0873 36.2856 31.274 36.5266 31.5127C36.7707 31.7544 36.9592 32.0329 37.0951 32.345C37.2404 32.6725 37.3083 33.0183 37.3083 33.3763C37.3083 33.3824 37.3083 33.3916 37.3083 33.3977L38.7636 30.2122L40.7008 34.4504H40.948V32.3022H40.6205V30.7416H42.9162C43.2159 30.7416 43.5125 30.7875 43.7967 30.8823C44.0748 30.9772 44.3312 31.1118 44.5568 31.2954C44.702 31.4117 44.8287 31.5433 44.9399 31.6902ZM32.6521 32.3022H32.3864V34.4504H32.6521V32.3022ZM24.6035 32.6266H23.4448V34.4504H23.7692L24.6035 32.6266ZM19.2552 32.4583V32.4215C19.2119 32.394 19.1563 32.3695 19.1161 32.3512C19.0204 32.3114 18.8937 32.3022 18.7917 32.3022C18.7176 32.3022 18.6465 32.3053 18.5723 32.3175C18.631 32.3297 18.6867 32.342 18.7454 32.3542L18.7763 32.3603L18.7979 32.3695C18.8597 32.3756 18.9184 32.3879 18.9771 32.4062C18.9864 32.4093 18.9925 32.4124 19.0018 32.4124C19.0605 32.4154 19.1223 32.4277 19.181 32.443C19.2057 32.4491 19.2305 32.4552 19.2552 32.4583ZM34.2279 32.3022V34.4504H34.6481C34.7902 34.4504 34.9293 34.4228 35.0621 34.3678C35.1919 34.3096 35.3093 34.2301 35.4113 34.1321C35.5132 34.0311 35.5905 33.9149 35.6492 33.7863C35.7079 33.6548 35.7326 33.5171 35.7326 33.3763C35.7326 33.2325 35.7079 33.0948 35.6492 32.9662C35.5905 32.8347 35.5132 32.7214 35.4113 32.6204C35.3093 32.5195 35.1919 32.443 35.0621 32.3848C34.9293 32.3267 34.7902 32.3022 34.6481 32.3022H34.2279ZM42.5238 32.3022V33.2631C42.6473 33.3059 42.7802 33.3273 42.9162 33.3273C43.1572 33.3273 43.3734 33.2692 43.5619 33.1192L43.5681 33.1131C43.6731 33.0336 43.7349 32.9448 43.7349 32.8132C43.7349 32.6816 43.6731 32.5929 43.5681 32.5164L43.5619 32.5103C43.3734 32.3603 43.1572 32.3022 42.9162 32.3022H42.5238ZM19.5981 34.585C19.49 34.6554 19.3633 34.7105 19.215 34.7533C19.0698 34.7931 18.9153 34.8145 18.7546 34.8145C18.5662 34.8145 18.387 34.7839 18.217 34.7258C18.044 34.6676 17.9081 34.5881 17.8092 34.4902C17.7134 34.3953 17.6671 34.3004 17.6671 34.1995L16.8267 34.1903C16.8267 34.5238 16.9564 34.8206 17.216 35.0777C17.3983 35.2582 17.6238 35.399 17.8926 35.4969C18.1614 35.5979 18.4488 35.6469 18.7546 35.6469C19.2737 35.6469 19.7155 35.5214 20.0739 35.2705C20.2748 35.1358 20.4293 34.9737 20.5405 34.787C20.6486 34.6003 20.7042 34.4045 20.7042 34.1995C20.7042 33.7098 20.5158 33.3487 20.1357 33.1223C19.9905 33.0336 19.8268 32.9662 19.6507 32.9234C19.4714 32.8806 19.2861 32.8377 19.0914 32.7979C19.0512 32.7857 19.0111 32.7765 18.974 32.7735C18.9338 32.7704 18.8968 32.7643 18.8628 32.752C18.8257 32.7398 18.7917 32.7337 18.7608 32.7306C18.7268 32.7275 18.6959 32.7214 18.6681 32.7092C18.5322 32.6786 18.4024 32.651 18.2819 32.6266C18.1614 32.599 18.0595 32.5654 17.976 32.5256C17.9297 32.495 17.8988 32.4705 17.8895 32.4491C17.8772 32.4307 17.871 32.4001 17.871 32.3573C17.8772 32.2869 17.9081 32.2257 17.9637 32.1737C18.0193 32.1217 18.0904 32.0788 18.1769 32.0421C18.2603 32.0084 18.3592 31.9809 18.4673 31.9625C18.5785 31.9472 18.6836 31.938 18.7917 31.938C18.9802 31.938 19.1378 31.9625 19.2613 32.0176C19.3849 32.0696 19.4776 32.1247 19.5425 32.1829C19.5611 32.2012 19.5796 32.2226 19.5981 32.2532C19.6136 32.2808 19.6228 32.3114 19.6228 32.342H20.4632V32.3236C20.4632 32.0543 20.3551 31.8126 20.1357 31.5953C19.8175 31.2679 19.3695 31.1057 18.7917 31.1057C18.5785 31.1057 18.3777 31.1271 18.1861 31.17C17.9915 31.2128 17.8215 31.2801 17.6671 31.3689C17.2592 31.5892 17.046 31.9074 17.0306 32.3236C17.0306 32.394 17.0368 32.4705 17.046 32.5501C17.0584 32.6327 17.0831 32.7153 17.1233 32.801C17.1603 32.8867 17.216 32.9662 17.2901 33.0458C17.3643 33.1254 17.46 33.1957 17.5775 33.26C17.7134 33.3304 17.8586 33.3855 18.0131 33.4222C18.1645 33.462 18.3283 33.4987 18.4982 33.5324L18.6836 33.5691L18.9246 33.6211C19.1316 33.6609 19.2953 33.6976 19.4189 33.7313C19.5425 33.7619 19.6383 33.7986 19.7032 33.8353C19.7681 33.8751 19.8113 33.921 19.8329 33.9761C19.8515 34.0311 19.8638 34.1046 19.8638 34.1903C19.8638 34.2851 19.8299 34.3647 19.765 34.432C19.7001 34.4993 19.6445 34.5514 19.5981 34.585ZM24.5911 32.2624V31.1057H20.7228V32.2624H21.5632V31.938H22.2275V34.8145H21.9061V35.6469H23.3954V34.8145H23.0771V31.938H23.7414V32.2624H24.5911ZM26.8651 35.6469H27.7519V34.8145H27.4058L25.7065 31.0965L24.0071 34.8145H23.6704V35.6469H24.554L24.8661 34.9614H26.5469L26.8651 35.6469ZM25.7065 33.1223L26.1668 34.1291H25.2461L25.7065 33.1223ZM27.928 34.8145V35.6469H29.4141V34.8145H29.0959V32.7367L31.3885 35.6469H32.337V34.8145H32.0188V31.938H32.337V31.1057H30.8508V31.938H31.1691V34.0158L28.8765 31.1057H27.928V31.938H28.2555V34.8145H27.928ZM36.9407 33.3763C36.9407 33.0611 36.882 32.7643 36.7584 32.4889C36.6379 32.2165 36.4741 31.9748 36.2671 31.7697C36.0601 31.5647 35.8191 31.4025 35.541 31.2832C35.266 31.1638 34.9663 31.1057 34.6481 31.1057H32.6923V31.938H33.0198V34.8145H32.6923V35.6469H34.6481C34.9663 35.6469 35.266 35.5857 35.541 35.4663C35.8191 35.347 36.0601 35.1848 36.2671 34.9798C36.4741 34.7747 36.6379 34.5361 36.7584 34.2607C36.882 33.9852 36.9407 33.6915 36.9407 33.3763ZM34.6481 34.8145H33.8602V31.938H34.6481C34.8489 31.938 35.0374 31.9748 35.2104 32.0513C35.3834 32.1278 35.5379 32.2318 35.6708 32.3634C35.8036 32.495 35.9087 32.6449 35.9859 32.8194C36.0601 32.9907 36.1003 33.1774 36.1003 33.3763C36.1003 33.5752 36.0601 33.7588 35.9859 33.9332C35.9087 34.1046 35.8036 34.2576 35.6708 34.3892C35.5379 34.5208 35.3834 34.6248 35.2104 34.6982C35.0374 34.7747 34.8489 34.8145 34.6481 34.8145ZM39.9253 35.6469H40.809V34.8145H40.466L38.7636 31.0965L37.0642 34.8145H36.7275V35.6469H37.6142L37.9232 34.9614H39.6071L39.9253 35.6469ZM38.7636 33.1223L39.224 34.1291H38.3032L38.7636 33.1223ZM44.9523 32.8132C44.9523 32.5684 44.8997 32.342 44.7885 32.1339C44.6804 31.9258 44.5259 31.7422 44.3251 31.577C44.1366 31.427 43.9203 31.3077 43.6793 31.2281C43.4352 31.1455 43.1819 31.1057 42.9162 31.1057H40.9882V31.938H41.3157V34.8145H40.9882V35.6469H42.4743V34.8145H42.1561V34.4014C42.4218 34.484 42.6752 34.5238 42.9162 34.5238C43.1819 34.5238 43.4352 34.484 43.6793 34.4014C43.9203 34.3188 44.1366 34.2025 44.3251 34.0495C44.5259 33.8873 44.6804 33.7007 44.7885 33.4926C44.8997 33.2875 44.9523 33.0611 44.9523 32.8132ZM43.7936 33.4008C43.5526 33.5936 43.2591 33.6915 42.9162 33.6915C42.635 33.6915 42.3785 33.6242 42.1561 33.4895V31.938H42.9162C43.2591 31.938 43.5526 32.0329 43.7936 32.2257C44.0006 32.3848 44.1026 32.5807 44.1026 32.8132C44.1026 33.0489 44.0006 33.2447 43.7936 33.4008ZM49.1759 32.2624V31.1057H45.3076V32.2624H46.148V31.938H46.8123V34.8145H46.494V35.6469H47.9802V34.8145H47.6619V31.938H48.3262V32.2624H49.1759Z" fill="#AF4323"/>
<path fill-rule="evenodd" clip-rule="evenodd" d="M19.5893 34.579C19.6511 34.5361 19.7067 34.4811 19.7593 34.429C19.8211 34.3617 19.852 34.2821 19.852 34.1903C19.852 34.12 19.8489 34.0435 19.8241 33.9792C19.7994 33.918 19.7531 33.8721 19.6975 33.8415C19.614 33.7925 19.509 33.7619 19.4163 33.7375C19.2526 33.6946 19.0857 33.661 18.9189 33.6273L18.684 33.5753L18.4925 33.5385C18.3318 33.5049 18.1681 33.4682 18.0074 33.4284C17.856 33.3917 17.7108 33.3396 17.5718 33.2662H17.5687C17.4667 33.2081 17.3647 33.1377 17.2844 33.052C17.2133 32.9786 17.1546 32.8959 17.1145 32.8041C17.0774 32.7246 17.0496 32.6389 17.0372 32.5532C17.028 32.4767 17.0218 32.4002 17.0218 32.3268V32.3237V32.3206C17.0403 31.88 17.2782 31.5709 17.6583 31.3628C17.822 31.271 17.9981 31.2068 18.1804 31.1639C18.3813 31.118 18.5852 31.0966 18.7891 31.0966C19.2927 31.0966 19.7809 31.2221 20.1362 31.5893C20.3092 31.7606 20.4297 31.9626 20.4606 32.2044L20.4792 32.3482H19.6326L19.5986 32.2747C19.5955 32.2686 19.5924 32.2625 19.5893 32.2564C19.5739 32.2319 19.5584 32.2074 19.5368 32.1891C19.4596 32.1156 19.3514 32.0636 19.2556 32.0207C19.1104 31.9595 18.9436 31.9442 18.7891 31.9442C18.681 31.9442 18.5728 31.9534 18.4678 31.9687C18.3658 31.9871 18.27 32.0116 18.1742 32.0483C18.1001 32.0789 18.0259 32.1217 17.9641 32.1799C17.9116 32.2288 17.8807 32.287 17.8745 32.3574C17.8745 32.3849 17.8776 32.4216 17.89 32.4461C17.9054 32.4736 17.9518 32.5042 17.9765 32.5195C18.0723 32.5654 18.1773 32.596 18.2824 32.6205C18.406 32.6481 18.5327 32.6725 18.6562 32.7001L18.6655 32.7031L18.6748 32.7062C18.7026 32.7154 18.7304 32.7215 18.7582 32.7246C18.7922 32.7276 18.8293 32.7368 18.8602 32.746C18.8972 32.7582 18.9343 32.7643 18.9714 32.7674C19.0116 32.7705 19.0517 32.7796 19.0919 32.7919C19.2773 32.8286 19.4627 32.8714 19.648 32.9174C19.8211 32.9602 19.9848 33.0245 20.1362 33.1163C20.5441 33.3611 20.7078 33.7405 20.7078 34.1995C20.7078 34.4107 20.6491 34.6096 20.5441 34.7901C20.4266 34.989 20.266 35.1482 20.0775 35.2736C19.6851 35.549 19.2278 35.6531 18.752 35.6531C18.4585 35.6531 18.165 35.6072 17.8869 35.5031C17.6335 35.4083 17.4018 35.2706 17.2072 35.0808C16.9971 34.8727 16.858 34.6249 16.824 34.3281L16.8086 34.1842L17.6552 34.1934L17.683 34.2852C17.7046 34.3617 17.754 34.429 17.8097 34.4841C17.9209 34.5943 18.0661 34.6677 18.2144 34.7197C18.3874 34.7779 18.5697 34.8085 18.752 34.8085C18.9096 34.8085 19.061 34.7871 19.2124 34.7473C19.3452 34.7106 19.475 34.6555 19.5893 34.579ZM23.7326 31.9442H23.0807V34.8085H23.3989V35.6531H21.8973V34.8085H22.2187V31.9442H21.5667V32.2686H20.7109V31.0966H24.5947V32.2686H23.7326V31.9442ZM26.5412 34.9676H24.8666L24.5576 35.6531H23.6616V34.8085H23.9983L25.7039 31.0813L27.4063 34.8085H27.7554V35.6531H26.8594L26.5412 34.9676ZM28.2467 34.8085V31.9442H27.9192V31.0966H28.877L31.1603 33.9976V31.9442H30.842V31.0966H32.3406V31.9442H32.0223V34.8085H32.3406V35.6531H31.3827L29.0995 32.7552V34.8085H29.4177V35.6531H27.9192V34.8085H28.2467ZM33.011 34.8085V31.9442H32.6835V31.0966H34.6455C34.9545 31.0966 35.2572 31.1547 35.5415 31.2771C35.8134 31.3965 36.0606 31.5587 36.2707 31.7668C36.4808 31.9748 36.6445 32.2166 36.7619 32.4859C36.8855 32.7705 36.9442 33.0673 36.9442 33.3764C36.9442 33.6824 36.8855 33.9823 36.7619 34.2638C36.6445 34.5331 36.4808 34.7779 36.2707 34.986C36.0606 35.1941 35.8134 35.3562 35.5415 35.4725C35.2572 35.5949 34.9545 35.6531 34.6455 35.6531H32.6835V34.8085H33.011ZM39.5983 34.9676H37.9267L37.6147 35.6531H36.7187V34.8085H37.0585L38.761 31.0813L40.4665 34.8085H40.8125V35.6531H39.9165L39.5983 34.9676ZM42.1597 34.4107V34.8085H42.4779V35.6531H40.9794V34.8085H41.3069V31.9442H40.9794V31.0966H42.9135C43.1762 31.0966 43.4326 31.1364 43.6767 31.2221C43.9146 31.3016 44.134 31.4179 44.3255 31.574C44.5171 31.727 44.6778 31.9136 44.7921 32.1309C44.9033 32.3451 44.9558 32.5746 44.9558 32.8133C44.9558 33.0551 44.9033 33.2846 44.7921 33.4957C44.6778 33.716 44.5171 33.8996 44.3255 34.0557C44.134 34.2118 43.9146 34.3281 43.6767 34.4076C43.4326 34.4902 43.1762 34.53 42.9135 34.53C42.6571 34.53 42.4037 34.4841 42.1597 34.4107ZM48.3174 31.9442H47.6655V34.8085H47.9838V35.6531H46.4852V34.8085H46.8035V31.9442H46.1516V32.2686H45.2988V31.0966H49.1795V32.2686H48.3174V31.9442ZM25.7039 33.1377L25.2528 34.123H26.155L25.7039 33.1377ZM33.8638 31.9442V34.8085H34.6455C34.8401 34.8085 35.0286 34.7718 35.2047 34.6953C35.3777 34.6188 35.5322 34.5147 35.662 34.3831C35.7949 34.2515 35.8999 34.0985 35.9771 33.9302C36.0544 33.7528 36.0915 33.5661 36.0915 33.3764C36.0915 33.1836 36.0544 32.9969 35.9771 32.8225C35.8999 32.6511 35.7949 32.4981 35.662 32.3665C35.5322 32.235 35.3777 32.1309 35.2047 32.0575C35.0286 31.981 34.8401 31.9442 34.6455 31.9442H33.8638ZM38.761 33.1377L38.313 34.123H39.2121L38.761 33.1377ZM42.1597 31.9442V33.4865C42.3914 33.6242 42.6447 33.6854 42.9135 33.6854C43.238 33.6854 43.5346 33.5997 43.7879 33.3978V33.3947C43.9826 33.2478 44.0938 33.0581 44.0938 32.8133C44.0938 32.5685 43.9795 32.3788 43.7879 32.2319L43.7848 32.2288C43.5315 32.0299 43.2349 31.9442 42.9135 31.9442H42.1597Z" fill="#D7B56D"/>
<path fill-rule="evenodd" clip-rule="evenodd" d="M17.5607 34.3191L16.9551 34.313C16.9829 34.5761 17.1065 34.7995 17.3011 34.9923C17.4803 35.1698 17.6966 35.2953 17.9345 35.384C18.1971 35.4819 18.4721 35.5248 18.7533 35.5248C19.2013 35.5248 19.6339 35.4299 20.0046 35.1698C20.1776 35.0535 20.3259 34.9066 20.431 34.7261C20.5268 34.5639 20.5793 34.3895 20.5793 34.1997C20.5793 33.7836 20.4372 33.4439 20.0726 33.2266C19.9305 33.141 19.7791 33.0798 19.6184 33.043C19.4361 32.9971 19.2507 32.9543 19.0653 32.9145H19.0623H19.0561C19.0252 32.9053 18.9943 32.8992 18.9634 32.8961C18.914 32.8931 18.8676 32.8839 18.8213 32.8686C18.7965 32.8594 18.7718 32.8533 18.7471 32.8533C18.7069 32.8472 18.6699 32.8411 18.6297 32.8258C18.5061 32.7982 18.3794 32.7707 18.2558 32.7431C18.1415 32.7187 18.0241 32.685 17.9191 32.633L17.916 32.6299L17.9098 32.6269C17.8635 32.5993 17.8078 32.5595 17.78 32.5106C17.7553 32.4647 17.746 32.4096 17.746 32.3576V32.3545V32.3484C17.7553 32.2444 17.8017 32.1587 17.8789 32.0852C17.95 32.0179 18.0365 31.9689 18.1292 31.9322C18.2311 31.8894 18.3393 31.8618 18.4474 31.8435C18.5617 31.8251 18.676 31.8159 18.7904 31.8159C18.9634 31.8159 19.1457 31.8374 19.3063 31.9047C19.4176 31.9506 19.535 32.0118 19.6246 32.0944H19.6277V32.0975C19.6555 32.125 19.6802 32.1587 19.7018 32.1923C19.7049 32.2015 19.7111 32.2107 19.7173 32.2199H20.3352C20.3074 32.0118 20.2024 31.8343 20.0479 31.6813C19.7142 31.3386 19.2569 31.2253 18.7904 31.2253C18.5957 31.2253 18.4011 31.2437 18.2095 31.2896C18.0427 31.3263 17.8789 31.3875 17.7244 31.4732C17.3815 31.6629 17.1683 31.9322 17.1497 32.327C17.1497 32.3943 17.1559 32.4647 17.1683 32.5351C17.1775 32.6085 17.2023 32.6819 17.2332 32.7523C17.2671 32.8319 17.3197 32.9023 17.3784 32.9635C17.4525 33.043 17.5421 33.1042 17.6348 33.1532C17.7615 33.2205 17.9005 33.2725 18.0396 33.3062C18.2002 33.346 18.3609 33.3827 18.5216 33.4133L18.7069 33.45L18.9479 33.502C19.1148 33.5357 19.2847 33.5694 19.4485 33.6122C19.5535 33.6397 19.6709 33.6765 19.7636 33.7316C19.844 33.7805 19.9119 33.8448 19.9459 33.9335C19.9737 34.0161 19.983 34.1049 19.983 34.1906C19.983 34.316 19.9397 34.4262 19.8532 34.5149C19.7945 34.5761 19.7358 34.6343 19.6678 34.6832V34.6863H19.6648C19.5381 34.7689 19.3929 34.8301 19.2476 34.8699C19.087 34.9127 18.9201 34.9342 18.7533 34.9342C18.5555 34.9342 18.3609 34.9036 18.1755 34.8393C18.0087 34.7842 17.848 34.6985 17.7213 34.5761C17.6472 34.5027 17.5885 34.417 17.5607 34.3191ZM24.4662 32.1403V31.2253H20.8419V32.1403H21.4382V31.8159H22.3466V34.9342H22.0284V35.5248H23.2704V34.9342H22.9522V31.8159H23.8606V32.1403H24.4662ZM26.9441 35.5248H27.6269V34.9342H27.3241L25.7051 31.3906L24.083 34.9342H23.7895V35.5248H24.4754L24.7844 34.8424H26.6228L26.9441 35.5248ZM25.7051 32.8258L26.354 34.2518H25.0532L25.7051 32.8258ZM28.0502 34.9342V35.5248H29.2923V34.9342H28.974V32.3821L31.4489 35.5248H32.2121V34.9342H31.8938V31.8159H32.2121V31.2253H30.97V31.8159H31.2882V34.3681L28.8134 31.2253H28.0502V31.8159H28.3777V34.9342H28.0502ZM32.8115 31.2253V31.8159H33.139V34.9342H32.8115V35.5248H34.6467C34.9403 35.5248 35.2245 35.4727 35.4933 35.3565C35.7498 35.2432 35.9815 35.0902 36.1792 34.8944C36.3801 34.6985 36.5346 34.469 36.6458 34.212C36.7632 33.9458 36.8157 33.6642 36.8157 33.3766C36.8157 33.0859 36.7632 32.8043 36.6458 32.5381C36.5346 32.2841 36.3801 32.0546 36.1792 31.8557C35.9815 31.6599 35.7498 31.5069 35.4933 31.3967C35.2245 31.2804 34.9403 31.2253 34.6467 31.2253H32.8115ZM34.6467 34.9342H33.7353V31.8159H34.6467C34.8568 31.8159 35.0639 31.8557 35.2585 31.9414C35.4439 32.021 35.6107 32.1342 35.756 32.278C35.9012 32.4188 36.0124 32.584 36.0958 32.7707C36.1823 32.9635 36.2225 33.1654 36.2225 33.3766C36.2225 33.5847 36.1823 33.7897 36.0958 33.9825C36.0124 34.1661 35.9012 34.3313 35.756 34.4752C35.6107 34.6159 35.4439 34.7291 35.2585 34.8118C35.0639 34.8944 34.8568 34.9342 34.6467 34.9342ZM40.0012 35.5248H40.6871V34.9342H40.3843L38.7622 31.3906L37.1432 34.9342H36.8497V35.5248H37.5325L37.8415 34.8424H39.683L40.0012 35.5248ZM38.7622 32.8258L39.4142 34.2518H38.1134L38.7622 32.8258ZM41.1073 31.2253V31.8159H41.4348V34.9342H41.1073V35.5248H42.3494V34.9342H42.0311V34.2365L42.1918 34.2854C42.4266 34.3589 42.6707 34.4017 42.9148 34.4017C43.162 34.4017 43.403 34.365 43.6378 34.2854C43.8603 34.212 44.0642 34.1049 44.2465 33.958C44.4226 33.8111 44.574 33.6397 44.679 33.4378C44.781 33.2419 44.8304 33.0339 44.8304 32.8135C44.8304 32.5963 44.781 32.3851 44.679 32.1923C44.574 31.9873 44.4226 31.8159 44.2465 31.6721C44.0642 31.5252 43.8603 31.4181 43.6378 31.3416C43.403 31.2621 43.162 31.2253 42.9148 31.2253H41.1073ZM43.8695 33.4959C43.5945 33.7163 43.267 33.8142 42.9148 33.8142C42.6213 33.8142 42.3432 33.7438 42.0899 33.5938L42.0311 33.5571V31.8159H42.9148C43.267 31.8159 43.5945 31.9139 43.8664 32.1311C44.092 32.3025 44.2248 32.5289 44.2248 32.8135C44.2248 33.0981 44.092 33.3246 43.8695 33.4959ZM49.0541 32.1403V31.2253H45.4298V32.1403H46.0261V31.8159H46.9345V34.9342H46.6163V35.5248H47.8583V34.9342H47.5401V31.8159H48.4485V32.1403H49.0541Z" fill="#FEFEFE"/>
<path fill-rule="evenodd" clip-rule="evenodd" d="M30.0964 26.4852C30.1057 26.4852 30.115 26.4882 30.1242 26.4882C30.1211 26.4607 30.115 26.4332 30.1119 26.4026H36.2542C36.248 26.4332 36.2449 26.4607 36.2419 26.4882C36.2511 26.4882 36.2604 26.4852 36.2697 26.4852C36.6312 26.4179 36.9247 26.5127 36.9247 26.6963C36.9247 26.8769 36.6312 27.0788 36.2697 27.1431C36.1986 27.1553 36.1306 27.1615 36.0688 27.1645C35.8618 27.8163 35.5652 28.5507 35.5652 29.2852H35.559C35.559 29.3311 35.5312 29.3678 35.4849 29.3678H35.42C35.3273 29.4963 35.1821 29.5789 35.0152 29.5789H31.3478C31.184 29.5789 31.0388 29.4963 30.9461 29.3678H30.8812C30.8349 29.3678 30.8071 29.3311 30.8071 29.2852H30.8009C30.8009 28.5507 30.5043 27.8163 30.2973 27.1645C30.2324 27.1615 30.1675 27.1553 30.0964 27.1431C29.7349 27.0788 29.4414 26.8769 29.4414 26.6963C29.4414 26.5127 29.7349 26.4179 30.0964 26.4852ZM32.7412 25.2397C31.0017 25.2979 30.5104 25.714 30.4857 26.3291H35.8804C35.8556 25.714 35.3644 25.2979 33.6249 25.2397C33.5754 25.0622 33.3962 24.9307 33.183 24.9307C32.9699 24.9307 32.7906 25.0622 32.7412 25.2397Z" fill="#D7B56D"/>
<path fill-rule="evenodd" clip-rule="evenodd" d="M39.0788 37.7736C39.3353 37.6329 39.8636 37.3116 39.706 37.18C39.4929 37.0025 39.2179 37.5196 39.0541 37.743C38.9305 37.8104 38.7884 37.896 38.6741 37.9603C38.8595 37.743 39.1993 37.2748 38.8595 37.2718C38.6154 37.2687 38.569 37.8165 38.5721 38.0215C38.5443 38.0368 38.5196 38.049 38.5041 38.0582C38.3373 38.147 38.1674 38.2479 37.9943 38.3489C38.1952 38.1255 38.6803 37.4952 38.257 37.4921C37.9573 37.489 37.9109 38.1806 37.9171 38.3948C37.7348 38.5019 37.5494 38.609 37.361 38.71C37.7225 38.4499 38.0222 37.8012 37.6174 37.792C37.3455 37.7828 37.1848 38.6274 37.1848 38.7988C37.0304 38.8783 36.8759 38.9518 36.7245 39.0252C36.6441 39.0619 36.5638 39.0986 36.4835 39.1292C37.1261 38.6855 37.2775 37.7461 36.8821 38.046C36.4835 38.3397 36.5298 38.6855 36.4773 39.1354C36.2332 39.2333 36.0077 39.3037 35.7698 39.3526C35.9459 39.2517 36.1189 39.1415 36.2518 38.9456C36.4649 38.6274 36.1714 38.3214 35.9829 38.5631C35.8439 38.7406 35.8223 39.1843 35.6956 39.3679C35.5071 39.4047 35.3063 39.4291 35.0777 39.4506C35.4855 39.3251 35.7759 39.1323 35.7141 38.7161C35.6863 38.5264 35.5288 38.5754 35.3125 38.9609C35.1395 39.267 34.7749 39.4414 34.8027 39.472L34.8058 39.475C34.8552 39.5974 35.6709 40.9041 35.6338 40.1544C35.6245 39.9402 35.4762 39.6066 34.9479 39.5026C35.2074 39.5026 35.3372 39.475 35.5967 39.4353C35.8439 39.5974 35.9953 39.8208 36.2085 40.0167C36.5484 40.3288 36.6132 39.3618 35.8563 39.3863C36.0849 39.3373 36.295 39.2517 36.4989 39.1751C36.8419 39.1323 36.9655 39.9432 37.0983 39.8943C37.6854 39.6739 36.9717 39.0374 36.5206 39.166C36.6812 39.1048 36.8357 39.0344 36.9933 38.9609C37.2003 39.0038 37.5124 39.319 37.7317 39.3588C38.0252 39.4108 38.0376 39.0068 37.6761 38.912C37.4536 38.8538 37.259 38.8844 37.0674 38.9242C37.2312 38.8447 37.3919 38.7559 37.5525 38.6641C37.741 38.7161 38.0129 38.9854 38.2044 39.0191C38.4702 39.068 38.4794 38.7039 38.1519 38.6182C37.9604 38.5693 37.7873 38.5937 37.6205 38.6274C37.7533 38.5509 37.8893 38.4713 38.0252 38.3918C38.294 38.5264 38.8502 39.0283 38.9243 38.7651C38.98 38.5754 38.4794 38.2449 38.1025 38.3489C38.3002 38.2296 38.5103 38.1102 38.7328 37.9878C38.7853 38.1806 39.4434 38.3826 39.533 38.2326C39.706 37.9481 39.2086 37.9205 38.8162 37.9419C38.8378 37.9266 38.8595 37.9144 38.8842 37.9022C38.9614 37.8532 39.0232 37.8104 39.0788 37.7736ZM26.9177 37.7736C26.6613 37.6329 26.133 37.3116 26.2905 37.18C26.5037 37.0025 26.7787 37.5196 26.9425 37.743C27.066 37.8104 27.2082 37.896 27.3225 37.9603C27.1371 37.743 26.7972 37.2748 27.1371 37.2718C27.3812 37.2687 27.4275 37.8165 27.4245 38.0215C27.4523 38.0368 27.477 38.049 27.4924 38.0582C27.6593 38.147 27.8292 38.2479 28.0022 38.3489C27.8014 38.1255 27.3163 37.4952 27.7396 37.4921C28.0362 37.489 28.0857 38.1806 28.0795 38.3948C28.2618 38.5019 28.4471 38.609 28.6356 38.71C28.2741 38.4499 27.9744 37.8012 28.3792 37.792C28.6511 37.7828 28.8117 38.6274 28.8117 38.7988C28.9662 38.8783 29.1207 38.9518 29.269 39.0252C29.3524 39.0619 29.4328 39.0986 29.51 39.1292C28.8704 38.6855 28.719 37.7461 29.1145 38.046C29.5131 38.3397 29.4667 38.6855 29.5193 39.1354C29.7634 39.2333 29.9889 39.3037 30.2237 39.3526C30.0507 39.2517 29.8777 39.1415 29.7448 38.9456C29.5316 38.6274 29.8221 38.3214 30.0136 38.5631C30.1527 38.7406 30.1743 39.1843 30.301 39.3679C30.4894 39.4047 30.6903 39.4291 30.9189 39.4506C30.5111 39.3251 30.2206 39.1323 30.2824 38.7161C30.3102 38.5264 30.4678 38.5754 30.6841 38.9609C30.8571 39.267 31.2217 39.4414 31.1939 39.472L31.1908 39.475C31.1414 39.5974 30.3257 40.9041 30.3628 40.1544C30.372 39.9402 30.5203 39.6066 31.0487 39.5026C30.7861 39.5026 30.6594 39.475 30.3998 39.4353C30.1527 39.5974 30.0013 39.8208 29.7881 40.0167C29.4482 40.3288 29.3833 39.3618 30.1403 39.3863C29.9117 39.3373 29.7016 39.2517 29.4976 39.1751C29.1547 39.1323 29.0311 39.9432 28.8982 39.8943C28.3112 39.6739 29.0249 39.0374 29.476 39.166C29.3154 39.1048 29.1578 39.0344 29.0033 38.9609C28.7963 39.0038 28.4842 39.319 28.2649 39.3588C27.9713 39.4108 27.959 39.0068 28.3205 38.912C28.5429 38.8538 28.7376 38.8844 28.9291 38.9242C28.7654 38.8447 28.6047 38.7559 28.4441 38.6641C28.2556 38.7161 27.9837 38.9854 27.7921 39.0191C27.5264 39.068 27.5171 38.7039 27.8416 38.6182C28.0362 38.5693 28.2092 38.5937 28.3761 38.6274C28.2432 38.5509 28.1073 38.4713 27.9713 38.3918C27.7025 38.5264 27.1464 39.0283 27.0722 38.7651C27.0166 38.5754 27.5171 38.2449 27.8941 38.3489C27.6963 38.2296 27.4862 38.1102 27.2638 37.9878C27.2113 38.1806 26.5501 38.3826 26.4636 38.2326C26.2905 37.9481 26.7849 37.9205 27.1804 37.9419C27.1587 37.9266 27.1371 37.9144 27.1124 37.9022C27.0351 37.8532 26.9703 37.8104 26.9177 37.7736Z" fill="#5A6A23"/>
<path fill-rule="evenodd" clip-rule="evenodd" d="M31.8895 39.1723L31.9451 38.9152L31.494 38.9458L31.6918 39.3467L31.8895 39.1723ZM32.0872 40.332L32.3468 39.8088L32.0872 39.2855L32.6743 39.2457L33.0018 38.7622L33.3293 39.2457L33.9164 39.2855L33.6568 39.8088L33.9164 40.332L33.3293 40.3718L33.0018 40.8553L32.6743 40.3718L32.0872 40.332ZM31.9729 38.7897L32.0872 38.242L32.6249 38.4164L33.0018 38.0002L33.3787 38.4164L33.9133 38.242L34.0307 38.7897L34.5837 38.903L34.4076 39.4354L34.8278 39.8088L34.4076 40.1821L34.5837 40.7115L34.0307 40.8278L33.9133 41.3755L33.3787 41.2011L33.0018 41.6173L32.6249 41.2011L32.0872 41.3755L31.9729 40.8278L31.4199 40.7115L31.596 40.1821L31.1758 39.8088L31.596 39.4354L31.4199 38.903L31.9729 38.7897ZM32.7484 38.4562L33.0018 38.5358L33.2552 38.4562L33.0018 38.0829L32.7484 38.4562ZM34.0585 38.9152L34.1141 39.1723L34.3118 39.3467L34.5096 38.9458L34.0585 38.9152ZM34.3118 40.2678L34.1141 40.4453L34.0585 40.7023L34.5096 40.6717L34.3118 40.2678ZM33.2552 41.1613L33.0018 41.0787L32.7484 41.1613L33.0018 41.5346L33.2552 41.1613ZM31.9451 40.7023L31.8895 40.4453L31.6918 40.2678L31.494 40.6717L31.9451 40.7023Z" fill="#D7B56D"/>
<path fill-rule="evenodd" clip-rule="evenodd" d="M31.2578 39.8085L32.0642 39.273L32.1291 38.3152L33.0004 38.7375L33.8717 38.3152L33.9366 39.273L34.743 39.8085L33.9366 40.344L33.8717 41.3018L33.0004 40.8795L32.1291 41.3018L32.0642 40.344L31.2578 39.8085ZM32.0859 40.3318L32.3454 39.8085L32.0859 39.2852L32.6729 39.2455L33.0004 38.762L33.3279 39.2455L33.915 39.2852L33.6554 39.8085L33.915 40.3318L33.3279 40.3716L33.0004 40.8551L32.6729 40.3716L32.0859 40.3318Z" fill="#5A6A23"/>
<path fill-rule="evenodd" clip-rule="evenodd" d="M32.2812 40.2188L32.4852 39.8088L32.2812 39.3956L32.7416 39.365L33.0012 38.9856L33.2576 39.365L33.7211 39.3956L33.5171 39.8088L33.7211 40.2188L33.2576 40.2494L33.0012 40.6319L32.7416 40.2494L32.2812 40.2188Z" fill="#AF4323"/>
<path d="M34.1071 27.669C34.3017 27.4364 34.416 27.0845 34.2801 26.9713C34.1472 26.8581 33.8105 27.0294 33.6158 27.2589C33.4366 27.467 33.4366 27.6537 33.5416 27.77C33.449 27.8587 33.3408 27.975 33.2265 28.0943C33.1214 27.9811 33.0226 27.874 32.9361 27.7883L32.9515 27.7792C33.0411 27.6659 33.0504 27.5221 32.9515 27.4058L32.3799 26.8611C32.3706 26.852 32.3521 26.852 32.3398 26.8611C32.3274 26.8764 32.3212 26.8979 32.3367 26.907L32.797 27.4517C32.8063 27.4609 32.8001 27.4823 32.7847 27.4915C32.7723 27.5007 32.7569 27.5068 32.7445 27.4976L32.2872 26.9529C32.2749 26.9376 32.2563 26.9376 32.2409 26.9468C32.2254 26.956 32.2254 26.9774 32.2347 26.9927L32.6951 27.5374C32.7074 27.5466 32.7012 27.565 32.6858 27.5772C32.6704 27.5864 32.6549 27.5894 32.6456 27.5803L32.1853 27.0356C32.176 27.0203 32.1544 27.0203 32.142 27.0294C32.1266 27.0417 32.1266 27.06 32.1358 27.0753L32.5962 27.62C32.6055 27.6292 32.6024 27.6506 32.5869 27.6598C32.5715 27.669 32.556 27.6751 32.5468 27.6659L32.0864 27.1212C32.0771 27.1059 32.0555 27.1059 32.04 27.1151H32.037C32.0246 27.1243 32.0215 27.1457 32.0308 27.1549L32.4757 27.7975C32.5746 27.9138 32.7167 27.9322 32.8465 27.8618L32.8619 27.8526C32.933 27.9536 33.0257 28.076 33.1245 28.2045C32.7878 28.5687 32.4448 28.9481 32.4448 28.9481C32.4015 28.9971 32.4108 29.0705 32.4602 29.1164C32.5097 29.1593 32.5869 29.1501 32.6302 29.1011C32.6302 29.1011 32.933 28.7217 33.2296 28.3422C33.5169 28.7155 33.8197 29.095 33.8414 29.1225C33.8877 29.1715 33.9618 29.1746 34.0113 29.1348C34.0607 29.0919 34.0669 29.0185 34.0267 28.9665C34.002 28.942 33.6621 28.5625 33.3315 28.2076C33.4366 28.0699 33.5386 27.9383 33.6158 27.8281C33.7456 27.9138 33.931 27.8771 34.1071 27.669Z" fill="#5A6A23"/>
</svg>
