<svg width="40" height="40" viewBox="0 0 40 40" fill="none" xmlns="http://www.w3.org/2000/svg">
<rect width="40" height="40" rx="20" fill="white"/>
<path d="M29.5934 21.2245C29.3482 21.0354 29.067 20.8983 28.7671 20.8215C28.4671 20.7446 28.1547 20.7295 27.8488 20.7773C29.6094 18.9998 30.5 17.2326 30.5 15.5001C30.5 13.0185 28.5041 11.0001 26.0506 11.0001C25.3996 10.996 24.7556 11.1345 24.1638 11.4057C23.5721 11.677 23.0468 12.0745 22.625 12.5704C22.2032 12.0745 21.6779 11.677 21.0862 11.4057C20.4944 11.1345 19.8504 10.996 19.1994 11.0001C16.7459 11.0001 14.75 13.0185 14.75 15.5001C14.75 16.5313 15.0537 17.5335 15.6931 18.5938C15.1695 18.7265 14.6916 18.9987 14.3103 19.3813L12.1897 21.5001H9.5C9.10218 21.5001 8.72064 21.6581 8.43934 21.9394C8.15804 22.2207 8 22.6023 8 23.0001V26.7501C8 27.1479 8.15804 27.5294 8.43934 27.8107C8.72064 28.0921 9.10218 28.2501 9.5 28.2501H19.25C19.3113 28.2501 19.3724 28.2426 19.4319 28.2276L25.4319 26.7276C25.4701 26.7185 25.5075 26.7059 25.5434 26.6901L29.1875 25.1395L29.2288 25.1207C29.579 24.9457 29.8789 24.6844 30.1002 24.3615C30.3215 24.0385 30.457 23.6646 30.4939 23.2748C30.5307 22.885 30.4678 22.4923 30.3109 22.1336C30.154 21.7749 29.9084 21.462 29.5972 21.2245H29.5934ZM28.5716 23.7698L25.0091 25.2866L19.1562 26.7501H13.25V22.5604L15.3716 20.4398C15.5103 20.2999 15.6756 20.189 15.8576 20.1135C16.0396 20.038 16.2348 19.9995 16.4319 20.0001H21.125C21.4234 20.0001 21.7095 20.1186 21.9205 20.3296C22.1315 20.5406 22.25 20.8267 22.25 21.1251C22.25 21.4235 22.1315 21.7096 21.9205 21.9206C21.7095 22.1316 21.4234 22.2501 21.125 22.2501H18.5C18.3011 22.2501 18.1103 22.3291 17.9697 22.4698C17.829 22.6104 17.75 22.8012 17.75 23.0001C17.75 23.199 17.829 23.3898 17.9697 23.5304C18.1103 23.6711 18.3011 23.7501 18.5 23.7501H21.5C21.5565 23.7499 21.6127 23.7436 21.6678 23.7313L27.9491 22.2866L27.9781 22.2791C28.1699 22.2259 28.3745 22.2455 28.5527 22.3341C28.7309 22.4227 28.87 22.574 28.9433 22.759C29.0167 22.944 29.0189 23.1496 28.9498 23.3362C28.8806 23.5228 28.7449 23.6772 28.5687 23.7698H28.5716Z" fill="#627856"/>
</svg>
