<svg width="40" height="40" viewBox="0 0 40 40" fill="none" xmlns="http://www.w3.org/2000/svg">
<rect width="40" height="40" rx="20" fill="white"/>
<path d="M29.6735 26.3292C29.6119 26.4554 29.516 26.5618 29.3968 26.6362C29.2776 26.7107 29.1399 26.7501 28.9994 26.7501H20.7494V30.5001C20.7494 30.699 20.6704 30.8898 20.5298 31.0304C20.3891 31.1711 20.1983 31.2501 19.9994 31.2501C19.8005 31.2501 19.6098 31.1711 19.4691 31.0304C19.3285 30.8898 19.2494 30.699 19.2494 30.5001V26.7501H10.9994C10.8591 26.75 10.7216 26.7105 10.6026 26.6362C10.4836 26.5618 10.3878 26.4555 10.3262 26.3294C10.2646 26.2034 10.2395 26.0625 10.254 25.9229C10.2684 25.7833 10.3217 25.6506 10.4079 25.5398L14.7204 20.0001H12.4994C12.3593 20.0001 12.2221 19.9609 12.1031 19.8869C11.9842 19.8129 11.8883 19.707 11.8265 19.5813C11.7646 19.4556 11.7392 19.3151 11.7531 19.1757C11.767 19.0363 11.8196 18.9036 11.9051 18.7926L19.4051 9.0426C19.4751 8.95157 19.5651 8.87784 19.6682 8.82711C19.7712 8.77638 19.8846 8.75 19.9994 8.75C20.1143 8.75 20.2276 8.77638 20.3307 8.82711C20.4337 8.87784 20.5238 8.95157 20.5938 9.0426L28.0938 18.7926C28.1793 18.9036 28.2319 19.0363 28.2458 19.1757C28.2597 19.3151 28.2343 19.4556 28.1724 19.5813C28.1105 19.707 28.0147 19.8129 27.8958 19.8869C27.7768 19.9609 27.6395 20.0001 27.4994 20.0001H25.2832L29.591 25.5398C29.6772 25.6505 29.7306 25.7831 29.7452 25.9227C29.7598 26.0622 29.735 26.203 29.6735 26.3292Z" fill="#627856"/>
</svg>
