<svg width="36" height="36" viewBox="0 0 36 36" fill="none" xmlns="http://www.w3.org/2000/svg">
<path fill-rule="evenodd" clip-rule="evenodd" d="M32.0001 18.5C32.0001 25.9559 25.9559 32.0001 18.5 32.0001C11.0442 32.0001 5 25.9559 5 18.5C5 11.0442 11.0442 5 18.5 5C25.9559 5 32.0001 11.0442 32.0001 18.5ZM18.5 29.9814C24.841 29.9814 29.9814 24.841 29.9814 18.5C29.9814 12.1591 24.841 7.01869 18.5 7.01869C12.1591 7.01869 7.01869 12.1591 7.01869 18.5C7.01869 24.841 12.1591 29.9814 18.5 29.9814Z" fill="white"/>
<path d="M22.6426 11.3094V25.7392H20.0933V13.2814C19.0419 13.2766 17.925 13.2151 16.9832 13.7547C15.9703 14.3348 15.7663 15.3247 15.8673 16.4262C16.0482 18.3992 17.9847 19.291 19.4199 20.2799L15.7644 25.7402H12.9746L16.2406 20.8975L16.2242 20.8331C15.0044 19.9788 13.8337 18.8812 13.4691 17.3805C13.0102 15.4911 13.4874 13.3892 15.1718 12.281C17.3267 10.863 20.1982 11.4296 22.6417 11.3094H22.6426Z" fill="white"/>
</svg>
