<svg width="32" height="32" viewBox="0 0 32 32" fill="none" xmlns="http://www.w3.org/2000/svg">
<path d="M4.2925 16.7081L13.2925 25.7081C13.4801 25.8957 13.7346 26.0011 14 26.0011C14.2654 26.0011 14.5199 25.8957 14.7075 25.7081C14.8951 25.5204 15.0006 25.2659 15.0006 25.0006C15.0006 24.7352 14.8951 24.4807 14.7075 24.2931L7.41375 17.0006H27C27.2652 17.0006 27.5196 16.8952 27.7071 16.7077C27.8946 16.5201 28 16.2658 28 16.0006C28 15.7353 27.8946 15.481 27.7071 15.2934C27.5196 15.1059 27.2652 15.0006 27 15.0006H7.41375L14.7075 7.70806C14.8951 7.52042 15.0006 7.26592 15.0006 7.00056C15.0006 6.73519 14.8951 6.4807 14.7075 6.29306C14.5199 6.10542 14.2654 6 14 6C13.7346 6 13.4801 6.10542 13.2925 6.29306L4.2925 15.2931C4.19952 15.3859 4.12576 15.4962 4.07544 15.6176C4.02512 15.739 3.99921 15.8691 3.99921 16.0006C3.99921 16.132 4.02512 16.2621 4.07544 16.3835C4.12576 16.5049 4.19952 16.6152 4.2925 16.7081Z"/>
</svg>
