<svg width="24" height="24" viewBox="0 0 24 24" fill="none" xmlns="http://www.w3.org/2000/svg">
<path d="M19.7802 12.2495L16.9865 4.35664C16.644 3.31583 15.9845 2.40825 15.1003 1.76109C14.2161 1.11394 13.1516 0.759646 12.056 0.747862C10.9603 0.736079 9.88845 1.0674 8.99056 1.69539C8.09267 2.32337 7.41376 3.21656 7.04899 4.24977L4.28242 12.0779C3.81342 13.3193 3.6508 14.6555 3.80836 15.9732C3.96592 17.2908 4.43901 18.551 5.18749 19.6468C5.93597 20.7426 6.93775 21.6417 8.10782 22.2678C9.27789 22.8939 10.5817 23.2284 11.9087 23.2431C13.2356 23.2578 14.5466 22.9522 15.7302 22.3522C16.9138 21.7522 17.9353 20.8755 18.7078 19.7965C19.4804 18.7175 19.9813 17.4681 20.168 16.1543C20.3546 14.8404 20.2216 13.5009 19.7802 12.2495ZM11.999 18.7501C11.2573 18.7501 10.5323 18.5301 9.9156 18.1181C9.29891 17.706 8.81827 17.1204 8.53444 16.4351C8.25061 15.7499 8.17635 14.9959 8.32104 14.2685C8.46574 13.5411 8.82289 12.8729 9.34734 12.3484C9.87178 11.824 10.54 11.4668 11.2674 11.3221C11.9948 11.1774 12.7488 11.2517 13.434 11.5355C14.1193 11.8194 14.7049 12.3 15.117 12.9167C15.5291 13.5334 15.749 14.2584 15.749 15.0001C15.749 15.9946 15.3539 16.9485 14.6506 17.6517C13.9474 18.355 12.9935 18.7501 11.999 18.7501Z"/>
</svg>
