<svg width="24" height="24" viewBox="0 0 24 24" fill="none" xmlns="http://www.w3.org/2000/svg">
<path d="M22.4846 5.65606C22.4606 5.77435 22.4085 5.88513 22.3326 5.97898C22.2567 6.07283 22.1593 6.14697 22.0486 6.19512L16.7808 8.48918C18.4948 8.94744 19.9568 10.0672 20.8458 11.6026C21.2918 12.3637 21.5813 13.2062 21.6972 14.0808C21.8131 14.9553 21.7531 15.8441 21.5208 16.6951C21.4887 16.8137 21.4279 16.9226 21.3439 17.0122C21.2599 17.1018 21.1551 17.1694 21.0388 17.209C20.9225 17.2486 20.7983 17.2591 20.677 17.2394C20.5557 17.2198 20.4411 17.1707 20.3433 17.0964L12.7496 11.3139V21.0001C12.7496 21.199 12.6705 21.3898 12.5299 21.5304C12.3892 21.6711 12.1985 21.7501 11.9996 21.7501C11.8006 21.7501 11.6099 21.6711 11.4692 21.5304C11.3286 21.3898 11.2496 21.199 11.2496 21.0001V11.3139L3.65581 17.0964C3.55796 17.1709 3.44329 17.2202 3.32191 17.2399C3.20052 17.2597 3.07613 17.2493 2.95971 17.2096C2.84329 17.17 2.73841 17.1023 2.65429 17.0126C2.57018 16.9229 2.50942 16.8139 2.47737 16.6951C2.24504 15.8441 2.18507 14.9553 2.30098 14.0808C2.41689 13.2062 2.70636 12.3637 3.15237 11.6026C4.04158 10.067 5.50398 8.94722 7.21831 8.48918L1.9505 6.19512C1.83991 6.14695 1.74257 6.07281 1.66674 5.979C1.5909 5.8852 1.53882 5.77448 1.5149 5.65625C1.49097 5.53802 1.49592 5.41577 1.52932 5.29986C1.56272 5.18395 1.62358 5.0778 1.70675 4.99043C2.29319 4.36232 3.00253 3.86151 3.79068 3.5191C4.57884 3.17669 5.42899 3 6.28831 3C7.14763 3 7.99778 3.17669 8.78593 3.5191C9.57409 3.86151 10.2834 4.36232 10.8699 4.99043C11.3199 5.46458 11.6988 6.0014 11.9949 6.58418C12.2924 6.00111 12.6729 5.46427 13.1246 4.99043C13.711 4.36232 14.4203 3.86151 15.2085 3.5191C15.9967 3.17669 16.8468 3 17.7061 3C18.5654 3 19.4156 3.17669 20.2037 3.5191C20.9919 3.86151 21.7012 4.36232 22.2877 4.99043C22.3717 5.07731 22.4335 5.1832 22.4678 5.2991C22.502 5.41499 22.5078 5.53745 22.4846 5.65606Z"/>
</svg>
