<svg width="24" height="25" viewBox="0 0 24 25" fill="none" xmlns="http://www.w3.org/2000/svg">
<path d="M19.5 3.10742H17.25V2.35742C17.25 2.15851 17.171 1.96774 17.0303 1.82709C16.8897 1.68644 16.6989 1.60742 16.5 1.60742C16.3011 1.60742 16.1103 1.68644 15.9697 1.82709C15.829 1.96774 15.75 2.15851 15.75 2.35742V3.10742H8.25V2.35742C8.25 2.15851 8.17098 1.96774 8.03033 1.82709C7.88968 1.68644 7.69891 1.60742 7.5 1.60742C7.30109 1.60742 7.11032 1.68644 6.96967 1.82709C6.82902 1.96774 6.75 2.15851 6.75 2.35742V3.10742H4.5C4.10218 3.10742 3.72064 3.26546 3.43934 3.54676C3.15804 3.82807 3 4.2096 3 4.60742V19.6074C3 20.0052 3.15804 20.3868 3.43934 20.6681C3.72064 20.9494 4.10218 21.1074 4.5 21.1074H19.5C19.8978 21.1074 20.2794 20.9494 20.5607 20.6681C20.842 20.3868 21 20.0052 21 19.6074V4.60742C21 4.2096 20.842 3.82807 20.5607 3.54676C20.2794 3.26546 19.8978 3.10742 19.5 3.10742ZM7.875 17.3574C7.6525 17.3574 7.43499 17.2914 7.24998 17.1678C7.06498 17.0442 6.92078 16.8685 6.83564 16.6629C6.75049 16.4574 6.72821 16.2312 6.77162 16.0129C6.81502 15.7947 6.92217 15.5943 7.0795 15.4369C7.23684 15.2796 7.43729 15.1724 7.65552 15.129C7.87375 15.0856 8.09995 15.1079 8.30552 15.1931C8.51109 15.2782 8.68679 15.4224 8.8104 15.6074C8.93402 15.7924 9 16.0099 9 16.2324C9 16.5308 8.88147 16.8169 8.6705 17.0279C8.45952 17.2389 8.17337 17.3574 7.875 17.3574ZM12 17.3574C11.7775 17.3574 11.56 17.2914 11.375 17.1678C11.19 17.0442 11.0458 16.8685 10.9606 16.6629C10.8755 16.4574 10.8532 16.2312 10.8966 16.0129C10.94 15.7947 11.0472 15.5943 11.2045 15.4369C11.3618 15.2796 11.5623 15.1724 11.7805 15.129C11.9988 15.0856 12.225 15.1079 12.4305 15.1931C12.6361 15.2782 12.8118 15.4224 12.9354 15.6074C13.059 15.7924 13.125 16.0099 13.125 16.2324C13.125 16.5308 13.0065 16.8169 12.7955 17.0279C12.5845 17.2389 12.2984 17.3574 12 17.3574ZM12 13.6074C11.7775 13.6074 11.56 13.5414 11.375 13.4178C11.19 13.2942 11.0458 13.1185 10.9606 12.9129C10.8755 12.7074 10.8532 12.4812 10.8966 12.2629C10.94 12.0447 11.0472 11.8443 11.2045 11.6869C11.3618 11.5296 11.5623 11.4224 11.7805 11.379C11.9988 11.3356 12.225 11.3579 12.4305 11.4431C12.6361 11.5282 12.8118 11.6724 12.9354 11.8574C13.059 12.0424 13.125 12.2599 13.125 12.4824C13.125 12.7808 13.0065 13.0669 12.7955 13.2779C12.5845 13.4889 12.2984 13.6074 12 13.6074ZM16.125 17.3574C15.9025 17.3574 15.685 17.2914 15.5 17.1678C15.315 17.0442 15.1708 16.8685 15.0856 16.6629C15.0005 16.4574 14.9782 16.2312 15.0216 16.0129C15.065 15.7947 15.1722 15.5943 15.3295 15.4369C15.4868 15.2796 15.6873 15.1724 15.9055 15.129C16.1238 15.0856 16.35 15.1079 16.5555 15.1931C16.7611 15.2782 16.9368 15.4224 17.0604 15.6074C17.184 15.7924 17.25 16.0099 17.25 16.2324C17.25 16.5308 17.1315 16.8169 16.9205 17.0279C16.7095 17.2389 16.4234 17.3574 16.125 17.3574ZM16.125 13.6074C15.9025 13.6074 15.685 13.5414 15.5 13.4178C15.315 13.2942 15.1708 13.1185 15.0856 12.9129C15.0005 12.7074 14.9782 12.4812 15.0216 12.2629C15.065 12.0447 15.1722 11.8443 15.3295 11.6869C15.4868 11.5296 15.6873 11.4224 15.9055 11.379C16.1238 11.3356 16.35 11.3579 16.5555 11.4431C16.7611 11.5282 16.9368 11.6724 17.0604 11.8574C17.184 12.0424 17.25 12.2599 17.25 12.4824C17.25 12.7808 17.1315 13.0669 16.9205 13.2779C16.7095 13.4889 16.4234 13.6074 16.125 13.6074ZM19.5 7.60742H4.5V4.60742H6.75V5.35742C6.75 5.55633 6.82902 5.7471 6.96967 5.88775C7.11032 6.0284 7.30109 6.10742 7.5 6.10742C7.69891 6.10742 7.88968 6.0284 8.03033 5.88775C8.17098 5.7471 8.25 5.55633 8.25 5.35742V4.60742H15.75V5.35742C15.75 5.55633 15.829 5.7471 15.9697 5.88775C16.1103 6.0284 16.3011 6.10742 16.5 6.10742C16.6989 6.10742 16.8897 6.0284 17.0303 5.88775C17.171 5.7471 17.25 5.55633 17.25 5.35742V4.60742H19.5V7.60742Z"/>
</svg>
