<svg width="24" height="24" viewBox="0 0 24 24" fill="none" xmlns="http://www.w3.org/2000/svg">
<path d="M6.96896 12.5306L14.469 20.0306C14.5386 20.1002 14.6214 20.1555 14.7124 20.1932C14.8035 20.2309 14.901 20.2503 14.9996 20.2503C15.0981 20.2503 15.1957 20.2309 15.2868 20.1932C15.3778 20.1555 15.4605 20.1002 15.5302 20.0306C15.5999 19.9609 15.6552 19.8781 15.6929 19.7871C15.7306 19.6961 15.75 19.5985 15.75 19.4999C15.75 19.4014 15.7306 19.3038 15.6929 19.2128C15.6552 19.1217 15.5999 19.039 15.5302 18.9693L8.5599 11.9999L15.5302 5.03055C15.6709 4.88982 15.75 4.69895 15.75 4.49993C15.75 4.30091 15.6709 4.11003 15.5302 3.9693C15.3895 3.82857 15.1986 3.74951 14.9996 3.74951C14.8006 3.74951 14.6097 3.82857 14.469 3.9693L6.96896 11.4693C6.89923 11.539 6.84391 11.6217 6.80616 11.7127C6.76842 11.8038 6.74899 11.9014 6.74899 11.9999C6.74899 12.0985 6.76842 12.1961 6.80616 12.2871C6.84391 12.3782 6.89923 12.4609 6.96896 12.5306Z"/>
</svg>
