<svg width="24" height="24" viewBox="0 0 24 24" fill="none" xmlns="http://www.w3.org/2000/svg">
<path d="M3 7.50009C3 7.30118 3.07902 7.11041 3.21967 6.96976C3.36032 6.82911 3.55109 6.75009 3.75 6.75009H7.23469C7.39635 6.20857 7.72845 5.73367 8.18163 5.39602C8.63481 5.05836 9.18486 4.87598 9.75 4.87598C10.3151 4.87598 10.8652 5.05836 11.3184 5.39602C11.7715 5.73367 12.1037 6.20857 12.2653 6.75009H20.25C20.4489 6.75009 20.6397 6.82911 20.7803 6.96976C20.921 7.11041 21 7.30118 21 7.50009C21 7.699 20.921 7.88977 20.7803 8.03042C20.6397 8.17107 20.4489 8.25009 20.25 8.25009H12.2653C12.1037 8.79162 11.7715 9.26651 11.3184 9.60417C10.8652 9.94182 10.3151 10.1242 9.75 10.1242C9.18486 10.1242 8.63481 9.94182 8.18163 9.60417C7.72845 9.26651 7.39635 8.79162 7.23469 8.25009H3.75C3.55109 8.25009 3.36032 8.17107 3.21967 8.03042C3.07902 7.88977 3 7.699 3 7.50009ZM20.25 15.7501H18.2653C18.1037 15.2086 17.7715 14.7337 17.3184 14.396C16.8652 14.0584 16.3151 13.876 15.75 13.876C15.1849 13.876 14.6348 14.0584 14.1816 14.396C13.7285 14.7337 13.3963 15.2086 13.2347 15.7501H3.75C3.55109 15.7501 3.36032 15.8291 3.21967 15.9698C3.07902 16.1104 3 16.3012 3 16.5001C3 16.699 3.07902 16.8898 3.21967 17.0304C3.36032 17.1711 3.55109 17.2501 3.75 17.2501H13.2347C13.3963 17.7916 13.7285 18.2665 14.1816 18.6042C14.6348 18.9418 15.1849 19.1242 15.75 19.1242C16.3151 19.1242 16.8652 18.9418 17.3184 18.6042C17.7715 18.2665 18.1037 17.7916 18.2653 17.2501H20.25C20.4489 17.2501 20.6397 17.1711 20.7803 17.0304C20.921 16.8898 21 16.699 21 16.5001C21 16.3012 20.921 16.1104 20.7803 15.9698C20.6397 15.8291 20.4489 15.7501 20.25 15.7501Z"/>
</svg>
