<svg width="25" height="24" viewBox="0 0 25 24" fill="none" xmlns="http://www.w3.org/2000/svg">
<path d="M20.22 12.1273C20.144 12.0832 20.0606 12.0411 19.9744 11.9998C20.0606 11.9586 20.144 11.9164 20.22 11.8723C20.6499 11.6279 21.0272 11.3008 21.3302 10.91C21.6332 10.5191 21.8559 10.0722 21.9855 9.5949C22.1151 9.11763 22.149 8.61944 22.0852 8.12901C22.0215 7.63859 21.8614 7.16562 21.6141 6.73733C21.3668 6.30904 21.0373 5.93389 20.6444 5.63348C20.2515 5.33307 19.8032 5.11334 19.325 4.98693C18.8469 4.86053 18.3485 4.82994 17.8585 4.89694C17.3685 4.96393 16.8966 5.12719 16.47 5.3773C16.394 5.42137 16.3153 5.47105 16.2375 5.52637C16.245 5.43262 16.2497 5.33887 16.2497 5.24512C16.2497 4.25056 15.8546 3.29673 15.1513 2.59347C14.4481 1.89021 13.4942 1.49512 12.4997 1.49512C11.5051 1.49512 10.5513 1.89021 9.84802 2.59347C9.14475 3.29673 8.74967 4.25056 8.74967 5.24512C8.74967 5.33324 8.74967 5.42699 8.76185 5.52637C8.68404 5.47293 8.60529 5.42137 8.52935 5.3773C8.10271 5.12719 7.63081 4.96393 7.14082 4.89694C6.65083 4.82994 6.15243 4.86053 5.67431 4.98693C5.19618 5.11334 4.74779 5.33307 4.35493 5.63348C3.96208 5.93389 3.63252 6.30904 3.38524 6.73733C3.13796 7.16562 2.97784 7.63859 2.91409 8.12901C2.85035 8.61944 2.88424 9.11763 3.01382 9.5949C3.14339 10.0722 3.3661 10.5191 3.6691 10.91C3.97211 11.3008 4.34943 11.6279 4.77935 11.8723C4.85529 11.9164 4.93873 11.9586 5.02498 11.9998C4.93873 12.0411 4.85529 12.0832 4.77935 12.1273C4.34943 12.3717 3.97211 12.6988 3.6691 13.0897C3.3661 13.4805 3.14339 13.9274 3.01382 14.4047C2.88424 14.882 2.85035 15.3802 2.91409 15.8706C2.97784 16.361 3.13796 16.834 3.38524 17.2623C3.63252 17.6906 3.96208 18.0657 4.35493 18.3661C4.74779 18.6665 5.19618 18.8863 5.67431 19.0127C6.15243 19.1391 6.65083 19.1697 7.14082 19.1027C7.63081 19.0357 8.10271 18.8724 8.52935 18.6223C8.60529 18.5782 8.68404 18.5286 8.76185 18.4732C8.75435 18.567 8.74967 18.6607 8.74967 18.7498C8.74967 19.7444 9.14475 20.6982 9.84802 21.4015C10.5513 22.1047 11.5051 22.4998 12.4997 22.4998C13.4942 22.4998 14.4481 22.1047 15.1513 21.4015C15.8546 20.6982 16.2497 19.7444 16.2497 18.7498C16.2497 18.6617 16.245 18.5679 16.2375 18.4732C16.3153 18.5267 16.394 18.5782 16.47 18.6223C17.038 18.9514 17.6829 19.1247 18.3394 19.1248C18.6692 19.1244 18.9976 19.0809 19.3162 18.9954C20.0326 18.8034 20.676 18.4033 21.165 17.8456C21.654 17.2879 21.9666 16.5977 22.0634 15.8624C22.1601 15.127 22.0366 14.3795 21.7085 13.7143C21.3804 13.0491 20.8624 12.4962 20.22 12.1254V12.1273ZM12.4997 14.6248C11.9805 14.6248 11.473 14.4709 11.0413 14.1824C10.6096 13.894 10.2732 13.484 10.0745 13.0043C9.8758 12.5247 9.82382 11.9969 9.92511 11.4877C10.0264 10.9785 10.2764 10.5108 10.6435 10.1437C11.0106 9.77654 11.4784 9.52653 11.9876 9.42524C12.4968 9.32396 13.0246 9.37594 13.5042 9.57462C13.9839 9.7733 14.3938 10.1098 14.6823 10.5414C14.9707 10.9731 15.1247 11.4806 15.1247 11.9998C15.1247 12.696 14.8481 13.3637 14.3558 13.856C13.8635 14.3482 13.1959 14.6248 12.4997 14.6248Z"/>
</svg>
