<svg width="24" height="24" viewBox="0 0 24 24" fill="none" xmlns="http://www.w3.org/2000/svg">
<path d="M16.3125 4.47635C15.1545 3.13895 13.8511 1.93465 12.4266 0.885727C12.3005 0.797387 12.1502 0.75 11.9963 0.75C11.8423 0.75 11.692 0.797387 11.5659 0.885727C10.144 1.93509 8.84317 3.13937 7.6875 4.47635C5.11031 7.43604 3.75 10.556 3.75 13.4998C3.75 15.6878 4.61919 17.7862 6.16637 19.3334C7.71354 20.8806 9.81196 21.7498 12 21.7498C14.188 21.7498 16.2865 20.8806 17.8336 19.3334C19.3808 17.7862 20.25 15.6878 20.25 13.4998C20.25 10.556 18.8897 7.43604 16.3125 4.47635ZM5.25 13.4998C5.25 8.13448 10.4503 3.65604 12 2.43729V20.2498C10.2104 20.2478 8.49466 19.536 7.22922 18.2706C5.96378 17.0051 5.25199 15.2894 5.25 13.4998Z"/>
</svg>
