<?xml version="1.0" encoding="utf-8"?>
<!-- Generator: Adobe Illustrator 19.2.1, SVG Export Plug-In . SVG Version: 6.00 Build 0)  -->
<svg version="1.1" id="Слой_1" xmlns="http://www.w3.org/2000/svg" xmlns:xlink="http://www.w3.org/1999/xlink" x="0px" y="0px"
	 viewBox="0 0 40 40" style="enable-background:new 0 0 40 40;" xml:space="preserve">
<path d="M20,0.3C9.1,0.3,0.3,9.1,0.3,20c0,10.9,8.8,19.8,19.8,19.8S39.8,30.9,39.8,20C39.8,9.1,30.9,0.3,20,0.3z M18.2,28.9H16v-8.5c0-1.1-0.2-2-0.7-2.5s-1.2-0.8-2.1-0.8c-0.7,0-1.3,0.2-1.9,0.5c-0.6,0.4-1,0.8-1.3,1.4c-0.3,0.6-0.4,1.4-0.4,2.5v7.4H7.3V10.3h2.3V17c1.1-1.2,2.4-1.9,4-1.9c1,0,1.9,0.2,2.6,0.6s1.3,0.9,1.6,1.6c0.3,0.7,0.5,1.7,0.5,3V28.9z M32.7,28.9h-2.3v-8.5c0-1.1-0.2-2-0.7-2.5c-0.5-0.5-1.2-0.8-2.1-0.8c-0.7,0-1.3,0.2-1.9,0.5c-0.6,0.4-1,0.8-1.3,1.4c-0.3,0.6-0.4,1.4-0.4,2.5v7.4h-2.3V10.3H24V17c1.1-1.2,2.4-1.9,4-1.9c1,0,1.9,0.2,2.6,0.6s1.3,0.9,1.6,1.6c0.3,0.7,0.5,1.7,0.5,3V28.9z"/>
</svg>
