<?xml version="1.0" encoding="utf-8"?>
<!-- Generator: Adobe Illustrator 19.2.1, SVG Export Plug-In . SVG Version: 6.00 Build 0)  -->
<svg version="1.1" id="Слой_1" xmlns="http://www.w3.org/2000/svg" xmlns:xlink="http://www.w3.org/1999/xlink" x="0px" y="0px"
	 viewBox="0 0 70 70" style="enable-background:new 0 0 70 70;" xml:space="preserve">
<path d="M10.6,67.2H7c-2.8,0-5-2.2-5-5v-1.7C2,28.8,27.8,3,59.5,3h3.6c2.8,0,5,2.2,5,5v1.7C68.2,41.4,42.4,67.2,10.6,67.2z M59.5,5.5c-30.3,0-55,24.7-55,55v1.7c0,1.4,1.1,2.5,2.5,2.5h3.6c30.3,0,55-24.7,55-55V8c0-1.4-1.1-2.5-2.5-2.5H59.5z"/>
</svg>
