<svg width="25" height="24" viewBox="0 0 25 24" fill="none" xmlns="http://www.w3.org/2000/svg">
<path d="M22.2172 18.2392L19.1056 3.44549C19.0654 3.25203 18.9873 3.06843 18.8759 2.90523C18.7645 2.74203 18.6219 2.60246 18.4564 2.49452C18.2909 2.38659 18.1057 2.31242 17.9114 2.27628C17.7171 2.24014 17.5176 2.24274 17.3244 2.28393L12.9359 3.22705C12.5478 3.31205 12.2089 3.54687 11.9929 3.88044C11.777 4.21401 11.7015 4.61935 11.7828 5.0083L14.8944 19.8021C14.9637 20.1396 15.1471 20.4429 15.4138 20.6611C15.6805 20.8793 16.0142 20.999 16.3588 21.0002C16.4653 21 16.5715 20.9887 16.6756 20.9664L21.0641 20.0233C21.4527 19.9381 21.792 19.7028 22.0079 19.3687C22.2239 19.0345 22.2991 18.6286 22.2172 18.2392ZM13.25 4.70174C13.25 4.69612 13.25 4.6933 13.25 4.6933L17.6375 3.7558L17.9497 5.24362L13.5622 6.18768L13.25 4.70174ZM14.1875 9.14362L13.8734 7.65299L18.2628 6.70987L18.5759 8.20049L14.1875 9.14362ZM20.75 18.5571L16.3625 19.4946L16.0503 18.0067L20.4378 17.0627L20.75 18.5486C20.75 18.5542 20.75 18.5571 20.75 18.5571ZM10.25 3.00018H5.75C5.35218 3.00018 4.97064 3.15821 4.68934 3.43952C4.40804 3.72082 4.25 4.10235 4.25 4.50018V19.5002C4.25 19.898 4.40804 20.2795 4.68934 20.5608C4.97064 20.8421 5.35218 21.0002 5.75 21.0002H10.25C10.6478 21.0002 11.0294 20.8421 11.3107 20.5608C11.592 20.2795 11.75 19.898 11.75 19.5002V4.50018C11.75 4.10235 11.592 3.72082 11.3107 3.43952C11.0294 3.15821 10.6478 3.00018 10.25 3.00018ZM5.75 4.50018H10.25V6.00018H5.75V4.50018ZM10.25 19.5002H5.75V18.0002H10.25V19.5002Z"/>
</svg>
