<svg width="32" height="32" viewBox="0 0 32 32" fill="none" xmlns="http://www.w3.org/2000/svg">
<path d="M13.8491 14.208C14.9227 13.0987 14.6792 13.3215 14.6788 11.7521L14.6784 6.52956C14.6749 6.12448 14.5357 5.49966 15.1031 5.43338C15.5708 5.41835 17.1444 5.29086 17.3003 5.72219C17.3719 5.92071 17.3311 7.46887 17.331 7.79918L17.3329 11.7624C17.3318 13.6195 17.1554 12.8378 18.1696 14.208L18.1689 12.9564C18.1698 11.9373 18.2314 11.236 18.9855 10.4587C19.5052 9.92287 20.5054 9.51699 21.2539 9.50906C22.369 9.49724 23.7374 10.5379 24.5058 11.2876C26.9484 13.671 28.1964 17.2131 28.2299 20.5949L28.2311 21.8776C28.2325 23.1446 28.1583 23.9874 27.2066 24.9506C26.2752 25.8932 25.1289 25.9539 23.8736 25.9533L22.2451 25.9559C20.7161 25.9603 19.248 25.0349 18.5774 23.6636C18.1976 22.8867 18.1685 22.3104 18.1694 21.4709L18.1696 17.6935C17.6444 17.1617 17.0971 16.6501 16.5631 16.1269C16.3583 15.9252 16.1868 15.7956 15.8881 15.7869C15.7274 15.8599 14.1438 17.3346 13.8491 17.6367L13.8493 20.4006C13.8491 22.1384 13.9984 23.3701 12.7067 24.7204C11.4006 26.0855 9.90532 25.9501 8.21638 25.9537C7.81801 25.9546 7.40176 25.9811 7.00607 25.9461C5.17473 25.7841 3.81924 24.2306 3.80274 22.4093C3.76478 18.2188 4.25384 14.5952 7.40476 11.3998C8.93926 9.84362 11.1381 8.61249 12.99 10.4516C13.7741 11.2304 13.8503 11.9949 13.8494 13.0361L13.8491 14.208ZM10.7429 11.3332C9.68957 11.4616 8.53207 12.7979 7.92113 13.5782C5.95703 16.0868 5.60115 18.6839 5.60382 21.7214C5.85292 21.5162 6.07751 21.2847 6.30557 21.0569L11.1153 16.3451C11.4208 16.0483 11.7401 15.7586 12.0314 15.4481C12.0544 14.7973 12.0313 14.1389 12.0318 13.4871L12.0326 12.7321C12.0335 12.5302 12.0473 12.3239 12.0086 12.1245C11.9073 11.6022 11.2452 11.2668 10.7429 11.3332ZM21.0502 11.3332C19.8005 11.4677 19.9385 12.3881 19.9388 13.2854L19.9392 15.4481C20.815 16.353 21.7284 17.2227 22.6344 18.097L25.7908 21.1804C25.9775 21.3674 26.1631 21.5529 26.367 21.7214C26.3733 18.4301 25.7922 15.1536 23.3621 12.7126C22.8462 12.1944 21.8116 11.3209 21.0502 11.3332Z"/>
</svg>
