<svg width="24" height="24" viewBox="0 0 24 24" fill="none" xmlns="http://www.w3.org/2000/svg">
<path d="M0 11.5194C0 6.09187 0 3.36396 1.68197 1.68198C3.37809 1.34795e-07 6.09187 0 11.5194 0H12.4806C17.9081 0 20.636 1.34795e-07 22.318 1.68198C24 3.36396 24 6.09187 24 11.5194V12.4806C24 17.9081 24 20.636 22.318 22.318C20.636 24 17.9081 24 12.4806 24H11.5194C6.09187 24 3.36395 24 1.68197 22.318C0 20.636 0 17.9223 0 12.4806V11.5194Z"/>
<path d="M12 11.9435C13.1732 11.9435 14.2333 11.4629 14.9965 10.6996C15.7598 9.93639 16.2403 8.87632 16.2403 7.70317C16.2403 6.53003 15.7598 5.46996 14.9965 4.70671C14.2333 3.94346 13.1732 3.46289 12 3.46289C10.8269 3.46289 9.76683 3.94346 9.00358 4.70671C8.24033 5.46996 7.75977 6.53003 7.75977 7.70317C7.75977 8.87632 8.24033 9.93639 9.00358 10.6996C9.76683 11.4629 10.841 11.9435 12 11.9435ZM10.6431 6.33215C10.9965 5.97879 11.4771 5.76678 12 5.76678C12.5371 5.76678 13.0177 5.97879 13.3569 6.33215C13.7103 6.68551 13.9223 7.16607 13.9223 7.68904C13.9223 8.22614 13.7103 8.70671 13.3569 9.04593C13.0036 9.39929 12.523 9.6113 12 9.6113C11.4629 9.6113 10.9824 9.39929 10.6431 9.04593C10.2898 8.69257 10.0778 8.21201 10.0778 7.68904C10.0778 7.16607 10.3039 6.68551 10.6431 6.33215Z" fill="#1B2615"/>
<path d="M17.7093 13.6551L16.4655 11.959C16.3948 11.86 16.2535 11.8459 16.1687 11.9307C14.9955 12.9342 13.5538 13.5844 11.999 13.5844C10.4443 13.5844 9.00257 12.9342 7.82943 11.9307C7.74462 11.86 7.60328 11.8741 7.53261 11.959L6.28879 13.6551C6.23226 13.7399 6.24639 13.8529 6.31706 13.9236C7.363 14.7717 8.57855 15.3512 9.85063 15.648L7.22165 20.284C7.15098 20.4113 7.24992 20.5809 7.39127 20.5809H9.96371C10.0485 20.5809 10.1192 20.5385 10.1475 20.4537L11.9849 16.3547L13.8224 20.4537C13.8506 20.5243 13.9213 20.5809 14.0061 20.5809H16.5785C16.734 20.5809 16.8188 20.4254 16.7482 20.284L14.1192 15.648C15.3913 15.3512 16.6068 14.7858 17.6528 13.9236C17.7658 13.8529 17.78 13.7399 17.7093 13.6551Z" fill="#1B2615"/>
</svg>
