<svg width="20" height="20" viewBox="0 0 20 20" fill="none" xmlns="http://www.w3.org/2000/svg">
<path d="M9.99732 6.25034C9.63843 6.25034 9.33267 6.12346 9.08003 5.86971C8.82725 5.61596 8.70086 5.30964 8.70086 4.95075C8.70086 4.59173 8.82773 4.28589 9.08148 4.03326C9.33523 3.78062 9.64162 3.6543 10.0007 3.6543C10.3595 3.6543 10.6653 3.78117 10.9179 4.03492C11.1707 4.28867 11.2971 4.59499 11.2971 4.95388C11.2971 5.31291 11.1702 5.61874 10.9165 5.87138C10.6627 6.12402 10.3563 6.25034 9.99732 6.25034ZM8.60482 16.2343L8.60482 12.2278L7.77148 12.2278L7.77148 8.50992C7.77148 8.12659 7.90801 7.79839 8.18107 7.52534C8.45398 7.25228 8.78218 7.11575 9.16565 7.11575L10.8323 7.11575C11.2158 7.11575 11.544 7.25228 11.8169 7.52534C12.09 7.79839 12.2265 8.12659 12.2265 8.50992L12.2265 12.2278L11.3932 12.2278L11.3932 16.2343L8.60482 16.2343Z"/>
</svg>
