<?xml version="1.0" encoding="utf-8"?>
<!-- Generator: Adobe Illustrator 19.2.1, SVG Export Plug-In . SVG Version: 6.00 Build 0)  -->
<svg version="1.1" id="Слой_1" xmlns="http://www.w3.org/2000/svg" xmlns:xlink="http://www.w3.org/1999/xlink" x="0px" y="0px"
	 viewBox="0 0 24 24" style="enable-background:new 0 0 24 24;" xml:space="preserve">
<style type="text/css">
	.st0{fill:#FFFFFF;}
	.st1{clip-path:url(#SVGID_2_);fill:#FFFFFF;}
</style>
<path class="st0" d="M14.8,11.5H7.7V8.6h7.1c0.4,0,0.7,0.1,0.8,0.2c0.1,0.1,0.2,0.4,0.2,0.7v1c0,0.4-0.1,0.6-0.2,0.7
	C15.5,11.4,15.2,11.5,14.8,11.5L14.8,11.5z M15.3,6H4.7v12h3v-3.9h5.5l2.6,3.9h3.4l-2.9-3.9c1.1-0.2,1.5-0.5,1.9-1
	c0.4-0.5,0.6-1.4,0.6-2.6V9.6c0-0.7-0.1-1.2-0.2-1.6c-0.1-0.4-0.3-0.8-0.6-1.1c-0.3-0.3-0.7-0.5-1.1-0.7C16.5,6.1,16,6,15.3,6
	L15.3,6z"/>
<g>
	<defs>
		<path id="SVGID_1_" d="M5.8,0.4c-3,0-5.5,2.4-5.5,5.5v12.4c0,3,2.4,5.5,5.5,5.5h12.4c3,0,5.5-2.4,5.5-5.5V5.8c0-3-2.4-5.5-5.5-5.5
			H5.8z"/>
	</defs>
	<clipPath id="SVGID_2_">
		<use xlink:href="#SVGID_1_"  style="overflow:visible;"/>
	</clipPath>
	<path class="st1" d="M36,0c0,6.6-5.4,12-12,12c-1.3,0-2.6-0.2-3.9-0.6c0-0.3,0-0.6,0-0.9V9.6c0-0.8-0.1-1.4-0.3-2
		C19.7,7,19.4,6.4,19,6l0,0l0,0c-0.5-0.4-1-0.7-1.6-0.9l0,0l0,0c-0.6-0.2-1.2-0.2-2-0.2H14v0H13c-0.6-1.5-1-3-1-4.7
		c0-6.6,5.4-12,12-12C30.6-12,36-6.6,36,0z"/>
	<path class="st1" d="M18.2,24H5.8C2.6,24,0,21.4,0,18.2V5.8C0,2.6,2.6,0,5.8,0h12.4C21.4,0,24,2.6,24,5.8v12.4
		C24,21.4,21.4,24,18.2,24z"/>
</g>
</svg>
