<svg width="24" height="24" viewBox="0 0 24 24" fill="none" xmlns="http://www.w3.org/2000/svg">
<path d="M11.3846 3.18519V2.59259C11.3846 2.43543 11.4495 2.2847 11.5649 2.17357C11.6803 2.06243 11.8368 2 12 2C12.1632 2 12.3197 2.06243 12.4351 2.17357C12.5506 2.2847 12.6154 2.43543 12.6154 2.59259V3.18519C12.6154 3.34235 12.5506 3.49308 12.4351 3.60421C12.3197 3.71534 12.1632 3.77778 12 3.77778C11.8368 3.77778 11.6803 3.71534 11.5649 3.60421C11.4495 3.49308 11.3846 3.34235 11.3846 3.18519ZM17.5385 5.55556C17.6193 5.55562 17.6994 5.54034 17.7741 5.5106C17.8488 5.48086 17.9167 5.43724 17.9738 5.38222L18.5892 4.78963C18.7047 4.67844 18.7696 4.52762 18.7696 4.37037C18.7696 4.21312 18.7047 4.06231 18.5892 3.95111C18.4738 3.83992 18.3171 3.77745 18.1538 3.77745C17.9905 3.77745 17.8339 3.83992 17.7185 3.95111L17.1031 4.5437C17.0169 4.62658 16.9582 4.73221 16.9344 4.84723C16.9107 4.96224 16.9228 5.08146 16.9695 5.1898C17.0161 5.29814 17.095 5.39073 17.1963 5.45583C17.2976 5.52094 17.4167 5.55565 17.5385 5.55556ZM6.02615 5.38222C6.08333 5.43728 6.15121 5.48095 6.22591 5.51075C6.30061 5.54055 6.38068 5.55589 6.46154 5.55589C6.5424 5.55589 6.62246 5.54055 6.69717 5.51075C6.77187 5.48095 6.83975 5.43728 6.89692 5.38222C6.9541 5.32716 6.99945 5.2618 7.0304 5.18986C7.06134 5.11793 7.07727 5.04083 7.07727 4.96296C7.07727 4.8851 7.06134 4.808 7.0304 4.73606C6.99945 4.66412 6.9541 4.59876 6.89692 4.5437L6.28154 3.95111C6.16607 3.83992 6.00945 3.77745 5.84615 3.77745C5.68285 3.77745 5.52624 3.83992 5.41077 3.95111C5.2953 4.06231 5.23043 4.21312 5.23043 4.37037C5.23043 4.52762 5.2953 4.67844 5.41077 4.78963L6.02615 5.38222ZM20 15.037V16.8148C20 17.1291 19.8703 17.4306 19.6395 17.6529C19.4087 17.8751 19.0957 18 18.7692 18H5.23077C4.90435 18 4.5913 17.8751 4.36048 17.6529C4.12967 17.4306 4 17.1291 4 16.8148V15.037C4 14.7227 4.12967 14.4213 4.36048 14.199C4.5913 13.9767 4.90435 13.8519 5.23077 13.8519V11.4815C5.23074 10.6213 5.40753 9.76955 5.75093 8.97544C6.09434 8.18132 6.59757 7.46051 7.23162 6.85456C7.86567 6.2486 8.618 5.76949 9.44524 5.44484C10.2725 5.12019 11.1583 4.95641 12.0515 4.96296C15.7554 4.98963 18.7692 7.94741 18.7692 11.5556V13.8519C19.0957 13.8519 19.4087 13.9767 19.6395 14.199C19.8703 14.4213 20 14.7227 20 15.037ZM12.5138 8.51037C13.9746 8.74667 15.0769 10.0237 15.0769 11.4815C15.0769 11.6386 15.1418 11.7894 15.2572 11.9005C15.3726 12.0116 15.5291 12.0741 15.6923 12.0741C15.8555 12.0741 16.012 12.0116 16.1275 11.9005C16.2429 11.7894 16.3077 11.6386 16.3077 11.4815C16.3077 9.45185 14.7638 7.67185 12.7169 7.34148C12.6369 7.32785 12.5548 7.32963 12.4755 7.34671C12.3961 7.36379 12.3211 7.39584 12.2547 7.44101C12.1883 7.48617 12.1319 7.54356 12.0886 7.60985C12.0454 7.67614 12.0162 7.75003 12.0028 7.82724C11.9894 7.90445 11.992 7.98345 12.0105 8.05969C12.0289 8.13592 12.0629 8.20787 12.1104 8.27139C12.158 8.33491 12.2181 8.38873 12.2873 8.42975C12.3566 8.47077 12.4335 8.49817 12.5138 8.51037ZM18.7692 16.8148V15.037H5.23077V16.8148H18.7692Z"/>
</svg>
