<?xml version="1.0" encoding="utf-8"?>
<!-- Generator: Adobe Illustrator 19.2.1, SVG Export Plug-In . SVG Version: 6.00 Build 0)  -->
<svg version="1.1" id="Слой_1" xmlns="http://www.w3.org/2000/svg" xmlns:xlink="http://www.w3.org/1999/xlink" x="0px" y="0px"
	 viewBox="0 0 24 24" style="enable-background:new 0 0 24 24;" xml:space="preserve">
<style type="text/css">
	.st0{fill:none;}
</style>
<path d="M11.3,5.3v4.5c0,0.4-0.2,0.8-0.4,1.1c-0.3,0.3-0.7,0.4-1.1,0.4H5.3c-0.4,0-0.8-0.2-1.1-0.4c-0.3-0.3-0.4-0.7-0.4-1.1V5.3c0-0.4,0.2-0.8,0.4-1.1s0.7-0.4,1.1-0.4h4.5c0.4,0,0.8,0.2,1.1,0.4C11.1,4.5,11.3,4.9,11.3,5.3z M18.8,3.8h-4.5c-0.4,0-0.8,0.2-1.1,0.4c-0.3,0.3-0.4,0.7-0.4,1.1v4.5c0,0.4,0.2,0.8,0.4,1.1c0.3,0.3,0.7,0.4,1.1,0.4h4.5c0.4,0,0.8-0.2,1.1-0.4c0.3-0.3,0.4-0.7,0.4-1.1V5.3c0-0.4-0.2-0.8-0.4-1.1S19.1,3.8,18.8,3.8z M9.8,12.8H5.3c-0.4,0-0.8,0.2-1.1,0.4c-0.3,0.3-0.4,0.7-0.4,1.1v4.5c0,0.4,0.2,0.8,0.4,1.1s0.7,0.4,1.1,0.4h4.5c0.4,0,0.8-0.2,1.1-0.4c0.3-0.3,0.4-0.7,0.4-1.1v-4.5c0-0.4-0.2-0.8-0.4-1.1C10.5,12.9,10.1,12.8,9.8,12.8z M18.8,12.8h-4.5c-0.4,0-0.8,0.2-1.1,0.4c-0.3,0.3-0.4,0.7-0.4,1.1v4.5c0,0.4,0.2,0.8,0.4,1.1c0.3,0.3,0.7,0.4,1.1,0.4h4.5c0.4,0,0.8-0.2,1.1-0.4s0.4-0.7,0.4-1.1v-4.5c0-0.4-0.2-0.8-0.4-1.1C19.5,12.9,19.1,12.8,18.8,12.8z"/>
</svg>
