<?xml version="1.0" encoding="utf-8"?>
<!-- Generator: Adobe Illustrator 19.2.1, SVG Export Plug-In . SVG Version: 6.00 Build 0)  -->
<svg version="1.1" id="Слой_1" xmlns="http://www.w3.org/2000/svg" xmlns:xlink="http://www.w3.org/1999/xlink" x="0px" y="0px"
	 viewBox="0 0 40 40" style="enable-background:new 0 0 40 40;" xml:space="preserve">
<style type="text/css">
	.st0{fill:none;}
</style>
<path d="M17.9,2.5C6.7,3.6-1.6,16.5,4.3,28.2c0.3,0.6,0.4,1.2,0.2,1.8c-0.5,1.5-1.1,3-1.6,4.5c-0.6,1.6,0.9,3.2,2.5,2.6c0.3-0.1,0.7-0.2,1-0.3c1.5-0.5,3.5-1.6,5-1.5c1.1,0.1,2.2,1,3.1,1.3c12.2,3.8,23.1-5.6,23.1-16.8C37.6,9.3,28.7,1.5,17.9,2.5z M24.2,28.8c-4.8-0.2-11.3-6.3-12.9-10.7c-0.9-2.6,0.1-7.7,4.2-6.5c1,2.2,2.6,5.4,0,6.8c1.3,2.8,3.6,4.8,6.5,6.1c1-0.6,1.6-1.6,2.4-2.4c1.7,0.7,3.3,1.4,4.6,2.4C29.2,27.7,26.5,28.9,24.2,28.8z"/>
</svg>
