<svg width="150" height="50" viewBox="0 0 150 50" fill="none" xmlns="http://www.w3.org/2000/svg">
<path fill-rule="evenodd" clip-rule="evenodd" d="M24.6663 -0.00195312C38.2921 -0.00195312 49.3325 11.0385 49.3325 24.6643C49.3325 38.2902 38.2921 49.3306 24.6663 49.3306C11.0404 49.3306 0 38.2902 0 24.6643C0 11.0385 11.0404 -0.00195312 24.6663 -0.00195312ZM24.6663 8.53552L15.8207 17.381L16.2553 17.8156C18.1421 16.5339 20.2875 15.7968 22.4769 15.6042L12.8777 25.2034L14.6105 26.9362C16.7394 25.1099 19.2093 23.8942 21.7948 23.2836L10.5123 34.566L11.2109 35.2646C18.9563 30.0002 29.4411 30.4733 36.6858 36.6949L38.8202 34.566L27.1417 22.8875C30.0132 23.1295 32.8352 24.0867 35.3106 25.77L35.8772 25.2034L26.5586 15.8848C28.5829 16.3414 30.5138 17.2875 32.1806 18.7123L33.5118 17.381L24.6663 8.53552Z" fill="#D7B56D"/>
<path fill-rule="evenodd" clip-rule="evenodd" d="M74.8021 8.89168C74.131 8.25357 73.3554 7.74749 72.5082 7.38442C71.6776 7.02136 70.7974 6.81233 69.8953 6.81233C67.6069 6.81233 65.676 7.59896 64.2403 9.44728C62.843 11.2571 62.3425 13.4685 62.3425 15.7349C62.3425 16.329 62.3975 16.9231 62.48 17.5117C62.5625 18.1058 62.667 18.6944 62.8155 19.272C63.0741 20.2566 63.5417 21.1533 64.1688 21.9509C64.8179 22.7816 65.632 23.4142 66.5782 23.8598C67.5629 24.3218 68.6135 24.5419 69.6917 24.5419C70.6709 24.5419 71.6336 24.3494 72.5467 24.0083C73.4874 23.6617 74.3675 23.1722 75.1597 22.556C75.3192 23.2602 75.5062 23.9258 75.7153 24.5474C74.8186 25.158 73.8284 25.5761 72.7833 25.8236C71.6391 26.0987 70.4674 26.2087 69.2957 26.2087C66.4682 26.2087 63.7947 25.455 61.7759 23.3537C59.7515 21.2468 59.0254 18.5018 59.0254 15.6193C59.0254 14.1176 59.3279 12.6488 59.9 11.2681C60.4611 9.92036 61.2643 8.73216 62.359 7.78599C63.4041 6.88384 64.5869 6.20722 65.8906 5.78365C67.2218 5.34907 68.608 5.14554 70.0053 5.14554C71.0615 5.14554 72.1121 5.27206 73.1463 5.4976C74.175 5.72864 75.1817 6.04769 76.1498 6.47127C75.7923 7.30741 75.4842 8.26458 75.2312 9.30976L75.1322 9.22724C75.0111 9.12823 74.8956 9.01271 74.8021 8.89168ZM125.812 18.3038C125.834 15.9439 126.676 12.8744 129.531 12.8744C132.639 12.8744 133.36 16.505 133.332 19.0244C133.31 20.8838 132.678 23.6892 130.543 24.1733C130.164 24.2613 129.768 24.2833 129.383 24.2833C126.401 24.2833 125.785 20.6582 125.812 18.3038ZM122.886 11.4881C124.041 11.4881 125.306 11.8292 125.757 13.5345C127.067 11.9337 128.244 11.2351 130.318 11.2351C134.179 11.2351 136.248 14.6677 136.248 18.3313C136.248 19.338 136.176 20.3612 135.929 21.3348C135.192 24.2228 132.854 25.9776 129.894 25.9776C128.145 25.9776 126.792 25.3285 125.746 23.9148V27.881V31.22H122.886V31.209V11.4881ZM117.445 23.8873C116.367 25.2955 114.893 25.9501 113.133 25.9501C111.092 25.9501 108.82 24.8114 108.44 22.6111C108.303 21.7914 108.281 20.9498 108.281 20.1191V11.4881H111.284L110.998 19.4315C110.998 20.9828 111.031 22.6716 112.522 23.5572C113.017 23.8543 113.578 23.9643 114.15 23.9643C115.922 23.9643 116.956 22.7871 117.28 21.1368C117.379 20.6362 117.423 20.1246 117.434 19.613L117.445 11.4881H120.278L120.108 25.8291C117.946 25.8071 117.429 24.3824 117.445 23.8873ZM87.1682 23.8873C86.0901 25.2955 84.6158 25.9501 82.85 25.9501C80.8147 25.9501 78.5428 24.8114 78.1632 22.6111C78.0257 21.7914 78.0037 20.9498 78.0037 20.1191V11.4881H81.0072L80.7211 19.4315C80.7211 20.9828 80.7541 22.6716 82.2394 23.5572C82.74 23.8543 83.3011 23.9643 83.8732 23.9643C85.6445 23.9643 86.6787 22.7871 87.0032 21.1368C87.1022 20.6362 87.1462 20.1246 87.1572 19.613L87.1682 11.4881H90.0012L89.8307 25.8291C87.6688 25.8071 87.1517 24.3824 87.1682 23.8873ZM99.2373 24.5969C96.1843 24.5969 95.1501 21.1093 95.1501 18.5349C95.1501 16.0484 96.1513 12.8194 99.1383 12.8194C102.719 12.8194 103.358 16.0814 103.358 19.0244C103.358 21.7529 102.373 24.5969 99.2373 24.5969ZM94.2425 13.584C95.6397 12.0602 97.51 11.2956 99.5509 11.2956C103.831 11.2956 106.416 14.4531 106.416 18.6779C106.416 20.6252 105.844 22.38 104.557 23.8323C103.099 25.4715 101.174 26.1207 99.0393 26.1207C97.1305 26.1207 95.3977 25.5486 94.0224 24.1623C92.5977 22.7376 92.0641 20.8728 92.0641 18.8814C92.0641 15.7789 92.4602 12.1758 94.149 9.51879C95.3152 7.68148 97.0865 6.45476 99.0448 5.62962C100.106 5.17854 101.185 4.78247 102.274 4.41391C102.967 4.17737 103.677 3.97934 104.348 3.67128L104.606 3.57227C105.068 4.78798 104.342 6.90034 102.928 7.10388C100.409 7.92902 97.422 8.68815 95.6507 10.8115C94.9686 11.6202 94.5175 12.5608 94.2425 13.584ZM141.056 19.0629C141.677 19.0629 142.304 19.0629 142.931 19.0629C144.593 19.0629 146.028 19.8221 146.028 21.6869C146.028 23.5517 144.862 24.2558 143.162 24.2558H141.056V19.0629ZM141.056 17.5007H143.834C146.435 17.5007 148.944 18.5183 148.944 21.6044C148.944 24.5254 146.199 25.8071 143.652 25.8071H138.25V11.4881H141.056V17.5007Z" fill="#D7B56D"/>
<path d="M60.1484 37.3937H64.5327V42.9496H63.592V38.1748H61.0891V42.9496H60.1484V37.3937ZM65.9409 45.0785V37.3937H66.7991V38.1253C67.0026 37.8447 67.2282 37.6302 67.4812 37.4927C67.7397 37.3496 68.0478 37.2781 68.4054 37.2781C68.8839 37.2781 69.302 37.3992 69.6596 37.6412C70.0226 37.8832 70.2977 38.2298 70.4847 38.6699C70.6663 39.1154 70.7598 39.5995 70.7598 40.1331C70.7598 40.6997 70.6553 41.2058 70.4517 41.6624C70.2482 42.1135 69.9566 42.4655 69.5661 42.7076C69.181 42.9441 68.7684 43.0651 68.3394 43.0651C68.0258 43.0651 67.7452 42.9991 67.4977 42.8671C67.2502 42.7351 67.0466 42.57 66.8871 42.372V45.0785H65.9409ZM66.7991 40.2046C66.7991 40.9198 66.9421 41.4423 67.2282 41.7834C67.5197 42.1245 67.8718 42.295 68.2788 42.295C68.6969 42.295 69.0545 42.119 69.3515 41.7669C69.6486 41.4148 69.7971 40.8703 69.7971 40.1276C69.7971 39.4235 69.6486 38.8954 69.3625 38.5433C69.071 38.1913 68.7244 38.0153 68.3228 38.0153C67.9213 38.0153 67.5692 38.2023 67.2612 38.5764C66.9531 38.9504 66.7991 39.495 66.7991 40.2046ZM71.893 37.3937H72.8391V41.6294L75.4521 37.3937H76.4643V42.9496H75.5236V38.7414L72.9106 42.9496H71.893V37.3937ZM77.8725 45.0785V37.3937H78.7306V38.1253C78.9342 37.8447 79.1597 37.6302 79.4128 37.4927C79.6658 37.3496 79.9794 37.2781 80.3369 37.2781C80.8155 37.2781 81.2336 37.3992 81.5911 37.6412C81.9542 37.8832 82.2292 38.2298 82.4163 38.6699C82.5978 39.1154 82.6913 39.5995 82.6913 40.1331C82.6913 40.6997 82.5868 41.2058 82.3833 41.6624C82.1797 42.1135 81.8882 42.4655 81.4976 42.7076C81.1071 42.9441 80.7 43.0651 80.2709 43.0651C79.9574 43.0651 79.6768 42.9991 79.4293 42.8671C79.1817 42.7351 78.9782 42.57 78.8132 42.372V45.0785H77.8725ZM78.7306 40.2046C78.7306 40.9198 78.8737 41.4423 79.1597 41.7834C79.4513 42.1245 79.7978 42.295 80.2104 42.295C80.6285 42.295 80.986 42.119 81.2831 41.7669C81.5801 41.4148 81.7287 40.8703 81.7287 40.1276C81.7287 39.4235 81.5801 38.8954 81.2941 38.5433C81.0025 38.1913 80.656 38.0153 80.2544 38.0153C79.8528 38.0153 79.5008 38.2023 79.1927 38.5764C78.8847 38.9504 78.7306 39.495 78.7306 40.2046ZM83.4725 40.1716C83.4725 39.1485 83.7585 38.3893 84.3306 37.8942C84.8092 37.4817 85.3923 37.2781 86.0799 37.2781C86.839 37.2781 87.4607 37.5257 87.9502 38.0263C88.4343 38.5268 88.6764 39.2145 88.6764 40.0946C88.6764 40.8097 88.5663 41.3653 88.3518 41.7779C88.1373 42.185 87.8292 42.504 87.4166 42.7296C87.0096 42.9551 86.5585 43.0651 86.0799 43.0651C85.2988 43.0651 84.6717 42.8176 84.1931 42.3225C83.7145 41.8219 83.4725 41.1068 83.4725 40.1716ZM84.4351 40.1771C84.4351 40.8868 84.5892 41.4148 84.9027 41.7669C85.2163 42.119 85.6068 42.295 86.0799 42.295C86.542 42.295 86.9326 42.119 87.2461 41.7669C87.5542 41.4093 87.7137 40.8703 87.7137 40.1441C87.7137 39.4565 87.5542 38.9394 87.2406 38.5874C86.9326 38.2353 86.542 38.0593 86.0799 38.0593C85.6068 38.0593 85.2163 38.2353 84.9027 38.5874C84.5892 38.9339 84.4351 39.4675 84.4351 40.1771ZM90.2826 37.3937H94.1553V42.1795H94.7549V44.5229H93.9848V42.9496H89.606V44.5229H88.8359V42.1795H89.331C89.9911 41.2773 90.3101 39.682 90.2826 37.3937ZM91.0638 38.1748C90.9923 39.9791 90.7172 41.3158 90.2276 42.1795H93.2146V38.1748H91.0638ZM95.7891 37.3937H96.7298V39.7096H99.3427V37.3937H100.283V42.9496H99.3427V40.4907H96.7298V42.9496H95.7891V37.3937ZM106.984 37.3937H107.924V42.9496H106.984V37.3937ZM101.73 37.3937H102.671V39.5665H103.859C104.635 39.5665 105.229 39.7151 105.652 40.0176C106.07 40.3202 106.279 40.7382 106.279 41.2663C106.279 41.7284 106.103 42.1245 105.751 42.4545C105.405 42.7846 104.844 42.9496 104.079 42.9496H101.73V37.3937ZM102.671 42.1795H103.661C104.255 42.1795 104.679 42.108 104.932 41.9594C105.19 41.8164 105.317 41.5854 105.317 41.2773C105.317 41.0353 105.218 40.8207 105.031 40.6337C104.844 40.4412 104.426 40.3477 103.782 40.3477H102.671V42.1795ZM109.393 37.3937H110.334V41.6294L112.947 37.3937H113.959V42.9496H113.018V38.7414L110.405 42.9496H109.393V37.3937ZM112.644 35.3418H113.288C113.233 35.7819 113.073 36.1174 112.809 36.354C112.539 36.5905 112.182 36.7115 111.742 36.7115C111.296 36.7115 110.939 36.5905 110.669 36.3595C110.405 36.1229 110.246 35.7874 110.191 35.3418H110.834C110.884 35.5838 110.983 35.7599 111.126 35.8809C111.269 35.9964 111.467 36.0569 111.709 36.0569C111.995 36.0569 112.209 36.0019 112.352 35.8864C112.495 35.7709 112.594 35.5893 112.644 35.3418ZM118.332 37.3937H119.273V39.7921C119.575 39.7921 119.784 39.7371 119.905 39.6215C120.026 39.506 120.202 39.1705 120.439 38.6149C120.62 38.1803 120.774 37.8887 120.884 37.7512C121 37.6137 121.132 37.5147 121.286 37.4707C121.435 37.4212 121.677 37.3937 122.007 37.3937H122.194V38.1693L121.935 38.1638C121.688 38.1638 121.528 38.2023 121.457 38.2738C121.385 38.3508 121.269 38.5819 121.121 38.9614C120.978 39.3245 120.851 39.5775 120.73 39.7151C120.609 39.8526 120.428 39.9791 120.18 40.1001C120.587 40.2046 120.983 40.5842 121.38 41.2278L122.408 42.9496H121.374L120.356 41.2333C120.153 40.8868 119.971 40.6557 119.823 40.5457C119.669 40.4357 119.487 40.3807 119.273 40.3807V42.9496H118.332V37.3937ZM123.101 45.084L122.997 44.2148C123.2 44.2698 123.382 44.2973 123.536 44.2973C123.745 44.2973 123.91 44.2643 124.036 44.1928C124.163 44.1213 124.268 44.0278 124.345 43.9013C124.405 43.8078 124.504 43.5712 124.636 43.1972C124.653 43.1476 124.68 43.0706 124.719 42.9661L122.612 37.3937H123.618L124.774 40.6007C124.928 41.0078 125.06 41.4368 125.181 41.8824C125.291 41.4644 125.417 41.0463 125.566 40.6337L126.754 37.3937H127.689L125.593 43.0486C125.368 43.6537 125.192 44.0718 125.065 44.3028C124.895 44.6109 124.702 44.8364 124.488 44.9795C124.268 45.128 124.009 45.1995 123.712 45.1995C123.53 45.1995 123.327 45.161 123.101 45.084ZM128.377 45.0785V37.3937H129.235V38.1253C129.433 37.8447 129.664 37.6302 129.917 37.4927C130.17 37.3496 130.478 37.2781 130.841 37.2781C131.314 37.2781 131.732 37.3992 132.095 37.6412C132.458 37.8832 132.728 38.2298 132.915 38.6699C133.102 39.1154 133.19 39.5995 133.19 40.1331C133.19 40.6997 133.091 41.2058 132.887 41.6624C132.684 42.1135 132.387 42.4655 132.002 42.7076C131.611 42.9441 131.204 43.0651 130.775 43.0651C130.462 43.0651 130.181 42.9991 129.933 42.8671C129.68 42.7351 129.477 42.57 129.317 42.372V45.0785H128.377ZM129.235 40.2046C129.235 40.9198 129.378 41.4423 129.664 41.7834C129.955 42.1245 130.302 42.295 130.715 42.295C131.133 42.295 131.485 42.119 131.782 41.7669C132.079 41.4148 132.227 40.8703 132.227 40.1276C132.227 39.4235 132.084 38.8954 131.793 38.5433C131.501 38.1913 131.16 38.0153 130.753 38.0153C130.357 38.0153 129.999 38.2023 129.697 38.5764C129.389 38.9504 129.235 39.495 129.235 40.2046ZM133.977 40.1716C133.977 39.1485 134.263 38.3893 134.835 37.8942C135.308 37.4817 135.891 37.2781 136.579 37.2781C137.343 37.2781 137.965 37.5257 138.449 38.0263C138.933 38.5268 139.175 39.2145 139.175 40.0946C139.175 40.8097 139.071 41.3653 138.856 41.7779C138.641 42.185 138.328 42.504 137.921 42.7296C137.514 42.9551 137.063 43.0651 136.579 43.0651C135.803 43.0651 135.176 42.8176 134.697 42.3225C134.213 41.8219 133.977 41.1068 133.977 40.1716ZM134.939 40.1771C134.939 40.8868 135.093 41.4148 135.407 41.7669C135.715 42.119 136.106 42.295 136.579 42.295C137.046 42.295 137.437 42.119 137.75 41.7669C138.058 41.4093 138.212 40.8703 138.212 40.1441C138.212 39.4565 138.058 38.9394 137.745 38.5874C137.431 38.2353 137.046 38.0593 136.579 38.0593C136.106 38.0593 135.715 38.2353 135.407 38.5874C135.093 38.9339 134.939 39.4675 134.939 40.1771ZM140.281 45.0785V37.3937H141.139V38.1253C141.337 37.8447 141.568 37.6302 141.821 37.4927C142.074 37.3496 142.382 37.2781 142.745 37.2781C143.218 37.2781 143.636 37.3992 143.999 37.6412C144.362 37.8832 144.638 38.2298 144.819 38.6699C145.006 39.1154 145.1 39.5995 145.1 40.1331C145.1 40.6997 144.995 41.2058 144.792 41.6624C144.588 42.1135 144.291 42.4655 143.906 42.7076C143.515 42.9441 143.108 43.0651 142.679 43.0651C142.366 43.0651 142.085 42.9991 141.838 42.8671C141.584 42.7351 141.381 42.57 141.221 42.372V45.0785H140.281ZM141.139 40.2046C141.139 40.9198 141.282 41.4423 141.568 41.7834C141.86 42.1245 142.206 42.295 142.619 42.295C143.037 42.295 143.394 42.119 143.686 41.7669C143.988 41.4148 144.131 40.8703 144.131 40.1276C144.131 39.4235 143.988 38.8954 143.697 38.5433C143.411 38.1913 143.064 38.0153 142.657 38.0153C142.261 38.0153 141.904 38.2023 141.601 38.5764C141.293 38.9504 141.139 39.495 141.139 40.2046ZM145.507 37.3937H150.001V38.1748H148.224V42.9496H147.283V38.1748H145.507V37.3937Z" fill="#D7B56D"/>
</svg>
