<svg width="61" height="29" viewBox="0 0 61 29" fill="none" xmlns="http://www.w3.org/2000/svg">
<path fill-rule="evenodd" clip-rule="evenodd" d="M11.3697 4.44943C10.9267 4.02258 10.4148 3.68404 9.8557 3.44118C9.30747 3.19832 8.72657 3.05849 8.13115 3.05849C6.62081 3.05849 5.34646 3.58469 4.39887 4.82109C3.47669 6.03172 3.1463 7.51098 3.1463 9.02704C3.1463 9.42446 3.18261 9.82187 3.23706 10.2156C3.29152 10.613 3.36051 11.0067 3.45853 11.3931C3.62917 12.0518 3.93778 12.6516 4.35167 13.1852C4.78008 13.7408 5.31741 14.164 5.94188 14.462C6.59176 14.7711 7.28521 14.9183 7.99682 14.9183C8.64307 14.9183 9.27843 14.7895 9.88111 14.5614C10.5019 14.3296 11.0828 14.0021 11.6057 13.5899C11.7109 14.0609 11.8344 14.5062 11.9724 14.922C11.3806 15.3305 10.727 15.6101 10.0372 15.7757C9.28206 15.9597 8.50873 16.0333 7.73541 16.0333C5.86927 16.0333 4.10478 15.5292 2.77234 14.1235C1.43627 12.7142 0.957031 10.878 0.957031 8.94977C0.957031 7.9452 1.15672 6.9627 1.5343 6.03908C1.90462 5.13755 2.4347 4.34272 3.15719 3.7098C3.84701 3.10632 4.62759 2.65371 5.48805 2.37037C6.36666 2.07967 7.28158 1.94352 8.20376 1.94352C8.90084 1.94352 9.59429 2.02816 10.2768 2.17903C10.9558 2.33358 11.6202 2.547 12.2592 2.83034C12.0232 3.38966 11.8199 4.02994 11.6529 4.72909L11.5875 4.6739C11.5076 4.60766 11.4314 4.53039 11.3697 4.44943ZM45.0365 10.7455C45.051 9.16687 45.6065 7.11357 47.4908 7.11357C49.5421 7.11357 50.0177 9.54221 49.9995 11.2275C49.985 12.4713 49.5675 14.348 48.1588 14.6718C47.9083 14.7307 47.6469 14.7454 47.3927 14.7454C45.4249 14.7454 45.0183 12.3204 45.0365 10.7455ZM43.105 6.18627C43.8674 6.18627 44.7024 6.41442 45.0002 7.55514C45.8643 6.48433 46.6412 6.01701 48.0099 6.01701C50.5587 6.01701 51.9238 8.31317 51.9238 10.7639C51.9238 11.4373 51.8766 12.1217 51.7132 12.773C51.2267 14.7049 49.6837 15.8787 47.7304 15.8787C46.5759 15.8787 45.6827 15.4445 44.9929 14.4988V17.1519V19.3855H43.105V19.3782V6.18627ZM39.5143 14.4804C38.8027 15.4224 37.8297 15.8603 36.6679 15.8603C35.3209 15.8603 33.8215 15.0986 33.5709 13.6267C33.4802 13.0784 33.4657 12.5154 33.4657 11.9598V6.18627H35.448L35.2592 11.4998C35.2592 12.5375 35.281 13.6672 36.2649 14.2596C36.5916 14.4584 36.962 14.5319 37.3395 14.5319C38.5086 14.5319 39.1912 13.7445 39.4054 12.6406C39.4707 12.3057 39.4998 11.9635 39.507 11.6213L39.5143 6.18627H41.3841L41.2715 15.7794C39.8447 15.7647 39.5034 14.8116 39.5143 14.4804ZM19.5313 14.4804C18.8197 15.4224 17.8467 15.8603 16.6813 15.8603C15.3379 15.8603 13.8385 15.0986 13.588 13.6267C13.4972 13.0784 13.4827 12.5154 13.4827 11.9598V6.18627H15.465L15.2762 11.4998C15.2762 12.5375 15.298 13.6672 16.2783 14.2596C16.6087 14.4584 16.979 14.5319 17.3566 14.5319C18.5256 14.5319 19.2082 13.7445 19.4224 12.6406C19.4877 12.3057 19.5168 11.9635 19.5241 11.6213L19.5313 6.18627H21.4011L21.2885 15.7794C19.8617 15.7647 19.5204 14.8116 19.5313 14.4804ZM27.4969 14.9551C25.4819 14.9551 24.7994 12.6222 24.7994 10.9C24.7994 9.23679 25.4601 7.07677 27.4316 7.07677C29.7951 7.07677 30.2162 9.25887 30.2162 11.2275C30.2162 13.0527 29.5664 14.9551 27.4969 14.9551ZM24.2003 7.58826C25.1225 6.56897 26.3569 6.05748 27.7039 6.05748C30.5285 6.05748 32.2349 8.16966 32.2349 10.9957C32.2349 12.2983 31.8573 13.4722 31.0077 14.4436C30.0456 15.5402 28.7749 15.9744 27.3662 15.9744C26.1064 15.9744 24.9627 15.5917 24.0551 14.6644C23.1147 13.7114 22.7626 12.4639 22.7626 11.1319C22.7626 9.05648 23.024 6.64624 24.1386 4.86892C24.9083 3.63989 26.0773 2.8193 27.3698 2.26734C28.0705 1.9656 28.7822 1.70066 29.501 1.45412C29.9585 1.29589 30.4268 1.16341 30.8698 0.957349L31.0404 0.891113C31.3454 1.70434 30.8661 3.11736 29.9331 3.25351C28.2702 3.80548 26.2988 4.31328 25.1297 5.73367C24.6795 6.27459 24.3818 6.90383 24.2003 7.58826ZM55.0969 11.2533C55.5072 11.2533 55.9211 11.2533 56.335 11.2533C57.4314 11.2533 58.379 11.7611 58.379 13.0085C58.379 14.256 57.6093 14.727 56.4875 14.727H55.0969V11.2533ZM55.0969 10.2082H56.9304C58.6477 10.2082 60.3033 10.889 60.3033 12.9533C60.3033 14.9073 58.4916 15.7647 56.8106 15.7647H53.2453V6.18627H55.0969V10.2082Z" fill="#D7B56D"/>
<path d="M1.69727 23.5161H4.59088V27.2326H3.97004V24.0386H2.3181V27.2326H1.69727V23.5161ZM5.52032 28.6567V23.5161H6.08669V24.0055C6.22103 23.8178 6.36988 23.6743 6.53689 23.5823C6.70753 23.4867 6.91085 23.4388 7.14684 23.4388C7.4627 23.4388 7.73863 23.5198 7.97462 23.6817C8.21424 23.8436 8.39577 24.0754 8.51921 24.3698C8.63902 24.6679 8.70074 24.9917 8.70074 25.3486C8.70074 25.7276 8.63176 26.0662 8.49743 26.3716C8.3631 26.6733 8.17067 26.9088 7.9129 27.0707C7.65875 27.229 7.38646 27.3099 7.10327 27.3099C6.89632 27.3099 6.71116 27.2658 6.54778 27.1775C6.3844 27.0891 6.25007 26.9787 6.14478 26.8463V28.6567H5.52032ZM6.08669 25.3965C6.08669 25.8748 6.18109 26.2244 6.36988 26.4525C6.56231 26.6807 6.79467 26.7948 7.06333 26.7948C7.33926 26.7948 7.57525 26.677 7.7713 26.4415C7.96736 26.206 8.06538 25.8417 8.06538 25.3449C8.06538 24.8739 7.96736 24.5207 7.77857 24.2852C7.58614 24.0497 7.35741 23.9319 7.09238 23.9319C6.82734 23.9319 6.59498 24.057 6.39167 24.3072C6.18835 24.5575 6.08669 24.9218 6.08669 25.3965ZM9.44865 23.5161H10.0731V26.3495L11.7977 23.5161H12.4657V27.2326H11.8449V24.4176L10.1203 27.2326H9.44865V23.5161ZM13.3951 28.6567V23.5161H13.9615V24.0055C14.0959 23.8178 14.2447 23.6743 14.4117 23.5823C14.5787 23.4867 14.7857 23.4388 15.0217 23.4388C15.3375 23.4388 15.6135 23.5198 15.8494 23.6817C16.0891 23.8436 16.2706 24.0754 16.394 24.3698C16.5139 24.6679 16.5756 24.9917 16.5756 25.3486C16.5756 25.7276 16.5066 26.0662 16.3723 26.3716C16.2379 26.6733 16.0455 26.9088 15.7877 27.0707C15.53 27.229 15.2613 27.3099 14.9781 27.3099C14.7712 27.3099 14.586 27.2658 14.4226 27.1775C14.2592 27.0891 14.1249 26.9787 14.016 26.8463V28.6567H13.3951ZM13.9615 25.3965C13.9615 25.8748 14.0559 26.2244 14.2447 26.4525C14.4371 26.6807 14.6659 26.7948 14.9382 26.7948C15.2141 26.7948 15.4501 26.677 15.6461 26.4415C15.8422 26.206 15.9402 25.8417 15.9402 25.3449C15.9402 24.8739 15.8422 24.5207 15.6534 24.2852C15.461 24.0497 15.2322 23.9319 14.9672 23.9319C14.7022 23.9319 14.4698 24.057 14.2665 24.3072C14.0632 24.5575 13.9615 24.9218 13.9615 25.3965ZM17.0911 25.3744C17.0911 24.6899 17.2799 24.1821 17.6575 23.851C17.9734 23.575 18.3582 23.4388 18.812 23.4388C19.3131 23.4388 19.7233 23.6044 20.0465 23.9393C20.3659 24.2741 20.5257 24.7341 20.5257 25.3229C20.5257 25.8012 20.4531 26.1729 20.3115 26.4489C20.1699 26.7212 19.9666 26.9346 19.6943 27.0855C19.4256 27.2363 19.1279 27.3099 18.812 27.3099C18.2965 27.3099 17.8826 27.1443 17.5667 26.8132C17.2509 26.4783 17.0911 25.9999 17.0911 25.3744ZM17.7265 25.3781C17.7265 25.8527 17.8281 26.206 18.0351 26.4415C18.242 26.677 18.4998 26.7948 18.812 26.7948C19.117 26.7948 19.3748 26.677 19.5817 26.4415C19.785 26.2023 19.8903 25.8417 19.8903 25.356C19.8903 24.896 19.785 24.5501 19.5781 24.3146C19.3748 24.0791 19.117 23.9614 18.812 23.9614C18.4998 23.9614 18.242 24.0791 18.0351 24.3146C17.8281 24.5464 17.7265 24.9034 17.7265 25.3781ZM21.5858 23.5161H24.1418V26.7175H24.5375V28.2851H24.0293V27.2326H21.1393V28.2851H20.631V26.7175H20.9577C21.3934 26.114 21.604 25.0469 21.5858 23.5161ZM22.1014 24.0386C22.0542 25.2456 21.8727 26.1398 21.5495 26.7175H23.521V24.0386H22.1014ZM25.2201 23.5161H25.8409V25.0653H27.5655V23.5161H28.1863V27.2326H27.5655V25.5878H25.8409V27.2326H25.2201V23.5161ZM32.6084 23.5161H33.2293V27.2326H32.6084V23.5161ZM29.1412 23.5161H29.762V24.9696H30.5462C31.0581 24.9696 31.4503 25.069 31.7298 25.2713C32.0057 25.4737 32.1437 25.7534 32.1437 26.1066C32.1437 26.4157 32.0275 26.6807 31.7952 26.9015C31.5664 27.1223 31.1961 27.2326 30.6915 27.2326H29.1412V23.5161ZM29.762 26.7175H30.4155C30.8076 26.7175 31.0872 26.6696 31.2542 26.5703C31.4248 26.4746 31.5083 26.3201 31.5083 26.114C31.5083 25.9521 31.443 25.8086 31.3195 25.6835C31.1961 25.5547 30.9202 25.4921 30.4954 25.4921H29.762V26.7175ZM34.1986 23.5161H34.8195V26.3495L36.544 23.5161H37.2121V27.2326H36.5912V24.4176L34.8667 27.2326H34.1986V23.5161ZM36.3443 22.1436H36.7691C36.7328 22.4379 36.6275 22.6624 36.4533 22.8206C36.2754 22.9789 36.0394 23.0598 35.7489 23.0598C35.4548 23.0598 35.2188 22.9789 35.0409 22.8243C34.8667 22.6661 34.7614 22.4416 34.7251 22.1436H35.1499C35.1825 22.3055 35.2479 22.4232 35.3423 22.5042C35.4367 22.5814 35.5674 22.6219 35.7271 22.6219C35.9159 22.6219 36.0575 22.5851 36.1519 22.5078C36.2463 22.4306 36.3117 22.3091 36.3443 22.1436ZM40.0984 23.5161H40.7192V25.1205C40.9189 25.1205 41.0569 25.0837 41.1368 25.0064C41.2166 24.9291 41.3328 24.7047 41.4889 24.333C41.6087 24.0423 41.7104 23.8473 41.783 23.7553C41.8593 23.6633 41.9464 23.5971 42.048 23.5676C42.1461 23.5345 42.3058 23.5161 42.5237 23.5161H42.6471V24.0349L42.4765 24.0313C42.3131 24.0313 42.2078 24.057 42.1606 24.1049C42.1134 24.1564 42.0372 24.3109 41.9391 24.5648C41.8447 24.8077 41.7612 24.977 41.6814 25.069C41.6015 25.1609 41.4817 25.2456 41.3183 25.3265C41.587 25.3965 41.8484 25.6504 42.1098 26.0809L42.7887 27.2326H42.1061L41.4345 26.0846C41.3001 25.8527 41.1803 25.6982 41.0823 25.6246C40.9806 25.551 40.8608 25.5142 40.7192 25.5142V27.2326H40.0984V23.5161ZM43.2462 28.6604L43.1772 28.079C43.3115 28.1158 43.4313 28.1342 43.533 28.1342C43.6709 28.1342 43.7799 28.1121 43.8634 28.0643C43.9469 28.0164 44.0159 27.9539 44.0667 27.8692C44.1066 27.8067 44.172 27.6485 44.2591 27.3982C44.27 27.3651 44.2881 27.3136 44.3136 27.2437L42.923 23.5161H43.5874L44.3499 25.6614C44.4515 25.9337 44.5387 26.2207 44.6185 26.5188C44.6911 26.2391 44.7747 25.9595 44.8727 25.6835L45.6569 23.5161H46.2741L44.8908 27.2989C44.742 27.7037 44.6258 27.9833 44.5423 28.1379C44.4297 28.3439 44.3027 28.4948 44.1611 28.5905C44.0159 28.6898 43.8452 28.7377 43.6492 28.7377C43.5293 28.7377 43.395 28.7119 43.2462 28.6604ZM46.7279 28.6567V23.5161H47.2943V24.0055C47.425 23.8178 47.5775 23.6743 47.7445 23.5823C47.9115 23.4867 48.1148 23.4388 48.3545 23.4388C48.6667 23.4388 48.9426 23.5198 49.1822 23.6817C49.4219 23.8436 49.5998 24.0754 49.7232 24.3698C49.8466 24.6679 49.9047 24.9917 49.9047 25.3486C49.9047 25.7276 49.8394 26.0662 49.705 26.3716C49.5707 26.6733 49.3747 26.9088 49.1205 27.0707C48.8627 27.229 48.5941 27.3099 48.3109 27.3099C48.1039 27.3099 47.9188 27.2658 47.7554 27.1775C47.5884 27.0891 47.4541 26.9787 47.3488 26.8463V28.6567H46.7279ZM47.2943 25.3965C47.2943 25.8748 47.3887 26.2244 47.5775 26.4525C47.7699 26.6807 47.9986 26.7948 48.2709 26.7948C48.5469 26.7948 48.7792 26.677 48.9753 26.4415C49.1713 26.206 49.2694 25.8417 49.2694 25.3449C49.2694 24.8739 49.175 24.5207 48.9825 24.2852C48.7901 24.0497 48.565 23.9319 48.2964 23.9319C48.035 23.9319 47.799 24.057 47.5993 24.3072C47.396 24.5575 47.2943 24.9218 47.2943 25.3965ZM50.4239 25.3744C50.4239 24.6899 50.6127 24.1821 50.9903 23.851C51.3025 23.575 51.6874 23.4388 52.1412 23.4388C52.6459 23.4388 53.0561 23.6044 53.3756 23.9393C53.6951 24.2741 53.8549 24.7341 53.8549 25.3229C53.8549 25.8012 53.7859 26.1729 53.6443 26.4489C53.5027 26.7212 53.2957 26.9346 53.0271 27.0855C52.7584 27.2363 52.4607 27.3099 52.1412 27.3099C51.6293 27.3099 51.2154 27.1443 50.8995 26.8132C50.58 26.4783 50.4239 25.9999 50.4239 25.3744ZM51.0593 25.3781C51.0593 25.8527 51.1609 26.206 51.3679 26.4415C51.5712 26.677 51.829 26.7948 52.1412 26.7948C52.4498 26.7948 52.7076 26.677 52.9145 26.4415C53.1178 26.2023 53.2195 25.8417 53.2195 25.356C53.2195 24.896 53.1178 24.5501 52.9109 24.3146C52.7039 24.0791 52.4498 23.9614 52.1412 23.9614C51.829 23.9614 51.5712 24.0791 51.3679 24.3146C51.1609 24.5464 51.0593 24.9034 51.0593 25.3781ZM54.5846 28.6567V23.5161H55.151V24.0055C55.2817 23.8178 55.4342 23.6743 55.6012 23.5823C55.7682 23.4867 55.9715 23.4388 56.2111 23.4388C56.5234 23.4388 56.7993 23.5198 57.0389 23.6817C57.2785 23.8436 57.4601 24.0754 57.5799 24.3698C57.7033 24.6679 57.765 24.9917 57.765 25.3486C57.765 25.7276 57.6961 26.0662 57.5617 26.3716C57.4274 26.6733 57.2313 26.9088 56.9772 27.0707C56.7194 27.229 56.4507 27.3099 56.1676 27.3099C55.9606 27.3099 55.7755 27.2658 55.6121 27.1775C55.4451 27.0891 55.3107 26.9787 55.2054 26.8463V28.6567H54.5846ZM55.151 25.3965C55.151 25.8748 55.2454 26.2244 55.4342 26.4525C55.6266 26.6807 55.8553 26.7948 56.1276 26.7948C56.4035 26.7948 56.6395 26.677 56.832 26.4415C57.0316 26.206 57.126 25.8417 57.126 25.3449C57.126 24.8739 57.0316 24.5207 56.8392 24.2852C56.6504 24.0497 56.4217 23.9319 56.153 23.9319C55.8916 23.9319 55.6556 24.057 55.456 24.3072C55.2526 24.5575 55.151 24.9218 55.151 25.3965ZM58.0337 23.5161H60.9999V24.0386H59.8272V27.2326H59.2064V24.0386H58.0337V23.5161Z" fill="#D7B56D"/>
</svg>
