<svg aria-hidden="true" style="width: 0px; height: 0px; overflow: hidden; position: absolute;" xmlns="http://www.w3.org/2000/svg">
    <symbol id="envelope_icon" viewBox="0 0 24 24">
      <path d="M21 4.5H3C2.80109 4.5 2.61032 4.57902 2.46967 4.71967C2.32902 4.86032 2.25 5.05109 2.25 5.25V18C2.25 18.3978 2.40804 18.7794 2.68934 19.0607C2.97064 19.342 3.35218 19.5 3.75 19.5H20.25C20.6478 19.5 21.0294 19.342 21.3107 19.0607C21.592 18.7794 21.75 18.3978 21.75 18V5.25C21.75 5.05109 21.671 4.86032 21.5303 4.71967C21.3897 4.57902 21.1989 4.5 21 4.5ZM19.0716 6L12 12.4828L4.92844 6H19.0716ZM20.25 18H3.75V6.95531L11.4928 14.0531C11.6312 14.1801 11.8122 14.2506 12 14.2506C12.1878 14.2506 12.3688 14.1801 12.5072 14.0531L20.25 6.95531V18Z"/>
    </symbol>
    <symbol id="wa_icon" viewBox="0 0 24 24">
      	<path d="M3,23.3c-1.4,0.5-2.6-0.8-2.1-2.2c0.2-0.7,0.5-1.3,0.7-2c0.2-0.6,0.1-1.3-0.1-1.8C-2.3,9.4,3.2,1.1,10.6,0.4c7.2-0.7,13.2,4.5,13.2,11.6c0,7.5-7.2,13.8-15.4,11.2c-0.6-0.2-1.4-0.8-2.1-0.9C5.3,22.2,4,22.9,3,23.3z"/>
      	<path fill="#1B2615" d="M9,6.4c0.7,1.4,1.8,3.6,0,4.6c0.9,1.9,2.4,3.2,4.3,4.1c0.6-0.4,1.1-1.1,1.6-1.6c1.1,0.4,2.2,0.9,3.1,1.6c0.1,2.1-1.7,2.9-3.2,2.8c-3.2-0.1-7.6-4.2-8.6-7.1C5.6,8.9,6.3,5.6,9,6.4z"/>
    </symbol>
    <symbol id="tg_icon" viewBox="0 0 24 24">
      <path d="M12 24C18.6274 24 24 18.6274 24 12C24 5.37258 18.6274 0 12 0C5.37258 0 0 5.37258 0 12C0 18.6274 5.37258 24 12 24Z"/>
      <path fill-rule="evenodd" clip-rule="evenodd" d="M5.43299 11.8739C8.93123 10.3498 11.2639 9.34501 12.4311 8.85954C15.7636 7.47343 16.4561 7.23264 16.9075 7.22469C17.0067 7.22295 17.2287 7.24755 17.3725 7.36421C17.4939 7.46272 17.5273 7.59579 17.5432 7.68919C17.5592 7.78258 17.5791 7.99534 17.5633 8.16159C17.3827 10.0591 16.6013 14.6638 16.2038 16.789C16.0356 17.6882 15.7043 17.9897 15.3837 18.0193C14.6868 18.0834 14.1577 17.5587 13.4827 17.1163C12.4266 16.424 11.8299 15.993 10.8047 15.3174C9.61994 14.5367 10.388 14.1075 11.0632 13.4063C11.2399 13.2227 14.3103 10.43 14.3697 10.1766C14.3771 10.1449 14.384 10.0268 14.3139 9.96446C14.2437 9.90209 14.1401 9.92342 14.0654 9.94038C13.9595 9.96442 12.2723 11.0796 9.00374 13.286C8.52483 13.6148 8.09104 13.775 7.70239 13.7666C7.27392 13.7574 6.44974 13.5244 5.83704 13.3252C5.08553 13.0809 4.48826 12.9518 4.54027 12.5369C4.56736 12.3208 4.86493 12.0998 5.43299 11.8739Z" fill="#1B2615"/>
    </symbol>
    <symbol id="dzen_icon" viewBox="0 0 24 24">
      <path d="M11.9342 23.8594H12.0293C16.7674 23.8594 19.5176 23.3824 21.4658 21.4911C23.4521 19.4849 23.9108 16.7161 23.9108 11.9964V11.863C23.9108 7.14476 23.4521 4.39449 21.4658 2.36833C19.5191 0.477075 16.749 0 12.0307 0H11.9356C7.1975 0 4.44579 0.477075 2.49774 2.36833C0.511351 4.3746 0.0527344 7.14476 0.0527344 11.863V11.9964C0.0527344 16.7147 0.511351 19.465 2.49774 21.4911C4.42734 23.3824 7.1975 23.8594 11.9342 23.8594Z"/>
      <path d="M21.0701 11.7483C21.0701 11.6574 20.9963 11.5822 20.9054 11.5779C17.6444 11.4544 15.6598 11.0385 14.2713 9.65002C12.88 8.25875 12.4654 6.27261 12.3419 3.00452C12.3391 2.91366 12.2638 2.83984 12.1716 2.83984H11.7911C11.7002 2.83984 11.625 2.91366 11.6207 3.00452C11.4972 6.27119 11.0827 8.25875 9.69139 9.65002C8.30154 11.0399 6.31824 11.4544 3.05725 11.5779C2.9664 11.5808 2.89258 11.656 2.89258 11.7483V12.1288C2.89258 12.2196 2.9664 12.2949 3.05725 12.2991C6.31824 12.4226 8.30295 12.8386 9.69139 14.2271C11.0798 15.6155 11.4944 17.596 11.6193 20.8512C11.6221 20.9421 11.6974 21.0159 11.7897 21.0159H12.1716C12.2624 21.0159 12.3377 20.9421 12.3419 20.8512C12.4669 17.596 12.8814 15.6155 14.2699 14.2271C15.6598 12.8372 17.643 12.4226 20.904 12.2991C20.9949 12.2963 21.0687 12.2211 21.0687 12.1288V11.7483H21.0701Z" fill="#1B2615"/>
    </symbol>
    <symbol id="vk_icon" viewBox="0 0 24 24">
      <path fill-rule="evenodd" clip-rule="evenodd" d="M1.78755 1.68707C0.117188 3.37414 0.117188 6.08942 0.117188 11.52V12.48C0.117188 17.9106 0.117188 20.6259 1.78755 22.3129C3.45792 24 6.14632 24 11.5231 24H12.4736C17.8504 24 20.5388 24 22.2092 22.3129C23.8796 20.6259 23.8796 17.9106 23.8796 12.48V11.52C23.8796 6.08942 23.8796 3.37414 22.2092 1.68707C20.5388 0 17.8504 0 12.4736 0H11.5231C6.14632 0 3.45792 0 1.78755 1.68707ZM4.12714 7.30006C4.25583 13.5401 7.34492 17.29 12.7608 17.29H13.0678V13.72C15.0579 13.92 16.5627 15.39 17.1666 17.29H19.9786C19.2063 14.45 17.1765 12.88 15.9092 12.28C17.1765 11.54 18.9587 9.74004 19.3845 7.30006H16.8299C16.2755 9.28006 14.6321 11.08 13.0678 11.25V7.30006H10.5132V14.22C8.92906 13.82 6.9291 11.88 6.83999 7.30006H4.12714Z"/>
      <path d="M4.12714 7.30006C4.25583 13.5401 7.34492 17.29 12.7608 17.29H13.0678V13.72C15.0579 13.92 16.5627 15.39 17.1666 17.29H19.9786C19.2063 14.45 17.1765 12.88 15.9092 12.28C17.1765 11.54 18.9587 9.74004 19.3845 7.30006H16.8299C16.2755 9.28006 14.6321 11.08 13.0678 11.25V7.30006H10.5132V14.22C8.92906 13.82 6.9291 11.88 6.83999 7.30006H4.12714Z" fill="#1B2615"/>
    </symbol>
    <symbol id="ok_icon" viewBox="0 0 24 24">
      <path d="M0 11.5194C0 6.09187 0 3.36396 1.68197 1.68198C3.37809 1.34795e-07 6.09187 0 11.5194 0H12.4806C17.9081 0 20.636 1.34795e-07 22.318 1.68198C24 3.36396 24 6.09187 24 11.5194V12.4806C24 17.9081 24 20.636 22.318 22.318C20.636 24 17.9081 24 12.4806 24H11.5194C6.09187 24 3.36395 24 1.68197 22.318C0 20.636 0 17.9223 0 12.4806V11.5194Z"/>
      <path d="M12 11.9435C13.1732 11.9435 14.2333 11.4629 14.9965 10.6996C15.7598 9.93639 16.2403 8.87632 16.2403 7.70317C16.2403 6.53003 15.7598 5.46996 14.9965 4.70671C14.2333 3.94346 13.1732 3.46289 12 3.46289C10.8269 3.46289 9.76683 3.94346 9.00358 4.70671C8.24033 5.46996 7.75977 6.53003 7.75977 7.70317C7.75977 8.87632 8.24033 9.93639 9.00358 10.6996C9.76683 11.4629 10.841 11.9435 12 11.9435ZM10.6431 6.33215C10.9965 5.97879 11.4771 5.76678 12 5.76678C12.5371 5.76678 13.0177 5.97879 13.3569 6.33215C13.7103 6.68551 13.9223 7.16607 13.9223 7.68904C13.9223 8.22614 13.7103 8.70671 13.3569 9.04593C13.0036 9.39929 12.523 9.6113 12 9.6113C11.4629 9.6113 10.9824 9.39929 10.6431 9.04593C10.2898 8.69257 10.0778 8.21201 10.0778 7.68904C10.0778 7.16607 10.3039 6.68551 10.6431 6.33215Z" fill="#1B2615"/>
      <path d="M17.7093 13.6551L16.4655 11.959C16.3948 11.86 16.2535 11.8459 16.1687 11.9307C14.9955 12.9342 13.5538 13.5844 11.999 13.5844C10.4443 13.5844 9.00257 12.9342 7.82943 11.9307C7.74462 11.86 7.60328 11.8741 7.53261 11.959L6.28879 13.6551C6.23226 13.7399 6.24639 13.8529 6.31706 13.9236C7.363 14.7717 8.57855 15.3512 9.85063 15.648L7.22165 20.284C7.15098 20.4113 7.24992 20.5809 7.39127 20.5809H9.96371C10.0485 20.5809 10.1192 20.5385 10.1475 20.4537L11.9849 16.3547L13.8224 20.4537C13.8506 20.5243 13.9213 20.5809 14.0061 20.5809H16.5785C16.734 20.5809 16.8188 20.4254 16.7482 20.284L14.1192 15.648C15.3913 15.3512 16.6068 14.7858 17.6528 13.9236C17.7658 13.8529 17.78 13.7399 17.7093 13.6551Z" fill="#1B2615"/>
    </symbol>
    <symbol id="rt_icon" viewBox="0 0 24 24">
      <path d="M14.8,11.5H7.7V8.6h7.1c0.4,0,0.7,0.1,0.8,0.2c0.1,0.1,0.2,0.4,0.2,0.7v1c0,0.4-0.1,0.6-0.2,0.7C15.5,11.4,15.2,11.5,14.8,11.5L14.8,11.5z M15.3,6H4.7v12h3v-3.9h5.5l2.6,3.9h3.4l-2.9-3.9c1.1-0.2,1.5-0.5,1.9-1c0.4-0.5,0.6-1.4,0.6-2.6V9.6c0-0.7-0.1-1.2-0.2-1.6c-0.1-0.4-0.3-0.8-0.6-1.1c-0.3-0.3-0.7-0.5-1.1-0.7C16.5,6.1,16,6,15.3,6L15.3,6z"/>
      <path d="M36,0c0,6.6-5.4,12-12,12c-1.3,0-2.6-0.2-3.9-0.6c0-0.3,0-0.6,0-0.9V9.6c0-0.8-0.1-1.4-0.3-2C19.7,7,19.4,6.4,19,6l0,0l0,0c-0.5-0.4-1-0.7-1.6-0.9l0,0l0,0c-0.6-0.2-1.2-0.2-2-0.2H14v0H13c-0.6-1.5-1-3-1-4.7c0-6.6,5.4-12,12-12C30.6-12,36-6.6,36,0z"/>
      <path d="M18.2,24H5.8C2.6,24,0,21.4,0,18.2V5.8C0,2.6,2.6,0,5.8,0h12.4C21.4,0,24,2.6,24,5.8v12.4C24,21.4,21.4,24,18.2,24z M5.8,0.4c-3,0-5.5,2.4-5.5,5.5v12.4c0,3,2.4,5.5,5.5,5.5h12.4c3,0,5.5-2.4,5.5-5.5V5.8c0-3-2.4-5.5-5.5-5.5H5.8z"/>
    </symbol>
    <symbol id="yt_icon" viewBox="0 0 24 24">
      <path d="M23.3424 5.39896C23.2419 5.00571 23.0493 4.642 22.7806 4.33782C22.5118 4.03365 22.1746 3.79773 21.7968 3.64954C18.14 2.2372 12.32 2.25 12 2.25C11.68 2.25 5.85996 2.2372 2.20324 3.64954C1.82537 3.79773 1.48815 4.03365 1.2194 4.33782C0.950651 4.642 0.758077 5.00571 0.657565 5.39896C0.381284 6.46355 0.0527344 8.40925 0.0527344 11.6371C0.0527344 14.865 0.381284 16.8107 0.657565 17.8753C0.757927 18.2688 0.950433 18.6327 1.21919 18.9371C1.48795 19.2414 1.82525 19.4775 2.20324 19.6258C5.70635 20.9773 11.1893 21.0243 11.9296 21.0243H12.0704C12.8107 21.0243 18.2968 20.9773 21.7968 19.6258C22.1748 19.4775 22.5121 19.2414 22.7808 18.9371C23.0496 18.6327 23.2421 18.2688 23.3424 17.8753C23.6187 16.8086 23.9473 14.865 23.9473 11.6371C23.9473 8.40925 23.6187 6.46355 23.3424 5.39896ZM15.6503 11.9924L10.5301 15.4059C10.4658 15.4487 10.3911 15.4734 10.3139 15.4771C10.2367 15.4808 10.16 15.4636 10.0919 15.4271C10.0237 15.3906 9.9668 15.3363 9.92712 15.27C9.88744 15.2037 9.86651 15.1279 9.86656 15.0506V8.22364C9.86651 8.14637 9.88744 8.07054 9.92712 8.00424C9.9668 7.93794 10.0237 7.88366 10.0919 7.84719C10.16 7.81072 10.2367 7.79343 10.3139 7.79717C10.3911 7.80091 10.4658 7.82554 10.5301 7.86842L15.6503 11.2819C15.7088 11.3209 15.7568 11.3737 15.79 11.4357C15.8232 11.4976 15.8406 11.5668 15.8406 11.6371C15.8406 11.7074 15.8232 11.7767 15.79 11.8386C15.7568 11.9006 15.7088 11.9534 15.6503 11.9924Z"/>
    </symbol>
    <symbol id="search_icon" viewBox="0 0 24 24">
      <path d="M21.5299 20.4696L16.8358 15.7765C18.1963 14.1431 18.8748 12.048 18.73 9.92715C18.5852 7.80629 17.6283 5.82289 16.0584 4.38956C14.4885 2.95623 12.4264 2.18333 10.3011 2.23163C8.1759 2.27993 6.15108 3.14571 4.64791 4.64888C3.14474 6.15205 2.27895 8.17687 2.23065 10.3021C2.18235 12.4274 2.95526 14.4894 4.38859 16.0593C5.82191 17.6293 7.80531 18.5861 9.92618 18.7309C12.047 18.8757 14.1421 18.1973 15.7755 16.8368L20.4686 21.5308C20.5383 21.6005 20.621 21.6558 20.7121 21.6935C20.8031 21.7312 20.9007 21.7506 20.9992 21.7506C21.0978 21.7506 21.1954 21.7312 21.2864 21.6935C21.3775 21.6558 21.4602 21.6005 21.5299 21.5308C21.5995 21.4612 21.6548 21.3784 21.6925 21.2874C21.7302 21.1963 21.7497 21.0988 21.7497 21.0002C21.7497 20.9017 21.7302 20.8041 21.6925 20.713C21.6548 20.622 21.5995 20.5393 21.5299 20.4696ZM3.74924 10.5002C3.74924 9.16519 4.14512 7.86015 4.88682 6.75011C5.62852 5.64008 6.68272 4.77492 7.91612 4.26403C9.14952 3.75314 10.5067 3.61946 11.8161 3.87991C13.1255 4.14036 14.3282 4.78324 15.2722 5.72724C16.2162 6.67125 16.8591 7.87398 17.1195 9.18335C17.38 10.4927 17.2463 11.8499 16.7354 13.0833C16.2245 14.3167 15.3594 15.3709 14.2493 16.1126C13.1393 16.8543 11.8343 17.2502 10.4992 17.2502C8.70963 17.2482 6.9939 16.5364 5.72846 15.271C4.46302 14.0056 3.75122 12.2898 3.74924 10.5002Z"/>
    </symbol>
    <symbol id="burger_icon" viewBox="0 0 24 24">
      <path d="M21 12C21 12.1989 20.921 12.3897 20.7803 12.5303C20.6397 12.671 20.4489 12.75 20.25 12.75H3.75C3.55109 12.75 3.36032 12.671 3.21967 12.5303C3.07902 12.3897 3 12.1989 3 12C3 11.8011 3.07902 11.6103 3.21967 11.4697C3.36032 11.329 3.55109 11.25 3.75 11.25H20.25C20.4489 11.25 20.6397 11.329 20.7803 11.4697C20.921 11.6103 21 11.8011 21 12ZM3.75 6.75H20.25C20.4489 6.75 20.6397 6.67098 20.7803 6.53033C20.921 6.38968 21 6.19891 21 6C21 5.80109 20.921 5.61032 20.7803 5.46967C20.6397 5.32902 20.4489 5.25 20.25 5.25H3.75C3.55109 5.25 3.36032 5.32902 3.21967 5.46967C3.07902 5.61032 3 5.80109 3 6C3 6.19891 3.07902 6.38968 3.21967 6.53033C3.36032 6.67098 3.55109 6.75 3.75 6.75ZM20.25 17.25H3.75C3.55109 17.25 3.36032 17.329 3.21967 17.4697C3.07902 17.6103 3 17.8011 3 18C3 18.1989 3.07902 18.3897 3.21967 18.5303C3.36032 18.671 3.55109 18.75 3.75 18.75H20.25C20.4489 18.75 20.6397 18.671 20.7803 18.5303C20.921 18.3897 21 18.1989 21 18C21 17.8011 20.921 17.6103 20.7803 17.4697C20.6397 17.329 20.4489 17.25 20.25 17.25Z"/>
    </symbol>
    <symbol id="phone_icon" viewBox="0 0 24 24">
      <path d="M20.8472 14.8554L16.4306 12.8764L16.4184 12.8707C16.1892 12.7727 15.939 12.7333 15.6907 12.7562C15.4424 12.7792 15.2037 12.8636 14.9963 13.002C14.9718 13.0181 14.9484 13.0357 14.9259 13.0545L12.6441 14.9998C11.1984 14.2976 9.70595 12.8164 9.00376 11.3895L10.9519 9.07294C10.9706 9.0495 10.9884 9.02606 11.0053 9.00075C11.1407 8.79384 11.2229 8.55667 11.2445 8.31035C11.2661 8.06402 11.2264 7.81618 11.1291 7.58887V7.57762L9.14438 3.15356C9.0157 2.85662 8.79444 2.60926 8.51362 2.44841C8.2328 2.28756 7.9075 2.22184 7.58626 2.26106C6.31592 2.42822 5.14986 3.05209 4.30588 4.01615C3.4619 4.98021 2.99771 6.21852 3.00001 7.49981C3.00001 14.9436 9.05626 20.9998 16.5 20.9998C17.7813 21.0021 19.0196 20.5379 19.9837 19.6939C20.9477 18.85 21.5716 17.6839 21.7388 16.4136C21.7781 16.0924 21.7125 15.7672 21.5518 15.4864C21.3911 15.2056 21.144 14.9843 20.8472 14.8554ZM16.5 19.4998C13.3185 19.4963 10.2682 18.2309 8.01856 15.9813C5.76888 13.7316 4.50348 10.6813 4.50001 7.49981C4.49648 6.58433 4.82631 5.69887 5.42789 5.00879C6.02947 4.3187 6.86167 3.87118 7.76907 3.74981C7.7687 3.75355 7.7687 3.75732 7.76907 3.76106L9.73782 8.16731L7.80001 10.4867C7.78034 10.5093 7.76247 10.5335 7.74657 10.5589C7.60549 10.7754 7.52273 11.0246 7.5063 11.2825C7.48988 11.5404 7.54035 11.7981 7.65282 12.0307C8.5022 13.7679 10.2525 15.5051 12.0084 16.3536C12.2428 16.465 12.502 16.5137 12.7608 16.495C13.0196 16.4762 13.2692 16.3907 13.485 16.2467C13.5091 16.2305 13.5322 16.2129 13.5544 16.1942L15.8334 14.2498L20.2397 16.2232C20.2397 16.2232 20.2472 16.2232 20.25 16.2232C20.1301 17.1319 19.6833 17.9658 18.9931 18.5689C18.3028 19.172 17.4166 19.5029 16.5 19.4998Z"/>
    </symbol>
    <symbol id="leaf_icon" viewBox="0 0 70 70">
      <path d="M10.6,67.2H7c-2.8,0-5-2.2-5-5v-1.7C2,28.8,27.8,3,59.5,3h3.6c2.8,0,5,2.2,5,5v1.7C68.2,41.4,42.4,67.2,10.6,67.2z M59.5,5.5c-30.3,0-55,24.7-55,55v1.7c0,1.4,1.1,2.5,2.5,2.5h3.6c30.3,0,55-24.7,55-55V8c0-1.4-1.1-2.5-2.5-2.5H59.5z"/>
    </symbol>
    <symbol id="leaf_arrow" viewBox="0 0 20 20">
      <path d="M5,2.8c0-0.7,0.6-1.2,1.3-1.2h11.2c0.7,0,1.3,0.6,1.3,1.2v11.3c0,0.7-0.6,1.3-1.3,1.3c-0.7,0-1.3-0.6-1.3-1.3V5.7L3.4,18.1c-0.5,0.5-1.3,0.5-1.8,0c-0.5-0.5-0.5-1.3,0-1.8L14.4,4.1H6.3C5.6,4.1,5,3.5,5,2.8z"/>
    </symbol>
    <symbol id="persons_1_icon" viewBox="0 0 20 20">
      <path d="M9.99732 6.25034C9.63843 6.25034 9.33267 6.12346 9.08003 5.86971C8.82725 5.61596 8.70086 5.30964 8.70086 4.95075C8.70086 4.59173 8.82773 4.28589 9.08148 4.03326C9.33523 3.78062 9.64162 3.6543 10.0007 3.6543C10.3595 3.6543 10.6653 3.78117 10.9179 4.03492C11.1707 4.28867 11.2971 4.59499 11.2971 4.95388C11.2971 5.31291 11.1702 5.61874 10.9165 5.87138C10.6627 6.12402 10.3563 6.25034 9.99732 6.25034ZM8.60482 16.2343L8.60482 12.2278L7.77148 12.2278L7.77148 8.50992C7.77148 8.12659 7.90801 7.79839 8.18107 7.52534C8.45398 7.25228 8.78218 7.11575 9.16565 7.11575L10.8323 7.11575C11.2158 7.11575 11.544 7.25228 11.8169 7.52534C12.09 7.79839 12.2265 8.12659 12.2265 8.50992L12.2265 12.2278L11.3932 12.2278L11.3932 16.2343L8.60482 16.2343Z"/>
    </symbol>
    <symbol id="persons_2_icon" viewBox="0 0 20 20">
      <path d="M13.0598 5.92905C12.7009 5.92905 12.3952 5.80217 12.1425 5.54842C11.8897 5.29467 11.7634 4.98835 11.7634 4.62947C11.7634 4.27044 11.8902 3.96461 12.144 3.71197C12.3977 3.45933 12.7041 3.33301 13.0632 3.33301C13.422 3.33301 13.7278 3.45988 13.9804 3.71363C14.2332 3.96738 14.3596 4.2737 14.3596 4.63259C14.3596 4.99162 14.2327 5.29745 13.979 5.55009C13.7252 5.80273 13.4188 5.92905 13.0598 5.92905ZM11.6673 15.913L11.6673 11.9065L10.834 11.9065L10.834 8.18863C10.834 7.8053 10.9705 7.47711 11.2436 7.20405C11.5165 6.93099 11.8447 6.79447 12.2282 6.79447L13.8948 6.79447C14.2783 6.79447 14.6065 6.93099 14.8794 7.20405C15.1525 7.47711 15.289 7.8053 15.289 8.18863L15.289 11.9065L14.4557 11.9065L14.4557 15.913L11.6673 15.913Z"/>
      <path d="M7.22583 5.92905C6.86695 5.92905 6.56118 5.80217 6.30854 5.54842C6.05576 5.29467 5.92938 4.98835 5.92938 4.62947C5.92938 4.27044 6.05625 3.96461 6.31 3.71197C6.56375 3.45933 6.87014 3.33301 7.22917 3.33301C7.58806 3.33301 7.89382 3.45988 8.14646 3.71363C8.39924 3.96738 8.52563 4.2737 8.52563 4.63259C8.52563 4.99162 8.39875 5.29745 8.145 5.55009C7.89125 5.80273 7.58486 5.92905 7.22583 5.92905ZM5.83333 15.913L5.83333 11.9065L5 11.9065L5 8.18863C5 7.8053 5.13653 7.47711 5.40958 7.20405C5.6825 6.93099 6.01069 6.79447 6.39417 6.79447L8.06083 6.79447C8.44431 6.79447 8.7725 6.93099 9.04542 7.20405C9.31847 7.47711 9.455 7.8053 9.455 8.18863L9.455 11.9065L8.62167 11.9065L8.62167 15.913L5.83333 15.913Z"/>
    </symbol>
    <symbol id="persons_3_icon" viewBox="0 0 20 20">
      <path d="M10.6711 6.4144C10.3123 6.4144 10.0065 6.28753 9.75385 6.03378C9.50108 5.78003 9.37469 5.47371 9.37469 5.11482C9.37469 4.75579 9.50156 4.44996 9.75531 4.19732C10.0091 3.94468 10.3155 3.81836 10.6745 3.81836C11.0334 3.81836 11.3391 3.94523 11.5918 4.19898C11.8445 4.45273 11.9709 4.75905 11.9709 5.11794C11.9709 5.47697 11.8441 5.7828 11.5903 6.03544C11.3366 6.28808 11.0302 6.4144 10.6711 6.4144ZM9.27865 16.3984L9.27865 12.3919L8.44531 12.3919L8.44531 8.67398C8.44531 8.29065 8.58184 7.96246 8.8549 7.6894C9.12781 7.41635 9.45601 7.27982 9.83948 7.27982L11.5061 7.27982C11.8896 7.27982 12.2178 7.41635 12.4907 7.6894C12.7638 7.96246 12.9003 8.29065 12.9003 8.67398L12.9003 12.3919L12.067 12.3919L12.067 16.3984L9.27865 16.3984Z"/>
      <path d="M15.1107 9.70406C14.8422 9.70406 14.6134 9.62002 14.4244 9.45193C14.2353 9.28384 14.1407 9.08092 14.1407 8.84318C14.1407 8.60535 14.2356 8.40276 14.4255 8.23541C14.6153 8.06805 14.8446 7.98437 15.1132 7.98437C15.3818 7.98437 15.6105 8.06842 15.7996 8.23651C15.9887 8.4046 16.0833 8.60752 16.0833 8.84525C16.0833 9.08308 15.9883 9.28568 15.7985 9.45303C15.6086 9.62039 15.3794 9.70406 15.1107 9.70406ZM14.0688 16.3177L14.0688 13.6637L13.4453 13.6637L13.4453 11.2009C13.4453 10.9469 13.5475 10.7295 13.7518 10.5487C13.956 10.3678 14.2015 10.2773 14.4885 10.2773L15.7355 10.2773C16.0224 10.2773 16.268 10.3678 16.4722 10.5487C16.6765 10.7295 16.7786 10.9469 16.7786 11.2009L16.7786 13.6637L16.1551 13.6637L16.1551 16.3177L14.0688 16.3177Z"/>
      <path d="M5.67115 6.4144C5.31226 6.4144 5.00649 6.28753 4.75385 6.03378C4.50108 5.78003 4.37469 5.47371 4.37469 5.11482C4.37469 4.75579 4.50156 4.44996 4.75531 4.19732C5.00906 3.94468 5.31545 3.81836 5.67448 3.81836C6.03337 3.81836 6.33913 3.94523 6.59177 4.19898C6.84455 4.45273 6.97094 4.75905 6.97094 5.11794C6.97094 5.47697 6.84406 5.7828 6.59031 6.03544C6.33656 6.28808 6.03017 6.4144 5.67115 6.4144ZM4.27865 16.3984L4.27865 12.3919L3.44531 12.3919L3.44531 8.67398C3.44531 8.29065 3.58184 7.96246 3.8549 7.6894C4.12781 7.41635 4.45601 7.27982 4.83948 7.27982L6.50615 7.27982C6.88962 7.27982 7.21781 7.41635 7.49073 7.6894C7.76379 7.96246 7.90031 8.29065 7.90031 8.67398L7.90031 12.3919L7.06698 12.3919L7.06698 16.3984L4.27865 16.3984Z"/>
    </symbol>
    <symbol id="square_icon" viewBox="0 0 24 24">
      <path d="M11.3,5.3v4.5c0,0.4-0.2,0.8-0.4,1.1c-0.3,0.3-0.7,0.4-1.1,0.4H5.3c-0.4,0-0.8-0.2-1.1-0.4c-0.3-0.3-0.4-0.7-0.4-1.1V5.3c0-0.4,0.2-0.8,0.4-1.1s0.7-0.4,1.1-0.4h4.5c0.4,0,0.8,0.2,1.1,0.4C11.1,4.5,11.3,4.9,11.3,5.3z M18.8,3.8h-4.5c-0.4,0-0.8,0.2-1.1,0.4c-0.3,0.3-0.4,0.7-0.4,1.1v4.5c0,0.4,0.2,0.8,0.4,1.1c0.3,0.3,0.7,0.4,1.1,0.4h4.5c0.4,0,0.8-0.2,1.1-0.4c0.3-0.3,0.4-0.7,0.4-1.1V5.3c0-0.4-0.2-0.8-0.4-1.1S19.1,3.8,18.8,3.8z M9.8,12.8H5.3c-0.4,0-0.8,0.2-1.1,0.4c-0.3,0.3-0.4,0.7-0.4,1.1v4.5c0,0.4,0.2,0.8,0.4,1.1s0.7,0.4,1.1,0.4h4.5c0.4,0,0.8-0.2,1.1-0.4c0.3-0.3,0.4-0.7,0.4-1.1v-4.5c0-0.4-0.2-0.8-0.4-1.1C10.5,12.9,10.1,12.8,9.8,12.8z M18.8,12.8h-4.5c-0.4,0-0.8,0.2-1.1,0.4c-0.3,0.3-0.4,0.7-0.4,1.1v4.5c0,0.4,0.2,0.8,0.4,1.1c0.3,0.3,0.7,0.4,1.1,0.4h4.5c0.4,0,0.8-0.2,1.1-0.4s0.4-0.7,0.4-1.1v-4.5c0-0.4-0.2-0.8-0.4-1.1C19.5,12.9,19.1,12.8,18.8,12.8z"/>
    </symbol>
    <symbol id="food_icon" viewBox="0 0 24 24">
      <path d="M20.6,3.4v17.3c0,0.2-0.1,0.4-0.2,0.5c-0.1,0.1-0.3,0.2-0.5,0.2s-0.4-0.1-0.5-0.2c-0.1-0.1-0.2-0.3-0.2-0.5v-5h-2.3h-2c-0.2,0-0.5,0-0.8-0.2c-0.2-0.3-0.2-0.6-0.2-0.8c0-1.8,0.3-2.8,0.7-4.6c0.9-3.8,2.7-6.3,5-7.4c0.1,0,0.2-0.1,0.4-0.1c0.1,0,0.2,0.1,0.3,0.1c0.1,0.1,0.2,0.2,0.2,0.3C20.6,3.1,20.6,3.3,20.6,3.4z M11.6,3.3c0-0.1,0-0.2-0.1-0.3c-0.1-0.1-0.1-0.2-0.2-0.2c-0.1-0.1-0.2-0.1-0.3-0.1c-0.1,0-0.2,0-0.3,0c-0.1,0-0.2,0.1-0.3,0.1c-0.1,0.1-0.2,0.1-0.2,0.2c-0.1,0.1-0.1,0.2-0.1,0.3c0,0.1,0,0.2,0,0.3l0.7,4.4H8.6V3.4c0-0.2-0.1-0.4-0.2-0.5C8.3,2.7,8.1,2.6,7.9,2.6c-0.2,0-0.4,0.1-0.5,0.2C7.2,3,7.1,3.2,7.1,3.4v4.5H4.9l0.7-4.4c0-0.1,0-0.2,0-0.3c0-0.1-0.1-0.2-0.1-0.3C5.4,2.9,5.4,2.8,5.3,2.7C5.2,2.7,5.1,2.6,5,2.6c-0.1,0-0.2,0-0.3,0c-0.1,0-0.2,0.1-0.3,0.1C4.4,2.8,4.3,2.9,4.2,3C4.2,3.1,4.2,3.2,4.1,3.3L3.4,7.8c0,0,0,0.1,0,0.1c0,1.1,0.4,2.1,1.1,2.9c0.7,0.8,1.6,1.4,2.7,1.5v8.3c0,0.2,0.1,0.4,0.2,0.5c0.1,0.1,0.3,0.2,0.5,0.2c0.2,0,0.4-0.1,0.5-0.2c0.1-0.1,0.2-0.3,0.2-0.5v-8.3c1-0.2,2-0.7,2.7-1.5c0.7-0.8,1.1-1.8,1.1-2.9c0,0,0-0.1,0-0.1L11.6,3.3z"/>
    </symbol>
    <symbol id="map_pin_icon" viewBox="0 0 24 24">
      <path d="M12,1.5c-2.2,0-4.3,0.9-5.8,2.4S3.8,7.6,3.8,9.8c0,7.1,7.5,12.4,7.8,12.6c0.1,0.1,0.3,0.1,0.4,0.1s0.3,0,0.4-0.1c0.3-0.2,7.8-5.6,7.8-12.6c0-2.2-0.9-4.3-2.4-5.8S14.2,1.5,12,1.5z M12,6.8c0.6,0,1.2,0.2,1.7,0.5c0.5,0.3,0.9,0.8,1.1,1.3c0.2,0.5,0.3,1.2,0.2,1.7c-0.1,0.6-0.4,1.1-0.8,1.5c-0.4,0.4-1,0.7-1.5,0.8c-0.6,0.1-1.2,0.1-1.7-0.2c-0.5-0.2-1-0.6-1.3-1.1C9.2,10.9,9,10.3,9,9.8C9,9,9.3,8.2,9.9,7.6C10.4,7.1,11.2,6.8,12,6.8z"/>
    </symbol>
    <symbol id="" viewBox="0 0 24 24">
    </symbol>
    <symbol id="" viewBox="0 0 24 24">
    </symbol>
</svg>
