<svg aria-hidden="true" style="width: 0px; height: 0px; overflow: hidden; position: absolute;" xmlns="http://www.w3.org/2000/svg">
    <symbol id="envelope_icon" viewBox="0 0 24 24">
      <path d="M21 4.5H3C2.80109 4.5 2.61032 4.57902 2.46967 4.71967C2.32902 4.86032 2.25 5.05109 2.25 5.25V18C2.25 18.3978 2.40804 18.7794 2.68934 19.0607C2.97064 19.342 3.35218 19.5 3.75 19.5H20.25C20.6478 19.5 21.0294 19.342 21.3107 19.0607C21.592 18.7794 21.75 18.3978 21.75 18V5.25C21.75 5.05109 21.671 4.86032 21.5303 4.71967C21.3897 4.57902 21.1989 4.5 21 4.5ZM19.0716 6L12 12.4828L4.92844 6H19.0716ZM20.25 18H3.75V6.95531L11.4928 14.0531C11.6312 14.1801 11.8122 14.2506 12 14.2506C12.1878 14.2506 12.3688 14.1801 12.5072 14.0531L20.25 6.95531V18Z"/>
    </symbol>
    <symbol id="wa_icon" viewBox="0 0 24 24">
      	<path d="M3,23.3c-1.4,0.5-2.6-0.8-2.1-2.2c0.2-0.7,0.5-1.3,0.7-2c0.2-0.6,0.1-1.3-0.1-1.8C-2.3,9.4,3.2,1.1,10.6,0.4c7.2-0.7,13.2,4.5,13.2,11.6c0,7.5-7.2,13.8-15.4,11.2c-0.6-0.2-1.4-0.8-2.1-0.9C5.3,22.2,4,22.9,3,23.3z"/>
      	<path fill="#1B2615" d="M9,6.4c0.7,1.4,1.8,3.6,0,4.6c0.9,1.9,2.4,3.2,4.3,4.1c0.6-0.4,1.1-1.1,1.6-1.6c1.1,0.4,2.2,0.9,3.1,1.6c0.1,2.1-1.7,2.9-3.2,2.8c-3.2-0.1-7.6-4.2-8.6-7.1C5.6,8.9,6.3,5.6,9,6.4z"/>
    </symbol>
    <symbol id="tg_icon" viewBox="0 0 24 24">
      <path d="M12 24C18.6274 24 24 18.6274 24 12C24 5.37258 18.6274 0 12 0C5.37258 0 0 5.37258 0 12C0 18.6274 5.37258 24 12 24Z"/>
      <path fill-rule="evenodd" clip-rule="evenodd" d="M5.43299 11.8739C8.93123 10.3498 11.2639 9.34501 12.4311 8.85954C15.7636 7.47343 16.4561 7.23264 16.9075 7.22469C17.0067 7.22295 17.2287 7.24755 17.3725 7.36421C17.4939 7.46272 17.5273 7.59579 17.5432 7.68919C17.5592 7.78258 17.5791 7.99534 17.5633 8.16159C17.3827 10.0591 16.6013 14.6638 16.2038 16.789C16.0356 17.6882 15.7043 17.9897 15.3837 18.0193C14.6868 18.0834 14.1577 17.5587 13.4827 17.1163C12.4266 16.424 11.8299 15.993 10.8047 15.3174C9.61994 14.5367 10.388 14.1075 11.0632 13.4063C11.2399 13.2227 14.3103 10.43 14.3697 10.1766C14.3771 10.1449 14.384 10.0268 14.3139 9.96446C14.2437 9.90209 14.1401 9.92342 14.0654 9.94038C13.9595 9.96442 12.2723 11.0796 9.00374 13.286C8.52483 13.6148 8.09104 13.775 7.70239 13.7666C7.27392 13.7574 6.44974 13.5244 5.83704 13.3252C5.08553 13.0809 4.48826 12.9518 4.54027 12.5369C4.56736 12.3208 4.86493 12.0998 5.43299 11.8739Z" fill="#1B2615"/>
    </symbol>
    <symbol id="dzen_icon" viewBox="0 0 24 24">
      <path d="M11.9342 23.8594H12.0293C16.7674 23.8594 19.5176 23.3824 21.4658 21.4911C23.4521 19.4849 23.9108 16.7161 23.9108 11.9964V11.863C23.9108 7.14476 23.4521 4.39449 21.4658 2.36833C19.5191 0.477075 16.749 0 12.0307 0H11.9356C7.1975 0 4.44579 0.477075 2.49774 2.36833C0.511351 4.3746 0.0527344 7.14476 0.0527344 11.863V11.9964C0.0527344 16.7147 0.511351 19.465 2.49774 21.4911C4.42734 23.3824 7.1975 23.8594 11.9342 23.8594Z"/>
      <path d="M21.0701 11.7483C21.0701 11.6574 20.9963 11.5822 20.9054 11.5779C17.6444 11.4544 15.6598 11.0385 14.2713 9.65002C12.88 8.25875 12.4654 6.27261 12.3419 3.00452C12.3391 2.91366 12.2638 2.83984 12.1716 2.83984H11.7911C11.7002 2.83984 11.625 2.91366 11.6207 3.00452C11.4972 6.27119 11.0827 8.25875 9.69139 9.65002C8.30154 11.0399 6.31824 11.4544 3.05725 11.5779C2.9664 11.5808 2.89258 11.656 2.89258 11.7483V12.1288C2.89258 12.2196 2.9664 12.2949 3.05725 12.2991C6.31824 12.4226 8.30295 12.8386 9.69139 14.2271C11.0798 15.6155 11.4944 17.596 11.6193 20.8512C11.6221 20.9421 11.6974 21.0159 11.7897 21.0159H12.1716C12.2624 21.0159 12.3377 20.9421 12.3419 20.8512C12.4669 17.596 12.8814 15.6155 14.2699 14.2271C15.6598 12.8372 17.643 12.4226 20.904 12.2991C20.9949 12.2963 21.0687 12.2211 21.0687 12.1288V11.7483H21.0701Z" fill="#1B2615"/>
    </symbol>
    <symbol id="vk_icon" viewBox="0 0 24 24">
      <path fill-rule="evenodd" clip-rule="evenodd" d="M1.78755 1.68707C0.117188 3.37414 0.117188 6.08942 0.117188 11.52V12.48C0.117188 17.9106 0.117188 20.6259 1.78755 22.3129C3.45792 24 6.14632 24 11.5231 24H12.4736C17.8504 24 20.5388 24 22.2092 22.3129C23.8796 20.6259 23.8796 17.9106 23.8796 12.48V11.52C23.8796 6.08942 23.8796 3.37414 22.2092 1.68707C20.5388 0 17.8504 0 12.4736 0H11.5231C6.14632 0 3.45792 0 1.78755 1.68707ZM4.12714 7.30006C4.25583 13.5401 7.34492 17.29 12.7608 17.29H13.0678V13.72C15.0579 13.92 16.5627 15.39 17.1666 17.29H19.9786C19.2063 14.45 17.1765 12.88 15.9092 12.28C17.1765 11.54 18.9587 9.74004 19.3845 7.30006H16.8299C16.2755 9.28006 14.6321 11.08 13.0678 11.25V7.30006H10.5132V14.22C8.92906 13.82 6.9291 11.88 6.83999 7.30006H4.12714Z"/>
      <path d="M4.12714 7.30006C4.25583 13.5401 7.34492 17.29 12.7608 17.29H13.0678V13.72C15.0579 13.92 16.5627 15.39 17.1666 17.29H19.9786C19.2063 14.45 17.1765 12.88 15.9092 12.28C17.1765 11.54 18.9587 9.74004 19.3845 7.30006H16.8299C16.2755 9.28006 14.6321 11.08 13.0678 11.25V7.30006H10.5132V14.22C8.92906 13.82 6.9291 11.88 6.83999 7.30006H4.12714Z" fill="#1B2615"/>
    </symbol>
    <symbol id="ok_icon" viewBox="0 0 24 24">
      <path d="M0 11.5194C0 6.09187 0 3.36396 1.68197 1.68198C3.37809 1.34795e-07 6.09187 0 11.5194 0H12.4806C17.9081 0 20.636 1.34795e-07 22.318 1.68198C24 3.36396 24 6.09187 24 11.5194V12.4806C24 17.9081 24 20.636 22.318 22.318C20.636 24 17.9081 24 12.4806 24H11.5194C6.09187 24 3.36395 24 1.68197 22.318C0 20.636 0 17.9223 0 12.4806V11.5194Z"/>
      <path d="M12 11.9435C13.1732 11.9435 14.2333 11.4629 14.9965 10.6996C15.7598 9.93639 16.2403 8.87632 16.2403 7.70317C16.2403 6.53003 15.7598 5.46996 14.9965 4.70671C14.2333 3.94346 13.1732 3.46289 12 3.46289C10.8269 3.46289 9.76683 3.94346 9.00358 4.70671C8.24033 5.46996 7.75977 6.53003 7.75977 7.70317C7.75977 8.87632 8.24033 9.93639 9.00358 10.6996C9.76683 11.4629 10.841 11.9435 12 11.9435ZM10.6431 6.33215C10.9965 5.97879 11.4771 5.76678 12 5.76678C12.5371 5.76678 13.0177 5.97879 13.3569 6.33215C13.7103 6.68551 13.9223 7.16607 13.9223 7.68904C13.9223 8.22614 13.7103 8.70671 13.3569 9.04593C13.0036 9.39929 12.523 9.6113 12 9.6113C11.4629 9.6113 10.9824 9.39929 10.6431 9.04593C10.2898 8.69257 10.0778 8.21201 10.0778 7.68904C10.0778 7.16607 10.3039 6.68551 10.6431 6.33215Z" fill="#1B2615"/>
      <path d="M17.7093 13.6551L16.4655 11.959C16.3948 11.86 16.2535 11.8459 16.1687 11.9307C14.9955 12.9342 13.5538 13.5844 11.999 13.5844C10.4443 13.5844 9.00257 12.9342 7.82943 11.9307C7.74462 11.86 7.60328 11.8741 7.53261 11.959L6.28879 13.6551C6.23226 13.7399 6.24639 13.8529 6.31706 13.9236C7.363 14.7717 8.57855 15.3512 9.85063 15.648L7.22165 20.284C7.15098 20.4113 7.24992 20.5809 7.39127 20.5809H9.96371C10.0485 20.5809 10.1192 20.5385 10.1475 20.4537L11.9849 16.3547L13.8224 20.4537C13.8506 20.5243 13.9213 20.5809 14.0061 20.5809H16.5785C16.734 20.5809 16.8188 20.4254 16.7482 20.284L14.1192 15.648C15.3913 15.3512 16.6068 14.7858 17.6528 13.9236C17.7658 13.8529 17.78 13.7399 17.7093 13.6551Z" fill="#1B2615"/>
    </symbol>
    <symbol id="rt_icon" viewBox="0 0 24 24">
      <path d="M14.8,11.5H7.7V8.6h7.1c0.4,0,0.7,0.1,0.8,0.2c0.1,0.1,0.2,0.4,0.2,0.7v1c0,0.4-0.1,0.6-0.2,0.7C15.5,11.4,15.2,11.5,14.8,11.5L14.8,11.5z M15.3,6H4.7v12h3v-3.9h5.5l2.6,3.9h3.4l-2.9-3.9c1.1-0.2,1.5-0.5,1.9-1c0.4-0.5,0.6-1.4,0.6-2.6V9.6c0-0.7-0.1-1.2-0.2-1.6c-0.1-0.4-0.3-0.8-0.6-1.1c-0.3-0.3-0.7-0.5-1.1-0.7C16.5,6.1,16,6,15.3,6L15.3,6z"/>
      <path d="M36,0c0,6.6-5.4,12-12,12c-1.3,0-2.6-0.2-3.9-0.6c0-0.3,0-0.6,0-0.9V9.6c0-0.8-0.1-1.4-0.3-2C19.7,7,19.4,6.4,19,6l0,0l0,0c-0.5-0.4-1-0.7-1.6-0.9l0,0l0,0c-0.6-0.2-1.2-0.2-2-0.2H14v0H13c-0.6-1.5-1-3-1-4.7c0-6.6,5.4-12,12-12C30.6-12,36-6.6,36,0z"/>
      <path d="M18.2,24H5.8C2.6,24,0,21.4,0,18.2V5.8C0,2.6,2.6,0,5.8,0h12.4C21.4,0,24,2.6,24,5.8v12.4C24,21.4,21.4,24,18.2,24z M5.8,0.4c-3,0-5.5,2.4-5.5,5.5v12.4c0,3,2.4,5.5,5.5,5.5h12.4c3,0,5.5-2.4,5.5-5.5V5.8c0-3-2.4-5.5-5.5-5.5H5.8z"/>
    </symbol>
    <symbol id="yt_icon" viewBox="0 0 24 24">
      <path d="M23.3424 5.39896C23.2419 5.00571 23.0493 4.642 22.7806 4.33782C22.5118 4.03365 22.1746 3.79773 21.7968 3.64954C18.14 2.2372 12.32 2.25 12 2.25C11.68 2.25 5.85996 2.2372 2.20324 3.64954C1.82537 3.79773 1.48815 4.03365 1.2194 4.33782C0.950651 4.642 0.758077 5.00571 0.657565 5.39896C0.381284 6.46355 0.0527344 8.40925 0.0527344 11.6371C0.0527344 14.865 0.381284 16.8107 0.657565 17.8753C0.757927 18.2688 0.950433 18.6327 1.21919 18.9371C1.48795 19.2414 1.82525 19.4775 2.20324 19.6258C5.70635 20.9773 11.1893 21.0243 11.9296 21.0243H12.0704C12.8107 21.0243 18.2968 20.9773 21.7968 19.6258C22.1748 19.4775 22.5121 19.2414 22.7808 18.9371C23.0496 18.6327 23.2421 18.2688 23.3424 17.8753C23.6187 16.8086 23.9473 14.865 23.9473 11.6371C23.9473 8.40925 23.6187 6.46355 23.3424 5.39896ZM15.6503 11.9924L10.5301 15.4059C10.4658 15.4487 10.3911 15.4734 10.3139 15.4771C10.2367 15.4808 10.16 15.4636 10.0919 15.4271C10.0237 15.3906 9.9668 15.3363 9.92712 15.27C9.88744 15.2037 9.86651 15.1279 9.86656 15.0506V8.22364C9.86651 8.14637 9.88744 8.07054 9.92712 8.00424C9.9668 7.93794 10.0237 7.88366 10.0919 7.84719C10.16 7.81072 10.2367 7.79343 10.3139 7.79717C10.3911 7.80091 10.4658 7.82554 10.5301 7.86842L15.6503 11.2819C15.7088 11.3209 15.7568 11.3737 15.79 11.4357C15.8232 11.4976 15.8406 11.5668 15.8406 11.6371C15.8406 11.7074 15.8232 11.7767 15.79 11.8386C15.7568 11.9006 15.7088 11.9534 15.6503 11.9924Z"/>
    </symbol>
    <symbol id="search_icon" viewBox="0 0 24 24">
      <path d="M21.5299 20.4696L16.8358 15.7765C18.1963 14.1431 18.8748 12.048 18.73 9.92715C18.5852 7.80629 17.6283 5.82289 16.0584 4.38956C14.4885 2.95623 12.4264 2.18333 10.3011 2.23163C8.1759 2.27993 6.15108 3.14571 4.64791 4.64888C3.14474 6.15205 2.27895 8.17687 2.23065 10.3021C2.18235 12.4274 2.95526 14.4894 4.38859 16.0593C5.82191 17.6293 7.80531 18.5861 9.92618 18.7309C12.047 18.8757 14.1421 18.1973 15.7755 16.8368L20.4686 21.5308C20.5383 21.6005 20.621 21.6558 20.7121 21.6935C20.8031 21.7312 20.9007 21.7506 20.9992 21.7506C21.0978 21.7506 21.1954 21.7312 21.2864 21.6935C21.3775 21.6558 21.4602 21.6005 21.5299 21.5308C21.5995 21.4612 21.6548 21.3784 21.6925 21.2874C21.7302 21.1963 21.7497 21.0988 21.7497 21.0002C21.7497 20.9017 21.7302 20.8041 21.6925 20.713C21.6548 20.622 21.5995 20.5393 21.5299 20.4696ZM3.74924 10.5002C3.74924 9.16519 4.14512 7.86015 4.88682 6.75011C5.62852 5.64008 6.68272 4.77492 7.91612 4.26403C9.14952 3.75314 10.5067 3.61946 11.8161 3.87991C13.1255 4.14036 14.3282 4.78324 15.2722 5.72724C16.2162 6.67125 16.8591 7.87398 17.1195 9.18335C17.38 10.4927 17.2463 11.8499 16.7354 13.0833C16.2245 14.3167 15.3594 15.3709 14.2493 16.1126C13.1393 16.8543 11.8343 17.2502 10.4992 17.2502C8.70963 17.2482 6.9939 16.5364 5.72846 15.271C4.46302 14.0056 3.75122 12.2898 3.74924 10.5002Z"/>
    </symbol>
    <symbol id="burger_icon" viewBox="0 0 24 24">
      <path d="M21 12C21 12.1989 20.921 12.3897 20.7803 12.5303C20.6397 12.671 20.4489 12.75 20.25 12.75H3.75C3.55109 12.75 3.36032 12.671 3.21967 12.5303C3.07902 12.3897 3 12.1989 3 12C3 11.8011 3.07902 11.6103 3.21967 11.4697C3.36032 11.329 3.55109 11.25 3.75 11.25H20.25C20.4489 11.25 20.6397 11.329 20.7803 11.4697C20.921 11.6103 21 11.8011 21 12ZM3.75 6.75H20.25C20.4489 6.75 20.6397 6.67098 20.7803 6.53033C20.921 6.38968 21 6.19891 21 6C21 5.80109 20.921 5.61032 20.7803 5.46967C20.6397 5.32902 20.4489 5.25 20.25 5.25H3.75C3.55109 5.25 3.36032 5.32902 3.21967 5.46967C3.07902 5.61032 3 5.80109 3 6C3 6.19891 3.07902 6.38968 3.21967 6.53033C3.36032 6.67098 3.55109 6.75 3.75 6.75ZM20.25 17.25H3.75C3.55109 17.25 3.36032 17.329 3.21967 17.4697C3.07902 17.6103 3 17.8011 3 18C3 18.1989 3.07902 18.3897 3.21967 18.5303C3.36032 18.671 3.55109 18.75 3.75 18.75H20.25C20.4489 18.75 20.6397 18.671 20.7803 18.5303C20.921 18.3897 21 18.1989 21 18C21 17.8011 20.921 17.6103 20.7803 17.4697C20.6397 17.329 20.4489 17.25 20.25 17.25Z"/>
    </symbol>
    <symbol id="phone_icon" viewBox="0 0 24 24">
      <path d="M20.8472 14.8554L16.4306 12.8764L16.4184 12.8707C16.1892 12.7727 15.939 12.7333 15.6907 12.7562C15.4424 12.7792 15.2037 12.8636 14.9963 13.002C14.9718 13.0181 14.9484 13.0357 14.9259 13.0545L12.6441 14.9998C11.1984 14.2976 9.70595 12.8164 9.00376 11.3895L10.9519 9.07294C10.9706 9.0495 10.9884 9.02606 11.0053 9.00075C11.1407 8.79384 11.2229 8.55667 11.2445 8.31035C11.2661 8.06402 11.2264 7.81618 11.1291 7.58887V7.57762L9.14438 3.15356C9.0157 2.85662 8.79444 2.60926 8.51362 2.44841C8.2328 2.28756 7.9075 2.22184 7.58626 2.26106C6.31592 2.42822 5.14986 3.05209 4.30588 4.01615C3.4619 4.98021 2.99771 6.21852 3.00001 7.49981C3.00001 14.9436 9.05626 20.9998 16.5 20.9998C17.7813 21.0021 19.0196 20.5379 19.9837 19.6939C20.9477 18.85 21.5716 17.6839 21.7388 16.4136C21.7781 16.0924 21.7125 15.7672 21.5518 15.4864C21.3911 15.2056 21.144 14.9843 20.8472 14.8554ZM16.5 19.4998C13.3185 19.4963 10.2682 18.2309 8.01856 15.9813C5.76888 13.7316 4.50348 10.6813 4.50001 7.49981C4.49648 6.58433 4.82631 5.69887 5.42789 5.00879C6.02947 4.3187 6.86167 3.87118 7.76907 3.74981C7.7687 3.75355 7.7687 3.75732 7.76907 3.76106L9.73782 8.16731L7.80001 10.4867C7.78034 10.5093 7.76247 10.5335 7.74657 10.5589C7.60549 10.7754 7.52273 11.0246 7.5063 11.2825C7.48988 11.5404 7.54035 11.7981 7.65282 12.0307C8.5022 13.7679 10.2525 15.5051 12.0084 16.3536C12.2428 16.465 12.502 16.5137 12.7608 16.495C13.0196 16.4762 13.2692 16.3907 13.485 16.2467C13.5091 16.2305 13.5322 16.2129 13.5544 16.1942L15.8334 14.2498L20.2397 16.2232C20.2397 16.2232 20.2472 16.2232 20.25 16.2232C20.1301 17.1319 19.6833 17.9658 18.9931 18.5689C18.3028 19.172 17.4166 19.5029 16.5 19.4998Z"/>
    </symbol>
    <symbol id="leaf_icon" viewBox="0 0 70 70">
      <path d="M10.6,67.2H7c-2.8,0-5-2.2-5-5v-1.7C2,28.8,27.8,3,59.5,3h3.6c2.8,0,5,2.2,5,5v1.7C68.2,41.4,42.4,67.2,10.6,67.2z M59.5,5.5c-30.3,0-55,24.7-55,55v1.7c0,1.4,1.1,2.5,2.5,2.5h3.6c30.3,0,55-24.7,55-55V8c0-1.4-1.1-2.5-2.5-2.5H59.5z"/>
    </symbol>
    <symbol id="leaf_arrow" viewBox="0 0 20 20">
      <path d="M5,2.8c0-0.7,0.6-1.2,1.3-1.2h11.2c0.7,0,1.3,0.6,1.3,1.2v11.3c0,0.7-0.6,1.3-1.3,1.3c-0.7,0-1.3-0.6-1.3-1.3V5.7L3.4,18.1c-0.5,0.5-1.3,0.5-1.8,0c-0.5-0.5-0.5-1.3,0-1.8L14.4,4.1H6.3C5.6,4.1,5,3.5,5,2.8z"/>
    </symbol>
    <symbol id="persons_1_icon" viewBox="0 0 20 20">
      <path d="M9.99732 6.25034C9.63843 6.25034 9.33267 6.12346 9.08003 5.86971C8.82725 5.61596 8.70086 5.30964 8.70086 4.95075C8.70086 4.59173 8.82773 4.28589 9.08148 4.03326C9.33523 3.78062 9.64162 3.6543 10.0007 3.6543C10.3595 3.6543 10.6653 3.78117 10.9179 4.03492C11.1707 4.28867 11.2971 4.59499 11.2971 4.95388C11.2971 5.31291 11.1702 5.61874 10.9165 5.87138C10.6627 6.12402 10.3563 6.25034 9.99732 6.25034ZM8.60482 16.2343L8.60482 12.2278L7.77148 12.2278L7.77148 8.50992C7.77148 8.12659 7.90801 7.79839 8.18107 7.52534C8.45398 7.25228 8.78218 7.11575 9.16565 7.11575L10.8323 7.11575C11.2158 7.11575 11.544 7.25228 11.8169 7.52534C12.09 7.79839 12.2265 8.12659 12.2265 8.50992L12.2265 12.2278L11.3932 12.2278L11.3932 16.2343L8.60482 16.2343Z"/>
    </symbol>
    <symbol id="persons_2_icon" viewBox="0 0 20 20">
      <path d="M13.0598 5.92905C12.7009 5.92905 12.3952 5.80217 12.1425 5.54842C11.8897 5.29467 11.7634 4.98835 11.7634 4.62947C11.7634 4.27044 11.8902 3.96461 12.144 3.71197C12.3977 3.45933 12.7041 3.33301 13.0632 3.33301C13.422 3.33301 13.7278 3.45988 13.9804 3.71363C14.2332 3.96738 14.3596 4.2737 14.3596 4.63259C14.3596 4.99162 14.2327 5.29745 13.979 5.55009C13.7252 5.80273 13.4188 5.92905 13.0598 5.92905ZM11.6673 15.913L11.6673 11.9065L10.834 11.9065L10.834 8.18863C10.834 7.8053 10.9705 7.47711 11.2436 7.20405C11.5165 6.93099 11.8447 6.79447 12.2282 6.79447L13.8948 6.79447C14.2783 6.79447 14.6065 6.93099 14.8794 7.20405C15.1525 7.47711 15.289 7.8053 15.289 8.18863L15.289 11.9065L14.4557 11.9065L14.4557 15.913L11.6673 15.913Z"/>
      <path d="M7.22583 5.92905C6.86695 5.92905 6.56118 5.80217 6.30854 5.54842C6.05576 5.29467 5.92938 4.98835 5.92938 4.62947C5.92938 4.27044 6.05625 3.96461 6.31 3.71197C6.56375 3.45933 6.87014 3.33301 7.22917 3.33301C7.58806 3.33301 7.89382 3.45988 8.14646 3.71363C8.39924 3.96738 8.52563 4.2737 8.52563 4.63259C8.52563 4.99162 8.39875 5.29745 8.145 5.55009C7.89125 5.80273 7.58486 5.92905 7.22583 5.92905ZM5.83333 15.913L5.83333 11.9065L5 11.9065L5 8.18863C5 7.8053 5.13653 7.47711 5.40958 7.20405C5.6825 6.93099 6.01069 6.79447 6.39417 6.79447L8.06083 6.79447C8.44431 6.79447 8.7725 6.93099 9.04542 7.20405C9.31847 7.47711 9.455 7.8053 9.455 8.18863L9.455 11.9065L8.62167 11.9065L8.62167 15.913L5.83333 15.913Z"/>
    </symbol>
    <symbol id="persons_3_icon" viewBox="0 0 20 20">
      <path d="M10.6711 6.4144C10.3123 6.4144 10.0065 6.28753 9.75385 6.03378C9.50108 5.78003 9.37469 5.47371 9.37469 5.11482C9.37469 4.75579 9.50156 4.44996 9.75531 4.19732C10.0091 3.94468 10.3155 3.81836 10.6745 3.81836C11.0334 3.81836 11.3391 3.94523 11.5918 4.19898C11.8445 4.45273 11.9709 4.75905 11.9709 5.11794C11.9709 5.47697 11.8441 5.7828 11.5903 6.03544C11.3366 6.28808 11.0302 6.4144 10.6711 6.4144ZM9.27865 16.3984L9.27865 12.3919L8.44531 12.3919L8.44531 8.67398C8.44531 8.29065 8.58184 7.96246 8.8549 7.6894C9.12781 7.41635 9.45601 7.27982 9.83948 7.27982L11.5061 7.27982C11.8896 7.27982 12.2178 7.41635 12.4907 7.6894C12.7638 7.96246 12.9003 8.29065 12.9003 8.67398L12.9003 12.3919L12.067 12.3919L12.067 16.3984L9.27865 16.3984Z"/>
      <path d="M15.1107 9.70406C14.8422 9.70406 14.6134 9.62002 14.4244 9.45193C14.2353 9.28384 14.1407 9.08092 14.1407 8.84318C14.1407 8.60535 14.2356 8.40276 14.4255 8.23541C14.6153 8.06805 14.8446 7.98437 15.1132 7.98437C15.3818 7.98437 15.6105 8.06842 15.7996 8.23651C15.9887 8.4046 16.0833 8.60752 16.0833 8.84525C16.0833 9.08308 15.9883 9.28568 15.7985 9.45303C15.6086 9.62039 15.3794 9.70406 15.1107 9.70406ZM14.0688 16.3177L14.0688 13.6637L13.4453 13.6637L13.4453 11.2009C13.4453 10.9469 13.5475 10.7295 13.7518 10.5487C13.956 10.3678 14.2015 10.2773 14.4885 10.2773L15.7355 10.2773C16.0224 10.2773 16.268 10.3678 16.4722 10.5487C16.6765 10.7295 16.7786 10.9469 16.7786 11.2009L16.7786 13.6637L16.1551 13.6637L16.1551 16.3177L14.0688 16.3177Z"/>
      <path d="M5.67115 6.4144C5.31226 6.4144 5.00649 6.28753 4.75385 6.03378C4.50108 5.78003 4.37469 5.47371 4.37469 5.11482C4.37469 4.75579 4.50156 4.44996 4.75531 4.19732C5.00906 3.94468 5.31545 3.81836 5.67448 3.81836C6.03337 3.81836 6.33913 3.94523 6.59177 4.19898C6.84455 4.45273 6.97094 4.75905 6.97094 5.11794C6.97094 5.47697 6.84406 5.7828 6.59031 6.03544C6.33656 6.28808 6.03017 6.4144 5.67115 6.4144ZM4.27865 16.3984L4.27865 12.3919L3.44531 12.3919L3.44531 8.67398C3.44531 8.29065 3.58184 7.96246 3.8549 7.6894C4.12781 7.41635 4.45601 7.27982 4.83948 7.27982L6.50615 7.27982C6.88962 7.27982 7.21781 7.41635 7.49073 7.6894C7.76379 7.96246 7.90031 8.29065 7.90031 8.67398L7.90031 12.3919L7.06698 12.3919L7.06698 16.3984L4.27865 16.3984Z"/>
    </symbol>
    <symbol id="square_icon" viewBox="0 0 24 24">
      <path d="M11.3,5.3v4.5c0,0.4-0.2,0.8-0.4,1.1c-0.3,0.3-0.7,0.4-1.1,0.4H5.3c-0.4,0-0.8-0.2-1.1-0.4c-0.3-0.3-0.4-0.7-0.4-1.1V5.3c0-0.4,0.2-0.8,0.4-1.1s0.7-0.4,1.1-0.4h4.5c0.4,0,0.8,0.2,1.1,0.4C11.1,4.5,11.3,4.9,11.3,5.3z M18.8,3.8h-4.5c-0.4,0-0.8,0.2-1.1,0.4c-0.3,0.3-0.4,0.7-0.4,1.1v4.5c0,0.4,0.2,0.8,0.4,1.1c0.3,0.3,0.7,0.4,1.1,0.4h4.5c0.4,0,0.8-0.2,1.1-0.4c0.3-0.3,0.4-0.7,0.4-1.1V5.3c0-0.4-0.2-0.8-0.4-1.1S19.1,3.8,18.8,3.8z M9.8,12.8H5.3c-0.4,0-0.8,0.2-1.1,0.4c-0.3,0.3-0.4,0.7-0.4,1.1v4.5c0,0.4,0.2,0.8,0.4,1.1s0.7,0.4,1.1,0.4h4.5c0.4,0,0.8-0.2,1.1-0.4c0.3-0.3,0.4-0.7,0.4-1.1v-4.5c0-0.4-0.2-0.8-0.4-1.1C10.5,12.9,10.1,12.8,9.8,12.8z M18.8,12.8h-4.5c-0.4,0-0.8,0.2-1.1,0.4c-0.3,0.3-0.4,0.7-0.4,1.1v4.5c0,0.4,0.2,0.8,0.4,1.1c0.3,0.3,0.7,0.4,1.1,0.4h4.5c0.4,0,0.8-0.2,1.1-0.4s0.4-0.7,0.4-1.1v-4.5c0-0.4-0.2-0.8-0.4-1.1C19.5,12.9,19.1,12.8,18.8,12.8z"/>
    </symbol>
    <symbol id="food_icon" viewBox="0 0 24 24">
      <path d="M20.6,3.4v17.3c0,0.2-0.1,0.4-0.2,0.5c-0.1,0.1-0.3,0.2-0.5,0.2s-0.4-0.1-0.5-0.2c-0.1-0.1-0.2-0.3-0.2-0.5v-5h-2.3h-2c-0.2,0-0.5,0-0.8-0.2c-0.2-0.3-0.2-0.6-0.2-0.8c0-1.8,0.3-2.8,0.7-4.6c0.9-3.8,2.7-6.3,5-7.4c0.1,0,0.2-0.1,0.4-0.1c0.1,0,0.2,0.1,0.3,0.1c0.1,0.1,0.2,0.2,0.2,0.3C20.6,3.1,20.6,3.3,20.6,3.4z M11.6,3.3c0-0.1,0-0.2-0.1-0.3c-0.1-0.1-0.1-0.2-0.2-0.2c-0.1-0.1-0.2-0.1-0.3-0.1c-0.1,0-0.2,0-0.3,0c-0.1,0-0.2,0.1-0.3,0.1c-0.1,0.1-0.2,0.1-0.2,0.2c-0.1,0.1-0.1,0.2-0.1,0.3c0,0.1,0,0.2,0,0.3l0.7,4.4H8.6V3.4c0-0.2-0.1-0.4-0.2-0.5C8.3,2.7,8.1,2.6,7.9,2.6c-0.2,0-0.4,0.1-0.5,0.2C7.2,3,7.1,3.2,7.1,3.4v4.5H4.9l0.7-4.4c0-0.1,0-0.2,0-0.3c0-0.1-0.1-0.2-0.1-0.3C5.4,2.9,5.4,2.8,5.3,2.7C5.2,2.7,5.1,2.6,5,2.6c-0.1,0-0.2,0-0.3,0c-0.1,0-0.2,0.1-0.3,0.1C4.4,2.8,4.3,2.9,4.2,3C4.2,3.1,4.2,3.2,4.1,3.3L3.4,7.8c0,0,0,0.1,0,0.1c0,1.1,0.4,2.1,1.1,2.9c0.7,0.8,1.6,1.4,2.7,1.5v8.3c0,0.2,0.1,0.4,0.2,0.5c0.1,0.1,0.3,0.2,0.5,0.2c0.2,0,0.4-0.1,0.5-0.2c0.1-0.1,0.2-0.3,0.2-0.5v-8.3c1-0.2,2-0.7,2.7-1.5c0.7-0.8,1.1-1.8,1.1-2.9c0,0,0-0.1,0-0.1L11.6,3.3z"/>
    </symbol>
    <symbol id="map_pin_icon" viewBox="0 0 24 24">
      <path d="M12,1.5c-2.2,0-4.3,0.9-5.8,2.4S3.8,7.6,3.8,9.8c0,7.1,7.5,12.4,7.8,12.6c0.1,0.1,0.3,0.1,0.4,0.1s0.3,0,0.4-0.1c0.3-0.2,7.8-5.6,7.8-12.6c0-2.2-0.9-4.3-2.4-5.8S14.2,1.5,12,1.5z M12,6.8c0.6,0,1.2,0.2,1.7,0.5c0.5,0.3,0.9,0.8,1.1,1.3c0.2,0.5,0.3,1.2,0.2,1.7c-0.1,0.6-0.4,1.1-0.8,1.5c-0.4,0.4-1,0.7-1.5,0.8c-0.6,0.1-1.2,0.1-1.7-0.2c-0.5-0.2-1-0.6-1.3-1.1C9.2,10.9,9,10.3,9,9.8C9,9,9.3,8.2,9.9,7.6C10.4,7.1,11.2,6.8,12,6.8z"/>
    </symbol>
    <symbol id="tg_2_icon" viewBox="0 0 40 40">
      <path d="M19.9996 1.59961C30.162 1.59961 38.3996 9.83721 38.3996 19.9996C38.3996 30.162 30.162 38.3996 19.9996 38.3996C9.83721 38.3996 1.59961 30.162 1.59961 19.9996C1.59961 9.83721 9.83721 1.59961 19.9996 1.59961ZM26.3468 27.4996C26.6852 26.4612 28.2708 16.1124 28.4668 14.0732C28.526 13.4556 28.3308 13.0452 27.9484 12.862C27.486 12.6396 26.8012 12.7508 26.0068 13.0372C24.9172 13.43 10.9876 19.3444 10.1828 19.6868C9.41961 20.0108 8.69801 20.3644 8.69801 20.8764C8.69801 21.2364 8.91161 21.4388 9.50041 21.6492C10.1132 21.8676 11.6564 22.3356 12.5676 22.5868C13.4452 22.8292 14.4444 22.6188 15.0044 22.2708C15.598 21.902 22.4484 17.318 22.9404 16.9164C23.4316 16.5148 23.8236 17.0292 23.422 17.4316C23.0204 17.8332 18.318 22.3972 17.698 23.0292C16.9452 23.7964 17.4796 24.5916 17.9844 24.91C18.5612 25.2732 22.7092 28.0556 23.334 28.502C23.9588 28.9484 24.5924 29.1508 25.1724 29.1508C25.7524 29.1508 26.058 28.3868 26.3468 27.4996Z"/>
    </symbol>
    <symbol id="wa_2_icon" viewBox="0 0 40 40">
      <path d="M17.9,2.5C6.7,3.6-1.6,16.5,4.3,28.2c0.3,0.6,0.4,1.2,0.2,1.8c-0.5,1.5-1.1,3-1.6,4.5c-0.6,1.6,0.9,3.2,2.5,2.6c0.3-0.1,0.7-0.2,1-0.3c1.5-0.5,3.5-1.6,5-1.5c1.1,0.1,2.2,1,3.1,1.3c12.2,3.8,23.1-5.6,23.1-16.8C37.6,9.3,28.7,1.5,17.9,2.5z M24.2,28.8c-4.8-0.2-11.3-6.3-12.9-10.7c-0.9-2.6,0.1-7.7,4.2-6.5c1,2.2,2.6,5.4,0,6.8c1.3,2.8,3.6,4.8,6.5,6.1c1-0.6,1.6-1.6,2.4-2.4c1.7,0.7,3.3,1.4,4.6,2.4C29.2,27.7,26.5,28.9,24.2,28.8z"/>
    </symbol>
    <symbol id="close_icon" viewBox="0 0 32 32">
      <path d="M25.7081 24.2931C25.801 24.386 25.8747 24.4963 25.9249 24.6177C25.9752 24.7391 26.0011 24.8692 26.0011 25.0006C26.0011 25.132 25.9752 25.2621 25.9249 25.3835C25.8747 25.5048 25.801 25.6151 25.7081 25.7081C25.6151 25.801 25.5048 25.8747 25.3835 25.9249C25.2621 25.9752 25.132 26.0011 25.0006 26.0011C24.8692 26.0011 24.7391 25.9752 24.6177 25.9249C24.4963 25.8747 24.386 25.801 24.2931 25.7081L16.0006 17.4143L7.70806 25.7081C7.52042 25.8957 7.26592 26.0011 7.00056 26.0011C6.73519 26.0011 6.4807 25.8957 6.29306 25.7081C6.10542 25.5204 6 25.2659 6 25.0006C6 24.7352 6.10542 24.4807 6.29306 24.2931L14.5868 16.0006L6.29306 7.70806C6.10542 7.52042 6 7.26592 6 7.00056C6 6.73519 6.10542 6.4807 6.29306 6.29306C6.4807 6.10542 6.73519 6 7.00056 6C7.26592 6 7.52042 6.10542 7.70806 6.29306L16.0006 14.5868L24.2931 6.29306C24.4807 6.10542 24.7352 6 25.0006 6C25.2659 6 25.5204 6.10542 25.7081 6.29306C25.8957 6.4807 26.0011 6.73519 26.0011 7.00056C26.0011 7.26592 25.8957 7.52042 25.7081 7.70806L17.4143 16.0006L25.7081 24.2931Z"/>
    </symbol>
    <symbol id="pager_arrow_left" viewBox="0 0 14 14">
      <path d="M9.89846 2.98381V1.92698C9.89846 1.83538 9.79318 1.78479 9.72209 1.84085L3.55881 6.65471C3.50644 6.69544 3.46407 6.74758 3.43492 6.80717C3.40578 6.86676 3.39062 6.93222 3.39062 6.99856C3.39062 7.0649 3.40578 7.13036 3.43492 7.18995C3.46407 7.24954 3.50644 7.30168 3.55881 7.34241L9.72209 12.1563C9.79455 12.2123 9.89846 12.1617 9.89846 12.0701V11.0133C9.89846 10.9463 9.86701 10.8821 9.81506 10.841L4.89318 6.99924L9.81506 3.15608C9.86701 3.11506 9.89846 3.05081 9.89846 2.98381Z"/>
    </symbol>
    <symbol id="pager_arrow_right" viewBox="0 0 14 14">
      <path d="M10.4685 6.65558L4.30527 1.84171C4.28917 1.82903 4.26981 1.82115 4.24943 1.81897C4.22905 1.8168 4.20847 1.82042 4.19005 1.82941C4.17164 1.83841 4.15613 1.85241 4.14531 1.86982C4.1345 1.88724 4.12881 1.90734 4.12891 1.92784V2.98468C4.12891 3.05167 4.16035 3.11593 4.21231 3.15694L9.13417 7.00011L4.21231 10.8433C4.15899 10.8843 4.12891 10.9485 4.12891 11.0155V12.0724C4.12891 12.164 4.23418 12.2146 4.30527 12.1585L10.4685 7.34464C10.5209 7.30378 10.5633 7.25151 10.5924 7.19181C10.6216 7.13211 10.6367 7.06654 10.6367 7.00011C10.6367 6.93367 10.6216 6.86811 10.5924 6.80841C10.5633 6.74871 10.5209 6.69644 10.4685 6.65558Z"/>
    </symbol>
    <symbol id="chevron_right" viewBox="0 0 24 24">
      <path d="M17.031 12.5306L9.53104 20.0306C9.46136 20.1002 9.37863 20.1555 9.28759 20.1932C9.19654 20.2309 9.09896 20.2503 9.00042 20.2503C8.90187 20.2503 8.80429 20.2309 8.71324 20.1932C8.6222 20.1555 8.53947 20.1002 8.46979 20.0306C8.40011 19.9609 8.34483 19.8781 8.30712 19.7871C8.26941 19.6961 8.25 19.5985 8.25 19.4999C8.25 19.4014 8.26941 19.3038 8.30712 19.2128C8.34483 19.1217 8.40011 19.039 8.46979 18.9693L15.4401 11.9999L8.46979 5.03055C8.32906 4.88982 8.25 4.69895 8.25 4.49993C8.25 4.30091 8.32906 4.11003 8.46979 3.9693C8.61052 3.82857 8.80139 3.74951 9.00042 3.74951C9.19944 3.74951 9.39031 3.82857 9.53104 3.9693L17.031 11.4693C17.1008 11.539 17.1561 11.6217 17.1938 11.7127C17.2316 11.8038 17.251 11.9014 17.251 11.9999C17.251 12.0985 17.2316 12.1961 17.1938 12.2871C17.1561 12.3782 17.1008 12.4609 17.031 12.5306Z"/>
    </symbol>
    <symbol id="chevron_left" viewBox="0 0 24 24">
      <path d="M6.96896 12.5306L14.469 20.0306C14.5386 20.1002 14.6214 20.1555 14.7124 20.1932C14.8035 20.2309 14.901 20.2503 14.9996 20.2503C15.0981 20.2503 15.1957 20.2309 15.2868 20.1932C15.3778 20.1555 15.4605 20.1002 15.5302 20.0306C15.5999 19.9609 15.6552 19.8781 15.6929 19.7871C15.7306 19.6961 15.75 19.5985 15.75 19.4999C15.75 19.4014 15.7306 19.3038 15.6929 19.2128C15.6552 19.1217 15.5999 19.039 15.5302 18.9693L8.5599 11.9999L15.5302 5.03055C15.6709 4.88982 15.75 4.69895 15.75 4.49993C15.75 4.30091 15.6709 4.11003 15.5302 3.9693C15.3895 3.82857 15.1986 3.74951 14.9996 3.74951C14.8006 3.74951 14.6097 3.82857 14.469 3.9693L6.96896 11.4693C6.89923 11.539 6.84391 11.6217 6.80616 11.7127C6.76842 11.8038 6.74899 11.9014 6.74899 11.9999C6.74899 12.0985 6.76842 12.1961 6.80616 12.2871C6.84391 12.3782 6.89923 12.4609 6.96896 12.5306Z"/>
    </symbol>
    <symbol id="calendar_icon" viewBox="0 0 24 24">
      <path d="M19.5 3.10742H17.25V2.35742C17.25 2.15851 17.171 1.96774 17.0303 1.82709C16.8897 1.68644 16.6989 1.60742 16.5 1.60742C16.3011 1.60742 16.1103 1.68644 15.9697 1.82709C15.829 1.96774 15.75 2.15851 15.75 2.35742V3.10742H8.25V2.35742C8.25 2.15851 8.17098 1.96774 8.03033 1.82709C7.88968 1.68644 7.69891 1.60742 7.5 1.60742C7.30109 1.60742 7.11032 1.68644 6.96967 1.82709C6.82902 1.96774 6.75 2.15851 6.75 2.35742V3.10742H4.5C4.10218 3.10742 3.72064 3.26546 3.43934 3.54676C3.15804 3.82807 3 4.2096 3 4.60742V19.6074C3 20.0052 3.15804 20.3868 3.43934 20.6681C3.72064 20.9494 4.10218 21.1074 4.5 21.1074H19.5C19.8978 21.1074 20.2794 20.9494 20.5607 20.6681C20.842 20.3868 21 20.0052 21 19.6074V4.60742C21 4.2096 20.842 3.82807 20.5607 3.54676C20.2794 3.26546 19.8978 3.10742 19.5 3.10742ZM7.875 17.3574C7.6525 17.3574 7.43499 17.2914 7.24998 17.1678C7.06498 17.0442 6.92078 16.8685 6.83564 16.6629C6.75049 16.4574 6.72821 16.2312 6.77162 16.0129C6.81502 15.7947 6.92217 15.5943 7.0795 15.4369C7.23684 15.2796 7.43729 15.1724 7.65552 15.129C7.87375 15.0856 8.09995 15.1079 8.30552 15.1931C8.51109 15.2782 8.68679 15.4224 8.8104 15.6074C8.93402 15.7924 9 16.0099 9 16.2324C9 16.5308 8.88147 16.8169 8.6705 17.0279C8.45952 17.2389 8.17337 17.3574 7.875 17.3574ZM12 17.3574C11.7775 17.3574 11.56 17.2914 11.375 17.1678C11.19 17.0442 11.0458 16.8685 10.9606 16.6629C10.8755 16.4574 10.8532 16.2312 10.8966 16.0129C10.94 15.7947 11.0472 15.5943 11.2045 15.4369C11.3618 15.2796 11.5623 15.1724 11.7805 15.129C11.9988 15.0856 12.225 15.1079 12.4305 15.1931C12.6361 15.2782 12.8118 15.4224 12.9354 15.6074C13.059 15.7924 13.125 16.0099 13.125 16.2324C13.125 16.5308 13.0065 16.8169 12.7955 17.0279C12.5845 17.2389 12.2984 17.3574 12 17.3574ZM12 13.6074C11.7775 13.6074 11.56 13.5414 11.375 13.4178C11.19 13.2942 11.0458 13.1185 10.9606 12.9129C10.8755 12.7074 10.8532 12.4812 10.8966 12.2629C10.94 12.0447 11.0472 11.8443 11.2045 11.6869C11.3618 11.5296 11.5623 11.4224 11.7805 11.379C11.9988 11.3356 12.225 11.3579 12.4305 11.4431C12.6361 11.5282 12.8118 11.6724 12.9354 11.8574C13.059 12.0424 13.125 12.2599 13.125 12.4824C13.125 12.7808 13.0065 13.0669 12.7955 13.2779C12.5845 13.4889 12.2984 13.6074 12 13.6074ZM16.125 17.3574C15.9025 17.3574 15.685 17.2914 15.5 17.1678C15.315 17.0442 15.1708 16.8685 15.0856 16.6629C15.0005 16.4574 14.9782 16.2312 15.0216 16.0129C15.065 15.7947 15.1722 15.5943 15.3295 15.4369C15.4868 15.2796 15.6873 15.1724 15.9055 15.129C16.1238 15.0856 16.35 15.1079 16.5555 15.1931C16.7611 15.2782 16.9368 15.4224 17.0604 15.6074C17.184 15.7924 17.25 16.0099 17.25 16.2324C17.25 16.5308 17.1315 16.8169 16.9205 17.0279C16.7095 17.2389 16.4234 17.3574 16.125 17.3574ZM16.125 13.6074C15.9025 13.6074 15.685 13.5414 15.5 13.4178C15.315 13.2942 15.1708 13.1185 15.0856 12.9129C15.0005 12.7074 14.9782 12.4812 15.0216 12.2629C15.065 12.0447 15.1722 11.8443 15.3295 11.6869C15.4868 11.5296 15.6873 11.4224 15.9055 11.379C16.1238 11.3356 16.35 11.3579 16.5555 11.4431C16.7611 11.5282 16.9368 11.6724 17.0604 11.8574C17.184 12.0424 17.25 12.2599 17.25 12.4824C17.25 12.7808 17.1315 13.0669 16.9205 13.2779C16.7095 13.4889 16.4234 13.6074 16.125 13.6074ZM19.5 7.60742H4.5V4.60742H6.75V5.35742C6.75 5.55633 6.82902 5.7471 6.96967 5.88775C7.11032 6.0284 7.30109 6.10742 7.5 6.10742C7.69891 6.10742 7.88968 6.0284 8.03033 5.88775C8.17098 5.7471 8.25 5.55633 8.25 5.35742V4.60742H15.75V5.35742C15.75 5.55633 15.829 5.7471 15.9697 5.88775C16.1103 6.0284 16.3011 6.10742 16.5 6.10742C16.6989 6.10742 16.8897 6.0284 17.0303 5.88775C17.171 5.7471 17.25 5.55633 17.25 5.35742V4.60742H19.5V7.60742Z"/>
    </symbol>
    <symbol id="time_icon" viewBox="0 0 24 24">
      <path d="M12 2.25C10.0716 2.25 8.18657 2.82183 6.58319 3.89317C4.97982 4.96451 3.73013 6.48726 2.99218 8.26884C2.25422 10.0504 2.06114 12.0108 2.43735 13.9021C2.81355 15.7934 3.74215 17.5307 5.10571 18.8943C6.46928 20.2579 8.20656 21.1865 10.0979 21.5627C11.9892 21.9389 13.9496 21.7458 15.7312 21.0078C17.5127 20.2699 19.0355 19.0202 20.1068 17.4168C21.1782 15.8134 21.75 13.9284 21.75 12C21.7473 9.41498 20.7192 6.93661 18.8913 5.10872C17.0634 3.28084 14.585 2.25273 12 2.25ZM17.25 12.75H12C11.8011 12.75 11.6103 12.671 11.4697 12.5303C11.329 12.3897 11.25 12.1989 11.25 12V6.75C11.25 6.55109 11.329 6.36032 11.4697 6.21967C11.6103 6.07902 11.8011 6 12 6C12.1989 6 12.3897 6.07902 12.5303 6.21967C12.671 6.36032 12.75 6.55109 12.75 6.75V11.25H17.25C17.4489 11.25 17.6397 11.329 17.7803 11.4697C17.921 11.6103 18 11.8011 18 12C18 12.1989 17.921 12.3897 17.7803 12.5303C17.6397 12.671 17.4489 12.75 17.25 12.75Z"/>
    </symbol>
    <symbol id="bike_icon" viewBox="0 0 24 24">
      <path d="M5.10657 15.4416L7.71939 11.8594C8.50674 12.6676 8.96175 13.7421 8.99424 14.8699C9.02673 15.9978 8.63434 17.0967 7.89482 17.9489C7.15529 18.8011 6.12262 19.3443 5.00143 19.4711C3.88024 19.5978 2.75236 19.2986 1.84131 18.633C0.930263 17.9673 0.302524 16.9837 0.0824955 15.877C-0.137533 14.7704 0.0662079 13.6214 0.653342 12.6579C1.24048 11.6944 2.16815 10.9866 3.25254 10.6748C4.33692 10.3629 5.49888 10.4699 6.50814 10.9744L3.89532 14.5584C3.83303 14.6377 3.78735 14.7286 3.761 14.8259C3.73465 14.9232 3.72818 15.0248 3.74197 15.1246C3.75576 15.2244 3.78953 15.3205 3.84126 15.407C3.89299 15.4935 3.96162 15.5686 4.04306 15.628C4.12449 15.6874 4.21706 15.7297 4.31523 15.7525C4.4134 15.7753 4.51516 15.7781 4.61443 15.7607C4.7137 15.7433 4.80844 15.7061 4.893 15.6513C4.97756 15.5964 5.05019 15.5251 5.10657 15.4416ZM19.5009 10.5C18.9587 10.4998 18.4209 10.5979 17.9138 10.7897L20.1488 14.625C20.2056 14.7103 20.2443 14.8063 20.2625 14.9071C20.2808 15.0079 20.2782 15.1114 20.2549 15.2112C20.2316 15.3109 20.1881 15.4049 20.1271 15.4872C20.0661 15.5695 19.9889 15.6385 19.9003 15.6898C19.8116 15.7411 19.7133 15.7738 19.6116 15.7857C19.5098 15.7975 19.4067 15.7885 19.3086 15.759C19.2105 15.7295 19.1194 15.6802 19.0411 15.6141C18.9628 15.5481 18.8988 15.4667 18.8531 15.375L16.6191 11.5444C15.8062 12.2224 15.2584 13.1653 15.0719 14.2073C14.8855 15.2493 15.0723 16.3237 15.5996 17.2416C16.1269 18.1595 16.9609 18.8621 17.955 19.2259C18.949 19.5897 20.0395 19.5914 21.0347 19.2308C22.03 18.8701 22.8662 18.1701 23.3964 17.2539C23.9266 16.3377 24.1168 15.264 23.9337 14.2214C23.7505 13.1788 23.2057 12.2341 22.3949 11.5535C21.5842 10.8729 20.5595 10.4999 19.5009 10.5ZM15.5569 6.75H18.0009C18.1999 6.75 18.3906 6.82902 18.5313 6.96967C18.6719 7.11032 18.7509 7.30109 18.7509 7.5C18.7509 7.69891 18.83 7.88968 18.9706 8.03033C19.1113 8.17098 19.302 8.25 19.5009 8.25C19.6999 8.25 19.8906 8.17098 20.0313 8.03033C20.1719 7.88968 20.2509 7.69891 20.2509 7.5C20.2509 6.90326 20.0139 6.33097 19.5919 5.90901C19.17 5.48705 18.5977 5.25 18.0009 5.25H14.2509C14.1194 5.2503 13.9903 5.28517 13.8765 5.35112C13.7628 5.41707 13.6683 5.51177 13.6027 5.62574C13.5371 5.7397 13.5026 5.86892 13.5027 6.00043C13.5027 6.13193 13.5374 6.26111 13.6031 6.375L14.6953 8.25H9.30657L7.77376 5.625C7.70808 5.51124 7.61367 5.41672 7.49998 5.35091C7.38629 5.2851 7.25731 5.2503 7.12595 5.25H4.50095C4.30204 5.25 4.11127 5.32902 3.97062 5.46967C3.82997 5.61032 3.75095 5.80109 3.75095 6C3.75095 6.19891 3.82997 6.38968 3.97062 6.53033C4.11127 6.67098 4.30204 6.75 4.50095 6.75H6.69564L7.98095 8.95406L6.50814 10.9744C6.95868 11.1993 7.36815 11.4985 7.71939 11.8594L8.80595 10.3687L11.7281 15.375C11.7738 15.4667 11.8378 15.5481 11.9161 15.6141C11.9944 15.6802 12.0855 15.7295 12.1836 15.759C12.2817 15.7885 12.3848 15.7975 12.4866 15.7857C12.5883 15.7738 12.6866 15.7411 12.7753 15.6898C12.8639 15.6385 12.9411 15.5695 13.0021 15.4872C13.0631 15.4049 13.1066 15.3109 13.1299 15.2112C13.1532 15.1114 13.1558 15.0079 13.1375 14.9071C13.1193 14.8063 13.0806 14.7103 13.0238 14.625L10.1813 9.75H15.57L16.6191 11.5472C17.0053 11.2242 17.4429 10.9682 17.9138 10.7897L15.5569 6.75Z"/>
    </symbol>
    <symbol id="calendar_2_icon" viewBox="0 0 24 24">
      <path d="M19.5 3H17.25V2.25C17.25 2.05109 17.171 1.86032 17.0303 1.71967C16.8897 1.57902 16.6989 1.5 16.5 1.5C16.3011 1.5 16.1103 1.57902 15.9697 1.71967C15.829 1.86032 15.75 2.05109 15.75 2.25V3H8.25V2.25C8.25 2.05109 8.17098 1.86032 8.03033 1.71967C7.88968 1.57902 7.69891 1.5 7.5 1.5C7.30109 1.5 7.11032 1.57902 6.96967 1.71967C6.82902 1.86032 6.75 2.05109 6.75 2.25V3H4.5C4.10218 3 3.72064 3.15804 3.43934 3.43934C3.15804 3.72064 3 4.10218 3 4.5V19.5C3 19.8978 3.15804 20.2794 3.43934 20.5607C3.72064 20.842 4.10218 21 4.5 21H19.5C19.8978 21 20.2794 20.842 20.5607 20.5607C20.842 20.2794 21 19.8978 21 19.5V4.5C21 4.10218 20.842 3.72064 20.5607 3.43934C20.2794 3.15804 19.8978 3 19.5 3ZM15.9056 12.5306L11.4056 17.0306C11.336 17.1004 11.2533 17.1557 11.1622 17.1934C11.0712 17.2312 10.9736 17.2506 10.875 17.2506C10.7764 17.2506 10.6788 17.2312 10.5878 17.1934C10.4967 17.1557 10.414 17.1004 10.3444 17.0306L8.09437 14.7806C7.95364 14.6399 7.87458 14.449 7.87458 14.25C7.87458 14.051 7.95364 13.8601 8.09437 13.7194C8.23511 13.5786 8.42598 13.4996 8.625 13.4996C8.82402 13.4996 9.01489 13.5786 9.15563 13.7194L10.875 15.4397L14.8444 11.4694C14.9141 11.3997 14.9968 11.3444 15.0878 11.3067C15.1789 11.269 15.2765 11.2496 15.375 11.2496C15.4735 11.2496 15.5711 11.269 15.6622 11.3067C15.7532 11.3444 15.8359 11.3997 15.9056 11.4694C15.9753 11.5391 16.0306 11.6218 16.0683 11.7128C16.106 11.8039 16.1254 11.9015 16.1254 12C16.1254 12.0985 16.106 12.1961 16.0683 12.2872C16.0306 12.3782 15.9753 12.4609 15.9056 12.5306ZM4.5 7.5V4.5H6.75V5.25C6.75 5.44891 6.82902 5.63968 6.96967 5.78033C7.11032 5.92098 7.30109 6 7.5 6C7.69891 6 7.88968 5.92098 8.03033 5.78033C8.17098 5.63968 8.25 5.44891 8.25 5.25V4.5H15.75V5.25C15.75 5.44891 15.829 5.63968 15.9697 5.78033C16.1103 5.92098 16.3011 6 16.5 6C16.6989 6 16.8897 5.92098 17.0303 5.78033C17.171 5.63968 17.25 5.44891 17.25 5.25V4.5H19.5V7.5H4.5Z"/>
    </symbol>
    <symbol id="star_icon" viewBox="0 0 24 24">
      <path d="M21.9666 10.7671L17.7478 14.4074L19.0331 19.8515C19.1041 20.147 19.0858 20.4569 18.9807 20.7421C18.8755 21.0272 18.6882 21.2748 18.4425 21.4536C18.1967 21.6324 17.9034 21.7343 17.5997 21.7465C17.2961 21.7587 16.9956 21.6806 16.7363 21.5221L12.0019 18.6083L7.26471 21.5221C7.00542 21.6797 6.7053 21.757 6.40215 21.7444C6.099 21.7318 5.80636 21.6297 5.56108 21.4511C5.31581 21.2725 5.12887 21.0253 5.02381 20.7406C4.91874 20.456 4.90024 20.1466 4.97064 19.8515L6.26064 14.4074L2.04189 10.7671C1.81249 10.5688 1.64657 10.3074 1.56488 10.0154C1.48318 9.72336 1.48932 9.41376 1.58253 9.12522C1.67574 8.83669 1.85189 8.58201 2.08898 8.39299C2.32607 8.20397 2.6136 8.08899 2.91564 8.06241L8.44689 7.61616L10.5806 2.45241C10.6961 2.17099 10.8927 1.93027 11.1454 1.76085C11.398 1.59143 11.6954 1.50098 11.9996 1.50098C12.3037 1.50098 12.6011 1.59143 12.8537 1.76085C13.1064 1.93027 13.303 2.17099 13.4185 2.45241L15.5513 7.61616L21.0825 8.06241C21.3852 8.088 21.6735 8.20234 21.9115 8.3911C22.1494 8.57986 22.3264 8.83464 22.4202 9.12352C22.514 9.41241 22.5204 9.72254 22.4387 10.0151C22.357 10.3076 22.1908 10.5695 21.961 10.768L21.9666 10.7671Z"/>
    </symbol>
</svg>
