<svg width="40" height="40" viewBox="0 0 40 40" fill="none" xmlns="http://www.w3.org/2000/svg">
<rect x="0.5" y="0.5" width="39" height="39" rx="19.5" stroke="black"/>
<path d="M30.2667 17.84H28.0667C28.0667 17.6385 27.9894 17.4451 27.8519 17.3026C27.7144 17.1601 27.5278 17.08 27.3333 17.08H20.7333C20.5388 17.08 20.3523 17.1601 20.2148 17.3026C20.0773 17.4451 20 17.6385 20 17.84H14.1333V13.66C14.1333 13.3577 14.2492 13.0677 14.4555 12.8539C14.6618 12.6401 14.9416 12.52 15.2333 12.52C15.4911 12.5189 15.7417 12.6084 15.9441 12.7739C16.1466 12.9393 16.2889 13.171 16.348 13.4311C16.3883 13.6269 16.5015 13.7984 16.6631 13.9082C16.8247 14.018 17.0216 14.0573 17.211 14.0175C17.4004 13.9777 17.5669 13.862 17.6745 13.6956C17.782 13.5293 17.8219 13.3256 17.7853 13.129C17.6608 12.5242 17.3391 11.9824 16.8743 11.5946C16.4095 11.2069 15.83 10.9969 15.2333 11C14.5526 11 13.8998 11.2803 13.4184 11.7791C12.9371 12.278 12.6667 12.9546 12.6667 13.66V17.84H9.73333C9.53884 17.84 9.35232 17.9201 9.21479 18.0626C9.07726 18.2051 9 18.3985 9 18.6V22.4C9.00146 23.8105 9.54276 25.1628 10.5051 26.1601C11.4675 27.1575 12.7723 27.7185 14.1333 27.72V29.24C14.1333 29.4416 14.2106 29.6349 14.3481 29.7774C14.4856 29.9199 14.6722 30 14.8667 30C15.0612 30 15.2477 29.9199 15.3852 29.7774C15.5227 29.6349 15.6 29.4416 15.6 29.24V27.72H24.4V29.24C24.4 29.4416 24.4773 29.6349 24.6148 29.7774C24.7523 29.9199 24.9388 30 25.1333 30C25.3278 30 25.5144 29.9199 25.6519 29.7774C25.7894 29.6349 25.8667 29.4416 25.8667 29.24V27.72C27.2277 27.7185 28.5325 27.1575 29.4949 26.1601C30.4572 25.1628 30.9985 23.8105 31 22.4V18.6C31 18.3985 30.9227 18.2051 30.7852 18.0626C30.6477 17.9201 30.4612 17.84 30.2667 17.84ZM26.6 18.6V22.4H21.4667V18.6H26.6Z" fill="black"/>
</svg>
