<svg width="40" height="40" viewBox="0 0 40 40" fill="none" xmlns="http://www.w3.org/2000/svg">
<rect x="0.5" y="0.5" width="39" height="39" rx="19.5" stroke="black"/>
<path d="M27.5 11H12.5C12.1022 11 11.7206 11.158 11.4393 11.4393C11.158 11.7206 11 12.1022 11 12.5V27.5C11 27.8978 11.158 28.2794 11.4393 28.5607C11.7206 28.842 12.1022 29 12.5 29H27.5C27.8978 29 28.2794 28.842 28.5607 28.5607C28.842 28.2794 29 27.8978 29 27.5V12.5C29 12.1022 28.842 11.7206 28.5607 11.4393C28.2794 11.158 27.8978 11 27.5 11ZM20 25.25C18.9616 25.25 17.9466 24.9421 17.0833 24.3652C16.2199 23.7883 15.547 22.9684 15.1496 22.0091C14.7523 21.0498 14.6483 19.9942 14.8509 18.9758C15.0535 17.9574 15.5535 17.0219 16.2877 16.2877C17.0219 15.5535 17.9574 15.0535 18.9758 14.8509C19.9942 14.6483 21.0498 14.7523 22.0091 15.1496C22.9684 15.547 23.7883 16.2199 24.3652 17.0833C24.9421 17.9466 25.25 18.9616 25.25 20C25.25 21.3924 24.6969 22.7277 23.7123 23.7123C22.7277 24.6969 21.3924 25.25 20 25.25ZM25.625 15.5C25.4025 15.5 25.185 15.434 25 15.3104C24.815 15.1868 24.6708 15.0111 24.5856 14.8055C24.5005 14.6 24.4782 14.3738 24.5216 14.1555C24.565 13.9373 24.6722 13.7368 24.8295 13.5795C24.9868 13.4222 25.1873 13.315 25.4055 13.2716C25.6238 13.2282 25.85 13.2505 26.0555 13.3356C26.2611 13.4208 26.4368 13.565 26.5604 13.75C26.684 13.935 26.75 14.1525 26.75 14.375C26.75 14.6734 26.6315 14.9595 26.4205 15.1705C26.2095 15.3815 25.9234 15.5 25.625 15.5ZM20.5306 18.2806L17.5306 21.2806C17.4609 21.3503 17.3782 21.4056 17.2872 21.4433C17.1961 21.481 17.0985 21.5004 17 21.5004C16.9015 21.5004 16.8039 21.481 16.7128 21.4433C16.6218 21.4056 16.5391 21.3503 16.4694 21.2806C16.3997 21.2109 16.3444 21.1282 16.3067 21.0372C16.269 20.9461 16.2496 20.8485 16.2496 20.75C16.2496 20.6515 16.269 20.5539 16.3067 20.4628C16.3444 20.3718 16.3997 20.2891 16.4694 20.2194L19.4694 17.2194C19.6101 17.0786 19.801 16.9996 20 16.9996C20.199 16.9996 20.3899 17.0786 20.5306 17.2194C20.6714 17.3601 20.7504 17.551 20.7504 17.75C20.7504 17.949 20.6714 18.1399 20.5306 18.2806ZM23.5306 17.9694C23.6004 18.039 23.6557 18.1217 23.6934 18.2128C23.7312 18.3038 23.7506 18.4014 23.7506 18.5C23.7506 18.5986 23.7312 18.6962 23.6934 18.7872C23.6557 18.8783 23.6004 18.961 23.5306 19.0306L19.0306 23.5306C18.9609 23.6003 18.8782 23.6556 18.7872 23.6933C18.6961 23.731 18.5985 23.7504 18.5 23.7504C18.4015 23.7504 18.3039 23.731 18.2128 23.6933C18.1218 23.6556 18.0391 23.6003 17.9694 23.5306C17.8997 23.4609 17.8444 23.3782 17.8067 23.2872C17.769 23.1961 17.7496 23.0985 17.7496 23C17.7496 22.9015 17.769 22.8039 17.8067 22.7128C17.8444 22.6218 17.8997 22.5391 17.9694 22.4694L22.4694 17.9694C22.539 17.8996 22.6217 17.8443 22.7128 17.8066C22.8038 17.7688 22.9014 17.7494 23 17.7494C23.0986 17.7494 23.1962 17.7688 23.2872 17.8066C23.3783 17.8443 23.461 17.8996 23.5306 17.9694Z" fill="black"/>
</svg>
