<svg width="40" height="40" viewBox="0 0 40 40" fill="none" xmlns="http://www.w3.org/2000/svg">
<rect x="0.5" y="0.5" width="39" height="39" rx="19.5" stroke="black"/>
<path d="M14 30.125C14 30.3475 13.934 30.565 13.8104 30.75C13.6868 30.935 13.5111 31.0792 13.3055 31.1644C13.1 31.2495 12.8738 31.2718 12.6555 31.2284C12.4373 31.185 12.2368 31.0778 12.0795 30.9205C11.9222 30.7632 11.815 30.5627 11.7716 30.3445C11.7282 30.1262 11.7505 29.9 11.8356 29.6945C11.9208 29.4889 12.065 29.3132 12.25 29.1896C12.435 29.066 12.6525 29 12.875 29C13.1734 29 13.4595 29.1185 13.6705 29.3295C13.8815 29.5405 14 29.8266 14 30.125ZM15.875 26C15.6525 26 15.435 26.066 15.25 26.1896C15.065 26.3132 14.9208 26.4889 14.8356 26.6945C14.7505 26.9 14.7282 27.1262 14.7716 27.3445C14.815 27.5627 14.9222 27.7632 15.0795 27.9205C15.2368 28.0778 15.4373 28.185 15.6555 28.2284C15.8738 28.2718 16.1 28.2495 16.3055 28.1644C16.5111 28.0792 16.6868 27.935 16.8104 27.75C16.934 27.565 17 27.3475 17 27.125C17 26.8266 16.8815 26.5405 16.6705 26.3295C16.4595 26.1185 16.1734 26 15.875 26ZM9.875 26C9.6525 26 9.43499 26.066 9.24998 26.1896C9.06498 26.3132 8.92078 26.4889 8.83564 26.6945C8.75049 26.9 8.72821 27.1262 8.77162 27.3445C8.81503 27.5627 8.92217 27.7632 9.07951 27.9205C9.23684 28.0778 9.4373 28.185 9.65552 28.2284C9.87375 28.2718 10.1 28.2495 10.3055 28.1644C10.5111 28.0792 10.6868 27.935 10.8104 27.75C10.934 27.565 11 27.3475 11 27.125C11 26.8266 10.8815 26.5405 10.6705 26.3295C10.4595 26.1185 10.1734 26 9.875 26ZM12.875 23C12.6525 23 12.435 23.066 12.25 23.1896C12.065 23.3132 11.9208 23.4889 11.8356 23.6945C11.7505 23.9 11.7282 24.1262 11.7716 24.3445C11.815 24.5627 11.9222 24.7632 12.0795 24.9205C12.2368 25.0778 12.4373 25.185 12.6555 25.2284C12.8738 25.2718 13.1 25.2495 13.3055 25.1644C13.5111 25.0792 13.6868 24.935 13.8104 24.75C13.934 24.565 14 24.3475 14 24.125C14 23.8266 13.8815 23.5405 13.6705 23.3295C13.4595 23.1185 13.1734 23 12.875 23ZM31.25 11H28.25C28.1515 10.9999 28.0539 11.0193 27.9629 11.0569C27.8718 11.0945 27.7891 11.1497 27.7194 11.2194L24.8881 14.0506L13.0044 16.0803C12.7324 16.1255 12.4781 16.2447 12.2695 16.425C12.0609 16.6052 11.9059 16.8395 11.8218 17.102C11.7376 17.3646 11.7274 17.6452 11.7923 17.9132C11.8572 18.1811 11.9947 18.426 12.1897 18.6209L21.3772 27.8084C21.5719 28.0031 21.8165 28.1405 22.0842 28.2054C22.3518 28.2703 22.6321 28.2602 22.8944 28.1764C23.1567 28.0925 23.3909 27.9381 23.5712 27.73C23.7516 27.5219 23.8712 27.2681 23.9169 26.9966L25.9494 15.1119L28.5603 12.5H31.25C31.4489 12.5 31.6397 12.421 31.7803 12.2803C31.921 12.1397 32 11.9489 32 11.75C32 11.5511 31.921 11.3603 31.7803 11.2197C31.6397 11.079 31.4489 11 31.25 11Z" fill="black"/>
</svg>
