<svg width="40" height="40" viewBox="0 0 40 40" fill="none" xmlns="http://www.w3.org/2000/svg">
<rect x="0.5" y="0.5" width="39" height="39" rx="19.5" stroke="black"/>
<g clip-path="url(#clip0_1622_47777)">
<path d="M13.1066 23.4416L15.7194 19.8594C16.5067 20.6676 16.9617 21.7421 16.9942 22.8699C17.0267 23.9978 16.6343 25.0967 15.8948 25.9489C15.1553 26.8011 14.1226 27.3443 13.0014 27.4711C11.8802 27.5978 10.7524 27.2986 9.84131 26.633C8.93026 25.9673 8.30252 24.9837 8.0825 23.877C7.86247 22.7704 8.06621 21.6214 8.65334 20.6579C9.24048 19.6944 10.1682 18.9866 11.2525 18.6748C12.3369 18.3629 13.4989 18.4699 14.5081 18.9744L11.8953 22.5584C11.833 22.6377 11.7873 22.7286 11.761 22.8259C11.7346 22.9232 11.7282 23.0248 11.742 23.1246C11.7558 23.2244 11.7895 23.3205 11.8413 23.407C11.893 23.4935 11.9616 23.5686 12.0431 23.628C12.1245 23.6874 12.2171 23.7297 12.3152 23.7525C12.4134 23.7753 12.5152 23.7781 12.6144 23.7607C12.7137 23.7433 12.8084 23.7061 12.893 23.6513C12.9776 23.5964 13.0502 23.5251 13.1066 23.4416ZM27.5009 18.5C26.9587 18.4998 26.4209 18.5979 25.9138 18.7897L28.1488 22.625C28.2056 22.7103 28.2443 22.8063 28.2625 22.9071C28.2808 23.0079 28.2782 23.1114 28.2549 23.2112C28.2316 23.3109 28.1881 23.4049 28.1271 23.4872C28.0661 23.5695 27.9889 23.6385 27.9003 23.6898C27.8116 23.7411 27.7133 23.7738 27.6116 23.7857C27.5098 23.7975 27.4067 23.7885 27.3086 23.759C27.2105 23.7295 27.1194 23.6802 27.0411 23.6141C26.9628 23.5481 26.8988 23.4667 26.8531 23.375L24.6191 19.5444C23.8062 20.2224 23.2584 21.1653 23.0719 22.2073C22.8855 23.2493 23.0723 24.3237 23.5996 25.2416C24.1269 26.1595 24.9609 26.8621 25.955 27.2259C26.949 27.5897 28.0395 27.5914 29.0347 27.2308C30.03 26.8701 30.8662 26.1701 31.3964 25.2539C31.9266 24.3377 32.1168 23.264 31.9337 22.2214C31.7505 21.1788 31.2057 20.2341 30.3949 19.5535C29.5842 18.8729 28.5595 18.4999 27.5009 18.5ZM23.5569 14.75H26.0009C26.1999 14.75 26.3906 14.829 26.5313 14.9697C26.6719 15.1103 26.7509 15.3011 26.7509 15.5C26.7509 15.6989 26.83 15.8897 26.9706 16.0303C27.1113 16.171 27.302 16.25 27.5009 16.25C27.6999 16.25 27.8906 16.171 28.0313 16.0303C28.1719 15.8897 28.2509 15.6989 28.2509 15.5C28.2509 14.9033 28.0139 14.331 27.5919 13.909C27.17 13.4871 26.5977 13.25 26.0009 13.25H22.2509C22.1194 13.2503 21.9903 13.2852 21.8765 13.3511C21.7628 13.4171 21.6683 13.5118 21.6027 13.6257C21.5371 13.7397 21.5026 13.8689 21.5027 14.0004C21.5027 14.1319 21.5374 14.2611 21.6031 14.375L22.6953 16.25H17.3066L15.7738 13.625C15.7081 13.5112 15.6137 13.4167 15.5 13.3509C15.3863 13.2851 15.2573 13.2503 15.1259 13.25H12.5009C12.302 13.25 12.1113 13.329 11.9706 13.4697C11.83 13.6103 11.7509 13.8011 11.7509 14C11.7509 14.1989 11.83 14.3897 11.9706 14.5303C12.1113 14.671 12.302 14.75 12.5009 14.75H14.6956L15.9809 16.9541L14.5081 18.9744C14.9587 19.1993 15.3681 19.4985 15.7194 19.8594L16.8059 18.3687L19.7281 23.375C19.7738 23.4667 19.8378 23.5481 19.9161 23.6141C19.9944 23.6802 20.0855 23.7295 20.1836 23.759C20.2817 23.7885 20.3848 23.7975 20.4866 23.7857C20.5883 23.7738 20.6866 23.7411 20.7753 23.6898C20.8639 23.6385 20.9411 23.5695 21.0021 23.4872C21.0631 23.4049 21.1066 23.3109 21.1299 23.2112C21.1532 23.1114 21.1558 23.0079 21.1375 22.9071C21.1193 22.8063 21.0806 22.7103 21.0238 22.625L18.1813 17.75H23.57L24.6191 19.5472C25.0053 19.2242 25.4429 18.9682 25.9138 18.7897L23.5569 14.75Z" fill="black"/>
</g>
<defs>
<clipPath id="clip0_1622_47777">
<rect width="24" height="24" fill="white" transform="translate(8 8)"/>
</clipPath>
</defs>
</svg>
