<svg width="40" height="40" viewBox="0 0 40 40" fill="none" xmlns="http://www.w3.org/2000/svg">
<rect x="0.5" y="0.5" width="39" height="39" rx="19.5" stroke="black"/>
<path d="M21.3018 21.3464C20.921 20.8358 20.9985 20.2438 20.999 19.6361L20.9991 16.5615C20.9989 16.2318 20.9889 15.8977 21.0266 15.57C21.261 13.5322 22.9058 11.8501 24.8244 11.7881C25.2963 11.6797 26.0064 11.904 26.4459 12.0918C27.8733 12.702 28.8406 14.198 28.9702 15.8398C28.9944 16.1461 28.9864 16.4551 28.9861 16.7623L28.9859 19.4828C28.986 19.9619 29.036 20.5226 28.8524 20.9729C28.6152 21.5545 28.6815 21.536 28.6819 22.1765L28.6821 23.2717C28.682 23.6149 28.6884 23.9629 28.6508 24.3043C28.4451 26.1714 26.9063 27.6089 25.1932 27.7557C23.2359 27.8523 21.4675 26.226 21.3081 24.1174C21.2831 23.7855 21.3014 23.4389 21.3014 23.1051L21.3018 21.3464ZM24.9186 13.7078C24.5336 13.6675 24.2169 13.948 23.9341 14.1985C22.9824 15.0416 22.4408 16.188 22.2434 17.4785H25.1121H27.7496C27.5888 16.2813 26.7285 14.7986 25.8549 14.0964C25.634 13.919 25.2125 13.5743 24.9186 13.7078ZM22.3538 21.7784L22.3094 21.7841C22.2859 21.828 22.2912 23.794 22.3028 23.9926C22.4422 26.3903 25.1124 27.5673 26.8634 25.8631C27.4434 25.2413 27.7036 24.5239 27.7051 23.6462L27.7046 21.7784L24.1312 21.7782C23.5397 21.7781 22.945 21.7639 22.3538 21.7784Z" fill="black"/>
<path d="M11.3211 21.3188C10.9419 20.6832 10.9941 20.1171 10.9952 19.4089L10.9952 16.5983C10.995 15.5574 11.0483 14.8263 11.5579 13.9078C12.2518 12.657 13.4732 11.8082 14.8431 11.7695C14.9185 11.7582 15.0002 11.7593 15.0762 11.7605C17.0571 11.7928 18.6953 13.5089 18.9554 15.5956C19.0016 15.9658 18.9876 16.3456 18.9875 16.7182L18.9876 19.719C18.9877 20.1579 19.0304 20.613 18.8534 21.0222C18.6172 21.5682 18.6997 21.4707 18.7002 22.0913C18.7015 23.8131 18.8757 25.2553 17.5822 26.5885C16.9852 27.2036 16.0116 27.7577 15.1709 27.7374C13.3927 27.9795 11.5555 26.2193 11.3494 24.3246C11.3049 23.9153 11.3206 23.4937 11.3208 23.0821L11.3211 21.3188ZM14.9176 13.669C13.6132 13.8553 12.3757 16.1516 12.2621 17.4452H15.1709H17.7514C17.634 16.2077 16.8976 14.8805 16.0226 14.1121C15.7102 13.8378 15.3375 13.5975 14.9176 13.669ZM12.3109 21.7514L12.3103 23.0942C12.3103 23.829 12.2917 24.414 12.6182 25.094C13.3433 26.6039 15.1949 27.1596 16.489 26.1689C16.6218 26.0673 16.7364 25.9379 16.8722 25.8421L16.884 25.8231C17.0067 25.628 17.1711 25.469 17.2802 25.2629C17.8234 24.2366 17.6455 22.9125 17.663 21.7514H12.3109Z" fill="black"/>
</svg>
