<svg width="40" height="40" viewBox="0 0 40 40" fill="none" xmlns="http://www.w3.org/2000/svg">
<rect x="0.5" y="0.5" width="39" height="39" rx="19.5" stroke="black"/>
<path d="M16.0986 21.3683C16.1784 21.2157 16.5411 20.5809 16.5652 20.4986C16.596 20.3937 16.5628 19.4314 16.5627 19.2351L16.5626 17.4522C16.5626 17.0738 16.5531 16.6931 16.578 16.3153C16.7874 13.1419 19.4727 10.8258 22.6056 10.594C25.805 10.5662 28.6149 12.7441 29.0333 15.9627C29.102 16.4913 29.0968 17.0185 29.0969 17.55L29.0963 20.0274C29.095 20.1893 29.0824 20.3556 29.0953 20.5167L29.0967 20.5317C29.9291 21.7889 30.2321 23.3119 30.2337 24.7953L30.2339 26.968C30.2341 27.3581 30.2728 28.0533 30.1814 28.4164C29.8534 29.72 28.6369 29.5906 27.6279 29.5899L16.7229 29.5901C15.622 29.4385 15.4712 28.5645 15.472 27.6357L15.4725 26.6893C15.4752 25.8741 15.3213 26.013 14.8057 25.3418L13.3021 23.41C13.05 23.0881 11.2835 20.9528 11.2477 20.6686C11.1816 20.1446 11.7258 19.9428 12.088 19.708C12.9157 19.1716 12.9029 18.9215 13.7259 19.5563L14.468 20.1264C15.0097 20.5436 15.5704 20.9335 16.0986 21.3683ZM22.6877 11.9513C20.3235 11.9726 18.2344 13.864 17.9822 16.1905C17.8996 16.9518 17.9388 18.0215 17.949 18.8067L17.9505 18.8771C18.7651 17.9217 20.4544 17.0728 21.6796 16.9594C20.4991 15.7279 21.3187 13.9591 22.9575 14.0323C24.4921 14.2211 24.9883 15.935 23.931 16.9594C25.2061 17.0533 26.8275 17.871 27.672 18.8447L27.6997 18.8771L27.7002 17.49C27.7 16.3906 27.6608 15.5774 27.1542 14.5781C26.3508 12.9932 24.5077 11.7997 22.6877 11.9513ZM19.6993 19.6952H18.979C18.8344 19.7984 18.7055 19.9596 18.5849 20.09C17.0402 21.7599 16.8055 23.3899 16.8077 25.5073H25.9926H28.8779C28.8784 25.046 28.8984 24.5752 28.8677 24.1152C28.7655 22.5841 28.099 21.1317 27.0271 20.0304C26.9202 19.9205 26.8026 19.8141 26.7066 19.6952H19.6993Z" fill="black"/>
</svg>
