<svg width="40" height="40" viewBox="0 0 40 40" fill="none" xmlns="http://www.w3.org/2000/svg">
<rect x="0.5" y="0.5" width="39" height="39" rx="19.5" stroke="black"/>
<path d="M28.25 13.9999H21.8103L25.0306 10.7806C25.1714 10.6398 25.2504 10.449 25.2504 10.2499C25.2504 10.0509 25.1714 9.86003 25.0306 9.7193C24.8899 9.57857 24.699 9.49951 24.5 9.49951C24.301 9.49951 24.1101 9.57857 23.9694 9.7193L20 13.6896L16.0306 9.7193C15.9609 9.64962 15.8782 9.59435 15.7872 9.55663C15.6961 9.51892 15.5985 9.49951 15.5 9.49951C15.4015 9.49951 15.3039 9.51892 15.2128 9.55663C15.1218 9.59435 15.0391 9.64962 14.9694 9.7193C14.8286 9.86003 14.7496 10.0509 14.7496 10.2499C14.7496 10.449 14.8286 10.6398 14.9694 10.7806L18.1897 13.9999H11.75C11.3522 13.9999 10.9706 14.158 10.6893 14.4393C10.408 14.7206 10.25 15.1021 10.25 15.4999V26.7499C10.25 27.1478 10.408 27.5293 10.6893 27.8106C10.9706 28.0919 11.3522 28.2499 11.75 28.2499H28.25C28.6478 28.2499 29.0294 28.0919 29.3107 27.8106C29.592 27.5293 29.75 27.1478 29.75 26.7499V15.4999C29.75 15.1021 29.592 14.7206 29.3107 14.4393C29.0294 14.158 28.6478 13.9999 28.25 13.9999ZM28.25 26.7499H11.75V15.4999H28.25V26.7499ZM26.75 17.3749V24.8749C26.75 24.9744 26.7105 25.0698 26.6402 25.1401C26.5698 25.2104 26.4745 25.2499 26.375 25.2499H13.625C13.5255 25.2499 13.4302 25.2104 13.3598 25.1401C13.2895 25.0698 13.25 24.9744 13.25 24.8749V17.3749C13.25 17.2755 13.2895 17.1801 13.3598 17.1098C13.4302 17.0394 13.5255 16.9999 13.625 16.9999H26.375C26.4745 16.9999 26.5698 17.0394 26.6402 17.1098C26.7105 17.1801 26.75 17.2755 26.75 17.3749Z" fill="black"/>
</svg>
