<svg width="40" height="40" viewBox="0 0 40 40" fill="none" xmlns="http://www.w3.org/2000/svg">
<rect x="0.5" y="0.5" width="39" height="39" rx="19.5" stroke="black"/>
<path d="M30.2812 12.2806C30.3862 12.1757 30.4578 12.042 30.4867 11.8965C30.5157 11.7509 30.5009 11.6 30.4441 11.4629C30.3872 11.3258 30.291 11.2086 30.1676 11.1262C30.0441 11.0438 29.899 10.9999 29.7506 11H10.2506C10.1022 10.9999 9.95705 11.0438 9.8336 11.1262C9.71016 11.2086 9.61394 11.3258 9.55712 11.4629C9.50031 11.6 9.48546 11.7509 9.51444 11.8965C9.54343 12.042 9.61496 12.1757 9.71997 12.2806L19.2506 21.8103V27.5H16.2506C16.0517 27.5 15.8609 27.579 15.7203 27.7197C15.5796 27.8603 15.5006 28.0511 15.5006 28.25C15.5006 28.4489 15.5796 28.6397 15.7203 28.7803C15.8609 28.921 16.0517 29 16.2506 29H23.7506C23.9495 29 24.1403 28.921 24.2809 28.7803C24.4216 28.6397 24.5006 28.4489 24.5006 28.25C24.5006 28.0511 24.4216 27.8603 24.2809 27.7197C24.1403 27.579 23.9495 27.5 23.7506 27.5H20.7506V21.8103L30.2812 12.2806ZM27.9375 12.5L26.4375 14H13.5609L12.0609 12.5H27.9375Z" fill="black"/>
</svg>
