<svg width="40" height="40" viewBox="0 0 40 40" fill="none" xmlns="http://www.w3.org/2000/svg">
<rect x="0.5" y="0.5" width="39" height="39" rx="19.5" stroke="black"/>
<path d="M28.25 14.75H11V12.5C11 12.3011 10.921 12.1103 10.7803 11.9697C10.6397 11.829 10.4489 11.75 10.25 11.75C10.0511 11.75 9.86032 11.829 9.71967 11.9697C9.57902 12.1103 9.5 12.3011 9.5 12.5V27.5C9.5 27.6989 9.57902 27.8897 9.71967 28.0303C9.86032 28.171 10.0511 28.25 10.25 28.25C10.4489 28.25 10.6397 28.171 10.7803 28.0303C10.921 27.8897 11 27.6989 11 27.5V24.5H30.5V27.5C30.5 27.6989 30.579 27.8897 30.7197 28.0303C30.8603 28.171 31.0511 28.25 31.25 28.25C31.4489 28.25 31.6397 28.171 31.7803 28.0303C31.921 27.8897 32 27.6989 32 27.5V18.5C32 17.5054 31.6049 16.5516 30.9016 15.8483C30.1984 15.1451 29.2446 14.75 28.25 14.75ZM11 16.25H17.75V23H11V16.25Z" fill="black"/>
</svg>
