<svg width="40" height="40" viewBox="0 0 40 40" fill="none" xmlns="http://www.w3.org/2000/svg">
<rect x="0.5" y="0.5" width="39" height="39" rx="19.5" stroke="black"/>
<path d="M24.6331 27.3706L27.5938 20.8503C28.5377 20.0599 29.2157 18.9983 29.5357 17.8094C29.8556 16.6206 29.8022 15.3621 29.3825 14.2047C28.9628 13.0472 28.1972 12.0469 27.1896 11.3395C26.182 10.632 24.9812 10.2517 23.75 10.25C23.7085 10.2502 23.6672 10.2536 23.6262 10.2603L10.7534 12.4062C10.4032 12.4646 10.0851 12.6453 9.85555 12.9162C9.62604 13.1871 9.50005 13.5306 9.5 13.8856V18.6144C9.50005 18.9694 9.62604 19.3129 9.85555 19.5838C10.0851 19.8547 10.4032 20.0354 10.7534 20.0938L20 21.635V26.75C20 27.1478 20.158 27.5294 20.4393 27.8107C20.7206 28.092 21.1022 28.25 21.5 28.25C21.5 29.2446 21.8951 30.1984 22.5983 30.9016C23.3016 31.6049 24.2554 32 25.25 32H26.75C26.9489 32 27.1397 31.921 27.2803 31.7803C27.421 31.6397 27.5 31.4489 27.5 31.25C27.5 31.0511 27.421 30.8603 27.2803 30.7197C27.1397 30.579 26.9489 30.5 26.75 30.5H25.25C24.6533 30.5 24.081 30.2629 23.659 29.841C23.2371 29.419 23 28.8467 23 28.25H23.2672C23.5553 28.2501 23.8373 28.1672 24.0795 28.0112C24.3217 27.8553 24.5139 27.6329 24.6331 27.3706ZM26 16.25C26 16.695 25.868 17.13 25.6208 17.5C25.3736 17.87 25.0222 18.1584 24.611 18.3287C24.1999 18.499 23.7475 18.5436 23.311 18.4568C22.8746 18.37 22.4737 18.1557 22.159 17.841C21.8443 17.5263 21.63 17.1254 21.5432 16.689C21.4564 16.2525 21.501 15.8001 21.6713 15.389C21.8416 14.9778 22.13 14.6264 22.5 14.3792C22.87 14.132 23.305 14 23.75 14C24.3467 14 24.919 14.2371 25.341 14.659C25.7629 15.081 26 15.6533 26 16.25ZM23.6262 22.2397C23.6672 22.2464 23.7085 22.2498 23.75 22.25C24.3153 22.2498 24.8778 22.1697 25.4206 22.0119L23.2644 26.75H21.5V21.8853L23.6262 22.2397Z" fill="black"/>
</svg>
