<svg width="40" height="40" viewBox="0 0 40 40" fill="none" xmlns="http://www.w3.org/2000/svg">
<rect x="0.5" y="0.5" width="39" height="39" rx="19.5" stroke="black"/>
<path d="M21.2757 12.2502C21.0538 12.2374 20.8239 12.2498 20.601 12.25L19.2111 12.2507C18.9307 12.2508 18.4472 12.335 18.2178 12.1285C17.9037 11.8458 18.0099 11.2061 18.6236 11.1961L23.5957 11.1959C23.8123 11.1959 24.0438 11.1806 24.2582 11.21C24.6657 11.2658 24.7922 11.8262 24.5091 12.1008C24.296 12.3074 23.8812 12.2511 23.6032 12.2502C23.5993 12.4528 23.6028 12.6561 23.6032 12.8588C24.8183 12.8469 24.772 13.7837 24.7701 14.7367C26.4862 14.7582 27.6781 15.9683 27.6824 17.6858V25.2395C27.6825 25.6862 27.7086 26.1457 27.6214 26.5859C27.4535 27.4331 26.7852 28.1582 25.926 28.3262C25.6576 28.3786 25.363 28.3553 25.0902 28.3552L19.2429 28.3547L14.9986 28.3552C14.6996 28.3552 14.3887 28.3638 14.0936 28.3096C13.2069 28.147 12.4605 27.3848 12.3429 26.4865C12.3131 26.2583 12.322 26.0253 12.3221 25.7955L12.3221 23.6446C12.3221 23.3037 12.3062 22.9535 12.3689 22.617C12.5226 21.7922 13.2272 21.1002 14.0682 20.9974C14.413 19.5467 15.6305 18.5458 17.1542 18.6567L17.1536 17.8175C17.1539 17.1475 17.1947 16.6804 17.5522 16.0877C18.1246 15.1386 18.9878 14.7322 20.0557 14.7367L20.0554 14.1423C20.0574 13.3469 20.468 12.8494 21.2757 12.8588V12.2502ZM18.1477 18.6567V18.8577C19.0166 19.2202 19.7419 20.0645 19.8949 20.9974C21.8257 21.2578 21.5456 23.1784 21.5614 24.6366H26.6304V18.6567H18.1477ZM16.8667 19.673C15.6012 19.7178 15.0015 20.7259 15.0411 21.9032C13.5633 21.8989 13.3963 22.3045 13.4003 23.6915H17.0632H20.5056L20.5077 23.1942C20.511 22.0686 20.0238 21.8998 19.011 21.9029L18.9325 21.9032C18.9344 21.729 18.9445 21.5487 18.9292 21.3753C18.8468 20.4391 17.801 19.4881 16.8667 19.673Z" fill="black"/>
</svg>
