<svg width="40" height="40" viewBox="0 0 40 40" fill="none" xmlns="http://www.w3.org/2000/svg">
<rect x="0.5" y="0.5" width="39" height="39" rx="19.5" stroke="black"/>
<path d="M21.468 29.7466L16.5969 29.7474C15.7302 29.748 14.9133 29.6814 14.549 28.6715C14.4079 28.28 14.4469 27.8471 14.4471 27.4382L14.4658 19.8081C14.4655 19.7685 14.4641 19.7342 14.4395 19.7021L14.411 19.6997C14.2487 19.8022 14.1076 20.1537 14.008 20.3218L13.2061 21.6604C12.9871 22.0228 12.7728 22.5649 12.3019 22.6206C11.8271 22.6768 10.8029 21.7578 10.3761 21.4059C9.58993 20.7574 10.2518 20.1271 10.6175 19.4841C11.3076 18.2705 12.043 17.083 12.7559 15.8835L14.6586 12.7076C14.9744 12.1756 15.0346 12.1593 15.5158 11.7791C16.0026 11.3944 16.4945 11.0189 16.9869 10.6421C17.5956 10.1762 17.8533 9.83091 18.645 9.75678L20.4671 9.75587C22.1505 9.75501 21.8688 9.83022 23.1406 10.7657L24.2691 11.6028C25.1409 12.2565 25.0412 12.2725 25.6082 13.2113L29.0836 18.9639C29.3296 19.371 29.7528 19.9707 29.9337 20.3774C30.2588 21.108 29.4358 21.5349 28.9795 21.8994C27.8819 22.7761 27.7151 23.0199 26.9206 21.7663L25.8372 20.0936C25.7336 19.9341 25.615 19.7741 25.5427 19.5967L25.5336 19.574C25.5113 19.727 25.5311 19.8875 25.5325 20.042L25.5343 27.3001C25.5349 28.263 25.4946 29.3854 24.3397 29.6995C24.0216 29.786 23.4984 29.7472 23.1583 29.7472L21.468 29.7466ZM19.803 10.6906L18.9781 10.6894C18.3575 10.6879 18.292 10.7532 17.796 11.1257C17.9362 11.4772 18.1272 11.8136 18.2844 12.1581C18.8544 13.407 19.4539 14.6106 19.9916 15.8804C20.0283 15.8096 20.0668 15.7394 20.0985 15.6661C20.398 14.9752 20.7263 14.3035 21.0491 13.6241L22.2327 11.1257C21.7066 10.6395 21.4025 10.6896 20.7352 10.6898L19.803 10.6906ZM23.6016 12.2496L20.541 18.852C20.2657 19.4305 20.3211 19.458 20.322 20.0993L20.3221 28.9049H21.4017H22.6153C22.6301 27.9051 22.6154 26.9026 22.6153 25.9025V19.9H24.6588L24.6095 14.1395C24.6027 13.1472 24.5871 12.6956 23.6016 12.2496ZM16.3162 12.2496C15.2986 12.7476 15.3573 13.3799 15.3574 14.3492L15.3579 19.9543H18.0982C18.2896 19.6348 18.5039 19.0601 18.6605 18.7076C18.7772 18.445 18.9227 18.1928 19.0273 17.9256C18.8541 17.5186 18.6524 17.1229 18.4632 16.7236L16.7677 13.1029C16.7076 12.9758 16.4205 12.29 16.3379 12.2495L16.3162 12.2496Z" fill="black"/>
</svg>
