<svg width="40" height="40" viewBox="0 0 40 40" fill="none" xmlns="http://www.w3.org/2000/svg">
<rect x="0.5" y="0.5" width="39" height="39" rx="19.5" stroke="black"/>
<path d="M28 18.2842V26.4445C28 26.6248 27.9298 26.7978 27.8047 26.9253C27.6797 27.0529 27.5101 27.1245 27.3333 27.1245H22.6667C22.4899 27.1245 22.3203 27.0529 22.1953 26.9253C22.0702 26.7978 22 26.6248 22 26.4445V22.0243C22 21.9341 21.9649 21.8477 21.9024 21.7839C21.8399 21.7201 21.7551 21.6843 21.6667 21.6843H18.3333C18.2449 21.6843 18.1601 21.7201 18.0976 21.7839C18.0351 21.8477 18 21.9341 18 22.0243V26.4445C18 26.6248 17.9298 26.7978 17.8047 26.9253C17.6797 27.0529 17.5101 27.1245 17.3333 27.1245H12.6667C12.4899 27.1245 12.3203 27.0529 12.1953 26.9253C12.0702 26.7978 12 26.6248 12 26.4445V18.2842C12.0002 17.9235 12.1407 17.5777 12.3908 17.3228L19.0575 10.5225C19.3075 10.2677 19.6465 10.1245 20 10.1245C20.3535 10.1245 20.6925 10.2677 20.9425 10.5225L27.6092 17.3228C27.8593 17.5777 27.9998 17.9235 28 18.2842Z" fill="black"/>
</svg>
