<svg width="40" height="40" viewBox="0 0 40 40" fill="none" xmlns="http://www.w3.org/2000/svg">
<rect x="0.5" y="0.5" width="39" height="39" rx="19.5" stroke="black"/>
<path d="M26.6286 11.2608C26.5523 11.2013 26.4631 11.16 26.3679 11.1401C26.2727 11.1201 26.1741 11.1221 26.0798 11.1459L15.8398 13.6641C15.7015 13.6981 15.5787 13.7765 15.4908 13.887C15.403 13.9975 15.3552 14.1337 15.355 14.2739V22.938C14.8211 22.5871 14.1832 22.4217 13.5428 22.4683C12.9023 22.5148 12.2961 22.7706 11.8204 23.1949C11.3447 23.6192 11.0268 24.1878 10.9172 24.8102C10.8077 25.4326 10.9127 26.0732 11.2157 26.6301C11.5187 27.1871 12.0022 27.6285 12.5894 27.8841C13.1767 28.1397 13.8339 28.195 14.4567 28.0411C15.0796 27.8872 15.6322 27.5329 16.0269 27.0346C16.4215 26.5363 16.6356 25.9226 16.635 25.2909V17.9135L25.595 15.7101V20.4198C25.061 20.0689 24.4232 19.9036 23.7828 19.9501C23.1423 19.9967 22.5361 20.2524 22.0604 20.6768C21.5847 21.1011 21.2668 21.6696 21.1572 22.292C21.0477 22.9144 21.1527 23.555 21.4557 24.112C21.7587 24.6689 22.2422 25.1103 22.8294 25.3659C23.4167 25.6216 24.0739 25.6768 24.6967 25.5229C25.3195 25.369 25.8722 25.0148 26.2669 24.5165C26.6615 24.0182 26.8756 23.4044 26.875 22.7727V11.7558C26.8748 11.6603 26.8525 11.5661 26.8098 11.4803C26.7671 11.3946 26.7051 11.3195 26.6286 11.2608Z" fill="black"/>
</svg>
