<svg width="40" height="40" viewBox="0 0 40 40" fill="none" xmlns="http://www.w3.org/2000/svg">
<rect x="0.5" y="0.5" width="39" height="39" rx="19.5" stroke="black"/>
<path d="M21.5006 14.75C21.5006 14.1567 21.6765 13.5766 22.0062 13.0833C22.3358 12.5899 22.8044 12.2054 23.3525 11.9784C23.9007 11.7513 24.5039 11.6919 25.0859 11.8076C25.6678 11.9234 26.2023 12.2091 26.6219 12.6287C27.0415 13.0482 27.3272 13.5828 27.4429 14.1647C27.5587 14.7467 27.4993 15.3499 27.2722 15.8981C27.0452 16.4462 26.6606 16.9148 26.1673 17.2444C25.6739 17.5741 25.0939 17.75 24.5006 17.75C23.7049 17.75 22.9419 17.4339 22.3793 16.8713C21.8167 16.3087 21.5006 15.5457 21.5006 14.75ZM27.7715 25.2678C24.7875 27.7419 22.7353 26.6281 20.3587 25.3372C17.864 23.9834 15.0375 22.4488 11.2715 25.5706C11.1949 25.6333 11.1314 25.7104 11.0847 25.7977C11.038 25.885 11.0091 25.9807 10.9996 26.0792C10.99 26.1777 11.0001 26.2772 11.0292 26.3718C11.0583 26.4664 11.1058 26.5543 11.169 26.6305C11.2323 26.7066 11.3099 26.7695 11.3976 26.8155C11.4852 26.8615 11.5811 26.8897 11.6797 26.8984C11.7783 26.9072 11.8777 26.8964 11.9721 26.8665C12.0664 26.8367 12.154 26.7885 12.2296 26.7247C15.2137 24.2506 17.2659 25.3653 19.6425 26.6553C21.059 27.4241 22.5815 28.2491 24.3234 28.2491C25.649 28.2491 27.1021 27.77 28.7296 26.4209C28.8828 26.2939 28.9792 26.1112 28.9977 25.913C29.0161 25.7149 28.9551 25.5175 28.8281 25.3644C28.701 25.2112 28.5183 25.1148 28.3202 25.0963C28.122 25.0779 27.9247 25.1389 27.7715 25.2659V25.2678ZM11.2715 21.8216C11.1949 21.8842 11.1314 21.9614 11.0847 22.0487C11.038 22.136 11.0091 22.2316 10.9996 22.3301C10.99 22.4287 11.0001 22.5281 11.0292 22.6227C11.0583 22.7173 11.1058 22.8052 11.169 22.8814C11.2323 22.9576 11.3099 23.0204 11.3976 23.0664C11.4852 23.1124 11.5811 23.1406 11.6797 23.1494C11.7783 23.1581 11.8777 23.1473 11.9721 23.1175C12.0664 23.0877 12.154 23.0394 12.2296 22.9756C15.2137 20.5025 17.2659 21.6163 19.6425 22.9063C21.059 23.675 22.5815 24.5 24.3234 24.5C25.649 24.5 27.1021 24.0209 28.7296 22.6719C28.8063 22.6092 28.8698 22.5321 28.9165 22.4448C28.9631 22.3575 28.9921 22.2618 29.0016 22.1633C29.0111 22.0648 29.001 21.9653 28.972 21.8707C28.9429 21.7761 28.8953 21.6882 28.8321 21.612C28.7689 21.5359 28.6912 21.473 28.6036 21.427C28.5159 21.381 28.42 21.3528 28.3214 21.3441C28.2228 21.3353 28.1235 21.3461 28.0291 21.376C27.9347 21.4058 27.8472 21.454 27.7715 21.5178C27.2293 21.9835 26.62 22.3646 25.964 22.6484L20.9165 17.6028C20.0131 16.6953 18.9386 15.9759 17.7554 15.4863C16.5722 14.9966 15.3036 14.7463 14.0231 14.75H11.7506C11.5517 14.75 11.3609 14.829 11.2203 14.9697C11.0796 15.1103 11.0006 15.3011 11.0006 15.5C11.0006 15.6989 11.0796 15.8897 11.2203 16.0303C11.3609 16.171 11.5517 16.25 11.7506 16.25H14.0231C15.3939 16.2474 16.7436 16.5877 17.9493 17.24L15.1715 20.0159C13.9837 20.1275 12.6946 20.6413 11.2715 21.8206V21.8216Z" fill="black"/>
</svg>
