<svg width="40" height="40" viewBox="0 0 40 40" fill="none" xmlns="http://www.w3.org/2000/svg">
<rect x="0.5" y="0.5" width="39" height="39" rx="19.5" stroke="black"/>
<path d="M28.25 11.75V29C28.25 29.1989 28.171 29.3896 28.0303 29.5303C27.8897 29.6709 27.6989 29.75 27.5 29.75C27.3011 29.75 27.1103 29.6709 26.9697 29.5303C26.829 29.3896 26.75 29.1989 26.75 29V23.9995H24.5H22.5C22.3011 23.9995 21.9779 23.9995 21.7394 23.75C21.5 23.4995 21.5 23.1984 21.5 22.9995C21.5348 21.203 21.7617 20.1657 22.1769 18.4175C23.0938 14.6215 24.8319 12.0771 27.2047 11.0609C27.3187 11.012 27.4431 10.9922 27.5667 11.0033C27.6903 11.0143 27.8092 11.0558 27.9128 11.1241C28.0164 11.1924 28.1014 11.2853 28.1603 11.3945C28.2191 11.5038 28.2499 11.6259 28.25 11.75ZM19.2397 11.6271C19.225 11.5287 19.1908 11.4341 19.1392 11.349C19.0876 11.2638 19.0195 11.1898 18.939 11.1312C18.8585 11.0727 18.7671 11.0307 18.6702 11.0079C18.5733 10.985 18.4728 10.9816 18.3746 10.998C18.2764 11.0144 18.1824 11.0501 18.0982 11.1032C18.0139 11.1563 17.9411 11.2256 17.8839 11.3071C17.8267 11.3886 17.7863 11.4807 17.7651 11.578C17.7439 11.6753 17.7423 11.7758 17.7603 11.8737L18.4897 16.25H16.25V11.75C16.25 11.551 16.171 11.3603 16.0303 11.2196C15.8897 11.079 15.6989 11 15.5 11C15.3011 11 15.1103 11.079 14.9697 11.2196C14.829 11.3603 14.75 11.551 14.75 11.75V16.25H12.5103L13.2397 11.8737C13.2577 11.7758 13.2561 11.6753 13.2349 11.578C13.2137 11.4807 13.1733 11.3886 13.1161 11.3071C13.0589 11.2256 12.9861 11.1563 12.9018 11.1032C12.8176 11.0501 12.7236 11.0144 12.6254 10.998C12.5272 10.9816 12.4267 10.985 12.3298 11.0079C12.2329 11.0307 12.1415 11.0727 12.061 11.1312C11.9805 11.1898 11.9124 11.2638 11.8608 11.349C11.8092 11.4341 11.775 11.5287 11.7603 11.6271L11.0103 16.1271C11.0036 16.1677 11.0001 16.2088 11 16.25C11.0015 17.3129 11.3787 18.3411 12.0649 19.1529C12.7511 19.9647 13.7021 20.5078 14.75 20.6862V29C14.75 29.1989 14.829 29.3896 14.9697 29.5303C15.1103 29.6709 15.3011 29.75 15.5 29.75C15.6989 29.75 15.8897 29.6709 16.0303 29.5303C16.171 29.3896 16.25 29.1989 16.25 29V20.6862C17.2979 20.5078 18.2489 19.9647 18.9351 19.1529C19.6213 18.3411 19.9985 17.3129 20 16.25C19.9999 16.2088 19.9964 16.1677 19.9897 16.1271L19.2397 11.6271Z" fill="black"/>
</svg>
