<svg width="40" height="40" viewBox="0 0 40 40" fill="none" xmlns="http://www.w3.org/2000/svg">
<rect x="0.5" y="0.5" width="39" height="39" rx="19.5" stroke="black"/>
<path d="M19.2516 17.75H10.2516C10.1488 17.7502 10.0471 17.7293 9.95268 17.6885C9.85828 17.6478 9.77328 17.5881 9.70295 17.5131C9.63261 17.4381 9.57845 17.3494 9.54382 17.2526C9.50919 17.1558 9.49484 17.0529 9.50165 16.9503C9.51824 16.7571 9.60748 16.5774 9.75137 16.4474C9.89526 16.3175 10.0831 16.2469 10.277 16.25H18.5016C18.6045 16.2502 18.7062 16.2293 18.8006 16.1885C18.895 16.1478 18.98 16.0881 19.0503 16.0131C19.1207 15.9381 19.1748 15.8494 19.2095 15.7526C19.2441 15.6558 19.2585 15.5529 19.2516 15.4503C19.2351 15.2571 19.1458 15.0774 19.0019 14.9474C18.858 14.8175 18.6702 14.7469 18.4763 14.75H16.6538C16.5997 14.7506 16.546 14.7394 16.4966 14.7172C16.4471 14.6951 16.4031 14.6625 16.3674 14.6217C16.3318 14.5809 16.3054 14.5328 16.2901 14.4809C16.2748 14.4289 16.271 14.3742 16.2788 14.3206C16.3611 13.7517 16.6051 13.2184 16.9818 12.7841C17.3585 12.3499 17.852 12.033 18.4036 11.8713C18.9552 11.7095 19.5417 11.7096 20.0933 11.8716C20.6448 12.0335 21.1383 12.3506 21.5148 12.7849C21.8913 13.2193 22.1351 13.7527 22.2172 14.3217C22.2993 14.8906 22.2162 15.4712 21.9777 15.9943C21.7393 16.5174 21.3556 16.9609 20.8723 17.2722C20.389 17.5834 19.8265 17.7493 19.2516 17.75ZM30.4941 17.5353C30.4414 16.7972 30.1176 16.1047 29.5852 15.5908C29.0528 15.0769 28.3492 14.7779 27.6098 14.7513C26.8703 14.7247 26.147 14.9723 25.579 15.4465C25.011 15.9208 24.6383 16.5882 24.5326 17.3206C24.5247 17.3742 24.5286 17.4289 24.5439 17.4809C24.5592 17.5328 24.5855 17.5809 24.6212 17.6217C24.6568 17.6625 24.7009 17.6951 24.7503 17.7172C24.7998 17.7394 24.8534 17.7506 24.9076 17.75H26.7301C26.9236 17.7474 27.111 17.8182 27.2545 17.9481C27.398 18.078 27.487 18.2575 27.5035 18.4503C27.5103 18.5529 27.496 18.6558 27.4614 18.7526C27.4267 18.8494 27.3726 18.9381 27.3022 19.0131C27.2319 19.0881 27.1469 19.1478 27.0525 19.1885C26.9581 19.2293 26.8563 19.2502 26.7535 19.25H11.027C10.8331 19.2469 10.6453 19.3175 10.5014 19.4474C10.3575 19.5774 10.2682 19.7571 10.2516 19.9503C10.2448 20.0529 10.2592 20.1558 10.2938 20.2526C10.3284 20.3494 10.3826 20.4381 10.4529 20.5131C10.5233 20.5881 10.6083 20.6478 10.7027 20.6885C10.7971 20.7293 10.8988 20.7502 11.0016 20.75H27.5016C27.9137 20.75 28.3214 20.6652 28.6992 20.5007C29.077 20.3362 29.4169 20.0957 29.6977 19.7941C29.9785 19.4925 30.1941 19.1362 30.3311 18.7476C30.4681 18.359 30.5236 17.9463 30.4941 17.5353ZM22.2516 22.25H11.777C11.5831 22.2469 11.3953 22.3175 11.2514 22.4474C11.1075 22.5774 11.0182 22.7571 11.0016 22.9503C10.9948 23.0529 11.0092 23.1558 11.0438 23.2526C11.0784 23.3494 11.1326 23.4381 11.2029 23.5131C11.2733 23.5881 11.3583 23.6478 11.4527 23.6885C11.5471 23.7293 11.6488 23.7502 11.7516 23.75H21.4763C21.6699 23.7474 21.8572 23.8182 22.0007 23.9481C22.1442 24.078 22.2332 24.2574 22.2498 24.4503C22.2566 24.5529 22.2422 24.6558 22.2076 24.7526C22.173 24.8494 22.1188 24.9381 22.0485 25.0131C21.9781 25.0881 21.8931 25.1478 21.7987 25.1885C21.7044 25.2293 21.6026 25.2502 21.4998 25.25H19.6538C19.5997 25.2494 19.546 25.2606 19.4966 25.2827C19.4471 25.3049 19.4031 25.3375 19.3674 25.3783C19.3318 25.4191 19.3054 25.4671 19.2901 25.5191C19.2748 25.5711 19.271 25.6258 19.2788 25.6794C19.3611 26.2483 19.6051 26.7816 19.9818 27.2159C20.3585 27.6501 20.852 27.9669 21.4036 28.1287C21.9552 28.2905 22.5417 28.2904 23.0933 28.1284C23.6448 27.9664 24.1383 27.6494 24.5148 27.215C24.8913 26.7807 25.1351 26.2473 25.2172 25.6783C25.2993 25.1094 25.2162 24.5288 24.9777 24.0057C24.7393 23.4826 24.3556 23.0391 23.8723 22.7278C23.389 22.4166 22.8265 22.2507 22.2516 22.25Z" fill="black"/>
</svg>
