<svg width="40" height="40" viewBox="0 0 40 40" fill="none" xmlns="http://www.w3.org/2000/svg">
<rect x="0.5" y="0.5" width="39" height="39" rx="19.5" stroke="black"/>
<path d="M28.25 11.75H11.75C11.3522 11.75 10.9706 11.908 10.6893 12.1893C10.408 12.4706 10.25 12.8522 10.25 13.25V26C10.25 26.3978 10.408 26.7794 10.6893 27.0607C10.9706 27.342 11.3522 27.5 11.75 27.5H13.25V29C13.25 29.1989 13.329 29.3897 13.4697 29.5303C13.6103 29.671 13.8011 29.75 14 29.75C14.1989 29.75 14.3897 29.671 14.5303 29.5303C14.671 29.3897 14.75 29.1989 14.75 29V27.5H25.25V29C25.25 29.1989 25.329 29.3897 25.4697 29.5303C25.6103 29.671 25.8011 29.75 26 29.75C26.1989 29.75 26.3897 29.671 26.5303 29.5303C26.671 29.3897 26.75 29.1989 26.75 29V27.5H28.25C28.6478 27.5 29.0294 27.342 29.3107 27.0607C29.592 26.7794 29.75 26.3978 29.75 26V13.25C29.75 12.8522 29.592 12.4706 29.3107 12.1893C29.0294 11.908 28.6478 11.75 28.25 11.75ZM27.5 20.75H24.7897C24.6053 21.559 24.1293 22.2718 23.4527 22.7521C22.7761 23.2324 21.9463 23.4466 21.1217 23.3538C20.2971 23.2611 19.5357 22.8678 18.9827 22.2491C18.4297 21.6304 18.1241 20.8298 18.1241 20C18.1241 19.1702 18.4297 18.3696 18.9827 17.7509C19.5357 17.1322 20.2971 16.7389 21.1217 16.6462C21.9463 16.5534 22.7761 16.7676 23.4527 17.2479C24.1293 17.7282 24.6053 18.441 24.7897 19.25H27.5C27.6989 19.25 27.8897 19.329 28.0303 19.4697C28.171 19.6103 28.25 19.8011 28.25 20C28.25 20.1989 28.171 20.3897 28.0303 20.5303C27.8897 20.671 27.6989 20.75 27.5 20.75ZM23.375 20C23.375 20.3708 23.265 20.7334 23.059 21.0417C22.853 21.35 22.5601 21.5904 22.2175 21.7323C21.8749 21.8742 21.4979 21.9113 21.1342 21.839C20.7705 21.7666 20.4364 21.588 20.1742 21.3258C19.912 21.0636 19.7334 20.7295 19.661 20.3658C19.5887 20.0021 19.6258 19.6251 19.7677 19.2825C19.9096 18.9399 20.15 18.647 20.4583 18.441C20.7666 18.235 21.1292 18.125 21.5 18.125C21.7462 18.125 21.99 18.1735 22.2175 18.2677C22.445 18.362 22.6517 18.5001 22.8258 18.6742C22.9999 18.8483 23.138 19.055 23.2323 19.2825C23.3265 19.51 23.375 19.7538 23.375 20Z" fill="black"/>
</svg>
