<svg width="40" height="40" viewBox="0 0 40 40" fill="none" xmlns="http://www.w3.org/2000/svg">
<rect x="0.5" y="0.5" width="39" height="39" rx="19.5" stroke="black"/>
<path d="M26.5357 15.9808H12.3929C12.2224 15.9808 12.0588 16.0497 11.9383 16.1723C11.8177 16.2949 11.75 16.4612 11.75 16.6346V20.5577C11.7519 21.6709 11.986 22.7709 12.4367 23.7853C12.8875 24.7997 13.5446 25.7053 14.3648 26.4423H12.3929C12.2224 26.4423 12.0588 26.5112 11.9383 26.6338C11.8177 26.7564 11.75 26.9227 11.75 27.0962C11.75 27.2696 11.8177 27.4359 11.9383 27.5585C12.0588 27.6811 12.2224 27.75 12.3929 27.75H26.5357C26.7062 27.75 26.8697 27.6811 26.9903 27.5585C27.1108 27.4359 27.1786 27.2696 27.1786 27.0962C27.1786 26.9227 27.1108 26.7564 26.9903 26.6338C26.8697 26.5112 26.7062 26.4423 26.5357 26.4423H24.5638C25.5483 25.5548 26.2949 24.4273 26.7334 23.1657C27.5499 23.1146 28.3165 22.7487 28.877 22.1426C29.4375 21.5365 29.7497 20.7359 29.75 19.9038V19.25C29.75 18.3829 29.4114 17.5514 28.8086 16.9383C28.2058 16.3252 27.3882 15.9808 26.5357 15.9808ZM28.4643 19.9038C28.464 20.3269 28.3293 20.7385 28.0802 21.0772C27.8311 21.416 27.481 21.6638 27.0821 21.7837C27.1458 21.3782 27.1781 20.9683 27.1786 20.5577V17.4012C27.5545 17.5364 27.88 17.7868 28.1102 18.1179C28.3405 18.4489 28.4642 18.8445 28.4643 19.25V19.9038ZM18.8214 14.0192V11.4038C18.8214 11.2304 18.8892 11.0641 19.0097 10.9415C19.1303 10.8189 19.2938 10.75 19.4643 10.75C19.6348 10.75 19.7983 10.8189 19.9189 10.9415C20.0394 11.0641 20.1071 11.2304 20.1071 11.4038V14.0192C20.1071 14.1926 20.0394 14.3589 19.9189 14.4816C19.7983 14.6042 19.6348 14.6731 19.4643 14.6731C19.2938 14.6731 19.1303 14.6042 19.0097 14.4816C18.8892 14.3589 18.8214 14.1926 18.8214 14.0192ZM21.3929 14.0192V11.4038C21.3929 11.2304 21.4606 11.0641 21.5811 10.9415C21.7017 10.8189 21.8652 10.75 22.0357 10.75C22.2062 10.75 22.3697 10.8189 22.4903 10.9415C22.6108 11.0641 22.6786 11.2304 22.6786 11.4038V14.0192C22.6786 14.1926 22.6108 14.3589 22.4903 14.4816C22.3697 14.6042 22.2062 14.6731 22.0357 14.6731C21.8652 14.6731 21.7017 14.6042 21.5811 14.4816C21.4606 14.3589 21.3929 14.1926 21.3929 14.0192ZM16.25 14.0192V11.4038C16.25 11.2304 16.3177 11.0641 16.4383 10.9415C16.5588 10.8189 16.7224 10.75 16.8929 10.75C17.0634 10.75 17.2269 10.8189 17.3474 10.9415C17.468 11.0641 17.5357 11.2304 17.5357 11.4038V14.0192C17.5357 14.1926 17.468 14.3589 17.3474 14.4816C17.2269 14.6042 17.0634 14.6731 16.8929 14.6731C16.7224 14.6731 16.5588 14.6042 16.4383 14.4816C16.3177 14.3589 16.25 14.1926 16.25 14.0192Z" fill="black"/>
</svg>
