<svg width="40" height="40" viewBox="0 0 40 40" fill="none" xmlns="http://www.w3.org/2000/svg">
<rect width="40" height="40" rx="20" fill="white"/>
<path d="M21.5045 14.75C21.5045 14.1567 21.6804 13.5766 22.0101 13.0833C22.3397 12.5899 22.8083 12.2054 23.3564 11.9784C23.9046 11.7513 24.5078 11.6919 25.0898 11.8076C25.6717 11.9234 26.2063 12.2091 26.6258 12.6287C27.0454 13.0482 27.3311 13.5828 27.4468 14.1647C27.5626 14.7467 27.5032 15.3499 27.2761 15.8981C27.0491 16.4462 26.6645 16.9148 26.1712 17.2444C25.6779 17.5741 25.0978 17.75 24.5045 17.75C23.7088 17.75 22.9458 17.4339 22.3832 16.8713C21.8206 16.3087 21.5045 15.5457 21.5045 14.75ZM27.7754 25.2678C24.7914 27.7419 22.7392 26.6281 20.3626 25.3372C17.8679 23.9834 15.0414 22.4488 11.2754 25.5706C11.1988 25.6333 11.1353 25.7104 11.0886 25.7977C11.0419 25.885 11.013 25.9807 11.0035 26.0792C10.994 26.1777 11.004 26.2772 11.0331 26.3718C11.0622 26.4664 11.1097 26.5543 11.173 26.6305C11.2362 26.7066 11.3139 26.7695 11.4015 26.8155C11.4892 26.8615 11.585 26.8897 11.6836 26.8984C11.7822 26.9072 11.8816 26.8964 11.976 26.8665C12.0703 26.8367 12.1579 26.7885 12.2336 26.7247C15.2176 24.2506 17.2698 25.3653 19.6464 26.6553C21.0629 27.4241 22.5854 28.2491 24.3273 28.2491C25.6529 28.2491 27.1061 27.77 28.7336 26.4209C28.8867 26.2939 28.9831 26.1112 29.0016 25.913C29.0201 25.7149 28.959 25.5175 28.832 25.3644C28.7049 25.2112 28.5222 25.1148 28.3241 25.0963C28.126 25.0779 27.9286 25.1389 27.7754 25.2659V25.2678ZM11.2754 21.8216C11.1988 21.8842 11.1353 21.9614 11.0886 22.0487C11.0419 22.136 11.013 22.2316 11.0035 22.3301C10.994 22.4287 11.004 22.5281 11.0331 22.6227C11.0622 22.7173 11.1097 22.8052 11.173 22.8814C11.2362 22.9576 11.3139 23.0204 11.4015 23.0664C11.4892 23.1124 11.585 23.1406 11.6836 23.1494C11.7822 23.1581 11.8816 23.1473 11.976 23.1175C12.0703 23.0877 12.1579 23.0394 12.2336 22.9756C15.2176 20.5025 17.2698 21.6163 19.6464 22.9063C21.0629 23.675 22.5854 24.5 24.3273 24.5C25.6529 24.5 27.1061 24.0209 28.7336 22.6719C28.8102 22.6092 28.8737 22.5321 28.9204 22.4448C28.967 22.3575 28.996 22.2618 29.0055 22.1633C29.015 22.0648 29.005 21.9653 28.9759 21.8707C28.9468 21.7761 28.8993 21.6882 28.836 21.612C28.7728 21.5359 28.6951 21.473 28.6075 21.427C28.5198 21.381 28.4239 21.3528 28.3253 21.3441C28.2268 21.3353 28.1274 21.3461 28.033 21.376C27.9386 21.4058 27.8511 21.454 27.7754 21.5178C27.2332 21.9835 26.6239 22.3646 25.9679 22.6484L20.9204 17.6028C20.017 16.6953 18.9425 15.9759 17.7593 15.4863C16.5761 14.9966 15.3075 14.7463 14.027 14.75H11.7545C11.5556 14.75 11.3648 14.829 11.2242 14.9697C11.0835 15.1103 11.0045 15.3011 11.0045 15.5C11.0045 15.6989 11.0835 15.8897 11.2242 16.0303C11.3648 16.171 11.5556 16.25 11.7545 16.25H14.027C15.3978 16.2474 16.7475 16.5877 17.9532 17.24L15.1754 20.0159C13.9876 20.1275 12.6986 20.6413 11.2754 21.8206V21.8216Z" fill="#627856"/>
</svg>
