<svg width="40" height="40" viewBox="0 0 40 40" fill="none" xmlns="http://www.w3.org/2000/svg">
<rect width="40" height="40" rx="20" fill="white"/>
<path d="M28.9494 11.7567C28.9387 11.5732 28.861 11.4 28.731 11.2701C28.6011 11.1401 28.4279 11.0624 28.2444 11.0517C21.1072 10.6326 15.3904 12.7814 12.9529 16.8126C12.1079 18.1916 11.6916 19.7904 11.7566 21.4064C11.799 22.4397 12.0093 23.4593 12.3791 24.4251C12.4008 24.4845 12.4373 24.5375 12.485 24.5791C12.5327 24.6207 12.5902 24.6495 12.652 24.6629C12.7139 24.6763 12.7781 24.6738 12.8387 24.6556C12.8994 24.6375 12.9544 24.6043 12.9988 24.5592L20.9675 16.4685C21.0372 16.3989 21.1199 16.3436 21.211 16.3059C21.302 16.2682 21.3996 16.2488 21.4982 16.2488C21.5967 16.2488 21.6943 16.2682 21.7853 16.3059C21.8764 16.3436 21.9591 16.3989 22.0288 16.4685C22.0985 16.5382 22.1537 16.621 22.1915 16.712C22.2292 16.803 22.2486 16.9006 22.2486 16.9992C22.2486 17.0977 22.2292 17.1953 22.1915 17.2863C22.1537 17.3774 22.0985 17.4601 22.0288 17.5298L13.3204 26.3695L11.99 27.6998C11.8517 27.8345 11.7691 28.0163 11.7587 28.2091C11.7482 28.4019 11.8108 28.5916 11.9338 28.7404C12.0012 28.8184 12.0839 28.8817 12.1768 28.9264C12.2698 28.971 12.3709 28.996 12.4739 28.9997C12.5769 29.0035 12.6796 28.986 12.7756 28.9483C12.8715 28.9107 12.9587 28.8536 13.0316 28.7807L14.6057 27.2067C15.9313 27.8479 17.2691 28.1976 18.5957 28.2445C18.7 28.2482 18.8041 28.2501 18.9079 28.2501C20.4185 28.254 21.9006 27.8379 23.1885 27.0482C27.2197 24.6107 29.3694 18.8948 28.9494 11.7567Z" fill="#627856"/>
</svg>
