<svg width="40" height="40" viewBox="0 0 40 40" fill="none" xmlns="http://www.w3.org/2000/svg">
<rect width="40" height="40" rx="20" fill="white"/>
<path d="M30.0819 22.0821C29.4763 24.0593 28.2624 25.7951 26.6132 27.0424C25.1652 28.1322 23.4421 28.7969 21.6373 28.9618C19.8326 29.1268 18.0175 28.7854 16.396 27.9761C14.7745 27.1668 13.4106 25.9215 12.4574 24.3802C11.5043 22.8388 10.9996 21.0622 11 19.2499C10.9935 17.1346 11.6812 15.0756 12.9575 13.3887C14.2049 11.7394 15.9407 10.5256 17.9179 9.91993C18.0482 9.8798 18.187 9.87596 18.3193 9.90882C18.4516 9.94167 18.5725 10.01 18.6689 10.1064C18.7653 10.2028 18.8336 10.3237 18.8665 10.456C18.8993 10.5883 18.8955 10.7271 18.8554 10.8574C18.423 12.2875 18.3868 13.8081 18.7505 15.2572C19.1142 16.7062 19.8642 18.0295 20.9206 19.0859C21.977 20.1423 23.3003 20.8924 24.7494 21.2561C26.1984 21.6198 27.719 21.5835 29.1491 21.1512C29.2794 21.1111 29.4182 21.1072 29.5505 21.1401C29.6829 21.1729 29.8037 21.2412 29.9002 21.3376C29.9966 21.4341 30.0649 21.5549 30.0977 21.6873C30.1306 21.8196 30.1267 21.9584 30.0866 22.0887L30.0819 22.0821Z" fill="#627856"/>
</svg>
