<svg width="100" height="112" viewBox="0 0 100 112" fill="none" xmlns="http://www.w3.org/2000/svg">
<path fill-rule="evenodd" clip-rule="evenodd" d="M74.952 12.8007C78.2195 14.6863 81.5105 16.525 84.7781 18.3872C87.1205 19.7106 89.4628 21.0458 91.7349 22.4746C94.0187 23.9269 96.853 25.8008 98.2233 28.1783C99.5935 30.5557 99.8044 33.9522 99.9215 36.6576C100.027 39.3396 100.003 42.0333 99.98 44.7153C99.9566 48.4865 99.9098 52.2577 99.9098 56.0172C99.9098 59.7883 99.9566 63.5595 99.98 67.3307C100.003 70.0127 100.027 72.7064 99.9215 75.3884C99.8044 78.0939 99.5935 81.4903 98.2233 83.8678C96.853 86.2453 94.0187 88.1191 91.7349 89.5714C89.4628 91.0002 87.1205 92.3237 84.7781 93.6588C81.4988 95.5093 78.2195 97.3597 74.952 99.2453C71.7429 101.108 68.5456 102.993 65.3483 104.879C63.0411 106.226 60.7338 107.584 58.3681 108.826C55.8969 110.126 52.8401 111.625 50.0176 111.66C47.1833 111.695 44.1265 110.266 41.6436 109.001C39.2544 107.795 36.9355 106.46 34.6166 105.113C31.3841 103.239 28.1517 101.342 24.9192 99.4679C21.6633 97.594 18.4075 95.7552 15.1516 93.8813C12.8327 92.5462 10.5137 91.1993 8.26507 89.7471C5.93443 88.2246 3.17044 86.3038 1.78845 83.8443C0.406465 81.3849 0.195652 77.9767 0.0785346 75.201C-0.0268714 72.5308 -0.00344788 69.8488 0.0199757 67.1785C0.0433992 63.4659 0.0902464 59.7415 0.0902464 56.0172C0.0902464 52.2577 0.0433992 48.4865 0.0199757 44.7153C-0.00344788 42.0333 -0.0268714 39.3396 0.0902464 36.6576C0.195652 33.9522 0.406465 30.5557 1.77674 28.1783C3.14702 25.8008 5.98127 23.9269 8.27678 22.4746C10.5489 21.0341 12.8795 19.7106 15.2219 18.3872C18.5012 16.525 21.7805 14.6863 25.0481 12.8007C28.3039 10.9151 31.5481 8.99436 34.804 7.08534C37.1229 5.72677 39.4301 4.3565 41.8193 3.11505C44.2085 1.85018 47.2536 0.339355 50.0059 0.339355C52.7464 0.339355 55.7915 1.85018 58.1924 3.11505C60.5699 4.3565 62.8888 5.72677 65.2077 7.08534C68.4519 8.99436 71.6961 10.9151 74.952 12.8007Z" fill="#4A611C"/>
<path fill-rule="evenodd" clip-rule="evenodd" d="M73.5156 15.3073C70.2363 13.4217 66.9921 11.5009 63.7362 9.58021C61.4642 8.24506 59.1804 6.89821 56.8497 5.68018C55.0227 4.71982 52.1416 3.23242 50.01 3.23242C47.8785 3.23242 44.9974 4.71982 43.1704 5.68018C40.828 6.89821 38.5442 8.24506 36.2721 9.58021C33.0162 11.5009 29.7721 13.4217 26.5045 15.3073C23.2252 17.1929 19.9342 19.0433 16.6549 20.9055C14.3594 22.2055 12.0522 23.5172 9.82692 24.9226C8.08186 26.0235 5.35302 27.7803 4.28724 29.6308C3.22147 31.4695 3.06922 34.7137 2.98724 36.775C2.88183 39.4101 2.90525 42.057 2.91697 44.6921C2.9521 48.475 2.99895 52.2462 2.99895 56.0174C2.99895 59.7535 2.9521 63.4778 2.91697 67.2022C2.90525 69.8256 2.88183 72.4608 2.98724 75.0842C3.06922 77.2509 3.23318 80.4833 4.32238 82.4275C5.39986 84.3599 8.04672 86.1401 9.85034 87.3113C12.0522 88.7401 14.336 90.0636 16.608 91.3753C19.8522 93.2492 23.1198 95.0879 26.3639 96.9618C29.6081 98.8357 32.8288 100.733 36.073 102.607C38.3451 103.919 40.6289 105.242 42.9595 106.425C44.892 107.397 47.7497 108.791 49.9749 108.767C52.2236 108.732 55.1047 107.268 57.0254 106.261C59.3443 105.043 61.6164 103.708 63.8768 102.373C67.0858 100.499 70.2831 98.6015 73.5156 96.7393C76.7832 94.842 80.0742 93.0032 83.3535 91.1293C85.649 89.8293 87.9562 88.5293 90.1814 87.1122C91.9265 86.0113 94.6553 84.2662 95.7211 82.4158C96.7869 80.5653 96.9391 77.3329 97.0211 75.2716C97.1265 72.6364 97.1031 69.9779 97.0914 67.3427C97.0563 63.5715 97.0211 59.8003 97.0211 56.0174C97.0211 52.2462 97.0563 48.475 97.0914 44.6921C97.1031 42.057 97.1265 39.4101 97.0211 36.775C96.9391 34.7137 96.7869 31.4695 95.7211 29.6308C94.6553 27.7803 91.9265 26.0235 90.1814 24.9226C87.9562 23.5172 85.649 22.2055 83.3535 20.9055C80.0742 19.0433 76.7832 17.1929 73.5156 15.3073ZM72.0633 17.8136C68.7957 15.9163 65.5399 13.9955 62.2723 12.0748C60.0353 10.7631 57.7984 9.43967 55.5029 8.23335C54.2029 7.55407 51.474 6.12523 50.01 6.12523C48.5343 6.12523 45.8055 7.55407 44.5055 8.23335C42.21 9.43967 39.973 10.7631 37.7361 12.0748C34.4685 13.9955 31.2243 15.9163 27.945 17.8136C24.6657 19.6992 21.3747 21.5496 18.0837 23.4235C15.8233 24.7001 13.563 25.9767 11.3729 27.3704C10.1314 28.1551 7.53141 29.8065 6.79356 31.0713C6.05572 32.3479 5.92689 35.4281 5.86833 36.8921C5.76293 39.4804 5.78635 42.0804 5.80977 44.6687C5.84491 48.4516 5.88005 52.2345 5.88005 56.0174C5.88005 59.7535 5.8332 63.4895 5.80977 67.2256C5.78635 69.8022 5.76293 72.3905 5.86833 74.9671C5.92689 76.5599 6.05572 79.6167 6.84041 81.0104C7.61339 82.3923 10.1197 84.0437 11.4314 84.887C13.5864 86.2924 15.8116 87.5807 18.0486 88.869C21.2927 90.7429 24.5603 92.5816 27.8162 94.4672C31.0487 96.3294 34.2811 98.2384 37.5253 100.112C39.7505 101.401 41.9757 102.677 44.2713 103.848C45.6767 104.563 48.347 105.898 49.9398 105.874C51.556 105.851 54.2614 104.446 55.6902 103.696C57.974 102.501 60.1993 101.19 62.4128 99.8897C65.6335 98.0042 68.8426 96.0951 72.0633 94.233C75.3426 92.3474 78.6453 90.4852 81.9246 88.623C84.185 87.3464 86.4454 86.0581 88.6472 84.6761C89.8769 83.8915 92.4887 82.2401 93.2148 80.9752C93.9526 79.6986 94.0815 76.6184 94.14 75.1545C94.2454 72.5662 94.222 69.9661 94.1986 67.3661C94.1752 63.5832 94.1283 59.8003 94.1283 56.0174C94.1283 52.2345 94.1752 48.4516 94.1986 44.6687C94.222 42.0804 94.2454 39.4804 94.14 36.8921C94.0815 35.4281 93.9526 32.3479 93.2148 31.0713C92.4887 29.8065 89.8769 28.1551 88.6472 27.3704C86.4454 25.9767 84.185 24.7001 81.9246 23.4235C78.6453 21.5614 75.3426 19.6992 72.0633 17.8136Z" fill="#D7B56D"/>
<path fill-rule="evenodd" clip-rule="evenodd" d="M50.0085 87.4165L43.9886 90.8832V97.8283L50.0085 101.307L56.0166 97.8283V90.8832L50.0085 87.4165ZM50.0085 88.8336C53.0536 88.8336 55.5365 91.3048 55.5365 94.3616C55.5365 97.4184 53.0536 99.8895 50.0085 99.8895C46.9517 99.8895 44.4688 97.4184 44.4688 94.3616C44.4688 91.3048 46.9517 88.8336 50.0085 88.8336ZM50.0085 90.0868C52.3626 90.0868 54.2833 91.9958 54.2833 94.3616C54.2833 96.7274 52.3626 98.6364 50.0085 98.6364C47.6427 98.6364 45.722 96.7274 45.722 94.3616C45.722 91.9958 47.6427 90.0868 50.0085 90.0868ZM39.4913 92.6868C38.6832 92.6868 38.0391 93.3427 38.0391 94.1391C38.0391 94.9355 38.6832 95.5913 39.4913 95.5913C40.2877 95.5913 40.9319 94.9355 40.9319 94.1391C40.9319 93.3427 40.2877 92.6868 39.4913 92.6868ZM39.4913 93.776C39.2805 93.776 39.1283 93.94 39.1283 94.1391C39.1283 94.3382 39.2805 94.5021 39.4913 94.5021C39.6904 94.5021 39.8427 94.3382 39.8427 94.1391C39.8427 93.94 39.6904 93.776 39.4913 93.776ZM60.5257 92.6868C61.3221 92.6868 61.9662 93.3427 61.9662 94.1391C61.9662 94.9355 61.3221 95.5913 60.5257 95.5913C59.7176 95.5913 59.0734 94.9355 59.0734 94.1391C59.0734 93.3427 59.7176 92.6868 60.5257 92.6868ZM60.5257 93.776C60.7248 93.776 60.8887 93.94 60.8887 94.1391C60.8887 94.3382 60.7248 94.5021 60.5257 94.5021C60.3266 94.5021 60.1626 94.3382 60.1626 94.1391C60.1626 93.94 60.3266 93.776 60.5257 93.776ZM47.4436 96.1535H46.8697V93.5301C46.6589 93.7643 46.413 93.94 46.1319 94.0571V93.4246C46.2842 93.3544 46.4481 93.2373 46.6238 93.0733C46.7995 92.9093 46.9166 92.7219 46.9752 92.4994H47.4436V96.1535ZM47.8067 95.3102L48.3689 95.24C48.3923 95.5093 48.4977 95.6382 48.6851 95.6382C48.8139 95.6382 48.9193 95.5796 49.0013 95.4391C49.0833 95.3102 49.1301 95.0292 49.1535 94.6192C49.0833 94.7247 49.0013 94.7949 48.9193 94.8535C48.8256 94.9003 48.7319 94.9238 48.6148 94.9238C48.3923 94.9238 48.1932 94.8183 48.0175 94.5958C47.8418 94.385 47.7481 94.0922 47.7481 93.7409C47.7481 93.3544 47.8418 93.0499 48.0292 92.8273C48.2166 92.6165 48.4391 92.4994 48.7085 92.4994C49.013 92.4994 49.2589 92.64 49.458 92.9328C49.6454 93.2138 49.7508 93.6823 49.7508 94.3382C49.7508 95.0057 49.6454 95.4859 49.4463 95.7787C49.2355 96.0715 48.9779 96.2121 48.6499 96.2121C48.4274 96.2121 48.24 96.1418 48.0878 96.0012C47.9472 95.849 47.8535 95.6147 47.8067 95.3102ZM49.1067 93.7877C49.1067 93.5652 49.0598 93.3895 48.9779 93.2607C48.8959 93.1436 48.7905 93.085 48.6851 93.085C48.5797 93.085 48.486 93.1319 48.4157 93.2373C48.3454 93.331 48.3103 93.5066 48.3103 93.7292C48.3103 93.9634 48.3571 94.1391 48.4274 94.2445C48.5094 94.3616 48.6031 94.4084 48.7085 94.4084C48.8256 94.4084 48.9193 94.3616 48.9896 94.2562C49.0716 94.1508 49.1067 93.9985 49.1067 93.7877ZM49.8797 95.3102L50.4418 95.24C50.4653 95.5093 50.5707 95.6382 50.7581 95.6382C50.8869 95.6382 50.9923 95.5796 51.0743 95.4391C51.1563 95.3102 51.2031 95.0292 51.2265 94.6192C51.1563 94.7247 51.0743 94.7949 50.9923 94.8535C50.8986 94.9003 50.8049 94.9238 50.6878 94.9238C50.4653 94.9238 50.2662 94.8183 50.0905 94.5958C49.9148 94.385 49.8211 94.0922 49.8211 93.7409C49.8211 93.3544 49.9148 93.0499 50.1022 92.8273C50.2896 92.6165 50.5121 92.4994 50.7815 92.4994C51.086 92.4994 51.3319 92.64 51.531 92.9328C51.7184 93.2138 51.8238 93.6823 51.8238 94.3382C51.8238 95.0057 51.7184 95.4859 51.5193 95.7787C51.3085 96.0715 51.0508 96.2121 50.7229 96.2121C50.5004 96.2121 50.313 96.1418 50.1608 96.0012C50.0202 95.849 49.9265 95.6147 49.8797 95.3102ZM51.1797 93.7877C51.1797 93.5652 51.1328 93.3895 51.0508 93.2607C50.9689 93.1436 50.8635 93.085 50.7581 93.085C50.6526 93.085 50.559 93.1319 50.4887 93.2373C50.4184 93.331 50.3833 93.5066 50.3833 93.7292C50.3833 93.9634 50.4184 94.1391 50.5004 94.2445C50.5824 94.3616 50.6761 94.4084 50.7815 94.4084C50.8986 94.4084 50.9923 94.3616 51.0626 94.2562C51.1445 94.1508 51.1797 93.9985 51.1797 93.7877ZM53.8734 95.5093V96.1535H51.8707C51.8941 95.9075 51.9644 95.6733 52.0698 95.4625C52.1752 95.24 52.3977 94.9472 52.7139 94.5841C52.9599 94.303 53.1121 94.1039 53.1707 94.0102C53.2644 93.858 53.2995 93.7174 53.2995 93.5652C53.2995 93.4012 53.2644 93.2841 53.1941 93.2021C53.1238 93.1201 53.0301 93.085 52.913 93.085C52.6671 93.085 52.5265 93.2724 52.5031 93.6589L51.9409 93.5769C51.9761 93.2021 52.0815 92.9328 52.2455 92.7571C52.4211 92.5931 52.6437 92.4994 52.9364 92.4994C53.241 92.4994 53.4752 92.6048 53.6392 92.8039C53.8031 93.0147 53.8734 93.249 53.8734 93.5066C53.8734 93.6589 53.8617 93.7994 53.8148 93.94C53.7797 94.0805 53.7094 94.221 53.6274 94.3616C53.5455 94.5021 53.4049 94.6895 53.2058 94.912C53.0301 95.1111 52.913 95.2517 52.8545 95.322C52.8076 95.3805 52.7725 95.4508 52.7373 95.5093H53.8734Z" fill="#D7B56D"/>
<path fill-rule="evenodd" clip-rule="evenodd" d="M6.34375 67.1084H18.1141V68.2679H6.34375V67.1084ZM6.34375 71.1138H18.1141V72.2733H6.34375V71.1138ZM82.8568 71.1138H94.6272V72.2733H82.8568V71.1138ZM6.34375 69.1111H18.1141V70.2706H6.34375V69.1111ZM82.8568 69.1111H94.6272V70.2706H82.8568V69.1111ZM82.8568 67.1084H94.6272V68.2679H82.8568V67.1084Z" fill="white"/>
<path fill-rule="evenodd" clip-rule="evenodd" d="M49.8232 14.6748C54.4259 14.6748 58.162 18.4109 58.162 23.0136C58.162 27.628 54.4259 31.3524 49.8232 31.3524C45.2087 31.3524 41.4844 27.628 41.4844 23.0136C41.4844 18.4109 45.2087 14.6748 49.8232 14.6748ZM49.8232 17.5676L46.8249 20.5541L46.9772 20.7064C47.6096 20.273 48.3358 20.0154 49.0736 19.9568L45.8294 23.201L46.415 23.7866C47.1412 23.1658 47.9727 22.7559 48.8511 22.5451L45.033 26.3632L45.2673 26.5974C47.8907 24.8172 51.4394 24.9812 53.8872 27.0893L54.6016 26.3632L50.6547 22.4163C51.6268 22.4983 52.5871 22.8262 53.4187 23.3884L53.6061 23.201L50.4556 20.0505C51.1466 20.2028 51.8025 20.519 52.3646 20.9992L52.8097 20.5541L49.8232 17.5676Z" fill="#D7B56D"/>
<path d="M25.8449 59.2849L25.4115 56.3218H22.4953L22.0971 59.2849H21.1719L23.5142 43.4388H24.4278L26.7701 59.2849H25.8449ZM24.6503 50.8758L23.971 45.5587L23.2917 50.8758L22.6358 55.4668H25.3061L24.6503 50.8758ZM31.2909 59.2849V51.8011H28.5854V59.2849H27.6719V43.4623H28.5854V50.9461H31.2909V43.4623H32.2044V59.2849H31.2909ZM35.2494 59.2849V44.3407H33.2116V43.4623H38.1891V44.3407H36.1512V59.2849H35.2494ZM42.827 59.2849V50.2434L42.8972 47.2803L40.1098 58.5822L40.0396 59.2849H39.208V43.4623H40.1098V52.5038L40.0396 55.4668L42.827 44.165L42.8972 43.4623H43.7288V59.2849H42.827ZM49.0459 54.7641H49.9477V57.0245C49.9477 57.8326 49.772 58.4533 49.409 58.875C49.0576 59.2966 48.4837 59.5074 47.6873 59.5074C46.8909 59.5074 46.3054 59.2966 45.954 58.875C45.6026 58.4533 45.427 57.8326 45.427 57.0245V45.6992C45.427 44.8794 45.6026 44.2704 45.954 43.8605C46.3054 43.4388 46.8909 43.2397 47.6873 43.2397C48.4837 43.2397 49.0576 43.4388 49.409 43.8605C49.772 44.2704 49.9477 44.8794 49.9477 45.6992V47.983H49.0459V45.6992C49.0459 45.1722 48.9405 44.774 48.7297 44.5046C48.5189 44.2235 48.1675 44.0947 47.6873 44.0947C47.2072 44.0947 46.8558 44.2235 46.645 44.5046C46.4342 44.774 46.3288 45.1722 46.3288 45.6992V57.0245C46.3288 57.5515 46.4342 57.9497 46.645 58.2308C46.8558 58.5119 47.2072 58.6524 47.6873 58.6524C48.1675 58.6524 48.5189 58.5119 48.7297 58.2308C48.9405 57.9497 49.0459 57.5515 49.0459 57.0245V54.7641ZM52.7703 59.2849V44.3407H50.7324V43.4623H55.7099V44.3407H53.6721V59.2849H52.7703ZM56.7288 59.2849V45.7226C56.7288 44.9028 56.9045 44.2938 57.2559 43.8722C57.6072 43.4506 58.1928 43.2397 58.9892 43.2397C59.7856 43.2397 60.3595 43.4506 60.7226 43.8722C61.0739 44.2938 61.2496 44.9028 61.2496 45.7226V51.2389C61.2496 52.047 61.0739 52.6677 60.7226 53.0894C60.3595 53.511 59.7973 53.7218 59.0361 53.7218H57.6306V59.2849H56.7288ZM60.3478 45.7226C60.3478 45.1956 60.2424 44.7857 60.0316 44.5163C59.8208 44.2352 59.4694 44.0947 58.9892 44.0947C58.509 44.0947 58.1577 44.2352 57.9469 44.5163C57.7361 44.7857 57.6306 45.1956 57.6306 45.7226V52.8434L58.9892 52.8668C59.4694 52.8785 59.8208 52.7497 60.0316 52.4569C60.2424 52.1758 60.3478 51.7659 60.3478 51.2389V45.7226ZM66.9884 57.0245C66.9884 57.8326 66.8127 58.4533 66.4613 58.875C66.11 59.2966 65.5244 59.5074 64.728 59.5074C63.9316 59.5074 63.3577 59.2966 63.0064 58.875C62.6433 58.4533 62.4676 57.8326 62.4676 57.0245V53.6281C62.4676 52.4569 62.8424 51.7074 63.6037 51.3677C62.8424 51.0398 62.4676 50.2902 62.4676 49.1073V45.6992C62.4676 44.8794 62.6433 44.2704 63.0064 43.8605C63.3577 43.4388 63.9316 43.2397 64.728 43.2397C65.5244 43.2397 66.11 43.4388 66.4613 43.8605C66.8127 44.2704 66.9884 44.8794 66.9884 45.6992V47.983H66.0866V45.6992C66.0866 45.1722 65.9811 44.774 65.7703 44.5046C65.5595 44.2235 65.2082 44.0947 64.728 44.0947C64.2478 44.0947 63.8965 44.2235 63.6856 44.5046C63.4748 44.774 63.3694 45.1722 63.3694 45.6992V49.1073C63.3694 49.7046 63.4748 50.1497 63.6856 50.4659C63.8965 50.7821 64.2478 50.9461 64.728 50.9461H65.864V51.8011H64.728C64.2478 51.8011 63.8965 51.965 63.6856 52.2812C63.4748 52.5975 63.3694 53.0425 63.3694 53.6281V57.0245C63.3694 57.5515 63.4748 57.9497 63.6856 58.2308C63.8965 58.5119 64.2478 58.6524 64.728 58.6524C65.2082 58.6524 65.5595 58.5119 65.7703 58.2308C65.9811 57.9497 66.0866 57.5515 66.0866 57.0245V54.7641H66.9884V57.0245ZM72.083 54.7641H72.9848V57.0245C72.9848 57.8326 72.8091 58.4533 72.4461 58.875C72.0947 59.2966 71.5208 59.5074 70.7244 59.5074C69.928 59.5074 69.3424 59.2966 68.9911 58.875C68.6397 58.4533 68.464 57.8326 68.464 57.0245V45.6992C68.464 44.8794 68.6397 44.2704 68.9911 43.8605C69.3424 43.4388 69.928 43.2397 70.7244 43.2397C71.5208 43.2397 72.0947 43.4388 72.4461 43.8605C72.8091 44.2704 72.9848 44.8794 72.9848 45.6992V47.983H72.083V45.6992C72.083 45.1722 71.9776 44.774 71.7668 44.5046C71.5442 44.2235 71.2046 44.0947 70.7244 44.0947C70.2442 44.0947 69.8929 44.2235 69.6821 44.5046C69.4713 44.774 69.3659 45.1722 69.3659 45.6992V57.0245C69.3659 57.5515 69.4713 57.9497 69.6821 58.2308C69.8929 58.5119 70.2442 58.6524 70.7244 58.6524C71.2046 58.6524 71.5442 58.5119 71.7668 58.2308C71.9776 57.9497 72.083 57.5515 72.083 57.0245V54.7641ZM78.0677 54.7641H78.9695V57.0245C78.9695 57.8326 78.7938 58.4533 78.4425 58.875C78.0911 59.2966 77.5055 59.5074 76.7091 59.5074C75.9127 59.5074 75.3389 59.2966 74.9875 58.875C74.6244 58.4533 74.4488 57.8326 74.4488 57.0245V45.6992C74.4488 44.8794 74.6244 44.2704 74.9875 43.8605C75.3389 43.4388 75.9127 43.2397 76.7091 43.2397C77.5055 43.2397 78.0911 43.4388 78.4425 43.8605C78.7938 44.2704 78.9695 44.8794 78.9695 45.6992V47.983H78.0677V45.6992C78.0677 45.1722 77.9623 44.774 77.7515 44.5046C77.5407 44.2235 77.1893 44.0947 76.7091 44.0947C76.229 44.0947 75.8776 44.2235 75.6668 44.5046C75.456 44.774 75.3506 45.1722 75.3506 45.6992V57.0245C75.3506 57.5515 75.456 57.9497 75.6668 58.2308C75.8776 58.5119 76.229 58.6524 76.7091 58.6524C77.1893 58.6524 77.5407 58.5119 77.7515 58.2308C77.9623 57.9497 78.0677 57.5515 78.0677 57.0245V54.7641ZM24.7791 75.5408V69.2516L24.826 67.202L22.8935 75.0489L22.8467 75.5408H22.2611V64.5435H22.8935V70.8327L22.8467 72.8823L24.7791 65.0354L24.826 64.5435H25.4115V75.5408H24.7791ZM31.3728 71.6174C31.3728 71.2075 31.3026 70.8913 31.1503 70.6687C31.0098 70.4462 30.7638 70.3408 30.4359 70.3408H29.6395V69.7435H30.4359C30.7638 69.7435 31.0098 69.6381 31.1503 69.4156C31.3026 69.1931 31.3728 68.8768 31.3728 68.4669V66.1011C31.3728 65.7381 31.3026 65.457 31.1503 65.2696C31.0098 65.0822 30.7638 64.9885 30.4359 64.9885C30.0963 64.9885 29.8503 65.0822 29.7098 65.2696C29.5575 65.457 29.4872 65.7381 29.4872 66.1011V67.6822H28.8548V66.1011C28.8548 65.539 28.9836 65.1056 29.2296 64.8246C29.4755 64.5318 29.8737 64.3912 30.4359 64.3912C30.9863 64.3912 31.3845 64.5318 31.6305 64.8246C31.8764 65.1056 32.0053 65.539 32.0053 66.1011V68.4669C32.0053 69.2867 31.7359 69.8138 31.2206 70.048C31.7359 70.2705 32.0053 70.7976 32.0053 71.6174V73.9715C32.0053 74.5336 31.8764 74.967 31.6305 75.2598C31.3845 75.5526 30.9863 75.6931 30.4359 75.6931C29.8737 75.6931 29.4755 75.5526 29.2296 75.2598C28.9836 74.967 28.8548 74.5336 28.8548 73.9715V72.4021H29.4872V73.9715C29.4872 74.3345 29.5575 74.6156 29.7098 74.803C29.8503 75.0021 30.0963 75.0958 30.4359 75.0958C30.7638 75.0958 31.0098 75.0021 31.1503 74.803C31.3026 74.6156 31.3728 74.3345 31.3728 73.9715V71.6174ZM36.3855 76.8057V75.5408H33.235V76.8057H32.6963V74.9201C32.8251 74.9201 32.9422 74.8381 33.0476 74.6625C33.1413 74.4985 33.2233 74.276 33.2819 73.9949C33.3521 73.7255 33.399 73.421 33.4341 73.0931C33.4692 72.7534 33.4927 72.4255 33.5044 72.1093L33.762 65.9489C33.7738 65.4453 33.8909 65.0588 34.09 64.7894C34.2891 64.5201 34.6287 64.3912 35.1089 64.3912C35.5891 64.3912 35.9404 64.5201 36.1395 64.7894C36.3503 65.0588 36.4557 65.4453 36.4557 65.9489V74.9201H36.9359V76.8057H36.3855ZM35.835 65.9489C35.835 65.6327 35.7765 65.3867 35.6711 65.2345C35.5539 65.0705 35.3666 64.9885 35.1089 64.9885C34.8512 64.9885 34.6638 65.0705 34.5702 65.2345C34.4647 65.3867 34.4062 65.6327 34.3828 65.9489L34.1368 72.1093C34.1251 72.3787 34.1017 72.648 34.0783 72.9291C34.0548 73.1985 34.0197 73.4679 33.9729 73.7138C33.926 73.9715 33.8557 74.194 33.7738 74.4048C33.6918 74.6156 33.5864 74.7913 33.4575 74.9201H35.835V65.9489ZM37.6386 66.1011C37.6386 65.539 37.7558 65.1056 38.0017 64.8246C38.2477 64.5318 38.6576 64.3912 39.208 64.3912C39.7585 64.3912 40.1567 64.5318 40.4026 64.8246C40.6486 65.1056 40.7774 65.539 40.7774 66.1011V73.9715C40.7774 74.5336 40.6486 74.967 40.4026 75.2598C40.1567 75.5526 39.7585 75.6931 39.208 75.6931C38.6576 75.6931 38.2477 75.5526 38.0017 75.2598C37.7558 74.967 37.6386 74.5336 37.6386 73.9715V66.1011ZM40.145 66.1011C40.145 65.7381 40.0747 65.457 39.9341 65.2696C39.7819 65.0822 39.5359 64.9885 39.208 64.9885C38.8684 64.9885 38.6341 65.0822 38.4819 65.2696C38.3413 65.457 38.2594 65.7381 38.2594 66.1011V73.9715C38.2594 74.3345 38.3413 74.6156 38.4819 74.803C38.6341 75.0021 38.8684 75.0958 39.208 75.0958C39.5359 75.0958 39.7819 75.0021 39.9341 74.803C40.0747 74.6156 40.145 74.3345 40.145 73.9715V66.1011ZM41.9486 75.5408V66.1129C41.9486 65.5507 42.0774 65.1174 42.3234 64.8246C42.5693 64.5318 42.9675 64.3912 43.5297 64.3912C44.0801 64.3912 44.4783 64.5318 44.7243 64.8246C44.9702 65.1174 45.099 65.5507 45.099 66.1129V69.9426C45.099 70.5165 44.9702 70.9381 44.7243 71.2309C44.4783 71.5237 44.0918 71.676 43.5531 71.676H42.581V75.5408H41.9486ZM44.4666 66.1129C44.4666 65.7498 44.3963 65.4687 44.2441 65.2813C44.1035 65.0822 43.8576 64.9885 43.5297 64.9885C43.19 64.9885 42.9441 65.0822 42.8035 65.2813C42.6513 65.4687 42.581 65.7498 42.581 66.1129V71.0669L43.5297 71.0786C43.8576 71.0904 44.1035 70.9967 44.2441 70.7976C44.3963 70.5985 44.4666 70.3174 44.4666 69.9426V66.1129ZM45.954 66.1011C45.954 65.539 46.0828 65.1056 46.3288 64.8246C46.5747 64.5318 46.9729 64.3912 47.5234 64.3912C48.0855 64.3912 48.4837 64.5318 48.7297 64.8246C48.9756 65.1056 49.0928 65.539 49.0928 66.1011V73.9715C49.0928 74.5336 48.9756 74.967 48.7297 75.2598C48.4837 75.5526 48.0855 75.6931 47.5234 75.6931C46.9729 75.6931 46.5747 75.5526 46.3288 75.2598C46.0828 74.967 45.954 74.5336 45.954 73.9715V66.1011ZM48.472 66.1011C48.472 65.7381 48.4018 65.457 48.2495 65.2696C48.109 65.0822 47.863 64.9885 47.5234 64.9885C47.1955 64.9885 46.9495 65.0822 46.809 65.2696C46.6567 65.457 46.5864 65.7381 46.5864 66.1011V73.9715C46.5864 74.3345 46.6567 74.6156 46.809 74.803C46.9495 75.0021 47.1955 75.0958 47.5234 75.0958C47.863 75.0958 48.109 75.0021 48.2495 74.803C48.4018 74.6156 48.472 74.3345 48.472 73.9715V66.1011ZM53.2622 73.9715C53.2622 74.5336 53.1333 74.967 52.8874 75.2598C52.6414 75.5526 52.2432 75.6931 51.6928 75.6931C51.1306 75.6931 50.7324 75.5526 50.4865 75.2598C50.2405 74.967 50.1234 74.5336 50.1234 73.9715V66.1011C50.1234 65.539 50.2405 65.1056 50.4865 64.8246C50.7324 64.5318 51.1306 64.3912 51.6928 64.3912C52.2432 64.3912 52.6414 64.5318 52.8874 64.8246C53.1333 65.1056 53.2622 65.539 53.2622 66.1011V68.4669C53.2622 69.2867 52.9928 69.8138 52.4775 70.048C52.9928 70.2705 53.2622 70.7976 53.2622 71.6174V73.9715ZM52.6297 66.1011C52.6297 65.7381 52.5594 65.457 52.4072 65.2696C52.2667 65.0822 52.0207 64.9885 51.6928 64.9885C51.3531 64.9885 51.1072 65.0822 50.9666 65.2696C50.8144 65.457 50.7441 65.7381 50.7441 66.1011V69.7435H51.6928C52.0207 69.7435 52.2667 69.6381 52.4072 69.4156C52.5594 69.1931 52.6297 68.8768 52.6297 68.4669V66.1011ZM52.6297 71.6174C52.6297 71.2075 52.5594 70.8913 52.4072 70.6687C52.2667 70.4462 52.0207 70.3408 51.6928 70.3408H50.7441V73.9715C50.7441 74.3345 50.8144 74.6156 50.9666 74.803C51.1072 75.0021 51.3531 75.0958 51.6928 75.0958C52.0207 75.0958 52.2667 75.0021 52.4072 74.803C52.5594 74.6156 52.6297 74.3345 52.6297 73.9715V71.6174ZM58.3802 75.5408V64.5435H59.0009V75.5408H58.3802ZM56.9279 70.1417C56.9279 69.7669 56.8577 69.4858 56.7171 69.2985C56.5649 69.0994 56.3306 69.0057 55.991 69.0057C55.6514 69.0057 55.4171 69.0994 55.2649 69.2985C55.1243 69.4858 55.0541 69.7669 55.0541 70.1417V73.9715C55.0541 74.3345 55.1243 74.6156 55.2649 74.803C55.4171 75.0021 55.6514 75.0958 55.991 75.0958C56.3306 75.0958 56.5649 75.0021 56.7171 74.803C56.8577 74.6156 56.9279 74.3345 56.9279 73.9715V70.1417ZM54.4216 64.5435H55.0541V68.7129C55.2766 68.5138 55.6045 68.4084 56.0261 68.4084C56.5532 68.4084 56.9397 68.5606 57.1856 68.8534C57.4315 69.1462 57.5604 69.5678 57.5604 70.1417V73.9715C57.5604 74.5336 57.4315 74.967 57.1856 75.2598C56.9397 75.5526 56.5415 75.6931 55.991 75.6931C55.4405 75.6931 55.0306 75.5526 54.7847 75.2598C54.5387 74.967 54.4216 74.5336 54.4216 73.9715V64.5435ZM62.7721 75.5408V69.2516L62.819 67.202L60.8865 75.0489L60.8397 75.5408H60.2658V64.5435H60.8865V70.8327L60.8397 72.8823L62.7721 65.0354L62.819 64.5435H63.4046V75.5408H62.7721ZM63.0064 62.6579C63.0064 63.0678 62.9127 63.384 62.7253 63.5948C62.5379 63.8173 62.2334 63.9228 61.8352 63.9228C61.4136 63.9228 61.109 63.8173 60.9334 63.5948C60.746 63.384 60.6523 63.0678 60.6523 62.6579H61.2027C61.2027 63.1498 61.4136 63.3957 61.8352 63.3957C62.2451 63.3957 62.4559 63.1498 62.4559 62.6579H63.0064ZM69.4478 72.4021H70.0686V73.9715C70.0686 74.5336 69.9514 74.967 69.7055 75.2598C69.4595 75.5526 69.0613 75.6931 68.4992 75.6931C67.9487 75.6931 67.5505 75.5526 67.3046 75.2598C67.0586 74.967 66.9298 74.5336 66.9298 73.9715V66.1011C66.9298 65.539 67.0586 65.1056 67.3046 64.8246C67.5505 64.5318 67.9487 64.3912 68.4992 64.3912C69.0613 64.3912 69.4595 64.5318 69.7055 64.8246C69.9514 65.1056 70.0686 65.539 70.0686 66.1011V67.6822H69.4478V66.1011C69.4478 65.7381 69.3776 65.457 69.2253 65.2696C69.0848 65.0822 68.8388 64.9885 68.4992 64.9885C68.1713 64.9885 67.9253 65.0822 67.7848 65.2696C67.6325 65.457 67.5622 65.7381 67.5622 66.1011V73.9715C67.5622 74.3345 67.6325 74.6156 67.7848 74.803C67.9253 75.0021 68.1713 75.0958 68.4992 75.0958C68.8388 75.0958 69.0848 75.0021 69.2253 74.803C69.3776 74.6156 69.4478 74.3345 69.4478 73.9715V72.4021ZM71.0992 66.1011C71.0992 65.539 71.2163 65.1056 71.4623 64.8246C71.7082 64.5318 72.1064 64.3912 72.6686 64.3912C73.219 64.3912 73.6172 64.5318 73.8632 64.8246C74.1091 65.1056 74.238 65.539 74.238 66.1011V73.9715C74.238 74.5336 74.1091 74.967 73.8632 75.2598C73.6172 75.5526 73.219 75.6931 72.6686 75.6931C72.1064 75.6931 71.7082 75.5526 71.4623 75.2598C71.2163 74.967 71.0992 74.5336 71.0992 73.9715V66.1011ZM73.6055 66.1011C73.6055 65.7381 73.5352 65.457 73.383 65.2696C73.2425 65.0822 72.9965 64.9885 72.6686 64.9885C72.3289 64.9885 72.083 65.0822 71.9424 65.2696C71.7902 65.457 71.7199 65.7381 71.7199 66.1011V73.9715C71.7199 74.3345 71.7902 74.6156 71.9424 74.803C72.083 75.0021 72.3289 75.0958 72.6686 75.0958C72.9965 75.0958 73.2425 75.0021 73.383 74.803C73.5352 74.6156 73.6055 74.3345 73.6055 73.9715V66.1011ZM77.9272 75.5408V70.3408H76.0416V75.5408H75.4091V64.5435H76.0416V69.7435H77.9272V64.5435H78.5479V75.5408H77.9272Z" fill="white"/>
<path d="M25.7941 59.2966L25.3725 56.3686H22.5382L22.1283 59.3317H21.1094C21.9058 54.0146 22.6905 48.7091 23.4752 43.392H24.4589C25.2553 48.6974 26.04 54.0146 26.8247 59.3317H25.8058L25.7941 59.2966ZM25.4544 56.3218L25.8761 59.238H26.7193L24.377 43.4857H23.5571L21.2148 59.238H22.0463L22.4562 56.2749H25.4544V56.3218ZM24.5995 50.8758L23.967 45.91L23.3346 50.8758L22.6788 55.42H25.2436L24.5995 50.8758ZM24.0139 45.5587L24.6932 50.8641L25.349 55.5137H22.5851L23.2409 50.8641L23.967 45.2073L24.0139 45.5587ZM31.2518 59.2849V51.8479H28.6283V59.3317H27.6328V43.4154H28.6283V50.8992H31.2518V43.4154H32.2356V59.3317H31.2518V59.2849ZM31.3338 51.801V59.238H32.1536V43.5091H31.3338V50.9929H28.5346V43.5091H27.7148V59.238H28.5346V51.7542H31.3338V51.801ZM35.1986 59.2849V44.3875H33.1725V43.4154H38.232V44.3875H36.1941V59.3317H35.1986V59.2849ZM35.2923 44.3406V59.238H36.1122V44.2938H38.1383V43.5091H33.2545V44.2938H35.2923V44.3406ZM42.7762 59.2849V50.2434L42.8347 47.6902L40.1527 58.5939L40.0825 59.3317H39.1572V43.4154H40.1527V52.5037L40.0942 55.0569L42.7762 44.1532L42.8464 43.4154H43.7717V59.3317H42.7762V59.2849ZM42.8699 50.2434V59.238H43.678V43.5091H42.9284C42.5771 47.1515 40.9023 52.1641 39.9888 55.865L40.059 52.5037V43.5091H39.2509V59.238H40.0005C40.3518 55.5956 42.0266 50.583 42.9401 46.8704L42.8699 50.2434ZM49.042 54.7173H49.9906V57.0245C49.9906 57.8443 49.8032 58.4767 49.4402 58.9101C49.2645 59.1209 49.0185 59.2849 48.7258 59.3903C48.433 59.5074 48.0816 59.5542 47.6834 59.5542C47.2735 59.5542 46.9221 59.5074 46.6293 59.3903C46.3366 59.2849 46.1023 59.1209 45.9149 58.9101C45.7393 58.6876 45.5987 58.4299 45.505 58.1137C45.423 57.7975 45.3762 57.4344 45.3762 57.0245V45.6992C45.3762 44.8794 45.5519 44.2469 45.9149 43.8253C46.1023 43.6145 46.3366 43.4505 46.6293 43.3451C46.9221 43.2397 47.2735 43.1929 47.6834 43.1929C48.0816 43.1929 48.433 43.2397 48.7258 43.3451C49.0185 43.4505 49.2645 43.6145 49.4402 43.8253C49.8032 44.2469 49.9906 44.8794 49.9906 45.6992V48.0298H48.9951V45.6992C48.9951 45.4415 48.9717 45.2073 48.9131 45.0199C48.8663 44.8208 48.7843 44.6568 48.6906 44.528C48.5852 44.3992 48.4564 44.3055 48.2807 44.2352C48.1167 44.1767 47.9176 44.1415 47.6834 44.1415C47.2149 44.1415 46.8753 44.2704 46.6762 44.528C46.5708 44.6568 46.5005 44.8208 46.442 45.0199C46.3951 45.2073 46.3717 45.4415 46.3717 45.6992V57.0245C46.3717 57.2821 46.3951 57.5164 46.442 57.7155C46.5005 57.9029 46.5708 58.0668 46.6762 58.2074C46.7816 58.3362 46.9104 58.4416 47.0744 58.5119C47.2384 58.5704 47.4492 58.6056 47.6834 58.6056C47.9176 58.6056 48.1167 58.5704 48.2807 58.5119C48.4564 58.4416 48.5852 58.3362 48.6906 58.2074C48.7843 58.0668 48.8663 57.9029 48.9131 57.7155C48.9717 57.5164 48.9951 57.2821 48.9951 57.0245V54.7173H49.042ZM49.8969 54.811H49.0771V57.0245C49.0771 57.2939 49.0537 57.5281 49.0068 57.7389C48.9483 57.938 48.8663 58.1137 48.7609 58.2659C48.6438 58.4065 48.5032 58.5119 48.3158 58.5939C48.1402 58.6641 47.9294 58.6993 47.6834 58.6993C47.4375 58.6993 47.2266 58.6641 47.0393 58.5939C46.8636 58.5119 46.7113 58.4065 46.6059 58.2659C46.5005 58.1137 46.4185 57.938 46.36 57.7389C46.3014 57.5281 46.278 57.2939 46.278 57.0245V45.6992C46.278 45.4298 46.3014 45.1956 46.36 44.9965C46.4185 44.7857 46.5005 44.61 46.6059 44.4695C46.8284 44.1884 47.1798 44.0478 47.6834 44.0478C47.9294 44.0478 48.1402 44.083 48.3158 44.1532C48.5032 44.2235 48.6438 44.3289 48.7609 44.4695C48.8663 44.61 48.9483 44.7857 49.0068 44.9965C49.0537 45.1956 49.0771 45.4298 49.0771 45.6992V47.9361H49.8969V45.6992C49.8969 44.8911 49.7213 44.2938 49.3816 43.8839C49.2059 43.6848 48.9834 43.5325 48.7023 43.4271C48.4095 43.3334 48.0699 43.2749 47.6834 43.2749C47.2852 43.2749 46.9456 43.3334 46.6645 43.4271C46.3834 43.5325 46.1609 43.6848 45.9852 43.8839C45.6338 44.2938 45.4699 44.8911 45.4699 45.6992V57.0245C45.4699 57.4227 45.505 57.7857 45.5987 58.0903C45.6807 58.383 45.8095 58.6407 45.9852 58.8515C46.1609 59.0506 46.3834 59.2029 46.6645 59.3083C46.9456 59.4137 47.2852 59.4722 47.6834 59.4722C48.0699 59.4722 48.4095 59.4137 48.7023 59.3083C48.9834 59.2029 49.2059 59.0506 49.3816 58.8515C49.7213 58.4416 49.8969 57.8326 49.8969 57.0245V54.811ZM52.7195 59.2849V44.3875H50.6933V43.4154H55.7528V44.3875H53.715V59.3317H52.7195V59.2849ZM52.8132 44.3406V59.238H53.6213V44.2938H55.6591V43.5091H50.7753V44.2938H52.8132V44.3406ZM56.6781 59.2849V45.7226C56.6781 44.8911 56.8537 44.2704 57.2168 43.837C57.4042 43.6262 57.6384 43.4622 57.9429 43.3451C58.2357 43.2397 58.5754 43.1929 58.9853 43.1929C59.3835 43.1929 59.7348 43.2397 60.0276 43.3451C60.3321 43.4622 60.5664 43.6262 60.742 43.837C61.1051 44.2704 61.2925 44.8911 61.2925 45.7226V51.2389C61.2925 52.0587 61.1051 52.6911 60.742 53.1245C60.5664 53.3353 60.3321 53.4992 60.0393 53.6046C59.7583 53.71 59.4186 53.7686 59.0321 53.7686H57.6736V59.3317H56.6781V59.2849ZM56.7717 45.7226V59.238H57.5799V53.6749H59.0321C59.4069 53.6749 59.7348 53.6281 60.0159 53.5227C60.2853 53.4173 60.5078 53.265 60.6835 53.0659C61.0231 52.6443 61.1988 52.0353 61.1988 51.2389V45.7226C61.1988 44.9145 61.0231 44.3055 60.6835 43.8956C60.5078 43.6965 60.2853 43.5325 60.0042 43.4388C59.7231 43.3334 59.3835 43.2749 58.9853 43.2749C58.5871 43.2749 58.2474 43.3334 57.9664 43.4388C57.6853 43.5325 57.4627 43.6965 57.2871 43.8956C56.9474 44.3055 56.7717 44.9145 56.7717 45.7226ZM60.297 45.7226C60.297 45.465 60.2736 45.2307 60.215 45.0316C60.1682 44.8442 60.0862 44.6686 59.9925 44.5397C59.8871 44.4109 59.7583 44.3055 59.5943 44.2352C59.4186 44.1767 59.2195 44.1415 58.9853 44.1415C58.751 44.1415 58.5519 44.1767 58.3763 44.2352C58.2123 44.3055 58.0835 44.4109 57.9781 44.5397C57.8727 44.6686 57.8024 44.8442 57.7555 45.0316C57.697 45.2307 57.6736 45.465 57.6736 45.7226V52.7965L58.9853 52.82C59.2195 52.8317 59.4186 52.7965 59.5943 52.738C59.7583 52.6677 59.8871 52.5623 59.9925 52.4335C60.0862 52.2929 60.1682 52.129 60.215 51.9299C60.2736 51.7308 60.297 51.4965 60.297 51.2389V45.7226ZM60.3087 45.0082C60.3556 45.219 60.3907 45.4532 60.3907 45.7226V51.2389C60.3907 51.5082 60.3556 51.7425 60.3087 51.9533C60.2501 52.1524 60.1682 52.3398 60.0628 52.4803C59.9456 52.6326 59.8051 52.7497 59.6177 52.82C59.442 52.8902 59.2312 52.9136 58.9853 52.9136L57.5799 52.8902V45.7226C57.5799 45.4532 57.615 45.219 57.6618 45.0082C57.7204 44.8091 57.8024 44.6334 57.9078 44.4812C58.0249 44.3406 58.1655 44.2235 58.3411 44.1532C58.5285 44.083 58.7393 44.0478 58.9853 44.0478C59.2312 44.0478 59.442 44.083 59.6177 44.1532C59.8051 44.2235 59.9456 44.3406 60.0628 44.4812C60.1682 44.6334 60.2501 44.8091 60.3087 45.0082ZM67.0313 57.0245C67.0313 57.8443 66.8556 58.4767 66.4925 58.9101C66.3051 59.1209 66.0709 59.2849 65.7781 59.3903C65.4853 59.5074 65.134 59.5542 64.724 59.5542C64.3258 59.5542 63.9745 59.5074 63.6817 59.3903C63.3889 59.2849 63.143 59.1209 62.9673 58.9101C62.7799 58.6876 62.6511 58.4299 62.5574 58.1137C62.4637 57.7975 62.4168 57.4344 62.4168 57.0245V53.6281C62.4168 52.4803 62.7799 51.7308 63.4943 51.3677C63.143 51.2037 62.8853 50.9344 62.7096 50.583C62.5222 50.1965 62.4168 49.7046 62.4168 49.1073V45.6992C62.4168 44.8794 62.6042 44.2469 62.9673 43.8253C63.143 43.6145 63.3889 43.4505 63.6817 43.3451C63.9745 43.2397 64.3258 43.1929 64.724 43.1929C65.134 43.1929 65.4853 43.2397 65.7781 43.3451C66.0709 43.4505 66.3051 43.6145 66.4925 43.8253C66.8556 44.2469 67.0313 44.8794 67.0313 45.6992V48.0298H66.0358V45.6992C66.0358 45.4415 66.0123 45.2073 65.9655 45.0199C65.9069 44.8208 65.8367 44.6568 65.7313 44.528C65.6259 44.3992 65.497 44.3055 65.3331 44.2352C65.1691 44.1767 64.9583 44.1415 64.724 44.1415C64.2556 44.1415 63.9276 44.2704 63.7168 44.528C63.6231 44.6568 63.5412 44.8208 63.4943 45.0199C63.4358 45.2073 63.4123 45.4415 63.4123 45.6992V49.1073C63.4123 49.4001 63.4358 49.6578 63.4943 49.8803C63.5412 50.1028 63.6231 50.2902 63.7285 50.4425C63.8222 50.5947 63.9628 50.7118 64.1267 50.7821C64.2907 50.8641 64.4898 50.8992 64.724 50.8992H65.9069V51.8479H64.724C64.4898 51.8479 64.2907 51.883 64.1267 51.965C63.9628 52.0353 63.8222 52.1524 63.7285 52.3046C63.6231 52.4569 63.5412 52.6443 63.4943 52.8668C63.4358 53.0893 63.4123 53.347 63.4123 53.6281V57.0245C63.4123 57.2821 63.4358 57.5164 63.4943 57.7155C63.5412 57.9029 63.6231 58.0668 63.7168 58.2074C63.8222 58.3362 63.9511 58.4416 64.1267 58.5119C64.2907 58.5704 64.4898 58.6056 64.724 58.6056C64.9583 58.6056 65.1691 58.5704 65.3331 58.5119C65.497 58.4416 65.6259 58.3362 65.7313 58.2074C65.8367 58.0668 65.9069 57.9029 65.9655 57.7155C66.0123 57.5164 66.0358 57.2821 66.0358 57.0245V54.7173H67.0313V57.0245ZM66.4223 58.8515C66.7736 58.4416 66.9376 57.8326 66.9376 57.0245V54.811H66.1295V57.0245C66.1295 57.2939 66.106 57.5281 66.0475 57.7389C65.9889 57.938 65.9069 58.1137 65.8015 58.2659C65.6961 58.4065 65.5439 58.5119 65.3682 58.5939C65.1808 58.6641 64.97 58.6993 64.724 58.6993C64.4781 58.6993 64.2673 58.6641 64.0916 58.5939C63.9042 58.5119 63.7637 58.4065 63.6466 58.2659C63.5412 58.1137 63.4592 57.938 63.4006 57.7389C63.3538 57.5281 63.3303 57.2939 63.3303 57.0245V53.6281C63.3303 53.3353 63.3538 53.0776 63.4006 52.8434C63.4592 52.6091 63.5412 52.41 63.6466 52.2578C63.7637 52.0821 63.9042 51.965 64.0916 51.883C64.2673 51.801 64.4781 51.7542 64.724 51.7542H65.8132V50.9929H64.724C64.4781 50.9929 64.2673 50.9461 64.0916 50.8641C63.9042 50.7821 63.7637 50.6533 63.6466 50.4893C63.5412 50.3253 63.4592 50.138 63.4006 49.9037C63.3538 49.6695 63.3303 49.4118 63.3303 49.1073V45.6992C63.3303 45.4298 63.3538 45.1956 63.4006 44.9965C63.4592 44.7857 63.5412 44.61 63.6466 44.4695C63.8691 44.1884 64.2322 44.0478 64.724 44.0478C64.97 44.0478 65.1808 44.083 65.3682 44.1532C65.5439 44.2235 65.6961 44.3289 65.8015 44.4695C65.9069 44.61 65.9889 44.7857 66.0475 44.9965C66.106 45.1956 66.1295 45.4298 66.1295 45.6992V47.9361H66.9376V45.6992C66.9376 44.8911 66.7736 44.2938 66.4223 43.8839C66.2466 43.6848 66.0241 43.5325 65.743 43.4271C65.4619 43.3334 65.1222 43.2749 64.724 43.2749C64.3376 43.2749 63.9979 43.3334 63.7051 43.4271C63.424 43.5325 63.2015 43.6848 63.0258 43.8839C62.6862 44.2938 62.5105 44.8911 62.5105 45.6992V49.1073C62.5105 49.6929 62.6042 50.1731 62.7916 50.5362C62.9673 50.9109 63.2484 51.1686 63.6114 51.3326L63.7051 51.3677L63.6114 51.4145C62.8736 51.7425 62.5105 52.4803 62.5105 53.6281V57.0245C62.5105 57.4227 62.5574 57.7857 62.6394 58.0903C62.733 58.383 62.8619 58.6407 63.0258 58.8515C63.2015 59.0506 63.424 59.2029 63.7051 59.3083C63.9979 59.4137 64.3376 59.4722 64.724 59.4722C65.1222 59.4722 65.4619 59.4137 65.743 59.3083C66.0241 59.2029 66.2466 59.0506 66.4223 58.8515ZM72.079 54.7173H73.0277V57.0245C73.0277 57.8443 72.8403 58.4767 72.4772 58.9101C72.3016 59.1209 72.0556 59.2849 71.7628 59.3903C71.47 59.5074 71.1187 59.5542 70.7205 59.5542C70.3106 59.5542 69.9592 59.5074 69.6664 59.3903C69.3736 59.2849 69.1394 59.1209 68.952 58.9101C68.7763 58.6876 68.6358 58.4299 68.5421 58.1137C68.4601 57.7975 68.4133 57.4344 68.4133 57.0245V45.6992C68.4133 44.8794 68.5889 44.2469 68.952 43.8253C69.1394 43.6145 69.3736 43.4505 69.6664 43.3451C69.9592 43.2397 70.3106 43.1929 70.7205 43.1929C71.1187 43.1929 71.47 43.2397 71.7628 43.3451C72.0556 43.4505 72.3016 43.6145 72.4772 43.8253C72.8403 44.2469 73.0277 44.8794 73.0277 45.6992V48.0298H72.0322V45.6992C72.0322 45.4415 72.0088 45.2073 71.9502 45.0199C71.9034 44.8208 71.8214 44.6568 71.7277 44.528C71.6223 44.3992 71.4935 44.3055 71.3178 44.2352C71.1538 44.1767 70.9547 44.1415 70.7205 44.1415C70.252 44.1415 69.9124 44.2704 69.7133 44.528C69.6079 44.6568 69.5376 44.8208 69.479 45.0199C69.4322 45.2073 69.4088 45.4415 69.4088 45.6992V57.0245C69.4088 57.2821 69.4322 57.5164 69.479 57.7155C69.5376 57.9029 69.6079 58.0668 69.7133 58.2074C69.8187 58.3362 69.9475 58.4416 70.1115 58.5119C70.2754 58.5704 70.4862 58.6056 70.7205 58.6056C70.9547 58.6056 71.1538 58.5704 71.3178 58.5119C71.4935 58.4416 71.6223 58.3362 71.716 58.2074C71.8214 58.0668 71.9034 57.9029 71.9502 57.7155C72.0088 57.5164 72.0322 57.2821 72.0322 57.0245V54.7173H72.079ZM72.934 54.811H72.1142V57.0245C72.1142 57.2939 72.0908 57.5281 72.0322 57.7389C71.9854 57.938 71.9034 58.1137 71.798 58.2659C71.6808 58.4065 71.5403 58.5119 71.3529 58.5939C71.1772 58.6641 70.9664 58.6993 70.7205 58.6993C70.4745 58.6993 70.252 58.6641 70.0763 58.5939C69.9007 58.5119 69.7484 58.4065 69.643 58.2659C69.5376 58.1137 69.4556 57.938 69.397 57.7389C69.3385 57.5281 69.3151 57.2939 69.3151 57.0245V45.6992C69.3151 45.4298 69.3385 45.1956 69.397 44.9965C69.4556 44.7857 69.5376 44.61 69.643 44.4695C69.8655 44.1884 70.2169 44.0478 70.7205 44.0478C70.9664 44.0478 71.1772 44.083 71.3529 44.1532C71.5403 44.2235 71.6808 44.3289 71.798 44.4695C71.9034 44.61 71.9854 44.7857 72.0322 44.9965C72.0908 45.1956 72.1142 45.4298 72.1142 45.6992V47.9361H72.934V45.6992C72.934 44.8911 72.7583 44.2938 72.407 43.8839C72.243 43.6848 72.0088 43.5325 71.7394 43.4271C71.4466 43.3334 71.107 43.2749 70.7205 43.2749C70.3223 43.2749 69.9826 43.3334 69.7016 43.4271C69.4205 43.5325 69.1979 43.6848 69.0223 43.8839C68.6709 44.2938 68.507 44.8911 68.507 45.6992V57.0245C68.507 57.4227 68.5421 57.7857 68.6358 58.0903C68.7178 58.383 68.8466 58.6407 69.0223 58.8515C69.1979 59.0506 69.4205 59.2029 69.7016 59.3083C69.9826 59.4137 70.3223 59.4722 70.7205 59.4722C71.107 59.4722 71.4466 59.4137 71.7277 59.3083C72.0088 59.2029 72.243 59.0506 72.407 58.8515C72.7583 58.4416 72.934 57.8326 72.934 57.0245V54.811ZM78.0638 54.7173H79.0124V57.0245C79.0124 57.8443 78.8367 58.4767 78.4737 58.9101C78.2863 59.1209 78.0521 59.2849 77.7593 59.3903C77.4665 59.5074 77.1151 59.5542 76.7052 59.5542C76.307 59.5542 75.9556 59.5074 75.6628 59.3903C75.3701 59.2849 75.1241 59.1209 74.9484 58.9101C74.761 58.6876 74.6322 58.4299 74.5385 58.1137C74.4448 57.7975 74.398 57.4344 74.398 57.0245V45.6992C74.398 44.8794 74.5854 44.2469 74.9484 43.8253C75.1241 43.6145 75.3701 43.4505 75.6628 43.3451C75.9556 43.2397 76.307 43.1929 76.7052 43.1929C77.1151 43.1929 77.4665 43.2397 77.7593 43.3451C78.0521 43.4505 78.2863 43.6145 78.4737 43.8253C78.8367 44.2469 79.0124 44.8794 79.0124 45.6992V48.0298H78.0169V45.6992C78.0169 45.4415 77.9935 45.2073 77.9466 45.0199C77.8881 44.8208 77.8178 44.6568 77.7124 44.528C77.607 44.3992 77.4782 44.3055 77.3142 44.2352C77.1502 44.1767 76.9394 44.1415 76.7052 44.1415C76.2367 44.1415 75.9088 44.2704 75.698 44.528C75.6043 44.6568 75.5223 44.8208 75.4755 45.0199C75.4169 45.2073 75.3935 45.4415 75.3935 45.6992V57.0245C75.3935 57.2821 75.4169 57.5164 75.4755 57.7155C75.5223 57.9029 75.6043 58.0668 75.698 58.2074C75.8034 58.3362 75.9322 58.4416 76.1079 58.5119C76.2719 58.5704 76.471 58.6056 76.7052 58.6056C76.9394 58.6056 77.1502 58.5704 77.3142 58.5119C77.4782 58.4416 77.607 58.3362 77.7124 58.2074C77.8178 58.0668 77.8881 57.9029 77.9466 57.7155C77.9935 57.5164 78.0169 57.2821 78.0169 57.0245V54.7173H78.0638ZM78.9187 54.811H78.1106V57.0245C78.1106 57.2939 78.0872 57.5281 78.0286 57.7389C77.9701 57.938 77.8881 58.1137 77.7827 58.2659C77.6773 58.4065 77.525 58.5119 77.3493 58.5939C77.162 58.6641 76.9511 58.6993 76.7052 58.6993C76.4593 58.6993 76.2484 58.6641 76.0728 58.5939C75.8854 58.5119 75.7448 58.4065 75.6277 58.2659C75.5223 58.1137 75.4403 57.938 75.3935 57.7389C75.3349 57.5281 75.3115 57.2939 75.3115 57.0245V45.6992C75.3115 45.4298 75.3349 45.1956 75.3935 44.9965C75.4403 44.7857 75.5223 44.61 75.6277 44.4695C75.8502 44.1884 76.2133 44.0478 76.7052 44.0478C76.9511 44.0478 77.162 44.083 77.3493 44.1532C77.525 44.2235 77.6773 44.3289 77.7827 44.4695C77.8881 44.61 77.9701 44.7857 78.0286 44.9965C78.0872 45.1956 78.1106 45.4298 78.1106 45.6992V47.9361H78.9187V45.6992C78.9187 44.8911 78.7548 44.2938 78.4034 43.8839C78.2277 43.6848 78.0052 43.5325 77.7241 43.4271C77.443 43.3334 77.1034 43.2749 76.7052 43.2749C76.3187 43.2749 75.9791 43.3334 75.6863 43.4271C75.4052 43.5325 75.1827 43.6848 75.007 43.8839C74.6674 44.2938 74.4917 44.8911 74.4917 45.6992V57.0245C74.4917 57.4227 74.5385 57.7857 74.6205 58.0903C74.7142 58.383 74.843 58.6407 75.007 58.8515C75.1827 59.0506 75.4169 59.2029 75.6863 59.3083C75.9791 59.4137 76.3187 59.4722 76.7052 59.4722C77.1034 59.4722 77.443 59.4137 77.7241 59.3083C78.0052 59.2029 78.2277 59.0506 78.4034 58.8515C78.7548 58.4416 78.9187 57.8326 78.9187 57.0245V54.811ZM24.7283 75.5408V69.2516L24.7635 67.6002L22.9364 75.0606L22.8779 75.5877H22.222V64.5083H22.9364V70.8327L22.9013 72.484L24.7283 65.0236L24.7752 64.5083H25.4427V75.5877H24.7283V75.5408ZM24.822 69.2516V75.494H25.3608V64.5903H24.8571C24.6112 67.1435 23.4283 70.6804 22.7842 73.2921L22.8427 70.8327V64.5903H22.304V75.494H22.8076C23.0535 72.9408 24.2364 69.4038 24.8806 66.7921L24.822 69.2516ZM31.322 71.6174C31.322 71.4065 31.3103 71.2309 31.2752 71.0786C31.2401 70.9264 31.1815 70.7975 31.1112 70.6921C31.041 70.5867 30.9473 70.5165 30.8419 70.4579C30.7247 70.411 30.5842 70.3876 30.432 70.3876H29.6004V69.6966H30.432C30.5842 69.6966 30.7247 69.6732 30.8419 69.6264C30.9473 69.5678 31.041 69.4975 31.1112 69.3921C31.1815 69.2867 31.2401 69.1579 31.2752 69.0056C31.3103 68.8534 31.322 68.6777 31.322 68.4669V66.1011C31.322 65.9254 31.3103 65.7615 31.2752 65.6326C31.2401 65.4921 31.1815 65.3867 31.1112 65.293C31.041 65.211 30.959 65.1407 30.8419 65.0939C30.7247 65.0588 30.5842 65.0353 30.432 65.0353C30.268 65.0353 30.1274 65.0588 30.0103 65.0939C29.8932 65.1407 29.8112 65.211 29.741 65.293C29.6707 65.3867 29.6121 65.4921 29.577 65.6326C29.5419 65.7615 29.5301 65.9254 29.5301 66.1011V67.729H28.8157V66.1011C28.8157 65.5272 28.9328 65.0939 29.1905 64.7894C29.3193 64.6489 29.4833 64.5317 29.6941 64.4615C29.9049 64.3795 30.1392 64.3443 30.432 64.3443C30.9941 64.3443 31.404 64.4966 31.6617 64.7894C31.7905 64.9416 31.8842 65.129 31.9428 65.3398C32.013 65.5624 32.0365 65.82 32.0365 66.1011V68.4669C32.0365 68.8885 31.9779 69.2282 31.8374 69.4975C31.7202 69.7435 31.5446 69.9192 31.3103 70.048C31.5446 70.1651 31.7202 70.3408 31.8374 70.5867C31.9779 70.8561 32.0365 71.1957 32.0365 71.6174V73.9714C32.0365 74.5453 31.9193 74.9786 31.6617 75.2831C31.5329 75.4354 31.3689 75.5525 31.1581 75.6228C30.9473 75.7048 30.713 75.7399 30.432 75.7399C30.1392 75.7399 29.9049 75.7048 29.6941 75.6228C29.4833 75.5525 29.3193 75.4354 29.1905 75.2831C29.0617 75.1309 28.968 74.9435 28.9094 74.721C28.8392 74.5102 28.8157 74.2525 28.8157 73.9714V72.3552H29.5301V73.9714C29.5301 74.1471 29.5419 74.2994 29.577 74.4399C29.6121 74.5804 29.6707 74.6858 29.741 74.7795C29.8112 74.8732 29.8932 74.9435 30.0103 74.9786C30.1274 75.0255 30.268 75.0489 30.432 75.0489C30.5842 75.0489 30.7247 75.0255 30.8419 74.9786C30.959 74.9435 31.041 74.8732 31.1112 74.7795C31.1815 74.6858 31.2401 74.5804 31.2752 74.4399C31.3103 74.2994 31.322 74.1471 31.322 73.9714V71.6174ZM31.3572 71.0552C31.3923 71.2192 31.4157 71.4065 31.4157 71.6174V73.9714C31.4157 74.1588 31.3923 74.3228 31.3572 74.4633C31.322 74.6039 31.2635 74.7327 31.1815 74.8381C31.1112 74.9318 31.0058 75.0138 30.877 75.0606C30.7482 75.1192 30.5959 75.1426 30.432 75.1426C30.2563 75.1426 30.104 75.1192 29.9752 75.0606C29.8464 75.0138 29.741 74.9318 29.6707 74.8381C29.5887 74.7327 29.5301 74.6039 29.495 74.4633C29.4599 74.3228 29.4365 74.1588 29.4365 73.9714V72.4372H28.8977V73.9714C28.8977 74.2408 28.9328 74.4867 28.9914 74.6976C29.05 74.9084 29.1437 75.084 29.2608 75.2246C29.3779 75.3651 29.5301 75.4705 29.7292 75.5408C29.9166 75.6111 30.1509 75.6462 30.432 75.6462C30.7013 75.6462 30.9356 75.6111 31.1229 75.5408C31.322 75.4705 31.4743 75.3651 31.5914 75.2246C31.8374 74.9435 31.9545 74.5219 31.9545 73.9714V71.6174C31.9545 71.2074 31.8842 70.8795 31.7554 70.6219C31.6383 70.3759 31.4509 70.1885 31.1932 70.0831L31.0995 70.0363L31.1932 70.0011C31.4509 69.8957 31.6383 69.7083 31.7554 69.4624C31.8842 69.2047 31.9545 68.8768 31.9545 68.4669V66.1011C31.9545 65.82 31.9193 65.5741 31.8608 65.375C31.8022 65.1642 31.7085 64.9885 31.5914 64.848C31.3572 64.5786 30.9707 64.438 30.432 64.438C30.1509 64.438 29.9166 64.4732 29.7292 64.5434C29.5301 64.6137 29.3779 64.7074 29.2608 64.848C29.0148 65.129 28.8977 65.5507 28.8977 66.1011V67.6471H29.4365V66.1011C29.4365 65.9137 29.4599 65.7498 29.495 65.6092C29.5301 65.457 29.5887 65.3398 29.6707 65.2462C29.7527 65.1407 29.8464 65.0705 29.9752 65.0119C30.104 64.9651 30.2563 64.9416 30.432 64.9416C30.5959 64.9416 30.7482 64.9651 30.877 65.0119C31.0058 65.0705 31.0995 65.1407 31.1815 65.2462C31.2635 65.3398 31.322 65.457 31.3572 65.6092C31.3923 65.7498 31.4157 65.9137 31.4157 66.1011V68.4669C31.4157 68.6777 31.3923 68.8651 31.3572 69.0291C31.322 69.1813 31.2635 69.3219 31.1815 69.439C31.1112 69.5561 31.0058 69.6381 30.877 69.6966C30.7482 69.7552 30.5959 69.7903 30.432 69.7903H29.6824V70.2939H30.432C30.5959 70.2939 30.7482 70.3291 30.877 70.3876C31.0058 70.4462 31.1112 70.5282 31.1815 70.6453C31.2635 70.7624 31.322 70.9029 31.3572 71.0552ZM36.3347 76.8057V75.5877H33.2779V76.8525H32.6455V74.8849H32.6923C32.7509 74.8849 32.7977 74.8615 32.8563 74.8264C32.9031 74.7795 32.95 74.721 32.9968 74.639C33.0554 74.557 33.0905 74.4633 33.1374 74.3579C33.1725 74.2408 33.2076 74.1237 33.2428 73.9831C33.2662 73.8543 33.3013 73.7138 33.3248 73.5615C33.3482 73.4093 33.3716 73.2453 33.3833 73.0813C33.4067 72.9174 33.4185 72.7534 33.4302 72.5894C33.4419 72.4255 33.4536 72.2732 33.4536 72.1093L33.7113 65.9371C33.723 65.6912 33.7581 65.457 33.8049 65.2696C33.8635 65.0705 33.9455 64.9065 34.0509 64.766C34.1563 64.6254 34.2968 64.52 34.4725 64.4498C34.6482 64.3795 34.859 64.3443 35.105 64.3443C35.3509 64.3443 35.5617 64.3795 35.7374 64.4498C35.9248 64.52 36.0653 64.6254 36.1707 64.766C36.2878 64.9065 36.3698 65.0705 36.4167 65.2696C36.4752 65.4687 36.4987 65.6912 36.4987 65.9489V74.8849H36.9671V76.8525H36.3347V76.8057ZM36.4167 75.5408V76.7588H36.8851V74.9669H36.405V65.9489C36.405 65.7029 36.3815 65.4804 36.3347 65.293C36.2878 65.1056 36.2059 64.9416 36.1005 64.8128C36.0068 64.6957 35.8779 64.5903 35.714 64.5317C35.5383 64.4615 35.3392 64.438 35.105 64.438C34.8707 64.438 34.6716 64.4615 34.5077 64.5317C34.3437 64.5903 34.2149 64.6957 34.1212 64.8128C34.0275 64.9416 33.9455 65.1056 33.8986 65.293C33.8401 65.4804 33.8049 65.7029 33.8049 65.9489L33.5473 72.121C33.5473 72.2732 33.5356 72.4372 33.5239 72.6012C33.5122 72.7534 33.5004 72.9174 33.477 73.093C33.4536 73.257 33.4419 73.421 33.4067 73.5732C33.3833 73.7255 33.3599 73.8777 33.3248 74.0066C33.3013 74.1471 33.2545 74.2759 33.2194 74.3813C33.1725 74.4985 33.1257 74.6039 33.0788 74.6858C33.0203 74.7795 32.9617 74.8498 32.9031 74.8967C32.8446 74.9318 32.7977 74.9552 32.7275 74.9669V76.7588H33.1959V75.494H36.4167V75.5408ZM35.7842 65.9489C35.7842 65.7849 35.7725 65.6561 35.7374 65.5389C35.714 65.4218 35.6788 65.3281 35.6203 65.2579C35.5734 65.1759 35.5032 65.129 35.4212 65.0939C35.3392 65.0471 35.2338 65.0353 35.105 65.0353C34.9761 65.0353 34.8707 65.0471 34.7887 65.0939C34.7068 65.129 34.6482 65.1759 34.6013 65.2579C34.5545 65.3281 34.5194 65.4218 34.4842 65.5389C34.4608 65.6561 34.4374 65.7966 34.4257 65.9489L34.1797 72.121C34.168 72.2498 34.168 72.3786 34.1563 72.5192C34.1446 72.648 34.1329 72.7885 34.1212 72.9291C34.1095 73.0696 34.086 73.2102 34.0743 73.339C34.0509 73.4678 34.0392 73.5967 34.0158 73.7255C33.9923 73.8543 33.9572 73.9714 33.9221 74.0885C33.8869 74.2057 33.8518 74.3228 33.8167 74.4282C33.7698 74.5336 33.723 74.6273 33.6644 74.721C33.6293 74.7795 33.5941 74.8264 33.5473 74.8849H35.7842V65.9489ZM35.8311 65.5155C35.8545 65.6444 35.8662 65.7849 35.8662 65.9489V74.9669H33.3599L33.4185 74.8967C33.4887 74.8264 33.5356 74.7561 33.5941 74.6741C33.641 74.5922 33.6878 74.4985 33.7347 74.3931C33.7698 74.2876 33.8049 74.1822 33.8401 74.0651C33.8752 73.948 33.8986 73.8309 33.9221 73.7138C33.9455 73.5849 33.9689 73.4561 33.9806 73.3273C34.004 73.1867 34.0158 73.0579 34.0275 72.9174C34.0392 72.7885 34.0509 72.648 34.0626 72.5075C34.0743 72.3786 34.086 72.2381 34.086 72.1093L34.3437 65.9371C34.3437 65.7849 34.3671 65.6444 34.4022 65.5155C34.4257 65.3984 34.4725 65.293 34.5311 65.211C34.5779 65.1173 34.6599 65.0471 34.7536 65.0119C34.8473 64.9651 34.9644 64.9416 35.105 64.9416C35.2455 64.9416 35.3626 64.9651 35.4563 65.0119C35.5617 65.0471 35.6437 65.1173 35.7023 65.1993C35.7608 65.293 35.7959 65.3984 35.8311 65.5155ZM37.5879 66.1011C37.5879 65.5272 37.7167 65.0939 37.9626 64.7894C38.0915 64.6489 38.2671 64.5317 38.4662 64.4615C38.677 64.3795 38.923 64.3443 39.2041 64.3443C39.7662 64.3443 40.1879 64.4966 40.4338 64.7894C40.5626 64.9416 40.6563 65.129 40.7266 65.3398C40.7852 65.5624 40.8203 65.82 40.8203 66.1011V73.9714C40.8203 74.5453 40.6915 74.9786 40.4338 75.2831C40.305 75.4354 40.141 75.5525 39.9302 75.6228C39.7311 75.7048 39.4852 75.7399 39.2041 75.7399C38.923 75.7399 38.677 75.7048 38.4662 75.6228C38.2671 75.5525 38.0915 75.4354 37.9626 75.2831C37.8455 75.1309 37.7401 74.9435 37.6815 74.721C37.623 74.5102 37.5879 74.2525 37.5879 73.9714V66.1011ZM38.0329 64.848C37.7987 65.129 37.6815 65.5507 37.6815 66.1011V73.9714C37.6815 74.2408 37.705 74.4867 37.7635 74.6976C37.8221 74.9084 37.9158 75.084 38.0329 75.2246C38.15 75.3651 38.314 75.4705 38.5014 75.5408C38.7005 75.6111 38.9347 75.6462 39.2041 75.6462C39.4734 75.6462 39.7077 75.6111 39.9068 75.5408C40.0942 75.4705 40.2464 75.3651 40.3753 75.2246C40.6095 74.9435 40.7266 74.5219 40.7266 73.9714V66.1011C40.7266 65.82 40.7032 65.5741 40.6329 65.375C40.5744 65.1642 40.4924 64.9885 40.3753 64.848C40.1293 64.5786 39.7428 64.438 39.2041 64.438C38.9347 64.438 38.7005 64.4732 38.5014 64.5434C38.314 64.6137 38.15 64.7074 38.0329 64.848ZM40.1059 66.1011C40.1059 65.9254 40.0825 65.7615 40.0473 65.6326C40.0122 65.4921 39.9536 65.3867 39.8951 65.293C39.8248 65.211 39.7311 65.1407 39.614 65.0939C39.5086 65.0588 39.368 65.0353 39.2041 65.0353C39.0401 65.0353 38.8996 65.0588 38.7825 65.0939C38.677 65.1407 38.5834 65.211 38.5131 65.293C38.4428 65.3867 38.396 65.4921 38.3608 65.6326C38.3257 65.7615 38.3023 65.9254 38.3023 66.1011V73.9714C38.3023 74.1471 38.3257 74.2994 38.3608 74.4399C38.396 74.5804 38.4428 74.6858 38.5131 74.7795C38.5834 74.8732 38.677 74.9435 38.7825 74.9786C38.8996 75.0255 39.0401 75.0489 39.2041 75.0489C39.368 75.0489 39.5086 75.0255 39.614 74.9786C39.7311 74.9435 39.8248 74.8732 39.8951 74.7795C39.9536 74.6858 40.0122 74.5804 40.0473 74.4399C40.0825 74.2994 40.1059 74.1471 40.1059 73.9714V66.1011ZM40.1293 65.6092C40.1762 65.7498 40.1879 65.9137 40.1879 66.1011V73.9714C40.1879 74.1588 40.1762 74.3228 40.1293 74.4633C40.0942 74.6039 40.0356 74.7327 39.9653 74.8381C39.8834 74.9318 39.778 75.0138 39.6491 75.0606C39.5203 75.1192 39.3798 75.1426 39.2041 75.1426C39.0284 75.1426 38.8761 75.1192 38.759 75.0606C38.6302 75.0138 38.5248 74.9318 38.4428 74.8381C38.3725 74.7327 38.314 74.6039 38.2671 74.4633C38.232 74.3228 38.2203 74.1588 38.2203 73.9714V66.1011C38.2203 65.9137 38.232 65.7498 38.2671 65.6092C38.314 65.457 38.3725 65.3398 38.4428 65.2462C38.5248 65.1407 38.6302 65.0705 38.759 65.0119C38.8761 64.9651 39.0284 64.9416 39.2041 64.9416C39.3798 64.9416 39.5203 64.9651 39.6491 65.0119C39.778 65.0705 39.8834 65.1407 39.9653 65.2462C40.0356 65.3398 40.0942 65.457 40.1293 65.6092ZM41.9095 75.5408V66.1128C41.9095 65.8317 41.9329 65.5741 42.0032 65.3633C42.0618 65.1407 42.1554 64.9534 42.2843 64.8011C42.4131 64.6489 42.5771 64.5317 42.7879 64.4615C42.9987 64.3795 43.2329 64.3443 43.5257 64.3443C43.8068 64.3443 44.041 64.3795 44.2519 64.4615C44.4627 64.5317 44.6266 64.6489 44.7555 64.8011C45.0131 65.1056 45.1302 65.5389 45.1302 66.1128V69.9426C45.1302 70.5282 45.0131 70.9615 44.7555 71.266C44.4978 71.5705 44.0996 71.7228 43.5491 71.7228H42.6239V75.5877H41.9095V75.5408ZM41.9915 66.1128V75.494H42.5302V71.6291H43.5491C44.0762 71.6291 44.451 71.4885 44.6852 71.2074C44.9311 70.9264 45.0483 70.5047 45.0483 69.9426V66.1128C45.0483 65.5624 44.9311 65.1407 44.6852 64.8597C44.5681 64.7191 44.4158 64.6137 44.2167 64.5434C44.0293 64.4732 43.7951 64.438 43.5257 64.438C43.2446 64.438 43.0104 64.4732 42.823 64.5434C42.6239 64.6137 42.4717 64.7191 42.3545 64.8597C42.2374 65.0002 42.1437 65.1759 42.0852 65.3867C42.0266 65.5975 41.9915 65.8435 41.9915 66.1128ZM44.4158 66.1128C44.4158 65.9371 44.4041 65.7849 44.369 65.6444C44.3338 65.5038 44.2753 65.3984 44.205 65.3047C44.1347 65.211 44.0528 65.1407 43.9356 65.1056C43.8185 65.0588 43.678 65.0353 43.5257 65.0353C43.3618 65.0353 43.2212 65.0588 43.1041 65.1056C42.987 65.1407 42.905 65.211 42.8347 65.3047C42.7645 65.3984 42.7059 65.5038 42.6708 65.6444C42.6356 65.7849 42.6239 65.9371 42.6239 66.1128V71.0201L43.5257 71.0318C43.678 71.0435 43.8185 71.0201 43.9356 70.9732C44.0528 70.9264 44.1347 70.8678 44.205 70.7741C44.2753 70.6804 44.3338 70.5633 44.369 70.4228C44.4041 70.2822 44.4158 70.13 44.4158 69.9426V66.1128ZM44.451 65.6209C44.4861 65.7615 44.5095 65.9254 44.5095 66.1128V69.9426C44.5095 70.13 44.4861 70.3056 44.451 70.4462C44.4158 70.5984 44.3573 70.7156 44.2753 70.821C44.205 70.9264 44.0996 71.0083 43.9708 71.0552C43.8419 71.102 43.6897 71.1255 43.514 71.1255L42.5302 71.102V66.1128C42.5302 65.9254 42.5536 65.7615 42.5888 65.6209C42.6239 65.4804 42.6825 65.3516 42.7645 65.2462C42.8464 65.1525 42.9401 65.0705 43.069 65.0236C43.1978 64.9651 43.35 64.9416 43.5257 64.9416C43.6897 64.9416 43.8419 64.9651 43.9708 65.0236C44.0996 65.0705 44.205 65.1525 44.2753 65.2462C44.3573 65.3516 44.4158 65.4804 44.451 65.6209ZM45.9149 66.1011C45.9149 65.5272 46.032 65.0939 46.2897 64.7894C46.4185 64.6489 46.5825 64.5317 46.7933 64.4615C46.9924 64.3795 47.2384 64.3443 47.5194 64.3443C48.0933 64.3443 48.5032 64.4966 48.7609 64.7894C48.8897 64.9416 48.9834 65.129 49.042 65.3398C49.1122 65.5624 49.1357 65.82 49.1357 66.1011V73.9714C49.1357 74.5453 49.0068 74.9786 48.7609 75.2831C48.6321 75.4354 48.4681 75.5525 48.2573 75.6228C48.0465 75.7048 47.8005 75.7399 47.5194 75.7399C47.2384 75.7399 46.9924 75.7048 46.7933 75.6228C46.5825 75.5525 46.4185 75.4354 46.2897 75.2831C46.1609 75.1309 46.0672 74.9435 46.0086 74.721C45.9384 74.5102 45.9149 74.2525 45.9149 73.9714V66.1011ZM46.36 64.848C46.114 65.129 45.9969 65.5507 45.9969 66.1011V73.9714C45.9969 74.2408 46.032 74.4867 46.0906 74.6976C46.1492 74.9084 46.2429 75.084 46.36 75.2246C46.4771 75.3651 46.6293 75.4705 46.8284 75.5408C47.0158 75.6111 47.2501 75.6462 47.5194 75.6462C47.8005 75.6462 48.0348 75.6111 48.2221 75.5408C48.4212 75.4705 48.5735 75.3651 48.6906 75.2246C48.9249 74.9435 49.0537 74.5219 49.0537 73.9714V66.1011C49.0537 65.82 49.0185 65.5741 48.96 65.375C48.9014 65.1642 48.8077 64.9885 48.6906 64.848C48.4564 64.5786 48.0699 64.438 47.5194 64.438C47.2501 64.438 47.0158 64.4732 46.8167 64.5434C46.6293 64.6137 46.4771 64.7074 46.36 64.848ZM48.4212 66.1011C48.4212 65.9254 48.3978 65.7615 48.3627 65.6326C48.3276 65.4921 48.2807 65.3867 48.2104 65.293C48.1402 65.211 48.0465 65.1407 47.9411 65.0939C47.8239 65.0588 47.6834 65.0353 47.5194 65.0353C47.3672 65.0353 47.2266 65.0588 47.1095 65.0939C46.9924 65.1407 46.9104 65.211 46.8402 65.293C46.7699 65.3867 46.7113 65.4921 46.6762 65.6326C46.6411 65.7615 46.6293 65.9254 46.6293 66.1011V73.9714C46.6293 74.1471 46.6411 74.2994 46.6762 74.4399C46.7113 74.5804 46.7699 74.6858 46.8402 74.7795C46.9104 74.8732 46.9924 74.9435 47.1095 74.9786C47.2266 75.0255 47.3672 75.0489 47.5194 75.0489C47.6834 75.0489 47.8239 75.0255 47.9411 74.9786C48.0465 74.9435 48.1402 74.8732 48.2104 74.7795C48.2807 74.6858 48.3276 74.5804 48.3627 74.4399C48.3978 74.2994 48.4212 74.1471 48.4212 73.9714V66.1011ZM48.4564 65.6092C48.4915 65.7498 48.5149 65.9137 48.5149 66.1011V73.9714C48.5149 74.1588 48.4915 74.3228 48.4564 74.4633C48.4212 74.6039 48.3627 74.7327 48.2807 74.8381C48.1987 74.9318 48.105 75.0138 47.9762 75.0606C47.8474 75.1192 47.6951 75.1426 47.5194 75.1426C47.3555 75.1426 47.2032 75.1192 47.0744 75.0606C46.9456 75.0138 46.8402 74.9318 46.7699 74.8381C46.6879 74.7327 46.6293 74.6039 46.5942 74.4633C46.5591 74.3228 46.5357 74.1588 46.5357 73.9714V66.1011C46.5357 65.9137 46.5591 65.7498 46.5942 65.6092C46.6293 65.457 46.6879 65.3398 46.7699 65.2462C46.8402 65.1407 46.9456 65.0705 47.0744 65.0119C47.2032 64.9651 47.3555 64.9416 47.5194 64.9416C47.6951 64.9416 47.8474 64.9651 47.9762 65.0119C48.105 65.0705 48.1987 65.1407 48.2807 65.2462C48.3627 65.3398 48.4212 65.457 48.4564 65.6092ZM53.2934 73.9714C53.2934 74.5453 53.1762 74.9786 52.9186 75.2831C52.7897 75.4354 52.6258 75.5525 52.415 75.6228C52.2159 75.7048 51.9699 75.7399 51.6888 75.7399C51.4078 75.7399 51.1618 75.7048 50.951 75.6228C50.7402 75.5525 50.5762 75.4354 50.4474 75.2831C50.3186 75.1309 50.2249 74.9435 50.1663 74.721C50.096 74.5102 50.0726 74.2525 50.0726 73.9714V66.1011C50.0726 65.5272 50.2014 65.0939 50.4474 64.7894C50.5762 64.6489 50.7402 64.5317 50.951 64.4615C51.1618 64.3795 51.4078 64.3443 51.6888 64.3443C52.251 64.3443 52.6609 64.4966 52.9186 64.7894C53.0474 64.9416 53.1411 65.129 53.1997 65.3398C53.2699 65.5624 53.2934 65.82 53.2934 66.1011V68.4669C53.2934 68.8885 53.2348 69.2282 53.0942 69.4975C52.9771 69.7435 52.8015 69.9192 52.5672 70.048C52.8015 70.1651 52.9771 70.3408 53.0942 70.5867C53.2348 70.8561 53.2934 71.1957 53.2934 71.6174V73.9714ZM52.8483 75.2246C53.0942 74.9435 53.2114 74.5219 53.2114 73.9714V71.6174C53.2114 71.2074 53.1411 70.8795 53.024 70.6219C52.8951 70.3759 52.7078 70.1885 52.4501 70.0831L52.3564 70.0363L52.4501 70.0011C52.7078 69.8957 52.8951 69.7083 53.024 69.4624C53.1411 69.2047 53.2114 68.8768 53.2114 68.4669V66.1011C53.2114 65.82 53.1762 65.5741 53.1177 65.375C53.0591 65.1642 52.9654 64.9885 52.8483 64.848C52.6141 64.5786 52.2276 64.438 51.6888 64.438C51.4078 64.438 51.1735 64.4732 50.9861 64.5434C50.787 64.6137 50.6348 64.7074 50.5177 64.848C50.2834 65.129 50.1546 65.5507 50.1546 66.1011V73.9714C50.1546 74.2408 50.1897 74.4867 50.2483 74.6976C50.3068 74.9084 50.4005 75.084 50.5177 75.2246C50.6348 75.3651 50.787 75.4705 50.9861 75.5408C51.1735 75.6111 51.4078 75.6462 51.6888 75.6462C51.9582 75.6462 52.1924 75.6111 52.3798 75.5408C52.5789 75.4705 52.7312 75.3651 52.8483 75.2246ZM52.5789 66.1011C52.5789 65.9254 52.5672 65.7615 52.5321 65.6326C52.4969 65.4921 52.4384 65.3867 52.3681 65.293C52.2978 65.211 52.2159 65.1407 52.0987 65.0939C51.9816 65.0588 51.8411 65.0353 51.6888 65.0353C51.5249 65.0353 51.3843 65.0588 51.2672 65.0939C51.1618 65.1407 51.0681 65.211 50.9978 65.293C50.9276 65.3867 50.8807 65.4921 50.8456 65.6326C50.8105 65.7615 50.787 65.9254 50.787 66.1011V69.6966H51.6888C51.8411 69.6966 51.9816 69.6732 52.0987 69.6264C52.2159 69.5678 52.2978 69.4975 52.3681 69.3921C52.4384 69.2867 52.4969 69.1579 52.5321 69.0056C52.5672 68.8534 52.5789 68.6777 52.5789 68.4669V66.1011ZM52.6141 65.6092C52.6492 65.7498 52.6726 65.9137 52.6726 66.1011V68.4669C52.6726 68.6777 52.6492 68.8651 52.6141 69.0291C52.5789 69.1813 52.5204 69.3219 52.4384 69.439C52.3681 69.5561 52.2627 69.6381 52.1339 69.6966C52.0051 69.7552 51.8528 69.7903 51.6888 69.7903H50.6933V66.1011C50.6933 65.9137 50.7168 65.7498 50.7519 65.6092C50.787 65.457 50.8456 65.3398 50.9276 65.2462C51.0096 65.1407 51.1032 65.0705 51.2321 65.0119C51.3609 64.9651 51.5132 64.9416 51.6888 64.9416C51.8528 64.9416 52.0051 64.9651 52.1339 65.0119C52.2627 65.0705 52.3681 65.1407 52.4384 65.2462C52.5204 65.3398 52.5789 65.457 52.6141 65.6092ZM52.5789 71.6174C52.5789 71.4065 52.5672 71.2309 52.5321 71.0786C52.4969 70.9264 52.4384 70.7975 52.3681 70.6921C52.2978 70.5867 52.2159 70.5165 52.0987 70.4579C51.9816 70.411 51.8411 70.3876 51.6888 70.3876H50.787V73.9714C50.787 74.1471 50.8105 74.2994 50.8456 74.4399C50.8807 74.5804 50.9276 74.6858 50.9978 74.7795C51.0681 74.8732 51.1618 74.9435 51.2672 74.9786C51.3843 75.0255 51.5249 75.0489 51.6888 75.0489C51.8411 75.0489 51.9816 75.0255 52.0987 74.9786C52.2159 74.9435 52.2978 74.8732 52.3681 74.7795C52.4384 74.6858 52.4969 74.5804 52.5321 74.4399C52.5672 74.2994 52.5789 74.1471 52.5789 73.9714V71.6174ZM52.6141 71.0552C52.6492 71.2192 52.6726 71.4065 52.6726 71.6174V73.9714C52.6726 74.1588 52.6492 74.3228 52.6141 74.4633C52.5789 74.6039 52.5204 74.7327 52.4384 74.8381C52.3681 74.9318 52.2627 75.0138 52.1339 75.0606C52.0051 75.1192 51.8528 75.1426 51.6888 75.1426C51.5132 75.1426 51.3609 75.1192 51.2321 75.0606C51.1032 75.0138 51.0096 74.9318 50.9276 74.8381C50.8456 74.7327 50.787 74.6039 50.7519 74.4633C50.7168 74.3228 50.6933 74.1588 50.6933 73.9714V70.2939H51.6888C51.8528 70.2939 52.0051 70.3291 52.1339 70.3876C52.2627 70.4462 52.3681 70.5282 52.4384 70.6453C52.5204 70.7624 52.5789 70.9029 52.6141 71.0552ZM58.3294 75.5408V64.5083H59.0438V75.5877H58.3294V75.5408ZM58.4231 64.5903V75.494H58.9618V64.5903H58.4231ZM56.8889 70.1417C56.8889 69.9543 56.8654 69.802 56.8303 69.6615C56.7952 69.5327 56.7483 69.4155 56.6781 69.3219C56.6078 69.2282 56.5141 69.1696 56.397 69.1228C56.2916 69.0759 56.151 69.0525 55.9871 69.0525C55.8231 69.0525 55.6826 69.0759 55.5654 69.1228C55.46 69.1696 55.3663 69.2282 55.2961 69.3219C55.2258 69.4155 55.1789 69.5327 55.1438 69.6615C55.1087 69.802 55.0853 69.9543 55.0853 70.1417V73.9714C55.0853 74.1471 55.1087 74.2994 55.1438 74.4399C55.1789 74.5804 55.2258 74.6858 55.2961 74.7795C55.3663 74.8732 55.46 74.9435 55.5654 74.9786C55.6826 75.0255 55.8231 75.0489 55.9871 75.0489C56.151 75.0489 56.2916 75.0255 56.397 74.9786C56.5141 74.9435 56.6078 74.8732 56.6781 74.7795C56.7483 74.6858 56.7952 74.5804 56.8303 74.4399C56.8654 74.2994 56.8889 74.1471 56.8889 73.9714V70.1417ZM56.9123 69.6381C56.9591 69.7786 56.9708 69.9543 56.9708 70.1417V73.9714C56.9708 74.1588 56.9591 74.3228 56.9123 74.4633C56.8772 74.6039 56.8186 74.7327 56.7483 74.8381C56.6663 74.9318 56.5609 75.0138 56.4321 75.0606C56.3033 75.1192 56.1627 75.1426 55.9871 75.1426C55.8114 75.1426 55.6591 75.1192 55.542 75.0606C55.4132 75.0138 55.3078 74.9318 55.2258 74.8381C55.1555 74.7327 55.097 74.6039 55.0618 74.4633C55.015 74.3228 55.0033 74.1588 55.0033 73.9714V70.1417C55.0033 69.9543 55.015 69.7786 55.0618 69.6381C55.097 69.4975 55.1555 69.3687 55.2258 69.275C55.3078 69.1696 55.4132 69.0876 55.542 69.0408C55.6591 68.9822 55.8114 68.9588 55.9871 68.9588C56.1627 68.9588 56.3033 68.9822 56.4321 69.0408C56.5609 69.0876 56.6663 69.1696 56.7483 69.275C56.8186 69.3687 56.8772 69.4975 56.9123 69.6381ZM54.4177 64.5083H55.0853V68.6191C55.1907 68.5372 55.3078 68.4786 55.4483 68.4435C55.6123 68.3849 55.7997 68.3615 56.0222 68.3615C56.5609 68.3615 56.9708 68.5137 57.2168 68.8182C57.3456 68.9705 57.4393 69.1579 57.5096 69.3804C57.5681 69.6029 57.6033 69.8489 57.6033 70.1417V73.9714C57.6033 74.5453 57.4745 74.9786 57.2168 75.2831C57.088 75.4354 56.924 75.5525 56.7132 75.6228C56.5141 75.7048 56.2681 75.7399 55.9871 75.7399C55.706 75.7399 55.46 75.7048 55.2492 75.6228C55.0501 75.5525 54.8744 75.4354 54.7456 75.2831C54.6285 75.1309 54.5231 74.9435 54.4645 74.721C54.406 74.5102 54.3708 74.2525 54.3708 73.9714V64.5083H54.4177ZM55.0033 64.5903H54.4645V73.9714C54.4645 74.2408 54.4879 74.4867 54.5465 74.6976C54.6168 74.9084 54.6988 75.084 54.8159 75.2246C54.933 75.3651 55.097 75.4705 55.2844 75.5408C55.4835 75.6111 55.7177 75.6462 55.9871 75.6462C56.2564 75.6462 56.4907 75.6111 56.6898 75.5408C56.8772 75.4705 57.0411 75.3651 57.1582 75.2246C57.3925 74.9435 57.5096 74.5219 57.5096 73.9714V70.1417C57.5096 69.8606 57.4862 69.6146 57.4159 69.4038C57.3573 69.193 57.2754 69.0173 57.1582 68.8768C56.9123 68.5957 56.5375 68.4552 56.0222 68.4552C55.8114 68.4552 55.6357 68.4786 55.4717 68.5255C55.3195 68.5723 55.1789 68.6426 55.0735 68.7363L55.0033 68.8065V64.5903ZM62.7213 75.5408V69.2516L62.7565 67.6002L60.9294 75.0606L60.8826 75.5877H60.215V64.5083H60.9294V70.8327L60.8943 72.484L62.7213 65.0236L62.7799 64.5083H63.4358V75.5877H62.7213V75.5408ZM62.815 69.2516V75.494H63.3538V64.5903H62.8619C62.6042 67.1435 61.4213 70.6804 60.7889 73.2921L60.8357 70.8327V64.5903H60.297V75.494H60.8006C61.0465 72.9408 62.2294 69.4038 62.8736 66.7921L62.815 69.2516ZM63.0493 62.6579C63.0493 62.8687 63.0258 63.056 62.979 63.22C62.9321 63.3723 62.8502 63.5128 62.7565 63.6299C62.6511 63.7353 62.5339 63.829 62.37 63.8759C62.2177 63.9344 62.0303 63.9696 61.8312 63.9696C61.6087 63.9696 61.433 63.9344 61.2691 63.8759C61.1168 63.829 60.988 63.7353 60.8943 63.6299C60.8006 63.5128 60.7186 63.3723 60.6718 63.22C60.6249 63.056 60.6015 62.8687 60.6015 62.6579V62.6227H61.2456V62.6579C61.2456 62.9038 61.2925 63.0678 61.3862 63.1849C61.4799 63.302 61.6321 63.3606 61.8312 63.3606C62.0186 63.3606 62.1709 63.302 62.2646 63.1849C62.3583 63.0678 62.4051 62.9038 62.4051 62.6579V62.6227H63.0493V62.6579ZM62.8853 63.1849C62.9321 63.0443 62.9556 62.8921 62.9556 62.7047H62.4988C62.4871 62.9389 62.4403 63.1263 62.3348 63.2434C62.2177 63.384 62.0538 63.4425 61.8312 63.4425C61.6087 63.4425 61.433 63.384 61.3276 63.2434C61.2222 63.1263 61.1637 62.9389 61.152 62.7047H60.6952C60.6952 62.8921 60.7186 63.056 60.7655 63.1849C60.8006 63.3371 60.8709 63.466 60.9529 63.5714C61.0465 63.6651 61.1637 63.747 61.3042 63.7939C61.4447 63.8525 61.6204 63.8759 61.8312 63.8759C62.0303 63.8759 62.1943 63.8525 62.3466 63.7939C62.4871 63.747 62.6042 63.6651 62.6862 63.5714C62.7799 63.466 62.8502 63.3371 62.8853 63.1849ZM69.4439 72.3552H70.1115V73.9714C70.1115 74.5453 69.9826 74.9786 69.7367 75.2831C69.6079 75.4354 69.4439 75.5525 69.2331 75.6228C69.0223 75.7048 68.7763 75.7399 68.4952 75.7399C68.2142 75.7399 67.9682 75.7048 67.7691 75.6228C67.5583 75.5525 67.3943 75.4354 67.2655 75.2831C67.1367 75.1309 67.043 74.9435 66.9844 74.721C66.9142 74.5102 66.8907 74.2525 66.8907 73.9714V66.1011C66.8907 65.5272 67.0078 65.0939 67.2655 64.7894C67.3943 64.6489 67.5583 64.5317 67.7691 64.4615C67.9682 64.3795 68.2142 64.3443 68.4952 64.3443C69.0691 64.3443 69.479 64.4966 69.7367 64.7894C69.8655 64.9416 69.9592 65.129 70.0178 65.3398C70.088 65.5624 70.1115 65.82 70.1115 66.1011V67.729H69.397V66.1011C69.397 65.9254 69.3736 65.7615 69.3385 65.6326C69.3034 65.4921 69.2565 65.3867 69.1862 65.293C69.116 65.211 69.0223 65.1407 68.9169 65.0939C68.7997 65.0588 68.6592 65.0353 68.4952 65.0353C68.343 65.0353 68.2024 65.0588 68.0853 65.0939C67.9682 65.1407 67.8862 65.211 67.816 65.293C67.7457 65.3867 67.6871 65.4921 67.652 65.6326C67.6169 65.7615 67.6051 65.9254 67.6051 66.1011V73.9714C67.6051 74.1471 67.6169 74.2994 67.652 74.4399C67.6871 74.5804 67.7457 74.6858 67.816 74.7795C67.8862 74.8732 67.9682 74.9435 68.0853 74.9786C68.2024 75.0255 68.343 75.0489 68.4952 75.0489C68.6592 75.0489 68.7997 75.0255 68.9169 74.9786C69.0223 74.9435 69.116 74.8732 69.1862 74.7795C69.2565 74.6858 69.3034 74.5804 69.3385 74.4399C69.3736 74.2994 69.397 74.1471 69.397 73.9714V72.3552H69.4439ZM70.0295 72.4372H69.4907V73.9714C69.4907 74.1588 69.4673 74.3228 69.4322 74.4633C69.397 74.6039 69.3385 74.7327 69.2565 74.8381C69.1745 74.9318 69.0808 75.0138 68.952 75.0606C68.8232 75.1192 68.6709 75.1426 68.4952 75.1426C68.3313 75.1426 68.179 75.1192 68.0502 75.0606C67.9214 75.0138 67.816 74.9318 67.7457 74.8381C67.6637 74.7327 67.6051 74.6039 67.57 74.4633C67.5349 74.3228 67.5115 74.1588 67.5115 73.9714V66.1011C67.5115 65.9137 67.5349 65.7498 67.57 65.6092C67.6051 65.457 67.6637 65.3398 67.7457 65.2462C67.816 65.1407 67.9214 65.0705 68.0502 65.0119C68.179 64.9651 68.3313 64.9416 68.4952 64.9416C68.6709 64.9416 68.8232 64.9651 68.952 65.0119C69.0808 65.0705 69.1745 65.1407 69.2565 65.2462C69.3385 65.3398 69.397 65.457 69.4322 65.6092C69.4673 65.7498 69.4907 65.9137 69.4907 66.1011V67.6471H70.0295V66.1011C70.0295 65.82 69.9944 65.5741 69.9358 65.375C69.8772 65.1642 69.7835 64.9885 69.6664 64.848C69.4322 64.5786 69.0457 64.438 68.4952 64.438C68.2259 64.438 67.9916 64.4732 67.7925 64.5434C67.6051 64.6137 67.4529 64.7074 67.3358 64.848C67.0898 65.129 66.9727 65.5507 66.9727 66.1011V73.9714C66.9727 74.2408 67.0078 74.4867 67.0664 74.6976C67.125 74.9084 67.2187 75.084 67.3358 75.2246C67.4529 75.3651 67.6051 75.4705 67.8042 75.5408C67.9916 75.6111 68.2259 75.6462 68.4952 75.6462C68.7763 75.6462 69.0106 75.6111 69.1979 75.5408C69.397 75.4705 69.5493 75.3651 69.6664 75.2246C69.9007 74.9435 70.0295 74.5219 70.0295 73.9714V72.4372ZM71.0484 66.1011C71.0484 65.5272 71.1772 65.0939 71.4232 64.7894C71.552 64.6489 71.716 64.5317 71.9268 64.4615C72.1376 64.3795 72.3836 64.3443 72.6646 64.3443C73.2268 64.3443 73.6367 64.4966 73.8944 64.7894C74.0232 64.9416 74.1169 65.129 74.1755 65.3398C74.2457 65.5624 74.2691 65.82 74.2691 66.1011V73.9714C74.2691 74.5453 74.152 74.9786 73.8944 75.2831C73.7655 75.4354 73.6016 75.5525 73.3908 75.6228C73.1917 75.7048 72.9457 75.7399 72.6646 75.7399C72.3836 75.7399 72.1376 75.7048 71.9268 75.6228C71.716 75.5525 71.552 75.4354 71.4232 75.2831C71.2944 75.1309 71.2007 74.9435 71.1421 74.721C71.0718 74.5102 71.0484 74.2525 71.0484 73.9714V66.1011ZM71.4935 64.848C71.2592 65.129 71.1304 65.5507 71.1304 66.1011V73.9714C71.1304 74.2408 71.1655 74.4867 71.2241 74.6976C71.2826 74.9084 71.3763 75.084 71.4935 75.2246C71.6106 75.3651 71.7628 75.4705 71.9619 75.5408C72.1493 75.6111 72.3836 75.6462 72.6646 75.6462C72.934 75.6462 73.1682 75.6111 73.3556 75.5408C73.5547 75.4705 73.707 75.3651 73.8241 75.2246C74.07 74.9435 74.1872 74.5219 74.1872 73.9714V66.1011C74.1872 65.82 74.152 65.5741 74.0935 65.375C74.0349 65.1642 73.9412 64.9885 73.8241 64.848C73.5899 64.5786 73.2034 64.438 72.6646 64.438C72.3836 64.438 72.1493 64.4732 71.9619 64.5434C71.7628 64.6137 71.6106 64.7074 71.4935 64.848ZM73.5547 66.1011C73.5547 65.9254 73.543 65.7615 73.5079 65.6326C73.4727 65.4921 73.4142 65.3867 73.3439 65.293C73.2736 65.211 73.1917 65.1407 73.0745 65.0939C72.9574 65.0588 72.8169 65.0353 72.6646 65.0353C72.5007 65.0353 72.3601 65.0588 72.243 65.0939C72.1376 65.1407 72.0439 65.211 71.9736 65.293C71.9034 65.3867 71.8565 65.4921 71.8214 65.6326C71.7863 65.7615 71.7628 65.9254 71.7628 66.1011V73.9714C71.7628 74.1471 71.7863 74.2994 71.8214 74.4399C71.8565 74.5804 71.9034 74.6858 71.9736 74.7795C72.0439 74.8732 72.1376 74.9435 72.243 74.9786C72.3601 75.0255 72.5007 75.0489 72.6646 75.0489C72.8169 75.0489 72.9574 75.0255 73.0745 74.9786C73.1917 74.9435 73.2736 74.8732 73.3439 74.7795C73.4142 74.6858 73.4727 74.5804 73.5079 74.4399C73.543 74.2994 73.5547 74.1471 73.5547 73.9714V66.1011ZM73.5899 65.6092C73.625 65.7498 73.6484 65.9137 73.6484 66.1011V73.9714C73.6484 74.1588 73.625 74.3228 73.5899 74.4633C73.5547 74.6039 73.4962 74.7327 73.4142 74.8381C73.3439 74.9318 73.2385 75.0138 73.1097 75.0606C72.9809 75.1192 72.8286 75.1426 72.6646 75.1426C72.489 75.1426 72.3367 75.1192 72.2079 75.0606C72.079 75.0138 71.9854 74.9318 71.9034 74.8381C71.8214 74.7327 71.7628 74.6039 71.7277 74.4633C71.6926 74.3228 71.6691 74.1588 71.6691 73.9714V66.1011C71.6691 65.9137 71.6926 65.7498 71.7277 65.6092C71.7628 65.457 71.8214 65.3398 71.9034 65.2462C71.9854 65.1407 72.079 65.0705 72.2079 65.0119C72.3367 64.9651 72.489 64.9416 72.6646 64.9416C72.8286 64.9416 72.9809 64.9651 73.1097 65.0119C73.2385 65.0705 73.3439 65.1407 73.4142 65.2462C73.4962 65.3398 73.5547 65.457 73.5899 65.6092ZM77.8764 75.5408V70.3876H76.0845V75.5877H75.3583V64.5083H76.0845V69.6966H77.8764V64.5083H78.5908V75.5877H77.8764V75.5408ZM77.9701 70.3408V75.494H78.5088V64.5903H77.9701V69.7903H75.9908V64.5903H75.452V75.494H75.9908V70.2939H77.9701V70.3408Z" fill="white"/>
</svg>
