<svg width="40" height="40" viewBox="0 0 40 40" fill="none" xmlns="http://www.w3.org/2000/svg">
<rect width="40" height="40" rx="20" fill="white"/>
<path d="M29.8703 26.0042C29.8534 25.8006 29.7923 25.603 29.6913 25.4253C29.5903 25.2476 29.4518 25.0941 29.2855 24.9754L25.9438 22.5878L27.4388 21.0973C27.8467 20.6929 28.1484 20.194 28.3171 19.6449C28.4859 19.0959 28.5164 18.5137 28.4061 17.95C27.9969 15.9408 26.8951 14.1391 25.2931 12.8592C23.6662 11.5495 21.633 10.8491 19.5446 10.8788C17.2575 10.9175 15.075 11.8433 13.4575 13.4607C11.8401 15.0781 10.9144 17.2607 10.8757 19.5478C10.8499 21.6336 11.551 23.6633 12.8587 25.2884C14.1385 26.8904 15.9402 27.9922 17.9494 28.4014C18.5131 28.5117 19.0953 28.4811 19.6443 28.3123C20.1934 28.1436 20.6922 27.8419 21.0967 27.4341L22.5873 25.9392L24.9748 29.2808C25.0924 29.4483 25.2452 29.5881 25.4224 29.6905C25.5997 29.7929 25.7971 29.8553 26.001 29.8735C26.0397 29.8735 26.0784 29.8779 26.1171 29.8779C26.4902 29.8778 26.8479 29.7294 27.1117 29.4655L29.4543 27.1228C29.6014 26.9782 29.7149 26.8031 29.7868 26.6098C29.8587 26.4165 29.8872 26.2098 29.8703 26.0042ZM26.1241 28.4665L23.2547 24.4486C23.1953 24.3655 23.1185 24.2964 23.0297 24.2459C22.9408 24.1955 22.8421 24.1651 22.7403 24.1567C22.7209 24.1567 22.7016 24.1567 22.6822 24.1567C22.5898 24.1566 22.4983 24.1747 22.4129 24.21C22.3275 24.2453 22.2499 24.2971 22.1845 24.3624L20.1065 26.4404C19.8657 26.6848 19.5682 26.8659 19.2405 26.9677C18.9128 27.0694 18.5651 27.0885 18.2282 27.0234C17.86 26.9498 16.7384 26.5896 16.2694 26.1238L26.1241 16.2715C26.5875 16.7405 26.9482 17.8615 27.022 18.2296C27.0871 18.5665 27.068 18.9143 26.9663 19.242C26.8646 19.5697 26.6834 19.8672 26.4389 20.108L24.3566 22.1833C24.2842 22.2555 24.2285 22.3426 24.1933 22.4386C24.158 22.5345 24.1441 22.637 24.1525 22.7388C24.1608 22.8407 24.1913 22.9395 24.2417 23.0284C24.2922 23.1173 24.3614 23.1941 24.4445 23.2535L28.4633 26.1238L26.1241 28.4665Z" fill="#627856"/>
</svg>
