<svg width="24" height="24" viewBox="0 0 24 24" fill="none" xmlns="http://www.w3.org/2000/svg">
<path d="M2.32439 10.8197C2.5862 8.65743 3.56515 6.64533 5.10482 5.10481C6.64449 3.56428 8.65605 2.58423 10.8181 2.32122C10.8693 2.31511 10.9212 2.31962 10.9706 2.33448C11.02 2.34933 11.0658 2.37421 11.1051 2.40755C11.1444 2.4409 11.1765 2.48199 11.1992 2.52827C11.2219 2.57456 11.2349 2.62503 11.2372 2.67654C11.2836 3.81286 11.094 4.94647 10.6805 6.00589C10.267 7.06531 9.63844 8.02758 8.83453 8.83201C8.03063 9.63645 7.06878 10.2656 6.00963 10.6798C4.95047 11.094 3.81699 11.2843 2.68064 11.2387C2.62905 11.2365 2.57847 11.2237 2.53208 11.201C2.48569 11.1783 2.44448 11.1463 2.41104 11.107C2.37759 11.0676 2.35263 11.0218 2.33772 10.9724C2.32281 10.9229 2.31827 10.8709 2.32439 10.8197ZM21.3125 12.7603C21.2075 12.7603 21.1034 12.7537 20.9984 12.7537C19.8879 12.7523 18.7886 12.9755 17.7666 13.4099C16.7446 13.8443 15.821 14.4809 15.0514 15.2814C14.2817 16.082 13.682 17.0299 13.2881 18.0683C12.8943 19.1066 12.7146 20.2138 12.7597 21.3234C12.762 21.3749 12.775 21.4254 12.7977 21.4717C12.8204 21.518 12.8525 21.559 12.8918 21.5924C12.9311 21.6257 12.9769 21.6506 13.0263 21.6655C13.0757 21.6803 13.1276 21.6848 13.1788 21.6787C15.341 21.4157 17.3527 20.4355 18.8923 18.8948C20.432 17.3541 21.4109 15.3418 21.6725 13.1793C21.6786 13.1278 21.674 13.0755 21.6589 13.0258C21.6437 12.9761 21.6184 12.9301 21.5846 12.8907C21.5507 12.8513 21.5091 12.8194 21.4622 12.7969C21.4154 12.7745 21.3644 12.762 21.3125 12.7603ZM14.1041 14.1056C15.0074 13.1974 16.0818 12.4774 17.2653 11.9873C18.4487 11.4971 19.7175 11.2465 20.9984 11.25C21.0922 11.25 21.1916 11.25 21.2881 11.25C21.3419 11.2519 21.3955 11.2422 21.4452 11.2216C21.4949 11.201 21.5395 11.17 21.5762 11.1306C21.6128 11.0912 21.6406 11.0444 21.6575 10.9933C21.6744 10.9423 21.6802 10.8881 21.6744 10.8347C21.4159 8.66451 20.4352 6.64431 18.8899 5.09884C17.3446 3.55338 15.3245 2.57244 13.1544 2.31372C13.1009 2.3079 13.0468 2.31366 12.9957 2.33061C12.9447 2.34755 12.8978 2.37529 12.8584 2.41192C12.8191 2.44856 12.788 2.49325 12.7674 2.54295C12.7468 2.59265 12.7371 2.64621 12.7391 2.69997C12.7817 4.02948 12.5511 5.35359 12.0615 6.59041C11.572 7.82723 10.8339 8.95045 9.89282 9.8906C8.98982 10.7994 7.91551 11.5201 6.73208 12.0109C5.54865 12.5018 4.27962 12.7529 2.99845 12.75C2.9047 12.75 2.80532 12.75 2.70876 12.75C2.655 12.748 2.60144 12.7577 2.55174 12.7783C2.50204 12.7989 2.45735 12.83 2.42071 12.8693C2.38407 12.9087 2.35634 12.9556 2.3394 13.0066C2.32245 13.0577 2.31669 13.1118 2.32251 13.1653C2.58099 15.3354 3.56171 17.3556 5.107 18.9011C6.65229 20.4466 8.67238 21.4275 10.8425 21.6862C10.896 21.692 10.9501 21.6863 11.0012 21.6693C11.0522 21.6524 11.0991 21.6247 11.1384 21.588C11.1778 21.5514 11.2089 21.5067 11.2295 21.457C11.2501 21.4073 11.2598 21.3537 11.2578 21.3C11.2147 19.9698 11.445 18.645 11.9346 17.4075C12.4242 16.17 13.1626 15.0462 14.1041 14.1056Z"/>
</svg>
