<svg width="24" height="24" viewBox="0 0 24 24" fill="none" xmlns="http://www.w3.org/2000/svg">
<path d="M5.10657 15.4416L7.71939 11.8594C8.50674 12.6676 8.96175 13.7421 8.99424 14.8699C9.02673 15.9978 8.63434 17.0967 7.89482 17.9489C7.15529 18.8011 6.12262 19.3443 5.00143 19.4711C3.88024 19.5978 2.75236 19.2986 1.84131 18.633C0.930263 17.9673 0.302524 16.9837 0.0824955 15.877C-0.137533 14.7704 0.0662079 13.6214 0.653342 12.6579C1.24048 11.6944 2.16815 10.9866 3.25254 10.6748C4.33692 10.3629 5.49888 10.4699 6.50814 10.9744L3.89532 14.5584C3.83303 14.6377 3.78735 14.7286 3.761 14.8259C3.73465 14.9232 3.72818 15.0248 3.74197 15.1246C3.75576 15.2244 3.78953 15.3205 3.84126 15.407C3.89299 15.4935 3.96162 15.5686 4.04306 15.628C4.12449 15.6874 4.21706 15.7297 4.31523 15.7525C4.4134 15.7753 4.51516 15.7781 4.61443 15.7607C4.7137 15.7433 4.80844 15.7061 4.893 15.6513C4.97756 15.5964 5.05019 15.5251 5.10657 15.4416ZM19.5009 10.5C18.9587 10.4998 18.4209 10.5979 17.9138 10.7897L20.1488 14.625C20.2056 14.7103 20.2443 14.8063 20.2625 14.9071C20.2808 15.0079 20.2782 15.1114 20.2549 15.2112C20.2316 15.3109 20.1881 15.4049 20.1271 15.4872C20.0661 15.5695 19.9889 15.6385 19.9003 15.6898C19.8116 15.7411 19.7133 15.7738 19.6116 15.7857C19.5098 15.7975 19.4067 15.7885 19.3086 15.759C19.2105 15.7295 19.1194 15.6802 19.0411 15.6141C18.9628 15.5481 18.8988 15.4667 18.8531 15.375L16.6191 11.5444C15.8062 12.2224 15.2584 13.1653 15.0719 14.2073C14.8855 15.2493 15.0723 16.3237 15.5996 17.2416C16.1269 18.1595 16.9609 18.8621 17.955 19.2259C18.949 19.5897 20.0395 19.5914 21.0347 19.2308C22.03 18.8701 22.8662 18.1701 23.3964 17.2539C23.9266 16.3377 24.1168 15.264 23.9337 14.2214C23.7505 13.1788 23.2057 12.2341 22.3949 11.5535C21.5842 10.8729 20.5595 10.4999 19.5009 10.5ZM15.5569 6.75H18.0009C18.1999 6.75 18.3906 6.82902 18.5313 6.96967C18.6719 7.11032 18.7509 7.30109 18.7509 7.5C18.7509 7.69891 18.83 7.88968 18.9706 8.03033C19.1113 8.17098 19.302 8.25 19.5009 8.25C19.6999 8.25 19.8906 8.17098 20.0313 8.03033C20.1719 7.88968 20.2509 7.69891 20.2509 7.5C20.2509 6.90326 20.0139 6.33097 19.5919 5.90901C19.17 5.48705 18.5977 5.25 18.0009 5.25H14.2509C14.1194 5.2503 13.9903 5.28517 13.8765 5.35112C13.7628 5.41707 13.6683 5.51177 13.6027 5.62574C13.5371 5.7397 13.5026 5.86892 13.5027 6.00043C13.5027 6.13193 13.5374 6.26111 13.6031 6.375L14.6953 8.25H9.30657L7.77376 5.625C7.70808 5.51124 7.61367 5.41672 7.49998 5.35091C7.38629 5.2851 7.25731 5.2503 7.12595 5.25H4.50095C4.30204 5.25 4.11127 5.32902 3.97062 5.46967C3.82997 5.61032 3.75095 5.80109 3.75095 6C3.75095 6.19891 3.82997 6.38968 3.97062 6.53033C4.11127 6.67098 4.30204 6.75 4.50095 6.75H6.69564L7.98095 8.95406L6.50814 10.9744C6.95868 11.1993 7.36815 11.4985 7.71939 11.8594L8.80595 10.3687L11.7281 15.375C11.7738 15.4667 11.8378 15.5481 11.9161 15.6141C11.9944 15.6802 12.0855 15.7295 12.1836 15.759C12.2817 15.7885 12.3848 15.7975 12.4866 15.7857C12.5883 15.7738 12.6866 15.7411 12.7753 15.6898C12.8639 15.6385 12.9411 15.5695 13.0021 15.4872C13.0631 15.4049 13.1066 15.3109 13.1299 15.2112C13.1532 15.1114 13.1558 15.0079 13.1375 14.9071C13.1193 14.8063 13.0806 14.7103 13.0238 14.625L10.1813 9.75H15.57L16.6191 11.5472C17.0053 11.2242 17.4429 10.9682 17.9138 10.7897L15.5569 6.75Z"/>
</svg>
