<svg width="24" height="24" viewBox="0 0 24 24" fill="none" xmlns="http://www.w3.org/2000/svg">
<path d="M11.9342 23.8594H12.0293C16.7674 23.8594 19.5176 23.3824 21.4658 21.4911C23.4521 19.4849 23.9108 16.7161 23.9108 11.9964V11.863C23.9108 7.14476 23.4521 4.39449 21.4658 2.36833C19.5191 0.477075 16.749 0 12.0307 0H11.9356C7.1975 0 4.44579 0.477075 2.49774 2.36833C0.511351 4.3746 0.0527344 7.14476 0.0527344 11.863V11.9964C0.0527344 16.7147 0.511351 19.465 2.49774 21.4911C4.42734 23.3824 7.1975 23.8594 11.9342 23.8594Z"/>
<path d="M21.0701 11.7483C21.0701 11.6574 20.9963 11.5822 20.9054 11.5779C17.6444 11.4544 15.6598 11.0385 14.2713 9.65002C12.88 8.25875 12.4654 6.27261 12.3419 3.00452C12.3391 2.91366 12.2638 2.83984 12.1716 2.83984H11.7911C11.7002 2.83984 11.625 2.91366 11.6207 3.00452C11.4972 6.27119 11.0827 8.25875 9.69139 9.65002C8.30154 11.0399 6.31824 11.4544 3.05725 11.5779C2.9664 11.5808 2.89258 11.656 2.89258 11.7483V12.1288C2.89258 12.2196 2.9664 12.2949 3.05725 12.2991C6.31824 12.4226 8.30295 12.8386 9.69139 14.2271C11.0798 15.6155 11.4944 17.596 11.6193 20.8512C11.6221 20.9421 11.6974 21.0159 11.7897 21.0159H12.1716C12.2624 21.0159 12.3377 20.9421 12.3419 20.8512C12.4669 17.596 12.8814 15.6155 14.2699 14.2271C15.6598 12.8372 17.643 12.4226 20.904 12.2991C20.9949 12.2963 21.0687 12.2211 21.0687 12.1288V11.7483H21.0701Z" fill="#1B2615"/>
</svg>
