<svg width="24" height="25" viewBox="0 0 24 25" fill="none" xmlns="http://www.w3.org/2000/svg">
<path d="M21.3191 6.90458L17.1294 2.71583C16.9901 2.5765 16.8247 2.46598 16.6427 2.39058C16.4607 2.31518 16.2656 2.27637 16.0686 2.27637C15.8716 2.27637 15.6765 2.31518 15.4945 2.39058C15.3125 2.46598 15.1471 2.5765 15.0078 2.71583L3.44751 14.2761C3.30761 14.4149 3.1967 14.5801 3.12122 14.7622C3.04574 14.9442 3.00719 15.1394 3.00782 15.3365L3.00782 19.5261C3.00782 19.924 3.16586 20.3055 3.44716 20.5868C3.72846 20.8681 4.11 21.0261 4.50782 21.0261L20.2578 21.0261C20.4567 21.0261 20.6475 20.9471 20.7881 20.8065C20.9288 20.6658 21.0078 20.4751 21.0078 20.2761C21.0078 20.0772 20.9288 19.8865 20.7881 19.7458C20.6475 19.6052 20.4567 19.5261 20.2578 19.5261L10.8191 19.5261L21.3191 9.02614C21.4584 8.88685 21.5689 8.72147 21.6443 8.53946C21.7197 8.35745 21.7585 8.16237 21.7585 7.96536C21.7585 7.76835 21.7197 7.57327 21.6443 7.39125C21.5689 7.20924 21.4584 7.04387 21.3191 6.90458ZM7.44407 17.6511L15.9134 9.18177L17.4781 10.7455L9.00782 19.2158L7.44407 17.6511ZM14.8503 8.12052L6.38282 16.5908L4.81813 15.0261L13.2884 6.55677L14.8503 8.12052ZM4.50782 16.8365L7.19751 19.5261L4.50782 19.5261L4.50782 16.8365Z"/>
</svg>
