<svg width="25" height="24" viewBox="0 0 25 24" fill="none" xmlns="http://www.w3.org/2000/svg">
<path d="M23.6982 16.2891C23.6986 16.2847 23.6986 16.2803 23.6982 16.2759L22.1616 8.385C22.1616 8.37938 22.1616 8.37375 22.1616 8.36813C21.9244 7.07255 21.2407 5.90107 20.2293 5.05735C19.2179 4.21364 17.9428 3.75105 16.6257 3.75H8.36537C7.04457 3.74949 5.76589 4.21471 4.75421 5.06384C3.74252 5.91297 3.06264 7.09162 2.83412 8.3925L1.30506 16.2759C1.30461 16.2803 1.30461 16.2847 1.30506 16.2891C1.1806 16.9958 1.28463 17.7238 1.60205 18.3673C1.91946 19.0109 2.43374 19.5365 3.07022 19.8679C3.70669 20.1993 4.43223 20.3193 5.1415 20.2103C5.85076 20.1013 6.50682 19.7691 7.01444 19.2619L7.04725 19.2272L10.7682 15H14.2369L17.9597 19.2272C17.9701 19.2394 17.9813 19.2506 17.9926 19.2619C18.6252 19.8932 19.482 20.2484 20.3757 20.25C20.8683 20.2497 21.3549 20.1415 21.8013 19.9331C22.2477 19.7247 22.643 19.4211 22.9596 19.0436C23.2761 18.6661 23.5062 18.2239 23.6336 17.7481C23.7611 17.2722 23.7828 16.7742 23.6972 16.2891H23.6982ZM10.2507 10.5H9.50069V11.25C9.50069 11.4489 9.42167 11.6397 9.28102 11.7803C9.14036 11.921 8.9496 12 8.75069 12C8.55177 12 8.36101 11.921 8.22036 11.7803C8.0797 11.6397 8.00069 11.4489 8.00069 11.25V10.5H7.25069C7.05177 10.5 6.86101 10.421 6.72036 10.2803C6.5797 10.1397 6.50069 9.94891 6.50069 9.75C6.50069 9.55109 6.5797 9.36032 6.72036 9.21967C6.86101 9.07902 7.05177 9 7.25069 9H8.00069V8.25C8.00069 8.05109 8.0797 7.86032 8.22036 7.71967C8.36101 7.57902 8.55177 7.5 8.75069 7.5C8.9496 7.5 9.14036 7.57902 9.28102 7.71967C9.42167 7.86032 9.50069 8.05109 9.50069 8.25V9H10.2507C10.4496 9 10.6404 9.07902 10.781 9.21967C10.9217 9.36032 11.0007 9.55109 11.0007 9.75C11.0007 9.94891 10.9217 10.1397 10.781 10.2803C10.6404 10.421 10.4496 10.5 10.2507 10.5ZM14.0007 9.75C14.0007 9.55109 14.0797 9.36032 14.2204 9.21967C14.361 9.07902 14.5518 9 14.7507 9H17.0007C17.1996 9 17.3904 9.07902 17.531 9.21967C17.6717 9.36032 17.7507 9.55109 17.7507 9.75C17.7507 9.94891 17.6717 10.1397 17.531 10.2803C17.3904 10.421 17.1996 10.5 17.0007 10.5H14.7507C14.5518 10.5 14.361 10.421 14.2204 10.2803C14.0797 10.1397 14.0007 9.94891 14.0007 9.75ZM21.9104 17.9503C21.7699 18.1526 21.5907 18.3249 21.3831 18.4574C21.1755 18.5898 20.9436 18.6797 20.701 18.7219C20.4075 18.7732 20.106 18.7542 19.8213 18.6663C19.5366 18.5785 19.2768 18.4243 19.0632 18.2166L16.2319 15H16.6257C17.5832 15.0001 18.5249 14.7558 19.3616 14.2902C20.1983 13.8246 20.9023 13.1531 21.4069 12.3394L22.2263 16.5581C22.268 16.7995 22.2616 17.0468 22.2074 17.2858C22.1532 17.5247 22.0522 17.7505 21.9104 17.9503Z"/>
</svg>
