<svg width="24" height="24" viewBox="0 0 24 24" fill="none" xmlns="http://www.w3.org/2000/svg">
<path d="M20 11.2842V19.4445C20 19.6248 19.9298 19.7978 19.8047 19.9253C19.6797 20.0529 19.5101 20.1245 19.3333 20.1245H14.6667C14.4899 20.1245 14.3203 20.0529 14.1953 19.9253C14.0702 19.7978 14 19.6248 14 19.4445V15.0243C14 14.9341 13.9649 14.8477 13.9024 14.7839C13.8399 14.7201 13.7551 14.6843 13.6667 14.6843H10.3333C10.2449 14.6843 10.1601 14.7201 10.0976 14.7839C10.0351 14.8477 10 14.9341 10 15.0243V19.4445C10 19.6248 9.92976 19.7978 9.80474 19.9253C9.67971 20.0529 9.51014 20.1245 9.33333 20.1245H4.66667C4.48986 20.1245 4.32029 20.0529 4.19526 19.9253C4.07024 19.7978 4 19.6248 4 19.4445V11.2842C4.00016 10.9235 4.14075 10.5777 4.39083 10.3228L11.0575 3.52255C11.3075 3.26768 11.6465 3.12451 12 3.12451C12.3535 3.12451 12.6925 3.26768 12.9425 3.52255L19.6092 10.3228C19.8593 10.5777 19.9998 10.9235 20 11.2842Z"/>
</svg>
