<svg width="24" height="24" viewBox="0 0 24 24" fill="none" xmlns="http://www.w3.org/2000/svg">
<path d="M20.9494 3.75667C20.9387 3.57319 20.861 3.40003 20.731 3.27007C20.6011 3.1401 20.4279 3.06239 20.2444 3.05167C13.1072 2.63261 7.39035 4.78136 4.95285 8.81261C4.10794 10.1916 3.69159 11.7904 3.7566 13.4064C3.79903 14.4397 4.00928 15.4593 4.3791 16.4251C4.40083 16.4845 4.43725 16.5375 4.48497 16.5791C4.53269 16.6207 4.59015 16.6495 4.65201 16.6629C4.71387 16.6763 4.7781 16.6738 4.83874 16.6556C4.89937 16.6375 4.95443 16.6043 4.99879 16.5592L12.9675 8.46855C13.0372 8.39886 13.1199 8.34359 13.211 8.30588C13.302 8.26816 13.3996 8.24875 13.4982 8.24875C13.5967 8.24875 13.6943 8.26816 13.7853 8.30588C13.8764 8.34359 13.9591 8.39886 14.0288 8.46855C14.0985 8.53823 14.1537 8.62095 14.1915 8.712C14.2292 8.80304 14.2486 8.90062 14.2486 8.99917C14.2486 9.09772 14.2292 9.1953 14.1915 9.28634C14.1537 9.37739 14.0985 9.46011 14.0288 9.5298L5.32035 18.3695L3.99004 19.6998C3.85169 19.8345 3.76909 20.0163 3.75867 20.2091C3.74825 20.4019 3.81076 20.5916 3.93379 20.7404C4.00116 20.8184 4.0839 20.8817 4.17683 20.9264C4.26976 20.971 4.3709 20.996 4.47391 20.9997C4.57693 21.0035 4.67962 20.986 4.77558 20.9483C4.87153 20.9107 4.95868 20.8536 5.0316 20.7807L6.60566 19.2067C7.93129 19.8479 9.2691 20.1976 10.5957 20.2445C10.7 20.2482 10.8041 20.2501 10.9079 20.2501C12.4185 20.254 13.9006 19.8379 15.1885 19.0482C19.2197 16.6107 21.3694 10.8948 20.9494 3.75667Z"/>
</svg>
