<?xml version="1.0" encoding="utf-8"?>
<!-- Generator: Adobe Illustrator 19.2.1, SVG Export Plug-In . SVG Version: 6.00 Build 0)  -->
<svg version="1.1" id="Слой_1" xmlns="http://www.w3.org/2000/svg" xmlns:xlink="http://www.w3.org/1999/xlink" x="0px" y="0px"
	 viewBox="0 0 24 24" style="enable-background:new 0 0 24 24;" xml:space="preserve">
<style type="text/css">
	.st0{fill:none;}
</style>
<path d="M12,1.5c-2.2,0-4.3,0.9-5.8,2.4S3.8,7.6,3.8,9.8c0,7.1,7.5,12.4,7.8,12.6c0.1,0.1,0.3,0.1,0.4,0.1s0.3,0,0.4-0.1c0.3-0.2,7.8-5.6,7.8-12.6c0-2.2-0.9-4.3-2.4-5.8S14.2,1.5,12,1.5z M12,6.8c0.6,0,1.2,0.2,1.7,0.5c0.5,0.3,0.9,0.8,1.1,1.3c0.2,0.5,0.3,1.2,0.2,1.7c-0.1,0.6-0.4,1.1-0.8,1.5c-0.4,0.4-1,0.7-1.5,0.8c-0.6,0.1-1.2,0.1-1.7-0.2c-0.5-0.2-1-0.6-1.3-1.1C9.2,10.9,9,10.3,9,9.8C9,9,9.3,8.2,9.9,7.6C10.4,7.1,11.2,6.8,12,6.8z"/>
</svg>
