<svg width="24" height="24" viewBox="0 0 24 24" fill="none" xmlns="http://www.w3.org/2000/svg">
<path d="M18.6286 3.26079C18.5523 3.20132 18.4631 3.16 18.3679 3.14007C18.2727 3.12014 18.1741 3.12213 18.0798 3.1459L7.8398 5.66407C7.70148 5.69808 7.57866 5.77655 7.49083 5.88703C7.40301 5.99752 7.3552 6.13368 7.355 6.27393V14.938C6.82105 14.5871 6.18318 14.4217 5.54276 14.4683C4.90234 14.5148 4.2961 14.7706 3.82039 15.1949C3.34468 15.6192 3.02679 16.1878 2.91723 16.8102C2.80767 17.4326 2.91273 18.0732 3.21571 18.6301C3.51869 19.1871 4.00222 19.6285 4.58945 19.8841C5.17668 20.1397 5.83392 20.195 6.45674 20.0411C7.07955 19.8872 7.63221 19.5329 8.02688 19.0346C8.42155 18.5363 8.6356 17.9226 8.635 17.2909V9.91347L17.595 7.71008V12.4198C17.061 12.0689 16.4232 11.9036 15.7828 11.9501C15.1423 11.9967 14.5361 12.2524 14.0604 12.6768C13.5847 13.1011 13.2668 13.6696 13.1572 14.292C13.0477 14.9144 13.1527 15.555 13.4557 16.112C13.7587 16.6689 14.2422 17.1103 14.8294 17.3659C15.4167 17.6216 16.0739 17.6768 16.6967 17.5229C17.3195 17.369 17.8722 17.0148 18.2669 16.5165C18.6615 16.0182 18.8756 15.4044 18.875 14.7727V3.75577C18.8748 3.66029 18.8525 3.5661 18.8098 3.48035C18.7671 3.39459 18.7051 3.31951 18.6286 3.26079Z"/>
</svg>
