<svg width="21" height="21" viewBox="0 0 21 21" fill="none" xmlns="http://www.w3.org/2000/svg">
<path d="M10.6711 6.4144C10.3123 6.4144 10.0065 6.28753 9.75385 6.03378C9.50108 5.78003 9.37469 5.47371 9.37469 5.11482C9.37469 4.75579 9.50156 4.44996 9.75531 4.19732C10.0091 3.94468 10.3155 3.81836 10.6745 3.81836C11.0334 3.81836 11.3391 3.94523 11.5918 4.19898C11.8445 4.45273 11.9709 4.75905 11.9709 5.11794C11.9709 5.47697 11.8441 5.7828 11.5903 6.03544C11.3366 6.28808 11.0302 6.4144 10.6711 6.4144ZM9.27865 16.3984L9.27865 12.3919L8.44531 12.3919L8.44531 8.67398C8.44531 8.29065 8.58184 7.96246 8.8549 7.6894C9.12781 7.41635 9.45601 7.27982 9.83948 7.27982L11.5061 7.27982C11.8896 7.27982 12.2178 7.41635 12.4907 7.6894C12.7638 7.96246 12.9003 8.29065 12.9003 8.67398L12.9003 12.3919L12.067 12.3919L12.067 16.3984L9.27865 16.3984Z"/>
<path d="M15.1107 9.70406C14.8422 9.70406 14.6134 9.62002 14.4244 9.45193C14.2353 9.28384 14.1407 9.08092 14.1407 8.84318C14.1407 8.60535 14.2356 8.40276 14.4255 8.23541C14.6153 8.06805 14.8446 7.98437 15.1132 7.98437C15.3818 7.98437 15.6105 8.06842 15.7996 8.23651C15.9887 8.4046 16.0833 8.60752 16.0833 8.84525C16.0833 9.08308 15.9883 9.28568 15.7985 9.45303C15.6086 9.62039 15.3794 9.70406 15.1107 9.70406ZM14.0688 16.3177L14.0688 13.6637L13.4453 13.6637L13.4453 11.2009C13.4453 10.9469 13.5475 10.7295 13.7518 10.5487C13.956 10.3678 14.2015 10.2773 14.4885 10.2773L15.7355 10.2773C16.0224 10.2773 16.268 10.3678 16.4722 10.5487C16.6765 10.7295 16.7786 10.9469 16.7786 11.2009L16.7786 13.6637L16.1551 13.6637L16.1551 16.3177L14.0688 16.3177Z"/>
<path d="M5.67115 6.4144C5.31226 6.4144 5.00649 6.28753 4.75385 6.03378C4.50108 5.78003 4.37469 5.47371 4.37469 5.11482C4.37469 4.75579 4.50156 4.44996 4.75531 4.19732C5.00906 3.94468 5.31545 3.81836 5.67448 3.81836C6.03337 3.81836 6.33913 3.94523 6.59177 4.19898C6.84455 4.45273 6.97094 4.75905 6.97094 5.11794C6.97094 5.47697 6.84406 5.7828 6.59031 6.03544C6.33656 6.28808 6.03017 6.4144 5.67115 6.4144ZM4.27865 16.3984L4.27865 12.3919L3.44531 12.3919L3.44531 8.67398C3.44531 8.29065 3.58184 7.96246 3.8549 7.6894C4.12781 7.41635 4.45601 7.27982 4.83948 7.27982L6.50615 7.27982C6.88962 7.27982 7.21781 7.41635 7.49073 7.6894C7.76379 7.96246 7.90031 8.29065 7.90031 8.67398L7.90031 12.3919L7.06698 12.3919L7.06698 16.3984L4.27865 16.3984Z"/>
</svg>
