<svg width="20" height="20" viewBox="0 0 20 20" fill="none" xmlns="http://www.w3.org/2000/svg">
<path d="M13.0598 5.92905C12.7009 5.92905 12.3952 5.80217 12.1425 5.54842C11.8897 5.29467 11.7634 4.98835 11.7634 4.62947C11.7634 4.27044 11.8902 3.96461 12.144 3.71197C12.3977 3.45933 12.7041 3.33301 13.0632 3.33301C13.422 3.33301 13.7278 3.45988 13.9804 3.71363C14.2332 3.96738 14.3596 4.2737 14.3596 4.63259C14.3596 4.99162 14.2327 5.29745 13.979 5.55009C13.7252 5.80273 13.4188 5.92905 13.0598 5.92905ZM11.6673 15.913L11.6673 11.9065L10.834 11.9065L10.834 8.18863C10.834 7.8053 10.9705 7.47711 11.2436 7.20405C11.5165 6.93099 11.8447 6.79447 12.2282 6.79447L13.8948 6.79447C14.2783 6.79447 14.6065 6.93099 14.8794 7.20405C15.1525 7.47711 15.289 7.8053 15.289 8.18863L15.289 11.9065L14.4557 11.9065L14.4557 15.913L11.6673 15.913Z"/>
<path d="M7.22583 5.92905C6.86695 5.92905 6.56118 5.80217 6.30854 5.54842C6.05576 5.29467 5.92938 4.98835 5.92938 4.62947C5.92938 4.27044 6.05625 3.96461 6.31 3.71197C6.56375 3.45933 6.87014 3.33301 7.22917 3.33301C7.58806 3.33301 7.89382 3.45988 8.14646 3.71363C8.39924 3.96738 8.52563 4.2737 8.52563 4.63259C8.52563 4.99162 8.39875 5.29745 8.145 5.55009C7.89125 5.80273 7.58486 5.92905 7.22583 5.92905ZM5.83333 15.913L5.83333 11.9065L5 11.9065L5 8.18863C5 7.8053 5.13653 7.47711 5.40958 7.20405C5.6825 6.93099 6.01069 6.79447 6.39417 6.79447L8.06083 6.79447C8.44431 6.79447 8.7725 6.93099 9.04542 7.20405C9.31847 7.47711 9.455 7.8053 9.455 8.18863L9.455 11.9065L8.62167 11.9065L8.62167 15.913L5.83333 15.913Z"/>
</svg>
