<svg width="25" height="24" viewBox="0 0 25 24" fill="none" xmlns="http://www.w3.org/2000/svg">
<path d="M22.3703 18.0042C22.3534 17.8006 22.2923 17.603 22.1913 17.4253C22.0903 17.2476 21.9518 17.0941 21.7855 16.9754L18.4438 14.5878L19.9388 13.0973C20.3467 12.6929 20.6484 12.194 20.8171 11.6449C20.9859 11.0959 21.0164 10.5137 20.9061 9.94997C20.4969 7.94076 19.3951 6.13905 17.7931 4.85921C16.1662 3.54952 14.133 2.84907 12.0446 2.87884C9.75754 2.91752 7.57497 3.84327 5.95754 5.46071C4.34011 7.07814 3.41436 9.26073 3.37569 11.5478C3.34992 13.6336 4.05104 15.6633 5.35869 17.2884C6.63852 18.8904 8.44022 19.9922 10.4494 20.4014C11.0131 20.5117 11.5953 20.4811 12.1443 20.3123C12.6934 20.1436 13.1922 19.8419 13.5967 19.4341L15.0873 17.9392L17.4748 21.2808C17.5924 21.4483 17.7452 21.5881 17.9224 21.6905C18.0997 21.7929 18.2971 21.8553 18.501 21.8735C18.5397 21.8735 18.5784 21.8779 18.6171 21.8779C18.9902 21.8778 19.3479 21.7294 19.6117 21.4655L21.9543 19.1228C22.1014 18.9782 22.2149 18.8031 22.2868 18.6098C22.3587 18.4165 22.3872 18.2098 22.3703 18.0042ZM18.6241 20.4665L15.7547 16.4486C15.6953 16.3655 15.6185 16.2964 15.5297 16.2459C15.4408 16.1955 15.3421 16.1651 15.2403 16.1567C15.2209 16.1567 15.2016 16.1567 15.1822 16.1567C15.0898 16.1566 14.9983 16.1747 14.9129 16.21C14.8275 16.2453 14.7499 16.2971 14.6845 16.3624L12.6065 18.4404C12.3657 18.6848 12.0682 18.8659 11.7405 18.9677C11.4128 19.0694 11.0651 19.0885 10.7282 19.0234C10.36 18.9498 9.23844 18.5896 8.76944 18.1238L18.6241 8.27148C19.0875 8.74049 19.4482 9.86148 19.522 10.2296C19.5871 10.5665 19.568 10.9143 19.4663 11.242C19.3646 11.5697 19.1834 11.8672 18.9389 12.108L16.8566 14.1833C16.7842 14.2555 16.7285 14.3426 16.6933 14.4386C16.658 14.5345 16.6441 14.637 16.6525 14.7388C16.6608 14.8407 16.6913 14.9395 16.7417 15.0284C16.7922 15.1173 16.8614 15.1941 16.9445 15.2535L20.9633 18.1238L18.6241 20.4665Z"/>
</svg>
