<svg width="24" height="24" viewBox="0 0 24 24" fill="none" xmlns="http://www.w3.org/2000/svg">
<path d="M1.5 16.5C1.5 16.3011 1.57902 16.1103 1.71967 15.9697C1.86032 15.829 2.05109 15.75 2.25 15.75H3V14.25C3.00273 11.9937 3.85178 9.82058 5.37934 8.16006C6.90689 6.49954 9.0018 5.47248 11.25 5.28188V3.75H9.75C9.55109 3.75 9.36032 3.67098 9.21967 3.53033C9.07902 3.38968 9 3.19891 9 3C9 2.80109 9.07902 2.61032 9.21967 2.46967C9.36032 2.32902 9.55109 2.25 9.75 2.25H14.25C14.4489 2.25 14.6397 2.32902 14.7803 2.46967C14.921 2.61032 15 2.80109 15 3C15 3.19891 14.921 3.38968 14.7803 3.53033C14.6397 3.67098 14.4489 3.75 14.25 3.75H12.75V5.28188C14.9982 5.47248 17.0931 6.49954 18.6207 8.16006C20.1482 9.82058 20.9973 11.9937 21 14.25V15.75H21.75C21.9489 15.75 22.1397 15.829 22.2803 15.9697C22.421 16.1103 22.5 16.3011 22.5 16.5C22.5 16.6989 22.421 16.8897 22.2803 17.0303C22.1397 17.171 21.9489 17.25 21.75 17.25H2.25C2.05109 17.25 1.86032 17.171 1.71967 17.0303C1.57902 16.8897 1.5 16.6989 1.5 16.5ZM21.75 18.75H2.25C2.05109 18.75 1.86032 18.829 1.71967 18.9697C1.57902 19.1103 1.5 19.3011 1.5 19.5C1.5 19.6989 1.57902 19.8897 1.71967 20.0303C1.86032 20.171 2.05109 20.25 2.25 20.25H21.75C21.9489 20.25 22.1397 20.171 22.2803 20.0303C22.421 19.8897 22.5 19.6989 22.5 19.5C22.5 19.3011 22.421 19.1103 22.2803 18.9697C22.1397 18.829 21.9489 18.75 21.75 18.75Z"/>
</svg>
