<svg width="24" height="24" viewBox="0 0 24 24" fill="none" xmlns="http://www.w3.org/2000/svg">
<path d="M15.6591 5.44405C14.6765 4.29769 13.5707 3.26543 12.3619 2.36634C12.2549 2.29062 12.1275 2.25 11.9968 2.25C11.8662 2.25 11.7387 2.29062 11.6317 2.36634C10.4252 3.2658 9.32148 4.29805 8.34091 5.44405C6.1542 7.98095 5 10.6553 5 13.1785C5 15.054 5.7375 16.8526 7.05025 18.1788C8.36301 19.505 10.1435 20.25 12 20.25C13.8565 20.25 15.637 19.505 16.9497 18.1788C18.2625 16.8526 19 15.054 19 13.1785C19 10.6553 17.8458 7.98095 15.6591 5.44405ZM16.4426 13.929C16.2776 14.8602 15.8342 15.7178 15.172 16.3866C14.5098 17.0554 13.6607 17.5032 12.739 17.6697C12.705 17.6752 12.6707 17.6782 12.6364 17.6785C12.4767 17.6785 12.323 17.6179 12.2055 17.5086C12.0881 17.3994 12.0156 17.2496 12.0023 17.0889C11.9891 16.9282 12.0362 16.7683 12.1342 16.6411C12.2322 16.5138 12.3739 16.4283 12.5314 16.4017C13.8494 16.1775 14.9678 15.0476 15.1914 13.7137C15.2196 13.5455 15.3129 13.3956 15.4506 13.2969C15.5882 13.1982 15.7591 13.1588 15.9256 13.1873C16.092 13.2159 16.2404 13.3101 16.3381 13.4492C16.4358 13.5883 16.4749 13.7609 16.4466 13.929H16.4426Z"/>
</svg>
