<svg width="24" height="24" viewBox="0 0 24 24" fill="none" xmlns="http://www.w3.org/2000/svg">
<path d="M23.0462 11.4028C22.9506 11.2347 22.8224 11.0874 22.6691 10.9694C22.5159 10.8514 22.3407 10.7652 22.1537 10.7156C21.4755 10.5411 20.7747 10.4709 20.0753 10.5075C20.4503 8.64656 20.1691 7.17469 19.8878 6.30188C19.7731 5.94339 19.5291 5.64041 19.2033 5.45187C18.8776 5.26334 18.4933 5.20275 18.1253 5.28188C17.1713 5.49434 16.2642 5.87942 15.4487 6.41812C14.8515 5.1981 13.982 4.13161 12.9072 3.30094C12.6467 3.1056 12.3299 3 12.0044 3C11.6788 3 11.362 3.1056 11.1016 3.30094C10.0251 4.13108 9.15389 5.19762 8.55531 6.41812C7.73982 5.87942 6.83272 5.49434 5.87875 5.28188C5.51086 5.20234 5.12653 5.26278 4.80081 5.45139C4.47509 5.63999 4.23135 5.94322 4.11718 6.30188C3.83593 7.17469 3.55468 8.64563 3.92406 10.5075C3.2247 10.4709 2.52384 10.5411 1.84562 10.7156C1.65867 10.7652 1.48346 10.8514 1.33022 10.9694C1.17698 11.0874 1.04879 11.2347 0.95312 11.4028C0.853125 11.5749 0.788365 11.7651 0.762613 11.9624C0.736861 12.1598 0.75063 12.3602 0.80312 12.5522C1.12093 13.7316 2.09687 15.9731 5.05281 17.7394C8.00875 19.5056 10.6056 19.5 12.0044 19.5C13.4031 19.5 16.0047 19.5 18.9419 17.7394C21.8978 15.9731 22.8737 13.7316 23.1916 12.5522C23.2447 12.3605 23.2593 12.1602 23.2343 11.9629C23.2094 11.7656 23.1455 11.5752 23.0462 11.4028ZM5.82156 16.4522C3.32499 14.9597 2.51406 13.1297 2.24968 12.1594C2.93944 11.9891 3.65535 11.9518 4.35906 12.0497C4.59399 12.679 4.88092 13.2877 5.21687 13.8694C6.04174 15.2915 7.12239 16.5489 8.40437 17.5781C7.49786 17.3175 6.6295 16.9389 5.82156 16.4522ZM11.9997 17.85C11.125 17.1994 8.99968 15.2034 8.99968 11.1722C8.99968 7.19062 11.0978 5.17875 11.9997 4.5C12.9016 5.18062 14.9997 7.1925 14.9997 11.1741C14.9997 15.2034 12.8744 17.1994 11.9997 17.85ZM21.7497 12.1613C21.49 13.1213 20.6809 14.9559 18.1787 16.4522C17.3708 16.9386 16.5024 17.3169 15.5959 17.5772C16.8779 16.5479 17.9586 15.2906 18.7834 13.8684C19.1194 13.2867 19.4063 12.6781 19.6412 12.0487C20.3448 11.9518 21.0603 11.9897 21.7497 12.1603V12.1613Z"/>
</svg>
