<svg width="24" height="24" viewBox="0 0 24 24" fill="none" xmlns="http://www.w3.org/2000/svg">
<path d="M21.9666 10.7671L17.7478 14.4074L19.0331 19.8515C19.1041 20.147 19.0858 20.4569 18.9807 20.7421C18.8755 21.0272 18.6882 21.2748 18.4425 21.4536C18.1967 21.6324 17.9034 21.7343 17.5997 21.7465C17.2961 21.7587 16.9956 21.6806 16.7363 21.5221L12.0019 18.6083L7.26471 21.5221C7.00542 21.6797 6.7053 21.757 6.40215 21.7444C6.099 21.7318 5.80636 21.6297 5.56108 21.4511C5.31581 21.2725 5.12887 21.0253 5.02381 20.7406C4.91874 20.456 4.90024 20.1466 4.97064 19.8515L6.26064 14.4074L2.04189 10.7671C1.81249 10.5688 1.64657 10.3074 1.56488 10.0154C1.48318 9.72336 1.48932 9.41376 1.58253 9.12522C1.67574 8.83669 1.85189 8.58201 2.08898 8.39299C2.32607 8.20397 2.6136 8.08899 2.91564 8.06241L8.44689 7.61616L10.5806 2.45241C10.6961 2.17099 10.8927 1.93027 11.1454 1.76085C11.398 1.59143 11.6954 1.50098 11.9996 1.50098C12.3037 1.50098 12.6011 1.59143 12.8537 1.76085C13.1064 1.93027 13.303 2.17099 13.4185 2.45241L15.5513 7.61616L21.0825 8.06241C21.3852 8.088 21.6735 8.20234 21.9115 8.3911C22.1494 8.57986 22.3264 8.83464 22.4202 9.12352C22.514 9.41241 22.5204 9.72254 22.4387 10.0151C22.357 10.3076 22.1908 10.5695 21.961 10.768L21.9666 10.7671Z"/>
</svg>
