<svg width="24" height="24" viewBox="0 0 24 24" fill="none" xmlns="http://www.w3.org/2000/svg">
<path d="M12 24C18.6274 24 24 18.6274 24 12C24 5.37258 18.6274 0 12 0C5.37258 0 0 5.37258 0 12C0 18.6274 5.37258 24 12 24Z"/>
<path fill-rule="evenodd" clip-rule="evenodd" d="M5.43299 11.8739C8.93123 10.3498 11.2639 9.34501 12.4311 8.85954C15.7636 7.47343 16.4561 7.23264 16.9075 7.22469C17.0067 7.22295 17.2287 7.24755 17.3725 7.36421C17.4939 7.46272 17.5273 7.59579 17.5432 7.68919C17.5592 7.78258 17.5791 7.99534 17.5633 8.16159C17.3827 10.0591 16.6013 14.6638 16.2038 16.789C16.0356 17.6882 15.7043 17.9897 15.3837 18.0193C14.6868 18.0834 14.1577 17.5587 13.4827 17.1163C12.4266 16.424 11.8299 15.993 10.8047 15.3174C9.61994 14.5367 10.388 14.1075 11.0632 13.4063C11.2399 13.2227 14.3103 10.43 14.3697 10.1766C14.3771 10.1449 14.384 10.0268 14.3139 9.96446C14.2437 9.90209 14.1401 9.92342 14.0654 9.94038C13.9595 9.96442 12.2723 11.0796 9.00374 13.286C8.52483 13.6148 8.09104 13.775 7.70239 13.7666C7.27392 13.7574 6.44974 13.5244 5.83704 13.3252C5.08553 13.0809 4.48826 12.9518 4.54027 12.5369C4.56736 12.3208 4.86493 12.0998 5.43299 11.8739Z" fill="#1B2615"/>
</svg>
