<svg width="40" height="40" viewBox="0 0 40 40" fill="none" xmlns="http://www.w3.org/2000/svg">
<path d="M19.9996 1.59961C30.162 1.59961 38.3996 9.83721 38.3996 19.9996C38.3996 30.162 30.162 38.3996 19.9996 38.3996C9.83721 38.3996 1.59961 30.162 1.59961 19.9996C1.59961 9.83721 9.83721 1.59961 19.9996 1.59961ZM26.3468 27.4996C26.6852 26.4612 28.2708 16.1124 28.4668 14.0732C28.526 13.4556 28.3308 13.0452 27.9484 12.862C27.486 12.6396 26.8012 12.7508 26.0068 13.0372C24.9172 13.43 10.9876 19.3444 10.1828 19.6868C9.41961 20.0108 8.69801 20.3644 8.69801 20.8764C8.69801 21.2364 8.91161 21.4388 9.50041 21.6492C10.1132 21.8676 11.6564 22.3356 12.5676 22.5868C13.4452 22.8292 14.4444 22.6188 15.0044 22.2708C15.598 21.902 22.4484 17.318 22.9404 16.9164C23.4316 16.5148 23.8236 17.0292 23.422 17.4316C23.0204 17.8332 18.318 22.3972 17.698 23.0292C16.9452 23.7964 17.4796 24.5916 17.9844 24.91C18.5612 25.2732 22.7092 28.0556 23.334 28.502C23.9588 28.9484 24.5924 29.1508 25.1724 29.1508C25.7524 29.1508 26.058 28.3868 26.3468 27.4996Z"/>
</svg>
