<svg width="24" height="24" viewBox="0 0 24 24" fill="none" xmlns="http://www.w3.org/2000/svg">
<path fill-rule="evenodd" clip-rule="evenodd" d="M1.78755 1.68707C0.117188 3.37414 0.117188 6.08942 0.117188 11.52V12.48C0.117188 17.9106 0.117188 20.6259 1.78755 22.3129C3.45792 24 6.14632 24 11.5231 24H12.4736C17.8504 24 20.5388 24 22.2092 22.3129C23.8796 20.6259 23.8796 17.9106 23.8796 12.48V11.52C23.8796 6.08942 23.8796 3.37414 22.2092 1.68707C20.5388 0 17.8504 0 12.4736 0H11.5231C6.14632 0 3.45792 0 1.78755 1.68707ZM4.12714 7.30006C4.25583 13.5401 7.34492 17.29 12.7608 17.29H13.0678V13.72C15.0579 13.92 16.5627 15.39 17.1666 17.29H19.9786C19.2063 14.45 17.1765 12.88 15.9092 12.28C17.1765 11.54 18.9587 9.74004 19.3845 7.30006H16.8299C16.2755 9.28006 14.6321 11.08 13.0678 11.25V7.30006H10.5132V14.22C8.92906 13.82 6.9291 11.88 6.83999 7.30006H4.12714Z"/>
<path d="M4.12714 7.30006C4.25583 13.5401 7.34492 17.29 12.7608 17.29H13.0678V13.72C15.0579 13.92 16.5627 15.39 17.1666 17.29H19.9786C19.2063 14.45 17.1765 12.88 15.9092 12.28C17.1765 11.54 18.9587 9.74004 19.3845 7.30006H16.8299C16.2755 9.28006 14.6321 11.08 13.0678 11.25V7.30006H10.5132V14.22C8.92906 13.82 6.9291 11.88 6.83999 7.30006H4.12714Z" fill="#1B2615"/>
</svg>
