<?xml version="1.0" encoding="utf-8"?>
<!-- Generator: Adobe Illustrator 19.2.1, SVG Export Plug-In . SVG Version: 6.00 Build 0)  -->
<svg version="1.1" id="Слой_1" xmlns="http://www.w3.org/2000/svg" xmlns:xlink="http://www.w3.org/1999/xlink" x="0px" y="0px"
	 viewBox="0 0 24 24" style="enable-background:new 0 0 24 24;" xml:space="preserve">
<style type="text/css">
	.st0{fill:#FFFFFF;}
	.st1{fill:#1B2615;}
</style>
<g>
	<path d="M3,23.3c-1.4,0.5-2.6-0.8-2.1-2.2c0.2-0.7,0.5-1.3,0.7-2c0.2-0.6,0.1-1.3-0.1-1.8C-2.3,9.4,3.2,1.1,10.6,0.4c7.2-0.7,13.2,4.5,13.2,11.6c0,7.5-7.2,13.8-15.4,11.2c-0.6-0.2-1.4-0.8-2.1-0.9C5.3,22.2,4,22.9,3,23.3z"/>
	<path d="M6.2,10.7c1.1,3,5.4,7,8.6,7.1c1.5,0.1,3.3-0.7,3.2-2.8c-0.9-0.7-2-1.2-3.1-1.6c-0.5,0.5-1,1.2-1.6,1.6c-1.9-0.9-3.4-2.2-4.3-4.1c1.8-1,0.7-3.1,0-4.6C6.3,5.6,5.6,8.9,6.2,10.7z"/>
	<path fill="#1B2615" d="M9,6.4c0.7,1.4,1.8,3.6,0,4.6c0.9,1.9,2.4,3.2,4.3,4.1c0.6-0.4,1.1-1.1,1.6-1.6c1.1,0.4,2.2,0.9,3.1,1.6c0.1,2.1-1.7,2.9-3.2,2.8c-3.2-0.1-7.6-4.2-8.6-7.1C5.6,8.9,6.3,5.6,9,6.4z"/>
</g>
</svg>
