<svg width="24" height="24" viewBox="0 0 24 24" fill="none" xmlns="http://www.w3.org/2000/svg">
<path d="M13.4996 19.125C13.4996 19.4216 13.4116 19.7116 13.2468 19.9583C13.082 20.205 12.8477 20.3972 12.5736 20.5108C12.2995 20.6243 11.9979 20.654 11.7069 20.5961C11.416 20.5383 11.1487 20.3954 10.9389 20.1856C10.7291 19.9758 10.5863 19.7086 10.5284 19.4176C10.4705 19.1266 10.5002 18.825 10.6138 18.5509C10.7273 18.2768 10.9196 18.0426 11.1662 17.8777C11.4129 17.7129 11.7029 17.625 11.9996 17.625C12.3974 17.625 12.7789 17.783 13.0602 18.0643C13.3415 18.3456 13.4996 18.7271 13.4996 19.125ZM22.463 7.86652C19.5128 5.44689 15.8151 4.12451 11.9996 4.12451C8.18402 4.12451 4.48639 5.44689 1.53615 7.86652C1.42196 7.96027 1.32735 8.07559 1.25774 8.2059C1.18812 8.33622 1.14485 8.47897 1.13039 8.626C1.11594 8.77304 1.13059 8.92148 1.17351 9.06285C1.21643 9.20423 1.28677 9.33576 1.38052 9.44995C1.47427 9.56414 1.5896 9.65875 1.71991 9.72836C1.85023 9.79798 1.99297 9.84126 2.14001 9.85571C2.28705 9.87016 2.43549 9.85551 2.57686 9.81259C2.71824 9.76967 2.84977 9.69933 2.96396 9.60558C5.51174 7.5164 8.70476 6.37465 11.9996 6.37465C15.2944 6.37465 18.4874 7.5164 21.0352 9.60558C21.1494 9.69933 21.2809 9.76967 21.4223 9.81259C21.5637 9.85551 21.7121 9.87016 21.8592 9.85571C22.0062 9.84126 22.1489 9.79798 22.2793 9.72836C22.4096 9.65875 22.5249 9.56414 22.6186 9.44995C22.7124 9.33576 22.7827 9.20423 22.8257 9.06285C22.8686 8.92148 22.8832 8.77304 22.8688 8.626C22.8543 8.47897 22.8111 8.33622 22.7414 8.2059C22.6718 8.07559 22.5772 7.96027 22.463 7.86652ZM19.448 11.2162C17.3281 9.53791 14.7034 8.62475 11.9996 8.62475C9.29572 8.62475 6.6711 9.53791 4.55115 11.2162C4.32314 11.4034 4.17776 11.6726 4.14632 11.9659C4.11488 12.2592 4.19989 12.5531 4.38306 12.7843C4.56622 13.0156 4.83287 13.1656 5.12559 13.2021C5.4183 13.2387 5.71365 13.1588 5.94802 12.9796C7.67044 11.6162 9.80282 10.8743 11.9996 10.8743C14.1963 10.8743 16.3287 11.6162 18.0511 12.9796C18.2855 13.1588 18.5809 13.2387 18.8736 13.2021C19.1663 13.1656 19.433 13.0156 19.6161 12.7843C19.7993 12.5531 19.8843 12.2592 19.8529 11.9659C19.8214 11.6726 19.676 11.4034 19.448 11.2162ZM16.4124 14.5593C15.1299 13.627 13.5851 13.1248 11.9996 13.1248C10.414 13.1248 8.86924 13.627 7.58677 14.5593C7.34559 14.7351 7.18412 14.9995 7.13788 15.2944C7.09164 15.5892 7.16442 15.8903 7.34021 16.1315C7.516 16.3727 7.7804 16.5342 8.07524 16.5804C8.37008 16.6266 8.67122 16.5539 8.9124 16.3781C9.8096 15.7258 10.8903 15.3745 11.9996 15.3745C13.1088 15.3745 14.1896 15.7258 15.0868 16.3781C15.2062 16.4651 15.3416 16.5278 15.4852 16.5625C15.6289 16.5972 15.7779 16.6033 15.9239 16.5804C16.0699 16.5575 16.21 16.5061 16.3361 16.4291C16.4622 16.352 16.5719 16.2509 16.659 16.1315C16.746 16.0121 16.8087 15.8767 16.8434 15.7331C16.8781 15.5894 16.8842 15.4403 16.8613 15.2944C16.8384 15.1484 16.787 15.0083 16.7099 14.8822C16.6329 14.7561 16.5318 14.6464 16.4124 14.5593Z"/>
</svg>
