<svg width="24" height="24" viewBox="0 0 24 24" fill="none" xmlns="http://www.w3.org/2000/svg">
<path d="M23.3424 5.39896C23.2419 5.00571 23.0493 4.642 22.7806 4.33782C22.5118 4.03365 22.1746 3.79773 21.7968 3.64954C18.14 2.2372 12.32 2.25 12 2.25C11.68 2.25 5.85996 2.2372 2.20324 3.64954C1.82537 3.79773 1.48815 4.03365 1.2194 4.33782C0.950651 4.642 0.758077 5.00571 0.657565 5.39896C0.381284 6.46355 0.0527344 8.40925 0.0527344 11.6371C0.0527344 14.865 0.381284 16.8107 0.657565 17.8753C0.757927 18.2688 0.950433 18.6327 1.21919 18.9371C1.48795 19.2414 1.82525 19.4775 2.20324 19.6258C5.70635 20.9773 11.1893 21.0243 11.9296 21.0243H12.0704C12.8107 21.0243 18.2968 20.9773 21.7968 19.6258C22.1748 19.4775 22.5121 19.2414 22.7808 18.9371C23.0496 18.6327 23.2421 18.2688 23.3424 17.8753C23.6187 16.8086 23.9473 14.865 23.9473 11.6371C23.9473 8.40925 23.6187 6.46355 23.3424 5.39896ZM15.6503 11.9924L10.5301 15.4059C10.4658 15.4487 10.3911 15.4734 10.3139 15.4771C10.2367 15.4808 10.16 15.4636 10.0919 15.4271C10.0237 15.3906 9.9668 15.3363 9.92712 15.27C9.88744 15.2037 9.86651 15.1279 9.86656 15.0506V8.22364C9.86651 8.14637 9.88744 8.07054 9.92712 8.00424C9.9668 7.93794 10.0237 7.88366 10.0919 7.84719C10.16 7.81072 10.2367 7.79343 10.3139 7.79717C10.3911 7.80091 10.4658 7.82554 10.5301 7.86842L15.6503 11.2819C15.7088 11.3209 15.7568 11.3737 15.79 11.4357C15.8232 11.4976 15.8406 11.5668 15.8406 11.6371C15.8406 11.7074 15.8232 11.7767 15.79 11.8386C15.7568 11.9006 15.7088 11.9534 15.6503 11.9924Z"/>
</svg>
