<svg xmlns="http://www.w3.org/2000/svg" version="1.1" xmlns:xlink="http://www.w3.org/1999/xlink" width="50" height="50"><svg version="1.1" id="SvgjsSvg1013" xmlns="http://www.w3.org/2000/svg" xmlns:xlink="http://www.w3.org/1999/xlink" x="0px" y="0px" viewBox="0 0 50 50" style="enable-background:new 0 0 50 50;" xml:space="preserve">
<style type="text/css">
	.st0{fill:#D3B36F;}
</style>
<path class="st0" d="M25,0.3c13.6,0,24.7,11,24.7,24.7c0,13.6-11,24.7-24.7,24.7c-13.6,0-24.7-11-24.7-24.7
	C0.3,11.4,11.4,0.3,25,0.3z M25,8.9l-8.8,8.8l0.4,0.4c1.9-1.3,4-2,6.2-2.2l-9.6,9.6l1.7,1.7c2.1-1.8,4.6-3,7.2-3.7L10.8,34.9
	l0.7,0.7c7.7-5.3,18.2-4.8,25.5,1.4l2.1-2.1L27.5,23.2c2.9,0.2,5.7,1.2,8.2,2.9l0.6-0.6l-9.3-9.3c2,0.5,4,1.4,5.6,2.8l1.3-1.3
	L25,8.9z"></path>
</svg><style>@media (prefers-color-scheme: light) { :root { filter: none; } }
@media (prefers-color-scheme: dark) { :root { filter: none; } }
</style></svg>