<svg width="24" height="24" viewBox="0 0 24 24" fill="none" xmlns="http://www.w3.org/2000/svg">
<path d="M20.2926 3.71249C19.356 2.77606 18.0859 2.25 16.7615 2.25C15.4371 2.25 14.1669 2.77606 13.2304 3.71249L3.71476 13.2272C2.79797 14.1676 2.28859 15.4313 2.29698 16.7446C2.30536 18.0579 2.83084 19.315 3.75956 20.2436C4.68829 21.1722 5.94548 21.6975 7.25878 21.7057C8.57209 21.7139 9.83575 21.2044 10.776 20.2875L20.2926 10.7728C21.2273 9.83572 21.7522 8.56619 21.7522 7.24264C21.7522 5.91909 21.2273 4.64956 20.2926 3.71249ZM19.2313 9.71248L14.4735 14.4694L9.53382 9.53061L14.2916 4.7728C14.9493 4.13035 15.8337 3.77307 16.753 3.77844C17.6724 3.78381 18.5525 4.1514 19.2026 4.80149C19.8527 5.45158 20.2203 6.33175 20.2257 7.25109C20.2311 8.17044 19.8738 9.05484 19.2313 9.71248ZM17.7848 7.71936C17.8545 7.78901 17.9098 7.87173 17.9476 7.96278C17.9853 8.05383 18.0047 8.15142 18.0047 8.24998C18.0047 8.34855 17.9853 8.44614 17.9476 8.53719C17.9098 8.62824 17.8545 8.71096 17.7848 8.78061L15.5348 11.0306C15.4651 11.1002 15.3824 11.1554 15.2913 11.1931C15.2003 11.2308 15.1028 11.2501 15.0043 11.2501C14.9058 11.25 14.8082 11.2306 14.7173 11.1928C14.6263 11.1551 14.5436 11.0998 14.474 11.0301C14.4044 10.9605 14.3491 10.8777 14.3115 10.7867C14.2738 10.6957 14.2545 10.5982 14.2545 10.4997C14.2546 10.4012 14.274 10.3036 14.3117 10.2126C14.3495 10.1216 14.4048 10.039 14.4744 9.96936L16.7244 7.71936C16.8651 7.57881 17.0558 7.49986 17.2546 7.49986C17.4534 7.49986 17.6441 7.57881 17.7848 7.71936Z" fill="#1A212B"/>
</svg>
