<svg width="24" height="24" viewBox="0 0 24 24" fill="none" xmlns="http://www.w3.org/2000/svg">
<path d="M21.4359 12.1046L18.8053 11.228C18.7255 11.2002 18.6386 11.2002 18.5588 11.228L14.5059 12.7018C14.424 12.7326 14.3375 12.7491 14.25 12.7505C14.0858 12.7504 13.9261 12.6965 13.7956 12.5969C13.665 12.4973 13.5707 12.3576 13.5272 12.1993C13.4799 12.0136 13.5039 11.8169 13.5945 11.648C13.6851 11.4791 13.8357 11.3503 14.0166 11.2871L15.75 10.6571C15.7966 10.6403 15.8368 10.6094 15.865 10.5687C15.8932 10.5281 15.908 10.4796 15.9074 10.4301C15.9068 10.3806 15.8907 10.3325 15.8615 10.2925C15.8323 10.2526 15.7914 10.2227 15.7444 10.2071C15.4371 10.1045 15.1556 9.93661 14.9194 9.7149C14.8689 9.66522 14.8054 9.63084 14.7362 9.61575C14.6671 9.60065 14.595 9.60545 14.5284 9.62959L12.2578 10.4546C12.1606 10.4899 12.0571 10.5047 11.9538 10.498C11.8506 10.4914 11.7498 10.4635 11.6579 10.416C11.566 10.3685 11.4849 10.3026 11.4197 10.2223C11.3545 10.1419 11.3066 10.049 11.2791 9.94928C11.2317 9.76357 11.2557 9.56687 11.3463 9.398C11.4369 9.22912 11.5875 9.10035 11.7684 9.03709L13.6875 8.33771C13.7355 8.32029 13.7795 8.29324 13.8166 8.25823C13.8538 8.22321 13.8835 8.18098 13.9037 8.1341C13.924 8.08722 13.9345 8.0367 13.9346 7.98563C13.9346 7.93456 13.9242 7.88401 13.9041 7.83709L13.6172 7.16584C13.5796 7.07752 13.5095 7.007 13.4214 6.9688C13.3333 6.9306 13.2339 6.92764 13.1437 6.96053L10.7531 7.82959C10.6559 7.86488 10.5524 7.87966 10.4491 7.87302C10.3459 7.86638 10.2452 7.83845 10.1532 7.79099C10.0613 7.74353 9.9802 7.67757 9.915 7.59725C9.8498 7.51693 9.80192 7.42399 9.77437 7.32428C9.72704 7.13857 9.75104 6.94187 9.84164 6.773C9.93224 6.60412 10.0829 6.47535 10.2638 6.41209L12.5138 5.59365C12.5616 5.57622 12.6055 5.5492 12.6426 5.51425C12.6797 5.47931 12.7093 5.43716 12.7295 5.3904C12.7498 5.34363 12.7603 5.29323 12.7605 5.24226C12.7606 5.19129 12.7503 5.14083 12.7303 5.09396L12.2241 3.90053C12.2241 3.90053 12.2241 3.89396 12.2241 3.89115C12.0691 3.54361 11.7879 3.26795 11.4373 3.11999C11.0867 2.97203 10.693 2.96284 10.3359 3.09428L3.23719 5.67146C2.94819 5.77732 2.69859 5.96925 2.52207 6.22137C2.34555 6.47349 2.25059 6.77369 2.25 7.08146V18.0005C2.25 18.3984 2.40804 18.7799 2.68934 19.0612C2.97064 19.3425 3.35218 19.5005 3.75 19.5005H22.5C22.8978 19.5005 23.2794 19.3425 23.5607 19.0612C23.842 18.7799 24 18.3984 24 18.0005V15.6624C24.0001 14.8753 23.7525 14.1082 23.2923 13.4696C22.8321 12.8311 22.1826 12.3535 21.4359 12.1046ZM22.5 18.0005H3.75V16.5005H22.5V18.0005Z" fill="#1A212B"/>
</svg>
