<svg width="36" height="36" viewBox="0 0 36 36" fill="none" xmlns="http://www.w3.org/2000/svg">
<path fill-rule="evenodd" clip-rule="evenodd" d="M18.0004 24.543C21.6138 24.543 24.543 21.6138 24.543 18.0004C24.543 14.387 21.6138 11.4578 18.0004 11.4578C14.387 11.4578 11.4578 14.387 11.4578 18.0004C11.4578 21.6138 14.387 24.543 18.0004 24.543ZM18.0004 24.1019C21.3702 24.1019 24.1019 21.3702 24.1019 18.0004C24.1019 14.6306 21.3702 11.8989 18.0004 11.8989C14.6306 11.8989 11.8989 14.6306 11.8989 18.0004C11.8989 21.3702 14.6306 24.1019 18.0004 24.1019Z" fill="white"/>
<path d="M14.2954 13.2809L15.9273 13.6191L16.3978 18.8825H17.574C17.7063 18.8825 18.0092 18.8384 18.1621 18.662C18.315 18.4856 19.1962 16.5694 19.6177 15.6333C20.044 14.9276 20.5133 14.7511 21.3084 14.7511C21.5731 14.7511 22.6905 14.6776 23.7638 15.4422V16.5743C22.9453 16.2361 21.8965 15.8391 21.3084 16.5743C21.1516 16.7703 20.7821 17.3123 20.5586 17.9122C20.3675 18.5787 19.7176 19.9058 18.6473 19.8823C19.3628 20.4214 20.9615 21.8642 21.6319 23.3227L25.0576 28.4685H23.1315C21.4849 25.4349 17.871 19.5147 16.589 20.1028L16.7801 23.5285L15.1187 23.0286L14.2954 13.2809Z" fill="white"/>
<path fill-rule="evenodd" clip-rule="evenodd" d="M18.0004 27.3953C18.7682 27.3953 19.5146 27.3031 20.229 27.1294L22.3984 30.6004H27.8727L24.2466 25.0183C26.1785 23.2975 27.3953 20.7911 27.3953 18.0004C27.3953 12.8117 23.189 8.60552 18.0004 8.60552C12.8117 8.60552 8.60552 12.8117 8.60552 18.0004C8.60552 23.189 12.8117 27.3953 18.0004 27.3953ZM22.6591 30.1299L20.7033 27.0006C20.7085 26.9991 20.7136 26.9975 20.7188 26.996L20.4282 26.56C19.6564 26.7785 18.8421 26.8954 18.0004 26.8954C13.0878 26.8954 9.10541 22.913 9.10541 18.0004C9.10541 13.0878 13.0878 9.10541 18.0004 9.10541C22.913 9.10541 26.8954 13.0878 26.8954 18.0004C26.8954 20.7891 25.6121 23.278 23.6038 24.9089L23.8787 25.3294C23.8807 25.3279 23.8827 25.3263 23.8846 25.3247L27.006 30.1299H22.6591Z" fill="white"/>
<path d="M22.4283 29.8004C21.0508 30.3175 19.5586 30.6004 18.0004 30.6004C11.0416 30.6004 5.40039 24.9592 5.40039 18.0004C5.40039 11.0416 11.0416 5.40039 18.0004 5.40039C24.9592 5.40039 30.6004 11.0416 30.6004 18.0004C30.6004 22.0849 28.6569 25.7154 25.6443 28.0178L25.3821 27.6259C28.269 25.4087 30.1299 21.9219 30.1299 18.0004C30.1299 11.3014 24.6993 5.87087 18.0004 5.87087C11.3014 5.87087 5.87087 11.3014 5.87087 18.0004C5.87087 24.6993 11.3014 30.1299 18.0004 30.1299C19.4682 30.1299 20.8751 29.8692 22.1773 29.3916L22.4283 29.8004Z" fill="white"/>
<path d="M16.3069 29.486L15.1002 29.3111L15.317 27.788L15.5211 27.8175L15.3299 29.1609L16.1294 29.2768L16.3207 27.9334L16.5237 27.9629L16.3069 29.486Z" fill="white"/>
<path d="M15.1606 27.1975L14.7159 28.6733L14.5498 28.6232L14.5916 28.4846C14.5361 28.527 14.4796 28.5542 14.4223 28.5661C14.3647 28.5787 14.3008 28.5744 14.2306 28.5533C14.1388 28.5256 14.0648 28.4777 14.0088 28.4097C13.9527 28.3416 13.9197 28.2593 13.9097 28.1628C13.8996 28.067 13.9098 27.9681 13.9405 27.8663C13.9734 27.7572 14.023 27.6647 14.0893 27.589C14.1546 27.5137 14.2322 27.4641 14.322 27.44C14.4108 27.4164 14.4968 27.4171 14.5798 27.4421C14.6406 27.4605 14.6914 27.4897 14.7324 27.5298C14.7726 27.5697 14.8024 27.6137 14.8218 27.6619L14.9783 27.1426L15.1606 27.1975ZM14.7134 28.084C14.7547 27.9468 14.7573 27.8368 14.721 27.7543C14.6848 27.6718 14.6268 27.6185 14.5472 27.5945C14.4661 27.57 14.3868 27.583 14.309 27.6333C14.2303 27.6841 14.1695 27.7809 14.1265 27.9235C14.0856 28.0595 14.0832 28.1698 14.1196 28.2546C14.1552 28.3391 14.2122 28.3932 14.2905 28.4168C14.3681 28.4402 14.4479 28.4248 14.5298 28.3706C14.6108 28.3169 14.672 28.2213 14.7134 28.084Z" fill="white"/>
<path d="M13.0265 27.1744L12.8563 27.0729C12.9309 26.9812 13.0193 26.9235 13.1216 26.8998C13.2238 26.876 13.3347 26.8905 13.454 26.9431C13.6043 27.0094 13.7034 27.1077 13.7513 27.2382C13.7982 27.369 13.785 27.5172 13.7116 27.6828C13.6357 27.8543 13.5322 27.9677 13.4012 28.0231C13.2703 28.0785 13.1338 28.0749 12.9919 28.0123C12.8545 27.9517 12.7628 27.8559 12.7167 27.7247C12.6707 27.5936 12.685 27.4439 12.7595 27.2757C12.7641 27.2654 12.7712 27.2502 12.7809 27.2301L13.5473 27.568C13.5905 27.4532 13.5965 27.3534 13.5654 27.2686C13.5344 27.1838 13.4759 27.1225 13.3901 27.0847C13.3263 27.0565 13.2644 27.0491 13.2045 27.0625C13.1446 27.0758 13.0853 27.1131 13.0265 27.1744ZM13.4748 27.7057L12.9009 27.4527C12.8707 27.5418 12.8641 27.6158 12.8813 27.6745C12.9073 27.7655 12.9645 27.8305 13.0529 27.8695C13.1329 27.9047 13.212 27.9079 13.2904 27.879C13.3681 27.8498 13.4296 27.7921 13.4748 27.7057Z" fill="white"/>
<path d="M12.2367 27.5456L11.9817 27.3952L12.1838 26.4785L11.4454 27.0787L11.2095 26.9396L11.7794 25.9815L11.9433 26.0782L11.4845 26.8496L12.2293 26.2469L12.3759 26.3334L12.1655 27.3013L12.6463 26.493L12.8066 26.5875L12.2367 27.5456Z" fill="white"/>
<path d="M10.8953 26.5869L10.7473 26.4674L11.2855 25.8084L10.3372 26.1361L10.1777 26.0074L10.8833 25.1434L11.0313 25.2629L10.4964 25.9178L11.4415 25.5941L11.6009 25.7229L10.8953 26.5869Z" fill="white"/>
<path d="M9.30431 25.0413L10.1086 24.2672L10.2406 24.4024L9.92703 24.7042L10.0037 24.7828C10.0504 24.8307 10.0916 24.8604 10.1273 24.8719C10.1621 24.8834 10.2349 24.8793 10.3458 24.8595L10.6372 24.809L10.8017 24.9775L10.442 25.0394C10.3321 25.0582 10.2513 25.0496 10.1994 25.0135C10.2645 25.1013 10.2928 25.186 10.2842 25.2675C10.2752 25.3485 10.2411 25.4175 10.182 25.4743C10.1123 25.5414 10.032 25.5714 9.94086 25.5643C9.84927 25.5567 9.758 25.5063 9.66707 25.4131L9.30431 25.0413ZM9.54913 25.068L9.73788 25.2614C9.81702 25.3426 9.88076 25.3828 9.92911 25.3822C9.97696 25.3811 10.0178 25.3642 10.0516 25.3317C10.0996 25.2855 10.1182 25.2343 10.1075 25.1782C10.0958 25.1221 10.0472 25.0502 9.96167 24.9625L9.81495 24.8121L9.54913 25.068Z" fill="white"/>
<path d="M7.74034 23.3483L7.15837 22.2819L8.51978 21.5531L8.6182 21.7334L7.41745 22.3762L7.80308 23.0828L9.00383 22.44L9.10175 22.6194L7.74034 23.3483Z" fill="white"/>
<path d="M8.90745 21.0811L7.44631 21.5962L7.38767 21.4339L7.52493 21.3855C7.4574 21.3662 7.40167 21.3371 7.35774 21.2983C7.31316 21.2597 7.27847 21.2061 7.25368 21.1375C7.22126 21.0477 7.21587 20.9604 7.2375 20.8754C7.25913 20.7904 7.30606 20.7155 7.37831 20.6506C7.44989 20.5859 7.53607 20.5358 7.63687 20.5003C7.74495 20.4622 7.84946 20.4473 7.95039 20.4556C8.05042 20.4635 8.13699 20.4962 8.2101 20.5537C8.28231 20.6108 8.33308 20.68 8.36239 20.7611C8.38385 20.8205 8.39055 20.8784 8.38252 20.9348C8.37424 20.9905 8.35636 21.0403 8.32886 21.0842L8.8431 20.903L8.90745 21.0811ZM7.92216 21.2466C8.05809 21.1987 8.14866 21.1359 8.19386 21.0582C8.23906 20.9805 8.2476 20.9028 8.21948 20.8249C8.19087 20.7457 8.13296 20.6899 8.04572 20.6574C7.95759 20.6245 7.8429 20.633 7.70166 20.6827C7.56705 20.7302 7.47627 20.7934 7.42932 20.8725C7.38213 20.9508 7.37236 21.0283 7.4 21.1048C7.42741 21.1807 7.48753 21.2354 7.58036 21.2689C7.67229 21.3019 7.78622 21.2945 7.92216 21.2466Z" fill="white"/>
<path d="M7.88192 19.3803C7.95598 19.4357 8.01231 19.4925 8.05092 19.5507C8.08938 19.6082 8.11691 19.6732 8.13351 19.7456C8.16092 19.8651 8.15279 19.9635 8.10911 20.0407C8.06475 20.118 7.99689 20.1668 7.90551 20.1871C7.85193 20.199 7.80041 20.1978 7.75096 20.1837C7.70066 20.169 7.65766 20.1452 7.62193 20.1122C7.58606 20.0785 7.55561 20.0386 7.53059 19.9924C7.51267 19.9584 7.49087 19.9058 7.46518 19.8346C7.41317 19.6897 7.36674 19.5847 7.32587 19.5199C7.30029 19.5248 7.28407 19.5281 7.2772 19.5296C7.20163 19.5464 7.15238 19.5756 7.12945 19.6173C7.09835 19.6737 7.09345 19.7484 7.11475 19.8413C7.13464 19.9281 7.16482 19.9889 7.20529 20.0237C7.24492 20.058 7.30582 20.0764 7.388 20.079L7.40461 20.2649C7.32322 20.2657 7.25452 20.2526 7.1985 20.2255C7.14179 20.1986 7.09258 20.1524 7.05088 20.087C7.00848 20.0218 6.97655 19.9423 6.9551 19.8487C6.9338 19.7558 6.92748 19.6779 6.93615 19.615C6.94482 19.552 6.96286 19.5031 6.99026 19.4683C7.01697 19.4337 7.05449 19.4053 7.10283 19.383C7.13302 19.3699 7.18934 19.3542 7.27178 19.3359L7.5191 19.281C7.69154 19.2427 7.79992 19.2147 7.84422 19.197C7.88769 19.1787 7.92771 19.1533 7.96429 19.1208L8.00846 19.3135C7.97437 19.3411 7.93219 19.3634 7.88192 19.3803ZM7.47117 19.4876C7.514 19.5485 7.56039 19.6437 7.61032 19.7734C7.6387 19.8468 7.66336 19.8976 7.6843 19.926C7.70525 19.9544 7.73108 19.9742 7.76179 19.9853C7.79181 19.9966 7.82296 19.9986 7.85525 19.9915C7.90472 19.9805 7.94171 19.9529 7.96623 19.9087C7.99059 19.8638 7.99455 19.8055 7.9781 19.7337C7.96182 19.6627 7.93187 19.6029 7.88827 19.5545C7.84398 19.5061 7.79172 19.475 7.7315 19.4611C7.68505 19.4506 7.62094 19.4544 7.53919 19.4725L7.47117 19.4876Z" fill="white"/>
<path d="M6.8837 18.9925L6.83749 18.559C6.82614 18.4524 6.82682 18.3724 6.83955 18.3191C6.8515 18.2651 6.87933 18.2172 6.92304 18.1755C6.96668 18.1331 7.02179 18.1086 7.08836 18.1019C7.14161 18.0965 7.1894 18.103 7.23171 18.1212C7.27326 18.1389 7.30968 18.1683 7.34098 18.2095C7.35293 18.1555 7.38126 18.109 7.42598 18.07C7.46991 18.0304 7.52482 18.0072 7.59068 18.0006C7.69724 17.9969 7.77972 18.0266 7.83815 18.0897C7.89658 18.1528 7.93273 18.2495 7.94661 18.3797L7.99995 18.8801L6.8837 18.9925ZM7.33349 18.7572L7.31211 18.5566C7.30358 18.4765 7.29351 18.4219 7.28191 18.3928C7.27031 18.3637 7.25063 18.3386 7.22288 18.3174C7.19443 18.2964 7.16234 18.2876 7.1266 18.2912C7.06774 18.2972 7.02898 18.3222 7.01031 18.3663C6.99156 18.4097 6.98753 18.4816 6.99822 18.5818L7.02027 18.7887L7.33349 18.7572ZM7.82435 18.7078L7.79796 18.4602C7.7866 18.3536 7.76654 18.2817 7.73779 18.2445C7.70833 18.2073 7.66301 18.1908 7.60182 18.1948C7.56609 18.1984 7.53438 18.2132 7.5067 18.2392C7.47831 18.2653 7.46224 18.2972 7.45846 18.3349C7.45399 18.3727 7.45609 18.4323 7.46478 18.5138L7.48905 18.7415L7.82435 18.7078Z" fill="white"/>
<path d="M6.83948 17.7015L6.84156 17.5126L7.69765 17.5258L6.84732 16.9887L6.84956 16.785L7.97198 16.8023L7.96991 16.9913L7.1191 16.9782L7.96415 17.5152L7.96191 17.7189L6.83948 17.7015Z" fill="white"/>
<path d="M6.93607 16.495L7.05333 15.5969L7.20951 15.6177L7.16304 15.9736L8.12004 16.1012L8.09572 16.2875L7.13872 16.1599L7.09226 16.5158L6.93607 16.495Z" fill="white"/>
<path d="M8.07888 14.7326L8.14714 14.5482C8.25197 14.6046 8.32576 14.6805 8.36851 14.7762C8.41126 14.8718 8.41785 14.9826 8.38829 15.1086C8.35106 15.2672 8.27242 15.3816 8.15239 15.4518C8.03183 15.5211 7.88268 15.5348 7.70493 15.4929C7.52101 15.4495 7.38929 15.3688 7.30977 15.2509C7.23026 15.1329 7.20808 14.999 7.24324 14.8492C7.27727 14.7042 7.35483 14.5974 7.47592 14.5289C7.597 14.4605 7.74779 14.4475 7.92828 14.4901C7.93926 14.4927 7.95565 14.4969 7.97746 14.5028L7.78761 15.3118C7.90931 15.3334 8.00918 15.3213 8.08722 15.2758C8.16527 15.2302 8.21492 15.1622 8.23618 15.0716C8.252 15.0042 8.24766 14.9424 8.22316 14.8863C8.19866 14.8302 8.15056 14.779 8.07888 14.7326ZM7.63765 15.2657L7.7798 14.6599C7.68592 14.6464 7.61151 14.6533 7.55658 14.6806C7.47147 14.7223 7.41796 14.7898 7.39607 14.8831C7.37625 14.9676 7.38803 15.0455 7.43141 15.1168C7.47495 15.1874 7.5437 15.2371 7.63765 15.2657Z" fill="white"/>
<path d="M7.61514 13.8833L7.91998 13.0608L8.97356 13.4503L8.90829 13.6264L8.00253 13.2915L7.82859 13.7608L8.3534 13.9548C8.47575 14.0001 8.55498 14.0338 8.59108 14.0561C8.62719 14.0784 8.65323 14.1127 8.6692 14.1589C8.68517 14.205 8.68076 14.2616 8.65597 14.3285C8.64065 14.3698 8.62038 14.4164 8.59515 14.4682L8.44635 14.4132L8.47515 14.3355C8.48877 14.2987 8.49485 14.2711 8.49341 14.2527C8.49131 14.234 8.48296 14.219 8.46837 14.2077C8.45378 14.1963 8.40085 14.1737 8.30958 14.14L7.61514 13.8833Z" fill="white"/>
<path d="M8.15336 12.7237L8.24041 12.556L8.63044 12.7572L8.7407 12.5448C8.8126 12.4063 8.89515 12.3139 8.98835 12.2675C9.08125 12.2202 9.17531 12.221 9.27055 12.2702C9.35388 12.3131 9.40903 12.3813 9.43598 12.4748C9.46264 12.5672 9.44034 12.6821 9.36909 12.8193L9.15146 13.2384L8.15336 12.7237ZM9.09941 12.999L9.19082 12.823C9.24595 12.7168 9.27213 12.6343 9.26935 12.5754C9.26657 12.5165 9.2373 12.4726 9.18154 12.4439C9.1383 12.4216 9.09106 12.4185 9.03982 12.4346C8.98858 12.4506 8.93313 12.5161 8.87348 12.631L8.77047 12.8294L9.09941 12.999Z" fill="white"/>
<path d="M9.81481 11.4314L9.93902 11.2909C10.0348 11.3794 10.0897 11.4788 10.1036 11.5892C10.1173 11.6986 10.0901 11.8037 10.022 11.9047C9.93658 12.0311 9.82625 12.1051 9.69098 12.1266C9.55551 12.1472 9.40988 12.1053 9.25407 12.0011C9.15332 11.9337 9.07634 11.8582 9.0231 11.7746C8.96987 11.691 8.94723 11.603 8.95518 11.5107C8.96294 11.4173 8.99365 11.3309 9.04731 11.2514C9.11508 11.1511 9.19628 11.0863 9.29091 11.0569C9.38496 11.0272 9.4852 11.0349 9.59165 11.08L9.51255 11.2481C9.44008 11.2207 9.3755 11.215 9.3188 11.2309C9.26249 11.2463 9.21671 11.2801 9.18146 11.3323C9.12819 11.4112 9.1136 11.4945 9.13771 11.5822C9.16123 11.6695 9.23479 11.7545 9.35838 11.8372C9.48372 11.921 9.59087 11.9582 9.6798 11.9486C9.76874 11.9391 9.83906 11.896 9.89076 11.8194C9.93228 11.7579 9.94791 11.6939 9.93765 11.6272C9.92739 11.5606 9.88645 11.4953 9.81481 11.4314Z" fill="white"/>
<path d="M9.49738 10.7566L10.084 10.0654L10.2046 10.1665L9.97211 10.4405L10.7111 11.0603L10.5895 11.2037L9.85044 10.5838L9.61799 10.8578L9.49738 10.7566Z" fill="white"/>
<path d="M10.3386 9.87412L10.6529 9.57159C10.7302 9.49723 10.7939 9.44862 10.844 9.42576C10.8942 9.40191 10.9493 9.39423 11.0095 9.40273C11.0702 9.41074 11.1239 9.43868 11.1706 9.48654C11.208 9.52483 11.2326 9.56611 11.2444 9.61038C11.2563 9.65366 11.2557 9.70018 11.2425 9.74994C11.2927 9.72608 11.3471 9.71963 11.4058 9.73058C11.4644 9.74054 11.5169 9.7692 11.5631 9.81655C11.6322 9.89749 11.66 9.98016 11.6464 10.0646C11.6328 10.149 11.5788 10.2366 11.4844 10.3275L11.1217 10.6767L10.3386 9.87412ZM10.8045 10.0807L10.9499 9.94073C11.008 9.88484 11.0449 9.84343 11.0608 9.81649C11.0766 9.78954 11.0842 9.75874 11.0837 9.72408C11.0827 9.68892 11.0696 9.65849 11.0445 9.63279C11.0032 9.59047 10.9593 9.57558 10.9128 9.58812C10.8668 9.60016 10.8075 9.64118 10.7348 9.71116L10.5848 9.8555L10.8045 10.0807ZM11.1489 10.4336L11.3283 10.2608C11.4056 10.1865 11.45 10.1266 11.4616 10.0813C11.4727 10.0355 11.4576 9.9899 11.4163 9.94461C11.3913 9.91892 11.3598 9.90326 11.322 9.89763C11.2837 9.89151 11.2485 9.89855 11.2163 9.91876C11.1837 9.93848 11.1378 9.97676 11.0788 10.0336L10.9137 10.1925L11.1489 10.4336Z" fill="white"/>
<path d="M12.4888 9.39674C12.4697 9.48654 12.4418 9.56095 12.405 9.61998C12.3688 9.67859 12.3212 9.73045 12.2621 9.77556C12.1645 9.85003 12.0712 9.88365 11.9822 9.87642C11.8927 9.86862 11.8193 9.82777 11.762 9.75385C11.7284 9.7105 11.7075 9.66359 11.6995 9.61313C11.6915 9.56168 11.695 9.51299 11.71 9.46706C11.7255 9.4207 11.7491 9.37664 11.7806 9.33489C11.8041 9.30455 11.8429 9.263 11.8969 9.21024C12.0072 9.10301 12.0834 9.01748 12.1253 8.95364C12.1099 8.93265 12.1 8.91938 12.0957 8.91382C12.0483 8.85268 12.0007 8.82046 11.9529 8.81716C11.8881 8.81262 11.8178 8.83929 11.742 8.89717C11.6712 8.95122 11.6285 9.00373 11.6139 9.0547C11.5994 9.10469 11.6084 9.16725 11.641 9.24239L11.4783 9.33474C11.4429 9.26172 11.4257 9.19434 11.4267 9.13258C11.4272 9.07027 11.4484 9.0067 11.4905 8.94188C11.5321 8.8765 11.591 8.81466 11.6674 8.75636C11.7432 8.69848 11.8117 8.66034 11.8729 8.64195C11.9341 8.62357 11.9864 8.61948 12.0298 8.62969C12.0728 8.63934 12.1147 8.66133 12.1555 8.69564C12.1803 8.71738 12.2186 8.76159 12.2703 8.82829L12.4255 9.02836C12.5337 9.16786 12.6053 9.25389 12.6403 9.28645C12.6754 9.31802 12.7156 9.34352 12.7608 9.36296L12.6036 9.48297C12.5639 9.46376 12.5256 9.43502 12.4888 9.39674ZM12.2164 9.07118C12.179 9.13512 12.1117 9.21658 12.0145 9.31555C11.9595 9.37168 11.9235 9.4151 11.9065 9.44579C11.8895 9.47648 11.8824 9.50798 11.8853 9.5403C11.8877 9.57206 11.8991 9.601 11.9193 9.62712C11.9503 9.66713 11.9913 9.68899 12.042 9.69268C12.0934 9.69595 12.1483 9.67525 12.2069 9.63056C12.2649 9.5863 12.3067 9.53443 12.3325 9.47495C12.3578 9.41491 12.364 9.35486 12.3512 9.29478C12.3411 9.24853 12.3104 9.19234 12.2591 9.12621L12.2164 9.07118Z" fill="white"/>
<path d="M13.9998 8.7866L13.3504 7.38606L13.8811 7.14514C13.9745 7.10273 14.0479 7.07481 14.1013 7.06136C14.1757 7.04146 14.2438 7.03715 14.3056 7.04843C14.367 7.05907 14.4253 7.08698 14.4803 7.13216C14.536 7.17705 14.5799 7.23421 14.6121 7.30363C14.6673 7.42273 14.6761 7.54096 14.6383 7.65832C14.6003 7.77504 14.4818 7.87856 14.2828 7.96889L13.922 8.1327L14.186 8.70209L13.9998 8.7866ZM13.8453 7.96742L14.209 7.80231C14.3293 7.74771 14.4044 7.68664 14.4343 7.61911C14.4641 7.55159 14.4603 7.47738 14.4228 7.39649C14.3956 7.3379 14.3574 7.29472 14.3082 7.26698C14.2592 7.2383 14.2074 7.22831 14.1525 7.23701C14.1174 7.24296 14.0575 7.26511 13.9731 7.30344L13.6132 7.46681L13.8453 7.96742Z" fill="white"/>
<path d="M15.099 7.8004C15.0395 7.60226 15.0508 7.43934 15.1329 7.31162C15.2016 7.20534 15.3025 7.13278 15.4355 7.09392C15.5833 7.05072 15.7187 7.06378 15.8416 7.13307C15.9643 7.2017 16.0511 7.32098 16.1022 7.4909C16.1435 7.62859 16.1551 7.74317 16.1371 7.83465C16.1195 7.92527 16.0774 8.00404 16.0109 8.07097C15.945 8.1377 15.8651 8.18478 15.7712 8.21219C15.6207 8.25618 15.4844 8.24376 15.3624 8.17493C15.2411 8.10591 15.1533 7.98107 15.099 7.8004ZM15.2864 7.74566C15.3275 7.88267 15.3884 7.97666 15.4691 8.02761C15.5495 8.07789 15.6353 8.08972 15.7265 8.06309C15.817 8.03666 15.8819 7.98041 15.9215 7.89435C15.961 7.80829 15.9597 7.69507 15.9175 7.5547C15.8778 7.42239 15.8174 7.33119 15.7362 7.28111C15.6556 7.23016 15.5704 7.2178 15.4806 7.24403C15.3894 7.27066 15.324 7.32667 15.2842 7.41206C15.2445 7.49745 15.2452 7.60865 15.2864 7.74566Z" fill="white"/>
<path d="M17.131 7.541L17.3195 7.53376C17.3215 7.66345 17.2871 7.7712 17.2164 7.85701C17.1462 7.94201 17.0507 7.99469 16.93 8.01503C16.7786 8.04053 16.6482 8.01205 16.5387 7.9296C16.4298 7.84634 16.3592 7.71292 16.3271 7.52933C16.3063 7.41063 16.3079 7.30342 16.3318 7.20773C16.3558 7.11203 16.4042 7.03532 16.477 6.97758C16.5503 6.91904 16.6346 6.88176 16.7297 6.86574C16.8498 6.84551 16.9533 6.85933 17.0403 6.9072C17.1272 6.95438 17.1911 7.03172 17.2321 7.13921L17.0548 7.19786C17.0245 7.12693 16.9839 7.07658 16.9329 7.04679C16.8827 7.01689 16.8263 7.0072 16.7638 7.01773C16.6694 7.03363 16.5986 7.08037 16.5515 7.15794C16.5042 7.23483 16.4933 7.34608 16.5188 7.49171C16.5447 7.6394 16.592 7.74193 16.6606 7.79929C16.7293 7.85664 16.8094 7.8776 16.901 7.86217C16.9746 7.84977 17.0321 7.817 17.0736 7.76383C17.115 7.71067 17.1341 7.63639 17.131 7.541Z" fill="white"/>
<path d="M18.2757 7.50264L18.464 7.51564C18.4519 7.64472 18.406 7.74811 18.3263 7.8258C18.2473 7.90275 18.1467 7.94486 18.0243 7.95214C17.871 7.96126 17.7444 7.91899 17.6444 7.82533C17.5451 7.73093 17.4894 7.59079 17.4774 7.40493C17.4696 7.28474 17.4828 7.17839 17.517 7.08586C17.5513 6.99334 17.6077 6.92229 17.6864 6.87272C17.7657 6.82241 17.8535 6.79439 17.9499 6.78866C18.0715 6.78142 18.173 6.80625 18.2543 6.86314C18.3356 6.91933 18.3908 7.00302 18.4199 7.11423L18.2372 7.1535C18.2148 7.07978 18.1798 7.0254 18.1324 6.99034C18.0856 6.95524 18.0306 6.93958 17.9673 6.94334C17.8717 6.94903 17.7962 6.98789 17.7409 7.05992C17.6855 7.13126 17.6626 7.24064 17.6722 7.38808C17.6819 7.53761 17.7178 7.64455 17.7798 7.7089C17.8419 7.77325 17.9193 7.80266 18.0121 7.79714C18.0867 7.79271 18.1474 7.7663 18.1944 7.71791C18.2414 7.66952 18.2685 7.59776 18.2757 7.50264Z" fill="white"/>
<path d="M18.7425 6.84872L18.9326 6.85809L18.8941 7.70754L19.4595 6.88409L19.6643 6.89419L19.6138 8.00792L19.4237 7.99854L19.462 7.15433L18.8969 7.97255L18.692 7.96244L18.7425 6.84872Z" fill="white"/>
<path d="M20.0487 7.00647L20.2364 7.03807L20.0972 7.87659L20.7568 7.12568L20.9591 7.15974L20.7766 8.25914L20.5888 8.22754L20.7272 7.39419L20.0684 8.13993L19.8661 8.10587L20.0487 7.00647ZM20.7696 6.70004L20.8979 6.72164C20.8731 6.80615 20.8302 6.86702 20.7689 6.90425C20.7084 6.94159 20.634 6.95283 20.5457 6.93797C20.4567 6.92298 20.3893 6.88821 20.3433 6.83365C20.2981 6.77851 20.2775 6.70659 20.2816 6.61788L20.4098 6.63947C20.4118 6.68804 20.425 6.72646 20.4497 6.75472C20.4751 6.78241 20.5121 6.80035 20.5608 6.80855C20.6171 6.81803 20.6613 6.81412 20.6935 6.79684C20.7265 6.77898 20.7519 6.74672 20.7696 6.70004Z" fill="white"/>
<path d="M21.8048 8.18668L21.9779 8.26185C21.9228 8.37916 21.8445 8.46101 21.743 8.50741C21.6424 8.55333 21.5332 8.55925 21.4153 8.52518C21.2677 8.48249 21.1625 8.40041 21.1 8.27893C21.0383 8.15698 21.0333 8.00662 21.0849 7.82786C21.1183 7.71226 21.1668 7.6167 21.2304 7.54117C21.294 7.46563 21.3714 7.41772 21.4623 7.39742C21.5542 7.37665 21.6465 7.37968 21.7394 7.4065C21.8565 7.44038 21.9439 7.49766 22.0013 7.57834C22.0589 7.65835 22.0826 7.75549 22.0724 7.86976L21.8867 7.84557C21.8906 7.76877 21.876 7.70595 21.8432 7.65713C21.8109 7.6085 21.7644 7.57538 21.7034 7.55775C21.6113 7.53112 21.5269 7.54242 21.4503 7.59163C21.3739 7.64018 21.3153 7.73535 21.2743 7.87716C21.2328 8.02097 21.2304 8.13351 21.2671 8.21475C21.3039 8.296 21.367 8.34955 21.4564 8.37539C21.5282 8.39615 21.5944 8.39164 21.6551 8.36186C21.7158 8.33208 21.7657 8.27368 21.8048 8.18668Z" fill="white"/>
<path d="M22.5254 7.74889L22.7013 7.82168L22.5165 8.26645C22.5725 8.28964 22.616 8.29515 22.647 8.283C22.6787 8.27112 22.7377 8.22286 22.824 8.13821C22.8924 8.0711 22.9427 8.02908 22.9749 8.01213C23.0071 7.99519 23.0391 7.98799 23.0709 7.99054C23.1027 7.99309 23.1495 8.00717 23.2114 8.03279L23.2466 8.04735L23.1866 8.19173L23.1381 8.17054C23.0919 8.15139 23.0594 8.14591 23.0408 8.15408C23.0212 8.16263 22.9827 8.19632 22.9255 8.25514C22.8708 8.31127 22.8271 8.34767 22.7942 8.36434C22.7613 8.38102 22.7173 8.39044 22.6622 8.39262C22.7295 8.44392 22.7747 8.54442 22.7981 8.69412L22.8581 9.09259L22.6646 9.01252L22.6094 8.61607C22.5976 8.53621 22.5815 8.48034 22.5611 8.44845C22.541 8.41591 22.5111 8.39142 22.4714 8.37498L22.2737 8.85075L22.0978 8.77796L22.5254 7.74889Z" fill="white"/>
<path d="M23.122 8.65201C23.2185 8.46957 23.3412 8.36132 23.49 8.32728C23.6141 8.29922 23.7376 8.31749 23.8606 8.38209C23.9973 8.4539 24.0854 8.55712 24.125 8.69175C24.165 8.82577 24.1436 8.97101 24.0608 9.12748C23.9937 9.25426 23.9215 9.34398 23.8442 9.39663C23.7679 9.44898 23.6823 9.47592 23.5873 9.47742C23.4931 9.47926 23.4026 9.45739 23.3158 9.41181C23.1766 9.33869 23.0874 9.23529 23.0481 9.1016C23.0093 8.96824 23.034 8.81837 23.122 8.65201ZM23.2952 8.743C23.2285 8.86917 23.2062 8.97838 23.2283 9.07065C23.2508 9.16229 23.3042 9.23025 23.3884 9.27451C23.4721 9.31845 23.5583 9.32347 23.6473 9.28957C23.7362 9.25567 23.8148 9.1741 23.8832 9.04484C23.9477 8.923 23.9683 8.8161 23.9452 8.72412C23.923 8.63186 23.8705 8.56392 23.7875 8.52031C23.7032 8.47605 23.6168 8.47055 23.5282 8.50383C23.4396 8.53712 23.3619 8.61684 23.2952 8.743Z" fill="white"/>
<path d="M24.6185 8.92015L24.7751 9.0283L24.2884 9.72581L25.209 9.32809L25.3777 9.44465L24.7397 10.3592L24.5832 10.251L25.0668 9.55781L24.1492 9.95122L23.9805 9.83467L24.6185 8.92015ZM25.4036 8.94948L25.5105 9.02338C25.4518 9.08913 25.3867 9.12582 25.3152 9.13344C25.2443 9.14146 25.172 9.12004 25.0984 9.06917C25.0242 9.0179 24.978 8.9579 24.9598 8.88917C24.9426 8.82027 24.9548 8.74665 24.9966 8.6683L25.1036 8.7422C25.0844 8.78685 25.08 8.82714 25.0901 8.86308C25.1012 8.89885 25.1271 8.93075 25.1677 8.95879C25.2146 8.99123 25.2564 9.00648 25.293 9.00453C25.3306 9.00241 25.3674 8.98406 25.4036 8.94948Z" fill="white"/>
<path d="M27.0419 10.8349L27.1883 10.7022L27.3184 10.8435L27.172 10.9763C27.2976 11.1284 27.359 11.2827 27.3563 11.4391C27.354 11.5951 27.2937 11.7267 27.1753 11.8341C27.0596 11.9391 26.9238 11.9877 26.768 11.9798C26.6122 11.972 26.4611 11.8967 26.3146 11.7541L26.1674 11.8876L26.0374 11.7462L26.1845 11.6127C26.0659 11.4733 26.0037 11.324 25.9981 11.1647C25.9931 11.0049 26.0539 10.8676 26.1805 10.7527C26.3077 10.6373 26.4505 10.5895 26.6087 10.6094C26.7675 10.6298 26.9119 10.705 27.0419 10.8349ZM27.0427 11.0936L26.4447 11.6361C26.5389 11.7292 26.6377 11.7802 26.7411 11.7891C26.8444 11.7979 26.9416 11.7611 27.0324 11.6787C27.1217 11.5977 27.1671 11.5062 27.1685 11.4042C27.1704 11.3018 27.1285 11.1982 27.0427 11.0936ZM26.9119 10.9529C26.8215 10.8629 26.7239 10.8123 26.6192 10.8009C26.5144 10.7895 26.4161 10.8255 26.3242 10.9088C26.2333 10.9912 26.1882 11.0845 26.1886 11.1885C26.1896 11.2931 26.2319 11.3949 26.3154 11.494L26.9119 10.9529Z" fill="white"/>
<path d="M27.3866 13.1085L27.4736 13.2856C27.3605 13.3216 27.2545 13.3217 27.1555 13.2859C27.0566 13.2501 26.9716 13.1778 26.9004 13.069C26.8107 12.932 26.7817 12.796 26.8133 12.6612C26.846 12.5265 26.9387 12.41 27.0916 12.3117C27.2498 12.21 27.3991 12.1716 27.5396 12.1965C27.6801 12.2215 27.7926 12.2987 27.8773 12.4281C27.9593 12.5533 27.9835 12.6832 27.9499 12.8176C27.9162 12.9521 27.8218 13.0692 27.6666 13.1691C27.6571 13.1751 27.6428 13.184 27.6235 13.1955L27.1662 12.4969C27.0668 12.5692 27.0068 12.6492 26.9861 12.7368C26.9655 12.8245 26.9808 12.9074 27.032 12.9856C27.0701 13.0438 27.1179 13.0836 27.1756 13.1051C27.2332 13.1265 27.3036 13.1276 27.3866 13.1085ZM27.3031 12.4214L27.6454 12.9445C27.7199 12.8866 27.7661 12.8284 27.7841 12.7701C27.8124 12.68 27.8002 12.5947 27.7474 12.5141C27.6997 12.4412 27.635 12.3955 27.5533 12.377C27.472 12.3591 27.3886 12.3739 27.3031 12.4214Z" fill="white"/>
<path d="M28.3058 13.3253L28.6541 14.0226L27.7891 14.446L27.8433 14.5544L27.4183 14.7624L27.3487 14.6229L27.6335 14.4835L27.24 13.6957L26.9552 13.8351L26.8855 13.6957L27.3105 13.4877L27.3552 13.5772C27.5776 13.6169 27.8944 13.5329 28.3058 13.3253ZM28.2354 13.5357C27.903 13.6828 27.6365 13.7506 27.4361 13.7393L27.7049 14.2773L28.4289 13.9229L28.2354 13.5357Z" fill="white"/>
<path d="M28.3226 15.5052L28.3641 15.6978C28.2454 15.7056 28.1424 15.6803 28.055 15.6219C27.9676 15.5634 27.9025 15.4729 27.8597 15.3504C27.8059 15.1961 27.8107 15.0574 27.8743 14.9342C27.9387 14.8115 28.0571 14.7208 28.2295 14.6622C28.4079 14.6015 28.5623 14.6001 28.6927 14.6579C28.8232 14.7158 28.9138 14.8176 28.9646 14.9633C29.0138 15.1044 29.0058 15.2361 28.9405 15.3583C28.8751 15.4806 28.7549 15.5715 28.5799 15.6311C28.5692 15.6347 28.5531 15.6398 28.5316 15.6464L28.2571 14.8595C28.1429 14.9058 28.0651 14.9689 28.0238 15.049C27.9824 15.129 27.9771 15.213 28.0079 15.3011C28.0307 15.3667 28.0676 15.4168 28.1184 15.4513C28.1692 15.4859 28.2372 15.5039 28.3226 15.5052ZM28.4083 14.8192L28.6138 15.4083C28.7003 15.37 28.7593 15.3248 28.791 15.2725C28.8403 15.192 28.8492 15.1063 28.8175 15.0156C28.7889 14.9335 28.7371 14.8737 28.6622 14.8362C28.5875 14.7993 28.5029 14.7937 28.4083 14.8192Z" fill="white"/>
<path d="M27.6154 16.1262L29.1317 15.8014L29.169 15.9698L29.0266 16.0003C29.0911 16.028 29.1426 16.0639 29.1812 16.108C29.2205 16.1519 29.248 16.2094 29.2638 16.2806C29.2844 16.3737 29.2785 16.4609 29.2461 16.5424C29.2137 16.6239 29.1575 16.6922 29.0774 16.7474C28.998 16.8023 28.9061 16.841 28.8015 16.8635C28.6893 16.8875 28.5837 16.889 28.4846 16.8679C28.3863 16.8474 28.3046 16.8039 28.2395 16.7376C28.1752 16.6718 28.1337 16.5969 28.1151 16.5127C28.1014 16.4511 28.1022 16.3929 28.1175 16.338C28.1329 16.2838 28.157 16.2367 28.19 16.1967L27.6563 16.311L27.6154 16.1262ZM28.6145 16.0875C28.4734 16.1177 28.3754 16.1684 28.3206 16.2397C28.2657 16.3109 28.2472 16.3869 28.2651 16.4676C28.2833 16.5498 28.3336 16.6125 28.416 16.6557C28.4992 16.6996 28.6141 16.7058 28.7607 16.6744C28.9004 16.6444 28.9986 16.5933 29.0554 16.5209C29.1123 16.4492 29.132 16.3737 29.1144 16.2943C29.097 16.2156 29.0443 16.1538 28.9565 16.1088C28.8696 16.0644 28.7555 16.0573 28.6145 16.0875Z" fill="white"/>
<path d="M28.4171 17.9257C28.3506 17.8616 28.3018 17.7983 28.2709 17.7357C28.24 17.6739 28.2209 17.6061 28.2136 17.5322C28.2015 17.4102 28.222 17.3137 28.2751 17.2426C28.329 17.1715 28.4025 17.1316 28.4958 17.1229C28.5505 17.1178 28.6015 17.1254 28.6488 17.1456C28.6968 17.1664 28.7365 17.1954 28.7678 17.2326C28.7991 17.2705 28.8243 17.3139 28.8433 17.3627C28.8568 17.3988 28.8718 17.4536 28.8883 17.5274C28.9215 17.6776 28.9543 17.7874 28.9867 17.8569C29.0127 17.8551 29.0292 17.8539 29.0362 17.8533C29.1134 17.8461 29.166 17.8233 29.194 17.7848C29.232 17.7327 29.2463 17.6593 29.2369 17.5645C29.2282 17.476 29.2059 17.4119 29.1702 17.3724C29.1352 17.3334 29.077 17.3075 28.9958 17.2947L29.0028 17.1084C29.0837 17.1177 29.1503 17.1393 29.2025 17.1731C29.2553 17.2069 29.2983 17.2588 29.3315 17.3289C29.3653 17.3989 29.3869 17.4816 29.3964 17.5771C29.4058 17.6719 29.4022 17.7499 29.3856 17.8113C29.369 17.8726 29.3449 17.9188 29.3133 17.9499C29.2824 17.9809 29.2416 18.0044 29.1908 18.0204C29.1591 18.0296 29.1013 18.0382 29.0171 18.046L28.7647 18.0696C28.5886 18.086 28.4775 18.1002 28.4313 18.1122C28.3858 18.1249 28.3429 18.1451 28.3025 18.1728L28.283 17.9762C28.3203 17.953 28.365 17.9362 28.4171 17.9257ZM28.8384 17.8707C28.8036 17.805 28.7696 17.7048 28.7364 17.57C28.7175 17.4937 28.6995 17.4401 28.6823 17.4094C28.6651 17.3786 28.642 17.3558 28.6129 17.3409C28.5845 17.326 28.5539 17.3201 28.5209 17.3231C28.4704 17.3278 28.4302 17.3506 28.4003 17.3913C28.3704 17.4328 28.3591 17.4901 28.3663 17.5633C28.3735 17.6358 28.3957 17.6988 28.4328 17.7523C28.4707 17.8058 28.5186 17.8431 28.5766 17.8645C28.6214 17.8807 28.6855 17.8849 28.769 17.8771L28.8384 17.8707Z" fill="white"/>
<path d="M29.3594 18.4536L29.3552 18.6425L28.3894 18.6167L28.3777 19.1394L29.3435 19.1652L29.3393 19.3542L28.3734 19.3284L28.3707 19.4501L27.8962 19.4375L27.8997 19.2821L28.2178 19.2906L28.2372 18.4236L29.3594 18.4536Z" fill="white"/>
<path d="M29.2291 19.8008L29.2018 19.9877L28.3545 19.8616L29.126 20.5058L29.0965 20.7073L27.9857 20.5419L28.013 20.355L28.855 20.4803L28.0888 19.8369L28.1183 19.6354L29.2291 19.8008Z" fill="white"/>
<path d="M28.939 21.1107L28.8894 21.293L28.0628 21.0677L28.7521 21.7982L28.6987 21.9946L27.6149 21.6992L27.6644 21.517L28.4859 21.7409L27.8018 21.0118L27.8552 20.8153L28.939 21.1107Z" fill="white"/>
<path d="M15.2797 25.8524L14.7113 25.5511C14.5949 25.4894 14.5189 25.4219 14.4836 25.3485C14.4482 25.2752 14.4532 25.1955 14.4986 25.1096C14.5277 25.0546 14.569 25.0152 14.6226 24.9914C14.6756 24.9673 14.7297 24.9611 14.785 24.973C14.726 24.9204 14.692 24.8624 14.6829 24.799C14.6738 24.7356 14.6836 24.6768 14.7124 24.6224C14.7529 24.5457 14.8139 24.4982 14.8955 24.4797C14.9767 24.4618 15.0722 24.4819 15.1818 24.5401L15.8002 24.8678L15.2797 25.8524ZM15.2343 25.3049L15.067 25.2162C14.9863 25.1735 14.9226 25.1528 14.8761 25.1542C14.829 25.1554 14.7938 25.1779 14.7706 25.2218C14.7487 25.2632 14.7502 25.3015 14.7749 25.3368C14.7987 25.3723 14.8534 25.4128 14.9391 25.4582L15.1064 25.5469L15.2343 25.3049ZM15.4504 24.8961L15.2452 24.7873C15.1713 24.7481 15.1126 24.7285 15.0692 24.7285C15.0259 24.7284 14.9919 24.7516 14.9674 24.7979C14.942 24.8461 14.9439 24.8895 14.9732 24.928C15.0023 24.9671 15.0728 25.0164 15.185 25.0758L15.3181 25.1464L15.4504 24.8961Z" fill="white"/>
<path d="M12.3071 23.226C12.225 23.2791 12.1325 23.3101 12.0296 23.3192C11.9267 23.3283 11.8313 23.3089 11.7433 23.261C11.6549 23.2126 11.5813 23.1425 11.5225 23.0509C11.4316 22.9093 11.4031 22.7635 11.4371 22.6136C11.4706 22.464 11.5574 22.3439 11.6976 22.2534C11.839 22.1621 11.9857 22.1321 12.1378 22.1635C12.289 22.1947 12.4091 22.2796 12.4981 22.4183C12.5532 22.5041 12.5864 22.5985 12.5979 22.7017C12.6089 22.8042 12.5902 22.8998 12.5418 22.9885C12.4927 23.0775 12.4145 23.1567 12.3071 23.226ZM12.1574 22.9637C12.2501 22.9038 12.3069 22.836 12.3279 22.7601C12.3489 22.6842 12.3386 22.6139 12.2972 22.5493C12.2557 22.4847 12.1963 22.4466 12.1191 22.4349C12.0416 22.4227 11.9559 22.4469 11.862 22.5075C11.7705 22.5666 11.7142 22.6341 11.6932 22.71C11.6719 22.7853 11.6819 22.8552 11.7234 22.9198C11.7649 22.9845 11.8244 23.0229 11.902 23.0351C11.9796 23.0474 12.0647 23.0236 12.1574 22.9637Z" fill="white"/>
<path d="M9.90343 20.8924L9.84544 20.7008C9.93202 20.6809 10.0032 20.6837 10.059 20.709C10.1139 20.7339 10.1643 20.8219 10.21 20.973C10.2155 20.991 10.2206 21.0092 10.2254 21.0274L10.2363 21.0636C10.2635 21.1532 10.2955 21.223 10.3326 21.273C10.3689 21.3233 10.4209 21.3578 10.4886 21.3766C10.556 21.3947 10.653 21.3852 10.7796 21.348C10.689 21.3304 10.6144 21.2947 10.5558 21.241C10.4971 21.1866 10.4539 21.114 10.4264 21.023C10.3841 20.8833 10.4026 20.7483 10.4821 20.6181C10.5609 20.4882 10.6716 20.4014 10.8145 20.3577C10.9633 20.3123 11.1066 20.3244 11.2444 20.3941C11.3819 20.4631 11.4756 20.5799 11.5254 20.7444C11.5596 20.8574 11.5626 20.9649 11.5345 21.0671C11.5063 21.1692 11.4511 21.2529 11.3688 21.3182C11.2858 21.3837 11.1359 21.4496 10.919 21.5158C10.664 21.5937 10.4667 21.6028 10.3269 21.5432C10.1869 21.483 10.0814 21.3358 10.0106 21.1018L9.96747 20.9594C9.95552 20.9199 9.93418 20.8976 9.90343 20.8924ZM11.0534 21.1614C11.1502 21.1318 11.2196 21.0843 11.2618 21.0188C11.3031 20.9529 11.3131 20.8848 11.2918 20.8146C11.269 20.7391 11.2212 20.6861 11.1486 20.6557C11.075 20.6248 10.9922 20.6234 10.9001 20.6515C10.806 20.6803 10.7378 20.7282 10.6954 20.7952C10.6521 20.8617 10.6414 20.9311 10.6632 21.0033C10.6845 21.0735 10.731 21.1247 10.8027 21.1569C10.8744 21.189 10.9579 21.1905 11.0534 21.1614Z" fill="white"/>
<path d="M9.89953 19.2679L9.89214 18.2812L11.0031 18.2713L11.0053 18.5649L10.1329 18.5726L10.1359 18.9742L10.6349 18.9698C10.7618 18.9687 10.8512 18.9825 10.903 19.0114C10.9541 19.0404 10.9879 19.0726 11.0042 19.1081C11.0205 19.1436 11.0289 19.2008 11.0295 19.2798C11.0299 19.3266 11.024 19.3886 11.0121 19.4656L10.7955 19.4675C10.7955 19.4612 10.7961 19.4448 10.7972 19.4182C10.7991 19.3874 10.8 19.3636 10.7999 19.3469C10.7996 19.307 10.7865 19.2827 10.7606 19.2738C10.734 19.265 10.6611 19.2611 10.5419 19.2621L9.89953 19.2679Z" fill="white"/>
<path d="M10.2684 16.919L10.1559 17.1664C10.0592 17.1109 9.99492 17.0412 9.96296 16.9573C9.93101 16.8735 9.93283 16.7614 9.96844 16.6211C10.0008 16.4937 10.0401 16.4027 10.0863 16.3481C10.1319 16.2933 10.1811 16.2592 10.2341 16.246C10.2866 16.2319 10.3747 16.2405 10.4984 16.2719L10.8302 16.3593C10.9248 16.3833 10.9959 16.3967 11.0434 16.3994C11.0904 16.4012 11.1428 16.3961 11.2005 16.384L11.1288 16.6666C11.108 16.6693 11.0776 16.6713 11.0377 16.6727C11.0196 16.6732 11.0076 16.6738 11.0017 16.6744C11.0366 16.7352 11.0588 16.7964 11.0684 16.858C11.0779 16.9195 11.0747 16.9818 11.0587 17.0449C11.0305 17.156 10.9781 17.2361 10.9016 17.2853C10.8253 17.3337 10.7412 17.3463 10.6493 17.323C10.5885 17.3075 10.5381 17.2792 10.4982 17.2381C10.4576 17.1968 10.4314 17.1468 10.4196 17.0883C10.4074 17.0289 10.4043 16.9474 10.4105 16.8436C10.4194 16.7038 10.4196 16.6054 10.411 16.5484L10.3826 16.5412C10.3279 16.5273 10.2856 16.531 10.2557 16.5523C10.2252 16.5734 10.2003 16.6215 10.1813 16.6968C10.1684 16.7476 10.1684 16.7898 10.1815 16.8234C10.1939 16.8568 10.2228 16.8887 10.2684 16.919ZM10.5965 16.5954C10.5994 16.6351 10.5992 16.6968 10.596 16.7803C10.5928 16.8639 10.5962 16.92 10.6062 16.9485C10.6231 16.9924 10.6518 17.0196 10.6924 17.0298C10.7323 17.04 10.7705 17.0338 10.8071 17.0114C10.8438 16.9889 10.8679 16.9546 10.8796 16.9086C10.8927 16.8571 10.8883 16.8036 10.8664 16.7483C10.8494 16.7072 10.8238 16.6765 10.7894 16.6563C10.7669 16.6426 10.7216 16.6272 10.6533 16.6098L10.5965 16.5954Z" fill="white"/>
<path d="M11.183 14.267L11.0871 14.5462C11.0318 14.5265 10.9829 14.5247 10.9403 14.5409C10.898 14.5565 10.8634 14.5884 10.8365 14.6367C10.8007 14.7008 10.7943 14.7645 10.8173 14.8278C10.84 14.8902 10.9031 14.9503 11.0065 15.0082C11.1215 15.0726 11.2135 15.0988 11.2824 15.0869C11.3517 15.0744 11.4046 15.0355 11.441 14.9702C11.4683 14.9214 11.4769 14.8737 11.4669 14.8273C11.4563 14.7805 11.4208 14.7318 11.3604 14.6811L11.5443 14.4524C11.6453 14.5434 11.7045 14.6426 11.722 14.7501C11.7395 14.8577 11.7133 14.974 11.6434 15.0991C11.5641 15.2414 11.456 15.3299 11.3191 15.3647C11.1827 15.3988 11.0353 15.3716 10.8771 15.2831C10.717 15.1935 10.6163 15.0814 10.5748 14.9468C10.5327 14.8119 10.552 14.6721 10.6327 14.5274C10.6988 14.409 10.7768 14.3293 10.8668 14.2883C10.9565 14.2464 11.0619 14.2393 11.183 14.267Z" fill="white"/>
<path d="M11.371 13.2223L12.0566 12.4844L12.2303 12.6464L11.9877 12.9075L12.6266 13.5037L12.4262 13.7195L11.7873 13.1233L11.5447 13.3844L11.371 13.2223Z" fill="white"/>
<path d="M12.8356 11.6288L13.0775 11.4823L13.4377 12.0808L13.4646 11.248L13.7119 11.0982L14.2853 12.0513L14.0434 12.1977L13.6768 11.5884L13.6509 12.4353L13.409 12.5818L12.8356 11.6288Z" fill="white"/>
<path d="M15.9321 10.0561L16.2218 10.0128L16.2881 10.4629C16.3356 10.4502 16.3676 10.4302 16.384 10.403C16.4005 10.3758 16.4168 10.3193 16.4331 10.2335C16.4544 10.1194 16.4848 10.0438 16.5245 10.0068C16.5642 9.96978 16.6199 9.94592 16.6917 9.9352C16.7137 9.9319 16.7523 9.92791 16.8073 9.92323L16.8368 10.116C16.7602 10.1274 16.7123 10.142 16.693 10.1597C16.6739 10.1781 16.6574 10.2269 16.6437 10.3059C16.6248 10.4126 16.5854 10.4825 16.5254 10.5154C16.6209 10.5273 16.7103 10.5956 16.7936 10.7202C16.798 10.7266 16.8029 10.7333 16.8082 10.7403L17.0154 11.0199L16.7029 11.0666L16.5111 10.7699C16.4719 10.71 16.44 10.6727 16.4153 10.658C16.3911 10.6426 16.3577 10.638 16.3149 10.6444L16.3841 11.1142L16.0943 11.1575L15.9321 10.0561Z" fill="white"/>
<path d="M18.1382 10.1171L17.8786 10.039C17.9207 9.93541 17.9811 9.86207 18.0597 9.81895C18.1384 9.77584 18.2494 9.76244 18.3928 9.77878C18.5231 9.79361 18.6183 9.82028 18.6784 9.8588C18.7387 9.89662 18.7789 9.94095 18.799 9.9918C18.8199 10.042 18.8231 10.1307 18.8085 10.2578L18.7662 10.5992C18.755 10.6964 18.7513 10.7688 18.755 10.8164C18.7594 10.8633 18.7714 10.9147 18.791 10.9704L18.5021 10.9375C18.4967 10.9172 18.4906 10.8873 18.4839 10.8478C18.4811 10.8299 18.4789 10.818 18.4775 10.8122C18.422 10.8552 18.3645 10.8856 18.3049 10.9034C18.2453 10.9213 18.1833 10.9265 18.1188 10.9192C18.0052 10.9062 17.919 10.8651 17.8603 10.7958C17.8022 10.7266 17.7786 10.6447 17.7895 10.5502C17.7966 10.4877 17.8179 10.4339 17.8533 10.3886C17.8887 10.3427 17.9346 10.3099 17.9909 10.2903C18.048 10.2701 18.1282 10.256 18.2316 10.2481C18.371 10.2379 18.4684 10.2247 18.5236 10.2085L18.5269 10.1793C18.5334 10.123 18.5241 10.0815 18.4991 10.0547C18.4742 10.0273 18.4232 10.0092 18.3463 10.0004C18.2944 9.9945 18.2526 10.0003 18.2212 10.0178C18.1897 10.0347 18.1621 10.0677 18.1382 10.1171ZM18.5017 10.3991C18.4629 10.4074 18.4019 10.4156 18.3188 10.4237C18.2358 10.4318 18.1808 10.4428 18.154 10.4566C18.1128 10.4794 18.0898 10.5116 18.085 10.5533C18.0803 10.5943 18.0915 10.6314 18.1185 10.6648C18.1456 10.6981 18.1827 10.7175 18.2298 10.7228C18.2824 10.7288 18.3347 10.7172 18.3865 10.6879C18.4248 10.6655 18.4517 10.6359 18.4672 10.5989C18.4777 10.5748 18.487 10.5276 18.495 10.4575L18.5017 10.3991Z" fill="white"/>
<path d="M20.0759 9.98511L20.3518 10.0953L20.2532 10.3427C20.2307 10.3992 20.2187 10.4434 20.2173 10.4752C20.2168 10.5066 20.2287 10.5388 20.253 10.5719C20.2783 10.6046 20.3159 10.6309 20.3657 10.6508C20.4143 10.6702 20.4731 10.6808 20.5421 10.6828L20.718 10.2415L20.991 10.3505L20.5786 11.3851L20.3056 11.2761L20.4703 10.863C20.3527 10.8492 20.266 10.8312 20.2103 10.8089C20.1268 10.7756 20.0588 10.7277 20.0063 10.6654C19.9541 10.6024 19.9269 10.538 19.9245 10.4723C19.9224 10.406 19.94 10.3261 19.9773 10.2326L20.0759 9.98511Z" fill="white"/>
<path d="M22.181 11.7902L22.3869 12.0046C22.2926 12.0686 22.1959 12.0991 22.0967 12.0959C21.9985 12.0926 21.9004 12.0545 21.8024 11.9818C21.6473 11.8665 21.5701 11.7304 21.5709 11.5734C21.5724 11.4482 21.6191 11.3236 21.711 11.1994C21.8207 11.0511 21.9452 10.9638 22.0845 10.9375C22.2241 10.9106 22.353 10.9411 22.4711 11.0289C22.6038 11.1274 22.6759 11.2493 22.6874 11.3945C22.6992 11.5392 22.6363 11.701 22.4986 11.8799L21.9073 11.4407C21.857 11.5121 21.8355 11.5811 21.8428 11.6474C21.8505 11.7132 21.8816 11.7663 21.9359 11.8067C21.9728 11.8341 22.0114 11.8471 22.0515 11.8456C22.0917 11.8441 22.1349 11.8256 22.181 11.7902ZM22.3716 11.5609C22.4206 11.4911 22.4414 11.426 22.434 11.3657C22.4271 11.3048 22.3995 11.2564 22.3513 11.2206C22.2998 11.1824 22.2433 11.1696 22.1819 11.1823C22.1204 11.1949 22.0661 11.2338 22.0188 11.2988L22.3716 11.5609Z" fill="white"/>
<path d="M24.1759 13.0322L23.9543 12.8381C23.9934 12.7942 24.0136 12.7495 24.0147 12.7038C24.0163 12.6587 23.9999 12.6146 23.9656 12.5715C23.9199 12.5142 23.8635 12.4843 23.7963 12.4818C23.7301 12.4794 23.6506 12.5153 23.5579 12.5895C23.4549 12.6721 23.3958 12.7476 23.3807 12.816C23.366 12.885 23.3819 12.9487 23.4285 13.0071C23.4632 13.0508 23.504 13.0767 23.5507 13.0849C23.598 13.0927 23.6564 13.078 23.7261 13.041L23.8677 13.2978C23.7454 13.3573 23.6313 13.3749 23.5254 13.3507C23.4194 13.3265 23.3219 13.2584 23.2327 13.1465C23.1314 13.0193 23.0905 12.8857 23.1102 12.7456C23.1303 12.6061 23.2113 12.4796 23.353 12.366C23.4964 12.2512 23.6381 12.1998 23.7782 12.2119C23.9188 12.2236 24.0406 12.2941 24.1437 12.4235C24.2281 12.5294 24.2722 12.6318 24.276 12.7307C24.2807 12.8297 24.2474 12.9302 24.1759 13.0322Z" fill="white"/>
<path d="M25.068 13.5921L25.4935 14.5045L25.2783 14.6056L25.1278 14.2827L24.3363 14.6543L24.2119 14.3875L25.0034 14.0159L24.8529 13.6931L25.068 13.5921Z" fill="white"/>
<path d="M26.0005 15.5687L26.1015 16.2054C26.1222 16.3359 26.114 16.4374 26.0768 16.5099C26.0395 16.5824 25.973 16.6264 25.8773 16.6418C25.816 16.6516 25.7598 16.6423 25.7086 16.6137C25.6576 16.5858 25.6202 16.5462 25.5965 16.4948C25.59 16.5737 25.5642 16.6359 25.5191 16.6813C25.4741 16.7268 25.4212 16.7544 25.3606 16.7642C25.2752 16.7779 25.2006 16.7577 25.137 16.7035C25.0739 16.6492 25.0327 16.5606 25.0132 16.4378L24.9032 15.7451L26.0005 15.5687ZM25.5913 15.935L25.6211 16.1224C25.6354 16.2128 25.6572 16.2762 25.6863 16.3126C25.7154 16.3496 25.7545 16.3642 25.8034 16.3564C25.8495 16.3489 25.8792 16.3247 25.8925 16.2836C25.9066 16.2432 25.906 16.1749 25.8908 16.079L25.861 15.8916L25.5913 15.935ZM25.1357 16.0082L25.1722 16.2381C25.1854 16.3209 25.2049 16.3797 25.2309 16.4145C25.2569 16.4492 25.2958 16.4624 25.3474 16.4541C25.4011 16.4455 25.4345 16.4178 25.4476 16.3711C25.4614 16.3243 25.4583 16.2381 25.4383 16.1125L25.4147 15.9634L25.1357 16.0082Z" fill="white"/>
<path d="M25.9931 18.0019L26.0684 17.7408C26.1722 17.7817 26.246 17.8412 26.2898 17.9195C26.3336 17.9977 26.3481 18.1089 26.3332 18.2528C26.3197 18.3836 26.2941 18.4793 26.2563 18.5401C26.2192 18.601 26.1753 18.6418 26.1248 18.6627C26.0749 18.6843 25.9865 18.6886 25.8595 18.6756L25.5185 18.6376C25.4214 18.6277 25.3491 18.6248 25.3017 18.6291C25.2549 18.6342 25.2039 18.6469 25.1485 18.6672L25.1784 18.3772C25.1986 18.3716 25.2283 18.3651 25.2677 18.3579C25.2855 18.3548 25.2973 18.3525 25.3031 18.351C25.2597 18.2959 25.2288 18.2387 25.2104 18.1792C25.192 18.1196 25.1861 18.0576 25.1928 17.9929C25.2045 17.8788 25.2447 17.7919 25.3132 17.7322C25.3817 17.6731 25.4631 17.6484 25.5575 17.658C25.6199 17.6644 25.6739 17.685 25.7194 17.7199C25.7655 17.7548 25.7987 17.8004 25.8188 17.8566C25.8396 17.9135 25.8545 17.9937 25.8634 18.0973C25.875 18.2369 25.8891 18.3343 25.9059 18.3894L25.935 18.3924C25.9912 18.3981 26.0325 18.3883 26.059 18.3629C26.0861 18.3375 26.1037 18.2863 26.1116 18.2091C26.117 18.1569 26.1108 18.1152 26.093 18.0838C26.0759 18.0526 26.0426 18.0253 25.9931 18.0019ZM25.7154 18.3699C25.7068 18.3311 25.698 18.2701 25.6891 18.187C25.6801 18.1038 25.6686 18.0489 25.6545 18.0222C25.6314 17.9811 25.5991 17.9585 25.5574 17.9543C25.5165 17.9501 25.4795 17.9618 25.4466 17.9893C25.4136 18.0169 25.3946 18.0543 25.3898 18.1016C25.3843 18.1544 25.3965 18.2066 25.4262 18.2581C25.4489 18.2963 25.4788 18.3229 25.5158 18.3379C25.54 18.3481 25.5871 18.3568 25.6572 18.364L25.7154 18.3699Z" fill="white"/>
</svg>
