<svg width="24" height="24" viewBox="0 0 24 24" fill="none" xmlns="http://www.w3.org/2000/svg">
<path d="M22.2667 9.84002H20.0667C20.0667 9.63846 19.9894 9.44515 19.8519 9.30262C19.7144 9.16009 19.5278 9.08002 19.3333 9.08002H12.7333C12.5388 9.08002 12.3523 9.16009 12.2148 9.30262C12.0773 9.44515 12 9.63846 12 9.84002H6.13333V5.66003C6.13333 5.35768 6.24923 5.06772 6.45552 4.85393C6.66181 4.64014 6.9416 4.52003 7.23333 4.52003C7.49115 4.51894 7.74171 4.60842 7.94414 4.77388C8.14658 4.93933 8.28894 5.171 8.348 5.43108C8.38828 5.62694 8.50153 5.7984 8.66313 5.90821C8.82472 6.01801 9.0216 6.05728 9.21098 6.01748C9.40035 5.97767 9.56692 5.86202 9.67447 5.69564C9.78202 5.52927 9.82186 5.32563 9.78533 5.12898C9.66082 4.52422 9.3391 3.98237 8.8743 3.59463C8.4095 3.20688 7.83 2.9969 7.23333 3.00003C6.55261 3.00003 5.89977 3.28028 5.41843 3.77913C4.93708 4.27798 4.66667 4.95456 4.66667 5.66003V9.84002H1.73333C1.53884 9.84002 1.35232 9.92009 1.21479 10.0626C1.07726 10.2051 1 10.3985 1 10.6V14.4C1.00146 15.8105 1.54276 17.1628 2.50513 18.1601C3.4675 19.1575 4.77234 19.7185 6.13333 19.72V21.24C6.13333 21.4416 6.2106 21.6349 6.34812 21.7774C6.48565 21.9199 6.67217 22 6.86667 22C7.06116 22 7.24768 21.9199 7.38521 21.7774C7.52274 21.6349 7.6 21.4416 7.6 21.24V19.72H16.4V21.24C16.4 21.4416 16.4773 21.6349 16.6148 21.7774C16.7523 21.9199 16.9388 22 17.1333 22C17.3278 22 17.5144 21.9199 17.6519 21.7774C17.7894 21.6349 17.8667 21.4416 17.8667 21.24V19.72C19.2277 19.7185 20.5325 19.1575 21.4949 18.1601C22.4572 17.1628 22.9985 15.8105 23 14.4V10.6C23 10.3985 22.9227 10.2051 22.7852 10.0626C22.6477 9.92009 22.4612 9.84002 22.2667 9.84002ZM18.6 10.6V14.4H13.4667V10.6H18.6Z" fill="black"/>
</svg>
