<svg width="24" height="24" viewBox="0 0 24 24" fill="none" xmlns="http://www.w3.org/2000/svg">
<path d="M13.5045 6.75C13.5045 6.15666 13.6804 5.57664 14.0101 5.08329C14.3397 4.58994 14.8083 4.20543 15.3564 3.97836C15.9046 3.7513 16.5078 3.69189 17.0898 3.80765C17.6717 3.9234 18.2063 4.20912 18.6258 4.62868C19.0454 5.04824 19.3311 5.58279 19.4468 6.16473C19.5626 6.74667 19.5032 7.34987 19.2761 7.89805C19.0491 8.44623 18.6645 8.91477 18.1712 9.24441C17.6779 9.57405 17.0978 9.75 16.5045 9.75C15.7088 9.75 14.9458 9.43393 14.3832 8.87132C13.8206 8.30871 13.5045 7.54565 13.5045 6.75ZM19.7754 17.2678C16.7914 19.7419 14.7392 18.6281 12.3626 17.3372C9.86793 15.9834 7.04136 14.4488 3.27543 17.5706C3.19878 17.6333 3.13529 17.7104 3.08862 17.7977C3.04194 17.885 3.01301 17.9807 3.00348 18.0792C2.99396 18.1777 3.00403 18.2772 3.03311 18.3718C3.0622 18.4664 3.10972 18.5543 3.17295 18.6305C3.23618 18.7066 3.31385 18.7695 3.4015 18.8155C3.48915 18.8615 3.58504 18.8897 3.68363 18.8984C3.78222 18.9072 3.88158 18.8964 3.97596 18.8665C4.07034 18.8367 4.15789 18.7885 4.23355 18.7247C7.21762 16.2506 9.2698 17.3653 11.6464 18.6553C13.0629 19.4241 14.5854 20.2491 16.3273 20.2491C17.6529 20.2491 19.1061 19.77 20.7336 18.4209C20.8867 18.2939 20.9831 18.1112 21.0016 17.913C21.0201 17.7149 20.959 17.5175 20.832 17.3644C20.7049 17.2112 20.5222 17.1148 20.3241 17.0963C20.126 17.0779 19.9286 17.1389 19.7754 17.2659V17.2678ZM3.27543 13.8216C3.19878 13.8842 3.13529 13.9614 3.08862 14.0487C3.04194 14.136 3.01301 14.2316 3.00348 14.3301C2.99396 14.4287 3.00403 14.5281 3.03311 14.6227C3.0622 14.7173 3.10972 14.8052 3.17295 14.8814C3.23618 14.9576 3.31385 15.0204 3.4015 15.0664C3.48915 15.1124 3.58504 15.1406 3.68363 15.1494C3.78222 15.1581 3.88158 15.1473 3.97596 15.1175C4.07034 15.0877 4.15789 15.0394 4.23355 14.9756C7.21762 12.5025 9.2698 13.6163 11.6464 14.9063C13.0629 15.675 14.5854 16.5 16.3273 16.5C17.6529 16.5 19.1061 16.0209 20.7336 14.6719C20.8102 14.6092 20.8737 14.5321 20.9204 14.4448C20.967 14.3575 20.996 14.2618 21.0055 14.1633C21.015 14.0648 21.005 13.9653 20.9759 13.8707C20.9468 13.7761 20.8993 13.6882 20.836 13.612C20.7728 13.5359 20.6951 13.473 20.6075 13.427C20.5198 13.381 20.4239 13.3528 20.3253 13.3441C20.2268 13.3353 20.1274 13.3461 20.033 13.376C19.9386 13.4058 19.8511 13.454 19.7754 13.5178C19.2332 13.9835 18.6239 14.3646 17.9679 14.6484L12.9204 9.60281C12.017 8.69532 10.9425 7.97593 9.75932 7.48626C8.5761 6.99659 7.30753 6.74634 6.02699 6.75H3.75449C3.55558 6.75 3.36481 6.82902 3.22416 6.96967C3.08351 7.11032 3.00449 7.30109 3.00449 7.5C3.00449 7.69891 3.08351 7.88968 3.22416 8.03033C3.36481 8.17098 3.55558 8.25 3.75449 8.25H6.02699C7.39783 8.24737 8.74754 8.5877 9.95324 9.24L7.17543 12.0159C5.98761 12.1275 4.69855 12.6413 3.27543 13.8206V13.8216Z" fill="black"/>
</svg>
