<svg width="40" height="40" viewBox="0 0 40 40" fill="none" xmlns="http://www.w3.org/2000/svg">
<rect width="40" height="40" rx="20" fill="white"/>
<path d="M30.5 17.5625C30.5 24.125 20.7697 29.4369 20.3553 29.6562C20.2461 29.715 20.124 29.7458 20 29.7458C19.876 29.7458 19.7539 29.715 19.6447 29.6562C19.2303 29.4369 9.5 24.125 9.5 17.5625C9.50174 16.0215 10.1147 14.544 11.2044 13.4544C12.294 12.3647 13.7715 11.7517 15.3125 11.75C17.2484 11.75 18.9434 12.5825 20 13.9897C21.0566 12.5825 22.7516 11.75 24.6875 11.75C26.2285 11.7517 27.706 12.3647 28.7956 13.4544C29.8853 14.544 30.4983 16.0215 30.5 17.5625Z" fill="#627856"/>
</svg>
