<svg width="40" height="40" viewBox="0 0 40 40" fill="none" xmlns="http://www.w3.org/2000/svg">
<rect width="40" height="40" rx="20" fill="white"/>
<path d="M29.9666 18.7671L25.7478 22.4074L27.0331 27.8515C27.1041 28.147 27.0858 28.4569 26.9807 28.7421C26.8755 29.0272 26.6882 29.2748 26.4425 29.4536C26.1967 29.6324 25.9034 29.7343 25.5997 29.7465C25.2961 29.7587 24.9956 29.6806 24.7363 29.5221L20.0019 26.6083L15.2647 29.5221C15.0054 29.6797 14.7053 29.757 14.4021 29.7444C14.099 29.7318 13.8064 29.6297 13.5611 29.4511C13.3158 29.2725 13.1289 29.0253 13.0238 28.7406C12.9187 28.456 12.9002 28.1466 12.9706 27.8515L14.2606 22.4074L10.0419 18.7671C9.81249 18.5688 9.64657 18.3074 9.56488 18.0154C9.48318 17.7234 9.48932 17.4138 9.58253 17.1252C9.67574 16.8367 9.85189 16.582 10.089 16.393C10.3261 16.204 10.6136 16.089 10.9156 16.0624L16.4469 15.6162L18.5806 10.4524C18.6961 10.171 18.8927 9.93027 19.1454 9.76085C19.398 9.59143 19.6954 9.50098 19.9996 9.50098C20.3037 9.50098 20.6011 9.59143 20.8537 9.76085C21.1064 9.93027 21.303 10.171 21.4185 10.4524L23.5513 15.6162L29.0825 16.0624C29.3852 16.088 29.6735 16.2023 29.9115 16.3911C30.1494 16.5799 30.3264 16.8346 30.4202 17.1235C30.514 17.4124 30.5204 17.7225 30.4387 18.0151C30.357 18.3076 30.1908 18.5695 29.961 18.768L29.9666 18.7671Z" fill="#627856"/>
</svg>
