<svg width="40" height="40" viewBox="0 0 40 40" fill="none" xmlns="http://www.w3.org/2000/svg">
<rect width="40" height="40" rx="20" fill="white"/>
<path d="M31.8399 18.1168L29.4474 13.3299C29.3592 13.1538 29.2372 12.9967 29.0884 12.8676C28.9395 12.7386 28.7667 12.6401 28.5798 12.5779C28.3929 12.5156 28.1955 12.4908 27.999 12.5048C27.8025 12.5189 27.6107 12.5715 27.4345 12.6596L25.103 13.8249L20.1914 12.5256C20.0654 12.4928 19.9331 12.4928 19.807 12.5256L14.8955 13.8249L12.5639 12.6596C12.3877 12.5715 12.1959 12.5189 11.9994 12.5048C11.8029 12.4908 11.6056 12.5156 11.4187 12.5779C11.2318 12.6401 11.0589 12.7386 10.9101 12.8676C10.7612 12.9967 10.6392 13.1538 10.5511 13.3299L8.1586 18.1159C8.07044 18.2921 8.01784 18.4839 8.00381 18.6804C7.98978 18.8769 8.0146 19.0742 8.07684 19.2611C8.13909 19.448 8.23754 19.6209 8.36658 19.7697C8.49563 19.9186 8.65273 20.0406 8.82891 20.1287L11.3602 21.3953L16.5624 25.1106C16.639 25.1651 16.7252 25.2049 16.8164 25.2278L22.8164 26.7278C22.9421 26.7593 23.0737 26.7577 23.1986 26.7232C23.3235 26.6887 23.4373 26.6224 23.5289 26.5309L27.2789 22.7809L28.6927 21.3671L31.1695 20.1287C31.5251 19.9507 31.7955 19.6388 31.9212 19.2615C32.0469 18.8843 32.0176 18.4725 31.8399 18.1168ZM26.6939 21.2453L23.468 18.6615C23.3235 18.5458 23.1412 18.4876 22.9564 18.4981C22.7715 18.5087 22.5971 18.5873 22.4667 18.7187C20.797 20.4006 18.9361 20.1878 17.7492 19.4378L21.803 15.5003H24.7852L27.3361 20.6012L26.6939 21.2453ZM22.7686 25.1696L17.3199 23.8074L12.7074 20.5131L15.3324 15.2631L19.9992 14.0265L20.918 14.2693L16.6992 18.3643L16.6917 18.3728C16.5329 18.5316 16.4118 18.724 16.3373 18.9359C16.2628 19.1478 16.2368 19.3736 16.2613 19.5969C16.2858 19.8201 16.3601 20.035 16.4787 20.2257C16.5973 20.4164 16.7573 20.5781 16.9467 20.6987C18.8742 21.9296 21.2002 21.7299 23.032 20.2299L25.6242 22.3121L22.7686 25.1696ZM20.3574 28.4321C20.3168 28.5942 20.2233 28.7382 20.0917 28.8411C19.9601 28.944 19.7979 29 19.6308 29.0003C19.5692 29.0002 19.5078 28.9926 19.448 28.9778L15.5377 27.9999C15.4463 27.9774 15.3601 27.9376 15.2836 27.8828L12.8133 26.1184C12.6614 25.9991 12.5614 25.8259 12.534 25.6347C12.5067 25.4435 12.5541 25.2492 12.6665 25.0921C12.7788 24.9351 12.9474 24.8274 13.1372 24.7915C13.327 24.7557 13.5232 24.7944 13.6852 24.8996L16.0392 26.5815L19.8117 27.5228C20.0047 27.571 20.1705 27.6939 20.2728 27.8645C20.3752 28.035 20.4056 28.2392 20.3574 28.4321Z" fill="#627856"/>
</svg>
