<svg width="40" height="40" viewBox="0 0 40 40" fill="none" xmlns="http://www.w3.org/2000/svg">
<rect width="40" height="40" rx="20" fill="white"/>
<path d="M29 28.25C29 28.4489 28.921 28.6397 28.7803 28.7803C28.6397 28.921 28.4489 29 28.25 29H11.75C11.5511 29 11.3603 28.921 11.2197 28.7803C11.079 28.6397 11 28.4489 11 28.25C11 28.0511 11.079 27.8603 11.2197 27.7197C11.3603 27.579 11.5511 27.5 11.75 27.5H28.25C28.4489 27.5 28.6397 27.579 28.7803 27.7197C28.921 27.8603 29 28.0511 29 28.25ZM22.25 26H26C26.3978 26 26.7794 25.842 27.0607 25.5607C27.342 25.2794 27.5 24.8978 27.5 24.5V15.5C27.5 15.1022 27.342 14.7206 27.0607 14.4393C26.7794 14.158 26.3978 14 26 14H22.25C21.8522 14 21.4706 14.158 21.1893 14.4393C20.908 14.7206 20.75 15.1022 20.75 15.5V24.5C20.75 24.8978 20.908 25.2794 21.1893 25.5607C21.4706 25.842 21.8522 26 22.25 26ZM14 26H17.75C18.1478 26 18.5294 25.842 18.8107 25.5607C19.092 25.2794 19.25 24.8978 19.25 24.5V11.75C19.25 11.3522 19.092 10.9706 18.8107 10.6893C18.5294 10.408 18.1478 10.25 17.75 10.25H14C13.6022 10.25 13.2206 10.408 12.9393 10.6893C12.658 10.9706 12.5 11.3522 12.5 11.75V24.5C12.5 24.8978 12.658 25.2794 12.9393 25.5607C13.2206 25.842 13.6022 26 14 26Z" fill="#627856"/>
</svg>
