<svg width="24" height="25" viewBox="0 0 24 25" fill="none" xmlns="http://www.w3.org/2000/svg">
<path d="M20.6069 19.2881C18.7378 18.4033 17.6661 16.5093 17.6661 14.0889V12.6979C17.6668 12.4402 17.587 12.1884 17.437 11.9752C17.287 11.7621 17.0738 11.5975 16.8253 11.5029L14.4379 10.582C14.2744 10.5189 14.1434 10.3959 14.0736 10.2399C14.0038 10.0839 14.0008 9.90756 14.0654 9.74949L15.9254 5.19555C16.3329 4.18785 15.8329 3.01622 14.7779 2.63853C14.2868 2.46242 13.7437 2.47918 13.2653 2.6852C12.7869 2.89123 12.4115 3.27006 12.2197 3.74025L10.3539 8.30946C10.3217 8.38826 10.2738 8.46015 10.2127 8.52101C10.1516 8.58188 10.0787 8.63051 9.9981 8.66411C9.9175 8.69771 9.8308 8.71562 9.74299 8.71682C9.65519 8.71801 9.568 8.70247 9.48644 8.67107L7.09236 7.74694C6.84799 7.65155 6.57968 7.62858 6.3217 7.68097C6.06373 7.73336 5.82781 7.85873 5.64408 8.04106C3.88998 9.78163 3.00002 11.8155 3.00002 14.0889C2.99543 16.4115 3.92605 18.6452 5.59575 20.3191C5.65884 20.3823 5.73457 20.4325 5.81837 20.4666C5.90217 20.5007 5.99228 20.518 6.08323 20.5176H20.3327C20.5027 20.5179 20.6663 20.4556 20.7902 20.3434C20.9141 20.2312 20.9889 20.0777 20.9993 19.9141C21.0053 19.784 20.9711 19.6552 20.9013 19.5438C20.8315 19.4324 20.729 19.3434 20.6069 19.2881ZM10.5922 19.2318C9.606 18.3193 8.90551 17.1579 8.57064 15.8801C8.53025 15.7191 8.42855 15.5787 8.28576 15.4867C8.14296 15.3947 7.9695 15.3578 7.79984 15.3834C7.70947 15.3992 7.62345 15.4327 7.54717 15.482C7.47089 15.5313 7.40599 15.5953 7.35655 15.6699C7.3071 15.7445 7.27418 15.8282 7.25983 15.9157C7.24549 16.0031 7.25004 16.0925 7.27319 16.1782C7.56432 17.2852 8.08475 18.3239 8.80313 19.2318H6.36989C5.05564 17.8189 4.33018 15.9869 4.3333 14.0889C4.32508 13.0829 4.54492 12.0873 4.97744 11.1718L16.4603 15.602C16.7103 17.0533 17.3395 18.294 18.2844 19.2334L10.5922 19.2318Z" fill="#D7B56D"/>
</svg>
