<svg width="40" height="40" viewBox="0 0 40 40" fill="none" xmlns="http://www.w3.org/2000/svg">
<rect x="0.5" y="0.5" width="39" height="39" rx="19.5" stroke="#5F6368"/>
<path d="M27.5 11H12.5C12.1022 11 11.7206 11.158 11.4393 11.4393C11.158 11.7206 11 12.1022 11 12.5V27.5C11 27.8978 11.158 28.2794 11.4393 28.5607C11.7206 28.842 12.1022 29 12.5 29H27.5C27.8978 29 28.2794 28.842 28.5607 28.5607C28.842 28.2794 29 27.8978 29 27.5V12.5C29 12.1022 28.842 11.7206 28.5607 11.4393C28.2794 11.158 27.8978 11 27.5 11ZM26 25.25H14C13.8011 25.25 13.6103 25.171 13.4697 25.0303C13.329 24.8897 13.25 24.6989 13.25 24.5C13.25 24.3011 13.329 24.1103 13.4697 23.9697C13.6103 23.829 13.8011 23.75 14 23.75H26C26.1989 23.75 26.3897 23.829 26.5303 23.9697C26.671 24.1103 26.75 24.3011 26.75 24.5C26.75 24.6989 26.671 24.8897 26.5303 25.0303C26.3897 25.171 26.1989 25.25 26 25.25ZM26 20.75H14C13.8011 20.75 13.6103 20.671 13.4697 20.5303C13.329 20.3897 13.25 20.1989 13.25 20C13.25 19.8011 13.329 19.6103 13.4697 19.4697C13.6103 19.329 13.8011 19.25 14 19.25H26C26.1989 19.25 26.3897 19.329 26.5303 19.4697C26.671 19.6103 26.75 19.8011 26.75 20C26.75 20.1989 26.671 20.3897 26.5303 20.5303C26.3897 20.671 26.1989 20.75 26 20.75ZM26 16.25H14C13.8011 16.25 13.6103 16.171 13.4697 16.0303C13.329 15.8897 13.25 15.6989 13.25 15.5C13.25 15.3011 13.329 15.1103 13.4697 14.9697C13.6103 14.829 13.8011 14.75 14 14.75H26C26.1989 14.75 26.3897 14.829 26.5303 14.9697C26.671 15.1103 26.75 15.3011 26.75 15.5C26.75 15.6989 26.671 15.8897 26.5303 16.0303C26.3897 16.171 26.1989 16.25 26 16.25Z" fill="#5F6368"/>
</svg>
