<svg width="40" height="40" viewBox="0 0 40 40" fill="none" xmlns="http://www.w3.org/2000/svg">
<rect width="40" height="40" rx="20" fill="white"/>
<g clip-path="url(#clip0_4005_15693)">
<path d="M30.5005 16.2718C30.4629 17.5774 29.9261 18.8189 29.0005 19.7406L25.7427 23.0003C25.2682 23.4773 24.7038 23.8556 24.0822 24.113C23.4606 24.3705 22.794 24.5021 22.1212 24.5003H22.1165C21.4321 24.4998 20.7548 24.3622 20.1246 24.0955C19.4943 23.8289 18.9239 23.4386 18.447 22.9478C17.9701 22.457 17.5964 21.8756 17.3479 21.238C17.0995 20.6003 16.9814 19.9193 17.0005 19.2353C17.0061 19.0364 17.0905 18.8478 17.2351 18.7111C17.3797 18.5744 17.5727 18.5008 17.7716 18.5064C17.9705 18.512 18.1591 18.5963 18.2958 18.7409C18.4325 18.8856 18.5061 19.0785 18.5005 19.2775C18.4869 19.7611 18.5703 20.2426 18.7459 20.6935C18.9215 21.1444 19.1857 21.5555 19.5229 21.9026C19.86 22.2496 20.2634 22.5256 20.709 22.7141C21.1546 22.9027 21.6335 23 22.1174 23.0003C22.5931 23.0015 23.0642 22.9084 23.5037 22.7264C23.9432 22.5444 24.3422 22.2771 24.6777 21.94L27.9355 18.6821C28.6077 18.0015 28.9833 17.0826 28.9803 16.1261C28.9773 15.1695 28.596 14.253 27.9196 13.5766C27.2432 12.9002 26.3266 12.5188 25.3701 12.5158C24.4135 12.5128 23.4946 12.8884 22.814 13.5606L21.7827 14.5918C21.6409 14.7265 21.4521 14.8005 21.2565 14.798C21.061 14.7955 20.8741 14.7167 20.7358 14.5784C20.5975 14.4401 20.5187 14.2533 20.5162 14.0577C20.5137 13.8621 20.5877 13.6733 20.7224 13.5315L21.7537 12.5003C22.2294 12.0243 22.7943 11.6468 23.416 11.3892C24.0378 11.1316 24.7041 10.999 25.3771 10.999C26.0501 10.999 26.7164 11.1316 27.3382 11.3892C27.9599 11.6468 28.5248 12.0243 29.0005 12.5003C29.4933 12.9943 29.8805 13.5834 30.1383 14.2318C30.3962 14.8802 30.5194 15.5743 30.5005 16.2718ZM18.2193 25.4059L17.188 26.4371C16.8517 26.7757 16.4514 27.0441 16.0104 27.2266C15.5694 27.4091 15.0965 27.5021 14.6193 27.5003C13.9033 27.4997 13.2036 27.2869 12.6085 26.8888C12.0134 26.4907 11.5497 25.9252 11.2759 25.2636C11.0021 24.6021 10.9305 23.8742 11.0703 23.172C11.21 22.4698 11.5547 21.8248 12.0608 21.3184L15.313 18.0606C15.8253 17.5456 16.4805 17.1966 17.1937 17.0588C17.9068 16.9211 18.6449 17.0009 19.3121 17.288C19.9792 17.5751 20.5447 18.0562 20.935 18.6687C21.3252 19.2813 21.5223 19.9971 21.5005 20.7231C21.4949 20.922 21.5686 21.115 21.7053 21.2596C21.842 21.4042 22.0305 21.4886 22.2294 21.4942C22.4284 21.4998 22.6213 21.4261 22.7659 21.2894C22.9106 21.1527 22.9949 20.9642 23.0005 20.7653C23.0185 20.0688 22.8949 19.376 22.637 18.7288C22.3792 18.0816 21.9925 17.4935 21.5005 17.0003C20.5398 16.0399 19.2369 15.5004 17.8785 15.5004C16.5201 15.5004 15.2172 16.0399 14.2565 17.0003L11.0005 20.2581C10.2845 20.9738 9.79671 21.8858 9.59879 22.8786C9.40088 23.8715 9.50174 24.9008 9.88861 25.8364C10.2755 26.772 10.931 27.5719 11.7724 28.135C12.6137 28.6982 13.6031 28.9993 14.6155 29.0003C15.2885 29.0022 15.9552 28.8706 16.577 28.6132C17.1989 28.3557 17.7634 27.9774 18.238 27.5003L19.2693 26.469C19.3907 26.326 19.4541 26.1428 19.447 25.9554C19.44 25.768 19.3629 25.59 19.2312 25.4566C19.0994 25.3232 18.9224 25.2439 18.7351 25.2346C18.5478 25.2252 18.3637 25.2863 18.2193 25.4059Z" fill="#5F6368"/>
</g>
<defs>
<clipPath id="clip0_4005_15693">
<rect width="24" height="24" fill="white" transform="translate(8 8)"/>
</clipPath>
</defs>
</svg>
