<svg width="40" height="40" viewBox="0 0 40 40" fill="none" xmlns="http://www.w3.org/2000/svg">
<rect x="0.5" y="0.5" width="39" height="39" rx="19.5" stroke="#5F6368"/>
<path d="M27.7824 17.6966L21.2078 20.3216L25.8456 26.285C25.9077 26.3626 25.9537 26.4517 25.9811 26.5473C26.0084 26.6428 26.0165 26.7429 26.0049 26.8416C25.9932 26.9402 25.9621 27.0356 25.9132 27.1222C25.8644 27.2087 25.7988 27.2847 25.7204 27.3457C25.6419 27.4067 25.5521 27.4515 25.4562 27.4775C25.3603 27.5035 25.2602 27.5102 25.1616 27.4972C25.0631 27.4841 24.9682 27.4516 24.8823 27.4016C24.7965 27.3515 24.7214 27.2849 24.6615 27.2056L20.0012 21.2188L15.3437 27.2103C15.2205 27.3642 15.0418 27.4634 14.8461 27.4865C14.6503 27.5096 14.4534 27.4547 14.2978 27.3338C14.1422 27.2128 14.0405 27.0354 14.0146 26.8401C13.9888 26.6447 14.0409 26.447 14.1596 26.2897L18.7974 20.3263L12.2199 17.6966C12.0352 17.622 11.8877 17.477 11.8098 17.2937C11.7319 17.1103 11.73 16.9035 11.8046 16.7188C11.8792 16.534 12.0242 16.3865 12.2075 16.3086C12.3909 16.2307 12.5977 16.2288 12.7824 16.3034L19.2512 18.8919V11.75C19.2512 11.5511 19.3302 11.3603 19.4709 11.2197C19.6115 11.079 19.8023 11 20.0012 11C20.2001 11 20.3909 11.079 20.5315 11.2197C20.6722 11.3603 20.7512 11.5511 20.7512 11.75V18.8919L27.2199 16.3034C27.3114 16.2665 27.4093 16.2479 27.5079 16.2488C27.6066 16.2497 27.7041 16.27 27.7949 16.3086C27.8857 16.3471 27.968 16.4032 28.0371 16.4736C28.1062 16.544 28.1608 16.6273 28.1978 16.7188C28.2347 16.8102 28.2533 16.9081 28.2524 17.0067C28.2515 17.1054 28.2312 17.2029 28.1926 17.2937C28.1541 17.3845 28.098 17.4668 28.0276 17.5359C27.9572 17.605 27.8739 17.6596 27.7824 17.6966Z" fill="#5F6368"/>
</svg>
