<svg width="24" height="25" viewBox="0 0 24 25" fill="none" xmlns="http://www.w3.org/2000/svg">
<path d="M22 11.8803C22 12.0491 21.9342 12.211 21.8169 12.3303C21.6997 12.4496 21.5408 12.5167 21.375 12.5167H2.625C2.45924 12.5167 2.30027 12.4496 2.18306 12.3303C2.06585 12.211 2 12.0491 2 11.8803C2 11.7116 2.06585 11.5497 2.18306 11.4304C2.30027 11.311 2.45924 11.244 2.625 11.244H4.80625L8.51719 6.041C8.62964 5.88379 8.77598 5.75492 8.94498 5.66428C9.11397 5.57363 9.30112 5.52362 9.49205 5.51809C9.68298 5.51256 9.87262 5.55166 10.0464 5.63237C10.2202 5.71309 10.3735 5.83329 10.4945 5.98372L11.4984 7.16893L11.5141 7.18723C11.5722 7.26163 11.6461 7.32172 11.7303 7.36302C11.8144 7.40432 11.9066 7.42576 12 7.42576C12.0934 7.42576 12.1856 7.40432 12.2697 7.36302C12.3539 7.32172 12.4278 7.26163 12.4859 7.18723L12.5016 7.16893L13.5055 5.98372C13.6265 5.83329 13.7798 5.71309 13.9536 5.63237C14.1274 5.55166 14.317 5.51256 14.5079 5.51809C14.6989 5.52362 14.886 5.57363 15.055 5.66428C15.224 5.75492 15.3704 5.88379 15.4828 6.041L19.1938 11.244H21.375C21.5408 11.244 21.6997 11.311 21.8169 11.4304C21.9342 11.5497 22 11.7116 22 11.8803ZM16.0625 13.7894C15.3708 13.7895 14.7034 14.0492 14.1878 14.5188C13.6723 14.9883 13.3448 15.6349 13.268 16.3348H10.732C10.655 15.6355 10.3278 14.9896 9.81283 14.5203C9.29787 14.051 8.63123 13.7912 7.94013 13.7904C7.24902 13.7896 6.58182 14.048 6.06587 14.5161C5.54991 14.9843 5.22131 15.6295 5.14278 16.3286C5.06424 17.0277 5.24127 17.7318 5.64008 18.3064C6.03889 18.8811 6.63156 19.2862 7.30499 19.4443C7.97843 19.6025 8.68547 19.5026 9.2912 19.1638C9.89693 18.825 10.3589 18.271 10.5891 17.6075H13.4109C13.5828 18.1025 13.885 18.5398 14.2845 18.8717C14.684 19.2036 15.1655 19.4173 15.6762 19.4894C16.1869 19.5615 16.7073 19.4893 17.1805 19.2806C17.6536 19.072 18.0613 18.7349 18.359 18.3062C18.6567 17.8776 18.8329 17.3738 18.8684 16.8501C18.9039 16.3263 18.7973 15.8027 18.5603 15.3365C18.3232 14.8703 17.9649 14.4794 17.5243 14.2065C17.0838 13.9337 16.5781 13.7894 16.0625 13.7894Z" fill="#D7B56D"/>
</svg>
