<svg width="24" height="25" viewBox="0 0 24 25" fill="none" xmlns="http://www.w3.org/2000/svg">
<path d="M22.5 10.0801C22.5 16.6426 12.7697 21.9545 12.3553 22.1738C12.2461 22.2326 12.124 22.2633 12 22.2633C11.876 22.2633 11.7539 22.2326 11.6447 22.1738C11.2303 21.9545 1.5 16.6426 1.5 10.0801C1.50174 8.53904 2.11468 7.06162 3.20436 5.97194C4.29404 4.88226 5.77146 4.26932 7.3125 4.26758C9.24844 4.26758 10.9434 5.10008 12 6.50727C13.0566 5.10008 14.7516 4.26758 16.6875 4.26758C18.2285 4.26932 19.706 4.88226 20.7956 5.97194C21.8853 7.06162 22.4983 8.53904 22.5 10.0801Z" fill="#D7B56D"/>
</svg>
