<svg width="24" height="25" viewBox="0 0 24 25" fill="none" xmlns="http://www.w3.org/2000/svg">
<path d="M20.25 4.26803V21.518C20.25 21.7169 20.171 21.9077 20.0303 22.0484C19.8897 22.189 19.6989 22.268 19.5 22.268C19.3011 22.268 19.1103 22.189 18.9697 22.0484C18.829 21.9077 18.75 21.7169 18.75 21.518V16.5176H16.5H14.5C14.3011 16.5176 13.9779 16.5176 13.7394 16.268C13.5 16.0176 13.5 15.7165 13.5 15.5176C13.5348 13.721 13.7617 12.6838 14.1769 10.9355C15.0938 7.13959 16.8319 4.59522 19.2047 3.57897C19.3187 3.53011 19.4431 3.51032 19.5667 3.52135C19.6903 3.53238 19.8092 3.5739 19.9128 3.64219C20.0164 3.71047 20.1014 3.80339 20.1603 3.91262C20.2191 4.02184 20.2499 4.14396 20.25 4.26803ZM11.2397 4.14522C11.225 4.04674 11.1908 3.95217 11.1392 3.86702C11.0876 3.78188 11.0195 3.70787 10.939 3.6493C10.8585 3.59074 10.7671 3.5488 10.6702 3.52592C10.5733 3.50305 10.4728 3.49969 10.3746 3.51606C10.2764 3.53243 10.1824 3.5682 10.0982 3.62126C10.0139 3.67433 9.94107 3.74364 9.88389 3.82516C9.82671 3.90667 9.78634 3.99876 9.76512 4.09604C9.7439 4.19332 9.74227 4.29386 9.76031 4.39178L10.4897 8.76803H8.25V4.26803C8.25 4.06912 8.17098 3.87835 8.03033 3.7377C7.88968 3.59705 7.69891 3.51803 7.5 3.51803C7.30109 3.51803 7.11032 3.59705 6.96967 3.7377C6.82902 3.87835 6.75 4.06912 6.75 4.26803V8.76803H4.51031L5.23969 4.39178C5.25773 4.29386 5.2561 4.19332 5.23488 4.09604C5.21366 3.99876 5.17329 3.90667 5.11611 3.82516C5.05893 3.74364 4.98609 3.67433 4.90184 3.62126C4.81759 3.5682 4.72362 3.53243 4.62541 3.51606C4.52719 3.49969 4.4267 3.50305 4.32979 3.52592C4.23289 3.5488 4.14151 3.59074 4.06098 3.6493C3.98045 3.70787 3.9124 3.78188 3.86077 3.86702C3.80915 3.95217 3.775 4.04674 3.76031 4.14522L3.01031 8.64522C3.00358 8.68581 3.00013 8.72688 3 8.76803C3.0015 9.83098 3.37867 10.8592 4.06488 11.671C4.75108 12.4827 5.70214 13.0258 6.75 13.2043V21.518C6.75 21.7169 6.82902 21.9077 6.96967 22.0484C7.11032 22.189 7.30109 22.268 7.5 22.268C7.69891 22.268 7.88968 22.189 8.03033 22.0484C8.17098 21.9077 8.25 21.7169 8.25 21.518V13.2043C9.29786 13.0258 10.2489 12.4827 10.9351 11.671C11.6213 10.8592 11.9985 9.83098 12 8.76803C11.9999 8.72688 11.9964 8.68581 11.9897 8.64522L11.2397 4.14522Z" fill="#D7B56D"/>
</svg>
