<svg xmlns="http://www.w3.org/2000/svg" fill="none" viewBox="0 0 574 227">
  <g clip-path="url(#a)" opacity=".3" style="mix-blend-mode:overlay">
    <g clip-path="url(#b)">
      <path stroke="#000" stroke-linecap="round" stroke-linejoin="round" stroke-miterlimit="10" stroke-width="1.3" d="M9.2-4.5s-2.8 12-.7 18c2.2 6.5 7.5 6.7 12.7 3.8 5.2-2.9 7.6-7.2 3.6-12.8-4-5.5-15.6-9-15.6-9ZM19 13.3 11.6.3M11.9 12.2l7 1M10.7 6l2.3.5M17.3 2.3l-.8 2.3M21.9 6.5l-3 6.8"/>
      <path stroke="#000" stroke-linecap="round" stroke-linejoin="round" stroke-miterlimit="10" stroke-width="1.3" d="M22.2 25.5s2.1-2.6-1-8.2M142.7 59c2-2.8.4-4 .4-4s-1.6-.5-2.8 2.8c-3.9-2.6-3.2.6-2.6 4.7-3.5-3.3-4 .6-3.3 5.3-2-3.8-5.2-.8-4.3 1 1.4 2.7 3.5 8.2 3.5 8.2 1.4-1.1 5.1-1.5 7.8-3.3 2.7-1.9 1-4-2-3.6 6.5-2.9 5-5.7 1.9-6 5.5-2 4.6-5.2 1.4-5.2ZM138.9 64.7l-8 17.6M153.6 81.1c.9-3.5-1.3-2.2-4.2-.7 1.6-3.4-1.5-2.8-4.8-1 2.3-2.5-.7-4.1-1.8-3-1.6 1.8-5.2 4.8-5.2 4.8 1.3.8 2.5 3.4 4.5 5 2 1.4 3.2-.3 2.1-2.5 3.9 4 5.6 2.3 5-.2 3 3.6 5 2 4.2-.3 2.5.8 3-.7 3-.7s0-1.4-2.8-1.4Z"/>
      <path stroke="#000" stroke-linecap="round" stroke-linejoin="round" stroke-miterlimit="10" stroke-width="1.3" d="M148.1 81.9a43.3 43.3 0 0 0-17.1.4"/>
      <path fill="#000" d="M328.6 126c-2.1-4.2-2.9-7.4-2.1-9.5.3-1 1-1.7 2-2.2 1.2-.4 2.4-.3 3.5.1v-1.3a5.7 5.7 0 0 0-3.9.1 4.7 4.7 0 0 0-2.8 2.9c-.9 2.4 0 6.1 2.6 11l.3.3h.2l.3-.1c1.3-.7 2.4-1.5 3.3-2.2v-1.6c-1 1-2.2 1.8-3.4 2.5Z"/>
      <path fill="#000" d="M329.8 117.7c-.1.2 0 .6.4.7h.2c.2 0 .4-.1.5-.4l1.1-3v-3.6l-2.2 6.3Z"/>
      <path stroke="#000" stroke-linecap="round" stroke-linejoin="round" stroke-miterlimit="10" stroke-width="1.3" d="M194.7 178.7c5.5 6.9 9.4 6.3 11.7 4.7a5.1 5.1 0 0 0 1.4-6.8c-1.4-2.4-4.9-4-13 2Z"/>
      <path stroke="#000" stroke-linecap="round" stroke-linejoin="round" stroke-miterlimit="10" stroke-width="1.3" d="M214.8 181.4c-2.4-.7-10.7-2.2-10.7-2.2M195.6-23.9c-4 2.7-4.2 9.6 1.7 18.4 6 8.9 15.8 16.4 19.8 13.7 4-2.6.8-14.6-5.2-23.5-6-8.8-12.3-11.3-16.3-8.6Z"/>
      <path stroke="#000" stroke-linecap="round" stroke-linejoin="round" stroke-miterlimit="10" stroke-width="1.3" d="M201.2-.5s0 0 0 0h.2l6-.5h.2l6.5-.5h0s0 0 0 0l4-.2M218.9 4.3l-6.4.4h-.1s0 0 0 0l-5.3.4"/>
      <path stroke="#000" stroke-linecap="round" stroke-linejoin="round" stroke-miterlimit="10" stroke-width="1.3" d="M201.2-.4s0 0 0 0v-.1l1.7-6v0-.2l1.7-5.7v0-.1l1.8-6v0l.7-2.5M206 4.1l1.4-5v0-.1l1.8-6s0 0 0 0v-.2l1.7-5.7s0 0 0 0v0l.8-2.6M216-7.9l-.1.3s0 0 0 0L214-1.5s0 0 0 0v.1l-1.8 6.1v.1s0 0 0 0l-.9 3"/>
      <path fill="#000" d="M209.7 2.8a.8.8 0 1 0 0-1.6.8.8 0 0 0 0 1.6ZM215.8.4c-.5 0-.8.3-.8.8 0 .4.3.8.8.8.4 0 .8-.4.8-.8 0-.5-.4-.8-.8-.8Z"/>
      <path stroke="#000" stroke-linecap="round" stroke-linejoin="round" stroke-miterlimit="10" stroke-width="1.3" d="M174.8 150.4a3.5 3.5 0 0 1-4.8-.1 3.4 3.4 0 0 1 0-4.9h0M175.4 146.1l-.5-.6-.4-.4"/>
      <path stroke="#000" stroke-linecap="round" stroke-linejoin="round" stroke-miterlimit="10" stroke-width="1.3" d="M178.4 150c2-.9 3.3-2.6 2.7-3.9-.5-1.2-2.6-1.5-4.7-.5-2 .9-3.2 2.6-2.7 3.9.6 1.2 2.7 1.4 4.7.5ZM175 144c.8-2 .6-4-.6-4.6-1.3-.6-3 .6-4 2.7-.9 2-.6 4.2.6 4.7 1.3.6 3-.7 4-2.7ZM157.8 148.4l4.8-.6M160.6 156.3l3.9-2.9M167 161.8l1.9-4.5M175.3 163.3l-.6-4.8M183.2 160.5l-3-3.9M188.6 154l-4.5-1.8M190.1 145.8l-4.8.6M187.3 137.9l-3.9 2.9M180.9 132.4 179 137M172.6 131l.6 4.7M164.7 133.8l3 3.8M159.3 140.2l4.4 1.9M317.4 102.7c3 7-2.3 18.1-13.4 24.1-3.7 2-7 4.8-9.5 8-2 2.6-4.3 5-6.6 7M284.9 144.3a85.2 85.2 0 0 1-5.8 4.2 8 8 0 0 0-3.4 8l5.8 33"/>
      <path stroke="#000" stroke-linecap="round" stroke-linejoin="round" stroke-miterlimit="10" stroke-width="1.3" d="M300.8 116.9c0 2-.9 4.8-1.7 6.8-.4 1 .7 2 1.6 1.5 5-2.6 15.4-9.4 16-22.3M250.3 155l1.1 1.3c2.2 2.3 6 1.8 7.4-1.1a35.2 35.2 0 0 0 3-13.6M222.4 148.6c.3 1.2 1 2.4 1 2.4s6.8 15.7 27 12a8 8 0 0 1 6.2 1.6 35 35 0 0 0 11.2 6.2c1.7.4 3 2 3.2 3.7l1.4 12.2"/>
      <path stroke="#000" stroke-linecap="round" stroke-linejoin="round" stroke-miterlimit="10" stroke-width="1.3" d="m247.5 155.8.5.7c.9 1.1.2 2.8-1.1 2.9-5 .4-14.7-.4-21.6-10.8M265 141.9a43.9 43.9 0 0 1-4.3 16.5c-.9 1.8-1.2 4 .5 5 2 1.1 4.3 1.7 6.3 2 1.2.2 2.2-.8 2-2l-1.3-11c-.4-2.9 1.2-5.7 3.8-6.9 3.9-1.7 9.5-4.7 14.6-9.3 1.2-1.1 1.7-2.7 1.4-4.3-1-5.1-2.3-13.4-.4-15.8M289.4 117c-.5 4.2-.3 7.5.5 10.8.4 1.8 2 2.7 3 1.3 2.2-3.3 3.8-7 4.7-11.2M235 141.9a13 13 0 0 1-9.9 6.7 14 14 0 0 1-15.2-12.1c-1.1-7.7 4-14.6 11.4-15.6 5.5-.7 10.7 2.2 13.5 7"/>
      <path stroke="#000" stroke-linecap="round" stroke-linejoin="round" stroke-miterlimit="10" stroke-width="1.3" d="M260.3 136.9c.2 1.5.2 2.9 0 4.3a16.4 16.4 0 0 1-14 14.8c-7 .9-13.5-2.8-16.8-8.7M233.2 125.6a16 16 0 0 1 19.8-.7"/>
      <path stroke="#000" stroke-linecap="round" stroke-linejoin="round" stroke-miterlimit="10" stroke-width="1.3" d="M260.3 141.2a11.6 11.6 0 0 0 15.3-8.3M253 124.9a11.6 11.6 0 0 1 19-4.3"/>
      <path stroke="#000" stroke-linecap="round" stroke-linejoin="round" stroke-miterlimit="10" stroke-width="1.3" d="M270.5 122.5c1-1.9 2.8-3.2 5-3.5a7 7 0 0 1 7.7 6.1c.6 3.9-2 7.4-5.7 7.8a7 7 0 0 1-7.7-6M260 97.8h-.3c-3.7.5-6.3 4-5.8 7.9a7 7 0 0 0 7.7 6.1c2.2-.3 4-1.6 5-3.5M310.3 102a15.7 15.7 0 0 1-12.6 15.8l-.8.1c-3 .4-5.9-.1-8.4-1.3M280.2 107.7c1.4 3.7 4.1 6.7 7.4 8.5M303.1 88.6a15.1 15.1 0 0 0-19.5 1.7c1 1.5 1.5 3.1 1.7 5"/>
      <path stroke="#000" stroke-linecap="round" stroke-linejoin="round" stroke-miterlimit="10" stroke-width="1.3" d="M305.5 98.2a11.4 11.4 0 0 0 4.8 3.8c1.8.9 4 1.2 6 1l.4-.1M317.4 102.7c5.8-1.3 9.7-7 8.8-13.2A12 12 0 0 0 313 79c-5.1.6-9 4.6-9.9 9.6-.2 1.2-.2 2.5 0 3.8M264.3 106.6a12.8 12.8 0 0 0 16 1M283.7 90.3a13 13 0 0 0-12.8-6.5c-6.8.9-11.6 7-10.9 14v.7l.9 3M293.2 196.5c-1.7.1-3-2-1.6-6.6-1.9.4-2.9 2.7-5.4 6-1-2.6.7-10.3.7-10.3s-4.5 5.7-4.8 12c-3.6-1.2-5.2-7-3.8-15.9-3.8 5-2.1 11.6-2.8 17-2.2-2.2-1.5-6.5-2.5-10-2.4 2.6-2.5 9.8-2.5 9.8s-2.7-4.8-5.8-5.7c2.6 3.4 1 7.2 1 7.2s-2.7-3.3-8.4-4.6c2.2.8 4.3 7.3 4.3 7.2h.6c13 2 26.4.4 38.5-5l-4.4-6s-1.4 4.8-3 5ZM291 111.6s4.6 3.3 9.2-1.2"/>
      <path stroke="#000" stroke-linecap="round" stroke-linejoin="round" stroke-miterlimit="10" stroke-width="1.3" d="M318.8 85.2s4 4.2 1 7.5M265.3 95s-2-4.6 3.5-7M241 129.5s4.3-4 7.6-1M217 129.4s-4.3 2.7-2 9M249.7 150.8s4.5-.6 5.8-6.3M279 124s1.8 1.7-.4 3.8M274.2 162.1l2.1 15.2M287.9 141.8l8.7 4.5.2 2.1-11.9-4.1M136.9 164.3a96.3 96.3 0 0 1 5.6-33.8c.4-.9 1.8-.5 1.6.5-2 10.4-2 27.4-2 32.9M131 166c-.7-6.1-3-18-3.8-22.9-.2-.5.6-.8 1-.4a82.3 82.3 0 0 1 6.6 22"/>
      <path stroke="#000" stroke-linecap="round" stroke-linejoin="round" stroke-miterlimit="10" stroke-width="1.3" d="M130 159a37.4 37.4 0 0 0-16-13.8c-.4-.2-.8.3-.4.6a37.7 37.7 0 0 1 14 21.9"/>
      <path stroke="#000" stroke-linecap="round" stroke-linejoin="round" stroke-miterlimit="10" stroke-width="1.3" d="M124.3 169.8c7-5 14.3-7 22.4-5.3M140.5 99l-3.5-.3c-1.2-.2-2.3.7-2.5 1.9l-1.8 15.5c-.2 1.2.7 2.3 1.9 2.4l3.5.4c1.2.2 2.3-.7 2.5-1.9l1.8-15.5c.2-1.2-.7-2.3-1.9-2.4ZM110 118.9c-.8-1-2.1-1.3-3.1-.6l-3 2c-1 .8-1.2 2.2-.5 3.2l9 12.7c.7 1 2.1 1.2 3.1.5l2.9-2c1-.8 1.2-2.1.5-3.1l-9-12.7Z"/>
      <path stroke="#000" stroke-linecap="round" stroke-linejoin="round" stroke-miterlimit="10" stroke-width="1.3" d="M136.4 118.7s-4.5 8.9-1.3 37.5M139.6 96.8l-.4 2.1M126 150.3s-4.1-10.5-9-14.8M103.9 117.1l1.5 2.3M108.6 123.6l.8-3M110.4 126l.7-3M112.4 128.7l.7-3M114.2 131.3l.7-3M138.8 103.3l-2-2.4M137.7 106l-2-2.4M137.5 109.7l-2-2.4M136.7 113.1l-2-2.4M15.3 256.4l22.9-35A9.4 9.4 0 1 1 54 231.6l-4.6 7-3.6 5.5L31 266.7h0"/>
      <path stroke="#000" stroke-linecap="round" stroke-linejoin="round" stroke-miterlimit="10" stroke-width="1.3" d="M41 222.5C40.3 224 30 239 30 239M51.1 225.3l-13.4 20.6M40.7 231.3l5.6-8.6"/>
      <path fill="#000" d="M321.8 28.8c-.5-.4-1.2-.2-1.8 0l-1.3.2c-.4 0-.8 0-1.2-.2-.7-.2-1.3-.4-1.8 0s-.7 1-.7 2.2c0 2 .6 5.6 1.6 7.9.1.2.4.4.7.3l1.4-.2c.5 0 1 0 1.5.2h.1c.3 0 .5-.1.6-.3 1-2.3 1.6-5.9 1.6-8 0-1-.3-1.7-.7-2Zm-1.9 9.1a6.2 6.2 0 0 0-2.4 0c-.8-2-1.4-5.1-1.4-7 0-1 .2-1.1.2-1.1l.8.1c.4.1 1 .3 1.6.3a5 5 0 0 0 1.5-.3c.3 0 .7-.2.8-.1 0 0 .2.1.2 1.2 0 1.8-.5 4.9-1.3 7ZM312 32.2c-.9-.8-1.5-1-2-1-.7 0-1 .7-1.3 1.2l-.8 1.1c-.2.3-.6.5-1 .7-.6.3-1.2.7-1.3 1.3 0 .6.3 1.2 1 2a23 23 0 0 0 6.8 4.5h.2c.2 0 .4-.1.5-.3a5 5 0 0 1 2-2c.3-.2.4-.5.3-.8-.9-2.2-3-5.3-4.4-6.7Zm1.4 8.5c-2-.9-4.7-2.7-5.9-4-.7-.7-.7-1-.7-1l.7-.4c.4-.3.9-.5 1.3-1l1-1.3c0-.2.3-.6.4-.6 0 0 .3 0 1 .7a22 22 0 0 1 4 5.8c-.8.5-1.4 1.2-1.8 1.8ZM313.6 44l.1-1.1c0-.3 0-.6-.3-.7a24 24 0 0 0-8-1.7c-1.1 0-1.8.2-2.1.7-.5.5-.3 1.2 0 1.8l.2 1.2c0 .5-.2.9-.3 1.3-.1.6-.4 1.3 0 1.8s1 .7 2.2.7c2.2 0 6-.7 8.2-1.8.3-.1.4-.4.3-.7-.2-.4-.3-.8-.3-1.4Zm-8.2 2.9c-1 0-1.2-.2-1.2-.2l.1-.8c.2-.4.3-1 .3-1.6a5 5 0 0 0-.3-1.5c0-.3-.2-.7-.1-.8 0 0 .1-.2 1.2-.2 1.8 0 5 .6 7 1.4v1c0 .5 0 .9.2 1.3-2 .8-5.3 1.4-7.2 1.4ZM316.2 48.5c-.7-.4-1.3-1-1.8-1.8a.6.6 0 0 0-.7-.3 23 23 0 0 0-7 4.6c-1 .8-1.2 1.4-1.1 2 0 .7.7 1 1.2 1.3.4.2.8.4 1 .7.4.3.6.7.8 1 .3.7.6 1.3 1.3 1.4h.2c.5 0 1-.4 1.8-1.1 1.5-1.5 3.8-4.8 4.6-7.1.1-.2 0-.5-.3-.7Zm-5 7c-.8.7-1 .7-1 .7-.2 0-.4-.4-.5-.7-.2-.4-.5-.9-1-1.3-.3-.4-.9-.7-1.3-1-.2 0-.6-.3-.6-.4 0 0 0-.2.7-1a23 23 0 0 1 6.1-4c.5.6 1 1.1 1.6 1.5-.8 2-2.7 4.9-4 6.2ZM319.9 49a5.4 5.4 0 0 1-2.6 0c-.2 0-.5 0-.6.4-1.1 2.1-1.8 6-1.8 8.2 0 1.2.2 1.8.6 2.2l.8.2 1-.2 1.3-.2c.4 0 .8 0 1.2.2.7.2 1.3.4 1.9 0 .4-.4.6-1 .6-2.2 0-2.2-.7-6.1-1.8-8.2 0-.3-.3-.5-.6-.4Zm1.2 9.8c-.2 0-.6 0-.8-.2l-1.6-.2a5 5 0 0 0-1.6.2c-.2.1-.7.3-.8.2l-.1-1.2c0-2 .5-5.3 1.4-7.3h2.2c.9 2 1.5 5.4 1.5 7.3 0 1-.2 1.2-.2 1.2ZM323.7 46.5c-.2-.1-.5 0-.6.2a6 6 0 0 1-2 1.8c-.2.2-.3.5-.2.7.7 2.3 3 5.6 4.6 7.1.7.8 1.3 1.1 1.8 1.1h.2c.6 0 1-.7 1.3-1.3l.7-1 1-.7c.6-.4 1.2-.7 1.3-1.4.1-.5-.2-1.1-1-2a23 23 0 0 0-7-4.5Zm7 6.3c-.1.2-.5.4-.8.5l-1.3.9c-.4.4-.7 1-.9 1.3l-.4.7s-.3 0-1-.7a21.7 21.7 0 0 1-4.2-6.2c.7-.4 1.2-1 1.7-1.5 2 .8 4.8 2.7 6.1 4 .7.8.7 1 .7 1ZM332 46.8c-1.8 0-5-.5-7.2-1.4a5.8 5.8 0 0 0 0-2.4c2-.8 5.3-1.4 7.2-1.4v-1.1c-2.2 0-5.9.6-8 1.7-.4 0-.5.4-.4.7l.2 1.2c0 .5 0 1-.2 1.5-.1.3 0 .6.3.7 2.2 1 6 1.7 8 1.7h.1v-1.2ZM330.5 34.2l-1-.7-.7-1c-.4-.7-.7-1.3-1.4-1.4-.5 0-1.1.3-2 1A23.8 23.8 0 0 0 321 39c-.1.3 0 .6.3.7.8.5 1.4 1.2 1.9 2 .1.3.3.4.5.4h.2c2.4-1 5.4-3 6.9-4.5.8-.8 1.1-1.4 1-2-.1-.6-.7-1-1.3-1.3Zm-.6 2.5a23 23 0 0 1-6 4 6 6 0 0 0-1.6-1.8c.9-2 2.7-4.6 4-5.8.7-.8 1-.7 1-.7l.4.6c.3.4.5 1 1 1.4.3.4.9.7 1.3.9l.6.4s0 .3-.7 1Z"/>
      <path stroke="#000" stroke-linecap="round" stroke-linejoin="round" stroke-miterlimit="10" stroke-width="1.3" d="M24.6 189.4c2.3-.4 4.5-1.3 6.2-2.2a5.3 5.3 0 0 0 2.5-6.7c-.8-1.8-2-3.8-3.6-5.4a3.8 3.8 0 0 0-6 .8c-2.7 5-2.7 13.4-2.7 13.4l2.3 4.2s7.5 12 11 .3c1.6-5.1-3.8-3.7-9.7-4.4Z"/>
      <path stroke="#000" stroke-linecap="round" stroke-linejoin="round" stroke-miterlimit="10" stroke-width="1.3" d="M25.5 179.9s5.4-1.6 4.9 4.3M29.3 196.5s3.2-.4 2.6-4"/>
      <path fill="#000" d="M26.5 184.7a1.5 1.5 0 1 0 0-3 1.5 1.5 0 0 0 0 3ZM28.7 194.8a1.3 1.3 0 1 0 0-2.6 1.3 1.3 0 0 0 0 2.6Z"/>
      <path stroke="#000" stroke-linecap="round" stroke-linejoin="round" stroke-miterlimit="10" stroke-width="1.3" d="M20.7 189.5s-7.2-4.5-13-4.6a3.8 3.8 0 0 0-3.7 4.6c.5 2.2 1.7 4.3 2.8 5.9a5.3 5.3 0 0 0 7 1.4c1.7-1 3.6-2.4 5.1-4.2-2.4 5.4-6.5 9.3-1.4 10.6 12 3.1 5.6-9.5 5.6-9.5l-2.4-4.2Z"/>
      <path stroke="#000" stroke-linecap="round" stroke-linejoin="round" stroke-miterlimit="10" stroke-width="1.3" d="M9.9 188.3s-3.6 3.9 1.5 6.5M22.3 200.6s-2 1.5-4.7-.4"/>
      <path fill="#000" d="M12.7 192.5a1.5 1.5 0 1 0 0-3 1.5 1.5 0 0 0 0 3ZM20.3 199.5a1.3 1.3 0 1 0 0-2.6 1.3 1.3 0 0 0 0 2.6Z"/>
      <path stroke="#000" stroke-linecap="round" stroke-linejoin="round" stroke-miterlimit="10" stroke-width="1.3" d="m213.5 62 1.6-.4a8.9 8.9 0 1 1-.6 17.1M194.7 85.7a11.4 11.4 0 0 0 19.7-7"/>
      <path stroke="#000" stroke-linecap="round" stroke-linejoin="round" stroke-miterlimit="10" stroke-width="1.3" d="M181 91.3c1.3 3 5.7 4.5 10.5 3.5 4-.9 7-3.3 8-6M186.4 64a13.6 13.6 0 0 1 27-3.2l.1 1.2c.4 3.1-.3 6-1.8 8.6M198.6 77.2c1.3.1 2.8 0 4.2-.3 2.4-.5 4.4-1.5 6-3"/>
      <path stroke="#000" stroke-linecap="round" stroke-linejoin="round" stroke-miterlimit="10" stroke-width="1.3" d="M185.2 90.9c-1.4.2-2.9.4-4.2.4-7.2 0-13.3-4.2-14.6-10.4-1.6-7.3 4.3-14.8 13.1-16.7 2.4-.5 4.7-.5 6.9-.2 3.9.6 7.3 2.4 9.5 5.1M203.4 96.8s.7 4.5 1.8 5.7c1.1 1.2 2.7 1.2 3.7.3 1-1 1.1-2.5 0-3.7-1-1.2-5.5-2.3-5.5-2.3ZM217 91s.7 4.4 1.8 5.6c1 1.2 2.7 1.3 3.7.4 1-1 1-2.5 0-3.8C221.4 92 217 91 217 91ZM224.1 80.3s.7 4.5 1.8 5.7c1.1 1.2 2.7 1.2 3.7.3 1-1 1-2.5 0-3.7-1.1-1.2-5.5-2.3-5.5-2.3ZM230.4 95s1 4.4 2.1 5.5c1.2 1.2 2.8 1.1 3.8.1s1-2.5-.2-3.7c-1.2-1.1-5.7-2-5.7-2ZM215.1 101.8s.7 4.5 1.8 5.7c1.1 1.2 2.7 1.3 3.7.4 1-1 1-2.6 0-3.8-1.1-1.2-5.5-2.3-5.5-2.3Z"/>
      <path stroke="#000" stroke-linecap="round" stroke-linejoin="round" stroke-miterlimit="10" stroke-width="1.3" d="M173.8 78.2s0-7 7.2-7.6M225.6 202a10 10 0 0 0-1-3.1 5.4 5.4 0 0 0-3.3-2.7 5.4 5.4 0 0 0-4.2.7c-.8.4-1.6 1-2.3 2l-.8.8-.8 1.2-.6 1.3-.7 1.6-.3 1a16 16 0 0 0-.2 8.1c.7 2.3 2 4 4 4.5 1.8.5 3.8-.2 5.6-1.7a14.8 14.8 0 0 0 4.4-8 13.5 13.5 0 0 0 .3-4.9l-.1-.8Z"/>
      <path stroke="#000" stroke-linecap="round" stroke-linejoin="round" stroke-miterlimit="10" stroke-width="1.3" d="M217.1 196.8c1.4-.8 3-1 4.3-.7 1.3.4 2.4 1.4 3.2 2.7"/>
      <path stroke="#000" stroke-linecap="round" stroke-linejoin="round" stroke-miterlimit="10" stroke-width="1.3" d="M217.1 196.8c1.4-.8 3-1 4.3-.7 1.3.4 2.4 1.4 3.2 2.7M214.8 198.8l-.7.9"/>
      <path stroke="#000" stroke-linecap="round" stroke-linejoin="round" stroke-miterlimit="10" stroke-width="1.3" d="M217.1 196.8c1.4-.8 3-1 4.3-.7 1.3.4 2.4 1.4 3.2 2.7M214.8 198.8l-.7.9M214.8 198.8l-.7.9M213.3 201c-.3.3-.5.7-.7 1.2M211.2 206.3l.4-1.5.3-1"/>
      <path stroke="#000" stroke-linecap="round" stroke-linejoin="round" stroke-miterlimit="10" stroke-width="1.3" d="M213.3 201c-.3.3-.5.7-.7 1.2M211.2 206.3l.4-1.5.3-1M217.6 200.7s1.8 2.3 4.4 1.2M225.8 203.3l.6.3c1.9.5 3.8-.6 4.4-2.5a3.6 3.6 0 0 0-6.5-2.8"/>
      <path fill="#000" d="M227.1 197.7c-.4-.1-.9.2-1 .6-.1.5.1 1 .5 1.1.5.2 1-.1 1-.6.2-.5 0-1-.5-1.1Z"/>
      <path stroke="#000" stroke-linecap="round" stroke-linejoin="round" stroke-miterlimit="10" stroke-width="1.3" d="M214 199.7h-.1c-1.9-.6-3-2.6-2.5-4.5s2.5-3 4.4-2.5c1.6.5 2.7 2 2.6 3.5"/>
      <path fill="#000" d="M214.3 193.7c-.4-.2-.8.1-1 .6 0 .5.1 1 .6 1 .4.2.9 0 1-.6 0-.4-.1-1-.6-1Z"/>
      <path stroke="#000" stroke-linecap="round" stroke-linejoin="round" stroke-miterlimit="10" stroke-width="1.3" d="m224.8 219 1.3-1.1c2-2 2.9-4.4 1.9-5.4s-3.4-.3-5.4 1.7c-2 2-2.9 4.3-1.9 5.3l.8.5"/>
      <path stroke="#000" stroke-linecap="round" stroke-linejoin="round" stroke-miterlimit="10" stroke-width="1.3" d="m224.8 219 1.8.5a2 2 0 0 1 1.4 2.5l-6.5-2M208.8 216.4h.9c1.4-.3 1.9-2.8 1.2-5.5s-2.3-4.6-3.7-4.3c-1.4.4-2 2.9-1.2 5.6l.5 1.4"/>
      <path stroke="#000" stroke-linecap="round" stroke-linejoin="round" stroke-miterlimit="10" stroke-width="1.3" d="m206.5 213.7-1.7-.4a2 2 0 0 0-2.6 1.4l6.7 1.7M215.4 205s2.5 9.4-2.3 1.9M222.4 207.2s-7.3 5.8.4 3.2M181.4 184l-.7-2.4-.4-1c-.7-1.4-1.5-2.7-2.5-3.7a7.2 7.2 0 0 0-5-2.4c-2 0-3.8.8-5.3 2.4-1 .9-1.7 2-2.4 3.3l-.6 1.4a14.6 14.6 0 0 0-1 3.8 20.4 20.4 0 0 0-.4 6 20.3 20.3 0 0 0 2.5 8.4c1.7 2.7 4 4.4 6.7 4.4 2.6 0 5-1.5 6.7-4a19.8 19.8 0 0 0 3-10.6v-1.3a28.3 28.3 0 0 0-.6-4.3Z"/>
      <path stroke="#000" stroke-linecap="round" stroke-linejoin="round" stroke-miterlimit="10" stroke-width="1.3" d="M167.5 176.9a7.4 7.4 0 0 1 5.3-2.4c1.9 0 3.6 1 5 2.4"/>
      <path stroke="#000" stroke-linecap="round" stroke-linejoin="round" stroke-miterlimit="10" stroke-width="1.3" d="M167.5 176.9a7.4 7.4 0 0 1 5.3-2.4c1.9 0 3.6 1 5 2.4M165.1 180.3l-.6 1.3"/>
      <path stroke="#000" stroke-linecap="round" stroke-linejoin="round" stroke-miterlimit="10" stroke-width="1.3" d="M167.5 176.9a7.4 7.4 0 0 1 5.3-2.4c1.9 0 3.6 1 5 2.4M165.1 180.3l-.6 1.3M165.1 180.3l-.6 1.3M163.8 183.6l-.4 1.8M163.1 191.3v-3.5M163.8 183.6l-.4 1.8M163.1 191.3v-3.5M169.5 181.7s3 2.5 6.1.1"/>
      <path stroke="#000" stroke-linecap="round" stroke-linejoin="round" stroke-miterlimit="10" stroke-width="1.3" d="M181 182.4h.8c2.7.1 4.9-2 5-4.7 0-2.6-2.1-4.8-4.8-4.9a4.8 4.8 0 0 0-4.7 3.6"/>
      <path fill="#000" d="M181.7 173.8c-.6 0-1 .5-1.1 1.1 0 .7.4 1.3 1 1.3s1-.6 1.1-1.2c0-.7-.4-1.2-1-1.2Z"/>
      <path stroke="#000" stroke-linecap="round" stroke-linejoin="round" stroke-miterlimit="10" stroke-width="1.3" d="M164.5 181.7h-.2a4.8 4.8 0 0 1-4.8-5c0-2.6 2.3-4.7 5-4.7 2.1 0 4 1.6 4.5 3.7"/>
      <path fill="#000" d="M164 173.1c-.6 0-1 .6-1 1.2-.1.7.4 1.2 1 1.3.6 0 1-.6 1-1.2 0-.7-.4-1.2-1-1.3Z"/>
      <path stroke="#000" stroke-linecap="round" stroke-linejoin="round" stroke-miterlimit="10" stroke-width="1.3" d="M167 188.4s7.1 10.2-1.3 3M178 188.5s-7.5 10 1.1 3M163 205.1c.4 0 .8 0 1.2-.2 1.8-1 1.7-4.7-.3-8.2-2-3.5-5-5.6-6.8-4.6-1.8 1-1.6 4.7.3 8.2l1.3 1.9"/>
      <path stroke="#000" stroke-linecap="round" stroke-linejoin="round" stroke-miterlimit="10" stroke-width="1.3" d="m158.7 202.2-2.5.1a3 3 0 0 0-3 3l10-.2M185 203.5l1.6-1.6c2.4-3.2 3-6.7 1.4-8-1.6-1.2-4.8.4-7.2 3.5-2.4 3.2-3 6.7-1.5 8l1.2.4"/>
      <path stroke="#000" stroke-linecap="round" stroke-linejoin="round" stroke-miterlimit="10" stroke-width="1.3" d="m180.3 205.8 9.7 1.5a3 3 0 0 0-2.5-3.3l-2.4-.5M194.2 228c2.6.6 4.9 1.8 7.2 2.5 3.6 1.1 6.6 2.3 10.4 2 4-.4 8.8-.3 13.9.4 12.7 1.7 22.6 6 22.1 9.9-.5 3.7-11.2 5.5-24 3.8h-.3c-2.3-.4-4.6.2-6.6 1.5-6.2 4-21.7 5.3-39.5 3-22.4-3-39.8-10.8-39-17.5.7-5 10.6-8 26-7.8M184.4 221.3s2.6-1.6 4.5-2.2c.3 2.2 0 4.3 0 6.2"/>
      <path stroke="#000" stroke-linecap="round" stroke-linejoin="round" stroke-miterlimit="10" stroke-width="1.3" d="M181 237.6c7.6-12.4.9-21.1.9-21.1s-9.3 8.6-4 20.9"/>
      <path stroke="#000" stroke-linecap="round" stroke-linejoin="round" stroke-miterlimit="10" stroke-width="1.3" d="m178.9 220.6-5.1-4.3s-1.3 4-1.2 7"/>
      <path stroke="#000" stroke-linecap="round" stroke-linejoin="round" stroke-miterlimit="10" stroke-width="1.3" d="M176.6 226.3s-2.7-3.4-9-4.8c0 0-.3 2.6.3 5.6.6 3.2 2.4 6 5 8h.2a13.3 13.3 0 0 0 18.8-3.5c1.8-2.6 3.7-5.7 3.9-7.4a20 20 0 0 0-11.1 3.5"/>
      <path stroke="#000" stroke-linecap="round" stroke-linejoin="round" stroke-miterlimit="10" stroke-width="1.3" d="M167.6 225.4s-1.1-.8-3.3-.8c0 0-.2 11.5 14.6 13M48.2 61.8v2.4c-1 5.8-6.5 13.2-13.3 17.8-9.1 6.2-17 4.9-20.8-.7-3.8-5.6-2-13.4 7-19.6 3.8-2.6 8.1-4.4 12.3-5.4.4 1.3 1 2.5 1.9 2.7 2 .4 2.4-1.9 2.4-1.9l-.2-1.4c3.5-.3 6.6.3 8.6 1.9M93 95.5a13 13 0 0 0-4.6-5.2L52.8 67.4h-.1M44.6 104.2 41 124.1c-.2 1.5-1.4 2.5-2.6 2.3-1.2-.2-2-1.5-2-3l3.2-28M69.3 112.8l-2.8 15c-.2 1.5-1.4 2.5-2.6 2.4-1.2-.2-2-1.5-2-3l1.7-15.2"/>
      <path stroke="#000" stroke-linecap="round" stroke-linejoin="round" stroke-miterlimit="10" stroke-width="1.3" d="M94.2 98.7a13 13 0 0 1-9.5 15.4 7 7 0 0 0-5 5.6L76.9 134c-.2 1.5-1.4 2.5-2.6 2.4-1.2-.2-2-1.5-2-3l1.7-14.6c.3-2.9-1.8-5.6-4.7-6l-5.7-.8-5.7-.9h0a4.2 4.2 0 0 0-4.8 3.4l-2.9 15.6c-.3 1.5-1.4 2.5-2.7 2.3-1.2-.2-2-1.5-1.8-3l1.8-16.9c.3-3-.7-6-2.8-8.3h0a22.8 22.8 0 0 1-5.2-8.9M68.6 56.1c-3 0 2-7.3-.2-9-2.3-1.7-2.7 7.5-5.7 7.6-3.1.1 1.5-5.7 0-8.8-1.5-3.2-3.9 6.8-5.6 7.1-1.7.3 2.7-7-1-7.6-3.9-.7-.7 8.3-5 8.7-4.4.5-7.3 7-7.3 7s-.2 2.5 1.8 2.6c2 .1 3.7-4.4 5-5.1 1.4-.8 14.7 5.9 20 5.6 5.2-.3 7-11.4 4.2-14.1-2.9-2.8-3.1 6-6.2 6ZM33.3 56.3c-.4-1.5-.8-3-1.4-3.7-1-1-15.7 1.4-20.6-.4-5-1.8-3.5-13 0-14.7 3.5-1.8 1.2 6.7 4.1 7.6 2.9 1 .1-7.6 2.8-8.5 2.7-1 .4 7.9 3.3 8.9 3 1 .2-6 2.5-8.5 2.4-2.6 1.8 7.7 3.4 8.5 1.5.8-.6-7.5 3.2-7 3.8.5-1.8 8.1 2.2 9.8 2.9 1.2 4.1 5.2 4.6 7.4M30 67a4.3 4.3 0 1 0-8-3.4 4.3 4.3 0 0 0 8 3.3Z"/>
      <path fill="#000" d="M27.4 66.1c-.4 0-.8.4-.8.8s.4.8.8.8.8-.4.8-.8-.4-.8-.8-.8Z"/>
      <path stroke="#000" stroke-linecap="round" stroke-linejoin="round" stroke-miterlimit="10" stroke-width="1.3" d="M22.6 63c2.5-.2 5 .4 7.4 1.8M38.5 64.3a4.3 4.3 0 0 0-4.5 4.1c0 2.4 1.8 4.4 4.2 4.5 2.4 0 4.4-1.8 4.4-4.2.1-2.3-1.7-4.3-4.1-4.4Z"/>
      <path fill="#000" d="M39.7 71a.8.8 0 1 0 0-1.5.8.8 0 0 0 0 1.6Z"/>
      <path stroke="#000" stroke-linecap="round" stroke-linejoin="round" stroke-miterlimit="10" stroke-width="1.3" d="M34.8 67c2.6-.4 5.1 0 7.5 1M18 73.5c-.4-.2-1.2.6-1.7 1.7-.6 1.2-.7 2.3-.2 2.5.4.3 1.2-.5 1.8-1.7.5-1.1.6-2.2.2-2.5ZM23.6 75.4c-.4-.3-1.2.5-1.8 1.7-.5 1.1-.6 2.2-.2 2.4.4.3 1.2-.5 1.8-1.7.6-1.1.7-2.2.2-2.4ZM23.4 83s3.9 2 5.6-2.1M48.2 63.9c1.6-1 4.5.7 4.5 3.5 0 2.2-2 3.7-1.4 5.7.6 2.6 3.2 2.2 3.3 5.7 0 4.5-3.8 3.8-4.2 7-.3 2.6.6 2.5.4 5.3-.2 3.2-3.8 5-7 3.9-2.4-.9-2.7-1.6-5.6.5-2.6 2-6.6 1.4-8.3.1-2.5-1.8-4.2-6.6-4.4-9.5M92 93.7c3.4.4 9.7.6 10.8-2.8 1 9.1-5.9 9.6-8.4 9.5"/>
      <path stroke="#000" stroke-linecap="round" stroke-linejoin="round" stroke-miterlimit="10" stroke-width="1.3" d="M95.1 95.9s2.8.8 4.4-.7M46.2 128.5l2.3.3M36.8 122.3l2 .3M66.5 126.7l-1.8-.3M76.8 133.6l-2.5-.3M59.9 76.5l6.7 4M62.7 82l6.7 4M70.4 82.1l6.8 4M69.8 90.6l6.7 4M75 88.3l6.7 4M82.2 89.3l6.7 4M82.3 95.6l6.7 4M56.8 82.6l6.7 4M58.9 80l-4.2-2.5M58 73.8l-5.8-3.5"/>
      <path fill="#000" d="M324.3 8.3 313.1 6l13.8-73.3 5.1 1v-1.2l-5.4-1h-.5l-.2.4-14 74.5c-.1.3 0 .6.4.7l12.4 2.3h.5l.2-.5 6.6-35v-6.4l-7.7 40.7Z"/>
      <path fill="#000" d="m325 2-4.4-.8c-.3-.1-.6.1-.6.4-.1.3.1.6.4.7l4.3.8h.2c.3 0 .5-.1.6-.4 0-.3-.2-.7-.5-.7ZM293-17.3a.6.6 0 0 0-.8.3l-9.5 19-1-2.8-.3-.3h-.5L277.4.4l-.2-3.3-.2-.4a.6.6 0 0 0-.5-.2l-2.4.3L288-19c.3-.3.3-.6 0-.9a.6.6 0 0 0-.8 0v.1l-15 17c-.1.2-.2.5 0 .7 0 .2.3.4.5.3l3.3-.3.3 3.5c0 .2.1.4.3.5h.5l3.7-1.6 1.3 3.4c0 .2.3.3.5.4.3 0 .5-.2.6-.4l10-20c.2-.4 0-.7-.2-.9Z"/>
      <path stroke="#000" stroke-linecap="round" stroke-linejoin="round" stroke-miterlimit="10" stroke-width="1.3" d="M84.4.5a2 2 0 1 0 0-4 2 2 0 0 0 0 4ZM86 21a2 2 0 1 0 0-4 2 2 0 0 0 0 4ZM110.3 17.4a2 2 0 1 0 0-4 2 2 0 0 0 0 4ZM83.9 37.9a2 2 0 1 0 0-4 2 2 0 0 0 0 4ZM108 6.9a2 2 0 1 0 0-4 2 2 0 0 0 0 4ZM102 17.4a1.4 1.4 0 1 0 0-2.9 1.4 1.4 0 0 0 0 2.9ZM84.5 8.9a1.4 1.4 0 1 0 0-2.9 1.4 1.4 0 0 0 0 2.9ZM110.5 24.2a1.4 1.4 0 1 0 0-2.9 1.4 1.4 0 0 0 0 2.9ZM104.3-1.5c-.8 0-1.4.6-1.4 1.4 0 .8.6 1.4 1.4 1.4.8 0 1.4-.6 1.4-1.4 0-.8-.6-1.4-1.4-1.4Z"/>
      <path stroke="#000" stroke-linecap="round" stroke-linejoin="round" stroke-miterlimit="10" stroke-width="1.3" d="M99.7-3.7s-12.5 19.5 6.6 42.4"/>
      <path stroke="#000" stroke-linecap="round" stroke-linejoin="round" stroke-miterlimit="10" stroke-width="1.3" d="M109.1 17c-.2.4-7.7 5.6-7.7 14.3M87.8 19.9s6.4 1 10.4 5.5M106.3 6.2s-6.8 3.7-10 10M86 0s7.2 4.5 9.8 9.7M97.7.6l-4-4.5M97.8.5s2.3-1.4 5-.6M85.8 35.4s9.7-4 17.5-.7M109 23.1l-4.6-.3"/>
      <path stroke="#000" stroke-linecap="round" stroke-linejoin="round" stroke-miterlimit="10" stroke-width="1.3" d="M102.4 17.9s.4 3.4 1.1 5.2M89.7 37.9s1.2-2.7 4.4-4.4M91.6 17.5l1.5 4.2M85.7 6.6s2.7-2.4 6.1-2M202 160a2 2 0 1 0 0-4 2 2 0 0 0 0 4ZM210 157a1.4 1.4 0 1 0-2.6-1 1.4 1.4 0 0 0 2.6 1ZM200.2 164a1.4 1.4 0 1 0-1 2.6c.7.3 1.5 0 1.8-.8.3-.7 0-1.5-.8-1.8Z"/>
      <path stroke="#000" stroke-linecap="round" stroke-linejoin="round" stroke-miterlimit="10" stroke-width="1.3" d="M203.6 159.3s1.9 2.7 5.7 5.6M206.9 162.9l-5.8 2"/>
      <path stroke="#000" stroke-linecap="round" stroke-linejoin="round" stroke-miterlimit="10" stroke-width="1.3" d="M206.8 162.8s-.4-2.7 1.3-4.9M59.7 16.2c-.1 2.4 1.4 4.4 5.6 4.6 4.2.3 9.6-3.8 9.6-3.8s-5-4.6-9.1-4.8c-4.3-.2-6 1.6-6.1 4ZM57.4 23.9c-1.2 1-1.4 2.8.6 5.1s6.7 3.3 6.7 3.3-.3-4.8-2.3-7.1c-2-2.4-3.8-2.4-5-1.3ZM54.5 3.1c-2 3.1-1.7 5-.3 5.9 1.3.9 3.2.4 5.2-2.7s2-8.5 2-8.5-5 2.2-7 5.3Z"/>
      <path stroke="#000" stroke-linecap="round" stroke-linejoin="round" stroke-miterlimit="10" stroke-width="1.3" d="M37.7 26.2s12.3-13 27.4-8.8"/>
      <path stroke="#000" stroke-linecap="round" stroke-linejoin="round" stroke-miterlimit="10" stroke-width="1.3" d="M46.7 19.8c7-.7 13.8 7.7 13.8 7.7M44.9 5.7c0 .4 4 9.7.1 14.4"/>
      <path stroke="#000" stroke-linecap="round" stroke-linejoin="round" stroke-miterlimit="10" stroke-width="1.3" d="M56.8 4.5c.2.3-4.7 11.4-12.6 16.7M40.6 9.1s3.7.3 6 2.6M47.6 27s-4.7-2.7-8.9-1.7M45.4 30.2l-2-4.8M49.3 29.1a1.4 1.4 0 1 0-.5-2.8 1.4 1.4 0 0 0 .5 2.8ZM46.3 33.3a1.4 1.4 0 1 0-.5-2.9 1.4 1.4 0 0 0 .5 2.9ZM39 10.8a1.4 1.4 0 1 0-.3-2.9 1.4 1.4 0 0 0 .4 2.9ZM44.4 2.6a1.4 1.4 0 1 0 0 2.9 1.4 1.4 0 0 0 0-3ZM187.8 44.5S198 26.1 219.4 20M212.8 16.1l-1.6 7M206.4 19.6l-1.7 7M200.6 23.3l-.8 7.2M194.6 28.5l-.2 7.2M188.8 33.8l.8 7.2M218.7 25.2l-6.9-2.2M212.1 28.3l-7-1.7M207.1 32l-7-1.7M202 37.3l-7-1.8M197 44.1l-6.7-2.6M12 214.4c2.9 12.1 0 23-2.4 29M13 221.9l4.6-4.2M13.3 228.2l4.5-4.1M13 221.4l-4.6-4.2M13.2 228l-4.3-4.6M176.4 6c-5.1-1.6-7.4 3.5-8.9 8-1.5 4.7 2.8 7.2 3.2 9.1 1.3-1.2 6.4-.7 8-5.2 1.5-4.6 2.8-10-2.3-11.8Z"/>
      <path stroke="#000" stroke-linecap="round" stroke-linejoin="round" stroke-miterlimit="10" stroke-width="1.3" d="M168.4 11.6c4 0 7.7 1.2 11 3.5M176.4 6.1l2-2a3 3 0 0 1 2.5-.7l1.7.4c.5 0 .8.5.6.9l-.3 1.2c-.1.6-.7.8-1.2.5l-.5-.4c-.8-.6-1.8-.7-2.7-.2l-1.2.7M170 15.5s-.4 1.5.4 2.5M134.5 2.2c-7.2 1.9-9.8 15.2-7 25.5 2.7 10.4 9.4 12 16.5 10 7.2-1.9 12.2-6.6 9.5-17-2.8-10.3-11.9-20.4-19-18.5Z"/>
      <path stroke="#000" stroke-linecap="round" stroke-linejoin="round" stroke-miterlimit="10" stroke-width="1.3" d="M144.9 6c.7 0 1.4-.1 2-.4a6.1 6.1 0 0 0 3.5-7.9 6.1 6.1 0 0 0-7.9-3.5A6.1 6.1 0 0 0 139 2M130.4 4.6v-.3a6 6 0 0 0-7.1-5 6.1 6.1 0 1 0 4.2 11.2M141.9 14.7a3.9 3.9 0 1 0 0-7.8 3.9 3.9 0 0 0 0 7.8ZM132.2 17.2a3.9 3.9 0 1 0 0-7.8 3.9 3.9 0 0 0 0 7.8Z"/>
      <path fill="#000" d="M132.2 14.7a1.4 1.4 0 1 0 0-2.7 1.4 1.4 0 0 0 0 2.7ZM141.9 12.1a1.4 1.4 0 1 0 0-2.7 1.4 1.4 0 0 0 0 2.7ZM138.6 17.4c-.5.1-.8.8-.6 1.4.1.7.7 1.1 1.2 1 .5-.2.8-.8.6-1.5-.2-.7-.7-1-1.2-1Z"/>
      <path stroke="#000" stroke-linecap="round" stroke-linejoin="round" stroke-miterlimit="10" stroke-width="1.3" d="m138.2 15.8.4 1.5M137.3 15.6l1.4-.4M144.8-3.5a3.4 3.4 0 1 0 0 6.8 3.4 3.4 0 0 0 0-6.8ZM124.3 8.8a3.4 3.4 0 1 0 0-6.8 3.4 3.4 0 0 0 0 6.8ZM145.8 20.3s-3 2.8-2.4 4.1c.6 1.3 5.6-2.2 5.6-2.2M134.5 23.3s4 1 4 2.4c.2 1.4-5.8.8-5.8.8M152.2 32.9c1 .2 1.8.8 2 1.6.4 1.5-1 3-3.1 3.6-2 .5-3.8 0-4.3-1.3M136.2 38.1c-.2.4-.2.8 0 1.2.3 1.5 2.3 2.2 4.4 1.6 1.8-.4 3.1-1.8 3.1-3"/>
      <path stroke="#000" stroke-linecap="round" stroke-linejoin="round" stroke-miterlimit="10" stroke-width="1.3" d="M154 28.8s11.5 4.4 7 8.5c-4.6 4-10.7 2.2-16 4.2-5.2 2-8.7 8.1-8.7 8.1M258.3 69.4s-10.9-1.4-9-3.3c1.8-2 8-2.8 9.8-2.1 0 0-5-7.8 2.8-11.4M253 30.2c-6.5-3-12.5-3.3-14.3-2.3-.8.4-1.4 1.1-1.6 2-2.5 7 8.3 10.2 9.5 16l.6 2.1"/>
      <path stroke="#000" stroke-linecap="round" stroke-linejoin="round" stroke-miterlimit="10" stroke-width="1.3" d="M261 35c3.7 2.2 7.3 2.4 10 3.4 3.2 1.2 19 6 13.3 25.6-4.7 12-13.7 16.8-23.7 15.8-10-.8-18.3-4.4-15.5-7 1.7-1.5 7.3-3 13.2-3.5 4.7-.3 9.6 0 12.6 1.4"/>
      <path stroke="#000" stroke-linecap="round" stroke-linejoin="round" stroke-miterlimit="10" stroke-width="1.3" d="M249.8 53.7c2.5 4.7 5.7 10 5.7 10M253 30.3c2-2.5 5.3-3.1 7.3-1.4 2 1.6 2 5-.1 7.5"/>
      <path stroke="#000" stroke-linecap="round" stroke-linejoin="round" stroke-miterlimit="10" stroke-width="1.3" d="M251 48.5s-7-2.5-9.2 3.9c-1.5 4.8 2.1 3.8 4.5 2 2.5-1.9 5.8.2 5.8.2"/>
      <path fill="#000" d="M248.1 34.3a.7.7 0 1 0 0-1.4.7.7 0 0 0 0 1.4Z"/>
      <path stroke="#000" stroke-linecap="round" stroke-linejoin="round" stroke-miterlimit="10" stroke-width="1.3" d="M254.8 73c0 .3 3.8 6.2 3.8 6.2M261.7 73.6l3.5 5.4M268.5 74.6 271 78M247.4 36.2a3 3 0 1 0 0-5.9 3 3 0 0 0 0 5.9ZM243 36.2s-1.4 1.8-3.8 1M241.3 27.7s.1 4.4-4.5 3M257.9 30.8s2 1-.3 3M269 43.2s11.5 3.8 8.8 12.7M78.6 206.5c-2.5-.3-4.7-1-6.1 1-1.4 1.8.2 3.6 1 6 .6 2.3 4.6 1 6-1 1.4-1.9 1.5-5.8-1-6ZM68.6 209.3c-1.1-.4-2.2-.2-2.5.5-.2.7.4 1.6 1.5 2 1 .4 2.1.2 2.4-.5.3-.7-.4-1.6-1.4-2ZM73.1 200.4c-.6.4-.4 1.5.3 2.4.7.9 1.7 1.2 2.3.8.6-.5.5-1.6-.2-2.5-.7-.9-1.8-1.2-2.4-.7ZM70 203.7c-.8-.7-2-.8-2.4-.2-.4.5 0 1.6.8 2.3.9.7 2 .8 2.5.2.4-.6 0-1.6-.8-2.3ZM313.6 142.3c-1.6-1.4-2.8-2.9-4.7-2.2-2 .7-1.7 2.8-2.3 4.8-.5 2 2.9 2.9 4.8 2.2 2-.7 3.8-3.5 2.2-4.8ZM303.3 138.8c-.5.4-.5 1.3 0 2.1.6.8 1.5 1.2 2 .8.6-.4.5-1.3 0-2.1-.6-.8-1.5-1.2-2-.8ZM312.7 135.4c-.7 0-1.1 1-1 1.9 0 1 .7 1.7 1.3 1.6.7 0 1.1-.9 1-1.9 0-1-.7-1.7-1.3-1.6ZM307.2 135c-.6.2-.8 1.1-.5 2 .3 1 1 1.5 1.7 1.3.6-.2.8-1 .5-2-.3-1-1-1.5-1.7-1.3ZM323.3 222c1.3-3-1.2-8.1-8.5-8.5.6 4.1 2 6-.2 7.4-1.2-2.2-1.6-12-10-14.5-8.3-2.5-16 2.7-19.3 8.3-3.1 5.1-10.7 17.8 2.4 26 13 8 22.7-4.4 17-12.4-5.9-8-15.2-.3-11.4 3.1 2.4 2.2 3-2.9 2.4-3.3 2.8-2.2 5.6-.7 7.4 2.3 1.9 3-1.2 12.3-9.7 8.3s-7-12.7-2.4-15.5c4.7-2.8 11.7-2 15 2 3.1 3.9 2.7 7.4 4.2 8l7.1 3.8s-.6 3 .8 3.2c1.8.4.6-1.8 1.4-2.6.7-.8 2-.2 2.3 1.5.3 1.8 2.9.6 2.2-1.3-.7-2-3.7-3.4-6-2.6-1.5-1-8.4-5-5.2-5.1 2.6 1.5 11.4 5.5 13.4 2 0-.2 3-5-3-10.2Z"/>
      <path fill="#000" d="M319 224.1c-.5-.1-1 .1-1.1.5-.2.5 0 1 .5 1 .5.3 1 0 1.1-.4.2-.4 0-.9-.5-1Z"/>
      <path stroke="#000" stroke-linecap="round" stroke-linejoin="round" stroke-miterlimit="10" stroke-width="1.3" d="M322 227c.7-1.7-.3-3.7-2.2-4.4-1.9-.7-4 .2-4.6 2-.6 1.8.4 3.8 2.3 4.5 1.9.7 4-.2 4.6-2ZM294.2 211.1c.3 0 8.1-6 15 2.7M319.7 220.2c.3 0 2 .7 3.6 1.7M116 237.7c1.9-2.4 3.3-5.2 4.1-8.2l.9-3.3M89 186.6c4.3 9.2 8.4 14.5 2.7 27.7-5 11.8.7 24.5 7.2 28.7 1 .6 2 1 3 1.3h.2a11.5 11.5 0 0 0 5.4-.5M122 221a52.8 52.8 0 0 0-.2-16.2c-.9-4.3-2.6-8.6-5.4-13M109.2 180.4c-1.8-3.2-4.6-10.4-11-10-1.4.5-9.4 3.7-10.7 7.3"/>
      <path stroke="#000" stroke-linecap="round" stroke-linejoin="round" stroke-miterlimit="10" stroke-width="1.3" d="M89.7 181.5s-1.4-6.8-11.4-7.8C82 186 83 186.2 89.5 186.4M98.3 170.4s-4.1-6-2-10.6c6.9 3.8 12.7 7.3 9.6 14M100.8 191.3c2.2 3.7 10.2 2.7 14.5.2 1-.7 4.4-3 3.4-6.5M115.5 182.4c-2-1-4.4-1.6-6.3-2"/>
      <path stroke="#000" stroke-linecap="round" stroke-linejoin="round" stroke-miterlimit="10" stroke-width="1.3" d="M117.2 186.8c1.6-1 2.3-2.8 1.6-4-.7-1-2.7-1-4.3.1-1.6 1.1-2.3 2.9-1.6 4 .8 1 2.7 1 4.3 0ZM126 227.4l-7-11c-3.4-5-4.9-5.2-6-4.5-1 .7-1.3 2.1 2.2 7.2 3.4 5 11 12.8 12.3 13 .4 0 3.3-1.1 3-2.6-.1-1-3.4-.3-4.5-2.1ZM121.8 204.8c1 .4 2.2 1.8 4.1 5.2 2 3.4 4.5 8.4 6 11.5.9 2 4.3 1.4 4.3 2.5.1 1.6-2.8 2.4-3.3 2.3a54 54 0 0 1-10.3-12.7M102.9 225s11.3-3.1 10.3 10.3M82.7 178.2s.4 2.4 3.2 3.9M98.6 164.8s2.7.5 3.7 3M92.6 224.7l1.7 2.5M101 205.7l1.7 2.5M100.2 211.4l1.7 2.4M98.7 216l1.7 2.5M98 221.3l1.7 2.5M96.6 199.6l1.6 2.5M96.8 205.1l1.7 2.5M96.4 210.7 98 213M94.5 215.3l1.7 2.4M93.6 219.5l1.7 2.5M99 187.7a3.2 3.2 0 1 0-6-2.4 3.2 3.2 0 0 0 6 2.4Z"/>
      <path fill="#000" d="M96.8 184.9a1 1 0 0 0-1 1c0 .6.4 1 1 1s1-.4 1-1-.4-1-1-1Z"/>
      <path stroke="#000" stroke-linecap="round" stroke-linejoin="round" stroke-miterlimit="10" stroke-width="1.3" d="M104.5 184.2a3.2 3.2 0 1 0-1-6.3 3.2 3.2 0 0 0 1 6.3Z"/>
      <path fill="#000" d="M104.8 179.4a1 1 0 0 0-1 1c0 .6.5 1 1 1 .6 0 1-.4 1-1 0-.5-.4-1-1-1Z"/>
      <path stroke="#000" stroke-linecap="round" stroke-linejoin="round" stroke-miterlimit="10" stroke-width="1.3" d="m108.2 193.9-.1 2.7c0 1.2-1.2 2.2-2.4 2.1a2.3 2.3 0 0 1-2.1-2.4l.1-2.7M105.8 193.7v2M289 168.4l7.5 2.6M294 165.9l-2.5 7.6M80.3 149.7l1.7 7.9M85 152.8l-7.8 1.7M21.8 136.9c-2.6-1.5-5.6-.2-5.7-.2 0 0 1.3 4.2 4 5.6 2.8 1.4 5.6-.4 5.6-.4s-1.4-3.6-4-5ZM18.5 126.4c-2.3-1.9-5.5-1.1-5.5-1.1s.5 4.3 3 6.2c2.4 1.8 5.5.5 5.5.5s-.8-3.7-3-5.6ZM11.8 114.2s-.2 4.3 2 6.6c2.1 2.2 5.4 1.4 5.4 1.5 0 0-.3-3.9-2.1-6-2-2.3-5.2-2.1-5.3-2.1ZM25 135.6c-.8 2.7 1.3 6 1.3 6s3-1.5 3.7-4.1a9 9 0 0 0-.9-5.7s-3.2 1-4 3.8ZM22 125.7c-1.4 2.5 0 6.1.1 6.1 0 0 3.2-.9 4.3-3.4 1.2-2.5.2-5.6.2-5.6s-3.3.3-4.7 2.9ZM25.7 113.8s-3.4 0-5.1 2.2c-1.7 2.4-.8 6.2-.8 6.1 0 0 3.3-.4 4.8-2.6 1.5-2.3 1-5.6 1.1-5.7ZM16 108c-.2 3.3 2.4 6 2.4 5.9 0 0 2.5-2.5 2.7-5.4.3-3-1.8-5.9-1.8-5.9s-3 2-3.2 5.4Z"/>
      <path stroke="#000" stroke-linecap="round" stroke-linejoin="round" stroke-miterlimit="10" stroke-width="1.3" d="M18.4 113.9a62.5 62.5 0 0 0 10.2 32.7"/>
      <path fill="#000" d="M325.2 149.1c-.1.1-2.4 2.7-2.4 6a10 10 0 0 0 2.4 6l.4.2c.2 0 .3 0 .4-.2.1-.1 2.4-2.7 2.4-6a10 10 0 0 0-2.4-6 .6.6 0 0 0-.8 0Zm.4 10.6a8.5 8.5 0 0 1-1.6-4.6c0-2 1-3.7 1.6-4.6.6.9 1.6 2.6 1.6 4.6 0 2-1 3.8-1.6 4.6ZM320.8 156c-2.6-2-6-1.9-6.2-1.8-.1 0-.3 0-.4.2l-.1.4c0 .2.6 3.6 3.2 5.6 2.2 1.8 5 2 6 2h.2l.4-.3c.1-.1.2-.3.1-.5 0 0-.6-3.5-3.2-5.5Zm-2.8 3.5a8.6 8.6 0 0 1-2.6-4.2c1 .1 3 .4 4.6 1.7a8.7 8.7 0 0 1 2.7 4.1c-1 0-3-.3-4.7-1.6ZM323.2 163.5c-.1 0-3.2-1.6-6.4-1-3.2.8-5.2 3.6-5.3 3.7-.1.2-.2.3-.1.5 0 .2.1.3.3.4.1 0 2.2 1.1 4.7 1.1.5 0 1 0 1.7-.2 3.2-.7 5.2-3.5 5.3-3.6.1-.1.2-.3.1-.5l-.3-.4Zm-5.4 3.4c-2 .4-3.9-.2-4.9-.6.8-.7 2.2-2.1 4.2-2.6 2-.4 3.9.2 4.9.6-.7.8-2.2 2.2-4.2 2.6ZM324.7 165.4h-.5a10 10 0 0 0-4.7 4.4 10 10 0 0 0-.5 6.4c0 .2.1.3.3.4h.5a10 10 0 0 0 4.7-4.4c1.5-3 .6-6.3.5-6.4 0-.2-.2-.3-.3-.4Zm-1.3 6.3c-.9 1.8-2.5 3-3.5 3.5-.1-1-.3-3.1.6-4.9.9-1.8 2.5-3 3.5-3.5.1 1 .3 3-.6 4.9ZM331.7 169.8c-1.4-3-4.6-4.4-4.7-4.4h-.5l-.3.4c0 .1-1 3.4.5 6.4 1.4 3 4.6 4.3 4.7 4.4h.6v-6.2l-.3-.6Zm-.5 5.4c-1-.6-2.6-1.7-3.4-3.5a8.7 8.7 0 0 1-.6-5c1 .6 2.6 1.8 3.5 3.6.8 1.8.7 3.8.5 4.9ZM329.2 164.3c.6-.3 1.6-.6 2.8-.7v-1.1c-2.2.1-4 1-4 1-.2.2-.3.3-.3.5v.4c.1.2 1.7 2.3 4.3 3.3v-1.3a9.3 9.3 0 0 1-2.8-2ZM328.5 161.2c.3-1 1-3 2.6-4.2l1-.6v-1.3c-.6.2-1.2.5-1.7 1-2.5 2-3.2 5.4-3.2 5.5l.1.5.5.2h.2c.6 0 2.3 0 4-.8v-1.3a9 9 0 0 1-3.5 1Z"/>
      <path stroke="#000" stroke-linecap="round" stroke-linejoin="round" stroke-miterlimit="10" stroke-width="1.3" d="M285.4 15c-1.4 2.2-.9 5-.9 5s2.7-.8 4-3c1.4-2.3 1-5 1-5s-2.7.8-4.1 3ZM278.4 11.2s-1 2.6-.1 5a8 8 0 0 0 3.4 3.8s1-2.6 0-5a8 8 0 0 0-3.3-3.8ZM276.4 19.4c-2.4-.9-5 .2-5 .2a8 8 0 0 0 3.9 3.3c2.4.8 5-.3 5-.3s-1.4-2.4-3.9-3.2ZM284.1 25s.3 2.8 2.1 4.6c2 1.8 4.7 2 4.7 2s-.2-2.9-2-4.7c-2-1.8-4.8-2-4.8-2ZM290.3 20.2c-2.6.3-4.5 2.4-4.5 2.4s2.4 1.6 5 1.3a8.3 8.3 0 0 0 4.4-2.5s-2.3-1.6-4.9-1.2ZM283 22.6l-5.4 8.7M259.7 216l-2.7-1.6-3.9.7-3.4-1.1-.9 1.6-3.6.3 1.6 3-.5 1.6 3.2 1.6 1.1 3.8 3.6 1.8 3 2.8 8.7-4.3-1.2-9-5-1.3ZM259.7 216l2.4 8.4M259.8 223.6l-2.5 6.9M257 222l-6.4 4M251.8 219.3l-5.5 1.2M254.3 220.5l-1.2-5.4M270.3 228.6l-25-12.7"/>
      <path stroke="#000" stroke-dasharray="4.7 4.7" stroke-linecap="round" stroke-linejoin="round" stroke-miterlimit="10" stroke-width="1.3" d="M15.5 166.7C40.8 145 42 179 73.7 146.5"/>
      <path stroke="#000" stroke-linecap="round" stroke-linejoin="round" stroke-miterlimit="10" stroke-width="1.3" d="M161.8 93.3a11.5 11.5 0 1 0 5 22c.4-.3.5-2.5.4-3.4 1 .2 2.4 1.4 2.8 1 2-2 3.3-4.9 3.3-8 0-6.4-5.1-11.5-11.5-11.6Z"/>
      <path stroke="#000" stroke-linecap="round" stroke-linejoin="round" stroke-miterlimit="10" stroke-width="1.3" d="M161.9 98a7 7 0 0 0-4.3 1.5c-.2.4.3 1.8.3 2.5-.6-.1-1.7-.3-2.3 0a6.9 6.9 0 1 0 13.1 2.9c0-3.8-3-7-6.8-7Z"/>
      <path stroke="#000" stroke-linecap="round" stroke-linejoin="round" stroke-miterlimit="10" stroke-width="1.3" d="M161.8 108a3.2 3.2 0 1 0 0-6.3 3.2 3.2 0 0 0 0 6.4ZM104.5 55.2c-2.3-1-5.1-2.2-5.5 1.2-.4 3.5-.7 6.7 1.6 7.7s4.3-1.6 6.7-4c2.3-2.4-.5-3.9-2.8-4.9ZM92.3 59c-2.3-2.2-3.9.6-4.9 3-1 2.2-2.2 5 1.2 5.4 3.5.4 6.7.7 7.7-1.6s-1.5-4.3-4-6.7ZM98 70c-2.3-1-4.2 1.6-6.7 4.1-2.3 2.3.5 3.9 2.9 4.9 2.3 1 5 2.2 5.5-1.2.4-3.5.6-6.7-1.7-7.7ZM110 66.7c-3.5-.4-6.7-.6-7.7 1.7s1.5 4.2 4 6.7c2.3 2.3 3.9-.6 4.9-2.9 1-2.3 2.2-5-1.2-5.5Z"/>
      <path fill="#000" d="M101.4 57c-.3 0-.6.2-.6.5s.3.6.6.6.6-.3.6-.6-.3-.6-.6-.6ZM101.5 60.4c-.3 0-.6.3-.6.6 0 .2.3.5.6.5s.6-.3.6-.5c0-.3-.3-.6-.6-.6ZM91.5 61c-.3 0-.6.2-.6.5s.3.6.6.6.5-.3.5-.6-.2-.5-.5-.5ZM104.3 58.7c-.3 0-.6.3-.6.6s.3.5.6.5.5-.2.5-.5-.2-.6-.5-.6ZM92.9 64c-.3 0-.6.3-.6.6s.3.6.6.6.6-.3.6-.6-.3-.5-.6-.5ZM109.5 68.7c-.3 0-.6.2-.6.5s.3.6.6.6.5-.3.5-.6-.2-.5-.5-.5ZM107.7 71.2c-.3 0-.5.2-.5.5s.2.6.5.6.6-.3.6-.6-.3-.5-.6-.5ZM96.5 75.9c-.3 0-.5.3-.5.5 0 .3.2.6.5.6s.6-.3.6-.6c0-.2-.3-.5-.6-.5ZM104.8 68.7c-.3 0-.5.2-.5.5s.2.6.5.6.6-.3.6-.6-.3-.5-.6-.5ZM89 64c-.3 0-.5.3-.5.6s.2.6.5.6.6-.3.6-.6-.3-.5-.6-.5ZM96.5 72.6c-.3 0-.5.3-.5.6s.2.5.5.5.6-.2.6-.5-.3-.6-.6-.6ZM92.9 75.3c-.3 0-.6.3-.6.6s.3.5.6.5.6-.2.6-.5-.3-.6-.6-.6Z"/>
      <path stroke="#000" stroke-linecap="round" stroke-linejoin="round" stroke-miterlimit="10" stroke-width="1.3" d="m161.4 48.6-2.5 1-2.5 1c-1 .4-1.3 1.7-.5 2.5l2.8 2.9 1.9 2c1 .9 2.6.3 2.7-1.1V54l.2-4c0-1-1-1.9-2.1-1.5ZM172.4 41.3l-1.5-.9-2.2-1.2c-.6-.4-1.3 0-1.4.7l-.2 1.7-.2 1.7a1 1 0 0 0 1.3 1l2.4-.7 1.6-.5a1 1 0 0 0 .2-1.8ZM230.7 174l-.5-2.2a.9.9 0 0 0-1.4-.6l-1.3 1-1.3.8a1 1 0 0 0 0 1.5l2 1.2 1.4.9c.7.4 1.5-.2 1.4-1l-.3-1.5ZM247.5 196.6h-4a1 1 0 0 0-.9 1.2l.6 1.4.6 1.5c.3.6 1 .7 1.5.3l1.6-1.7 1.2-1.1a1 1 0 0 0-.6-1.6ZM304 70.5l-.5-2.3a.9.9 0 0 0-1.4-.5l-1.3.9-1.3.8a1 1 0 0 0 0 1.6l2 1.2 1.4.8c.7.5 1.5-.2 1.4-1l-.4-1.5Z"/>
      <path fill="#000" d="M330.3 75.4c-.3.2-.6.2-.8.1 0 0-.4-.2-.4-.6l.3-5.4c0-.3.1-.5.3-.6l.4-.1h.2l1.7.9v-1.3l-1.2-.6c-.5-.3-1.2-.2-1.7 0-.5.4-.9 1-1 1.6v3.2l-.1 2.2a1.9 1.9 0 0 0 1.8 2c.5 0 .9-.1 1.2-.4l1-.9V74l-1.7 1.4Z"/>
      <path stroke="#000" stroke-linecap="round" stroke-linejoin="round" stroke-miterlimit="10" stroke-width="1.3" d="m237.2 183-2.2.8-3.2 1.3c-1 .3-1.1 1.5-.5 2.2l1.7 1.6 1.6 1.6c.6.7 1.8.5 2.2-.4l1.2-3.2 1-2.2c.4-1-.7-2.2-1.8-1.7ZM216.8 44.6a92.7 92.7 0 0 1 11.5-4.4c-1.4 3.9-10.9 7-10.6 7.3 5.4 5.2 17 2.1 14.7-11-13.1-.4-15.4 5-15.6 8ZM134.4 177.7c.6 9.5 4.7 10.8 7 10.8-1.4-2-2.7-6.6-2.7-6.6 3 .7 4.5 6 4.7 5.7 3.4-4.3.4-12.4-9-9.9ZM125.2 50.5s-2.3 4.4-7.5 1.9c-5-2.5-2.2-11.5 3-9.2 4.7 2.1 2.5 8.6-1.1 7.1-3-1.2-1.8-5.5 0-4.5 1.5.8 0 1.8 0 1.8M234 17l12.8-5.6M237.6 7.9l5.7 12.7M243 7.7l-5 13M247 16.7l-13-5M45.8 199c1-.5 5.5-1 5.5-6.8 0-5.7 1.3-8.5 3.8-10"/>
      <path stroke="#000" stroke-linecap="round" stroke-linejoin="round" stroke-miterlimit="10" stroke-width="1.3" d="M62.3 178.6c2.7-4.4-2.7-4.3-2.7-4.3s1.6-4.7-3.2-3.4c-.2-4.1-2.5-2.4-3-1 0 0-3.8 10 8 20 3.5 2.9 5.5-2.3 2.6-4.5 3.4-2.2 4.6-6.8-1.7-6.8ZM51.4 197.8s4.6 4.6 9.8-1.5c-4.4-3.2-8.2-.1-9.8 1.5ZM43.5 186.8s-3.1 6.1 4.8 9.3c1.7-5.5-2.6-8.2-4.8-9.3ZM56.1 197.6h-4.5M46 192l2.4 4M56.6 170.6l1.3-2.4M58.7 165.5c-.7 0-1.3.6-1.3 1.3 0 .7.6 1.3 1.3 1.3.7 0 1.3-.6 1.3-1.3 0-.7-.6-1.3-1.3-1.3ZM62.7 178.3l3.6-2M67.7 174.3c-.7 0-1.3.6-1.3 1.3 0 .7.6 1.3 1.3 1.3.7 0 1.3-.6 1.3-1.3 0-.7-.6-1.3-1.3-1.3ZM59.6 174.2l3-2.8M63.7 169c-.7 0-1.3.6-1.3 1.3 0 .7.6 1.3 1.3 1.3.7 0 1.3-.6 1.3-1.3 0-.7-.6-1.3-1.3-1.3ZM64.3 185.6h3.6M69.4 186.8a1.2 1.2 0 1 0 0-2.4 1.2 1.2 0 0 0 0 2.4Z"/>
      <path stroke="#000" stroke-linecap="round" stroke-linejoin="round" stroke-miterlimit="10" stroke-width="1.3" d="M57.1 173.2s-1.5 2-1.6 3.7M60.6 176.8c-.2 0-2.4 1.8-2.4 1.8M64.2 181.4c-.2 0-2.3 1.3-4.6.8M53.7 179.3c.7-.3 1.5-.4 2.3-.1a3.3 3.3 0 0 1 .8 5.7M192.1 121.3a3.5 3.5 0 1 0 0-7 3.5 3.5 0 0 0 0 7ZM192.1 106v8.3"/>
      <path fill="#000" d="M192.1 106.8a1 1 0 1 0 0-1.9 1 1 0 0 0 0 2Z"/>
      <path fill="#000" d="M186.1 108.4a1 1 0 1 0 0-2 1 1 0 0 0 0 2Z"/>
      <path fill="#000" d="M181.8 112.8a1 1 0 1 0 0-2 1 1 0 0 0 0 2Z"/>
      <path stroke="#000" stroke-linecap="round" stroke-linejoin="round" stroke-miterlimit="10" stroke-width="1.3" d="M180.4 117.8h8.2"/>
      <path fill="#000" d="M180.2 118.8a1 1 0 1 0 0-2 1 1 0 0 0 0 2Z"/>
      <path fill="#000" d="M181.8 124.8a1 1 0 1 0 0-2 1 1 0 0 0 0 2Z"/>
      <path fill="#000" d="M186.1 129.2a1 1 0 1 0 0-2 1 1 0 0 0 0 2Z"/>
      <path stroke="#000" stroke-linecap="round" stroke-linejoin="round" stroke-miterlimit="10" stroke-width="1.3" d="M192.1 121.3v8.3"/>
      <path fill="#000" d="M192.1 130.8a1 1 0 1 0 0-2 1 1 0 0 0 0 2Z"/>
      <path stroke="#000" stroke-linecap="round" stroke-linejoin="round" stroke-miterlimit="10" stroke-width="1.3" d="M198 128 194 121"/>
      <path fill="#000" d="M198.1 129.2a1 1 0 1 0 0-2 1 1 0 0 0 0 2Z"/>
      <path fill="#000" d="M202.5 124.8a1 1 0 1 0 0-2 1 1 0 0 0 0 2Z"/>
      <path stroke="#000" stroke-linecap="round" stroke-linejoin="round" stroke-miterlimit="10" stroke-width="1.3" d="M203.9 117.8h-8.3"/>
      <path fill="#000" d="M204.1 118.8a1 1 0 1 0 0-2 1 1 0 0 0 0 2Z"/>
      <path fill="#000" d="M202.5 112.8a1 1 0 1 0 0-2 1 1 0 0 0 0 2Z"/>
      <path fill="#000" d="M198.1 108.4a1 1 0 1 0 0-2 1 1 0 0 0 0 2ZM325.3 190.6a.7.7 0 1 0 0-1.5.7.7 0 0 0 0 1.5ZM314.3 196.2a.7.7 0 1 0 0-1.5.7.7 0 0 0 0 1.5ZM323.7 196.3a.8.8 0 1 0 0-1.7.8.8 0 0 0 0 1.7ZM319 201.7a.6.6 0 1 0 0-1.2.6.6 0 0 0 0 1.2ZM326 201.9a.4.4 0 1 0 0-.8.4.4 0 0 0 0 .8ZM88 134.4a.7.7 0 1 0 0-1.5.7.7 0 0 0 0 1.5ZM91.3 146.3a.7.7 0 1 0 0-1.5.7.7 0 0 0 0 1.5ZM93.2 137.1a.8.8 0 1 0 0-1.6.8.8 0 0 0 0 1.6ZM97.8 141.4c-.3 0-.6.3-.6.6s.3.6.6.6.5-.3.5-.6-.2-.6-.5-.6ZM99.5 135.6a.4.4 0 1 0 0-.8.4.4 0 0 0 0 .8ZM300.9 18.9a.7.7 0 1 0 0-1.5.7.7 0 0 0 0 1.5ZM311.7 25a.7.7 0 1 0 0-1.6.7.7 0 0 0 0 1.5ZM306.4 17.1a.8.8 0 1 0 0-1.6.8.8 0 0 0 0 1.6ZM313.3 16.7c-.2.2-.2.5 0 .8.2.2.6.2.8 0 .2-.2.2-.6 0-.8-.2-.3-.6-.3-.8 0ZM310.1 11.4a.4.4 0 1 0 0-.8.4.4 0 0 0 0 .8Z"/>
      <path stroke="#000" stroke-linecap="round" stroke-linejoin="round" stroke-miterlimit="10" stroke-width="1.3" d="M145 208.9c.8-.8 1.2-1.8.8-2.3-.4-.6-1.4-.7-2.5-.3 0-1.1-.5-2-1.2-2-.7-.1-1.4.6-1.7 1.7-1-.7-2-.8-2.4-.3-.5.4-.4 1.4.3 2.4-1.1.3-1.9 1-1.8 1.7 0 .6 1 1.1 2.1 1.2-.4 1.1-.4 2.1.2 2.5.6.3 1.5 0 2.3-.9.6 1 1.4 1.6 2 1.4.7-.3 1-1.2.8-2.4 1.1.2 2.1 0 2.4-.7.2-.7-.4-1.5-1.4-2ZM46 144l1.2 6.8 6.3-2.4M50 145.8l-2.8 5M113.4 99l6.4 4.9 3.6-7M118.3 97.4l1.5 6.5M257 184.3l-1.6-6.6-6.1 2.6M252.9 182.8l2.5-5"/>
      <path fill="#000" d="M3.2 116a5.7 5.7 0 0 0-3.2-2.8v1.2c1 .4 1.7 1.1 2.2 2 1.3 2.7 0 5.2-2.2 7.2v1.5c4.6-3.6 4.4-7 3.2-9.2Z"/>
      <path fill="#000" d="M2.3 107.3a.6.6 0 0 0-.8.2c-.3.8-1 2.3-1.5 3.9v3.5c.9-2.4 2-5.6 2.6-6.8.1-.3 0-.7-.3-.8ZM2.1 47.3c.4-.5.3-1.2 0-1.8L2 44.3c0-.4.1-.9.3-1.2.1-.7.3-1.3 0-1.9-.4-.5-1-.6-2.2-.6v1.1c1 0 1.2.2 1.2.2l-.2.9-.2 1.5c0 .6.1 1.2.3 1.6 0 .3.2.7.1.8 0 0-.1.2-1.2.2V48c1.1-.1 1.8-.3 2.1-.8ZM.2 176.2c0-.1.8-3-.2-5.8v6.1c.1 0 .2-.1.2-.3ZM2.8 168.3c2.5 0 4.6-1.1 4.7-1.2l.3-.4-.1-.4c-.1-.2-2.2-3-5.4-3.7-.8-.1-1.6-.2-2.3-.1v1.2h2.1c2 .5 3.4 1.9 4.2 2.7-1 .4-3 1-5 .5-.4 0-.9-.2-1.3-.4v1.3a6.2 6.2 0 0 0 2.8.5ZM1.9 160.5c2.6-2 3.2-5.5 3.2-5.6l-.1-.5a.7.7 0 0 0-.5-.2s-2.3-.1-4.5 1v1.2a9 9 0 0 1 3.7-1c-.3 1-1 2.9-2.6 4.2l-1.1.7v1.3c.6-.3 1.3-.6 1.9-1.1ZM3.8 71.2c0-.7-.5-1.2-1-1.5l-2-1-.8-.3v1.3l.3.1 2 1c.1 0 .3.3.3.5 0 .1 0 .4-.2.6l-2.4 2v1.6l3.2-2.7c.4-.4.7-1 .6-1.6Z"/>
    </g>
    <g clip-path="url(#c)">
      <path stroke="#000" stroke-linecap="round" stroke-linejoin="round" stroke-miterlimit="10" stroke-width="1.3" d="M572.2 82c2 1.6 4.4 2.7 7.1 3.3l1 .2c7.6 1.2 14.7-2.6 16-8.8l.2-1.3c0-1 0-1.8-.3-2.5-.7-1.8-2-3.2-4-4.3a38.9 38.9 0 0 0-15.6-4c-2 0-3.9.2-5.4 1-1.9.8-3.3 2.3-3.8 4.8-.2.8-.3 1.6-.2 2.3"/>
      <path stroke="#000" stroke-linecap="round" stroke-linejoin="round" stroke-miterlimit="10" stroke-width="1.3" d="M569.1 72.9c-2.5 0-5.5-.6-8.4-2.4-.9-.5-2 .2-1.7 1.2 1.5 8 15.1 14 21.5 8"/>
      <path stroke="#000" stroke-linecap="round" stroke-linejoin="round" stroke-miterlimit="10" stroke-width="1.3" d="M559 70.5a1.9 1.9 0 1 1 0-3.7 1.9 1.9 0 0 1 0 3.7ZM576.6 67c.7.1 1.3.5 1.8 1a3.8 3.8 0 0 1-1.3 6.2c-.7.3-1.4.3-2.1.2a3.8 3.8 0 0 1 1.6-7.4ZM571.2 65.6c-1.1-2.3 2.2-10.6 5.7-12.4 2.4-1.3 1.9 7-.3 11.5"/>
      <path stroke="#000" stroke-linecap="round" stroke-linejoin="round" stroke-miterlimit="10" stroke-width="1.3" d="M575.8 57.4s-2.7 2.3-1.2 4.2M482.5 150.8c.6 7.1-2 9-4.3 9.3a4.2 4.2 0 0 1-4.6-3.3c-.4-2.2.7-5.1 9-6Z"/>
      <path stroke="#000" stroke-linecap="round" stroke-linejoin="round" stroke-miterlimit="10" stroke-width="1.3" d="M472.2 163.5c1-1.7 5-7.2 5-7.2M449.5 174.5s-12 0-10.7-14.6c12 1.3 11 11.5 10.7 14.6ZM456.5 177.2s-6.6-4.4 0-12c6 5.1 1.4 10.4 0 12ZM450 182.8s-7.6 6.4-15.4-3.5c8.4-5.6 13.8 1.3 15.4 3.5ZM453 187c-.3 7.3-5.2 6.7-6.6 6.5 0 0-.3-7.3 6.6-6.6Z"/>
      <path stroke="#000" stroke-linecap="round" stroke-linejoin="round" stroke-miterlimit="10" stroke-width="1.3" d="M443.8 166.8c3.2 5 11.1 15.5 21 17.3"/>
      <path stroke="#000" stroke-linecap="round" stroke-linejoin="round" stroke-miterlimit="10" stroke-width="1.3" d="M441.3 181.2c3.4 1 12 3.2 17.2.6M456.9 170.6c.1 2.4 0 6.3-1.7 9"/>
      <path stroke="#000" stroke-linecap="round" stroke-linejoin="round" stroke-miterlimit="10" stroke-width="1.3" d="M449.4 190.5s5.3-3 4.7-7.6M522.5 78.1l2.7 2.6 3.7-.8-1.7 3.4 2 3.3-3.8-.5-2.5 2.8-.7-3.7-3.4-1.5 3.3-1.8.4-3.8ZM540 64.2l2-2.1.4 2.8 2.6 1.3-2.5 1.3-.4 2.9-2-2-2.9.5 1.3-2.6-1.4-2.5 2.9.4ZM513 60.2l1.6-3.7 2 3.5 4 .3-2.7 3 1 3.9-3.7-1.6-3.4 2 .4-4-3-2.5 3.9-.9ZM370.3 39.6s8.5-1.4 11.1 5.4c2.7 7-6.4 7.6-6.4 7.6s-1.4 8.6-7.6 6c-6.2-2.7-5.2-9.7-5.2-9.7s1.4-8.9-1-11c2.7 2 9.1 1.7 9.1 1.7ZM363.2 39.7 374 51.9"/>
      <path stroke="#000" stroke-linecap="round" stroke-linejoin="round" stroke-miterlimit="10" stroke-width="1.3" d="m363 51.6 11.6.7-.1-11.8"/>
      <path stroke="#000" stroke-linecap="round" stroke-linejoin="round" stroke-miterlimit="10" stroke-width="1.3" d="m363.1 46.4 6.3.2v-6.3M366.4 57.8l8.2-5.5 6.1-7.8M383.2 56.3s-4.8 1.7-8.2-3.7M468.4 220.1c4 2.7 4.2 9.6-1.7 18.4-6 8.9-15.8 16.4-19.8 13.7-4-2.6-.8-14.6 5.2-23.5 6-8.8 12.3-11.3 16.3-8.6Z"/>
      <path stroke="#000" stroke-linecap="round" stroke-linejoin="round" stroke-miterlimit="10" stroke-width="1.3" d="m454.8 225.2 2.7.2s0 0 0 0h0l6 .4h.1s0 0 0 0l6.4.5s0 0 0 0h1.4"/>
      <path stroke="#000" stroke-linecap="round" stroke-linejoin="round" stroke-miterlimit="10" stroke-width="1.3" d="M467.1 238v-.1 0c-.5-1.9-1-3.8-1.7-5.8 0 0 0 0 0 0v-.2l-1.8-6v-.1l-1.8-6M462.8 243.6s0 0 0 0v-.1l-1.7-6v0-.2l-1.7-5.7v0-.1l-1.8-6v0l-.7-2.5"/>
      <path fill="#000" d="M466 223.4a.8.8 0 1 1 0-1.6.8.8 0 0 1 0 1.6Z"/>
      <path stroke="#000" stroke-linecap="round" stroke-linejoin="round" stroke-miterlimit="10" stroke-width="1.3" d="m474.1 216-4 5.7-.6-.6a5 5 0 0 0-2.6-1.7l-.9-.3 4.1-5.9 4 2.8ZM587 51.3S580.4 16 544.5 15M575.4 12.8c2.7 4.7 1 8.8-.5 9.7-1.4.9-3.2.6-4.2-.7-1-1.4-.7-5.7 4.7-9Z"/>
      <path stroke="#000" stroke-linecap="round" stroke-linejoin="round" stroke-miterlimit="10" stroke-width="1.3" d="M566.5 16.7a3.2 3.2 0 0 1-4.2.2c-1.4-1-2-5.4 2.6-9.8 3.7 4 2.9 8.4 1.6 9.6ZM555.7 12.7c-.8 1.4-2.6 2-4 1.3-1.7-.7-3.4-4.7-.1-10.1 4.6 2.9 5 7.3 4 8.8ZM579.3 39.2c1.6.3 2.7 1.9 2.5 3.5-.2 1.7-3.1 5-8.6 4.7.7-6.3 4.4-8.5 6.1-8.2ZM573.5 30.3c1.6.4 2.7 2 2.5 3.6-.2 1.7-3.1 5-8.6 4.6.7-6.3 4.4-8.5 6.1-8.2ZM566.5 24c1.6.1 2.9 1.6 2.8 3.2 0 1.7-2.6 5.3-8 5.4 0-6.3 3.5-8.9 5.2-8.7ZM558.8 18.5c1.6.5 2.5 2.1 2.2 3.6-.3 1.8-3.5 4.9-9 4 1.2-6.2 5.1-8 6.8-7.6ZM547.6 13.3c1 1.2.9 3-.2 4.3-1.3 1.2-5.6 2-9.6-1.8 4.4-4.5 8.7-3.9 9.8-2.5ZM552.7 11l.2 5M558 21.7l4.2-2.6M564.5 13.5l-1.2 5.8M573.7 18.4l-2.3 5.8M565.6 27.7l4-3.8M572 34.7l5-3.6M527 211a19 19 0 0 1-33.3 7.7M485.8 178.4c-1.5 2.7-2 6-1.3 9.2l2 8.7M514.5 170.3a12.7 12.7 0 0 0-8.3-.9l-12.1 2.8c-2.3.6-4.3 1.7-5.9 3.1M523.5 187.7l-2-8.7c-.6-2.7-2-5-4-6.7M502.3 182c7.6-7.3 13.7-6.2 15.2.2 1.5 6.3-3.6 13-11.3 14.7-7.8 1.8-15.2-2-16.7-8.3-1.4-6.3 2-10 12.8-6.6Z"/>
      <path fill="#000" d="M496 185.2c.6-.1 1.4.7 1.7 1.9.3 1.1 0 2.2-.7 2.4-.7.1-1.5-.7-1.8-1.8-.3-1.2 0-2.3.8-2.5ZM509 182.2c.7-.2 1.5.6 1.8 1.8.3 1.2 0 2.2-.7 2.4-.7.2-1.5-.7-1.8-1.8-.2-1.2 0-2.3.8-2.4Z"/>
      <path stroke="#000" stroke-linecap="round" stroke-linejoin="round" stroke-miterlimit="10" stroke-width="1.3" d="m505.1 193.4-3.7-4.7 5.1-1.2-1.4 5.9ZM489.4 174.4c-3.4 0-10.3-.4-12.5-4.4-3-5.4-1.6 4.1 1 4.8-1.6 1.2-5.7-1.6-4.6.6 1 2.2 4.8 1.5 4.8 1.5s-6.2 4.1-3.5 4.9c1.9.5 6.1-.2 10.1-.7M518.5 173.3a35 35 0 0 0 9.3-4c2.2-2-5-2.8-5-2.8s3.7-1 3.7-3.4c0-2.5-2.5 1.8-4.5 1.5 2-1.8-.9-11-1.2-4.8-.2 4.7-6.3 8.1-9.4 9.5M491.5 200.3s7.5 6.2 1 21.7c-12.6-11-5.5-26.8-5.5-26.8M520.9 193.5s-4 8.9 8.6 20c6.5-15.5-6.8-26.6-6.8-26.6"/>
      <path stroke="#000" stroke-linecap="round" stroke-linejoin="round" stroke-miterlimit="10" stroke-width="1.3" d="M492.7 207s-.6 2-2.2.5M489.4 203.7s-.6 2-2.2.5M490.4 210.9s-.6 2-2.2.5M492.5 214.2s-.6 2-2.2.5M524.6 198.8s-.4 2.1-2.1.8M526.6 194.4s-.3 2.1-2 .8M528.4 201.1s-.3 2.1-2 .8M528.2 205.6s-.4 2-2.1.7M504.3 225.6l2.4 4.5M501.5 231.5l2.8-6M498.5 228.6c.8-.3 5.8-3 5.8-3M520.3 221.8l-.2 5.6M525.5 226l-5.2-4.2M526.9 222c-.9.1-6.6-.2-6.6-.2"/>
      <path stroke="#000" stroke-linecap="round" stroke-linejoin="round" stroke-miterlimit="10" stroke-width="1.3" d="m504.6 225.4-18 4.1 1.5 6.4 33.3-7.6c4.4-1 9-.9 13.3.4l9.3 2.9a3.3 3.3 0 1 0 2-6.3l-5.3-1.6c-2.3-.7-3-3.6-1.2-5.2l6.5-6a3.3 3.3 0 1 0-4.5-4.8l-8.2 7.6a26 26 0 0 1-11.7 6.2l-1.2.3h0-.4M516 210.7a15 15 0 0 1-12.9 3M514 207c-3.1 2-6.6 2.9-10.7 2.3M511.5 202.4c-2.4 1.3-5 2-8 2M518 214.4c-4.1 3.6-9 5-15 3.4M427.9 117.3c-1.4-1.5-4-2-7-.1l-3.6 1.9c-5.9 2.8-10 2.9-12.9 1.9a9.2 9.2 0 0 1-2.5-6 22 22 0 0 1 2.8-11.5l1.8-2.9a22 22 0 0 1 6-5.8 15 15 0 0 1 16-.6 23.4 23.4 0 0 1 8 7.1c1.9 2.5 3.2 5.2 4 7.9l.4 2.8c.5 6.9-4.5 10-11.7 11.4"/>
      <path stroke="#000" stroke-linecap="round" stroke-linejoin="round" stroke-miterlimit="10" stroke-width="1.3" d="M404.7 103.5c-.8-.2-1.5-.6-2.1-1.1-2.5-2.1-2.6-6-.2-8.8 2.3-2.7 6.2-3.2 8.7-1.1.7.6 1.2 1.4 1.5 2.2"/>
      <path stroke="#000" stroke-linecap="round" stroke-linejoin="round" stroke-miterlimit="10" stroke-width="1.3" d="M406.5 100.6c-.7 0-1.4-.1-2-.6-1.2-1.1-1.3-3.1 0-4.6 1.2-1.4 3.2-1.6 4.5-.5.5.4.9 1.1 1 1.9M428.4 94.2c0-1.2.5-2.2 1.3-3.1 2-2.5 6-2.5 8.7-.1 2.7 2.3 3.2 6.2 1.1 8.6-.8 1-1.8 1.5-3 1.8"/>
      <path stroke="#000" stroke-linecap="round" stroke-linejoin="round" stroke-miterlimit="10" stroke-width="1.3" d="M431.6 96.3a3 3 0 0 1 .4-3.2c1.1-1.3 3.1-1.3 4.6 0 1.4 1.2 1.6 3.2.5 4.4a3 3 0 0 1-3.2.9M424.8 110.7c2.6.5 4.3 2 4.5 3.7 0 1-.5 2-1.4 2.9M417.3 119c-2-.6-3.5-2-3.6-3.5-.1-1.8 1.7-3.6 4.5-4.5"/>
      <path stroke="#000" stroke-linecap="round" stroke-linejoin="round" stroke-miterlimit="10" stroke-width="1.3" d="M421.3 108.6c1.9-.1 3.5.6 3.5 1.6.1 1-1.3 2-3.2 2-1.9.2-3.4-.5-3.5-1.5 0-1 1.4-2 3.2-2ZM421.4 113.5l.2 2.8M415.8 108s-1.9 3.4-4.2 0M431.3 107s-1.8 3.3-4.2 0"/>
      <path stroke="#000" stroke-linecap="round" stroke-linejoin="round" stroke-miterlimit="10" stroke-width="1.3" d="M406.8 132.4c-16.8 7.1-31.4 10.3-37.5-3.9-6-14.3 2.9-31.8 20-39.1 12.5-5.3 26-3.7 34.7 3.1"/>
      <path stroke="#000" stroke-linecap="round" stroke-linejoin="round" stroke-miterlimit="10" stroke-width="1.3" d="M404.4 121c2.9 1 7 .8 13-2l3.5-1.9c3-1.8 5.6-1.3 7 .2 1.3 1.4 2.5 4.2 1 6.6-1 1.9-3.1 3.7-6.4 5a48.8 48.8 0 0 1-15.7 3.4c-6.3.3-10.5-2.1-13.3-7"/>
      <path stroke="#000" stroke-linecap="round" stroke-linejoin="round" stroke-miterlimit="10" stroke-width="1.3" d="M440.4 109.2s7 .9 4.8 7.7c-1.4 4.6-13.7 7.8-17.5 8.7M391.4 128.3l3.8-.5M370.6 131c-1.5 1.6-2 4-1 6a5.7 5.7 0 0 0 7.3 3c1.1-.4 2-1.2 2.6-2.1M378.1 103.7l.9 1.9M372.1 112l.9 2M383.5 98.6l.8 1.9M387.2 92l.8 2M384.3 116.8l.8 2M379.7 112l.8 2M382.8 124.7l.9 2M378.2 131.3l.9 2M397 103.5l.8 2M374.8 122l.9 1.8M387.3 107.7l.9 1.9M396 111.7l.9 2M391.6 96.7l.9 2M397.3 90.3l.9 2M412.4 89l.8 2M445.4 73.3s-64.7-11.9-98 33.9"/>
      <path stroke="#000" stroke-linecap="round" stroke-linejoin="round" stroke-miterlimit="10" stroke-width="1.3" d="m434 71.3 3-12.7c.3-.8-.9-1.3-1.3-.6L429 68.6c-.3.5-1.1.4-1.4-.2L425 62c-.2-.7-1.2-.7-1.4 0l-2.3 6.5c-.2.6-1 .6-1.4 0L412.3 55c-.4-.7-1.5-.4-1.5.4l1.4 15.4c0 .6-.6 1-1.1.7l-5.9-3.2a.8.8 0 0 0-1 .2l-1.7 5.7M382.6 79.5l-10.4-13.9c-.5-.6-1.6-.2-1.4.6l3 14c.2.8-.8 1.3-1.3.8l-4.6-4.8c-.4-.4-1.2-.2-1.3.4l-1.5 8.6c-.1.7-1 1-1.4.4l-10-13.1c-.6-.7-1.8 0-1.4.8l7.4 17.3c.2.6-.3 1.2-.9 1.1l-5.5-1.2c-.7-.1-1.2.6-.8 1.2L356 97M438.5 79s-19.2-4.7-37.6 2M368.2 96.1s-11.8 8.3-14.3 16.2M463 69.7l-5.3-3 2.1 8.7-5.3-3M458 83l-5.6-.1 5.4 6.1h-5.6M452.4 97.9l-2.8-3.3-1 6.3-2.6-3.4M424.8 133.3s-5.7 6.7-16.8 5.3c-8.4-1-14 3.4-16 5.7M424 140.6c-2.8 1.3-6.2 3.2-11.2 2.6-5.5-.7-9.9 1-12.7 2.9M574.8-11c2.5.5 6.8 3.4 8.7 5.3 2.4 2.4-.1 2.2-1.5 3.6s-1.2 3.8-3.6 1.4a23.6 23.6 0 0 1-5.2-8.5c.6-.5 1.2-1 1.6-1.8ZM570.1-8.3c.5 0 1 0 1.5-.2 1.4 2 2.3 7.1 2.3 9.7 0 3.4-1.6 1.6-3.5 1.6-2 0-3.6 1.8-3.6-1.6 0-2.6 1-7.5 2.3-9.6l1 .1ZM569.2-.1l.5-4.2M565.4-10.8c.5.7 1.2 1.4 2 1.8-.5 2.4-3.3 6.5-5.1 8.4-2.4 2.4-2.2 0-3.6-1.5-1.4-1.4-3.9-1.2-1.5-3.6 1.8-1.8 5.7-4.5 8.2-5.1ZM342.8 144.2c5 .9 10.7 5.9 10.7 5.9l1.5 4s3.9 12.1-6.3 7.7c-4.3-2-.1-4.8 2.8-9.2a19.1 19.1 0 0 1-5.2 3c-2.2.8-4.8-.2-6-2.4-.7-1.5-1.4-3.5-1.5-5.6a3.4 3.4 0 0 1 4-3.4Z"/>
      <path stroke="#000" stroke-linecap="round" stroke-linejoin="round" stroke-miterlimit="10" stroke-width="1.3" d="M346.2 151.6a1.3 1.3 0 1 1 0-2.7 1.3 1.3 0 0 1 0 2.7ZM351.9 159a1.2 1.2 0 1 1 0-2.5 1.2 1.2 0 0 1 0 2.4ZM363.5 138.6c1.3 1.7 2 3.7 2.4 5.4.6 2.4-.8 4.8-3 5.6a19 19 0 0 1-6 1c5.1 1.5 10.2 1 8.1 5.3-4.9 9.9-9.7-1.9-9.7-1.9l-1.5-4s1.2-7.5 4.4-11.5c1.4-1.7 4-1.6 5.3.1Z"/>
      <path stroke="#000" stroke-linecap="round" stroke-linejoin="round" stroke-miterlimit="10" stroke-width="1.3" d="M359.6 146.7a1.3 1.3 0 1 1 0-2.6 1.3 1.3 0 0 1 0 2.6ZM360 156a1.2 1.2 0 1 1 0-2.4 1.2 1.2 0 0 1 0 2.4ZM353.1 146s-6-13.9-.4-14.9c3.6-.6 2.8 3.6 2.8 3.6M351.2 146.5s-4.7-14.3-9.5-11.4c-3 2 .4 4.6.4 4.6"/>
      <path fill="#000" d="m339.7 252.3 11.2-2.2-13.8-73.3-5.1 1v-1.2l5.4-1h.5l.2.4 14 74.5c.1.3 0 .6-.4.7l-12.4 2.3h-.5a.7.7 0 0 1-.2-.5l-6.6-35v-6.4l7.7 40.7Z"/>
      <path fill="#000" d="m334.4 183.4 4.4-.8c.3 0 .6.1.6.5 0 .3-.1.6-.4.6l-4.3.9h-.2a.6.6 0 0 1-.6-.5c0-.3.2-.6.5-.7ZM334 195.3c.2 0 .5.1.6.4 0 .4-.2.7-.5.7l-2.1.4v-1.2l2-.3ZM338 206.5l4.4-.8c.3 0 .6.2.7.5 0 .3-.2.6-.5.7l-4.3.8h-.2a.6.6 0 0 1-.5-.4c0-.4 0-.7.4-.8ZM334.5 222.2l4.3-.8c.4-.1.7.1.7.4 0 .4-.1.7-.4.7l-4.4.8h-.1a.6.6 0 0 1-.6-.4c0-.3.2-.7.5-.7ZM374.6 225.3l1.3-1.1.1-.2c.3-.2.6-.2.9 0 .1.2.2.5 0 .7v.2l-1.6 1.4-.4.1c-.2 0-.3 0-.5-.2-.1-.3 0-.7.2-.9ZM362.2 197.7c.3.1.4.5.3.8-1.2 2.1-6.8 13.4-3.5 21 1.3 3.3 4.1 5.6 8.2 6.8 1.4.4 2.7.6 4 .4l1.7-.5c.3-.1.7 0 .8.3.1.3 0 .7-.3.8a8.7 8.7 0 0 1-3.3.6c-1 0-2.1-.2-3.2-.5-4.5-1.3-7.5-3.8-9-7.4-3.4-8 1.8-19 3.5-22.1.2-.3.6-.4.8-.2Z"/>
      <path fill="#000" d="M368.3 200.3c.3.1.4.5.3.8-.7 1.5-4 9.1-1.6 15.3a13 13 0 0 0 9.6 7.5c3.2.6 6.7 0 10.6-1.4-3.3-2.1-3.9-3-5.5-7.5l-.5-1.4c-1.7-4.8-3.7-10.7-9.5-12h-.4a.6.6 0 0 1-.4-.8c0-.3.4-.5.7-.4h.3c6.4 1.5 8.7 8 10.4 12.8l.5 1.5c1.7 4.7 2 4.9 6 7.4.2 0 .3.3.2.5 0 .2-.1.4-.3.5a23.7 23.7 0 0 1-9.4 2.2 15.8 15.8 0 0 1-3.2-.3c-6-1.2-9.3-5.7-10.3-8.2-2.5-6.4.6-14 1.6-16.2.2-.3.5-.5.9-.3Z"/>
      <path fill="#000" d="M371 226.7c.3-.1.7 0 .8.3l9.5 19 1-2.8.3-.3h.5l3.5 1.5.2-3.3.2-.4.5-.2 2.4.3L376 225a.6.6 0 0 1 0-.9c.2-.2.5-.2.8 0v.1l15 17c.1.2.2.5 0 .7 0 .2-.3.4-.5.3l-3.3-.3-.3 3.5c0 .2-.1.4-.3.5h-.5l-3.7-1.6-1.3 3.4c0 .2-.3.3-.5.4a.6.6 0 0 1-.6-.4l-10-20c-.2-.4 0-.7.2-.9ZM366.7 179.5c4.5 0 10.5 2.7 13 5.5 2 2.3 4 1.4 4.7.9.2-.2.4-.2.6 0 .2.1.3.4.3.6-.2 1.1-.8 2-1.6 2.4-.7.4-1.5.6-2.2.6.8.7 1.7 1.2 2.2.9.3-.2.6-.2.8 0 .2.3.2.6 0 .8-.9 1-2 1.5-3 1.5-2 0-4-1.4-5.1-2.2-2.7-1.8-9.7-3.6-10.5-3.8-1-.3-2-.7-2.6-1.3-1-.8-1.5-1.6-1.5-2.5 0-.8.3-1.5 1-2.2.7-.9 2-1.3 4-1.2Zm-2.7 5c.6.5 1.3.9 2.2 1 .8.3 8 2.1 10.8 4 2.3 1.6 4 2.2 5.2 2-1.4-.7-2.5-2.1-2.7-2.3-.1-.2-.2-.5 0-.7.1-.2.4-.3.6-.3 0 0 1.7.5 3-.2l.4-.4c-1.2.3-3 .2-4.7-1.7-2.3-2.7-8-5.1-12.1-5.2-1.5 0-2.6.3-3.2.8a2 2 0 0 0-.6 1.4c0 .6.6 1.2 1.1 1.6Z"/>
      <path fill="#000" d="M364.9 182.7c.2 0 4.4-.8 7.3 1.4.3.2.3.5.1.8 0 .2-.3.2-.4.2h-.4c-2.5-2-6.4-1.3-6.4-1.3a.6.6 0 0 1-.7-.4c0-.3.2-.6.5-.7ZM358.5 188.1c1-1.7 2.7-3 5-3.7.3-.1.6 0 .7.4.1.3 0 .6-.4.7-2 .6-3.5 1.7-4.3 3.2-.1.3-.4.7-.4 1.1-.5 1.4-.3 3 .4 4.5a9.8 9.8 0 0 0 2.9 3.4c1.2 1 2.7 1.8 4.2 2.2l1.5.4c1.2.2 2.4.3 3.7.1 3.4-.3 6-2.1 6.8-4.7.3-1.3.3-2.7-.2-4-.2-.3 0-.6.3-.8.3 0 .6 0 .8.4.6 1.6.7 3.1.2 4.7-.9 3-3.8 5.2-7.8 5.6h-1.4a14.2 14.2 0 0 1-8.8-3 11 11 0 0 1-3.2-3.8c-.9-1.8-1-3.7-.6-5.3.1-.5.3-1 .6-1.4Z"/>
      <path fill="#000" d="m344 190.3 14.9-2.5c.3 0 .6.2.7.5 0 .4-.2.7-.5.7l-12 2 12 3c.3 0 .5.4.4.7 0 .2-.3.4-.6.4h-.1l-14.8-3.7c-.3 0-.5-.3-.5-.6s.2-.5.5-.5ZM362.8 187.6c.4-.2.8-.4 1.3-.4a3.6 3.6 0 0 1 .8 7.2h-.4c-.8 0-1.6-.3-2.3-.8a3.6 3.6 0 0 1-1.3-2.4c-.2-1.5.6-2.9 1.9-3.6Zm-.7 3.5c0 .6.4 1.2 1 1.6.4.4 1 .5 1.7.5a2.5 2.5 0 0 0 2.1-2.7 2.4 2.4 0 0 0-2.4-2.2h-.2c-.4 0-.7.2-1 .3-.8.5-1.3 1.4-1.2 2.5Z"/>
      <path fill="#000" d="M362.7 187.6h.7c.8.7 1.3 1.6 1.4 2.5.2 1.4-.5 2.8-1.8 3.6h-.3a1 1 0 0 1-.4 0 3.7 3.7 0 0 1 .4-6Zm-.6 3.5c0 .5.3 1 .6 1.3.7-.5 1-1.3.9-2.2 0-.5-.3-1-.6-1.3-.7.5-1 1.3-.9 2.2ZM372 206.8c2.5 1.4 3 1 3 1 .2-.2 0-1.2-.3-2.2-.1-.3 0-.6.3-.8.3 0 .6 0 .7.4.4.7 1 2.6 0 3.5-.2.2-.6.4-1 .4-.8 0-1.9-.4-3.2-1.2-.3-.2-.4-.6-.3-.8.2-.4.6-.5.8-.3ZM368.2 213.3c2.5 1.4 3 1 3 1 .2-.3 0-1.3-.3-2.2-.2-.3 0-.7.3-.8.3-.1.6 0 .7.3.4.8 1 2.7 0 3.5-.2.3-.6.4-1 .4-.8 0-1.9-.4-3.3-1.2-.2-.2-.3-.5-.2-.8.2-.3.5-.4.8-.2ZM375 215.3c2.5 1.4 3 1 3 1 .2-.2.1-1.2-.3-2.2-.1-.3 0-.6.3-.8.3 0 .7 0 .8.4.3.7 1 2.6 0 3.5-.3.2-.6.4-1 .4-.9 0-2-.4-3.3-1.2-.3-.2-.4-.6-.2-.8.1-.4.5-.5.8-.3ZM354 190.3l1.6-.1c.4 0 .7.2.7.5s-.2.6-.5.6l-1.6.2a.6.6 0 0 1-.7-.5c0-.3.2-.6.6-.7ZM343.7 222.5l3.2 2.2 12.2-3.3c.3-.1.6 0 .7.4.1.3 0 .6-.4.7L347 226h-.5l-3.4-2.5c-.3-.1-.3-.5-.2-.8.2-.3.6-.4.8-.1Z"/>
      <path fill="#000" d="m343.7 225.6 3-.8c.2-.1.5 0 .6.2.2.1.2.4 0 .6l-2 3.4c0 .2-.3.3-.5.3l-.3-.1c-.2-.2-.3-.5-.2-.8l1.3-2.1-1.6.4a.6.6 0 0 1-.8-.4c0-.3.1-.7.5-.7ZM343 214l2.8 2.8 11.6-1a.6.6 0 0 1 .2 1.2l-12 1c-.2 0-.3 0-.4-.2l-3-2.9a.6.6 0 0 1 0-.8c.2-.3.6-.3.8 0Z"/>
      <path fill="#000" d="m342.4 217 3.1-.2c.3 0 .5.2.6.4l-.1.6-2.6 3-.4.1-.4-.1a.6.6 0 0 1 0-.8l1.6-1.9-1.7.2c-.3 0-.6-.2-.6-.6 0-.3.2-.6.5-.6Z"/>
      <path stroke="#000" stroke-linecap="round" stroke-linejoin="round" stroke-miterlimit="10" stroke-width="1.3" d="M575.4 193.6a4.4 4.4 0 1 1 0-8.7 4.4 4.4 0 0 1 0 8.7ZM549.4 184a2.5 2.5 0 0 1 0 5 2.5 2.5 0 0 1-2.4-2.5c0-1.4 1-2.5 2.4-2.5ZM349.3 170.8c1.4 0 2.5 1 2.5 2.5 0 1.3-1.1 2.4-2.5 2.4a2.5 2.5 0 1 1 0-5ZM565.3 176.9a3.2 3.2 0 0 1 0 6.4 3.2 3.2 0 0 1 0-6.4ZM342 119.8a3.2 3.2 0 0 1 0 6.4 3.2 3.2 0 0 1 0-6.4ZM354 15.5c2 0 3.5 1.5 3.5 3.4 0 2-1.6 3.5-3.5 3.5s-3.4-1.6-3.4-3.5 1.5-3.4 3.4-3.4ZM361 4.4c1.3-.3 2.6.5 3 1.8.3 1.4-.6 2.7-1.9 3-1.3.3-2.6-.5-3-1.9-.3-1.3.6-2.6 1.9-3ZM370.4 20.8a2 2 0 1 1 0-3.8 2 2 0 0 1 0 3.8ZM458.1 146.2a3 3 0 0 1 3.1 3 3 3 0 0 1-3 3.2 3 3 0 0 1-3.1-3.1 3 3 0 0 1 3-3ZM447.2 154.5a1.8 1.8 0 1 1 0-3.6 1.8 1.8 0 0 1 0 3.6ZM458 198.6a2 2 0 0 1 2 2 2 2 0 0 1-2 2 2 2 0 0 1-2-2c0-1 .8-2 2-2ZM454 207.6a1.4 1.4 0 1 1 0-2.8 1.4 1.4 0 0 1 0 2.8ZM465.6 202.6a1.4 1.4 0 1 1 0-2.9 1.4 1.4 0 0 1 0 2.9Z"/>
      <path stroke="#000" stroke-linecap="round" stroke-linejoin="round" stroke-miterlimit="10" stroke-width="1.3" d="M458.6 202.5s1.7 2.8 3 7.4M460.6 206.9l4-4.5"/>
      <path stroke="#000" stroke-linecap="round" stroke-linejoin="round" stroke-miterlimit="10" stroke-width="1.3" d="M460.6 206.8s-2.4-1.4-5.1-.7M571.7 114.3c2-1.4 5-2.8 7.1-2.7 1.4.1-2.6 4.3-1.5 5 .5.5 5.4-2 5.8-1.5.6.9-3.7 4.4-3.6 5.4.1 1 5.5-1.3 5.3-.4-.5 2-2.5 4.7-4.5 6.1-3.9 2.8-9 2.4-11.3-1-2.4-3.2-1.2-8.1 2.7-11Z"/>
      <path stroke="#000" stroke-linecap="round" stroke-linejoin="round" stroke-miterlimit="10" stroke-width="1.3" d="M551.3 127s7.6 3.6 17.1-2.7"/>
      <path stroke="#000" stroke-linecap="round" stroke-linejoin="round" stroke-miterlimit="10" stroke-width="1.3" d="M560.6 114.6s.3 5.5-1.2 9c-1.6 3.5-3.1 4.3-4.4 3.7-1.2-.5-1.7-2.2-.1-5.7 1.5-3.5 5.8-7 5.8-7ZM562.4 130c3 2.3 5.4 7.3 5.4 7.3s-5.4-1-8.4-3.3c-3-2.4-3.4-4-2.6-5.1.8-1.1 2.5-1.2 5.6 1.1ZM577.2 122.7s-1.4 1.6-3 1.6M574 118.3s-2 .8-2.4 2.3M414.4 40c4 1.9 3 6.4 4 7.9-1.7 0-4.7 3.7-8.7 1.8-4-2-8.4-4.6-6.3-9 2.2-4.5 7-2.7 11-.7Z"/>
      <path stroke="#000" stroke-linecap="round" stroke-linejoin="round" stroke-miterlimit="10" stroke-width="1.3" d="M412.2 38.9a18.4 18.4 0 0 0-4.8 9.6M403.4 40.6l-2.5.1c-.9 0-1.7.5-2.2 1.3l-.9 1.3c-.2.4 0 .8.3 1l1 .6c.4.2 1 0 1-.5l.1-.6c.1-.9.8-1.6 1.6-1.9l1.3-.4M413.8 42.5s1.2.7 1.3 1.9M563.3 206.7c5.2-3.2 9 2 11.8 6.6 2.8 4.7-1.3 8.6-1.3 10.8-1.7-1-7.2.8-10-3.8-2.9-4.7-5.7-10.4-.5-13.6Z"/>
      <path stroke="#000" stroke-linecap="round" stroke-linejoin="round" stroke-miterlimit="10" stroke-width="1.3" d="M573.4 210.7c-4.4 1.1-8.2 3.4-11.3 6.7M563.3 206.7l-2.7-1.6c-1-.6-2-.6-3-.2l-1.9.8c-.4.3-.6.8-.4 1.2l.7 1.3c.3.6 1 .6 1.4.2l.4-.6a3 3 0 0 1 3-.8l1.5.4M572.8 215.5s.7 1.5 0 2.9M569.2 210s-2.1 0-4.5 2.5M537.5 144.6s-8.8-3.3-14.6 1.5c-5.7 4.7-1 6.1-1 6.1s6-.3 12.6 5.4a40.7 40.7 0 0 0 28.1 11.5c5.3-.1-4.8-7-7.4-10.7M523.4 145.6c-2.6-4.4-8.8-4.5-8.8-4.5"/>
      <path stroke="#000" stroke-linecap="round" stroke-linejoin="round" stroke-miterlimit="10" stroke-width="1.3" d="M527.6 143.6c-1.8-4.6-8.2-6.4-8.2-6.4M543.8 154a18.6 18.6 0 0 1-6.4-8.8s2.8-10.6 13.9-8.2a12.3 12.3 0 0 1 10.1 13c0 1.6-1.4 8.3-9.2 7.5-7.8-.8-5.3-9-3.6-10.2 2.5-1.8 5.7-.3 5.4 3.2-.4 3-3.4 2.2-4 .4"/>
      <path fill="#000" d="M527 146.5c.5.4.5 1.1.1 1.6s-1.2.5-1.6 0c-.5-.4-.5-1 0-1.6.4-.4 1.1-.5 1.5 0ZM530.4 145.7c.5.5.5 1.2 0 1.6-.4.5-1 .5-1.6.1-.4-.4-.4-1.2 0-1.6.4-.5 1.2-.5 1.6 0Z"/>
      <path stroke="#000" stroke-linecap="round" stroke-linejoin="round" stroke-miterlimit="10" stroke-width="1.3" d="M553.2 165c-6.9-.7-20.5-12-20.5-12M545 141.4l-1.6-2.2M549.3 140.1l-1.1-2M553.8 141l-1.1-1.9M346.6 37c2-.5 2.9 1.3 4.6 2.6 1.6 1.3-.6 4-2.6 4.6-2 .5-5-.6-4.6-2.6.5-2 .6-4 2.6-4.6ZM350.4 32.8c.6 0 1.2.7 1.2 1.7s-.5 1.8-1.2 1.8c-.6 0-1.1-.8-1.2-1.7 0-1 .5-1.8 1.2-1.8ZM340.7 35.4c.6-.3 1.5.1 2 1 .5.8.4 1.8-.2 2.1-.5.3-1.4 0-1.9-1-.5-.8-.4-1.7.1-2ZM344.9 32c.6-.2 1.3.3 1.6 1.3.3 1 0 1.8-.6 2-.6.2-1.3-.4-1.6-1.3-.3-1 0-1.8.6-2ZM507.4 19.2c2-1.2 3.5-2.9 5.5-1.8 2 1 1.5 3.2 1.8 5.5.4 2.2-3.4 2.9-5.5 1.9-2-1-3.8-4.3-1.8-5.6ZM519.2 16.7c.6.5.4 1.5-.3 2.3-.7.9-1.7 1.1-2.3.7-.5-.5-.3-1.6.4-2.4.7-.8 1.7-1 2.2-.6ZM509.2 11.7c.8.1 1.1 1.1.9 2.2-.2 1-1 1.8-1.7 1.7-.7-.2-1-1.1-.8-2.2.2-1.1 1-1.9 1.6-1.7ZM513.6 15.5c-.6-.3-.8-1.3-.4-2.3.5-1 1.4-1.6 2-1.3.7.3.9 1.4.4 2.4-.4 1-1.3 1.5-2 1.2ZM516 10.6l.7-1.5M509 10.1l-.1-1.5M520.5 15.8l1.2-1.3M496.7 69.9c-.1-2.7-2.2-5-5.3-5.7-4-1-7 1.7-7 1.7s-6.3-3.2-7-4.6c-.7-1.4-3.6 1.6.8 6 4.5 4.3 6.4 5 6.3 6.9-.1.8-2.5 4.5-9 6.8-6.4 2.3-10.4 10-4.6 17 6 7 25.1 14.7 29.8 10.8-1.2-1.8-2.4-2.5-2.4-2.5s7.8-.4 5.7-1.5c-2-1.1-10.1-1.5-12.5-4.6-2.4-3.2-8.2-12.5-4-18.7 4.1-6.2 7.3-5.3 8.8-9"/>
      <path stroke="#000" stroke-linecap="round" stroke-linejoin="round" stroke-miterlimit="10" stroke-width="1.3" d="M489.7 72.3a3 3 0 1 1 0-6 3 3 0 0 1 0 6ZM481 105.4l-3.2 6M468.2 106.8c.7-1 2.3-.4 2.4-1.3.2-2.1 8.6 5.7 7.5 7.6-1 1.9-11-2.4-10.2-3.2 1.4-1.3-.4-2 .3-3.1ZM494 105l4.3 1.2M484 85.7s-9.9 0-5.3 9c2.5 5 9.4 7 9.4 7M484 68.9s-.5-1.4.4-3M496.3 68.1c3.5 2 5.7-.8 5.7-.8s-.6 6.9-5.8 5.1"/>
      <path fill="#000" d="M489.7 68.5c.4 0 .8.4.8.8 0 .5-.4.9-.8.9a.8.8 0 0 1-.8-.9c0-.4.3-.8.8-.8Z"/>
      <path stroke="#000" stroke-linecap="round" stroke-linejoin="round" stroke-miterlimit="10" stroke-width="1.3" d="M481 90s-.8 4.9 3.4 6.6M471.9 107.7l-1.6-1.8M470.6 109.7l-2.2-.6M552.5 108.6l-6.7 1V103M549.5 105.3l-3.7 4.3M546 96.4l-6.8 1.1v-6.7M543 93.2l-3.8 4.3M562.8 98.4l-6.7 1.2v-6.7M559.8 95.3l-3.7 4.3M441.3 138.6l-5.7 5.7M435.6 138.6l5.7 5.7"/>
      <path stroke="#000" stroke-dasharray="4.7 4.7" stroke-linecap="round" stroke-linejoin="round" stroke-miterlimit="10" stroke-width="1.3" d="M430.9 189.5s-43.5 3.6-57.7-32.7"/>
      <path stroke="#000" stroke-linecap="round" stroke-linejoin="round" stroke-miterlimit="10" stroke-width="1.3" d="M491.8 121v8.1M499.8 124.7l-5.8 5.7M502.8 132.9h-8.1M499.1 140.9l-5.7-5.8M490.9 143.9v-8.2M483 140.2l5.7-5.8M480 132h8M483.6 124l5.8 5.8M536.2-7.2l2.3 1.5 3.4 2.1c1 .6 1 2 0 2.7L539.7.6 537.5 2c-1 .7-2.2.2-2.4-1l-.7-3.9-.5-2.7c-.3-1.3 1.2-2.3 2.3-1.6ZM345.4 59.1l1.4-1a1 1 0 0 1 1.5.5l.7 2.4.4 1.7c.2.8-.6 1.6-1.4 1.1l-1.5-.8-2.3-1.2a1 1 0 0 1-.1-1.6l1.3-1ZM333.5 67l.3-3.8c0-1 1.2-1.6 2.1-1l2.2 1 2.2 1.3c1 .5 1 1.8.2 2.4l-2.9 2.3-2 1.5c-1 .8-2.4 0-2.3-1.3l.2-2.5ZM410.5 152.7c5.6-5.3 19.3-4 19.3-4s.2 13.6-5.4 18.9c-5.7 5.2-11.7 2.3-14.4-.6-2.7-3-5.1-9 .5-14.3ZM425.4 152.7l-12.6 11.7M413.7 158.4l.5 4.7M417.5 154.8l.6 4.7M421.5 152.7l.4 3.3M419 164.2l-4.6-.9M423 160.6l-4.7-.9M425.3 156.8l-3.2-.6M402 151.3c4.5 3.4 3.2 8.1 1.4 10.5-1.7 2.4-6 5-10.5 1.6-4.6-3.4-5.5-13.6-5.5-13.6s10-2 14.5 1.5ZM391 152.5l10.2 7.6M396.7 160.3l3.3-1M393.5 158l3.4-1M391.5 155.3l2.3-.7M400.2 155.6v3.5M397 153.2v3.6M394 152v2.5"/>
      <path stroke="#000" stroke-linecap="round" stroke-linejoin="round" stroke-miterlimit="10" stroke-width="1.3" d="M404.9 177.8s3.9-6.2-2-15.4M410 167l-3.9 6.4M411.6 230.1c-2.3-1.3-3.3-3.9-2.2-5.8 1.1-1.9 3.8-2.3 6.1-1 .4.2.8-.1.8-.5 0-2.6 1.8-4.7 4-4.7s4 2.1 4 4.7c0 .4.4.7.7.5 2.3-1.3 5-.9 6.1 1 1 1.9.1 4.5-2.1 5.8-.4.2-.4.7 0 1 2.2 1.2 3.2 3.8 2.1 5.7-1 1.9-3.8 2.4-6 1-.4-.1-.9.1-.9.5 0 2.6-1.7 4.7-4 4.7-2.1 0-3.9-2.1-3.9-4.7 0-.4-.4-.6-.8-.4-2.3 1.3-5 .8-6-1.1-1.2-1.9-.2-4.5 2-5.8.4-.2.4-.7 0-.9Zm5.6 1.3.4.7.4.7c.1.7.8 1 1.5.9h.8c.2-.1.5 0 .8 0 .6.2 1.3-.2 1.5-.9 0-.3.1-.5.3-.7l.5-.7c.4-.5.4-1.2 0-1.7l-.5-.7c-.2-.2-.2-.5-.3-.7-.2-.7-.9-1-1.5-.9a3.7 3.7 0 0 1-1.6 0c-.7-.2-1.4.2-1.5.9l-.4.7-.4.7c-.5.5-.5 1.2 0 1.7ZM338.4 1.2h.5l-.2-.3c-.4-1.2 0-2.4.9-2.7.9-.3 2 .3 2.4 1.4l.1.5.3-.4c.7-1 2-1.2 2.7-.6.8.7.8 2 0 2.8a2 2 0 0 1-.3.4h.5c1.2.2 2 1.2 1.8 2.2-.1 1-1.2 1.6-2.4 1.4a3 3 0 0 1-.5-.1l.3.4c.4 1.1 0 2.3-1 2.6-.8.4-2-.2-2.4-1.3V7c-.2.1-.2.3-.3.4-.8.9-2 1.1-2.8.5-.7-.6-.7-1.9 0-2.8l.3-.4h-.5c-1.1-.2-2-1.1-1.8-2.1.2-1 1.3-1.6 2.4-1.4ZM337.6 96h.4l-.3-.3c-.5-.7-.5-1.7 0-2.1.6-.5 1.6-.3 2.1.3l.2.4.1-.4c.3-.8 1.1-1.3 1.8-1 .8.2 1 1.1.7 2 0 0 0 .2-.2.3l.4-.1c.9-.2 1.7.3 1.8 1 .1.8-.5 1.5-1.4 1.7h-.3l.2.2c.6.7.6 1.7 0 2.1-.6.5-1.5.3-2-.3-.2-.1-.2-.2-.3-.4v.4c-.4.8-1.2 1.3-1.9 1-.7-.2-1-1.1-.7-2l.2-.3-.4.1c-.8.2-1.6-.3-1.8-1 0-.8.5-1.5 1.4-1.6ZM444.5 53.8l.6-.2c-.2 0-.3-.2-.5-.3-1.3-.9-1.7-2.5-1-3.5.8-1 2.4-1.2 3.7-.3l.5.4v-.6c.1-1.5 1.3-2.7 2.6-2.6 1.3.1 2.2 1.5 2 3v.7c.1-.1.3-.3.5-.3 1.4-.7 3-.3 3.5.9s-.2 2.7-1.6 3.3l-.6.2.6.3c1.2 1 1.6 2.5 1 3.5-.8 1-2.4 1.2-3.7.3-.2 0-.4-.2-.5-.4v.7c-.2 1.5-1.3 2.6-2.6 2.5-1.3-.1-2.2-1.5-2-3v-.6l-.5.3c-1.4.6-3 .2-3.5-1-.6-1.1.1-2.6 1.5-3.3ZM532.1 28.5c2.2-.6 3.4-3 4.2-.2.6 1.9.8 5.6.2 8-.1 1-1.5-.8-2.3-1.9-.2-.2-.6-.1-.6.2 0 1.3-.2 3.6-.9 3a19.3 19.3 0 0 1-4.2-7c-.8-2.8 1.5-1.4 3.6-2ZM541.1 29.5c2-2.1 2 .5 3.6 2.1s4.3 1.4 2.3 3.5a19.3 19.3 0 0 1-6.9 4.2c-.8.3 0-1.8.5-3 .2-.2-.1-.5-.4-.4-1.2.6-3.2 1.6-3 .7.6-2.4 2.5-5.7 4-7.1ZM542.2 42.9c.3 0 .4-.5.1-.6-1.1-.8-2.9-2-2.1-2.3 2.4-.7 6.3-.6 8.2-.2 2.8.7.4 2-.1 4.2s1 4.5-1.9 3.8c-1.9-.5-5.3-2.2-7-3.9-.7-.6 1.5-.9 2.8-1ZM537.4 47.5c.1.2.5 0 .5-.2 0-1.3.3-3.6 1-3 1.7 1.7 3.6 5.1 4.1 7 .8 2.8-1.5 1.4-3.6 2-2.2.7-3.4 3.1-4.2.3-.5-1.9-.8-5.6-.2-8 .2-1 1.6.8 2.4 1.9ZM531.4 42.5c.8-.2 0 1.8-.5 3-.1.3.2.6.4.5 1.3-.6 3.3-1.6 3-.8-.5 2.5-2.5 5.8-3.9 7.2-2 2.1-2-.6-3.6-2.1-1.6-1.6-4.3-1.5-2.3-3.6 1.4-1.4 4.5-3.4 7-4.2ZM525.2 34c1.8.6 5.2 2.2 7 4 .7.5-1.5.9-2.8 1-.3 0-.4.4-.2.6 1.1.7 3 2 2.1 2.3-2.4.7-6.2.6-8.1.1-2.9-.7-.5-2 0-4.2.6-2.1-.9-4.4 2-3.7ZM519.4 120.6a4 4 0 1 1 0-8.1 4 4 0 0 1 0 8.1Z"/>
      <path stroke="#000" stroke-linecap="round" stroke-linejoin="round" stroke-miterlimit="10" stroke-width="1.3" d="M510 114.8h3l-2.7-1.5c-.8-.5-1-1.5-.6-2.4.5-.8 1.5-1 2.3-.6l2.7 1.6-1.5-2.7c-.5-.8-.2-1.9.6-2.3.8-.5 1.8-.2 2.3.6l1.6 2.6v-3a1.7 1.7 0 0 1 3.4 0v3l1.5-2.6c.5-.8 1.5-1.1 2.3-.6.9.4 1.1 1.5.7 2.3l-1.6 2.7 2.7-1.6c.8-.4 1.8-.2 2.3.6.5.9.2 2-.6 2.4l-2.7 1.5h3a1.7 1.7 0 0 1 0 3.4h-3l2.7 1.6c.8.4 1 1.5.6 2.3-.5.8-1.5 1-2.3.6l-2.7-1.5 1.6 2.6c.4.9.1 1.9-.7 2.4-.8.4-1.8.2-2.3-.6l-1.5-2.7v3a1.7 1.7 0 0 1-3.4 0v-3l-1.6 2.7c-.5.8-1.5 1-2.3.6-.8-.5-1.1-1.5-.6-2.4l1.5-2.6-2.7 1.5c-.8.5-1.8.2-2.3-.6-.5-.8-.2-1.9.6-2.3l2.7-1.6h-3a1.7 1.7 0 0 1 0-3.4ZM388.3 15s-8 .2-8.2 9.4c-.2 9.2 15 11.8 15.5 2.6.4-8.5-10.6-10-11.2-3.7-.5 5.3 6.8 6.7 6.7 3.5-.2-3-2.6-1.5-2.6-1.5M411.8 201.2l.2 2.6 2.8-3 6.1-1.4-.8 3s2.8-1.5 4.3-2.7c2.3-.3 7.9.6 8.5.7.6.1 2.1.4 2.2 1.3 0 .9-5 4.4-5.4 4.3-.4 0-6.2.3-6.3.6 0 .4 2.4 1.2 4 1.5-1.8 1.9-6.2 3-6.2 3l-4.4-1.3s0 1.2 1.4 2.3c-8.4 2-12.3 0-14.4-1.2-.4-.3-.3-1 .2-1.1 7-.4 13.6-2.4 18.6-4.6.7-.3.3-1.4-.5-1.1-6.8 2-14.7 3.5-18.7 4-.4.1-.8-.4-.5-.8 3.1-4.5 9-6.1 9-6.1ZM401.5 209.5l-4.2.6"/>
      <path fill="#000" d="M381.5 1.6a.7.7 0 1 1 0-1.4.7.7 0 0 1 0 1.4ZM372.4 1.7c.3 0 .5.2.5.5s-.2.6-.5.6a.6.6 0 0 1-.6-.6c0-.3.3-.5.6-.5ZM500.3 94.4a.7.7 0 1 1 0-1.4.7.7 0 0 1 0 1.4ZM506.2 81.8a.7.7 0 1 1 0-1.5.7.7 0 0 1 0 1.5ZM505.5 92.4a.8.8 0 1 1 0-1.7.8.8 0 0 1 0 1.7ZM512 87.6a.6.6 0 1 1 0 1.1.6.6 0 0 1-.5-.5c0-.3.3-.6.6-.6ZM512.4 94.7a.4.4 0 1 1 0-.8.4.4 0 0 1 0 .8Z"/>
      <path stroke="#000" stroke-linecap="round" stroke-linejoin="round" stroke-miterlimit="10" stroke-width="1.3" d="M460.8 132.3c1.7-1.5 3.2-1.6 4-.8.8.8.5 2.3-1.2 3.9-1.8 1.6-4.3 2.7-5.1 1.8-.8-.8.5-3.3 2.3-4.9Z"/>
      <path stroke="#000" stroke-linecap="round" stroke-linejoin="round" stroke-miterlimit="10" stroke-width="1.3" d="M460.3 128.5c1 .6 1.1 2 0 4-1.3 2-3.4 3.9-4.4 3.3-1-.5-.4-3.3.8-5.3 1.2-2 2.6-2.6 3.6-2Z"/>
      <path stroke="#000" stroke-linecap="round" stroke-linejoin="round" stroke-miterlimit="10" stroke-width="1.3" d="M453.2 128.2c1-2 2.3-2.5 3.2-2l.3.1.2.1.1.2h0c.4.8.5 1.6.3 2.4l-.5 1.2-.1.3c-1 2-3 3.8-3.9 3.4-1-.5-.7-3.3.3-5.4l.1-.3ZM451.8 124c1 .2 1.7 1.6 1.2 3.9s-2 4.7-3.1 4.4c-1.1-.2-1.4-3-1-5.3.6-2.3 1.8-3.2 2.9-3ZM463.6 131l1-1c1.5-1.7 1.5-3.2.6-4-.8-.7-2.3-.4-3.8 1.4l-1 1.3M460.2 132.7h.2M460.4 128.2l.4-.5.2-.5c1-2.1.6-3.6-.4-4-1-.5-2.4.1-3.4 2.3l-.3.8v.1"/>
      <path stroke="#000" stroke-linecap="round" stroke-linejoin="round" stroke-miterlimit="10" stroke-width="1.3" d="m456.7 126.3.2-.3c0-.4.2-.7.3-1.1.2-.9.2-1.6 0-2.2 0-1-.6-1.6-1.3-1.7-1.1-.3-2.3.7-2.8 3l-.1 1.1M453 127.6l.2.6M462 126.8c.5-.5 1-1 1.2-1.7 1.2-2 .5-3.8-1-4.6-1.6-.9-3.5-.5-4.6 1.5l-.3.7M455.8 132.4s0 0 0 0l-.2-.2M458.7 137.4c-.8 1.2-3.3 1-5.7-.3-2.4-1.3-3.8-3.5-3.1-4.8M495.5 155.5c-1-1-1.2-2.3-.7-3 .5-.6 1.7-.5 3 .2.2-1.4 1-2.4 1.8-2.4s1.6 1 1.8 2.4c1.3-.7 2.5-.8 3-.1.6.6.2 1.8-.7 2.9 1.3.5 2 1.5 2 2.3-.3.8-1.4 1.3-2.8 1.2.4 1.4.1 2.6-.6 3-.8.3-1.8-.3-2.7-1.4-.8 1.1-1.9 1.7-2.7 1.3-.7-.3-1-1.5-.6-2.9-1.4 0-2.5-.4-2.7-1.2-.2-.8.6-1.8 1.9-2.3Z"/>
      <path stroke="#000" stroke-linecap="round" stroke-linejoin="round" stroke-miterlimit="10" stroke-width="1.3" d="M499.6 158.3a1.8 1.8 0 1 1 0-3.7 1.8 1.8 0 0 1 0 3.7ZM412.4-2.7c-.1.7-.3 1.5-.7 2.2-1.1 2.7-3.2 4.6-5.3 5.1-1 .2-1.8.1-2.6-.2-.9-.4-1.5-1-2-1.8-1-1.8-1.1-4.6 0-7.3.3-.7.7-1.4 1.2-2"/>
      <path stroke="#000" stroke-linecap="round" stroke-linejoin="round" stroke-miterlimit="10" stroke-width="1.3" d="M409 2.3s-3.3 1.4-7.2-3.1M400.3-9.4a15 15 0 0 0-5.3 3.7c-3.7 3.8-4.9 8.6-2.7 10.7 2 1.8 6 .8 9.5-2.4M416.2-2.4c.7 1.7 1 3.8.9 6.1-.3 5.4-3 9.5-5.9 9.4-2.7-.1-4.7-3.8-4.8-8.5"/>
      <path stroke="#000" stroke-linecap="round" stroke-linejoin="round" stroke-miterlimit="10" stroke-width="1.3" d="M397.4-4s-2.8 1.7-3.2 4.8M414.2 3.2s1.3 3.4-.9 5.3M484.6 35.7a3.1 3.1 0 0 0-1.6 2M489.6 35.9c.6.2 1.1.6 1.7 1 2 1.5 3 3.6 3 5.4 0 .7-.3 1.4-.8 2-.4.6-1 1-1.8 1.2-1.7.5-4 0-5.9-1.5l-1.4-1.4"/>
      <path stroke="#000" stroke-linecap="round" stroke-linejoin="round" stroke-miterlimit="10" stroke-width="1.3" d="M489.3 30.6a3.5 3.5 0 0 1 .6 4.9c0 .2-.2.3-.3.4a3.5 3.5 0 0 1-4.6.2 6 6 0 0 0-.4-.4 3.5 3.5 0 0 1 4.7-5Z"/>
      <path fill="#000" d="M485.9 31.5c.7 0 1.3.6 1.3 1.3 0 .8-.6 1.3-1.3 1.3-.7 0-1.3-.5-1.3-1.3 0-.7.6-1.3 1.3-1.3Z"/>
      <path stroke="#000" stroke-linecap="round" stroke-linejoin="round" stroke-miterlimit="10" stroke-width="1.3" d="M483 37.6c.2 0 .4.2.6.4.6.4 1 1 1.2 1.7a3.4 3.4 0 0 1-.6 3.1c-.6.9-1.5 1.3-2.5 1.4-.8 0-1.6-.2-2.3-.7a3.5 3.5 0 0 1-.7-5c1-1.3 2.8-1.6 4.3-1Z"/>
      <path fill="#000" d="M480.8 40.8a1.3 1.3 0 1 1 0-2.6 1.3 1.3 0 0 1 0 2.6Z"/>
      <path stroke="#000" stroke-linecap="round" stroke-linejoin="round" stroke-miterlimit="10" stroke-width="1.3" d="M490.7 37s-.6 4.3-4.9 6.3M493 39.7s.4 3-4 5.1M480.8 35.9s-10-6.6-8 .6c2 7.1 5.5-1 2.4-1M482.4 34s-8.9-8-1.5-8c7.4.1.5 5.6-.4 2.6M481.7 44.2c.2 1.5.8 3.3 1.9 5 2.3 3.8 6 5.8 8 4.5 2-1.3 1.9-4.8 0-8.2M490.6 32.9a13 13 0 0 1 5.2.5c4.2 1.4 7 4.3 6.3 6.7-.7 2.1-4 3-7.8 2.2"/>
      <path stroke="#000" stroke-linecap="round" stroke-linejoin="round" stroke-miterlimit="10" stroke-width="1.3" d="M485.5 47.7s.8 2.6 3.2 3.6M494.8 35.6s3-.4 4 1.8M449.1 22.7l9 2.8c1.4.5 2.9-.3 3.3-1.7l.6-2c.4-1.2-.2-2.5-1.3-3l-.4-.2L455 17"/>
      <path stroke="#000" stroke-linecap="round" stroke-linejoin="round" stroke-miterlimit="10" stroke-width="1.3" d="m455 17 5.7 1.8 3.8 1.1c1.3.5 2.7-.3 3.2-1.6l.6-2c.5-1.3-.3-2.8-1.6-3.2l-28-8.8c-1.3-.4-2.8.3-3.2 1.7"/>
      <path stroke="#000" stroke-linecap="round" stroke-linejoin="round" stroke-miterlimit="10" stroke-width="1.3" d="m460.6 3.7 12 3.7s.2 0 .3.2a3.5 3.5 0 0 1 2 4.4c-.6 1.9-2.6 2.9-4.6 2.3L466 13l-26.8-8.4-4.4-1.3c-.9-.3-1.6-1-2-1.8-.5-.8-.6-1.8-.3-2.7a3.6 3.6 0 0 1 4-2.5l.5.1L448.6 0M442-15.1a2 2 0 0 1 2.5-1.3l29.2 9.1a2 2 0 0 1 1.2 2.5l-1 3.1a2 2 0 0 1-2.4 1.3l-29.2-9.1a2 2 0 0 1-1.2-2.4l1-3.2Z"/>
      <path stroke="#000" stroke-linecap="round" stroke-linejoin="round" stroke-miterlimit="10" stroke-width="1.3" d="M458.3 3c.7-2-.5-4.2-2.5-4.9-2-.6-4.2.5-4.8 2.5m-2.4-.6-11.5-3.6-.5-.2a3.6 3.6 0 0 1-.2-6.5c.9-.4 1.9-.5 2.8-.2l4.3 1.3 27 8.4 4.2 1.3c2 .6 3 2.7 2.4 4.6-.3 1-1 1.7-1.8 2.1-.7.4-1.5.5-2.3.3h-.4l-12-3.8"/>
      <path stroke="#000" stroke-linecap="round" stroke-linejoin="round" stroke-miterlimit="10" stroke-width="1.3" d="M448.6 0c1-3.4 4.6-5.2 8-4.2 3.2 1 5 4.6 4 8 0 0 0 0 0 0a6.3 6.3 0 0 1-12-3.8s0 0 0 0Zm9.7 3c.7-2-.5-4.2-2.5-4.9-2-.6-4.2.5-4.8 2.5l7.3 2.4Z"/>
      <path stroke="#000" stroke-linecap="round" stroke-linejoin="round" stroke-miterlimit="10" stroke-width="1.3" d="M458.3 3s0 0 0 0c-.7 2-2.8 3.1-4.8 2.5-2-.6-3.2-2.7-2.6-4.7 0 0 0 0 0 0M444 1.3 436.9-1M471.5 11.6l-5.2-1.6M456.2 22.3l.7.2a2 2 0 0 0 2.5-1.3l.2-.4M435.8 5.5c.5-.6 3.3 3.7 7 4.2 1.8.2 2.4-1.2 4.2 0 1.2.9.7 2 2.3 3.1 1 .8 2.2 1.2 3.3 1.4 1.8.4 2.9 2.3 2.3 4.1l-.2.6c-.5 1.5-2 2.5-3.7 2.2-.5-.1-.9-.4-1.3-.7l-.9 3a3 3 0 0 1-3.8 2c-1.2-.4-2-1.4-2.1-2.5l-1.3 4c-.5 1.6-2.2 2.6-3.7 2.2a3 3 0 0 1-2.1-3.9l.1-.4-1.3-.1c-.9-.3-1.6-1-2.1-1.9-.5-.9-.7-2-.6-3 .2-2.7 1.2-11.2 4-14.3Z"/>
      <path stroke="#000" stroke-linecap="round" stroke-linejoin="round" stroke-miterlimit="10" stroke-width="1.3" d="M445.5 17.7c-1.8 1-3 .6-3.8-1.2M438.2 21.3s-1.4.7-2.7-.8"/>
      <path stroke="#000" stroke-dasharray="4.7 4.7" stroke-linecap="round" stroke-linejoin="round" stroke-miterlimit="10" stroke-width="1.3" d="M461.5 39.4s-31.6 3.8-43-15.3M498.3 2.4s1.3 12.5-7.3 20"/>
    </g>
  </g>
  <defs>
    <clipPath id="a">
      <path fill="#fff" d="M0-293h574v812H0z"/>
    </clipPath>
    <clipPath id="b">
      <path fill="#fff" d="M0-293h332v719H0z"/>
    </clipPath>
    <clipPath id="c">
      <path fill="#fff" d="M664-49H332v719h332z"/>
    </clipPath>
  </defs>
</svg>
