<svg width="187" height="187" viewBox="0 0 187 187" fill="none" xmlns="http://www.w3.org/2000/svg">
<path fill-rule="evenodd" clip-rule="evenodd" d="M93.5 0C145.15 0 187 41.8498 187 93.5C187 145.15 145.15 187 93.5 187C41.8498 187 0 145.15 0 93.5C0 41.8498 41.8498 0 93.5 0ZM93.5 32.3622L59.9701 65.8921L61.6174 67.5394C68.7696 62.6809 76.9019 59.8867 85.2009 59.1569L48.8143 95.5435L55.3827 102.112C63.4524 95.189 72.8149 90.5807 82.6153 88.2662L39.848 131.033L42.4962 133.682C71.8557 113.726 111.599 115.52 139.061 139.103L147.152 131.033L102.883 86.7648C113.768 87.6823 124.465 91.3105 133.848 97.6912L135.996 95.5435L100.673 60.2203C108.347 61.951 115.666 65.5376 121.984 70.9382L127.03 65.8921L93.5 32.3622Z" fill="#627856" fill-opacity="0.3"/>
</svg>
