<svg width="33" height="33" viewBox="0 0 33 33" fill="none" xmlns="http://www.w3.org/2000/svg">
<path fill-rule="evenodd" clip-rule="evenodd" d="M16.5 0C25.6147 0 33 7.38526 33 16.5C33 25.6147 25.6147 33 16.5 33C7.38526 33 0 25.6147 0 16.5C0 7.38526 7.38526 0 16.5 0ZM16.5 5.71097L10.583 11.628L10.8737 11.9187C12.1358 11.0613 13.5709 10.5682 15.0355 10.4395L8.6143 16.8606L9.77342 18.0197C11.1975 16.7981 12.8497 15.9848 14.5792 15.5764L7.032 23.1236L7.49933 23.5909C12.6804 20.0694 19.694 20.3858 24.5403 24.5476L25.968 23.1236L18.1559 15.3114C20.0767 15.4733 21.9644 16.1136 23.6203 17.2396L23.9993 16.8606L17.7658 10.6271C19.12 10.9325 20.4116 11.5655 21.5265 12.5185L22.417 11.628L16.5 5.71097Z" fill="#D7B56D"/>
</svg>
