<svg width="40" height="40" viewBox="0 0 40 40" fill="none" xmlns="http://www.w3.org/2000/svg">
<rect x="0.5" y="0.5" width="39" height="39" rx="19.5" stroke="#5F6368"/>
<path d="M26.7504 14V23.75C26.7504 23.9489 26.6714 24.1397 26.5307 24.2803C26.3901 24.421 26.1993 24.5 26.0004 24.5C25.8015 24.5 25.6107 24.421 25.4701 24.2803C25.3294 24.1397 25.2504 23.9489 25.2504 23.75V15.8103L14.531 26.5306C14.3903 26.6714 14.1994 26.7504 14.0004 26.7504C13.8014 26.7504 13.6105 26.6714 13.4698 26.5306C13.3291 26.3899 13.25 26.199 13.25 26C13.25 25.801 13.3291 25.6101 13.4698 25.4694L24.1901 14.75H16.2504C16.0515 14.75 15.8607 14.671 15.7201 14.5303C15.5794 14.3897 15.5004 14.1989 15.5004 14C15.5004 13.8011 15.5794 13.6103 15.7201 13.4697C15.8607 13.329 16.0515 13.25 16.2504 13.25H26.0004C26.1993 13.25 26.3901 13.329 26.5307 13.4697C26.6714 13.6103 26.7504 13.8011 26.7504 14Z" fill="#5F6368"/>
</svg>
