<svg width="40" height="40" viewBox="0 0 40 40" fill="none" xmlns="http://www.w3.org/2000/svg">
<rect x="0.5" y="0.5" width="39" height="39" rx="19.5" stroke="#5F6368"/>
<path d="M18.5 19.25C18.5 19.5467 18.412 19.8367 18.2472 20.0834C18.0824 20.33 17.8481 20.5223 17.574 20.6358C17.2999 20.7494 16.9983 20.7791 16.7074 20.7212C16.4164 20.6633 16.1491 20.5204 15.9393 20.3107C15.7296 20.1009 15.5867 19.8336 15.5288 19.5426C15.4709 19.2517 15.5006 18.9501 15.6142 18.676C15.7277 18.4019 15.92 18.1676 16.1666 18.0028C16.4133 17.838 16.7033 17.75 17 17.75C17.3978 17.75 17.7794 17.908 18.0607 18.1893C18.342 18.4706 18.5 18.8522 18.5 19.25ZM29.75 13.25V26.75C29.75 27.1478 29.592 27.5294 29.3107 27.8107C29.0294 28.092 28.6478 28.25 28.25 28.25H11.75C11.3522 28.25 10.9706 28.092 10.6893 27.8107C10.408 27.5294 10.25 27.1478 10.25 26.75V13.25C10.25 12.8522 10.408 12.4706 10.6893 12.1893C10.9706 11.908 11.3522 11.75 11.75 11.75H28.25C28.6478 11.75 29.0294 11.908 29.3107 12.1893C29.592 12.4706 29.75 12.8522 29.75 13.25ZM20.7266 23.5625C20.4839 22.6563 19.9084 21.875 19.115 21.3744C19.5363 20.9555 19.8238 20.421 19.941 19.8386C20.0582 19.2562 19.9999 18.652 19.7733 18.1028C19.5468 17.5536 19.1623 17.084 18.6686 16.7536C18.1748 16.4232 17.5941 16.2468 17 16.2468C16.4059 16.2468 15.8252 16.4232 15.3314 16.7536C14.8377 17.084 14.4532 17.5536 14.2267 18.1028C14.0001 18.652 13.9418 19.2562 14.059 19.8386C14.1762 20.421 14.4637 20.9555 14.885 21.3744C14.0921 21.8755 13.5168 22.6566 13.2734 23.5625C13.2237 23.7552 13.2526 23.9598 13.3537 24.1312C13.4548 24.3026 13.6198 24.4268 13.8125 24.4766C14.0052 24.5263 14.2098 24.4974 14.3812 24.3963C14.5526 24.2952 14.6768 24.1302 14.7266 23.9375C14.9741 22.9766 15.9509 22.25 17 22.25C18.0491 22.25 19.0269 22.9747 19.2734 23.9375C19.3232 24.1302 19.4474 24.2952 19.6188 24.3963C19.7902 24.4974 19.9948 24.5263 20.1875 24.4766C20.3802 24.4268 20.5452 24.3026 20.6463 24.1312C20.7474 23.9598 20.7763 23.7552 20.7266 23.5625ZM26.75 21.5C26.75 21.3011 26.671 21.1103 26.5303 20.9697C26.3897 20.829 26.1989 20.75 26 20.75H22.25C22.0511 20.75 21.8603 20.829 21.7197 20.9697C21.579 21.1103 21.5 21.3011 21.5 21.5C21.5 21.6989 21.579 21.8897 21.7197 22.0303C21.8603 22.171 22.0511 22.25 22.25 22.25H26C26.1989 22.25 26.3897 22.171 26.5303 22.0303C26.671 21.8897 26.75 21.6989 26.75 21.5ZM26.75 18.5C26.75 18.3011 26.671 18.1103 26.5303 17.9697C26.3897 17.829 26.1989 17.75 26 17.75H22.25C22.0511 17.75 21.8603 17.829 21.7197 17.9697C21.579 18.1103 21.5 18.3011 21.5 18.5C21.5 18.6989 21.579 18.8897 21.7197 19.0303C21.8603 19.171 22.0511 19.25 22.25 19.25H26C26.1989 19.25 26.3897 19.171 26.5303 19.0303C26.671 18.8897 26.75 18.6989 26.75 18.5Z" fill="#5F6368"/>
</svg>
