<svg width="40" height="40" viewBox="0 0 40 40" fill="none" xmlns="http://www.w3.org/2000/svg">
<rect width="40" height="40" rx="20" fill="white"/>
<g clip-path="url(#clip0_4002_3318)">
<path d="M29.75 18.125V21.875C29.75 22.2728 29.592 22.6544 29.3107 22.9357C29.0294 23.217 28.6478 23.375 28.25 23.375H23.375V28.25C23.375 28.6478 23.217 29.0294 22.9357 29.3107C22.6544 29.592 22.2728 29.75 21.875 29.75H18.125C17.7272 29.75 17.3456 29.592 17.0643 29.3107C16.783 29.0294 16.625 28.6478 16.625 28.25V23.375H11.75C11.3522 23.375 10.9706 23.217 10.6893 22.9357C10.408 22.6544 10.25 22.2728 10.25 21.875V18.125C10.25 17.7272 10.408 17.3456 10.6893 17.0643C10.9706 16.783 11.3522 16.625 11.75 16.625H16.625V11.75C16.625 11.3522 16.783 10.9706 17.0643 10.6893C17.3456 10.408 17.7272 10.25 18.125 10.25H21.875C22.2728 10.25 22.6544 10.408 22.9357 10.6893C23.217 10.9706 23.375 11.3522 23.375 11.75V16.625H28.25C28.6478 16.625 29.0294 16.783 29.3107 17.0643C29.592 17.3456 29.75 17.7272 29.75 18.125Z" fill="#5F6368"/>
</g>
<defs>
<clipPath id="clip0_4002_3318">
<rect width="24" height="24" fill="white" transform="translate(8 8)"/>
</clipPath>
</defs>
</svg>
