<svg width="40" height="40" viewBox="0 0 40 40" fill="none" xmlns="http://www.w3.org/2000/svg">
<rect width="40" height="40" rx="20" fill="white"/>
<g clip-path="url(#clip0_4002_27430)">
<path d="M14.5 14C13.95 14 13.4792 13.8042 13.0875 13.4125C12.6958 13.0208 12.5 12.55 12.5 12C12.5 11.45 12.6958 10.9792 13.0875 10.5875C13.4792 10.1958 13.95 10 14.5 10C15.05 10 15.5208 10.1958 15.9125 10.5875C16.3042 10.9792 16.5 11.45 16.5 12C16.5 12.55 16.3042 13.0208 15.9125 13.4125C15.5208 13.8042 15.05 14 14.5 14ZM13 30V23H11V17C11 16.45 11.1958 15.9792 11.5875 15.5875C11.9792 15.1958 12.45 15 13 15H16C16.55 15 17.0208 15.1958 17.4125 15.5875C17.8042 15.9792 18 16.45 18 17V18.95C16.95 19.55 16.1042 20.3833 15.4625 21.45C14.8208 22.5167 14.5 23.7 14.5 25C14.5 25.95 14.675 26.8458 15.025 27.6875C15.375 28.5292 15.8667 29.2667 16.5 29.9V30H13ZM21.5 30C20.1167 30 18.9375 29.5125 17.9625 28.5375C16.9875 27.5625 16.5 26.3833 16.5 25C16.5 23.8833 16.8292 22.8958 17.4875 22.0375C18.1458 21.1792 18.9833 20.5833 20 20.25V22.425C19.55 22.6917 19.1875 23.05 18.9125 23.5C18.6375 23.95 18.5 24.45 18.5 25C18.5 25.8333 18.7917 26.5417 19.375 27.125C19.9583 27.7083 20.6667 28 21.5 28C22.3333 28 23.0417 27.7083 23.625 27.125C24.2083 26.5417 24.5 25.8333 24.5 25H26.5C26.5 26.3833 26.0125 27.5625 25.0375 28.5375C24.0625 29.5125 22.8833 30 21.5 30ZM28.925 27.7L26.45 24H21V16H23V22H27.55L30.6 26.6L28.925 27.7Z" fill="#5F6368"/>
</g>
<defs>
<clipPath id="clip0_4002_27430">
<rect width="24" height="24" fill="white" transform="translate(8 8)"/>
</clipPath>
</defs>
</svg>
