<svg width="40" height="40" viewBox="0 0 40 40" fill="none" xmlns="http://www.w3.org/2000/svg">
<rect width="40" height="40" rx="20" fill="white"/>
<g clip-path="url(#clip0_4030_1593)">
<path d="M28.2557 26V27.125C28.2557 28.0208 27.8998 28.88 27.2664 29.5135C26.6329 30.1469 25.7737 30.5028 24.8779 30.5028C23.982 30.5028 23.1229 30.1469 22.4894 29.5135C21.856 28.88 21.5001 28.0208 21.5001 27.125V26C21.5001 25.8011 21.5791 25.6103 21.7198 25.4697C21.8604 25.329 22.0512 25.25 22.2501 25.25H27.5001C27.599 25.2493 27.6972 25.2681 27.7888 25.3055C27.8805 25.3428 27.9638 25.398 28.0341 25.4677C28.1043 25.5374 28.16 25.6203 28.1981 25.7117C28.2361 25.803 28.2557 25.901 28.2557 26ZM17.7501 23H12.5001C12.3012 23 12.1104 23.079 11.9698 23.2197C11.8291 23.3603 11.7501 23.5511 11.7501 23.75V24.875C11.7501 25.7701 12.1057 26.6285 12.7386 27.2615C13.3715 27.8944 14.23 28.25 15.1251 28.25C16.0202 28.25 16.8786 27.8944 17.5116 27.2615C18.1445 26.6285 18.5001 25.7701 18.5001 24.875V23.75C18.5001 23.5511 18.4211 23.3603 18.2804 23.2197C18.1398 23.079 17.949 23 17.7501 23ZM15.1251 9.5C14.0338 9.5 12.9754 10.4666 12.1438 12.2187C10.8379 14.9731 10.4038 19.0625 12.171 21.2187C12.2415 21.3048 12.3302 21.374 12.4307 21.4215C12.5312 21.469 12.6411 21.4936 12.7523 21.4934H17.4913C17.6025 21.4936 17.7124 21.469 17.8129 21.4215C17.9134 21.374 18.0021 21.3048 18.0726 21.2187C19.8398 19.0625 19.4057 14.9703 18.0998 12.2187C17.2673 10.4666 16.2098 9.5 15.1251 9.5ZM22.5126 23.75H27.2516C27.3628 23.7502 27.4727 23.7256 27.5732 23.6781C27.6737 23.6306 27.7624 23.5613 27.8329 23.4753C29.6001 21.3191 29.166 17.2269 27.8601 14.4753C27.0248 12.7166 25.9663 11.75 24.8751 11.75C23.7838 11.75 22.7291 12.7166 21.8966 14.4687C20.5907 17.2231 20.1566 21.3125 21.9238 23.4687C21.994 23.5565 22.0831 23.6273 22.1843 23.6759C22.2856 23.7246 22.3965 23.7499 22.5088 23.75H22.5126Z" fill="#5F6368"/>
</g>
<defs>
<clipPath id="clip0_4030_1593">
<rect width="24" height="24" fill="white" transform="translate(8 8)"/>
</clipPath>
</defs>
</svg>
